<svg width="40" height="40" viewBox="0 0 40 40" fill="none" xmlns="http://www.w3.org/2000/svg">
<rect width="40" height="40" rx="8" fill="#F5F5F5"/>
<g clip-path="url(#clip0_943_36127)">
<path d="M19.4749 10.5834L21.181 12.2625L18.3611 15.0376L16.655 13.3585L19.4749 10.5834ZM13.2664 10.0237L14.9725 11.7028L17.7924 8.92769L16.0863 7.24863L13.2664 10.0237ZM14.1905 19.1187L15.8967 20.7977L20.0673 16.6933L18.3611 15.0143L14.1905 19.1187ZM10.8019 15.7839L12.5081 17.4629L16.6787 13.3585L14.9725 11.6795L10.8019 15.7839ZM21.1573 12.2392L22.8635 13.9182L27.0341 9.81386L25.3279 8.1348L21.1573 12.2392ZM24.4511 15.6673L26.1573 17.3463L30.3279 13.2419L28.6217 11.5629L24.4511 15.6673ZM17.7687 8.90437L19.4749 10.5834L23.6455 6.47906L21.9393 4.8L17.7687 8.90437ZM18.1479 28.5401L16.4417 26.861L19.2616 24.0859L20.9678 25.7649L18.1479 28.5401ZM24.3564 29.0997L22.6502 27.4207L19.8303 30.1958L21.5365 31.8749L24.3564 29.0997ZM23.4322 20.0048L21.726 18.3258L17.5792 22.4301L19.2853 24.1092L23.4322 20.0048ZM26.8208 23.3396L25.1146 21.6606L20.9441 25.7649L22.6502 27.444L26.8208 23.3396ZM16.4417 26.861L14.7356 25.1819L10.565 29.2863L12.2711 30.9654L16.4417 26.861ZM13.0768 23.5495L11.3707 21.8704L7.20007 25.9748L8.90622 27.6539L13.0768 23.5495ZM19.8303 30.1958L18.1242 28.5167L13.9536 32.6211L15.6597 34.3002L19.8303 30.1958Z" fill="url(#paint0_radial_943_36127)"/>
</g>
<defs>
<radialGradient id="paint0_radial_943_36127" cx="0" cy="0" r="1" gradientUnits="userSpaceOnUse" gradientTransform="translate(8.70338 32.6382) rotate(-52.1602) scale(35.2503 38.0712)">
<stop stop-color="#F18C53"/>
<stop offset="1" stop-color="#E83A64"/>
</radialGradient>
<clipPath id="clip0_943_36127">
<rect width="32" height="32" fill="white" transform="translate(4 4)"/>
</clipPath>
</defs>
</svg>
