<svg width="180" height="180" viewBox="0 0 180 180" fill="none" xmlns="http://www.w3.org/2000/svg">
<g clip-path="url(#clip0_1107_82837)">
<path d="M56.25 -0.000488281H0V56.2495H56.25V-0.000488281ZM45 44.9995H11.25V11.2495H45V44.9995Z" fill="black"/>
<path d="M33.752 22.5017H22.502V33.7517H33.752V22.5017Z" fill="black"/>
<path d="M123.751 -0.000427246V56.2496H180.001V-0.000427246H123.751ZM168.751 44.9996H135.001V11.2496H168.751V44.9996Z" fill="black"/>
<path d="M157.503 22.5017H146.253V33.7517H157.503V22.5017Z" fill="black"/>
<path d="M0 179.999H56.25V123.749H0V179.999ZM11.25 134.999H45V168.749H11.25V134.999Z" fill="black"/>
<path d="M33.752 146.251H22.502V157.501H33.752V146.251Z" fill="black"/>
<path d="M112.503 -0.000427246H90.0029V11.2496H112.503V-0.000427246Z" fill="black"/>
<path d="M90.0029 45.0021H101.253V33.7521H112.503V22.5021H78.7529V11.2521H67.5029V22.5021V28.1271V33.7521H90.0029V45.0021Z" fill="black"/>
<path d="M78.7529 45H67.5029V56.25H78.7529V45Z" fill="black"/>
<path d="M112.503 56.2513H101.253V67.5013H67.5029V78.7513H112.503V56.2513Z" fill="black"/>
<path d="M11.25 101.252H22.5V90.0021H11.25V67.5021H0V112.502H11.25V101.252Z" fill="black"/>
<path d="M33.752 67.5021H22.502V78.7521H33.752V67.5021Z" fill="black"/>
<path d="M67.501 112.502H90.001V101.252H78.751V90.0021H56.251V67.5021H45.001V90.0021H33.751V112.502H45.001V101.252H50.626H56.251H67.501V112.502Z" fill="black"/>
<path d="M112.501 89.9991H101.251V112.499H112.501V89.9991Z" fill="black"/>
<path d="M101.253 123.749H67.5029V134.999H90.0029V168.749H67.5029V179.999H101.253V168.749H123.753V157.499H101.253V123.749Z" fill="black"/>
<path d="M78.7529 146.251H67.5029V157.501H78.7529V146.251Z" fill="black"/>
<path d="M123.752 123.749H112.502V146.249H123.752V123.749Z" fill="black"/>
<path d="M168.752 146.251H135.002V180.001H146.252V157.501H168.752V146.251Z" fill="black"/>
<path d="M180 168.751H157.5V180.001H180V168.751Z" fill="black"/>
<path d="M180.001 123.749H168.751V134.999H180.001V123.749Z" fill="black"/>
<path d="M135.001 135.002H146.251V101.252H123.751V112.502H135.001V135.002Z" fill="black"/>
<path d="M157.501 78.7521H146.251V67.5021H135.001V78.7521H123.751V90.0021H168.751V78.7521H180.001V67.5021H157.501V78.7521Z" fill="black"/>
<path d="M180 101.252H157.5V112.502H180V101.252Z" fill="black"/>
</g>
<defs>
<clipPath id="clip0_1107_82837">
<rect width="180" height="180" rx="12" fill="white"/>
</clipPath>
</defs>
</svg>
