<svg width="21" height="18" viewBox="0 0 21 18" fill="none" xmlns="http://www.w3.org/2000/svg">
<g clip-path="url(#clip0_10_7211)">
<path d="M15.6867 16.0977C14.5308 15.6859 13.3746 15.2742 12.2118 14.86C12.4195 14.3856 12.6353 13.9664 12.7878 13.5245C12.936 13.0947 13.019 12.6415 13.1472 12.1323C13.7928 12.4643 14.4798 12.7549 15.1023 13.1507C16.5911 14.0967 17.9912 15.1682 19.2435 16.429C19.5669 16.7547 19.8249 17.0973 19.7143 17.6045C19.6617 17.8466 19.5453 18.012 19.2904 17.9995C17.0542 17.8916 14.7981 18.1485 12.5839 17.6667C11.9929 17.538 11.4353 17.2561 10.8554 17.0672C10.1016 16.822 9.34046 16.5991 8.58241 16.3672C8.48795 16.3382 8.39309 16.3124 8.29824 16.2851C8.29325 16.2499 8.28826 16.2147 8.28326 16.1795C8.48795 16.1134 8.68879 16.0301 8.89769 15.9839C10.1097 15.7164 11.3289 15.8252 12.5462 15.9323C13.4452 16.0117 14.3427 16.1099 15.2409 16.1951C15.383 16.2084 15.5274 16.1971 15.671 16.1971C15.6764 16.1642 15.6817 16.131 15.6871 16.0981L15.6867 16.0977Z" fill="#17B1D3"/>
<path d="M7.69881 14.9457C6.52179 15.3435 5.33556 15.7447 4.14972 16.1455C6.19999 16.2801 8.18075 16.6093 10.0617 17.393C10.0528 17.4759 10.044 17.5588 10.0356 17.6417C9.32704 17.6417 8.61738 17.6148 7.9104 17.6468C5.94884 17.7356 3.98843 17.8572 2.02648 17.946C1.53763 17.9683 1.0434 17.9409 0.556079 17.8912C0.00386197 17.8349 -0.149361 17.5409 0.151325 17.0638C0.392104 16.6813 0.681269 16.309 1.01805 16.0141C2.71503 14.5265 4.56753 13.2708 6.57978 12.2654C6.62509 12.2427 6.67924 12.2388 6.7019 12.2329C6.80904 12.7147 6.86818 13.1996 7.03062 13.6458C7.18922 14.0819 7.45303 14.478 7.69881 14.9453V14.9457Z" fill="#17B1D3"/>
<path d="M14.5508 3.51145C13.5074 4.31939 12.5842 4.21576 11.042 3.17982C10.7486 3.41681 10.7475 3.71832 10.8343 4.05503C11.1495 5.27516 11.9207 6.10461 12.9924 6.67048C13.4348 6.90434 13.8453 6.79993 14.1929 6.4507C14.2754 6.3678 14.3211 6.24657 14.3841 6.14333C14.421 6.17461 14.4579 6.20629 14.4951 6.23757C13.8715 7.82999 13.2478 9.42242 12.6123 11.0453C12.3388 10.6496 12.3377 10.5796 12.4729 10.2128C12.762 9.42945 13.0435 8.64302 13.3227 7.8558C13.3711 7.71932 13.3941 7.57385 13.4348 7.40647C13.1376 7.29541 12.8588 7.21133 12.5969 7.08971C10.9871 6.3412 9.9829 4.51727 10.1772 2.71211C10.294 1.62651 10.8903 0.969909 11.9491 0.771247C12.1822 0.727447 12.3742 0.710632 12.4878 0.409511C12.6368 0.0145335 13.1837 -0.103569 13.595 0.0915736C14.0024 0.285151 14.1007 0.626943 13.8853 1.17991C14.8507 1.95892 15.1806 3.05898 15.3192 4.26112C15.4048 5.00337 15.7585 5.615 16.3376 6.07958C16.5876 6.27981 16.848 6.46752 17.111 6.64936C18.0738 7.31496 18.5649 8.23553 18.5645 9.42124C18.5645 9.90773 18.5361 10.3942 18.5392 10.8803C18.5453 11.8709 18.9516 12.628 19.7627 13.2036C20.1882 13.5055 20.5326 13.9295 20.8994 14.3119C20.9831 14.3991 21.0077 14.5446 20.9965 14.7108C20.9255 14.649 20.831 14.6013 20.7872 14.5235C20.5065 14.0257 20.0507 13.7785 19.5595 13.545C18.6344 13.1063 18.1613 12.3296 18.1053 11.2995C18.0768 10.7736 18.0795 10.2456 18.0861 9.71845C18.0999 8.58827 17.6629 7.70759 16.7332 7.07758C16.4021 6.85311 16.0919 6.59735 15.7747 6.35255C15.1725 5.88835 14.8254 5.27711 14.7309 4.51023C14.6921 4.19308 14.6184 3.88062 14.55 3.50949L14.5508 3.51145Z" fill="#17B1D3"/>
<path d="M9.69916 9.49075C11.2928 9.53338 12.8942 10.9201 12.1765 12.9626C11.9453 13.6204 11.5371 14.2262 11.1415 14.8073C10.8343 15.259 10.3247 15.3223 9.80899 15.241C8.3021 15.0036 6.48647 12.7108 7.66425 10.6843C8.11355 9.91075 8.82629 9.48684 9.69916 9.49075Z" fill="#17B1D3"/>
<path d="M16.065 9.30542C16.1667 10.3699 15.9229 11.3835 15.2635 12.337C15.1234 12.2646 15.0001 12.2009 14.9613 12.1809C15.3419 11.1888 15.7074 10.2365 16.0646 9.30542H16.065Z" fill="#17B1D3"/>
<path d="M13.3784 11.5478C13.3496 11.463 13.2755 11.3617 13.2985 11.2956C13.7351 10.0367 14.1833 8.7818 14.6307 7.52687C14.6429 7.49207 14.6767 7.46547 14.7954 7.46821C14.3776 8.81935 13.9598 10.1705 13.5424 11.5216C13.4878 11.5306 13.4329 11.5392 13.3784 11.5482V11.5478Z" fill="#17B1D3"/>
</g>
<defs>
<clipPath id="clip0_10_7211">
<rect width="21" height="18" fill="white"/>
</clipPath>
</defs>
</svg>
