<svg width="22" height="10" viewBox="0 0 22 10" fill="none" xmlns="http://www.w3.org/2000/svg">
<path d="M20.4671 9.17477L17.3412 0.568319L17.3391 0.562622H17.2774L16.6337 2.33122L15.4618 5.55099L15.459 5.54844C15.0529 5.19005 14.4798 4.96603 13.7582 4.8826L13.5381 4.85988L13.7564 4.83188C14.9465 4.61802 15.7465 3.86639 15.7465 2.96083C15.7465 1.71903 14.5785 0.852268 12.9055 0.852268H9.42448V0.915143H10.436V7.33174L7.97943 0.568298L7.97722 0.562622H7.91553L7.2718 2.33122L4.78901 9.15262L4.77373 9.15439C4.7313 9.15962 4.68934 9.16378 4.64781 9.16692C4.58536 9.17182 4.52327 9.17475 4.46098 9.17475H1.95232L6.72095 0.915121L6.75639 0.853048H0.924173V3.40813H0.986056C0.997028 2.16359 1.72182 0.915121 3.32318 0.915121H5.2551L0.450439 9.23663H6.92324V6.7887H6.86136C6.85292 7.87343 6.23802 8.90374 4.90085 9.13637L4.85834 9.14363L5.8767 6.34454H8.72944L9.75737 9.17477H8.74336V9.23666H12.7234V9.17477H11.705V4.90551H12.88C14.0758 4.90551 14.7616 5.43974 14.7616 6.37075V7.12805C14.7616 7.2115 14.7673 7.33349 14.7736 7.43553V7.43924L14.142 9.17437H13.3169V9.23625H15.0248V9.17437H14.2086L14.7838 7.59436C14.7849 7.60963 14.7855 7.61883 14.7855 7.61883L14.8014 7.76121L14.8167 7.85539C14.9126 8.43802 15.1355 8.86631 15.4788 9.12833L15.5282 9.16418C15.789 9.34553 16.1131 9.43737 16.4921 9.43737C16.994 9.43737 17.3287 9.31223 17.605 9.01771L17.5688 8.98362C17.3142 9.21862 17.1005 9.31381 16.8328 9.31381C16.3767 9.31381 16.138 8.76056 16.138 8.21496V7.1539C16.1404 6.89062 16.0992 6.62877 16.016 6.37898L16.0046 6.34608V6.3449H18.0912L19.1192 9.17515H18.1052V9.23703H21.5493V9.17515L20.4671 9.17477ZM5.8994 6.28264L7.30473 2.42171L8.70692 6.28264H5.8994ZM11.7056 4.84342V0.915121H12.6025C13.8007 0.915121 14.4332 1.62738 14.4332 2.97416C14.4332 4.4065 14.0701 4.84342 12.88 4.84342H11.7056ZM15.9803 6.28264L15.9743 6.26736C15.8815 6.04152 15.7465 5.83546 15.5765 5.66026L15.5178 5.6015L15.5115 5.59564L16.6657 2.42171L18.0679 6.28264H15.9803Z" fill="black"/>
</svg>
