<svg width="124" height="124" viewBox="0 0 124 124" fill="none" xmlns="http://www.w3.org/2000/svg">
<circle cx="62" cy="62" r="54" fill="#020202"/>
<circle cx="62" cy="62" r="54" fill="#ED506A"/>
<path d="M55.0389 80.3737C54.4505 79.9327 53.7524 79.6992 53.0197 79.6992C51.947 79.6992 50.9629 80.1908 50.3208 81.0477C49.7806 81.7679 49.5533 82.6552 49.6804 83.5463C49.8075 84.4375 50.2745 85.2256 50.9948 85.7658C51.5831 86.2068 52.2812 86.4403 53.014 86.4403C54.0866 86.4403 55.0707 85.9488 55.7129 85.0918C56.8274 83.6052 56.5256 81.4883 55.0389 80.3737H55.0389Z" fill="white"/>
<path d="M46.2734 71.6107C47.346 71.6107 48.3296 71.1192 48.9723 70.2623C50.0873 68.7756 49.7849 66.6592 48.2982 65.5441C47.7114 65.1041 47.0152 64.8711 46.2843 64.8701C46.2805 64.8701 46.2766 64.8706 46.2733 64.8706C46.2713 64.8706 46.2699 64.8701 46.268 64.8701C45.1997 64.8735 44.2204 65.3641 43.58 66.2182C43.0399 66.9385 42.8126 67.8258 42.9397 68.7169C43.0668 69.6079 43.5338 70.3961 44.254 70.9363C44.8424 71.3778 45.5405 71.6108 46.2732 71.6108L46.2734 71.6107Z" fill="white"/>
<path d="M64.4746 84.4157C63.8863 83.9747 63.1882 83.7412 62.4555 83.7412C61.3828 83.7412 60.3992 84.2328 59.7565 85.0897C58.6415 86.5763 58.9439 88.6928 60.4306 89.8078C61.0189 90.2488 61.717 90.4823 62.4498 90.4823C63.5224 90.4823 64.5061 89.9907 65.1487 89.1338C65.6889 88.4136 65.9161 87.5263 65.789 86.6352C65.6614 85.7445 65.1944 84.9559 64.4747 84.4157H64.4746Z" fill="white"/>
<path d="M44.2531 46.6717C44.84 47.1117 45.5367 47.3447 46.268 47.3457C46.2714 47.3457 46.2748 47.3452 46.2786 47.3452H46.2829C47.3517 47.3423 48.331 46.8513 48.9717 45.9971C50.0868 44.5105 49.7844 42.394 48.2977 41.279C47.7128 40.8399 47.0185 40.6074 46.2896 40.6055C46.2838 40.6055 46.2781 40.6059 46.2728 40.6059C46.2689 40.6059 46.2655 40.6055 46.2617 40.6055C45.1953 40.6108 44.219 41.1009 43.5795 41.9531C43.0394 42.6733 42.8121 43.5606 42.9392 44.4517C43.0663 45.3438 43.5333 46.1315 44.2531 46.6717L44.2531 46.6717Z" fill="white"/>
<path d="M71.8858 79.7002C71.153 79.7002 70.455 79.9332 69.8666 80.3747C69.1463 80.9149 68.6798 81.703 68.5523 82.5942C68.4252 83.4853 68.6524 84.3727 69.1926 85.0928C69.8353 85.9498 70.8188 86.4413 71.8915 86.4413C72.6242 86.4413 73.3223 86.2083 73.9107 85.7668C74.6309 85.2266 75.0974 84.4385 75.225 83.5473C75.3521 82.6561 75.1249 81.7688 74.5847 81.0487C73.9425 80.1917 72.9589 79.7002 71.8858 79.7002Z" fill="white"/>
<path d="M44.2535 38.5843C44.8384 39.0233 45.5327 39.2559 46.2616 39.2578C46.2674 39.2578 46.2731 39.2573 46.2784 39.2573C46.2823 39.2573 46.2857 39.2578 46.2895 39.2578C47.3554 39.2525 48.3322 38.7624 48.9717 37.9102C49.5118 37.19 49.7391 36.3027 49.612 35.4116C49.4849 34.5205 49.0179 33.7323 48.2976 33.1921C47.7098 32.7506 47.0117 32.5176 46.2789 32.5176C45.2063 32.5176 44.2222 33.0091 43.58 33.866C43.0399 34.5863 42.8126 35.4736 42.9397 36.3647C43.0668 37.2554 43.5338 38.044 44.2536 38.5842L44.2535 38.5843Z" fill="white"/>
<path d="M44.2533 54.7601C44.8402 55.2001 45.5368 55.4331 46.2682 55.4341C46.2716 55.4341 46.2749 55.4336 46.2788 55.4336H46.2831C47.3519 55.4307 48.3312 54.9396 48.9719 54.0855C50.087 52.5989 49.7846 50.4824 48.2979 49.3674C47.711 48.9273 47.0144 48.6943 46.283 48.6934C46.2797 48.6934 46.2763 48.6938 46.2724 48.6938H46.2681C45.1993 48.6967 44.2201 49.1878 43.5793 50.0419C43.0391 50.7622 42.8119 51.6495 42.939 52.5406C43.0666 53.4322 43.5336 54.2199 44.2533 54.7601H44.2533Z" fill="white"/>
<path d="M44.2532 62.8475C44.8401 63.2875 45.5363 63.5205 46.2671 63.5215C46.271 63.5215 46.2748 63.521 46.2782 63.521C46.2801 63.521 46.2816 63.5215 46.2835 63.5215C47.3518 63.5181 48.331 63.0275 48.9714 62.1734C50.0865 60.6868 49.7841 58.5703 48.2974 57.4553C47.7105 57.0152 47.0139 56.7822 46.2825 56.7812C46.2792 56.7812 46.2758 56.7817 46.2719 56.7817H46.2676C45.1988 56.7846 44.2196 57.2757 43.5788 58.1298C43.0386 58.8501 42.8114 59.7374 42.9385 60.6285C43.0666 61.5191 43.5336 62.3072 44.2533 62.8475L44.2532 62.8475Z" fill="white"/>
<path d="M50.3208 78.3496C51.4358 76.863 51.1335 74.7466 49.6468 73.6315C49.0585 73.1905 48.3603 72.957 47.6276 72.957C46.5549 72.957 45.5708 73.4486 44.9287 74.3055C44.3885 75.0257 44.1612 75.913 44.2883 76.8041C44.4155 77.6952 44.8824 78.4834 45.6027 79.0236C46.191 79.4646 46.8892 79.6981 47.6219 79.6981C48.6945 79.6981 49.6782 79.2066 50.3208 78.3496H50.3208Z" fill="white"/>
<path d="M78.6359 48.6929H78.6321C78.6287 48.6929 78.6248 48.6924 78.6215 48.6924C77.8901 48.6933 77.194 48.9264 76.6066 49.3664C75.8863 49.9066 75.4198 50.6947 75.2922 51.5859C75.1652 52.477 75.3924 53.3644 75.9326 54.0845C76.5734 54.9386 77.5527 55.4292 78.6214 55.4326H78.6252C78.6286 55.4326 78.6324 55.4331 78.6358 55.4331C79.3671 55.4321 80.0633 55.1991 80.6507 54.7591C81.3709 54.2189 81.8375 53.4308 81.965 52.5396C82.0921 51.6484 81.8649 50.7611 81.3247 50.041C80.6839 49.1869 79.7042 48.6958 78.6359 48.6929Z" fill="white"/>
<path d="M78.6421 40.6074C78.6387 40.6074 78.6349 40.6079 78.6315 40.6079C78.6257 40.6079 78.62 40.6074 78.6142 40.6074C77.8858 40.6098 77.1915 40.8424 76.6061 41.281C75.8858 41.8211 75.4193 42.6092 75.2918 43.5004C75.1647 44.3916 75.3919 45.2789 75.9321 45.9991C76.5729 46.8532 77.5522 47.3437 78.6209 47.3472H78.6247C78.6281 47.3472 78.632 47.3477 78.6353 47.3477C79.3666 47.3467 80.0628 47.1137 80.6502 46.6736C81.3705 46.1335 81.837 45.3454 81.9645 44.4542C82.0916 43.563 81.8644 42.6757 81.3242 41.9555C80.6849 41.1029 79.7081 40.6127 78.6421 40.6074L78.6421 40.6074Z" fill="white"/>
<path d="M78.6151 39.2577C78.6185 39.2577 78.6224 39.2572 78.6257 39.2572C78.6315 39.2572 78.6373 39.2577 78.6431 39.2577C79.3715 39.2558 80.0657 39.0228 80.6512 38.5842C81.3714 38.044 81.8379 37.2559 81.9655 36.3647C82.0926 35.4735 81.8654 34.5862 81.3252 33.866C80.6825 33.0091 79.6989 32.5176 78.6258 32.5176C77.893 32.5176 77.195 32.7506 76.6066 33.1921C75.8863 33.7323 75.4198 34.5203 75.2922 35.4116C75.1652 36.3027 75.3924 37.1901 75.9326 37.9102C76.5719 38.7624 77.5487 39.2525 78.6152 39.2578L78.6151 39.2577Z" fill="white"/>
<path d="M78.6359 56.7827H78.6321C78.6287 56.7827 78.6248 56.7822 78.6215 56.7822C77.8901 56.7832 77.194 57.0162 76.6066 57.4563C75.8863 57.9964 75.4198 58.7845 75.2922 59.6757C75.1652 60.5669 75.3924 61.4542 75.9326 62.1744C76.5729 63.0284 77.5522 63.519 78.6205 63.5225C78.6224 63.5225 78.6239 63.522 78.6253 63.522C78.6292 63.522 78.633 63.5225 78.6369 63.5225C79.3677 63.5215 80.0639 63.2885 80.6508 62.8484C81.371 62.3083 81.8375 61.5202 81.9651 60.629C82.0922 59.7378 81.865 58.8505 81.3248 58.1303C80.684 57.2767 79.7043 56.7857 78.636 56.7827L78.6359 56.7827Z" fill="white"/>
<path d="M77.2779 72.957C76.5451 72.957 75.8471 73.19 75.2587 73.6315C74.5384 74.1717 74.0719 74.9598 73.9443 75.851C73.8173 76.7422 74.0445 77.6295 74.5847 78.3497C75.2274 79.2066 76.2109 79.6981 77.2836 79.6981C78.0163 79.6981 78.7144 79.4651 79.3028 79.0236C80.023 78.4834 80.4895 77.6954 80.6171 76.8041C80.7442 75.913 80.517 75.0257 79.9768 74.3055C79.3345 73.4485 78.351 72.957 77.2779 72.957Z" fill="white"/>
<path d="M78.6373 64.8702C78.6354 64.8702 78.634 64.8707 78.6325 64.8707C78.6287 64.8707 78.6248 64.8702 78.621 64.8702C77.8901 64.8712 77.194 65.1042 76.6071 65.5443C75.8868 66.0844 75.4203 66.8725 75.2927 67.7637C75.1656 68.6549 75.3929 69.5422 75.933 70.2624C76.5758 71.1193 77.5593 71.6108 78.632 71.6108C79.3647 71.6108 80.0628 71.3778 80.6512 70.9363C81.3714 70.3962 81.8379 69.6081 81.9655 68.7169C82.0926 67.8257 81.8654 66.9384 81.3252 66.2182C80.6844 65.3646 79.7056 64.8741 78.6372 64.8701L78.6373 64.8702Z" fill="white"/>
</svg>
