<svg width="124" height="124" viewBox="0 0 124 124" fill="none" xmlns="http://www.w3.org/2000/svg">
<circle cx="62" cy="62" r="54" fill="#809CDA"/>
<path fill-rule="evenodd" clip-rule="evenodd" d="M48 62C46.7113 62 45.6667 63.0447 45.6667 64.3333V71.3333C43.0893 71.3333 41 73.4227 41 76V78.3333C41 80.9107 43.0893 83 45.6667 83H78.3333C80.9107 83 83 80.9107 83 78.3333V76C83 73.4227 80.9107 71.3333 78.3333 71.3333V64.3333C78.3333 63.0447 77.2887 62 76 62C74.7113 62 73.6667 63.0447 73.6667 64.3333V71.3333H69V64.3333C69 63.0447 67.9553 62 66.6667 62C65.378 62 64.3333 63.0447 64.3333 64.3333V71.3333H59.6667V64.3333C59.6667 63.0447 58.622 62 57.3333 62C56.0447 62 55 63.0447 55 64.3333V71.3333H50.3333V64.3333C50.3333 63.0447 49.2887 62 48 62Z" fill="white"/>
<path d="M41 51.321C41 49.3329 42.2595 47.5631 44.1379 46.9118L60.4713 41.2487C61.4615 40.9054 62.5385 40.9054 63.5287 41.2487L79.8621 46.9118C81.7405 47.5631 83 49.3329 83 51.321V52.6664C83 55.2438 80.9107 57.3331 78.3333 57.3331H45.6667C43.0893 57.3331 41 55.2438 41 52.6664V51.321Z" fill="white"/>
</svg>
