<svg width="124" height="124" viewBox="0 0 124 124" fill="none" xmlns="http://www.w3.org/2000/svg">
<circle cx="62" cy="62" r="54" fill="#AD7147"/>
<path d="M29.0506 67.5596C29.0285 67.8896 29 68.2161 29 68.5506C29 69.8278 29.1738 71.062 29.4675 72.2498C30.2419 71.0806 31.0954 69.9752 32.0196 68.9366C31.1706 68.2418 30.157 67.7576 29.0506 67.5597L29.0506 67.5596Z" fill="white"/>
<path d="M38.2376 63.6207C39.5959 62.7505 41.0283 61.9992 42.5124 61.3578C42.3086 60.7547 42.1996 60.1114 42.1996 59.445C42.1996 57.1793 43.4592 55.1408 45.4864 54.1267L46.9733 53.3832C46.1341 53.2408 45.2787 53.1494 44.3996 53.1494C40.7268 53.1494 37.3541 54.4454 34.7043 56.5992L37.9238 63.0387C38.023 63.2356 38.1339 63.4256 38.2376 63.6206L38.2376 63.6207Z" fill="white"/>
<path d="M36.4222 64.8867C36.2661 64.5994 36.103 64.3156 35.9567 64.0219L33.0408 58.1885C31.2238 60.1793 29.9111 62.6372 29.3347 65.3704C30.9131 65.6322 32.3519 66.3349 33.5402 67.3451C34.4492 66.465 35.4117 65.6435 36.4224 64.8867L36.4222 64.8867Z" fill="white"/>
<path d="M52.862 61.1434C50.466 61.2632 48.1211 61.7013 45.8789 62.4227C46.2285 62.6878 46.6258 62.9 47.0678 63.0331C52.007 64.5146 56.3825 67.599 59.4648 71.7275C59.6819 70.7012 59.7998 69.639 59.7998 68.5498C59.7998 65.7635 59.045 63.1554 57.7461 60.8984L52.862 61.1434Z" fill="white"/>
<path d="M44.4 59.445C44.4 59.831 44.4628 60.2027 44.5714 60.5558C47.1848 59.6483 49.9338 59.0874 52.7521 58.9465L56.2863 58.7692C54.6574 56.7926 52.5399 55.2369 50.1273 54.2656L46.4708 56.0939C45.193 56.7323 44.3999 58.017 44.3999 59.445L44.4 59.445Z" fill="white"/>
<path d="M46.4367 65.1414C45.295 64.7981 44.3359 64.1347 43.6106 63.2793C42.1266 63.9054 40.6991 64.6534 39.3472 65.5236C43.3357 71.7111 49.7731 75.9976 57.0955 77.2485C57.7157 76.3464 58.2382 75.3731 58.6576 74.3467L57.9849 73.4024C55.172 69.4655 51.0701 66.5318 46.4369 65.1415L46.4367 65.1414Z" fill="white"/>
<path d="M34.0955 71.9161C33.9393 71.4486 33.7193 71.0209 33.4728 70.6113C32.3178 71.9367 31.287 73.3791 30.3982 74.9254C32.4759 79.4707 36.6947 82.8277 41.7635 83.7077L39.1225 80.689C36.8685 78.1139 35.1777 75.1625 34.0954 71.916L34.0955 71.9161Z" fill="white"/>
<path d="M37.5487 66.7941C36.6677 67.4664 35.8261 68.1901 35.0295 68.9647C35.5093 69.6478 35.9086 70.3991 36.1826 71.2206C37.1716 74.1886 38.718 76.8866 40.7771 79.2409L44.878 83.9266C49.0516 83.798 52.8068 82.0095 55.5082 79.1887C48.1112 77.5927 41.6495 73.1101 37.5487 66.7939L37.5487 66.7941Z" fill="white"/>
<path d="M79.6001 83.9482H95.0001V86.1483H79.6001V83.9482Z" fill="white"/>
<path d="M62 83.9482H77.4V86.1483H62V83.9482Z" fill="white"/>
<path d="M79.6001 80.6494H95.0001V82.8494H79.6001V80.6494Z" fill="white"/>
<path d="M62 80.6494H77.4V82.8494H62V80.6494Z" fill="white"/>
<path d="M79.6001 77.3496H95.0001V79.5496H79.6001V77.3496Z" fill="white"/>
<path d="M62 77.3496H77.4V79.5496H62V77.3496Z" fill="white"/>
<path d="M79.6001 74.0498H95.0001V76.2498H79.6001V74.0498Z" fill="white"/>
<path d="M79.6001 70.751H95.0001V72.951H79.6001V70.751Z" fill="white"/>
<path d="M79.6001 67.4492H95.0001V69.6492H79.6001V67.4492Z" fill="white"/>
<path d="M79.6001 64.1494H95.0001V66.3494H79.6001V64.1494Z" fill="white"/>
<path d="M79.6001 60.8496H95.0001V63.0496H79.6001V60.8496Z" fill="white"/>
<path d="M62 74.0498H77.4V76.2498H62V74.0498Z" fill="white"/>
<path d="M68.6001 69.6498H75.2001V63.0498H68.6001V69.6498ZM69.7001 64.1498H71.9001V66.3498H74.1001V68.5498H71.9001V66.3498H69.7001V64.1498Z" fill="white"/>
<path d="M69.7001 49.8496H63.1001V56.4496H69.7001V49.8496ZM68.6001 55.3496H66.4001V53.1496H64.2001V50.9496H66.4001V53.1496H68.6001V55.3496Z" fill="white"/>
<path d="M79.6001 58.6497V56.2936C81.4922 55.802 82.9001 54.0936 82.9001 52.0497C82.9001 49.6233 80.9265 47.6497 78.5001 47.6497C77.2867 47.6497 76.3001 46.6631 76.3001 45.4496C76.3001 44.2362 77.2867 43.2496 78.5001 43.2496C79.7135 43.2496 80.7001 44.2362 80.7001 45.4496H82.9001C82.9001 43.4058 81.4922 41.6973 79.6001 41.2058V38.8496H77.4001V41.2058C75.508 41.6973 74.1001 43.4058 74.1001 45.4496C74.1001 47.8761 76.0737 49.8497 78.5001 49.8497C79.7135 49.8497 80.7001 50.8362 80.7001 52.0497C80.7001 53.2631 79.7135 54.2497 78.5001 54.2497C77.2867 54.2497 76.3001 53.2631 76.3001 52.0497H74.1001C74.1001 54.0936 75.508 55.802 77.4001 56.2936V58.6497H79.6001Z" fill="white"/>
<path d="M89.5001 54.2497C88.2867 54.2497 87.3001 53.2631 87.3001 52.0497H85.1001C85.1001 54.0936 86.508 55.802 88.4001 56.2936V58.6497H90.6001V56.2936C92.4922 55.802 93.9001 54.0936 93.9001 52.0497C93.9001 49.6233 91.9265 47.6497 89.5001 47.6497C88.2867 47.6497 87.3001 46.6631 87.3001 45.4496C87.3001 44.2362 88.2867 43.2496 89.5001 43.2496C90.7135 43.2496 91.7001 44.2362 91.7001 45.4496H93.9001C93.9001 43.4058 92.4922 41.6973 90.6001 41.2058V38.8496H88.4001V41.2058C86.508 41.6973 85.1001 43.4058 85.1001 45.4496C85.1001 47.8761 87.0737 49.8497 89.5001 49.8497C90.7135 49.8497 91.7001 50.8362 91.7001 52.0497C91.7001 53.2631 90.7135 54.2497 89.5001 54.2497Z" fill="white"/>
</svg>
