<svg width="124" height="124" viewBox="0 0 124 124" fill="none" xmlns="http://www.w3.org/2000/svg">
<circle cx="62" cy="62" r="54" fill="#CEB63A"/>
<path d="M85.3273 77.7192H79.5C79.3511 72.5898 77.4086 67.6822 74.0137 63.8749C80.5063 65.2413 85.2047 70.992 85.3276 77.7192H85.3273ZM58.1063 58.6475C68.5882 58.6653 77.1813 67.0871 77.5402 77.7192H72.5005C72.5005 69.6521 66.0517 63.1203 58.1065 63.1203C50.1526 63.1203 43.7125 69.6609 43.7125 77.7192H38.6727C39.0398 67.0961 47.6238 58.6657 58.1066 58.6475H58.1063ZM57.8 70.8234C54.1164 70.9831 51.1676 73.9738 51.0102 77.7099H45.6813C45.6813 70.7433 51.2461 65.0988 58.1153 65.0988C64.9845 65.0988 70.5493 70.7429 70.5493 77.7099H65.2118C65.0282 73.7429 61.7208 70.6546 57.8009 70.8234H57.8ZM63.2426 77.719H52.9696C53.1446 74.8435 55.586 72.6518 58.4208 72.8293C61.011 72.9885 63.0759 75.0919 63.2423 77.719H63.2426ZM84.5746 85.209C82.6144 87.2058 79.9547 88.3238 77.1723 88.3151H46.8273C44.0535 88.3238 41.3847 87.2057 39.425 85.209L34 79.7067H90L84.5746 85.209Z" fill="white"/>
<path d="M72.0013 55.0891C71.6075 55.4707 71.5989 56.1097 71.9751 56.5004C72.3513 56.8997 72.9813 56.9084 73.3665 56.5269C73.4364 56.4647 80.2438 49.5425 72.9903 41.1652C72.6317 40.748 72.0103 40.7128 71.5989 41.0765C71.1876 41.4402 71.1528 42.0705 71.5114 42.4877C77.5227 49.3916 72.229 54.8492 72.0013 55.0896L72.0013 55.0891Z" fill="white"/>
<path d="M67.548 48.2647C67.5566 50.1284 66.5156 51.8233 64.8617 52.6399C64.3719 52.8704 64.1617 53.4651 64.3891 53.9623C64.6164 54.4417 65.168 54.6636 65.6579 54.4591C68.029 53.3233 69.5255 50.8827 69.5079 48.2291C69.4727 45.7799 68.3618 44.4309 67.2852 43.1175C66.0778 41.6445 64.9313 40.2598 64.9313 36.994C64.9313 36.4437 64.4938 36 63.9512 36C63.4086 36 62.9711 36.4437 62.9711 36.994C62.8922 39.7452 63.8985 42.4075 65.7711 44.3957C66.7516 45.5759 67.5481 46.5077 67.5481 48.2648L67.548 48.2647Z" fill="white"/>
</svg>
