<svg width="124" height="124" viewBox="0 0 124 124" fill="none" xmlns="http://www.w3.org/2000/svg">
<circle cx="62" cy="62" r="54" fill="#38A3DF"/>
<path fill-rule="evenodd" clip-rule="evenodd" d="M79.8367 42.2876V74.1232L63.1608 81.2217V48.9899C65.3464 46.6784 70.6999 42.2876 79.8367 42.2876ZM40.9202 47.6291H41.8466V75.6567L56.0771 81.7136H40.9204C39.3131 81.7136 38 80.3975 38 78.7891V50.5522C38 48.9434 39.3149 47.6277 40.9204 47.6277L40.9202 47.6291ZM82.1532 47.6291H83.0796C84.6869 47.6291 86 48.9452 86 50.5536V78.7905C86 80.3992 84.6851 81.715 83.0796 81.715H67.9229L82.1534 75.6581L82.1532 47.6291ZM60.8416 81.2203L44.1657 74.1217V42.2861C53.3026 42.2861 58.6558 46.6755 60.8416 48.9884V81.2203Z" fill="white"/>
</svg>
