<svg width="124" height="124" viewBox="0 0 124 124" fill="none" xmlns="http://www.w3.org/2000/svg">
<circle cx="62" cy="62" r="54" fill="#CEB63A"/>
<path d="M82.1272 50.4185H63.8723V43.4379L73.8706 37.7579C74.7879 37.2378 75.1436 36.0377 74.6571 35.0578C74.1702 34.0778 73.028 33.7175 72.1106 34.2377L61.1194 40.458C60.5017 40.7982 60.1272 41.4781 60.1272 42.2183V50.4185H41.8723C40.8426 50.4185 40 51.3186 40 52.4186C40 53.5186 40.8426 54.4186 41.8723 54.4186H43.5386L47.9198 88.2803C48.0511 89.2598 48.8372 90 49.7733 90H74.2262C75.1624 90 75.949 89.2598 76.0798 88.2798L80.4609 54.4182L82.1277 54.4186C83.1574 54.4186 84 53.5186 84 52.4186C84 51.3185 83.1574 50.4185 82.1277 50.4185L82.1272 50.4185ZM54.2666 83.1795C53.2368 83.1795 52.3755 82.2795 52.3755 81.1795C52.3755 80.0794 53.218 79.1794 54.2478 79.1794H54.2666C55.2964 79.1794 56.139 80.0794 56.139 81.1795C56.139 82.2795 55.2964 83.1795 54.2666 83.1795H54.2666ZM58.1422 76.9592C57.1124 76.9592 56.2698 76.0592 56.2698 74.9592C56.2698 73.8591 57.0936 72.9591 58.1234 72.9591H58.1422C59.1908 72.9591 60.0145 73.8591 60.0145 74.9592C60.0145 76.0592 59.1908 76.9592 58.1422 76.9592H58.1422ZM62.0369 83.1795C61.0071 83.1795 60.1645 82.2795 60.1645 81.1795C60.1645 80.0794 60.9883 79.1794 62.0181 79.1794H62.0369C63.0667 79.1794 63.9092 80.0794 63.9092 81.1795C63.9092 82.2795 63.0667 83.1795 62.0369 83.1795H62.0369ZM65.9312 76.9592C64.8826 76.9592 64.04 76.0592 64.04 74.9592C64.04 73.8591 64.8637 72.9591 65.9123 72.9591H65.9311C66.9609 72.9591 67.8035 73.8591 67.8035 74.9592C67.8035 76.0592 66.9609 76.9592 65.9311 76.9592H65.9312ZM69.8071 83.1795C68.7773 83.1795 67.9348 82.2795 67.9348 81.1795C67.9348 80.0794 68.7585 79.1794 69.7883 79.1794H69.8071C70.8369 79.1794 71.6795 80.0794 71.6795 81.1795C71.6795 82.2795 70.8365 83.1795 69.8071 83.1795H69.8071Z" fill="white"/>
</svg>
