<svg width="124" height="124" viewBox="0 0 124 124" fill="none" xmlns="http://www.w3.org/2000/svg">
<circle cx="62" cy="62" r="54" fill="#CEB63A"/>
<path fill-rule="evenodd" clip-rule="evenodd" d="M89.9709 60.4971C89.9898 60.6945 89.9996 60.895 89.9996 61.0973V69.7325H34.0006V61.0973C34.0006 60.895 34.0104 60.6945 34.0296 60.4971H89.9709ZM89.9996 74.6581V78.9837C89.9996 82.3758 87.2512 85.1254 83.8598 85.1254H40.14C36.749 85.1254 34.0002 82.3813 34.0002 78.9837V74.6581H89.9996Z" fill="white"/>
<path fill-rule="evenodd" clip-rule="evenodd" d="M52.316 44.8716C52.1319 44.9865 51.9149 45.0619 51.6789 45.0825C50.9383 45.1471 50.2897 44.6506 50.2306 43.973C50.1712 43.2957 50.7235 42.6938 51.4641 42.6289C51.755 42.6034 52.0314 42.6648 52.2638 42.7892L54.3986 43.5947L52.316 44.8716ZM70.2223 42.9396C70.4341 42.9638 70.6469 43.0379 70.8418 43.1645C71.4652 43.5693 71.6706 44.3602 71.3001 44.9304C70.9299 45.5006 70.124 45.6348 69.5006 45.23C69.2555 45.0708 69.0753 44.8524 68.9689 44.6108L67.7827 42.6619L70.2223 42.9393L70.2223 42.9396ZM45.8042 48.0695C46.0026 48.1478 46.189 48.2741 46.3447 48.4471C46.8421 48.9994 46.8356 49.8165 46.3303 50.2714C45.8247 50.7265 45.012 50.6475 44.5146 50.0949C44.319 49.8781 44.2015 49.6206 44.1614 49.3604L43.5197 47.1699L45.8045 48.0692L45.8042 48.0695ZM62.9684 49.4231C62.9321 49.6421 62.842 49.8595 62.6958 50.0534C62.2483 50.6475 61.4453 50.7969 60.9022 50.3876C60.359 49.9783 60.2814 49.1652 60.7289 48.5715C60.9038 48.3394 61.133 48.1749 61.3797 48.0855L63.41 47.0364L62.9684 49.4231ZM78.9719 49.775C78.8094 49.9228 78.6063 50.0367 78.3743 50.0991C77.6562 50.2913 76.9315 49.915 76.7553 49.258C76.5793 48.6012 77.0187 47.9125 77.7371 47.7203C78.0185 47.6445 78.3011 47.6566 78.5515 47.7389L80.7946 48.1616L78.9719 49.775ZM89.956 55.5727C89.9853 55.2776 90 54.9809 90 54.6819C90 45.9924 77.4643 38.9482 62.0005 38.9482C46.5368 38.9482 34.001 45.9925 34.001 54.6819C34.001 54.9809 34.0157 55.2776 34.045 55.5727H89.956Z" fill="white"/>
<path fill-rule="evenodd" clip-rule="evenodd" d="M43.1594 62.6807C41.4846 64.7665 39.0754 67.5527 38.3834 67.2478C37.2899 66.7664 37.8216 60.498 37.8216 60.498H48.7689C48.7689 60.498 46.4501 65.2235 44.6921 65.2235C43.768 65.2235 43.3489 63.9192 43.1592 62.6807H43.1594Z" fill="white"/>
<path fill-rule="evenodd" clip-rule="evenodd" d="M74.1921 60.4971H77.6923L69.6923 66.6542L61.6924 60.4971H65.1925L69.6924 63.9606L74.1921 60.4971Z" fill="white"/>
<path fill-rule="evenodd" clip-rule="evenodd" d="M75.7078 75.8998C73.3622 77.5178 69.4188 80.1066 68.6606 79.7727C67.5671 79.2916 70.4366 74.6592 70.4366 74.6592H81.3839C81.3839 74.6592 79.2293 79.4528 77.4709 79.4528C76.2985 79.4528 75.8656 77.3201 75.7076 75.8998H75.7078Z" fill="white"/>
<path fill-rule="evenodd" clip-rule="evenodd" d="M47.1569 80.0759L56.7697 74.6602H40.7695L47.1569 80.0759Z" fill="white"/>
</svg>
