<svg width="124" height="124" viewBox="0 0 124 124" fill="none" xmlns="http://www.w3.org/2000/svg">
<circle cx="62" cy="62" r="54" fill="#CEB63A"/>
<path d="M53 48.5V42.5C53 42.1022 53.158 41.7206 53.4393 41.4393C53.7206 41.158 54.1022 41 54.5 41C54.8978 41 55.2794 41.158 55.5607 41.4393C55.842 41.7206 56 42.1022 56 42.5V48.5C56 48.8978 55.842 49.2794 55.5607 49.5607C55.2794 49.842 54.8978 50 54.5 50C54.1022 50 53.7206 49.842 53.4393 49.5607C53.158 49.2794 53 48.8978 53 48.5ZM60.5 50C60.8978 50 61.2794 49.842 61.5607 49.5607C61.842 49.2794 62 48.8978 62 48.5V42.5C62 42.1022 61.842 41.7206 61.5607 41.4393C61.2794 41.158 60.8978 41 60.5 41C60.1022 41 59.7206 41.158 59.4393 41.4393C59.158 41.7206 59 42.1022 59 42.5V48.5C59 48.8978 59.158 49.2794 59.4393 49.5607C59.7206 49.842 60.1022 50 60.5 50ZM66.5 50C66.8978 50 67.2794 49.842 67.5607 49.5607C67.842 49.2794 68 48.8978 68 48.5V42.5C68 42.1022 67.842 41.7206 67.5607 41.4393C67.2794 41.158 66.8978 41 66.5 41C66.1022 41 65.7206 41.158 65.4393 41.4393C65.158 41.7206 65 42.1022 65 42.5V48.5C65 48.8978 65.158 49.2794 65.4393 49.5607C65.7206 49.842 66.1022 50 66.5 50ZM84.5 60.5V62C84.4976 63.9074 83.7693 65.7423 82.4632 67.1323C81.157 68.5223 79.3708 69.3631 77.4673 69.484C76.442 72.3782 74.6982 74.9644 72.3995 77H77C77.3978 77 77.7794 77.158 78.0607 77.4393C78.342 77.7206 78.5 78.1022 78.5 78.5C78.5 78.8978 78.342 79.2794 78.0607 79.5607C77.7794 79.842 77.3978 80 77 80H67.4039C67.3969 80.0001 67.3897 80.0011 67.3828 80.0011C67.3774 80.0011 67.3722 80.0001 67.3669 80H53.5923C53.5837 79.9998 53.5753 80.0003 53.5668 80H44C43.6022 80 43.2206 79.842 42.9393 79.5607C42.658 79.2794 42.5 78.8978 42.5 78.5C42.5 78.1022 42.658 77.7206 42.9393 77.4393C43.2206 77.158 43.6022 77 44 77H48.6005C46.687 75.309 45.1539 73.2314 44.1023 70.9043C43.0507 68.5772 42.5046 66.0536 42.5 63.5V54.5C42.5 54.1022 42.658 53.7206 42.9393 53.4393C43.2206 53.158 43.6022 53 44 53H77C78.9884 53.0022 80.8948 53.7931 82.3008 55.1992C83.7069 56.6052 84.4978 58.5116 84.5 60.5ZM81.5 60.5C81.4988 59.5698 81.2099 58.6627 80.6727 57.9032C80.1356 57.1437 79.3767 56.5691 78.5 56.258V63.5C78.4992 64.4428 78.4237 65.3841 78.2744 66.3151C79.205 66.039 80.0217 65.47 80.6028 64.6925C81.184 63.915 81.4987 62.9707 81.5 62V60.5Z" fill="white"/>
</svg>
