<svg width="124" height="124" viewBox="0 0 124 124" fill="none" xmlns="http://www.w3.org/2000/svg">
<circle cx="62" cy="62" r="54" fill="#38A3DF"/>
<path d="M90.235 55.9788H87.3989L85.5713 50.2432C84.5628 47.2814 81.9158 45.3271 78.7644 45.3271H62.5665C59.4781 45.3271 56.7681 47.2809 55.8224 50.2432L55.2553 52.008H56.9571C57.9657 52.008 58.9108 52.4494 59.5413 53.2056L60.0456 51.6299C60.3608 50.5585 61.3694 49.8024 62.5665 49.8024H78.7644C79.8986 49.8024 80.9072 50.5586 81.2852 51.6299L83.428 58.3107C83.4909 58.6259 83.3018 58.9411 82.9866 58.9411H59.5406L59.3516 59.3825C58.8473 60.7691 57.4607 61.7144 55.9484 61.7144H51.9146C51.4732 63.7943 51.2213 65.8743 51.2213 67.9542V78.732C51.2213 79.9924 52.2298 80.9382 53.4275 80.9382H57.146C58.4064 80.9382 59.3521 79.9296 59.3521 78.732V75.2654H81.8527V78.732C81.8527 79.9924 82.8612 80.9382 84.0589 80.9382H87.7773C89.0378 80.9382 89.9835 79.9296 89.9835 78.732L89.9826 67.9542C89.9826 65.8114 89.7307 63.7314 89.2893 61.6515H90.2345C91.495 61.6515 92.4407 60.643 92.4407 59.4453V58.1849C92.4407 56.9245 91.4322 55.9787 90.2345 55.9787L90.235 55.9788ZM62.6292 69.2144H58.0913C57.3351 69.2144 56.7047 68.584 56.7047 67.8279V65.6851C56.7047 64.8027 57.4609 64.1723 58.2804 64.3613L62.5032 64.9917C63.0703 65.1179 63.5117 65.496 63.6374 66.0631L63.9527 67.5126C64.1417 68.395 63.5117 69.2145 62.6293 69.2145L62.6292 69.2144ZM84.6256 67.8279C84.6256 68.584 83.9951 69.2144 83.239 69.2144H78.7011C77.8187 69.2144 77.1883 68.395 77.3773 67.5126L77.6925 66.0631C77.8187 65.496 78.2596 65.1179 78.8268 64.9917L83.0496 64.3612C83.9319 64.2351 84.6252 64.8655 84.6252 65.685L84.6256 67.8279Z" fill="white"/>
<path d="M56.7677 58.4362L57.7129 55.9154C57.902 55.3482 57.5239 54.7811 56.9567 54.7811L45.1077 54.7807L42.5235 61.2095L42.0192 56.6716H42.3344C42.5235 56.6716 42.7125 56.4825 42.7125 56.2935V55.0959C42.7125 54.9068 42.5235 54.7178 42.3344 54.7178H40.3807C40.1916 54.7178 40.0026 54.9068 40.0026 55.0959V56.2935C40.0026 56.4825 40.1916 56.6716 40.3807 56.6716H40.7588L40.1916 61.2095L37.6708 54.9068C35.3389 55.4111 33.5743 57.3649 33.259 59.8229L32.5653 66.6298C32.5024 67.3231 32.9434 67.9536 33.6367 68.0793C34.3929 68.2055 35.3385 68.3946 36.41 68.4574L37.0404 79.361C37.1033 80.3062 37.8599 80.9995 38.7423 80.9995H44.0364C44.9816 80.9995 45.7382 80.3062 45.7382 79.361L46.6206 60.642C46.6206 59.6968 47.3768 58.9401 48.3224 58.9401H55.9489C56.3266 58.9406 56.6418 58.7515 56.7675 58.4363L56.7677 58.4362Z" fill="white"/>
<path d="M46.9986 48.0371C46.9986 51.1352 44.4874 53.6465 41.3892 53.6465C38.2915 53.6465 35.7798 51.1353 35.7798 48.0371C35.7798 44.939 38.2914 42.4277 41.3892 42.4277C44.4873 42.4277 46.9986 44.9389 46.9986 48.0371Z" fill="white"/>
</svg>
