<svg width="124" height="124" viewBox="0 0 124 124" fill="none" xmlns="http://www.w3.org/2000/svg">
<circle cx="62" cy="62" r="54" fill="#38A3DF"/>
<path d="M86.9783 48.2342L67.9581 40.0399C67.8605 40.0399 67.763 40.0399 67.6655 40.1363C67.4704 41.1004 66.8851 41.7752 65.9097 42.1608C63.2761 43.4141 60.6424 43.4141 58.1063 42.1608C57.1309 41.6788 56.6432 41.1004 56.3506 40.1363C56.3506 40.0399 56.1555 39.9435 56.0579 40.0399L37.0377 48.2342C35.1844 49.0055 34.5016 50.9335 35.3795 52.476L36.0623 53.6328C36.8427 55.0789 38.7935 55.6573 40.5493 55.1753L48.5477 52.8616C48.6453 52.8616 48.8404 52.958 48.8404 53.0544V53.3436V79.951C48.8404 82.1683 50.6937 83.9036 52.8396 83.9036H56.156C58.3995 83.9036 60.1553 82.0719 60.1553 79.951V73.7812C60.1553 73.01 60.5454 72.528 61.3258 72.2388C62.0086 71.9495 62.6914 72.0459 63.2766 72.528C63.7643 72.9136 63.9594 73.3956 63.9594 73.974V80.0475C63.9594 82.2647 65.7152 84 67.9586 84H71.1775C73.421 84 75.1768 82.1683 75.1768 80.0475V74.1668V53.055C75.1768 52.9586 75.2743 52.8622 75.4694 52.8622C78.2006 53.6334 80.8342 54.4046 83.4679 55.1759C85.2236 55.6579 87.0769 54.983 87.9548 53.6334L88.6376 52.4766C89.5155 50.8377 88.7351 49.006 86.9794 48.2348L86.9783 48.2342ZM62.0075 61.0565C60.4468 61.0565 59.1787 59.996 59.1787 58.6464C59.1787 57.2967 60.4468 56.2363 62.0075 56.2363C63.5681 56.2363 64.8362 57.2967 64.8362 58.6464C64.8362 59.996 63.5681 61.0565 62.0075 61.0565ZM62.0075 53.3442C60.4468 53.3442 59.1787 52.2837 59.1787 50.9341C59.1787 49.5844 60.4468 48.524 62.0075 48.524C63.5681 48.524 64.8362 49.5844 64.8362 50.9341C64.8362 52.2837 63.5681 53.3442 62.0075 53.3442Z" fill="white"/>
</svg>
