<svg width="124" height="124" viewBox="0 0 124 124" fill="none" xmlns="http://www.w3.org/2000/svg">
<circle cx="62" cy="62" r="54" fill="#38A3DF"/>
<path fill-rule="evenodd" clip-rule="evenodd" d="M70.3299 46C69.5424 48.4248 66.1122 50.25 61.9999 50.25C57.8877 50.25 54.4575 48.4248 53.67 46H52.3892C52.0863 45.6178 51.5412 45.5051 51.1062 45.7562L50.6841 46H50C49.4571 46 49.0152 46.4327 49.0004 46.972L39.9562 52.1937C39.4779 52.4699 39.314 53.0814 39.5901 53.5597L43.9026 61.0292C44.1788 61.5075 44.7904 61.6714 45.2687 61.3952L49 59.2409V79C49 79.5522 49.4477 80 50 80H74C74.5523 80 75 79.5522 75 79V59.2397L78.7336 61.3952C79.2118 61.6714 79.8234 61.5075 80.0996 61.0292L84.4121 53.5597C84.6882 53.0814 84.5243 52.4699 84.0461 52.1937L74.9996 46.9707C74.9841 46.432 74.5425 46 74 46H73.3182L72.896 45.7562C72.4611 45.5051 71.9159 45.6178 71.613 46H70.3299Z" fill="white"/>
</svg>
