<svg width="124" height="124" viewBox="0 0 124 124" fill="none" xmlns="http://www.w3.org/2000/svg">
<circle cx="62" cy="62" r="54" fill="#ED506A"/>
<path d="M85.5144 43.2949L74.1494 55.4365C73.8748 54.2089 73.2959 53.0829 72.4732 52.1775L67.7123 47.1272C66.8922 46.247 65.8591 45.627 64.7288 45.3364L69.3216 40.5013C69.6539 40.1839 70.0827 40.0056 70.5287 40L84.3582 40.2686C84.6864 40.2738 85.0055 40.3817 85.2768 40.5792C85.548 40.7763 85.7587 41.0545 85.8837 41.3787C86.0027 41.7021 86.0311 42.055 85.9656 42.3952C85.9001 42.7358 85.7434 43.048 85.5147 43.295L85.5144 43.2949ZM71.2663 53.4489L66.5391 48.4167C65.9217 47.7379 65.1374 47.2598 64.2761 47.0376C63.9428 46.94 63.5993 46.8861 63.2539 46.8765C62.5883 46.8177 61.9189 46.9156 61.2925 47.1631L61.544 47.3957L72.2221 58.8036C72.3089 58.8903 72.3875 58.9863 72.4567 59.0898C72.7613 58.1277 72.8129 57.0948 72.606 56.103C72.3991 55.1116 71.9419 54.1998 71.2833 53.4667L71.2663 53.4489ZM71.0148 60.0569L62.1808 50.6192L60.2869 48.6493C60.0878 48.429 59.8304 48.2791 59.5494 48.2196C59.2598 48.122 58.9507 48.1108 58.6555 48.1864C58.3603 48.2623 58.0898 48.4222 57.8732 48.6493L52.9619 53.8961H52.9616C54.1012 54.0292 55.1882 54.4801 56.1131 55.2036C56.4181 55.427 56.7043 55.6789 56.9681 55.9555L64.0753 63.5484V63.5488C64.2885 63.7766 64.4846 64.022 64.6619 64.2827L64.8127 64.4977C65.4581 65.4927 65.8615 66.6435 65.9861 67.8467L70.9142 62.5819V62.5815C71.1297 62.352 71.2827 62.0638 71.3564 61.7484C71.4301 61.4331 71.4223 61.1017 71.3332 60.7907C71.2887 60.5205 71.1791 60.2674 71.0148 60.0568L71.0148 60.0569ZM63.4886 65.4292C63.3393 65.2042 63.1709 64.9943 62.9857 64.8025L55.8785 57.2096V57.2092C55.6885 56.9933 55.4808 56.7955 55.2582 56.6184C54.3258 55.8849 53.177 55.5351 52.0232 55.6335L51.319 55.741C50.3582 55.942 49.4763 56.4473 48.7878 57.1916L47.6144 58.4092L38.4958 68.2766C38.1785 68.6127 38 69.0704 38 69.5481C38 70.0254 38.1785 70.4831 38.4958 70.8193L50.2295 83.4807C50.5456 83.8161 50.9741 84.0028 51.4197 84C51.8653 84.0028 52.2934 83.8161 52.6099 83.4807L62.9528 72.431H62.9525C63.6533 71.6827 64.1315 70.7293 64.3272 69.6913C64.3713 69.461 64.3994 69.2276 64.411 68.993C64.5004 67.7794 64.1925 66.5702 63.5392 65.5724L63.4886 65.4292Z" fill="white"/>
</svg>
