<svg width="124" height="124" viewBox="0 0 124 124" fill="none" xmlns="http://www.w3.org/2000/svg">
<circle cx="62" cy="62" r="54" fill="#CEB63A"/>
<path d="M72.0005 61.8102V59.4795H52.9235V61.8102C52.9235 62.328 53.3551 62.6733 53.7866 62.6733H71.1372C71.655 62.6733 72.0003 62.328 72.0003 61.8102H72.0005Z" fill="white"/>
<path d="M52.9245 53.0049V57.7526H57.4131V55.1632C57.4131 54.6454 57.7584 54.3 58.2762 54.3C58.794 54.3 59.1394 54.6454 59.1394 55.1632V57.7526H61.6429V55.1632C61.6429 54.6454 61.9882 54.3 62.5061 54.3C63.0239 54.3 63.3692 54.6454 63.3692 55.1632V57.7526H65.8723V55.1632C65.8723 54.6454 66.2177 54.3 66.7355 54.3C67.2533 54.3 67.5986 54.6454 67.5986 55.1632V57.7526H72.0009V53.0049C75.7125 52.5733 78.6473 49.3794 78.6473 45.5815C78.6473 40.5752 73.7272 36.9497 68.9796 38.4169C66.131 33.4105 58.794 33.4105 55.9455 38.4169C51.2845 36.9497 46.2781 40.4889 46.2781 45.5815C46.2781 49.3794 49.2129 52.5734 52.9246 53.0049H52.9245ZM69.5843 41.7838C72.2604 40.6615 75.2814 42.6469 75.2814 45.5816C75.2814 46.7039 73.5551 46.7039 73.5551 45.5816C73.5551 43.8553 71.8287 42.7331 70.275 43.4238C69.8434 43.5963 69.3256 43.4238 69.1528 42.9922C68.8941 42.474 69.0665 41.9562 69.5843 41.7837L69.5843 41.7838ZM58.708 40.489C59.3983 38.9352 60.8659 37.9854 62.5059 37.9854C64.146 37.9854 65.6136 38.9348 66.2176 40.4886C66.6491 41.5246 65.0953 42.2149 64.6638 41.1793C64.3185 40.3161 63.4553 39.7117 62.5059 39.7117C61.5566 39.7117 60.6935 40.2295 60.3481 41.0926C60.1756 41.5242 59.6574 41.6966 59.2259 41.5242C58.7081 41.4383 58.5352 40.9205 58.7081 40.4889L58.708 40.489ZM53.7879 41.4384C54.3057 41.4384 54.9101 41.5246 55.428 41.7837C55.8595 41.9562 56.032 42.4744 55.8595 42.9059C55.6871 43.3375 55.1689 43.51 54.7373 43.3375C54.4782 43.2513 54.1333 43.165 53.7879 43.165C52.4932 43.165 51.4572 44.2011 51.4572 45.4957C51.4572 46.3589 51.8888 47.1358 52.5795 47.5673C53.011 47.8264 53.0973 48.3442 52.8386 48.7758C52.5795 49.2074 52.0617 49.2936 51.6301 49.0349C50.4216 48.258 49.6447 46.9633 49.6447 45.4957C49.7309 43.3374 51.5434 41.4383 53.7879 41.4383L53.7879 41.4384Z" fill="white"/>
<path d="M48.608 74.0661C49.9889 74.0661 51.2841 73.462 52.4059 72.3397C54.8229 69.9228 54.7366 66.9881 52.2334 64.4848C50.248 62.4994 46.9679 61.0322 44.6372 61.0322C43.515 61.0322 42.6518 61.3776 41.9611 61.9816C39.6304 64.3123 41.9611 69.6641 44.4643 72.1671C45.8456 73.3752 47.2265 74.0659 48.6079 74.0659L48.608 74.0661Z" fill="white"/>
<path d="M55.2552 71.3047C54.9099 72.0816 54.3921 72.8585 53.7015 73.5491C53.0974 74.1532 52.493 74.5852 51.8023 75.0167C67.0806 90.2085 66.3043 89.8636 66.9951 89.8636C67.5991 89.8636 67.5991 89.5183 69.9299 87.2742C70.2752 86.9289 70.2752 86.4111 69.9299 86.0657L55.2552 71.3047Z" fill="white"/>
<path d="M72.3464 64.7457L63.0239 74.0682C62.6785 74.4135 62.6785 74.9313 63.0239 75.2767L63.887 76.1398C63.6279 76.3989 63.4554 76.6576 63.1963 76.8305L66.5627 80.1968C66.908 79.7652 67.6849 79.2474 68.0303 78.643C69.584 77.3483 73.2095 73.4638 83.7409 63.1054C83.9134 62.9329 84 62.6738 84 62.4147C83.8275 60.9471 79.8567 60.3431 76.2314 61.9831C74.85 62.5876 73.5553 63.5369 72.3468 64.7454L72.3464 64.7457Z" fill="white"/>
<path d="M60.6064 86.2386L56.8947 82.527C56.5494 82.4407 56.2041 82.3545 55.8587 82.3545C53.0102 82.3545 51.3701 85.9799 53.6143 87.8791L55.168 89.4329C55.5134 89.692 55.8587 89.8644 56.2902 89.8644C57.4125 89.864 57.6716 89.0009 60.6064 86.2386V86.2386Z" fill="white"/>
</svg>
