<svg width="124" height="124" viewBox="0 0 124 124" fill="none" xmlns="http://www.w3.org/2000/svg">
<circle cx="62" cy="62" r="54" fill="#CEB63A"/>
<path d="M47.1431 78.0485C47.66 78.0485 48.1098 77.6782 48.1899 77.1656L48.4655 75.4084C48.5102 75.1273 48.4338 74.8422 48.2575 74.6152C48.0818 74.3908 47.8176 74.2454 47.53 74.2153L44.8494 73.9327C45.0132 73.0804 44.8202 72.2306 44.306 71.5411C43.7152 70.753 42.7688 70.2832 41.7704 70.2832C41.0985 70.2832 40.4584 70.4898 39.9165 70.878C39.24 71.3661 38.7985 72.0812 38.6721 72.8953C38.5453 73.7109 38.7501 74.5249 39.2478 75.1881C39.2571 75.2009 39.267 75.2131 39.2774 75.2264C39.2634 75.2361 39.2499 75.2452 39.2369 75.2549C37.8806 76.2639 37.5957 78.1797 38.6014 79.5237C39.1906 80.3113 40.137 80.78 41.1354 80.78C41.8073 80.78 42.4484 80.5745 42.9893 80.1843C43.7448 79.64 44.205 78.7892 44.2524 77.8517L44.2581 77.7472L47.0271 78.042C47.0667 78.0461 47.1051 78.0486 47.1431 78.0486L47.1431 78.0485ZM43.2566 76.5948L43.1948 77.7991C43.1625 78.425 42.8594 78.9876 42.3633 79.3446C41.9941 79.6109 41.564 79.7394 41.1376 79.7394C40.498 79.7394 39.8662 79.4512 39.4596 78.908C38.7945 78.0174 38.9843 76.7514 39.8813 76.0832L41.1106 75.3895L40.106 74.5723C39.4232 73.6613 39.6239 72.3821 40.5485 71.7164C40.9172 71.4507 41.3478 71.3232 41.7742 71.3232C42.4143 71.3232 43.0466 71.6108 43.4532 72.1536C43.7918 72.6096 43.9197 73.1717 43.8105 73.7389L43.5968 74.8463L47.4204 75.2482L47.1448 77.0055L43.2566 76.5948Z" fill="white"/>
<path d="M85.3199 68.8564C85.3183 68.8482 85.3147 68.8396 85.3115 68.8319C84.1186 65.625 82.5009 63.2149 80.5046 61.6699C79.9696 61.2562 79.4048 60.9104 78.8152 60.6176C77.407 59.9183 75.8491 59.5566 74.157 59.5566C70.1935 59.5566 65.5701 61.4557 60.4135 65.2012C56.8525 67.7882 54.3226 70.3387 53.9435 70.7263C51.553 72.59 49.2182 72.8706 48.0341 72.8706C47.6955 72.8706 47.4979 72.8462 47.4964 72.8457C47.4532 72.84 47.41 72.8365 47.3679 72.8365C47.0117 72.8365 46.6836 73.0405 46.5338 73.3644C46.4501 73.5455 46.433 73.7429 46.474 73.9275L47.7205 74.0576C48.0367 74.0918 48.3258 74.2509 48.5208 74.4988C48.7153 74.7467 48.7985 75.0619 48.7496 75.37L48.4464 77.3047C48.358 77.8678 47.8635 78.2749 47.2936 78.2749C47.252 78.2749 47.2093 78.2733 47.1667 78.2682L46.5297 78.2009C46.4642 78.3315 46.4309 78.4779 46.4361 78.6273C46.447 78.9176 46.5999 79.1833 46.8453 79.344C56.5248 85.6955 64.8301 85.8652 65.4225 85.8699C66.6284 85.9551 67.7974 86 68.8998 86C73.2912 86 76.8647 85.3083 79.6041 83.9474C81.3685 83.0701 82.7881 81.9163 83.8443 80.4804C87.5088 75.4991 85.4121 69.1251 85.3201 68.8562L85.3199 68.8564ZM79.6491 82.2695C76.7095 82.2695 74.3258 77.9844 74.3258 72.6984C74.3258 67.413 76.7095 63.1279 79.6491 63.1279C82.5887 63.1279 84.9719 67.413 84.9719 72.6984C84.9719 77.9843 82.5893 82.2695 79.6491 82.2695Z" fill="white"/>
<path d="M80.0828 69.5908C79.1442 69.5908 78.3824 71.1313 78.3824 73.0292C78.3824 74.9288 79.1443 76.4687 80.0828 76.4687C81.0214 76.4687 81.7828 74.9283 81.7828 73.0292C81.7817 71.1313 81.0204 69.5908 80.0828 69.5908ZM80.114 75.3925C79.4838 75.3925 78.9742 74.3167 78.9742 72.989C78.9742 71.6623 79.4838 70.5866 80.114 70.5866C80.7443 70.5866 81.2539 71.6624 81.2539 72.989C81.2539 74.3157 80.7437 75.3925 80.114 75.3925Z" fill="white"/>
<path fill-rule="evenodd" clip-rule="evenodd" d="M62.3004 38.565C62.1886 38.7868 62.1324 38.9337 62.0477 39.0623C60.6504 41.1868 60.6046 43.3342 61.9733 45.4786C62.6176 46.4875 63.2042 47.5092 63.3987 48.7027C63.706 50.588 63.2629 52.3043 62.1792 53.8729C61.9125 54.2605 61.5854 54.3278 61.2365 54.1095C60.9208 53.9121 60.873 53.5357 61.1247 53.1613C62.2266 51.5321 62.5459 49.7897 61.8303 47.9411C61.5875 47.3153 61.2068 46.7368 60.8496 46.1599C59.2823 43.6248 59.3042 41.0979 60.848 38.5654C60.9442 38.4068 61.0508 38.2119 61.2053 38.1405C61.3951 38.0487 61.6748 37.9885 61.8496 38.0625C62.0399 38.1415 62.1548 38.392 62.3004 38.5649L62.3004 38.565Z" fill="white"/>
<path fill-rule="evenodd" clip-rule="evenodd" d="M67.6865 38.5366C67.5747 38.7585 67.5175 38.9049 67.4338 39.0339C66.0355 41.1585 65.9891 43.3069 67.3594 45.4517C68.0021 46.4591 68.5903 47.4813 68.7858 48.6738C69.0921 50.5595 68.6475 52.2771 67.5664 53.846C67.2996 54.2321 66.9726 54.2984 66.6215 54.0801C66.3069 53.8827 66.2586 53.5073 66.5113 53.1329C67.6132 51.5033 67.9325 49.7603 67.2154 47.9118C66.9736 47.2869 66.5924 46.7085 66.2347 46.1326C64.6689 43.5971 64.6907 41.0692 66.2321 38.5366C66.3293 38.379 66.4375 38.1836 66.5893 38.1107C66.7796 38.0199 67.0589 37.9587 67.2331 38.0337C67.426 38.1132 67.5399 38.3642 67.6865 38.5366L67.6865 38.5366Z" fill="white"/>
<path fill-rule="evenodd" clip-rule="evenodd" d="M73.0686 38.5366C72.9594 38.7585 72.9007 38.9049 72.8159 39.0339C71.4176 41.1585 71.3703 43.3069 72.7431 45.4517C73.3869 46.4591 73.9724 47.4813 74.1669 48.6738C74.4752 50.5595 74.0296 52.2771 72.9485 53.846C72.6833 54.2321 72.3536 54.2984 72.0041 54.0801C71.6911 53.8827 71.6412 53.5073 71.8949 53.1329C72.9948 51.5033 73.3156 49.7603 72.599 47.9118C72.3572 47.2869 71.9761 46.7085 71.6199 46.1326C70.0521 43.5971 70.0734 41.0692 71.6147 38.5366C71.7109 38.379 71.8185 38.1841 71.9724 38.1107C72.1622 38.0199 72.4415 37.9587 72.6167 38.0337C72.8076 38.1132 72.923 38.3642 73.0686 38.5366L73.0686 38.5366Z" fill="white"/>
</svg>
