<svg width="124" height="124" viewBox="0 0 124 124" fill="none" xmlns="http://www.w3.org/2000/svg">
<circle cx="62" cy="62" r="54" fill="#38A3DF"/>
<path d="M46.3826 56.6044C46.535 56.4333 46.7532 56.3355 46.9826 56.3355C47.2116 56.3355 47.4298 56.4333 47.5825 56.6044C48.5707 57.6734 49.9612 58.2806 51.417 58.2792C52.8729 58.2777 54.2619 57.6673 55.2479 56.5961C55.4 56.4268 55.6168 56.3297 55.8443 56.3297C56.0719 56.3297 56.2886 56.4268 56.4403 56.5961C57.426 57.6688 58.816 58.2792 60.273 58.2792C61.7296 58.2792 63.1197 57.6688 64.1054 56.5961C64.2574 56.4268 64.4742 56.3297 64.7017 56.3297C64.9293 56.3297 65.146 56.4268 65.2977 56.5961C66.2838 57.6674 67.6728 58.2777 69.1287 58.2792C70.5849 58.2806 71.975 57.6734 72.9635 56.6044C73.1159 56.4333 73.3341 56.3355 73.5635 56.3355C73.7925 56.3355 74.0107 56.4333 74.1631 56.6044C75.3242 57.8633 77.0306 58.47 78.7259 58.2271C79.9931 58.0243 81.1447 57.3715 81.9705 56.3891C82.7958 55.4062 83.2402 54.1593 83.2215 52.8763V43.7852C83.2204 43.3585 83.05 42.9494 82.7484 42.6479C82.4468 42.3463 82.0377 42.1759 81.6111 42.1748H38.9345C38.5078 42.1759 38.0987 42.3463 37.7971 42.6479C37.4956 42.9495 37.3251 43.3586 37.3241 43.7852V52.8763C37.3054 54.1596 37.7497 55.4066 38.5754 56.3891C39.4011 57.3719 40.5528 58.0243 41.82 58.2271C43.5153 58.4701 45.2217 57.8633 46.3828 56.6044H46.3826ZM65.5063 43.7853H72.7533V53.0449C72.7533 54.3393 72.0628 55.5356 70.9415 56.1831C69.8203 56.8301 68.4393 56.8301 67.318 56.1831C66.1968 55.5357 65.5063 54.3394 65.5063 53.0449L65.5063 43.7853ZM47.7915 43.7853H55.0385V53.0449C55.0385 54.3393 54.348 55.5356 53.2267 56.1831C52.1055 56.8301 50.7245 56.8301 49.6032 56.1831C48.482 55.5357 47.7914 54.3394 47.7914 53.0449L47.7915 43.7853Z" fill="white"/>
<path d="M40.5445 40.5646H80.0002C80.2137 40.5646 80.4187 40.4798 80.5696 40.3288C80.7206 40.1778 80.8054 39.9729 80.8054 39.7594V38.9542C80.8054 38.5271 80.6358 38.1173 80.3338 37.8154C80.0319 37.5134 79.6221 37.3438 79.195 37.3438H41.3497C40.9226 37.3438 40.5128 37.5134 40.2109 37.8154C39.9089 38.1173 39.7393 38.5271 39.7393 38.9542V39.7594C39.7393 39.9729 39.8241 40.1778 39.9751 40.3288C40.1261 40.4798 40.331 40.5646 40.5445 40.5646Z" fill="white"/>
<path d="M80.8387 64.9801C80.4415 64.7238 80.027 64.4952 79.5985 64.2956V60.648C79.5982 60.4183 79.4989 60.2001 79.3264 60.0492C79.1535 59.8982 78.9241 59.8288 78.6966 59.8586C77.0305 60.0197 75.3614 59.5768 73.9943 58.6106C73.7366 58.4176 73.3821 58.4176 73.1244 58.6106C71.9593 59.4435 70.5628 59.891 69.1307 59.891C67.6986 59.891 66.302 59.4435 65.137 58.6106C64.8792 58.4176 64.5248 58.4176 64.267 58.6106C63.102 59.4435 61.7054 59.891 60.2733 59.891C58.8412 59.891 57.4447 59.4435 56.2796 58.6106C56.0219 58.4176 55.6675 58.4176 55.4097 58.6106C54.2447 59.4435 52.8481 59.891 51.416 59.891C49.9839 59.891 48.5873 59.4435 47.4223 58.6106C47.1646 58.4176 46.8101 58.4176 46.5524 58.6106C45.3873 59.4439 43.9908 59.8914 42.5587 59.891C42.3139 59.89 42.0694 59.8763 41.8261 59.8508C41.6032 59.8253 41.38 59.8957 41.2121 60.0449C41.0446 60.1941 40.9486 60.4076 40.9482 60.6319V84.0477C40.9493 84.4744 41.1197 84.8835 41.4213 85.185C41.7229 85.4866 42.132 85.657 42.5586 85.6581H74.7674C75.0654 85.6581 75.3552 85.6502 75.637 85.6257C76.9742 85.5219 78.2812 85.1753 79.4941 84.6034C79.9614 84.396 80.4111 84.1509 80.8389 83.8705C84.0551 81.8064 86.0002 78.2473 86.0002 74.425C86.0002 70.6028 84.0551 67.044 80.8389 64.9796L80.8387 64.9801ZM57.0521 83.2425C57.0507 83.6868 56.6912 84.0462 56.2469 84.0477H46.5842C46.1399 84.0462 45.7805 83.6868 45.779 83.2425V65.5276C45.7805 65.0833 46.1399 64.7238 46.5842 64.7224H56.2469C56.6912 64.7238 57.0507 65.0833 57.0521 65.5276V83.2425ZM79.9682 82.5178C79.8474 82.5983 79.7266 82.6709 79.5979 82.7431C78.3452 83.4707 76.9439 83.9057 75.4992 84.0153C75.2343 84.0397 74.9683 84.0505 74.7023 84.0477C74.2332 84.0433 73.7647 84.0056 73.301 83.9348C73.2819 83.9358 73.2629 83.933 73.2446 83.9269C70.9907 83.5534 68.9413 82.3945 67.4589 80.6556C65.9764 78.9168 65.1564 76.7101 65.1442 74.4253C65.1335 71.9165 66.1077 69.5038 67.8575 67.7056C69.6075 65.9079 71.9926 64.8683 74.5009 64.8108C74.5731 64.8043 74.6458 64.8014 74.7184 64.8029C74.9844 64.8011 75.2508 64.8147 75.5153 64.8431C76.9543 64.9499 78.3502 65.3823 79.5978 66.1074C79.7186 66.18 79.8473 66.2522 79.9681 66.3328C82.7231 68.1021 84.3889 71.1511 84.3889 74.4253C84.3889 77.6994 82.723 80.7484 79.9681 82.5178L79.9682 82.5178Z" fill="white"/>
<path d="M79.6865 69.5025C79.372 69.188 78.8623 69.188 78.5477 69.5025L69.8478 78.2017C69.6935 78.352 69.6062 78.558 69.6048 78.7733C69.6033 78.9886 69.6882 79.1957 69.8406 79.3477C69.9926 79.5001 70.1997 79.585 70.415 79.5835C70.6303 79.5821 70.8359 79.4947 70.9866 79.3405L79.6865 70.6413C80.0011 70.3268 80.0011 69.817 79.6865 69.5025Z" fill="white"/>
<path d="M73.9608 70.7969C73.9608 70.0492 73.6639 69.332 73.1351 68.8033C72.6063 68.2748 71.8892 67.9775 71.1419 67.9775C70.3941 67.9775 69.677 68.2748 69.1482 68.8033C68.6198 69.332 68.3225 70.0492 68.3225 70.7969C68.3225 71.5442 68.6198 72.2614 69.1482 72.7901C69.677 73.3189 70.3941 73.6159 71.1419 73.6159C71.8892 73.6151 72.6056 73.3179 73.134 72.7891C73.6628 72.2606 73.9601 71.5442 73.9608 70.7969L73.9608 70.7969ZM69.9333 70.7969C69.9333 70.308 70.2277 69.8672 70.6792 69.68C71.131 69.4931 71.6509 69.5966 71.9962 69.942C72.342 70.2878 72.4452 70.8076 72.2583 71.2591C72.0714 71.711 71.6303 72.0054 71.1418 72.0054C70.4742 72.0046 69.9336 71.464 69.9332 70.7968L69.9333 70.7969Z" fill="white"/>
<path d="M78.3915 75.2266C77.6441 75.2266 76.927 75.5235 76.3982 76.0523C75.8694 76.5811 75.5725 77.2978 75.5725 78.0455C75.5725 78.7932 75.8694 79.5104 76.3982 80.0392C76.927 80.5676 77.6438 80.8649 78.3915 80.8649C79.1392 80.8649 79.8563 80.5676 80.3851 80.0392C80.9135 79.5104 81.2105 78.7932 81.2105 78.0455C81.2098 77.2982 80.9125 76.5818 80.384 76.053C79.8556 75.5246 79.1392 75.2273 78.3915 75.2266L78.3915 75.2266ZM78.3915 79.2541C77.903 79.2541 77.4619 78.9597 77.2749 78.5082C77.088 78.0564 77.1912 77.5365 77.537 77.1912C77.8825 76.8453 78.4026 76.7418 78.8541 76.9291C79.3056 77.116 79.6003 77.5567 79.6 78.0456C79.5996 78.7132 79.059 79.2538 78.3914 79.2542L78.3915 79.2541Z" fill="white"/>
</svg>
