<svg width="124" height="124" viewBox="0 0 124 124" fill="none" xmlns="http://www.w3.org/2000/svg">
<circle cx="62" cy="62" r="54" fill="#FF9431"/>
<path d="M48.4466 41.8567C47.9299 42.3766 47.9299 43.2221 48.4466 43.742L52.1935 47.5152C52.4532 47.7765 52.7924 47.9044 53.1316 47.9044C53.4713 47.9049 53.8077 47.777 54.0674 47.5156C54.5841 46.9957 54.5841 46.1503 54.0674 45.6304L50.3205 41.8567C49.8011 41.3368 48.9637 41.3368 48.4466 41.8567L48.4466 41.8567Z" fill="white"/>
<path d="M74.6792 41.8567L70.9323 45.6299C70.4156 46.1498 70.4156 46.9953 70.9323 47.5152C71.192 47.7765 71.5312 47.9044 71.8704 47.9044C72.2096 47.9044 72.5488 47.7737 72.8085 47.5152L76.5554 43.742C77.0721 43.2221 77.0721 42.3766 76.5554 41.8567C76.0388 41.3368 75.1986 41.3368 74.6793 41.8567H74.6792Z" fill="white"/>
<path d="M61.1749 37.3332V42.6667C61.1749 43.4028 61.7688 43.9999 62.4998 43.9999C63.2314 43.9999 63.8247 43.4023 63.8247 42.6667V37.3332C63.8247 36.5971 63.2309 36 62.4998 36C61.7683 36 61.1749 36.5971 61.1749 37.3332Z" fill="white"/>
<path d="M45.2748 81.3324H42.625C40.4337 81.3324 38.6498 79.5378 38.6498 77.3321V71.9987C38.6498 69.7936 40.4331 67.9985 42.625 67.9985H50.5749C51.3065 67.9985 51.8998 67.4009 51.8998 66.6652C51.8998 65.9291 51.306 65.332 50.5749 65.332L42.625 65.3325C38.9733 65.3325 36 68.3217 36 71.9992V77.3326C36 81.0101 38.9733 83.9993 42.625 83.9993H45.2748C46.0063 83.9993 46.5997 83.4017 46.5997 82.666C46.6002 81.9299 46.0063 81.3324 45.2748 81.3324V81.3324Z" fill="white"/>
<path d="M58.5249 81.3336H55.8752V78.6672C55.8752 77.9311 55.2813 77.334 54.5503 77.334C53.8187 77.334 53.2254 77.9311 53.2254 78.6672V81.3336H50.5751C49.8436 81.3336 49.2502 81.9312 49.2502 82.6668C49.2502 83.403 49.8441 84 50.5751 84H53.2249V86.6665C53.2249 87.4026 53.8187 87.9997 54.5498 87.9997C55.2813 87.9997 55.8747 87.4021 55.8747 86.6665V84H58.5245C59.256 84 59.8493 83.4025 59.8493 82.6668C59.8503 81.9312 59.2564 81.3336 58.5249 81.3336Z" fill="white"/>
<path d="M82.375 65.333H74.4251C73.6936 65.333 73.1002 65.9306 73.1002 66.6662C73.1002 67.4024 73.694 67.9994 74.4251 67.9994H82.375C84.5664 67.9994 86.3503 69.794 86.3503 71.9997V77.3331C86.3503 79.5382 84.567 81.3333 82.375 81.3333H79.7252C78.9937 81.3333 78.4004 81.9309 78.4004 82.6666C78.4004 83.4027 78.9942 83.9998 79.7252 83.9998H82.375C86.0267 83.9998 89.0001 81.0106 89.0001 77.3331V71.9997C89.0001 68.3222 86.0267 65.333 82.375 65.333Z" fill="white"/>
<path d="M69.1249 63.9999V62.4933C70.8158 60.7495 71.7747 58.4159 71.7747 56.0001C71.7747 50.8537 67.6142 46.667 62.4999 46.667C57.3856 46.6665 53.2251 50.8532 53.2251 56.0001C53.2251 58.4135 54.1845 60.7466 55.8749 62.4933V63.9999C55.8749 67.6774 58.8482 70.6666 62.4999 70.6666C66.1516 70.6666 69.1249 67.6774 69.1249 63.9999Z" fill="white"/>
<path d="M74.4248 81.333H66.4749C65.7434 81.333 65.15 81.9306 65.15 82.6662C65.15 83.4024 65.7439 83.9994 66.4749 83.9994H74.4248C75.1564 83.9994 75.7497 83.4019 75.7497 82.6662C75.7497 81.9305 75.1559 81.333 74.4248 81.333Z" fill="white"/>
</svg>
