<svg width="124" height="124" viewBox="0 0 124 124" fill="none" xmlns="http://www.w3.org/2000/svg">
<circle cx="62" cy="62" r="54" fill="#38A3DF"/>
<path d="M94.6827 57.0867H92.3128C90.146 51.7594 84.8758 47.999 78.7185 47.999C74.5011 47.999 70.7003 49.7635 68.0276 52.5864H55.9708C53.2978 49.7631 49.4974 47.999 45.2794 47.999C39.1214 47.999 33.8514 51.7595 31.684 57.0867H29.314C28.6699 57.0867 28.1466 57.6046 28.1466 58.2436V66.7535C28.1466 67.392 28.6699 67.9109 29.3159 67.9109H31.6859C33.8532 73.2377 39.1228 76.9995 45.2813 76.9995C53.3729 76.9995 59.9311 70.5074 59.9311 62.499C59.9311 60.5564 59.5438 58.7034 58.8439 57.0109H65.1568C64.4569 58.7035 64.0701 60.5573 64.0701 62.499C64.0701 70.5069 70.6296 76.9995 78.7199 76.9995C84.8779 76.9995 90.1479 73.2381 92.3141 67.9109H94.6841C95.3292 67.9109 95.8534 67.393 95.8534 66.7535L95.853 58.2436C95.8515 57.6046 95.3283 57.0867 94.6822 57.0867H94.6827ZM45.2808 72.9179C39.4765 72.9179 34.7548 68.244 34.7548 62.499C34.7548 56.7543 39.4771 52.0801 45.2808 52.0801C51.0851 52.0801 55.8078 56.7539 55.8078 62.499C55.8073 68.2437 51.0851 72.9179 45.2808 72.9179ZM78.7188 72.9179C72.9145 72.9179 68.1918 68.244 68.1918 62.499C68.1918 56.7543 72.9141 52.0801 78.7188 52.0801C84.5235 52.0801 89.2457 56.7543 89.2457 62.499C89.2457 68.2437 84.5239 72.9179 78.7188 72.9179Z" fill="white"/>
</svg>
