<svg width="124" height="124" viewBox="0 0 124 124" fill="none" xmlns="http://www.w3.org/2000/svg">
<circle cx="62" cy="62" r="54" fill="#AD7147"/>
<path d="M76.1094 44.8671C74.5748 42.2083 71.5563 40.9436 68.7065 41.5169C67.779 38.7626 65.1709 36.7783 62.1018 36.7783C59.0327 36.7783 56.4301 38.7626 55.497 41.5169C52.6471 40.9436 49.6287 42.2083 48.0942 44.8671C46.5596 47.5258 46.9756 50.7692 48.898 52.9557C46.9756 55.1367 46.5596 58.3856 48.0942 61.0443C49.6288 63.7031 52.6472 64.9678 55.497 64.3945C56.4245 67.1488 59.0326 69.1331 62.1018 69.1331C65.1708 69.1331 67.7734 67.1488 68.7065 64.3945C71.5564 64.9678 74.5749 63.7031 76.1094 61.0443C77.644 58.3856 77.228 55.1366 75.3056 52.9557C77.2279 50.7747 77.6439 47.5258 76.1094 44.8671ZM62.1019 59.9199C58.2571 59.9199 55.1374 56.8001 55.1374 52.9554C55.1374 49.1106 58.2571 45.9909 62.1019 45.9909C65.9466 45.9909 69.0664 49.1106 69.0664 52.9554C69.0664 56.8001 65.9523 59.9199 62.1019 59.9199Z" fill="white"/>
<path d="M76.5978 44.5861C74.9621 41.7924 71.7244 40.3591 68.5597 40.9774C68.7902 41.1067 69.0207 41.2416 69.2511 41.3709C68.4473 39.0325 66.553 37.1832 64.1697 36.5031C61.7526 35.8173 59.1276 36.4075 57.2108 38.0264C56.1653 38.9089 55.4009 40.0781 54.9624 41.3652C55.1929 41.2359 55.4234 41.101 55.6538 40.9718C53.3043 40.5108 50.8591 41.1572 49.0772 42.7648C47.1717 44.4793 46.3061 47.0986 46.7164 49.6112C46.9412 50.9996 47.5876 52.2868 48.5095 53.3492V52.5566C46.84 54.4734 46.1936 57.1377 46.8906 59.5997C47.5651 61.9887 49.4088 63.911 51.7528 64.6981C53.0119 65.1253 54.361 65.1871 55.6595 64.9285C55.429 64.7992 55.1985 64.6643 54.9681 64.5351C55.7719 66.8678 57.6662 68.7227 60.0495 69.4028C62.4666 70.0886 65.0972 69.4984 67.0084 67.8796C68.0539 66.9971 68.8183 65.8279 69.2568 64.5407C69.0263 64.67 68.7959 64.8049 68.5654 64.9342C70.9149 65.3951 73.3601 64.7431 75.142 63.1411C77.0475 61.4267 77.9131 58.8073 77.5028 56.2947C77.278 54.9063 76.6316 53.6191 75.7097 52.5567V53.3493C77.8232 50.9154 78.1943 47.3966 76.5979 44.5861C76.2381 43.9565 75.2657 44.5243 75.6254 45.1538C76.9633 47.509 76.6935 50.5106 74.9116 52.5623C74.7036 52.804 74.698 53.1132 74.9116 53.3549C76.328 54.9849 76.8339 57.2727 76.2326 59.3413C75.6592 61.3199 74.1191 62.9499 72.1629 63.6132C71.1005 63.973 69.9594 64.0629 68.8578 63.8437C68.543 63.7818 68.2732 63.928 68.1664 64.2371C67.4918 66.1989 65.8674 67.7503 63.8719 68.318C61.8596 68.8913 59.6112 68.4417 58.0092 67.0814C57.1154 66.3226 56.4297 65.3445 56.0474 64.2371C55.9406 63.9336 55.6708 63.7818 55.356 63.8437C53.4055 64.2259 51.3146 63.6526 49.8419 62.3091C48.268 60.8758 47.4641 58.6948 47.8014 56.5869C47.9925 55.3896 48.5096 54.2597 49.3022 53.3492C49.5102 53.1074 49.5158 52.7983 49.3022 52.5566C47.8858 50.9265 47.3799 48.6387 47.9812 46.5702C48.5546 44.5916 50.0947 42.9559 52.0509 42.2983C53.1133 41.9385 54.2544 41.8486 55.356 42.0678C55.6708 42.1296 55.9406 41.9835 56.0474 41.6743C56.722 39.7126 58.3464 38.1612 60.3419 37.5935C62.3542 37.0201 64.6026 37.4698 66.2046 38.8301C67.0984 39.5889 67.7841 40.5669 68.1664 41.6743C68.2732 41.9779 68.543 42.1296 68.8578 42.0678C71.5278 41.5451 74.2596 42.821 75.6255 45.1594C75.9909 45.7777 76.9634 45.21 76.5979 44.586L76.5978 44.5861Z" fill="white"/>
<path d="M62.102 59.3582C59.4601 59.3414 56.9925 57.6775 56.0874 55.1706C55.1656 52.613 55.9525 49.7463 58.0323 48.0094C60.0897 46.2837 63.1307 46.0982 65.4183 47.481C67.6893 48.8526 68.9147 51.59 68.3862 54.1982C67.8579 56.8289 65.7219 58.8692 63.0743 59.2965C62.7539 59.3415 62.4279 59.3583 62.1019 59.3583C61.3768 59.364 61.3768 60.4882 62.1019 60.4826C65.2609 60.4657 68.0996 58.4646 69.1844 55.5024C70.258 52.5738 69.3193 49.1394 66.9079 47.1608C64.4628 45.1541 60.9384 44.8562 58.2178 46.5031C55.5085 48.1388 54.1144 51.3541 54.7271 54.4513C55.3173 57.4585 57.8412 59.9037 60.8708 60.3759C61.2812 60.4377 61.6915 60.4771 62.1074 60.4827C62.8269 60.4883 62.8269 59.3641 62.1018 59.3584L62.102 59.3582Z" fill="white"/>
<path d="M81.4377 68.0367V68.1211C81.4377 68.2897 81.4433 68.4527 81.4377 68.6213C81.1735 79.2287 72.5059 87.7557 61.8264 87.767V87.7502C61.8264 87.7445 61.8208 87.7445 61.8208 87.7389C51.4159 87.4354 43.0461 79.0319 42.782 68.6158C42.7764 68.4528 42.7764 68.2842 42.7764 68.1156V68.0312C52.4558 68.0425 60.4944 75.052 62.1071 84.2764C63.7147 75.0578 71.7528 68.0487 81.4378 68.0374L81.4377 68.0367Z" fill="white"/>
<path d="M80.8756 68.0355C80.8756 72.0378 79.6727 75.9219 77.3568 79.1877C75.1533 82.2961 71.9887 84.7244 68.4082 86.034C66.3003 86.8041 64.08 87.1976 61.8316 87.2032L62.3937 87.7653C62.3937 87.0177 61.3819 87.1639 60.876 87.1245C60.4095 87.0908 59.9373 87.0346 59.4764 86.9615C58.4815 86.8041 57.4921 86.5681 56.5366 86.2589C54.6928 85.6631 52.9447 84.7749 51.3653 83.6564C48.268 81.4586 45.8342 78.2996 44.5244 74.7358C43.7319 72.5773 43.3609 70.3289 43.3384 68.0299C43.1529 68.2154 42.9618 68.4066 42.7763 68.592C46.3119 68.6033 49.797 69.587 52.8042 71.4475C55.7046 73.2462 58.0936 75.8207 59.6787 78.8448C60.5949 80.593 61.2245 82.476 61.5674 84.4209C61.6629 84.9549 62.5567 84.9605 62.6523 84.4209C63.2593 81.0033 64.7714 77.7768 67.0535 75.1574C69.3076 72.5773 72.2361 70.61 75.4907 69.542C77.4131 68.9124 79.4142 68.5977 81.4377 68.592C82.1628 68.592 82.1628 67.4678 81.4377 67.4678C77.7222 67.479 74.0404 68.5076 70.8755 70.4582C67.8008 72.3525 65.2433 75.0787 63.5682 78.277C62.607 80.1095 61.9268 82.0824 61.5671 84.1229H62.652C62.0168 80.5254 60.381 77.1472 57.9809 74.3929C55.5975 71.6554 52.4723 69.5869 49.021 68.4627C47.0086 67.8051 44.8895 67.479 42.776 67.4734C42.4724 67.4734 42.2139 67.732 42.2139 68.0355C42.2476 72.167 43.4393 76.2086 45.8057 79.6091C48.099 82.903 51.3255 85.455 55.0579 86.9277C57.2108 87.7764 59.5097 88.2318 61.82 88.3048C61.6851 88.2486 61.5559 88.1923 61.4209 88.1418L61.4322 88.153C61.376 88.0181 61.3198 87.8888 61.2692 87.7539V87.7708C61.2692 88.0743 61.5277 88.3329 61.8313 88.3329C65.9964 88.3216 70.1167 87.0288 73.5066 84.6006C76.8174 82.2285 79.3637 78.9065 80.7746 75.0841C81.6121 72.8245 82 70.4355 82 68.0354C82 67.3103 80.8757 67.3103 80.8757 68.0354L80.8756 68.0355Z" fill="white"/>
</svg>
