<svg width="124" height="124" viewBox="0 0 124 124" fill="none" xmlns="http://www.w3.org/2000/svg">
<circle cx="62" cy="62" r="54" fill="#413C3C"/>
<path d="M50.3534 50.3534L52.4747 52.4747L50.3534 50.3534ZM44.1213 39.8787C42.9498 38.7071 41.0503 38.7071 39.8787 39.8787C38.7071 41.0502 38.7071 42.9497 39.8787 44.1213L44.1213 39.8787ZM73.6463 73.6463L71.525 71.525L71.525 71.525L73.6463 73.6463ZM79.8784 84.121C81.05 85.2926 82.9495 85.2926 84.1211 84.121C85.2926 82.9495 85.2926 81.05 84.1211 79.8784L79.8784 84.121ZM43.6868 57.02L45.8082 59.1413L43.6868 57.02ZM64.3536 82.9391L62.2323 80.8177L64.3536 82.9391ZM82.9391 64.3535L80.8178 62.2322L82.9391 64.3535ZM41.0607 59.6461L38.9393 57.5248L41.0607 59.6461ZM59.6462 41.0606L57.5249 38.9393L59.6462 41.0606ZM50.8642 38.9452L44.9047 44.9047L49.1473 49.1473L55.1068 43.1878L50.8642 38.9452ZM44.9047 44.9047L38.9452 50.8642L43.1879 55.1068L49.1473 49.1473L44.9047 44.9047ZM39.8787 44.1213L44.9047 49.1473L49.1473 44.9047L44.1213 39.8787L39.8787 44.1213ZM80.8119 68.8929L74.8524 74.8524L79.095 79.095L85.0545 73.1355L80.8119 68.8929ZM74.8524 74.8524L68.8929 80.8118L73.1356 85.0545L79.095 79.095L74.8524 74.8524ZM84.1211 79.8784L79.095 74.8524L74.8524 79.095L79.8784 84.121L84.1211 79.8784ZM57.5249 38.9393L54.8987 41.5655L59.1413 45.8081L61.7675 43.182L57.5249 38.9393ZM54.8987 41.5655L48.2321 48.2321L52.4747 52.4747L59.1413 45.8081L54.8987 41.5655ZM52.2784 43.1878L54.8987 45.8081L59.1413 41.5655L56.521 38.9452L52.2784 43.1878ZM48.2321 48.2321L41.5655 54.8986L45.8082 59.1413L52.4747 52.4747L48.2321 48.2321ZM41.5655 54.8986L38.9393 57.5248L43.182 61.7675L45.8082 59.1413L41.5655 54.8986ZM38.9452 56.521L41.5655 59.1413L45.8082 54.8987L43.1879 52.2784L38.9452 56.521ZM38.9393 63.1817L40.8182 65.0605L45.0608 60.8179L43.182 58.939L38.9393 63.1817ZM58.9391 43.182L60.8179 45.0608L65.0605 40.8181L63.1817 38.9393L58.9391 43.182ZM78.1916 64.8584L71.525 71.525L75.7676 75.7676L82.4342 69.101L78.1916 64.8584ZM85.0545 67.4787L82.4342 64.8584L78.1916 69.101L80.8119 71.7213L85.0545 67.4787ZM71.525 71.525L64.8584 78.1916L69.1011 82.4342L75.7676 75.7676L71.525 71.525ZM64.8584 78.1916L62.2323 80.8177L66.4749 85.0604L69.1011 82.4342L64.8584 78.1916ZM71.7213 80.8118L69.1011 78.1916L64.8584 82.4342L67.4787 85.0545L71.7213 80.8118ZM65.0607 80.8177L63.1416 78.8987L58.8989 83.1413L60.818 85.0604L65.0607 80.8177ZM80.8178 62.2322L78.1916 64.8584L82.4342 69.101L85.0604 66.4748L80.8178 62.2322ZM78.8987 63.1414L80.8177 65.0606L85.0605 60.8181L83.1415 58.8989L78.8987 63.1414ZM63.1416 81.7271L72.4343 72.4343L68.1917 68.1917L58.8989 77.4844L63.1416 81.7271ZM72.4343 72.4343L81.7272 63.1415L77.4846 58.8988L68.1917 68.1917L72.4343 72.4343ZM46.475 65.0605L55.7678 55.7678L51.5251 51.5251L42.2324 60.8179L46.475 65.0605ZM55.7678 55.7678L65.0605 46.475L60.8179 42.2324L51.5251 51.5251L55.7678 55.7678ZM72.4343 68.1917L55.814 51.5713L51.5713 55.8139L68.1917 72.4343L72.4343 68.1917ZM83.1415 58.8989C81.5794 57.3367 79.0467 57.3367 77.4846 58.8988L81.7272 63.1415C80.9461 63.9225 79.6798 63.9225 78.8987 63.1414L83.1415 58.8989ZM60.8179 45.0608C60.0369 44.2797 60.0369 43.0134 60.8179 42.2324L65.0605 46.475C66.6226 44.9129 66.6226 42.3802 65.0605 40.8181L60.8179 45.0608ZM68.8929 80.8118C69.674 80.0308 70.9403 80.0308 71.7213 80.8118L67.4787 85.0545C69.0408 86.6166 71.5735 86.6166 73.1356 85.0545L68.8929 80.8118ZM85.0545 73.1355C86.6166 71.5734 86.6166 69.0408 85.0545 67.4787L80.8119 71.7213C80.0308 70.9403 80.0308 69.6739 80.8119 68.8929L85.0545 73.1355ZM63.1416 78.8987C63.9226 79.6797 63.9226 80.946 63.1416 81.7271L58.8989 77.4844C57.3368 79.0465 57.3369 81.5792 58.8989 83.1413L63.1416 78.8987ZM62.2323 80.8177C63.0133 80.0367 64.2796 80.0367 65.0607 80.8177L60.818 85.0604C62.3801 86.6225 64.9128 86.6225 66.4749 85.0604L62.2323 80.8177ZM55.1068 43.1878C54.3258 43.9689 53.0594 43.9689 52.2784 43.1878L56.521 38.9452C54.9589 37.3831 52.4263 37.3831 50.8642 38.9452L55.1068 43.1878ZM85.0604 66.4748C86.6225 64.9128 86.6225 62.3802 85.0605 60.8181L80.8177 65.0606C80.0367 64.2795 80.0368 63.0132 80.8178 62.2322L85.0604 66.4748ZM38.9393 57.5248C37.3772 59.0869 37.3772 61.6196 38.9393 63.1817L43.182 58.939C43.963 59.7201 43.963 60.9864 43.182 61.7675L38.9393 57.5248ZM40.8182 65.0605C42.3803 66.6226 44.9129 66.6226 46.475 65.0605L42.2324 60.8179C43.0134 60.0368 44.2798 60.0368 45.0608 60.8179L40.8182 65.0605ZM38.9452 50.8642C37.3831 52.4263 37.3831 54.9589 38.9452 56.521L43.1879 52.2784C43.9689 53.0594 43.9689 54.3257 43.1879 55.1068L38.9452 50.8642ZM61.7675 43.182C60.9865 43.963 59.7201 43.963 58.9391 43.182L63.1817 38.9393C61.6196 37.3772 59.087 37.3772 57.5249 38.9393L61.7675 43.182Z" fill="white"/>
</svg>
