<svg width="124" height="124" viewBox="0 0 124 124" fill="none" xmlns="http://www.w3.org/2000/svg">
<circle cx="62" cy="62" r="54" fill="#CB2F49"/>
<g clip-path="url(#clip0_319_1585)">
<path d="M45.7785 44.5959C42.0702 48.3042 41.885 48.5066 41.885 48.793C41.885 49.046 41.9439 49.1556 42.222 49.4081C42.8626 49.9898 42.7531 50.0655 45.8036 47.0145L48.5004 44.3178L48.9047 44.7138L49.3007 45.1181L46.6044 47.8153C44.0929 50.3352 43.9076 50.5376 43.9076 50.8157C43.9076 51.2284 44.4216 51.7344 44.8347 51.7344C45.1044 51.7344 45.3319 51.532 47.8267 49.0377L50.5235 46.3409L50.945 46.7624L51.3665 47.1839L48.6442 49.9062C45.6188 52.9317 45.6945 52.8221 46.2256 53.4121C46.5626 53.7831 46.8578 53.8926 47.1359 53.7492C47.2371 53.6986 48.5096 52.4767 49.9506 51.0357L52.5884 48.4063L52.9844 48.8106L53.3888 49.2066L50.6665 51.9289C47.5904 55.0133 47.6916 54.8619 48.3235 55.4938C48.9558 56.1261 48.804 56.2268 51.8884 53.1508L54.6106 50.4285L55.0066 50.8329L55.411 51.2289L52.782 53.8667C51.3326 55.3077 50.1103 56.5973 50.0685 56.7236C49.9506 57.0355 50.0518 57.2881 50.4311 57.6168C51.0378 58.1479 50.945 58.2068 53.9792 55.1897L56.6844 52.493L57.0804 52.8973L57.4764 53.2933L54.7796 55.9901C52.2514 58.5183 52.0828 58.704 52.0828 58.9821C52.0828 59.4036 52.5884 59.9092 53.0099 59.9092C53.2796 59.9092 53.5071 59.6984 56.0019 57.2124L58.6987 54.5157L59.103 54.9117L59.499 55.316L57.7122 57.1196C56.6417 58.1985 56.0772 58.8052 56.3218 58.6451C57.409 57.8781 62.5328 53.7316 62.5328 53.6053C62.5328 53.5714 59.642 50.6555 56.1027 47.1162L49.6809 40.6939L45.7785 44.5959Z" fill="white"/>
<path d="M79.2198 46.0632C75.4275 51.5073 75.0733 52.03 75.3602 51.7352C75.6132 51.4822 78.6637 48.0269 79.2704 47.3106C80.5513 45.8018 81.807 43.8552 82.2457 42.7174C82.4648 42.1529 82.6672 41.2848 82.5744 41.2848C82.5572 41.2848 81.0485 43.4337 79.2198 46.0632Z" fill="white"/>
<path d="M81.158 41.4867C80.172 41.8493 78.4864 42.9027 77.0454 44.0572C76.5649 44.4365 74.4582 46.2739 72.3682 48.136C65.036 54.659 61.4711 57.6594 57.8218 60.4067C55.4114 62.2187 53.9955 63.1713 52.2593 64.1318L51.3744 64.629L51.088 64.0979C50.6581 63.331 49.5792 62.3027 48.7956 61.9067C47.0765 61.0469 45.214 61.0469 43.4861 61.9067C42.6352 62.3282 41.5479 63.4071 41.1013 64.2669C39.3906 67.5453 41.1436 71.5484 44.7001 72.4839C45.4419 72.6779 46.7901 72.6863 47.4897 72.5089C49.0908 72.0874 50.4311 71.0424 51.1808 69.6181L51.4673 69.0871L54.282 67.7723C57.6277 66.2218 57.4843 66.2807 57.417 66.4493C57.3919 66.5166 56.7763 67.8485 56.0516 69.4074L54.7374 72.2392L54.1473 72.5428C53.3888 72.9305 52.1497 74.144 51.7709 74.8687C51.2737 75.8125 51.1135 76.5204 51.1219 77.6499C51.1219 78.5097 51.1641 78.7622 51.3494 79.3355C51.653 80.2543 52.0996 80.9873 52.7653 81.6447C53.4226 82.3104 54.1557 82.757 55.0744 83.0606C56.0098 83.3725 57.4596 83.3893 58.4034 83.1028C59.3895 82.7909 60.0468 82.3865 60.8476 81.5773C61.6396 80.7853 62.0612 80.0602 62.3309 79.0407C62.5249 78.3077 62.5249 76.9085 62.3309 76.1755C61.9683 74.8352 60.9233 73.4281 59.8026 72.7707C59.499 72.5939 59.2465 72.3998 59.2465 72.3492C59.2465 72.164 60.2831 70.3855 61.168 69.0541C63.0305 66.2561 66.3006 62.1179 70.3288 57.4574C70.8849 56.8084 72.8064 54.1284 76.0598 49.4512C81.9166 41.0485 81.6975 41.3688 81.5628 41.3772C81.5034 41.3772 81.3182 41.4278 81.158 41.4867ZM63.3336 59.1593C64.1595 59.3701 64.699 60.1537 64.6228 61.0386C64.5722 61.6621 64.2519 62.1091 63.6623 62.4039C62.2886 63.0784 60.8388 61.8816 61.2265 60.3984C61.3783 59.8 61.8922 59.2861 62.4906 59.1426C62.8615 59.0581 62.9288 59.0581 63.3336 59.1593ZM46.7228 63.2808C48.7538 63.6095 50.1697 65.5899 49.8072 67.5875C49.3606 70.1237 46.5793 71.4472 44.312 70.2165C43.7642 69.9217 43.0224 69.1209 42.7614 68.5481C41.9188 66.7106 42.6686 64.5366 44.4387 63.6601C45.3152 63.2302 45.863 63.1374 46.7228 63.2808ZM58.1504 74.1356C59.0775 74.4982 59.9118 75.3324 60.266 76.2595C60.3755 76.5376 60.4684 77.0013 60.4934 77.4057C60.5863 78.9646 59.7688 80.3299 58.3445 81.0045C57.805 81.2575 57.721 81.2742 56.8023 81.2742C55.8919 81.2742 55.7995 81.2575 55.2684 81.0045C54.2908 80.5411 53.5912 79.7654 53.2625 78.7798C53.1107 78.3332 53.0856 78.0969 53.1107 77.4396C53.1358 76.7571 53.178 76.5547 53.4055 76.0659C53.8688 75.0882 54.872 74.2289 55.8409 73.9926C56.3891 73.8575 57.6282 73.9332 58.1504 74.1356Z" fill="white"/>
<path d="M69.275 62.2523C66.7467 65.2949 63.2914 69.8036 63.2914 70.0566C63.2914 70.2673 63.8392 69.7701 66.1989 67.4104L68.8957 64.7137L69.3172 65.1352L69.7304 65.5567L67.0164 68.279C63.991 71.3044 64.0667 71.1949 64.5978 71.7849C64.9348 72.1558 65.23 72.2654 65.5081 72.1219C65.6093 72.0713 66.8818 70.8495 68.3228 69.408L70.9606 66.7786L71.3566 67.1829L71.761 67.5789L69.0387 70.3012C65.9626 73.3856 66.0638 73.2338 66.6957 73.8661C67.328 74.4984 67.1762 74.5991 70.2606 71.5231L72.9828 68.8092L73.4044 69.2223L73.8259 69.6439L71.1124 72.3569C68.028 75.4413 68.1037 75.3317 68.7527 75.9301C69.4017 76.5453 69.2838 76.6214 72.3514 73.5621L75.0482 70.8653L75.4526 71.2613L75.8486 71.6657L73.1518 74.3624C70.6403 76.8823 70.455 77.0847 70.455 77.3628C70.455 77.7759 70.969 78.2815 71.3821 78.2815C71.6602 78.2815 71.871 78.0875 74.3741 75.5847L77.0709 72.888L77.4669 73.284L77.8712 73.68L75.1745 76.3851C72.1574 79.4189 72.2164 79.3265 72.7474 79.9333C73.0761 80.3125 73.3291 80.4137 73.6406 80.2958C73.7669 80.2452 75.0566 79.0317 76.5059 77.5819L79.1354 74.9525L79.5314 75.3568L79.9357 75.7528L77.2134 78.4751C74.1374 81.5595 74.2386 81.4077 74.8704 82.04C75.5111 82.689 75.2242 82.9081 79.6405 78.4918L83.5596 74.5727L76.8601 67.8817L70.1598 61.1901L69.275 62.2523Z" fill="white"/>
</g>
<defs>
<clipPath id="clip0_319_1585">
<rect width="44" height="44" fill="white" transform="translate(40 40)"/>
</clipPath>
</defs>
</svg>
