<svg width="124" height="124" viewBox="0 0 124 124" fill="none" xmlns="http://www.w3.org/2000/svg">
<circle cx="62" cy="62" r="54" fill="#38A3DF"/>
<path d="M74.9047 44.6565C71.967 44.4606 69.4209 46.7129 69.2251 49.6506C69.2251 50.3361 69.323 51.0216 69.5188 51.6092C66.2873 53.176 63.5454 55.4282 61.1952 58.0722C61.7827 49.9444 64.2309 43.971 66.2873 40.1524C67.0707 40.5441 67.8541 40.74 68.7354 40.74C71.6732 40.74 74.0234 38.3898 74.0234 35.452C74.0234 32.5143 71.6732 30.1641 68.7354 30.1641C65.7977 30.1641 63.4475 32.5143 63.4475 35.452C63.4475 37.0188 64.1329 38.4877 65.3081 39.467C63.5454 41.7193 62.2724 44.1674 61.391 46.8114C60.2159 44.8529 58.9429 43.0902 57.2782 41.5234L57.5719 41.2296C59.2367 38.7815 58.5512 35.452 56.1031 33.8852C53.6549 32.2205 50.3255 32.906 48.7587 35.3541C47.0939 37.8022 47.7794 41.1317 50.2275 42.6985C52.1861 43.9715 54.6342 43.8736 56.3968 42.5027C57.7678 44.2653 59.2367 46.6155 60.6076 49.4554C60.0201 51.6097 59.6284 53.862 59.3346 56.0164C57.5719 54.7433 55.8093 53.5682 53.7529 52.7848C53.7529 52.6869 53.8508 52.491 53.8508 52.3931C54.4383 49.5533 52.6757 46.7134 49.8358 46.028C46.996 45.4404 44.1562 47.2031 43.4707 50.0429C42.8831 52.8827 44.6458 55.7226 47.4856 56.4081C49.7379 56.8977 51.9902 55.8205 53.1653 53.9599C54.928 55.0371 56.8865 56.4081 59.0408 58.2686C58.845 60.0313 58.845 61.7939 58.845 63.3608H61.1952V61.5002C64.3288 57.3873 67.5603 54.5475 70.1064 52.7848C70.9877 54.2537 72.5545 55.2329 74.3172 55.3309C77.2549 55.5267 79.801 53.2744 79.9969 50.3367C80.0948 47.3989 77.8425 44.8529 74.9047 44.657V44.6565Z" fill="white"/>
<path d="M50.815 90.8772C51.0108 92.0523 51.9901 92.8357 53.1652 92.8357H66.8747C68.0498 92.8357 69.0291 92.0523 69.2249 90.8772L72.1627 73.9355H47.8772L50.815 90.8772Z" fill="white"/>
<path d="M72.2614 65.417H47.6827C46.8014 65.417 45.9201 65.8087 45.3325 66.3962C44.745 66.9838 44.3533 67.8651 44.3533 68.7465C44.3533 70.607 45.8222 72.0759 47.6827 72.0759H72.2614C73.1428 72.0759 74.0241 71.6842 74.6116 71.0967C75.1992 70.5091 75.5909 69.6278 75.5909 68.7465C75.5909 66.8859 74.0241 65.417 72.2614 65.417Z" fill="white"/>
</svg>
