<svg width="124" height="124" viewBox="0 0 124 124" fill="none" xmlns="http://www.w3.org/2000/svg">
<circle cx="62" cy="62" r="54" fill="#ED506A"/>
<path d="M87 67.1671C87 64.5049 86.2966 62.0025 85.0813 59.836C84.1379 58.165 82.8026 56.742 81.2917 55.5667L81.2199 55.5108C78.8216 53.648 75.9433 52.4408 72.9134 52.2729C72.6414 52.2571 72.3617 52.249 72.0739 52.249C67.6928 52.249 63.7431 54.1357 61.009 57.1579C60.2574 57.9894 59.61 58.893 59.0664 59.8761V59.8842C57.8592 62.0348 57.1635 64.5211 57.1635 67.1675C57.1635 69.8139 57.8592 72.3002 59.0664 74.4508C59.6019 75.4344 60.2575 76.3456 61.009 77.1771C63.7434 80.1831 67.6847 82.0861 72.0739 82.0861C80.3164 82.0853 87 75.4098 87 67.1674L87 67.1671ZM72.0814 78.1198C67.2767 78.1198 63.183 75.0019 61.7119 70.6845C61.328 69.5734 61.1282 68.3981 61.1282 67.1669C61.1282 65.9358 61.328 64.7605 61.7119 63.6493C63.1831 59.3401 67.2764 56.2222 72.0814 56.2222C78.1176 56.2222 83.0265 61.1311 83.0265 67.1673C83.0269 73.2114 78.118 78.12 72.0814 78.12V78.1198Z" fill="white"/>
<path d="M62.0003 82.2451C60.9929 82.2451 60.1695 83.0527 60.1695 84.0439C60.1695 85.0431 60.9929 85.8507 62.0003 85.8507C63.0077 85.8507 63.823 85.0432 63.823 84.0439C63.823 83.0526 63.0077 82.2451 62.0003 82.2451ZM62.0003 85.0671C61.4246 85.0671 60.9532 84.6114 60.9532 84.0439C60.9532 83.4763 61.4169 83.0284 62.0003 83.0284C62.5759 83.0284 63.0397 83.4841 63.0397 84.0439C63.0397 84.6114 62.584 85.0671 62.0003 85.0671Z" fill="white"/>
<path d="M39.0791 45.0535C39.367 45.2533 39.7189 45.3733 40.1023 45.3733C40.4862 45.3733 40.8377 45.2533 41.1255 45.0535C41.5893 44.7336 41.8852 44.2062 41.8852 43.6144C41.8852 42.6471 41.0858 41.8477 40.1023 41.8477C39.1188 41.8477 38.3194 42.6471 38.3194 43.6144C38.3275 44.214 38.6234 44.7337 39.0791 45.0535H39.0791ZM40.1027 42.6309C40.6544 42.6309 41.102 43.0784 41.102 43.6144C41.102 44.1499 40.6544 44.5898 40.1027 44.5898C39.5591 44.5898 39.1035 44.1499 39.1035 43.6144C39.1031 43.0788 39.5591 42.6309 40.1027 42.6309Z" fill="white"/>
<path d="M82.9229 44.4134C83.7783 44.4134 84.482 43.7259 84.482 42.8786C84.482 42.0232 83.7787 41.3438 82.9229 41.3438C82.0675 41.3438 81.3719 42.0313 81.3719 42.8786C81.3641 43.7259 82.0598 44.4134 82.9229 44.4134ZM82.9229 42.1188C83.3627 42.1188 83.7065 42.4545 83.7065 42.8785C83.7065 43.3022 83.3546 43.6382 82.9229 43.6382C82.4993 43.6382 82.1474 43.3025 82.1474 42.8785C82.1474 42.4545 82.4993 42.1188 82.9229 42.1188Z" fill="white"/>
<path d="M43.0441 82.9014H41.9488C41.7331 82.9014 41.5572 83.0773 41.5572 83.293C41.5572 83.5087 41.7331 83.6846 41.9488 83.6846H43.0522C43.2679 83.6846 43.4439 83.5087 43.4439 83.293C43.4439 83.0773 43.2598 82.9014 43.0441 82.9014Z" fill="white"/>
<path d="M39.9828 82.9014H38.8793C38.6636 82.9014 38.4877 83.0773 38.4877 83.293C38.4877 83.5087 38.6636 83.6846 38.8793 83.6846H39.9828C40.1984 83.6846 40.3744 83.5087 40.3744 83.293C40.3744 83.0773 40.1984 82.9014 39.9828 82.9014Z" fill="white"/>
<path d="M40.9655 83.8838C40.7498 83.8838 40.5739 84.0597 40.5739 84.2754V85.3789C40.5739 85.5946 40.7499 85.7705 40.9655 85.7705C41.1812 85.7705 41.3571 85.5946 41.3571 85.3789V84.2754C41.3575 84.0597 41.1816 83.8838 40.9655 83.8838Z" fill="white"/>
<path d="M40.9655 80.8135C40.7498 80.8135 40.5739 80.9894 40.5739 81.2051V82.3086C40.5739 82.5242 40.7499 82.7002 40.9655 82.7002C41.1812 82.7002 41.3571 82.5242 41.3571 82.3086V81.2051C41.3575 80.9894 41.1816 80.8135 40.9655 80.8135Z" fill="white"/>
<path d="M83.7464 81.0225C82.731 81.0225 81.9075 81.8381 81.9075 82.8293C81.9075 83.8286 82.7309 84.6362 83.7464 84.6362C84.7457 84.6362 85.5691 83.8286 85.5691 82.8293C85.561 81.8301 84.7457 81.0225 83.7464 81.0225ZM83.7464 83.8529C83.1627 83.8529 82.6912 83.3891 82.6912 82.8297C82.6912 82.2621 83.155 81.8065 83.7464 81.8065C84.314 81.8065 84.7858 82.2703 84.7858 82.8297C84.7777 83.3892 84.3139 83.8529 83.7464 83.8529Z" fill="white"/>
<path d="M63.0556 41.168H64.239C64.4547 41.168 64.6306 40.9921 64.6306 40.7764C64.6306 40.5607 64.4547 40.3848 64.239 40.3848H63.0556C62.8399 40.3848 62.664 40.5607 62.664 40.7764C62.664 40.9921 62.8399 41.168 63.0556 41.168Z" fill="white"/>
<path d="M59.7539 41.168H60.945C61.1607 41.168 61.3367 40.9921 61.3367 40.7764C61.3367 40.5607 61.1607 40.3848 60.945 40.3848H59.7539C59.5383 40.3848 59.3623 40.5607 59.3623 40.7764C59.3623 40.9921 59.5383 41.168 59.7539 41.168Z" fill="white"/>
<path d="M62.0003 43.4142C62.216 43.4142 62.3919 43.2382 62.3919 43.0225V41.8311C62.3919 41.6154 62.216 41.4395 62.0003 41.4395C61.7846 41.4395 61.6087 41.6154 61.6087 41.8311V43.0144C61.6087 43.2382 61.7846 43.4142 62.0003 43.4142Z" fill="white"/>
<path d="M62.0003 40.1124C62.216 40.1124 62.3919 39.9365 62.3919 39.7208V38.5293C62.3919 38.3136 62.216 38.1377 62.0003 38.1377C61.7846 38.1377 61.6087 38.3136 61.6087 38.5293V39.7204C61.6087 39.9365 61.7846 40.1124 62.0003 40.1124Z" fill="white"/>
<path d="M72.0814 50.6976C72.3931 50.6976 72.6972 50.7057 73.0008 50.7215C73.8003 50.7693 74.5758 50.8812 75.3594 51.0413L78.6933 46.6201H65.4698L68.8038 51.0332C69.8748 50.8094 70.9702 50.6976 72.0814 50.6976L72.0814 50.6976Z" fill="white"/>
<path d="M76.983 42.2148H67.1808L65.3739 45.053H78.7896L76.983 42.2148Z" fill="white"/>
<path d="M51.9192 50.6976C53.0304 50.6976 54.1257 50.8175 55.1972 51.0332L58.523 46.6201H45.2995L48.6254 51.0251C49.7049 50.8013 50.808 50.6975 51.9195 50.6975L51.9192 50.6976Z" fill="white"/>
<path d="M56.8113 42.2148H47.01L45.2032 45.053H58.6189L56.8113 42.2148Z" fill="white"/>
<path d="M59.8576 78.2317C59.2499 77.5522 58.7063 76.8326 58.2267 76.0892C56.4437 77.3605 54.2692 78.1279 51.9107 78.1279C47.106 78.1279 43.0046 75.01 41.5412 70.6926C41.1573 69.5892 40.9575 68.4139 40.9575 67.1828C40.9575 65.9516 41.1573 64.7764 41.5412 63.6729C43.0043 59.3559 47.1057 56.2457 51.9107 56.2457C54.2692 56.2457 56.4356 57.0054 58.2267 58.2764C58.7144 57.5167 59.258 56.7975 59.8576 56.1339C60.1454 55.814 60.4572 55.5104 60.7689 55.2144C58.2903 53.3756 55.2365 52.2725 51.9188 52.2725C49.1766 52.2725 46.6101 53.016 44.3955 54.3031C44.3797 54.3112 44.3716 54.3189 44.3554 54.327C42.5964 55.3664 41.1094 56.8133 39.9183 58.4762L38.9029 59.8915C38.9029 59.8915 38.8948 59.8915 38.9029 59.8996C37.6876 62.0502 37 64.5365 37 67.1829C37 69.8293 37.6875 72.3156 38.9029 74.4662C39.4465 75.4497 40.1021 76.3609 40.8455 77.1925C43.5799 80.1984 47.5211 82.0933 51.9103 82.0933C55.2281 82.0933 58.2823 80.9898 60.7605 79.1513C60.4572 78.8473 60.1532 78.5517 59.8576 78.2319L59.8576 78.2317Z" fill="white"/>
</svg>
