<svg width="124" height="124" viewBox="0 0 124 124" fill="none" xmlns="http://www.w3.org/2000/svg">
<circle cx="62" cy="62" r="54" fill="#020202"/>
<circle cx="62" cy="62" r="54" fill="#AD7147"/>
<path d="M67.7555 51.1567C67.6631 51.3999 67.4288 51.5588 67.1691 51.5588H35.6292C35.3695 51.5588 35.1348 51.3995 35.0428 51.1567C34.9504 50.9135 35.0093 50.6372 35.2021 50.4614L50.972 36.1741C51.2148 35.9563 51.5754 35.9563 51.8182 36.1741L67.5881 50.4614C67.7809 50.6372 67.8482 50.9135 67.7559 51.1567H67.7555Z" fill="white"/>
<path d="M85.9725 84.6148C84.7743 84.6148 83.6264 84.1123 82.8133 83.2407L73.0597 72.6073C72.7246 72.2471 72.3559 71.9201 71.9704 71.6353V65.9204C71.9704 63.4566 69.951 61.4541 67.4706 61.4541H64.848L64.8476 52.8145H37.9497V71.9946C37.9497 73.2683 38.9806 74.2991 40.2542 74.2991H42.6341V76.8129L42.6256 76.8214C42.6256 76.8295 42.6341 76.8295 42.6341 76.8383V80.9441L42.6256 80.9525C42.6256 80.961 42.6341 80.961 42.6341 80.9695V85.0836L42.6256 85.0921C42.6256 85.1006 42.6341 85.1006 42.6341 85.1091V88.2431C42.6341 88.5867 42.9108 88.8715 43.2625 88.8715C43.6061 88.8715 43.8908 88.5867 43.8908 88.2431V85.7208H58.907V88.2431C58.907 88.5867 59.1837 88.8715 59.5354 88.8715C59.879 88.8715 60.1637 88.5867 60.1637 88.2431V80.9614V80.953V80.9445V76.8299V76.8218V76.8134V74.2995H64.2194C64.563 74.2995 64.8477 74.0144 64.8477 73.6712H67.2107C68.4089 73.6712 69.5568 74.1737 70.3699 75.0537L80.1235 85.6789C81.6149 87.3131 83.7517 88.2431 85.9722 88.2431H88.0001V84.6145L85.9725 84.6148ZM44.7956 64.1606C44.7956 60.5154 47.7534 57.5576 51.3985 57.5576C55.0299 57.5576 58.0015 60.5025 58.0015 64.1606V73.043H44.7952L44.7956 64.1606ZM58.9074 84.4641H43.8911V81.5812H58.9074V84.4641ZM58.9074 80.3245H43.8911V77.4505H58.9074V80.3245ZM58.9074 76.1934H43.8911V74.2994H58.9074V76.1934ZM70.7136 70.8725C69.6327 70.3446 68.4346 70.0429 67.2109 70.0429H64.8563V62.7108H67.4705C69.2552 62.7108 70.7135 64.1522 70.7135 65.9203L70.7136 70.8725Z" fill="white"/>
</svg>
