<svg width="124" height="124" viewBox="0 0 124 124" fill="none" xmlns="http://www.w3.org/2000/svg">
<circle cx="62" cy="62" r="54" fill="#38A3DF"/>
<path d="M45.0866 43.5863C44.7707 43.6617 44.533 43.7376 44.2171 43.8131L46.9837 31.1866C47.1419 30.3549 48.0113 29.8259 48.8807 30.0527C49.7501 30.204 50.303 31.0357 50.1454 31.8674L47.6159 43.3599C46.7465 43.3594 45.9559 43.4348 45.0865 43.5862L45.0866 43.5863ZM76.3847 43.2841C77.1752 43.2841 78.0447 43.3595 78.8346 43.5863C79.1505 43.6617 79.3881 43.7376 79.704 43.8131L77.0164 31.1866C76.8582 30.3549 75.9888 29.8259 75.1194 30.0527C74.25 30.204 73.697 31.0357 73.8547 31.8674L76.3847 43.2841ZM76.3053 61.1275C74.8034 61.7324 73.1441 62.0346 71.4841 62.0346C70.6147 62.0346 69.7453 61.9592 68.9547 61.8078C66.9788 61.4297 65.1611 60.598 63.5805 59.3881V64.7565H66.7417C67.6111 64.7565 68.3222 65.4369 68.3222 66.2686C68.3222 67.1002 67.6111 67.7806 66.7417 67.7806H63.5805V72.3173H66.7417C67.6111 72.3173 68.3222 72.9977 68.3222 73.8293C68.3222 74.661 67.6111 75.3413 66.7417 75.3413H63.5805V78.3654C63.5805 79.1971 62.8693 79.8774 62 79.8774C61.1306 79.8774 60.4194 79.1971 60.4194 78.3654V75.3413H57.2582C56.3888 75.3413 55.6777 74.661 55.6777 73.8293C55.6777 72.9977 56.3889 72.3173 57.2582 72.3173H60.4194V67.7806H57.2582C56.3888 67.7806 55.6777 67.1002 55.6777 66.2686C55.6777 65.4369 56.3889 64.7565 57.2582 64.7565H60.4194V59.3881C58.8388 60.598 57.0211 61.4297 55.0453 61.8078C54.1758 61.9592 53.3065 62.0346 52.5158 62.0346C50.8558 62.0346 49.1963 61.7324 47.6947 61.1275C50.3028 70.7298 48.4059 77.9124 45.3234 82.9025H46.114C53.227 82.9025 59.1546 88.2709 59.5499 95L64.3711 94.9995C64.7664 88.2704 70.6146 82.902 77.807 82.902H78.5976C75.5941 77.9117 73.697 70.7291 76.3053 61.127L76.3053 61.1275ZM80.5735 47.2157C79.7829 46.9135 79.0717 46.6862 78.2817 46.5353C71.8005 45.2501 65.3988 49.1059 63.7392 55.1546C65.1615 57.0448 67.2169 58.3301 69.5879 58.7836C72.1174 59.2372 74.6462 58.7836 76.7009 57.423C78.835 56.0623 80.2573 54.0208 80.8109 51.6769C81.1262 50.2402 81.0474 48.6523 80.5732 47.2157L80.5735 47.2157ZM47.2995 57.4983C49.4336 58.859 51.9624 59.313 54.4124 58.859C56.7836 58.4054 58.8383 57.1201 60.2612 55.23C58.6011 49.1812 52.1994 45.3255 45.7186 46.6107C45.0074 46.762 44.2168 46.9888 43.4269 47.291C42.9527 48.7277 42.8734 50.3151 43.1898 51.8278C43.7428 54.0961 45.1651 56.213 47.2992 57.4983L47.2995 57.4983Z" fill="white"/>
</svg>
