<svg width="124" height="124" viewBox="0 0 124 124" fill="none" xmlns="http://www.w3.org/2000/svg">
<circle cx="62" cy="62" r="54" fill="#38A3DF"/>
<path d="M64.2364 43.7701L62.2695 40.7669L67.8697 35.75L68.7175 37.8872L64.2364 43.7701ZM66.939 35.002H56.057L61.4978 39.8778L66.939 35.002ZM60.7269 40.7729L55.1326 35.7555L54.2789 37.8872L58.7659 43.7756L60.7269 40.7729ZM65.6732 57.6259L68.8767 59.2276L72.0975 57.62V50.7363H65.6731L65.6732 57.6259ZM87.9259 59.4749C87.8475 59.6255 87.7079 59.7347 87.543 59.7753L77.8625 62.0601C77.5785 62.1275 77.2879 61.9773 77.1791 61.7068L76.6432 60.3818L76.5785 87.4103C76.5785 87.5665 76.5166 87.7163 76.4062 87.8267C76.2958 87.9371 76.146 87.999 75.9898 87.999H62.0864V42.6568L63.7059 45.13C63.8108 45.2897 63.9863 45.3883 64.1771 45.395C64.3613 45.3966 64.5356 45.3114 64.648 45.1655L69.4887 38.8236L77.3439 42.0681C80.4938 43.3947 82.9682 45.9455 84.198 49.1344L87.9547 58.9566C88.0241 59.123 88.0131 59.3115 87.9256 59.4688L87.9259 59.4749ZM73.2755 50.1476C73.2755 49.991 73.2132 49.8416 73.1028 49.7312C72.9924 49.6208 72.8426 49.5585 72.6864 49.5585H65.0842C64.7593 49.5585 64.4955 49.8223 64.4955 50.1476V57.9674C64.4963 58.189 64.6213 58.3917 64.8192 58.4915L68.6114 60.3878C68.7766 60.4698 68.9706 60.4698 69.1359 60.3878L72.928 58.4915C73.135 58.3984 73.2703 58.1946 73.2754 57.9674L73.2755 50.1476ZM60.9096 87.9986H47.0062C46.6809 87.9986 46.4175 87.7348 46.4175 87.4098L46.3469 60.3814L45.811 61.7063C45.7022 61.9768 45.4115 62.127 45.1276 62.0596L35.4529 59.7631C35.2881 59.7232 35.1485 59.6148 35.0696 59.4646C34.9904 59.3147 34.9801 59.1381 35.0408 58.9799L38.7976 49.1341C40.0259 45.9464 42.4983 43.3955 45.6458 42.0678L53.507 38.8233L58.3295 45.1534H58.3299C58.4423 45.2993 58.6166 45.3845 58.8011 45.3829C58.9916 45.3762 59.1671 45.2776 59.272 45.1179L60.9092 42.6565L60.9096 87.9986ZM58.7246 48.0035C58.7246 48.2417 58.8681 48.4562 59.0881 48.5473C59.3082 48.6387 59.5617 48.5883 59.7301 48.4199C59.8985 48.2515 59.949 47.998 59.8575 47.7779C59.7664 47.5579 59.5519 47.4144 59.3137 47.4144C58.9884 47.4144 58.7246 47.6782 58.7246 48.0035L58.7246 48.0035ZM59.9024 75.9385C59.9024 75.7003 59.7589 75.4854 59.5389 75.3943C59.3188 75.3032 59.0657 75.3533 58.8973 75.5221C58.7289 75.6904 58.6784 75.9436 58.7695 76.1636C58.8606 76.3837 59.0755 76.5272 59.3137 76.5272C59.4698 76.5272 59.6197 76.4653 59.7301 76.3545C59.8405 76.2441 59.9024 76.0946 59.9024 75.9385L59.9024 75.9385ZM59.9024 66.6284C59.9024 66.3903 59.7589 66.1754 59.5389 66.0843C59.3188 65.9932 59.0657 66.0437 58.8973 66.212C58.7289 66.3804 58.6784 66.6336 58.7695 66.8536C58.8606 67.0736 59.0755 67.2172 59.3137 67.2172C59.6386 67.2172 59.9024 66.9538 59.9024 66.6285L59.9024 66.6284ZM59.9024 57.3184C59.9024 57.0803 59.7589 56.8658 59.5389 56.7747C59.3188 56.6836 59.0657 56.7337 58.8973 56.902C58.7289 57.0704 58.6784 57.324 58.7695 57.544C58.8606 57.764 59.0755 57.9076 59.3137 57.9076C59.6386 57.9076 59.9024 57.6438 59.9024 57.3185L59.9024 57.3184Z" fill="white"/>
</svg>
