<svg width="124" height="124" viewBox="0 0 124 124" fill="none" xmlns="http://www.w3.org/2000/svg">
<circle cx="62" cy="62" r="54" fill="#38A3DF"/>
<path fill-rule="evenodd" clip-rule="evenodd" d="M48.5 49.6C48.5 45.6788 51.6788 42.5 55.6 42.5H68.4C72.3212 42.5 75.5 45.6788 75.5 49.6V74.4C75.5 78.3212 72.3212 81.5 68.4 81.5H55.6C51.6788 81.5 48.5 78.3212 48.5 74.4V49.6ZM64 74C64 75.1046 63.1046 76 62 76C60.8954 76 60 75.1046 60 74C60 72.8954 60.8954 72 62 72C63.1046 72 64 72.8954 64 74ZM58 49.25C57.5858 49.25 57.25 49.5858 57.25 50C57.25 50.4142 57.5858 50.75 58 50.75H66C66.4142 50.75 66.75 50.4142 66.75 50C66.75 49.5858 66.4142 49.25 66 49.25H58Z" fill="white"/>
</svg>
