<svg width="124" height="124" viewBox="0 0 124 124" fill="none" xmlns="http://www.w3.org/2000/svg">
<circle cx="62" cy="62" r="54" fill="#38A3DF"/>
<path d="M69.8444 85.3193C70.0235 84.6972 70.0158 84.0359 69.8222 83.418L74.0864 84.2659L69.8444 85.3193Z" fill="white"/>
<path d="M54.4061 59.7402L47.368 79.0724L66.1251 85.8996C66.5307 86.0446 66.9776 86.0194 67.3641 85.8292C67.7505 85.639 68.0433 85.3004 68.1757 84.8905C68.3077 84.4807 68.2687 84.0349 68.0662 83.6546C67.8642 83.2742 67.5167 82.9922 67.1027 82.8728C66.6696 82.7404 66.4143 82.2939 66.52 81.8535C66.6252 81.413 67.0553 81.1307 67.5015 81.2087L75.2123 82.7424L80.1711 69.1222L54.4061 59.7402ZM59.6764 65.3082L61.2869 65.894L56.596 78.7815L54.9854 78.1956L59.6764 65.3082ZM55.6283 66.4064L57.2389 66.9923L53.3749 77.61L51.7647 77.0241L55.6283 66.4064ZM62.8972 66.4803L64.5077 67.0699L59.8168 79.9534L58.2062 79.3676L62.8972 66.4803ZM65.2911 69.9257L66.9047 70.5115L63.0376 81.1283L61.4271 80.5424L65.2911 69.9257Z" fill="white"/>
<path d="M44.8571 37.9971C43.0388 37.9971 41.2946 38.7195 40.0085 40.0056C38.7224 41.2913 38 43.0355 38 44.8542V61.9969H51.7612L53.3818 57.5436L65.6089 61.9969H86V44.8542C86 43.0355 85.2776 41.2913 83.9918 40.0056C82.7057 38.7195 80.9616 37.9971 79.1429 37.9971H44.8571ZM79.9292 43.1365H79.9296C80.6241 43.1173 81.2968 43.3806 81.7946 43.8654C82.2921 44.3506 82.5726 45.0164 82.571 45.7113C82.5718 46.3936 82.3013 47.0487 81.8191 47.5316C81.3366 48.0145 80.6823 48.2858 79.9996 48.2858C79.3174 48.2858 78.6627 48.0145 78.1805 47.5316C77.6984 47.0487 77.4275 46.3936 77.4283 45.7113C77.4271 45.0406 77.6881 44.3962 78.1553 43.9152C78.6225 43.4342 79.2593 43.1549 79.9296 43.1365L79.9292 43.1365ZM79.9759 49.9936H79.9763C80.2082 49.9871 80.4328 50.0751 80.5989 50.2373C80.7645 50.3996 80.8579 50.6219 80.8568 50.8542C80.8571 51.0815 80.7668 51.2999 80.6061 51.461C80.4454 51.6217 80.2269 51.7124 79.9996 51.7124C79.7719 51.7124 79.5538 51.6218 79.3931 51.461C79.2324 51.2999 79.1421 51.0815 79.1425 50.8542C79.1406 50.3885 79.5106 50.0062 79.9763 49.9936H79.9759ZM46.571 51.7113H75.7137V55.1398H46.571V51.7113Z" fill="white"/>
<path d="M80.8569 45.7098C80.8573 45.4822 80.767 45.2641 80.6063 45.103C80.4456 44.9419 80.2275 44.8516 79.9998 44.8516C79.7721 44.8516 79.554 44.9419 79.3933 45.103C79.2326 45.2641 79.1423 45.4822 79.1426 45.7098C79.1423 45.9371 79.2326 46.1553 79.3933 46.3163C79.554 46.4774 79.7721 46.5677 79.9998 46.5677C80.2275 46.5677 80.4456 46.4774 80.6063 46.3163C80.767 46.1553 80.8573 45.9371 80.8569 45.7098Z" fill="white"/>
</svg>
