<svg width="124" height="124" viewBox="0 0 124 124" fill="none" xmlns="http://www.w3.org/2000/svg">
<circle cx="62" cy="62" r="54" fill="#38A3DF"/>
<path d="M62.2605 37.6436C55.9169 37.6436 50.7737 42.7862 50.7737 49.1303C50.7737 55.4744 55.9164 60.6171 62.2605 60.6171C68.6046 60.6171 73.7473 55.4744 73.7473 49.1303C73.7473 42.7862 68.6046 37.6436 62.2605 37.6436ZM62.2605 40.2942C63.1984 40.2942 64.0959 40.4437 64.9523 40.7018C64.9251 40.7426 64.8844 40.7697 64.8577 40.7965L63.0634 42.1017C62.5879 42.4418 61.9348 42.4418 61.4593 42.1017L59.665 40.7965C59.6379 40.7693 59.5971 40.7417 59.5704 40.7018C60.4268 40.4437 61.3239 40.2942 62.2622 40.2942H62.2605ZM53.5341 49.0206C53.4933 49.0478 53.4661 49.0754 53.4254 49.0886C53.4394 47.1724 54.0504 45.4185 55.0974 43.9774C55.1114 44.0046 55.1245 44.0453 55.1381 44.0861L55.8179 46.1928C56.0081 46.7503 55.8039 47.3753 55.3283 47.7153L53.5341 49.0206ZM55.1382 54.3622C55.1789 54.3482 55.2197 54.3482 55.2609 54.3482H57.4763C58.0746 54.3482 58.5909 54.7291 58.7815 55.2861L59.4613 57.4064C59.4753 57.4472 59.4885 57.4744 59.4885 57.5151C57.7349 56.9441 56.2124 55.8163 55.1386 54.3618L55.1382 54.3622ZM63.7937 52.7568H60.7289C60.1403 52.7568 59.6178 52.3781 59.436 51.8176L58.4885 48.9022C58.3061 48.3426 58.506 47.7285 58.9824 47.3823L61.4622 45.581C61.9386 45.2347 62.5837 45.2347 63.0601 45.581L65.5399 47.3823C66.0167 47.7285 66.2161 48.3426 66.0338 48.9022L65.0863 51.8176C64.904 52.3773 64.3824 52.7568 63.7934 52.7568H63.7937ZM65.034 57.5164C65.034 57.4757 65.048 57.4485 65.0612 57.4078L65.7409 55.2874C65.9311 54.73 66.4479 54.3495 67.0461 54.3495H69.2616C69.3023 54.3495 69.3431 54.3495 69.3843 54.3636C68.3105 55.8182 66.7879 56.9467 65.0344 57.5169L65.034 57.5164ZM69.1932 47.7154C68.7176 47.3753 68.5134 46.7503 68.7036 46.1929L69.3834 44.0862L69.4241 43.9634C69.8225 44.5122 70.1578 45.1082 70.4221 45.7416C70.8507 46.7719 71.0882 47.9009 71.0961 49.0877C71.0554 49.0737 71.0282 49.047 70.9874 49.0198L69.1932 47.7146L69.1932 47.7154Z" fill="white"/>
<path d="M47.2394 49.131C47.2394 48.0936 47.345 47.0808 47.5449 46.1025C45.0375 46.5605 42.5438 47.0935 40.0885 47.7881C38.5761 48.2171 37.5198 49.6196 37.5198 51.2018V53.5483C37.5198 55.4973 39.105 57.0825 41.054 57.0825H49.5328C48.0878 54.7746 47.2389 52.0547 47.2389 49.1305L47.2394 49.131Z" fill="white"/>
<path d="M84.4318 47.7871C81.977 47.092 79.4833 46.5596 76.9755 46.1016C77.1758 47.0798 77.2809 48.0926 77.2809 49.13C77.2809 52.0541 76.432 54.7741 74.9871 57.082H83.4658C85.4148 57.082 87.0001 55.4968 87.0001 53.5478V51.2013C87.0001 49.62 85.9438 48.2166 84.4313 47.7876L84.4318 47.7871Z" fill="white"/>
<path d="M71.9296 60.6162C69.3166 62.8185 65.9454 64.1504 62.2604 64.1504C58.5754 64.1504 55.2046 62.8185 52.5912 60.6162H41.0551V80.0544C41.0551 82.9782 43.4331 85.3562 46.3568 85.3562H53.4253V76.5211C53.4253 74.5691 55.0075 72.9869 56.9595 72.9869H67.5622C69.5142 72.9869 71.0964 74.5691 71.0964 76.5211V85.3562H78.1649C81.0886 85.3562 83.4666 82.9782 83.4666 80.0544V60.6162H71.9296Z" fill="white"/>
</svg>
