<svg width="124" height="124" viewBox="0 0 124 124" fill="none" xmlns="http://www.w3.org/2000/svg">
<circle cx="62" cy="62" r="54" fill="#ED506A"/>
<path d="M76.7067 81.5525C73.7809 84.5043 69.6437 85.9992 64.4236 85.9992C59.2161 85.9992 55.079 84.5044 52.1531 81.5525C46.2368 75.5716 46.3271 65.0678 46.379 60.0285V58.933C46.379 53.7773 59.0229 53.7773 64.4236 53.7773C69.8243 53.7773 82.4682 53.7773 82.4682 58.933L82.4809 60.0285C82.5194 65.0679 82.6224 75.5719 76.7067 81.5525H76.7067Z" fill="white"/>
<path d="M69.2943 51.1987H59.5499L60.3233 47.332H68.521L69.2943 51.1987Z" fill="white"/>
<path d="M63.1342 39.5996H65.712V44.7552H63.1342V39.5996Z" fill="white"/>
<path d="M60.5563 40.8867V43.4645H57.8369C57.9273 43.052 57.9785 42.6141 57.9785 42.1756C57.9785 41.7372 57.9267 41.2993 57.8369 40.8867H60.5563Z" fill="white"/>
<path d="M55.4007 42.1771C55.4007 44.8838 52.5133 47.075 48.9562 47.075C45.4118 47.075 42.5117 44.8838 42.5117 42.1771C42.5117 39.4704 45.4118 37.2793 48.9562 37.2793C52.5133 37.2793 55.4007 39.4704 55.4007 42.1771Z" fill="white"/>
</svg>
