<svg width="124" height="124" viewBox="0 0 124 124" fill="none" xmlns="http://www.w3.org/2000/svg">
<circle cx="62" cy="62" r="54" fill="#020202"/>
<circle cx="62" cy="62" r="54" fill="#38A3DF"/>
<path d="M59.9682 47.7475C60.9013 53.106 59.0799 57.8975 55.8902 58.4527C52.7075 59.012 49.3695 55.1147 48.4377 49.7573C47.5046 44.3987 49.326 39.6059 52.5075 39.052C55.6894 38.5009 59.0356 42.39 59.9682 47.7475ZM41.0513 52.8995C38.7119 53.8875 38.1644 57.8761 39.8294 61.81C41.4943 65.7434 44.7357 68.1299 47.075 67.1395C49.4144 66.1515 49.9619 62.1628 48.2887 58.229C46.6311 54.294 43.3907 51.9066 41.0513 52.8995ZM63.5055 47.7475C62.5737 53.106 64.3939 57.8975 67.5767 58.4527C70.7594 59.012 74.1044 55.1147 75.0374 49.7573C75.9704 44.3987 74.149 39.6059 70.9662 39.052C67.7762 38.5009 64.4382 42.39 63.5055 47.7475ZM75.1769 58.2278C73.512 62.1612 74.0595 66.1511 76.3988 67.1382C78.73 68.1299 81.9783 65.7425 83.6362 61.8087C85.3093 57.8753 84.7618 53.8862 82.4225 52.8982C80.0847 51.9066 76.8429 54.294 75.1769 58.2278ZM61.76 58.5048V58.5117C61.8116 58.5117 61.8563 58.5048 61.9079 58.5048H61.76ZM61.5674 58.5048C61.612 58.5048 61.6637 58.5117 61.7153 58.5117V58.5048H61.5674ZM76.947 72.5092C73.2918 65.6229 70.2419 58.5981 61.7604 58.5142H61.7309H61.717C53.2354 58.5986 50.1778 65.6234 46.523 72.5092C42.8445 79.4364 47.1364 83.5511 50.0228 85.0313C52.9166 86.5118 56.7423 86.1192 58.8743 85.0313C60.7097 84.0982 61.5239 84.2912 61.7165 84.358V84.3863L61.7305 84.3724C61.7456 84.3793 61.76 84.3863 61.76 84.3863V84.358C61.9526 84.2912 62.7656 84.0982 64.6022 85.0313C66.7334 86.1192 70.559 86.5118 73.4455 85.0313C76.3397 83.5504 80.6317 79.435 76.947 72.5092Z" fill="white"/>
</svg>
