<svg width="124" height="124" viewBox="0 0 124 124" fill="none" xmlns="http://www.w3.org/2000/svg">
<circle cx="62" cy="62" r="54" fill="#806DF3"/>
<path d="M87.8781 52.8443L83.64 41.3269C83.3716 40.5309 82.5671 40 81.7086 40H43.2951C42.4367 40 41.6855 40.5309 41.3637 41.3269L37.1256 52.8443C36.6428 54.1712 37.6083 55.5511 39.057 55.5511H40.8274V82.9912C40.8274 83.575 41.3102 83.9997 41.8469 83.9997H83.1574C83.6941 83.9997 84.1768 83.5221 84.1768 82.9912L84.1765 55.5511H85.9469C87.342 55.5511 88.3615 54.1183 87.8783 52.8443H87.8781ZM64.8623 70.6777H44.4216V55.6042H64.8623V70.6777ZM80.5817 80.3905H68.4568V55.6042H80.5817V80.3905Z" fill="white"/>
<path d="M49.9474 64.8925H52.8443V67.7584C52.8443 67.9705 53.0053 68.1831 53.2736 68.1831H56.0096C56.2241 68.1831 56.4389 68.0239 56.4389 67.7584V64.8925H59.3358C59.5502 64.8925 59.7651 64.7333 59.7651 64.4679V61.7611C59.7651 61.549 59.6041 61.3364 59.3358 61.3364H56.4389V58.4706C56.4389 58.2584 56.278 58.0459 56.0096 58.0459H53.2736C53.0592 58.0459 52.8443 58.2051 52.8443 58.4706V61.3364H49.9474C49.733 61.3364 49.5182 61.4956 49.5182 61.7611V64.4679C49.5717 64.7333 49.7326 64.8925 49.9474 64.8925Z" fill="white"/>
</svg>
