<svg width="124" height="124" viewBox="0 0 124 124" fill="none" xmlns="http://www.w3.org/2000/svg">
<circle cx="62" cy="62" r="54" fill="#020202"/>
<circle cx="62" cy="62" r="54" fill="#FF9431"/>
<path d="M66 57.5C62.4101 57.5 59.5 60.4101 59.5 64C59.5 67.5899 62.4101 70.5 66 70.5C69.5899 70.5 72.5 67.5899 72.5 64C72.5 60.4101 69.5899 57.5 66 57.5Z" fill="white"/>
<path fill-rule="evenodd" clip-rule="evenodd" d="M59.4725 48.5C59.2238 46.25 57.3163 44.5 55 44.5H51C48.5153 44.5 46.501 46.5137 46.5 48.9982C44.151 49.9777 42.5 52.296 42.5 55V73C42.5 76.5899 45.4101 79.5 49 79.5H75C78.5899 79.5 81.5 76.5899 81.5 73V55C81.5 51.4101 78.5899 48.5 75 48.5H59.4725ZM49.5854 48.5H56.4146C56.2087 47.9174 55.6531 47.5 55 47.5H51C50.3469 47.5 49.7913 47.9174 49.5854 48.5ZM56.5 64C56.5 58.7533 60.7533 54.5 66 54.5C71.2467 54.5 75.5 58.7533 75.5 64C75.5 69.2467 71.2467 73.5 66 73.5C60.7533 73.5 56.5 69.2467 56.5 64ZM50 56.5C49.1716 56.5 48.5 57.1716 48.5 58C48.5 58.8284 49.1716 59.5 50 59.5H52C52.8284 59.5 53.5 58.8284 53.5 58C53.5 57.1716 52.8284 56.5 52 56.5H50Z" fill="white"/>
</svg>
