<svg width="124" height="124" viewBox="0 0 124 124" fill="none" xmlns="http://www.w3.org/2000/svg">
<circle cx="62" cy="62" r="54" fill="#020202"/>
<circle cx="62" cy="62" r="54" fill="#413C3C"/>
<path d="M43.5585 73.5976L38.4025 73.5973C37.6751 73.5973 37.0833 73.0047 37.0833 72.2765L37.0825 53.3289C37.0825 52.6007 37.6744 52.0081 38.401 52.0081L43.5569 52.0088C44.2843 52.0088 44.8761 52.6014 44.8761 53.3296C44.8765 61.3514 44.8769 68.5987 44.8769 72.2772C44.8769 73.0054 44.2851 73.5972 43.5585 73.5972V73.5976ZM84.6525 58.2818C84.5653 58.2818 67.5106 58.2807 67.5993 58.2807C67.1682 58.2807 66.8193 58.6299 66.8193 59.0606C66.8193 59.4914 67.1682 59.8406 67.5993 59.8406C67.6774 59.8406 73.6209 59.8452 73.3333 59.8448C74.6735 59.8448 75.6839 60.9649 75.6839 62.1908C75.6839 63.4205 74.6689 64.5383 73.3333 64.5383C72.799 64.5383 67.2451 64.5402 67.6 64.5402C67.1689 64.5402 66.82 64.8895 66.82 65.3202C66.82 65.7509 67.1689 66.1002 67.6 66.1002L71.536 66.1006C72.8233 66.1025 73.8802 67.1502 73.8802 68.4539C73.8802 69.7461 72.8271 70.7998 71.5334 70.7998L67.6 70.7994C67.1696 70.7994 66.82 71.1487 66.82 71.5794C66.82 72.0102 67.1689 72.3594 67.6 72.3594L69.7297 72.3598H69.7312C69.7324 72.3598 69.7331 72.3605 69.7343 72.3605C69.895 72.3605 70.0519 72.3769 70.2035 72.4081C70.9659 72.5654 71.5948 73.0933 71.8921 73.7952C72.0106 74.0759 72.0765 74.384 72.0765 74.7078C72.0765 75.1857 71.9325 75.6294 71.6884 76.0012C71.2679 76.6375 70.5481 77.0595 69.7304 77.0595C69.6489 77.0595 62.9014 77.0629 62.9803 77.0629C62.9738 77.0629 62.9681 77.0591 62.9613 77.0591C53.7664 77.058 52.807 71.4362 46.4423 71.1715C46.4362 48.1876 46.4382 56 46.4378 54.3328C52.5192 53.2969 55.0769 50.4589 57.0786 48.7781C58.1393 47.8919 59.4943 47.3926 60.8798 47.3926L65.3731 47.393C67.3649 47.393 68.6674 48.4612 69.7536 50.1209L71.2724 52.0221L65.1461 52.0217C64.7157 52.0217 64.3661 52.371 64.3661 52.8017C64.3661 53.2325 64.715 53.5817 65.1461 53.5817C67.1334 53.5821 57.9431 53.5809 84.6494 53.5836C85.9135 53.5836 87 54.6363 87 55.9331C87 57.2287 85.9465 58.2822 84.6525 58.2822L84.6525 58.2818Z" fill="white"/>
</svg>
