<svg width="124" height="124" viewBox="0 0 124 124" fill="none" xmlns="http://www.w3.org/2000/svg">
<circle cx="62" cy="62" r="54" fill="#020202"/>
<circle cx="62" cy="62" r="54" fill="#413C3C"/>
<path d="M62.5413 68.5519C62.1967 68.7045 61.8029 68.7045 61.4583 68.5519L51.333 64.0518V72.6662H72.6661V64.0518L62.5413 68.5519Z" fill="white"/>
<path d="M61.9998 65.8741L72.6665 61.1321V59.332H51.3335V61.1321L61.9998 65.8741Z" fill="white"/>
<path d="M85.3444 51.5175L62.6776 38.1835C62.2593 37.9388 61.7414 37.9388 61.3231 38.1835L38.6563 51.5175C38.25 51.7572 38.0004 52.1939 38 52.6658V84.6665C38 85.0205 38.1402 85.3594 38.3902 85.6098C38.6402 85.8598 38.9795 86 39.3335 86H84.6671C85.0211 86 85.3604 85.8598 85.6104 85.6098C85.8604 85.3594 86.0006 85.0205 86.0006 84.6665V52.6658C86.0002 52.1939 85.7506 51.7573 85.3444 51.5175H85.3444ZM75.3339 73.9992C75.3339 74.3527 75.1937 74.692 74.9433 74.942C74.6933 75.1925 74.354 75.3327 74.0004 75.3327H49.9998C49.6463 75.3327 49.307 75.1925 49.057 74.942C48.8065 74.692 48.6663 74.3527 48.6663 73.9992V57.9988C48.6663 57.6452 48.8065 57.3059 49.057 57.0559C49.307 56.8055 49.6463 56.6653 49.9998 56.6653H74.0004C74.354 56.6653 74.6933 56.8055 74.9433 57.0559C75.1937 57.3059 75.3339 57.6452 75.3339 57.9988V73.9992Z" fill="white"/>
</svg>
