<svg width="124" height="124" viewBox="0 0 124 124" fill="none" xmlns="http://www.w3.org/2000/svg">
<circle cx="62" cy="62" r="54" fill="#020202"/>
<circle cx="62" cy="62" r="54" fill="#38A3DF"/>
<rect x="42" y="44" width="14" height="28" rx="1" fill="white"/>
<path fill-rule="evenodd" clip-rule="evenodd" d="M40.5488 62.0894C40.2415 62.1228 40 62.3784 40 62.6874V75.1399C40 75.4656 40.2579 75.7277 40.5834 75.7351C44.1962 75.8172 63.6337 76.2261 71.9444 75.7215C77.9649 75.356 82.1332 74.3024 84.2898 73.6203C85.2727 73.3094 85.745 72.2594 85.2947 71.3322C84.3935 69.4764 82.6286 66.6574 80 66.0002C79.501 65.8754 78.9017 65.8004 78.1845 65.7105C76.5522 65.5061 74.3092 65.2251 71.2473 64.1078L69.0981 67.8303C68.8219 68.3086 68.2103 68.4725 67.732 68.1964L66 67.1964C65.5217 66.9202 65.3578 66.3086 65.634 65.8303L67.5509 62.5101C67.3154 62.3933 67.0762 62.2718 66.8333 62.1457C66.1228 61.7767 65.231 61.1077 64.2876 60.3059L61.0981 65.8303C60.8219 66.3086 60.2103 66.4725 59.732 66.1964L58 65.1964C57.5217 64.9202 57.3578 64.3086 57.634 63.8303L61.2784 57.5181C60.0957 56.351 59.0579 55.2582 58.4518 54.6093C58.1727 54.3104 57.6656 54.3549 57.4112 54.6751C56.0435 56.397 51.4855 60.901 40.5488 62.0894Z" fill="white"/>
</svg>
