<svg width="124" height="124" viewBox="0 0 124 124" fill="none" xmlns="http://www.w3.org/2000/svg">
<circle cx="62" cy="62" r="54" fill="#ED506A"/>
<path d="M64.8703 73.0746V73.4589C64.9342 73.3307 64.9342 73.2029 64.8703 73.0746ZM64.8703 66.6045V66.7966C64.8064 66.7327 64.8064 66.6684 64.8703 66.6045Z" fill="white"/>
<path d="M67.3046 73.2666C67.4329 76.3415 67.4968 78.0713 66.3439 79.2886C65.7674 79.865 64.9984 80.1854 64.2298 80.1854H63.9738C60.7706 79.9294 58.3362 78.8399 56.7346 76.9184C55.0691 74.9325 54.3001 72.1137 54.6205 68.6545V68.5902C54.108 68.398 53.5954 68.0776 53.0829 67.6933C49.3673 64.6184 42.0002 67.2447 42.0002 67.2447V80.954C42.0002 81.787 42.7049 82.4917 43.5378 82.4917H81.3347C82.1677 82.4917 82.8723 81.7869 82.8723 80.954L82.8719 66.4119C82.8719 66.4119 81.5907 68.4621 79.2201 68.2694C76.9138 68.1412 76.2091 67.693 73.2625 66.2192C71.597 65.3224 69.2907 65.2585 67.1123 65.5145V66.0271C67.1123 68.9098 67.2405 71.3442 67.3044 73.2662L67.3046 73.2666Z" fill="white"/>
<path d="M64.614 77.6237C64.5501 77.6237 64.5501 77.6876 64.614 77.6237C64.5501 77.6876 64.5501 77.6237 64.614 77.6237ZM64.6779 77.5593C64.6779 77.5593 64.614 77.5593 64.6779 77.5593C64.614 77.5593 64.6779 77.5593 64.6779 77.5593ZM64.7423 77.4315C64.7423 77.4315 64.7423 77.4954 64.6784 77.4954L64.7423 77.4315ZM64.4858 77.6876C64.4858 77.6876 64.4219 77.7515 64.4858 77.6876C64.4219 77.7515 64.4858 77.6876 64.4858 77.6876ZM64.8062 68.8468V68.5907V68.8468ZM64.2297 77.7515H64.1658H64.2297ZM64.9983 76.2143V76.3425C64.9344 76.2786 64.9983 76.2143 64.9983 76.2143ZM56.6062 60.3267H42V65.5156C42 65.5156 49.367 62.889 52.9549 65.8999C53.5314 66.4125 54.1722 66.7329 54.7487 66.925C54.7487 66.8611 54.7487 66.7329 54.8126 66.669C55.133 64.6832 55.7733 62.569 56.6063 60.3267H56.6062ZM67.3685 63.722C69.4826 63.4659 71.7245 63.5938 73.3905 64.4267C76.2732 65.9 76.9779 66.3487 79.3481 66.4769C81.6543 66.6052 82.9999 64.6194 82.9999 64.6194V60.2624H67.753C67.753 60.3907 67.753 60.4546 67.6891 60.5828C67.6252 61.6718 67.497 62.6969 67.3687 63.722H67.3685ZM58.7843 55.0733H43.6014C42.7685 55.0733 42.0638 55.778 42.0638 56.6109V58.789H57.1826C57.3108 58.4686 57.4386 58.1482 57.5669 57.8921C57.8873 56.9953 58.3355 56.0345 58.7842 55.0732L58.7843 55.0733ZM68.0094 58.789H83V56.6109C83 55.778 82.2953 55.0733 81.4624 55.0733H68.778C68.7141 55.2655 68.7141 55.3937 68.6498 55.5859C68.3937 56.611 68.2011 57.7 68.009 58.789L68.0094 58.789Z" fill="white"/>
<path d="M66.2797 55.0734C67.8812 47.7703 71.1483 38.9938 77.5545 29C77.5545 29 67.4327 42.325 61.3467 55.0734C60.7703 56.3546 60.1938 57.5719 59.6812 58.7891L59.1048 60.3267C58.2079 62.6969 57.5032 64.9392 57.1828 66.9889C57.0545 67.6298 56.9906 68.2062 56.9267 68.7827C56.4781 73.7796 58.3361 77.303 64.1016 77.7512H64.5502C64.5502 77.7512 64.6142 77.7512 64.6142 77.6873L64.6781 77.6234C64.6781 77.6234 64.6781 77.5595 64.742 77.5595C64.742 77.5595 64.742 77.4956 64.8059 77.4956C64.8059 77.4956 64.8059 77.4317 64.8698 77.4317V65.9668C64.8698 65.3904 64.9337 64.8139 64.998 64.237C65.0619 63.0197 65.1902 61.7386 65.3823 60.393C65.4462 59.8805 65.5106 59.3679 65.6384 58.8554C65.7666 57.5743 66.0227 56.357 66.2792 55.0758L66.2797 55.0734Z" fill="white"/>
</svg>
