<svg width="124" height="124" viewBox="0 0 124 124" fill="none" xmlns="http://www.w3.org/2000/svg">
<circle cx="62" cy="62" r="54" fill="#CEB63A"/>
<path fill-rule="evenodd" clip-rule="evenodd" d="M42 68V78C42 81.3137 46.4772 84 52 84C55.9582 84 59.3793 82.6202 61 80.6185C62.6207 82.6202 66.0418 84 70 84C75.5228 84 80 81.3137 80 78V68C80 64.6863 75.5228 62 70 62C66.0418 62 62.6207 63.3798 61 65.3815C59.3793 63.3798 55.9582 62 52 62C46.4772 62 42 64.6863 42 68ZM70 72C74.562 72 78 69.9372 78 68C78 66.0628 74.562 64 70 64C65.438 64 62 66.0628 62 68C62 69.9372 65.438 72 70 72ZM60 68C60 66.0628 56.562 64 52 64C47.438 64 44 66.0628 44 68C44 69.9372 47.438 72 52 72C56.562 72 60 69.9372 60 68Z" fill="white"/>
<path fill-rule="evenodd" clip-rule="evenodd" d="M77.3217 42.0419C77.672 43.0592 77.1313 44.1678 76.114 44.5181C76.0979 44.5236 76.0816 44.529 76.0653 44.5341L42.6713 55.0584C42.1406 55.2257 41.5732 54.9397 41.392 54.4135C41.2108 53.8873 41.4818 53.3126 42.0031 53.1176L74.7973 40.8515C75.805 40.4746 76.9275 40.986 77.3044 41.9937C77.3104 42.0097 77.3161 42.0257 77.3217 42.0419ZM79.943 51.1031C80.1299 52.1626 79.4224 53.173 78.3628 53.3598C78.346 53.3628 78.3292 53.3655 78.3123 53.368L43.683 58.5388C43.1326 58.621 42.617 58.2497 42.5203 57.7017C42.4237 57.1537 42.7813 56.6284 43.3266 56.5174L77.6359 49.5324C78.6902 49.3178 79.7188 49.9984 79.9335 51.0527C79.9369 51.0694 79.9401 51.0862 79.943 51.1031ZM70 69.9998C71.6569 69.9998 73 69.1043 73 67.9998C73 66.8952 71.6569 65.9998 70 65.9998C68.3432 65.9998 67 66.8952 67 67.9998C67 69.1043 68.3432 69.9998 70 69.9998ZM55 67.9998C55 69.1043 53.6569 69.9998 52 69.9998C50.3432 69.9998 49 69.1043 49 67.9998C49 66.8952 50.3432 65.9998 52 65.9998C53.6569 65.9998 55 66.8952 55 67.9998Z" fill="white"/>
</svg>
