<svg width="124" height="124" viewBox="0 0 124 124" fill="none" xmlns="http://www.w3.org/2000/svg">
<circle cx="62" cy="62" r="54" fill="#CEB63A"/>
<path d="M82.7781 64.0132L82.6728 63.9733C79.1913 62.6363 74.3225 59.0458 69.6412 54.3628C64.9599 49.6799 61.3678 44.8171 60.0342 41.3407L59.991 41.226C59.9582 41.1396 59.9272 41.059 59.8985 40.9746C59.7842 40.641 59.6904 40.3009 59.6178 39.9561L53.4561 46.1178C53.1771 46.3968 53.1332 47.3634 53.9156 49.1684C53.9264 49.1876 53.9362 49.2072 53.945 49.2271C54.0503 49.4609 54.1673 49.7065 54.2955 49.9639C55.8971 53.1475 59.0459 57.2002 62.9232 61.0807C66.8005 64.9614 70.8566 68.1069 74.0417 69.7084C74.3009 69.837 74.5428 69.9537 74.7769 70.059C74.7975 70.0677 74.8177 70.0779 74.8373 70.0893C76.6417 70.8717 77.6072 70.8269 77.8863 70.5479L84.0453 64.3888C83.6988 64.3143 83.3567 64.2188 83.0216 64.1027C82.9451 64.0777 82.8627 64.0457 82.7781 64.013L82.7781 64.0132Z" fill="white"/>
<path d="M38.253 84.5285C37.9157 84.8659 37.9157 85.4131 38.253 85.7505C38.5904 86.0879 39.1376 86.0879 39.475 85.7505L57.7494 67.4753L56.528 66.2539L38.253 84.5285Z" fill="white"/>
<path d="M53.9302 52.8009C53.3539 57.5357 54.9875 62.2723 58.3604 65.6451C61.7329 69.0176 66.4699 70.6516 71.2046 70.075C67.762 67.8408 64.5757 65.2341 61.7038 62.3016C58.7716 59.4298 56.1649 56.2438 53.9304 52.8008L53.9302 52.8009Z" fill="white"/>
<path d="M79.8442 50.7607H79.8236C79.5591 50.7729 79.2801 51.006 79.0564 51.4014C78.7402 52.0202 78.5975 52.7129 78.6438 53.4062C78.6589 54.1012 78.862 54.7791 79.2312 55.3678C79.3958 55.6799 79.7018 55.8924 80.0517 55.938C80.663 55.911 81.297 54.7737 81.2322 53.2922C81.216 52.5975 81.0129 51.9196 80.6441 51.3309C80.4815 51.0259 80.1856 50.8147 79.8442 50.7607H79.8442Z" fill="white"/>
<path d="M85.6568 60.3359C85.6281 60.4223 85.6065 60.5036 85.5765 60.5856C85.4111 61.0309 84.9172 61.2593 84.4708 61.0964C84.0245 60.9337 83.7934 60.4412 83.9536 59.9938C86.0225 54.3111 84.6112 47.945 80.3351 43.6679C76.0587 39.3919 69.6925 37.9806 64.0093 40.0494C63.7188 40.1553 63.3945 40.098 63.1577 39.8996C62.9212 39.7012 62.8085 39.3915 62.8618 39.0872C62.9155 38.7832 63.1273 38.5305 63.4175 38.4249C63.4995 38.3945 63.5852 38.3729 63.6672 38.3446C62.3058 37.8645 61.6064 37.9637 61.3948 38.1762C61.1674 38.4043 61.0848 39.1125 61.5338 40.4219L61.6495 40.7319C62.8786 43.9327 66.4094 48.6919 70.8619 53.1434C75.3144 57.5949 80.0725 61.1267 83.282 62.3592L83.5755 62.4682C84.8876 62.9216 85.5975 62.8386 85.8212 62.6099C86.0361 62.3957 86.1363 61.6959 85.6562 60.3356L85.6568 60.3359ZM82.9577 53.2163C83.064 55.6347 81.821 57.5892 80.128 57.6634H80.0305C79.1158 57.6226 78.2815 57.129 77.8047 56.3473C77.2497 55.493 76.9413 54.5018 76.9143 53.4832C76.807 51.0648 78.0499 49.1103 79.743 49.0351C80.6937 49.0371 81.5736 49.5368 82.0628 50.3523C82.6181 51.2065 82.9265 52.1978 82.9541 53.2163H82.9577Z" fill="white"/>
</svg>
