<svg width="124" height="124" viewBox="0 0 124 124" fill="none" xmlns="http://www.w3.org/2000/svg">
<circle cx="62" cy="62" r="54" fill="#38A3DF"/>
<path d="M71.3 49.4404H52.7C46.8 49.4404 42 54.2404 42 60.1404V71.3004C42 77.2004 46.8 82.0004 52.7 82.0004H71.3C77.2 82.0004 82 77.2004 82 71.3004V60.1404C82 54.2404 77.2 49.4404 71.3 49.4404ZM67 62.0404C67 60.9404 67.9 60.0404 69 60.0404C70.1 60.0404 71 60.9404 71 62.0404C71 63.1404 70.1 64.0604 69 64.0604C67.9 64.0604 67 63.1804 67 62.0804V62.0404ZM58.26 70.1404C57.96 70.4404 57.58 70.5804 57.2 70.5804C56.82 70.5804 56.44 70.4404 56.14 70.1404L54.08 68.0804L52.1 70.0604C51.8 70.3604 51.42 70.5004 51.04 70.5004C50.66 70.5004 50.28 70.3604 49.98 70.0604C49.4 69.4804 49.4 68.5204 49.98 67.9404L51.96 65.9604L50.04 64.0404C49.46 63.4604 49.46 62.5004 50.04 61.9204C50.62 61.3404 51.58 61.3404 52.16 61.9204L54.08 63.8404L56.06 61.8604C56.64 61.2804 57.6 61.2804 58.18 61.8604C58.76 62.4404 58.76 63.4004 58.18 63.9804L56.2 65.9604L58.26 68.0204C58.84 68.6004 58.84 69.5604 58.26 70.1404ZM65.08 68.0004C63.98 68.0004 63.06 67.1004 63.06 66.0004C63.06 64.9004 63.94 64.0004 65.04 64.0004H65.08C66.18 64.0004 67.08 64.9004 67.08 66.0004C67.08 67.1004 66.2 68.0004 65.08 68.0004ZM69 71.9404C67.9 71.9404 67 71.0604 67 69.9604V69.9204C67 68.8204 67.9 67.9204 69 67.9204C70.1 67.9204 71 68.8204 71 69.9204C71 71.0204 70.12 71.9404 69 71.9404ZM72.96 68.0004C71.86 68.0004 70.94 67.1004 70.94 66.0004C70.94 64.9004 71.82 64.0004 72.92 64.0004H72.96C74.06 64.0004 74.96 64.9004 74.96 66.0004C74.96 67.1004 74.08 68.0004 72.96 68.0004Z" fill="white"/>
<path d="M65.28 43.42L65.26 45.3C65.24 47.06 63.78 48.52 62 48.52C61.7 48.52 61.52 48.72 61.52 48.98C61.52 49.24 61.72 49.44 61.98 49.44H58.76C58.74 49.3 58.72 49.14 58.72 48.98C58.72 47.18 60.18 45.72 61.96 45.72C62.26 45.72 62.46 45.52 62.46 45.26L62.48 43.38C62.5 42.62 63.12 42 63.88 42H63.9C64.68 42 65.28 42.64 65.28 43.42Z" fill="white"/>
</svg>
