<svg width="124" height="124" viewBox="0 0 124 124" fill="none" xmlns="http://www.w3.org/2000/svg">
<circle cx="62" cy="62" r="54" fill="#ED506A"/>
<path d="M70.8682 49.9121L69.6994 43.4648C69.5743 42.7731 69.2102 42.1473 68.6707 41.6968C68.1311 41.2463 67.4504 40.9996 66.7475 41H57.2525C56.5496 40.9996 55.8689 41.2463 55.3293 41.6968C54.7898 42.1473 54.4257 42.7731 54.3006 43.4648L53.1318 49.9121C51.2316 51.3031 49.686 53.1226 48.6206 55.2229C47.5552 57.3231 47 59.645 47 62C47 64.355 47.5552 66.6769 48.6206 68.7771C49.686 70.8774 51.2316 72.6969 53.1318 74.0879L54.3006 80.5352C54.4257 81.2269 54.7898 81.8527 55.3293 82.3032C55.8689 82.7537 56.5496 83.0004 57.2525 83H66.7475C67.4504 83.0004 68.1311 82.7537 68.6707 82.3032C69.2102 81.8527 69.5743 81.2269 69.6994 80.5352L70.8682 74.0879C72.7684 72.6969 74.314 70.8774 75.3794 68.7771C76.4448 66.6769 77 64.355 77 62C77 59.645 76.4448 57.3231 75.3794 55.2229C74.314 53.1226 72.7684 51.3031 70.8682 49.9121ZM57.2525 44H66.7476L67.4802 48.0412C63.9586 46.6529 60.0414 46.6529 56.5198 48.0412L57.2525 44ZM66.7475 80H57.2524L56.5198 75.9588C60.0414 77.3471 63.9586 77.3471 67.4802 75.9588L66.7475 80ZM69.5 63.5H62C61.6022 63.5 61.2206 63.342 60.9393 63.0607C60.658 62.7794 60.5 62.3978 60.5 62V54.5C60.5 54.1022 60.658 53.7206 60.9393 53.4393C61.2206 53.158 61.6022 53 62 53C62.3978 53 62.7794 53.158 63.0607 53.4393C63.342 53.7206 63.5 54.1022 63.5 54.5V60.5H69.5C69.8978 60.5 70.2794 60.658 70.5607 60.9393C70.842 61.2206 71 61.6022 71 62C71 62.3978 70.842 62.7794 70.5607 63.0607C70.2794 63.342 69.8978 63.5 69.5 63.5Z" fill="white"/>
</svg>
