<svg width="124" height="124" viewBox="0 0 124 124" fill="none" xmlns="http://www.w3.org/2000/svg">
<circle cx="62" cy="62" r="54" fill="#38A3DF"/>
<path d="M71.3142 56.7416C69.9091 57.1904 66.8354 58.0261 63.0094 58.2595V56.5315C65.2697 56.4163 67.7211 56.0205 70.2226 55.1527C70.2207 55.1507 70.2183 55.1473 70.2163 55.1449L70.8912 41.6613C67.2952 39.6387 66.9564 33.0093 66.9564 33.0093L65.1603 32.5596L61.3811 39.5749L57.6024 32.5596L55.8053 33.0098C55.8053 33.0098 55.4679 39.6392 51.8719 41.6618L52.5458 55.1454C52.5458 55.1454 52.5394 55.158 52.5263 55.1818C53.718 55.5689 56.0994 56.2204 59.1382 56.4683V58.2639C56.7704 58.119 54.2567 57.6882 51.7504 56.7815C49.9125 60.7698 45.3763 71.8608 43.5166 87.7167C43.5166 87.7167 60.484 94.7948 80.4835 88.1669C80.484 88.1655 75.8359 64.6363 71.3142 56.7413L71.3142 56.7416ZM62.3122 58.3008C61.5149 58.3324 60.6849 58.33 59.8356 58.2989V56.5145C60.6247 56.5607 61.4521 56.5767 62.3122 56.5544V58.3008Z" fill="white"/>
</svg>
