<svg width="150" height="84" viewBox="0 0 150 84" fill="none" xmlns="http://www.w3.org/2000/svg">
<g id="Group">
<path id="Vector" d="M45.269 75.0215C45.227 75.1913 45.185 75.4037 45.185 75.616C39.9313 61.2628 26.608 39.4357 3.95409 38.1193C3.95409 38.1193 5.55121 30.518 17.9079 24.8277C17.5716 26.1866 17.2774 27.3756 16.8151 29.2016C16.3107 31.3249 16.2687 33.8303 16.731 35.996C16.8151 36.3358 16.9412 37.3974 17.4455 37.3974C17.9499 37.3974 18.16 36.2508 18.2021 35.996C18.8745 33.1084 19.2528 31.7495 19.9253 28.9044C20.3035 27.2907 20.4296 25.5072 20.2615 23.8086C23.1615 22.662 26.5239 21.6428 30.5167 20.7935C29.508 25.8469 28.4993 31.0276 27.4906 36.0385C27.0703 38.2042 27.1123 40.6672 27.6587 42.8329C27.7428 43.1726 27.9529 44.2343 28.4152 44.2343C28.8776 44.2343 29.0877 43.0453 29.1297 42.8329C30.2645 37.1426 31.4413 31.155 32.5761 25.4222C32.8703 23.851 32.9544 22.0675 32.7443 20.4113C33.837 20.199 34.9298 20.0292 36.1066 19.8593C38.6704 19.4771 40.94 19.0949 42.9994 18.7127C41.4864 26.4414 39.5951 36.2084 38.1661 43.5124C37.9559 44.6165 37.7458 45.763 37.4936 46.8671C37.0733 49.0328 37.1153 51.4958 37.6617 53.6615C37.7458 54.0013 37.9559 55.0629 38.4182 55.0629C38.9226 55.0629 39.0907 53.8739 39.1327 53.6615C40.6878 45.6356 42.8734 34.5522 44.4284 26.5688C44.6386 25.4647 44.8487 24.3181 45.1009 23.214C45.3951 21.6428 45.4792 19.9442 45.269 18.2881C49.9763 17.184 53.5909 15.8251 57.2054 13.8293C56.1547 19.2648 55.0619 24.8702 54.1372 29.4564L54.2213 29.2441L47.0763 65.9764C46.4879 68.864 45.8995 71.9215 45.269 75.0215ZM66.4098 1.81163C65.9055 1.64177 63.5098 5.2513 61.2402 7.58688L61.1982 7.62935C61.4083 5.80335 61.2822 3.89242 60.862 2.15135C60.7779 1.81163 60.5677 0.75 60.1054 0.75C59.6011 0.75 59.433 1.93902 59.3909 2.15135C58.9286 4.44446 58.4242 6.99237 57.9199 9.62521C48.7575 14.721 39.7632 14.8909 28.5413 17.4388C5.04686 22.8319 1.34827 36.1234 0.759858 40.2001C0.675799 40.8371 1.13812 41.3891 1.81059 41.3891C25.1369 41.4316 40.1414 66.7832 45.5632 82.1556C46.1096 83.5145 46.7401 83.7268 47.0343 82.1132C51.2372 60.8381 55.3141 39.5206 59.433 18.2032C59.8953 15.91 60.3156 13.5745 60.7779 11.2813C63.6359 8.9033 65.9895 5.46363 66.4519 4.14721C66.62 3.72256 67.2504 2.06642 66.4098 1.81163Z" fill="#17181B"/>
<path id="Vector_2" d="M79.397 23.8511C81.9188 23.8511 83.1796 25.125 83.1796 25.125L82.0869 26.4414C82.0869 26.4414 81.1202 25.5921 79.439 25.5921C76.8332 25.5921 75.1941 27.7579 75.1941 30.0085C75.1941 31.8345 76.4129 32.8537 78.01 32.8537C79.5651 32.8537 80.784 31.7496 80.784 31.7496L80.9941 30.603H79.397L79.7332 28.9894H82.9695L81.9188 34.4249H80.3216L80.4057 33.9153C80.4477 33.703 80.4898 33.4907 80.4898 33.4907H80.4477C80.4477 33.4907 79.397 34.5947 77.5057 34.5947C75.152 34.5947 73.1766 32.8961 73.1766 30.1359C73.2607 26.6962 75.9926 23.8511 79.397 23.8511ZM84.7347 34.34L86.1217 31.7071H89.6942L90.0725 34.34H91.9218L90.3667 24.0209H88.2652L82.7173 34.34H84.7347ZM86.8362 30.1784L88.3072 27.4181C88.6014 26.8661 88.9797 25.8045 88.9797 25.8045H89.0217C89.0217 25.8045 89.0638 26.8236 89.1478 27.4181L89.5261 30.1784H86.8362ZM93.1826 34.34H99.445L99.7813 32.7263H95.3262L97.0073 24.0209H95.158L93.1826 34.34ZM100.832 34.34H107.178L107.473 32.7263H102.976L103.522 29.9661H106.968L107.305 28.3524H103.858L104.362 25.6346H108.607L108.944 24.0209H102.849L100.832 34.34ZM109.112 34.34H110.961L111.676 30.4756H113.525L114.828 34.34H116.803L115.416 30.5181C115.29 30.1359 115.164 30.0085 115.164 30.0085V29.9661C116.719 29.4565 117.518 27.9277 117.518 26.5264C117.518 25.4647 117.013 24.6579 116.131 24.2757C115.71 24.1059 115.206 24.0209 114.66 24.0209H111.045L109.112 34.34ZM112.012 28.862L112.642 25.6346H114.323C115.164 25.6346 115.668 26.0593 115.668 26.8236C115.668 28.0976 114.744 28.862 113.651 28.862H112.012ZM118.484 34.34H120.334L122.309 24.0209H120.46L118.484 34.34ZM122.897 34.34H129.244L129.538 32.7263H125.041L125.587 29.9661H129.034L129.37 28.3524H125.924L126.428 25.6346H130.673L131.009 24.0209H124.915L122.897 34.34Z" fill="#17181B"/>
<path id="Vector_3" d="M69.4781 59.1818H73.8072L75.1101 52.2175H81.4986L80.1536 59.1818H84.4406L87.845 41.4314H83.558L82.2131 48.5231H75.8246L77.2116 41.4314H72.9246L69.4781 59.1818Z" fill="#DD1037"/>
<path id="Vector_4" d="M86.5419 59.1816H91.1231L92.8883 55.4447H98.3521L98.7304 59.1816H103.017L100.58 41.4736H95.6623L86.5419 59.1816ZM94.5695 51.9625L96.2507 48.5228C96.797 47.4187 97.5116 45.4654 97.5116 45.4654H97.5536C97.5536 45.4654 97.5956 47.4187 97.7217 48.5228L98.0579 51.9625H94.5695Z" fill="#EA5423"/>
<path id="Vector_5" d="M104.993 59.1816H109.28L110.415 53.194H112.558L114.534 59.1816H119.157L116.887 53.0666C116.635 52.3022 116.425 52.005 116.425 52.005V51.9625C119.115 50.9009 120.081 48.0557 120.081 45.9749C120.081 43.9791 119.115 42.5777 117.476 41.8983C116.719 41.601 115.837 41.4736 114.912 41.4736H108.397L104.993 59.1816ZM111.129 49.4571L111.97 45.1256H113.903C114.996 45.1256 115.71 45.6777 115.71 46.6968C115.71 48.4379 114.492 49.4146 112.979 49.4146H111.129V49.4571Z" fill="#3EAD5A"/>
<path id="Vector_6" d="M121.679 59.1818H125.924L127.227 52.5997H132.564L133.237 48.8628H127.941L128.656 45.1683H135.086L135.759 41.4314H125.041L121.679 59.1818Z" fill="#0092D2"/>
<path id="Vector_7" d="M132.775 59.1816H137.356L139.121 55.4447H144.585L144.963 59.1816H149.25L146.812 41.4736H141.895L132.775 59.1816ZM140.802 51.9625L142.483 48.5228C143.03 47.4187 143.744 45.4654 143.744 45.4654H143.786C143.786 45.4654 143.828 47.4187 143.954 48.5228L144.291 51.9625H140.802Z" fill="#F9B226"/>
</g>
</svg>
