<svg width="124" height="124" viewBox="0 0 124 124" fill="none" xmlns="http://www.w3.org/2000/svg">
<circle cx="62" cy="62" r="54" fill="#7F6DF3"/>
<path d="M66.1508 79.7311C66.1508 82.1031 64.2532 84.0001 61.8818 84.0001C59.5098 84.0001 57.6128 82.1025 57.6128 79.7311C57.6128 77.3592 59.5104 75.4621 61.8818 75.4621C64.2532 75.5404 66.1508 77.4381 66.1508 79.7311ZM61.9606 40.5171C54.5287 40.5171 48.4409 46.5255 48.4409 54.0367C48.4409 56.2504 50.1803 57.9898 52.3939 57.9898C54.6076 57.9898 56.347 56.2504 56.347 54.0367C56.347 50.9534 58.8772 48.4231 61.9606 48.4231C65.0439 48.4231 67.5741 50.9534 67.5741 54.0367C67.5741 55.539 65.0439 56.8829 63.9371 57.3573C63.6999 57.4361 63.4628 57.5944 63.3045 57.7527C59.2726 60.5989 57.2961 65.5005 58.4029 70.3232C58.7983 72.1414 60.4583 73.4065 62.277 73.4065C62.593 73.4065 62.8307 73.4065 63.1467 73.3277C65.2815 72.8534 66.6255 70.7975 66.1511 68.6632C65.8351 67.0822 66.3883 65.4216 67.6534 64.3943C74.5316 61.1526 75.5595 56.5671 75.5595 54.0375C75.4801 46.5257 69.3922 40.5173 61.9605 40.5173L61.9606 40.5171Z" fill="white"/>
</svg>
