<svg width="124" height="124" viewBox="0 0 124 124" fill="none" xmlns="http://www.w3.org/2000/svg">
<circle cx="62" cy="62" r="54" fill="#D66EB8"/>
<path d="M66.1585 66.5585H58.3746L56.5678 62.3884H63.865C65.1856 62.3884 66.4363 61.4848 66.6446 60.1643C66.9224 58.4963 65.6024 57.0371 64.0037 57.0371L56.2896 57.0376C56.2896 57.0376 53.7183 54.6049 52.4671 53.4934C50.6604 51.8253 48.9923 51.3391 47.0464 51.9645C45.5867 52.3814 44.4054 53.4241 43.7801 54.7441C43.1547 56.0646 43.0849 57.6629 43.7108 59.0527L48.7844 71.284C49.3404 72.5346 50.5912 73.369 51.9116 73.369H63.7258C64.2126 73.369 64.6294 73.5774 64.9072 73.925L72.0653 82.8898C72.1347 82.9591 72.2045 83.0982 72.3431 83.1676L72.3436 76.0099C72.3436 75.037 72.6214 74.064 73.0388 73.2303L68.7301 67.8096C68.1736 67.0446 67.2007 66.5584 66.1584 66.5584L66.1585 66.5585Z" fill="white"/>
<path d="M63.1007 77.6777C62.6838 77.191 62.1278 76.9132 61.4326 76.9132L51.5642 76.9137C48.9929 76.9137 46.7688 75.3848 45.796 73.0221L37.8734 54.0495C36.9698 51.8953 34.5377 50.7138 32.3135 51.4086C31.0629 51.7561 30.0202 52.6592 29.4641 53.8412C28.9085 55.0226 28.8387 56.4124 29.3254 57.5937L40.7921 85.1143C41.4872 86.7823 43.1548 87.8939 44.9621 87.8939H66.9925C67.8263 87.8939 68.5907 87.4072 68.9384 86.6432C69.2859 85.8787 69.1468 85.0449 68.6606 84.3498L63.1007 77.6777Z" fill="white"/>
<path d="M47.1363 40.3082C49.8544 41.8173 50.8342 45.2441 49.3246 47.9622C47.8151 50.6798 44.3883 51.6596 41.6706 50.15C38.953 48.641 37.9733 45.2142 39.4823 42.496C40.9919 39.7784 44.4187 38.7987 47.1363 40.3082Z" fill="white"/>
<path d="M92.4976 73.5079H89.9263V72.6741C89.9263 70.9367 88.5365 69.5469 86.7991 69.5469H83.8803C82.1428 69.5469 80.753 70.9367 80.753 72.6741V73.5079H78.1818C76.792 73.5079 75.6799 74.62 75.6799 76.0098V85.392C75.6799 86.7818 76.792 87.8939 78.1818 87.8939H92.4981C93.8879 87.8939 94.9999 86.7818 94.9999 85.392L94.9994 76.0098C94.9994 74.62 93.8874 73.5079 92.4976 73.5079H92.4976ZM87.6329 73.5079H83.046V72.6741C83.046 72.2572 83.3936 71.8403 83.8799 71.8403H86.7987C87.2156 71.8403 87.6325 72.1879 87.6325 72.6741L87.6329 73.5079Z" fill="white"/>
<path d="M79.8493 57.5237C85.4784 57.5237 90.0652 52.9368 90.0652 47.3078C90.0652 41.6787 85.4784 37.0918 79.8493 37.0918C74.2197 37.0918 69.6333 41.7481 69.6333 47.3776C69.6333 53.0067 74.2197 57.5239 79.8493 57.5239V57.5237ZM79.8493 40.0106C83.8801 40.0106 87.2158 43.277 87.2158 47.3771C87.2158 51.4773 83.9494 54.7436 79.8493 54.7436C75.7486 54.7441 72.4823 51.4079 72.4823 47.3776C72.4823 43.3468 75.7486 40.0106 79.8493 40.0106Z" fill="white"/>
<path d="M78.8764 50.2267H82.4206C83.1851 50.2267 83.8104 49.6014 83.8104 48.8369C83.8104 48.0724 83.185 47.4471 82.4206 47.4471H80.2663V44.0417C80.2663 43.2772 79.641 42.6519 78.8765 42.6519C78.1121 42.6519 77.4867 43.2772 77.4867 44.0417V48.837C77.4174 49.6015 78.1126 50.2268 78.8765 50.2268L78.8764 50.2267Z" fill="white"/>
</svg>
