<svg width="124" height="124" viewBox="0 0 124 124" fill="none" xmlns="http://www.w3.org/2000/svg">
<circle cx="62" cy="62" r="54" fill="#F36F6A"/>
<path fill-rule="evenodd" clip-rule="evenodd" d="M57.0773 66.4087C57.3587 70.5932 60.0746 71.5596 60.0824 74.7698C60.0932 79.1392 54.3079 79.1353 54.0253 74.9115C53.8512 72.3142 56.6839 70.6504 57.0773 66.4087V66.4087ZM40 63.9763C40.1513 51.9761 49.9242 42.2939 61.9603 42.2939C73.9965 42.2939 83.77 51.9761 83.9206 63.9763H40ZM56.0472 40.2666V32H67.8734V40.2671C64.0262 39.1938 59.8935 39.1938 56.0472 40.2667V40.2666ZM47.2556 79.6352C47.5373 83.8197 50.2533 84.7865 50.2607 87.9967C50.2719 92.3661 44.4862 92.3618 44.2035 88.1384C44.0299 85.5411 46.8626 83.8773 47.2556 79.6352V79.6352ZM76.7191 79.6352C77.0005 83.8197 79.7168 84.7865 79.7247 87.9967C79.735 92.3661 73.9501 92.3618 73.6675 88.1384C73.4935 85.5411 76.3266 83.8773 76.7191 79.6352V79.6352ZM66.8977 79.6352C67.1791 83.8197 69.8954 84.7865 69.9033 87.9967C69.9141 92.3661 64.1287 92.3618 63.8457 88.1384C63.6721 85.5411 66.5052 83.8773 66.8977 79.6352V79.6352ZM57.0768 79.6352C57.3581 83.8197 60.074 84.7865 60.0819 87.9967C60.0927 92.3661 54.3073 92.3618 54.0247 88.1384C53.8507 85.5411 56.6834 83.8773 57.0768 79.6352V79.6352ZM47.2554 66.4077C47.5371 70.5921 50.2531 71.5586 50.2605 74.7687C50.2717 79.1381 44.4859 79.1343 44.2033 74.9105C44.0297 72.3131 46.8624 70.6493 47.2554 66.4077V66.4077ZM76.7189 66.4077C77.0003 70.5921 79.7166 71.5586 79.7245 74.7687C79.7348 79.1381 73.9499 79.1343 73.6673 74.9105C73.4933 72.3131 76.3264 70.6493 76.7189 66.4077V66.4077ZM66.8975 66.4077C67.1789 70.5921 69.8952 71.5586 69.9031 74.7687C69.9138 79.1381 64.1285 79.1343 63.8455 74.9105C63.6719 72.3131 66.505 70.6493 66.8975 66.4077V66.4077Z" fill="white"/>
</svg>
