<svg width="124" height="124" viewBox="0 0 124 124" fill="none" xmlns="http://www.w3.org/2000/svg">
<circle cx="62" cy="62" r="54" fill="#595BA3"/>
<path d="M57.7572 77.2372C60.5014 76.6041 62.8759 75.1266 64.67 73.0685L63.1925 69.5329C61.8732 71.7493 59.6568 73.438 57.0183 74.0186C51.7942 75.2322 46.517 71.9602 45.3032 66.6831C44.4588 63.0418 45.7781 59.4007 48.4166 57.1316L48.311 53.1738C43.4561 55.9707 40.7649 61.6699 42.0842 67.4219C43.72 74.4404 50.7386 78.8204 57.7571 77.2372H57.7572Z" fill="white"/>
<path d="M55.9629 47.8967H54.2215C53.2718 47.8967 52.4274 48.2663 51.7938 48.952C51.1607 49.6382 50.7911 50.4822 50.8441 51.4323L51.0551 61.0365C51.0551 62.0392 51.5299 62.9889 52.3743 63.6224C53.1657 64.2555 54.2215 64.4668 55.2238 64.2555L62.9814 62.4614L67.2557 72.8572C67.7306 73.9656 68.8915 74.546 69.9999 74.2821C70.1056 74.2295 70.2638 74.2295 70.3695 74.1765C71.5831 73.6486 72.1636 72.2767 71.6887 71.0631L67.0448 59.7702C66.3587 58.1344 64.6172 57.2373 62.8761 57.6065L59.7624 58.2396L59.6041 54.3875L60.4485 54.8623C60.9234 55.1262 61.4513 55.1789 61.9787 55.0732L65.8309 54.1762C66.9918 53.9122 67.7306 52.7513 67.4666 51.5376C67.2027 50.324 66.0417 49.6379 64.8281 49.9019L61.7674 50.588C61.7674 50.588 58.4957 48.7408 58.0205 48.4773C57.6513 48.3187 56.7542 47.8965 55.9628 47.8965L55.9629 47.8967Z" fill="white"/>
<path d="M59.7831 41.1489C60.1001 43.8117 58.1985 46.2268 55.5361 46.5438C52.8736 46.8607 50.4581 44.9591 50.1412 42.2967C49.8243 39.6342 51.7258 37.2191 54.3883 36.9022C57.0508 36.5853 59.4662 38.4864 59.7831 41.1489Z" fill="white"/>
<path d="M81.9789 74.3348L41.2927 83.9918C39.5513 84.414 39.8151 86.9999 41.6623 86.9999H82.3484C83.1929 86.9999 83.8786 86.3138 83.8786 85.4697L83.8782 75.8127C83.8256 74.8627 82.9285 74.1239 81.9785 74.3352L81.9789 74.3348Z" fill="white"/>
</svg>
