<svg width="124" height="124" viewBox="0 0 124 124" fill="none" xmlns="http://www.w3.org/2000/svg">
<circle cx="62" cy="62" r="54" fill="#3795BB"/>
<path fill-rule="evenodd" clip-rule="evenodd" d="M62.6559 37.0615C62.4354 36.9804 62.1935 36.9795 61.9724 37.059L34.6616 46.8798C34.2647 47.0226 34 47.399 34 47.8208V51.2087C34 51.7609 34.4477 52.2087 35 52.2087H89C89.5523 52.2087 90 51.7609 90 51.2087V47.8155C90 47.3963 89.7386 47.0216 89.3452 46.8769L62.6559 37.0615ZM90 83.7541C90 83.2018 89.5523 82.7541 89 82.7541H35C34.4477 82.7541 34 83.2018 34 83.7541V86.845C34 87.3973 34.4477 87.845 35 87.845H89C89.5523 87.845 90 87.3973 90 86.845V83.7541Z" fill="white"/>
<path fill-rule="evenodd" clip-rule="evenodd" d="M84.909 53.4813H39.0908V81.4813H84.909V53.4813ZM55.7729 57H49.9999V78H54.5404V64.2803H54.7242L60.4539 77.8975H63.5458L69.2756 64.3315H69.4593V78H73.9999V57H68.2269L62.1296 71.1094H61.8701L55.7729 57Z" fill="white"/>
</svg>
