<svg width="124" height="124" viewBox="0 0 124 124" fill="none" xmlns="http://www.w3.org/2000/svg">
<circle cx="62" cy="62" r="54" fill="#809CDA"/>
<path fill-rule="evenodd" clip-rule="evenodd" d="M61.5 34L62.7799 36.0944L67.5357 43.8766H84.1905C85.8473 43.8766 87.1905 45.2197 87.1905 46.8766V74.8766C87.1905 76.5334 85.8473 77.8766 84.1905 77.8766H77.0089L81.3855 88.4252C81.703 89.1904 81.34 90.068 80.5748 90.3855C79.8096 90.703 78.932 90.34 78.6145 89.5748L73.761 77.8766H50.239L45.3855 89.5748C45.068 90.34 44.1904 90.703 43.4252 90.3855C42.66 90.068 42.297 89.1904 42.6145 88.4252L46.9911 77.8766H40C38.3431 77.8766 37 76.5334 37 74.8766V46.8766C37 45.2197 38.3431 43.8766 40 43.8766H55.4643L60.2201 36.0944L61.5 34ZM61.5 39.7532L64.0199 43.8766H58.9801L61.5 39.7532ZM84.1905 46.8766H40V74.8766H84.1905L84.1905 46.8766ZM42.6667 71.21V65.0207C42.6667 64.622 42.9036 64.2613 43.2696 64.103L47.5149 62.2661C48.5515 61.8175 49.7295 61.8282 50.7579 62.2954L57.7778 65.4847L71.8322 58.5189C72.9514 57.9642 74.2655 57.9642 75.3848 58.5189L80.9679 61.2861C81.3084 61.4549 81.5238 61.8021 81.5238 62.1821V71.21C81.5238 71.7623 81.0761 72.21 80.5238 72.21H43.6667C43.1144 72.21 42.6667 71.7623 42.6667 71.21ZM53.1905 57.6385C54.5317 57.6385 55.619 56.5512 55.619 55.21C55.619 53.8687 54.5317 52.7814 53.1905 52.7814C51.8492 52.7814 50.7619 53.8687 50.7619 55.21C50.7619 56.5512 51.8492 57.6385 53.1905 57.6385Z" fill="white"/>
</svg>
