<svg width="124" height="124" viewBox="0 0 124 124" fill="none" xmlns="http://www.w3.org/2000/svg">
<circle cx="62" cy="62" r="54" fill="#9E86B3"/>
<path d="M61.8809 68.152L69.8762 63.6849L61.8809 59.2188V68.152Z" fill="white"/>
<path d="M81.5589 63.6843C81.5589 54.6462 74.2336 47.3198 65.1945 47.3198C56.1564 47.3198 48.8301 54.6452 48.8301 63.6843C48.8301 72.7233 56.1569 80.0487 65.1945 80.0487C74.233 80.0477 81.5589 72.7223 81.5589 63.6843ZM71.6432 64.2915L61.5241 69.9445C61.4182 70.0038 61.3012 70.0329 61.1843 70.0329C61.0624 70.0329 60.9406 70.0008 60.8323 69.9368C60.6192 69.8115 60.4886 69.5833 60.4886 69.3368V58.0322C60.4886 57.786 60.6197 57.5569 60.8323 57.4321C61.0454 57.3069 61.3085 57.304 61.5241 57.4244L71.6432 63.076C71.8631 63.1993 72 63.4318 72 63.6838C72.0005 63.9357 71.8631 64.1682 71.6432 64.2915Z" fill="white"/>
<path d="M34.2838 54.0789C35.9174 54.0648 37.4556 53.5634 38.6169 52.6638C39.4727 52.0007 40.0489 51.1774 40.3149 50.2784C40.347 50.2337 40.379 50.1885 40.4013 50.1352L48.7063 29.83L50.9127 37.7282C50.9981 38.036 51.2782 38.237 51.5821 38.237C51.6443 38.237 51.7074 38.2287 51.77 38.2108C52.1404 38.1079 52.3569 37.7234 52.253 37.3535L49.5001 27.5004C49.4957 27.4863 49.4855 27.4766 49.4812 27.463C49.4651 27.4169 49.4409 27.3766 49.4156 27.3349C49.3933 27.2975 49.3734 27.2606 49.3448 27.2286C49.3171 27.197 49.2836 27.1737 49.2496 27.148C49.2108 27.1174 49.1729 27.0888 49.1287 27.0664C49.1156 27.0601 49.1074 27.0489 49.0938 27.0436C49.0666 27.0324 49.0394 27.0354 49.0122 27.0281C48.9651 27.015 48.918 27.0028 48.868 27.0004C48.8214 26.9985 48.7777 27.0038 48.7321 27.0111C48.702 27.0155 48.6729 27.0096 48.6423 27.0179C48.6277 27.0222 48.6171 27.0334 48.6025 27.0383C48.5588 27.0538 48.5205 27.0766 48.4802 27.1004C48.4423 27.1232 48.4035 27.1441 48.3709 27.1737C48.3394 27.2014 48.3161 27.2358 48.2894 27.2689C48.2593 27.3072 48.2311 27.3441 48.2093 27.3888C48.203 27.4019 48.1913 27.4101 48.1855 27.4242L40.0417 47.3342C39.1232 45.524 36.8668 44.2365 34.2037 44.237C30.7609 44.2656 27.9778 46.4953 28.0001 49.209C28.0225 51.8939 30.8108 54.0785 34.2167 54.0785C34.2186 54.078 34.2813 54.078 34.2837 54.078L34.2838 54.0789ZM34.2168 53.3808V53.3828V53.3808Z" fill="white"/>
<path d="M96.6182 79.8609L93.8653 70.0088C93.8609 69.9942 93.8507 69.985 93.8464 69.9714C93.8303 69.9253 93.8061 69.885 93.7808 69.8432C93.7585 69.8059 93.7386 69.769 93.7099 69.7374C93.6813 69.7054 93.6473 69.6816 93.6124 69.6544C93.574 69.6253 93.5381 69.5966 93.4939 69.5758C93.4808 69.5694 93.4726 69.5578 93.4575 69.552C93.4289 69.5403 93.3997 69.5427 93.3711 69.5359C93.3264 69.5233 93.2828 69.5131 93.2352 69.5102C93.1857 69.5068 93.1391 69.5131 93.091 69.5209C93.0624 69.5253 93.0347 69.519 93.006 69.5272C92.9915 69.5316 92.9818 69.5418 92.9677 69.5466C92.9225 69.5622 92.8827 69.5864 92.841 69.6107C92.8036 69.6335 92.7667 69.6539 92.7347 69.683C92.7026 69.7107 92.6784 69.7457 92.6517 69.7806C92.6225 69.819 92.5939 69.8544 92.5735 69.8976C92.5667 69.9117 92.5555 69.9199 92.5492 69.9345L84.4073 89.8432C83.4888 88.0326 81.2315 86.7456 78.5684 86.7456C75.1261 86.7747 72.343 89.0044 72.3654 91.7175C72.3867 94.4025 75.1756 96.5861 78.5806 96.5861H78.6485C80.2825 96.573 81.8214 96.0706 82.9826 95.171C83.8379 94.5084 84.4142 93.685 84.6802 92.7864C84.7127 92.7418 84.7447 92.6961 84.7666 92.6422L93.0711 72.3383L95.278 80.2366C95.3634 80.5434 95.6435 80.7448 95.9474 80.7448C96.01 80.7448 96.0726 80.7366 96.1362 80.7191C96.5056 80.6157 96.7221 80.2312 96.6183 79.8613L96.6182 79.8609ZM78.5811 95.886V95.888V95.886Z" fill="white"/>
<path d="M39.7667 74.3219H37.2181V71.7743C37.2181 71.3893 36.9064 71.0781 36.5219 71.0781C36.1379 71.0781 35.8258 71.3893 35.8258 71.7743V74.3219H33.2782C32.8942 74.3219 32.582 74.633 32.582 75.018C32.582 75.403 32.8937 75.7141 33.2782 75.7141H35.8268V78.2618C35.8268 78.6467 36.1384 78.9579 36.5229 78.9579C36.9069 78.9579 37.219 78.6467 37.219 78.2618V75.7141H39.7677C40.1516 75.7141 40.4638 75.403 40.4638 75.018C40.4633 74.6326 40.1507 74.3219 39.7667 74.3219H39.7667Z" fill="white"/>
<path d="M65.787 34.9925H68.3346V37.5401C68.3346 37.9241 68.6457 38.2362 69.0307 38.2362C69.4157 38.2362 69.7268 37.9246 69.7268 37.5401V34.9925H72.2755C72.6604 34.9925 72.9716 34.6808 72.9716 34.2963C72.9716 33.9123 72.6604 33.6002 72.2755 33.6002H69.7268V31.0531C69.7268 30.6691 69.4157 30.3569 69.0307 30.3569C68.6457 30.3569 68.3346 30.6686 68.3346 31.0531V33.6007H65.787C65.402 33.6007 65.0908 33.9123 65.0908 34.2968C65.0908 34.6808 65.403 34.9925 65.787 34.9925V34.9925Z" fill="white"/>
<path d="M54.0792 83.8351H51.5306V81.2874C51.5306 80.9025 51.2189 80.5913 50.8344 80.5913C50.4505 80.5913 50.1383 80.9025 50.1383 81.2874V83.8351H47.5897C47.2057 83.8351 46.8936 84.1462 46.8936 84.5312C46.8936 84.9162 47.2052 85.2273 47.5897 85.2273H50.1383V87.775C50.1383 88.1599 50.45 88.4711 50.8344 88.4711C51.2184 88.4711 51.5306 88.1599 51.5306 87.775V85.2273H54.0792C54.4632 85.2273 54.7753 84.9162 54.7753 84.5312C54.7753 84.1462 54.4637 83.8351 54.0792 83.8351Z" fill="white"/>
<path d="M80.0765 45.6282H82.6236V48.1758C82.6236 48.5598 82.9348 48.872 83.3198 48.872C83.7047 48.872 84.0159 48.5603 84.0159 48.1758V45.6282H86.565C86.95 45.6282 87.2612 45.3166 87.2612 44.9321C87.2612 44.5481 86.95 44.2359 86.565 44.2359L84.0154 44.2364V41.6888C84.0154 41.3048 83.7042 40.9927 83.3193 40.9927C82.9343 40.9927 82.6231 41.3043 82.6231 41.6888V44.2364H80.076C79.6911 44.2364 79.3799 44.5481 79.3799 44.9326C79.3809 45.3165 79.6915 45.6282 80.0765 45.6282L80.0765 45.6282Z" fill="white"/>
</svg>
