<svg width="124" height="124" viewBox="0 0 124 124" fill="none" xmlns="http://www.w3.org/2000/svg">
<circle cx="62" cy="62" r="54" fill="#FFB831"/>
<path d="M42.2705 59.8947C42.2705 57.1914 44.164 55 46.4998 55C48.8356 55 50.7295 57.1914 50.7295 59.8947C50.7295 60.7863 50.5235 61.6222 50.1637 62.3421C48.9166 64.9692 49.8434 68.3366 51.0767 71.9334C51.5472 73.3054 51.8471 74.7452 51.955 76.2105C51.9848 76.616 52 77.0234 52 77.4319C52 78.6738 51.8684 79.9107 51.5835 81.1053C51.5383 81.2946 51.4893 81.4829 51.4363 81.6699C51.1298 82.7526 50.7405 84.0611 50.379 85.0805C50.1763 85.6523 49.6869 86 49.153 86H43.847C43.3131 86 42.8237 85.6523 42.621 85.0805C42.2595 84.0611 41.8702 82.7526 41.5637 81.6699C41.5107 81.4829 41.4617 81.2946 41.4165 81.1053C41.1316 79.9107 41 78.6738 41 77.4319C41 77.0234 41.0152 76.616 41.045 76.2105C41.1529 74.7452 41.4528 73.3054 41.9233 71.9334C43.1566 68.3366 44.0834 64.9692 42.8363 62.3421C42.4765 61.6222 42.2705 60.7863 42.2705 59.8947Z" fill="white"/>
<path d="M73.2705 59.8947C73.2705 57.1914 75.164 55 77.4998 55C79.8356 55 81.7295 57.1914 81.7295 59.8947C81.7295 60.7863 81.5235 61.6222 81.1637 62.3421C79.9166 64.9692 80.8434 68.3366 82.0767 71.9334C82.5472 73.3054 82.8471 74.7452 82.955 76.2105C82.9848 76.616 83 77.0234 83 77.4319C83 78.6738 82.8684 79.9107 82.5835 81.1053C82.5383 81.2946 82.4893 81.4829 82.4363 81.6699C82.1298 82.7526 81.7405 84.0611 81.379 85.0805C81.1763 85.6523 80.6869 86 80.153 86H74.847C74.3131 86 73.8237 85.6523 73.621 85.0805C73.2595 84.0611 72.8702 82.7526 72.5637 81.6699C72.5107 81.4829 72.4617 81.2946 72.4165 81.1053C72.1316 79.9107 72 78.6738 72 77.4319C72 77.0234 72.0152 76.616 72.045 76.2105C72.1529 74.7452 72.4528 73.3054 72.9233 71.9334C74.1566 68.3366 75.0834 64.9692 73.8363 62.3421C73.4765 61.6222 73.2705 60.7863 73.2705 59.8947Z" fill="white"/>
<path d="M56.617 45.5789C56.617 41.3932 59.0269 38 61.9997 38C64.9725 38 67.383 41.3932 67.383 45.5789C67.383 46.9594 67.1209 48.2537 66.6629 49.3684C65.0756 53.4362 66.2552 58.6502 67.8249 64.2194C68.4237 66.3439 68.8054 68.5733 68.9427 70.8421C68.9807 71.4699 69 72.1008 69 72.7332C69 74.6562 68.8325 76.5714 68.4698 78.4211C68.4124 78.7142 68.35 79.0058 68.2826 79.2954C67.8925 80.9717 67.397 82.9978 66.9369 84.5763C66.6789 85.4616 66.0561 86 65.3765 86H58.6235C57.9439 86 57.3211 85.4616 57.0631 84.5763C56.603 82.9978 56.1075 80.9717 55.7174 79.2954C55.65 79.0058 55.5876 78.7142 55.5302 78.4211C55.1675 76.5714 55 74.6562 55 72.7332C55 72.1008 55.0193 71.4699 55.0573 70.8421C55.1946 68.5733 55.5763 66.3439 56.1751 64.2194C57.7448 58.6502 58.9244 53.4362 57.3371 49.3684C56.8791 48.2537 56.617 46.9594 56.617 45.5789Z" fill="white"/>
</svg>
