<svg width="124" height="124" viewBox="0 0 124 124" fill="none" xmlns="http://www.w3.org/2000/svg">
<circle cx="62" cy="62" r="54" fill="#F36F6A"/>
<path d="M82.1083 72.4881C83.0097 72.6004 83.9154 72.3131 84.5865 71.7009C85.0056 71.3713 85.2743 70.8871 85.3324 70.3572C85.2743 69.8273 85.0056 69.3431 84.5865 69.0135L79.9774 64.4053L75.4035 68.9791V68.9796C74.9668 69.314 74.6843 69.8111 74.6191 70.3571C74.6772 70.887 74.9459 71.3712 75.365 71.7008C76.0371 72.3134 76.9442 72.6012 77.8465 72.488C78.1538 72.4875 78.4463 72.6202 78.6489 72.8514C78.8516 73.083 78.9443 73.3903 78.9034 73.6952C78.8587 74.0267 78.8297 74.4082 78.7968 74.8087C78.7545 75.8266 78.5914 76.8359 78.3112 77.8153H81.6451C81.3635 76.8359 81.1999 75.8266 81.1571 74.8087C81.1262 74.4082 81.0976 74.0267 81.0505 73.6952C81.0096 73.3903 81.1024 73.0826 81.305 72.8514C81.5076 72.6198 81.8006 72.4875 82.1084 72.488L82.1083 72.4881Z" fill="white"/>
<path d="M73.5537 43.7202H50.1133V79.9463H66.0954V64.7107L61.8335 68.5977L55.8197 63.1167C54.9055 62.3033 54.3804 61.1399 54.3752 59.916C54.3771 58.6916 54.9051 57.5273 55.8254 56.7196C56.6407 56.0061 57.662 55.5699 58.7412 55.4739C59.8209 55.3783 60.9031 55.628 61.8315 56.1869C63.1225 55.4344 64.6754 55.2746 66.0934 55.7479V53.3101H73.5518L73.5537 43.7202Z" fill="white"/>
<path d="M55.4404 32H32V68.2261H47.9821V55.6925L45.7446 60.1789C45.5643 60.5409 45.1952 60.7692 44.7909 60.7692C44.3871 60.7692 44.0175 60.5409 43.8372 60.1789L38.5099 49.5242C38.36 49.2245 38.36 48.8716 38.5099 48.5719L43.8372 37.9172C44.0375 37.5814 44.3999 37.3754 44.7909 37.3754C45.1819 37.3754 45.5444 37.5814 45.7446 37.9172L47.9821 42.4036V41.5898H55.4404V32ZM36.2619 66.0952H34.1309V63.9642H36.2619V66.0952ZM40.5238 36.2619H36.2619V40.5238H34.1309V34.1309H40.5238V36.2619ZM53.3095 36.2619H51.1785V34.1309H53.3095V36.2619Z" fill="white"/>
<path d="M62.5515 58.295L61.8333 58.949L61.1151 58.295C60.5785 57.8331 59.8936 57.5791 59.1858 57.5791C58.4775 57.5791 57.793 57.8331 57.256 58.295C56.7841 58.7021 56.5106 59.2924 56.5059 59.9156C56.5116 60.5411 56.7827 61.1342 57.2517 61.548L61.8332 65.7191L66.0951 61.8334V58.0639C65.5529 57.7309 64.9212 57.5744 64.2866 57.6158C63.6516 57.6572 63.0457 57.8945 62.5514 58.295L62.5515 58.295Z" fill="white"/>
<path d="M40.6494 49.0475L44.7858 57.3197L47.9822 50.9269V47.1682L44.7858 40.7754L40.6494 49.0475Z" fill="white"/>
<path d="M68.2256 55.4404V91.6665H91.666V55.4404H68.2256ZM70.3565 57.5714H76.7494V59.7023H72.4875V63.9642H70.3565V57.5714ZM74.6494 78.8809C74.6494 78.2925 75.1264 77.8154 75.7148 77.8154C76.4264 77.8154 76.5748 75.907 76.6738 74.6437C76.6738 74.6161 76.679 74.5871 76.6814 74.5595C75.6506 74.4401 74.6864 73.9896 73.9335 73.2752C73.0231 72.5812 72.489 71.502 72.489 70.357C72.489 69.212 73.0232 68.1328 73.9335 67.4388L79.2257 62.1457V62.1452C79.6414 61.7295 80.3159 61.7295 80.7321 62.1452L86.0595 67.4726C86.9185 68.1894 87.4308 69.2387 87.467 70.357C87.4247 71.4924 86.8976 72.5551 86.0191 73.2752C85.2661 73.9896 84.3019 74.4401 83.2712 74.5595L83.2774 74.6437C83.3754 75.9075 83.5233 77.8154 84.2363 77.8154C84.8252 77.8154 85.3018 78.2925 85.3018 78.8809C85.3018 79.4692 84.8252 79.9463 84.2363 79.9463H75.7126C75.1251 79.9454 74.6495 79.4683 74.6495 78.8809L74.6494 78.8809ZM89.5356 89.5356H83.1427V87.4046H87.4046V83.1427H89.5356V89.5356ZM89.5356 59.7023H87.4046V57.5714H89.5356V59.7023Z" fill="white"/>
</svg>
