<svg width="124" height="124" viewBox="0 0 124 124" fill="none" xmlns="http://www.w3.org/2000/svg">
<circle cx="62" cy="62" r="54" fill="#F36F6A"/>
<path d="M87.7803 33.0001C84.9014 33.0001 82.5595 35.3447 82.5595 38.2269C82.5595 40.2618 83.7297 42.0245 85.4295 42.8874L85.429 59.6473H81.694V54.8118C81.694 54.4008 81.3608 54.0668 80.9499 54.0668H78.8312L78.8317 33.7453C78.8317 33.3344 78.4986 33.0003 78.0876 33.0003H35.5032C35.0927 33.0003 34.759 33.3339 34.759 33.7453L34.7596 84.0303H32.7441C32.3337 84.0303 32 84.3638 32 84.7753V90.255C32 90.6659 32.3331 91 32.7441 91H80.8467C81.2572 91 81.5908 90.6665 81.5908 90.255L81.5903 84.7747C81.5903 84.3638 81.2572 84.0298 80.8462 84.0298H78.8308L78.8313 69.9338H80.9499C81.3604 69.9338 81.694 69.6002 81.694 69.1888V64.3532H89.3868C89.7972 64.3532 90.1309 64.0197 90.1309 63.6083L90.1304 42.8878C91.8298 42.0244 93 40.2617 93 38.2268C93 35.3445 90.6582 33 87.7793 33L87.7803 33.0001ZM45.7365 37.7639H67.8543C68.2648 37.7639 68.5984 38.0975 68.5984 38.5089C68.5984 38.9198 68.2653 39.2539 67.8543 39.2539L45.7365 39.2534C45.326 39.2534 44.9924 38.9199 44.9924 38.5084C44.9924 38.0975 45.3255 37.7639 45.7365 37.7639V37.7639ZM45.7365 41.651H67.8543C68.2648 41.651 68.5984 41.9845 68.5984 42.3959C68.5984 42.8069 68.2653 43.1409 67.8543 43.1409L45.7365 43.1404C45.326 43.1404 44.9924 42.8069 44.9924 42.3954C44.9924 41.9845 45.3255 41.651 45.7365 41.651ZM45.7365 45.5369H67.8543C68.2648 45.5369 68.5984 45.8704 68.5984 46.2819C68.5984 46.6928 68.2653 47.0269 67.8543 47.0269L45.7365 47.0263C45.326 47.0263 44.9924 46.6928 44.9924 46.2814C44.9924 45.871 45.3255 45.5369 45.7365 45.5369ZM48.9548 71.9348H36.2474V52.0656H48.9537V71.9348H48.9548ZM63.1487 71.9348H50.4423V52.0656H63.1498V71.9348H63.1487ZM77.344 71.9348H64.6365V52.0656H77.344V71.9348Z" fill="white"/>
</svg>
