<svg width="124" height="124" viewBox="0 0 124 124" fill="none" xmlns="http://www.w3.org/2000/svg">
<circle cx="62" cy="62" r="54" fill="#618660"/>
<circle cx="62" cy="62" r="32" stroke="white" stroke-width="4"/>
<path d="M61.0489 40.9271C61.3483 40.0057 62.6517 40.0057 62.9511 40.9271L67.1638 53.8926C67.2977 54.3046 67.6817 54.5836 68.1149 54.5836H81.7477C82.7164 54.5836 83.1192 55.8232 82.3355 56.3926L71.3063 64.4058C70.9558 64.6604 70.8092 65.1118 70.943 65.5238L75.1558 78.4894C75.4551 79.4107 74.4007 80.1768 73.6169 79.6074L62.5878 71.5942C62.2373 71.3396 61.7627 71.3396 61.4122 71.5942L50.3831 79.6074C49.5993 80.1768 48.5449 79.4107 48.8442 78.4894L53.057 65.5238C53.1909 65.1118 53.0442 64.6604 52.6937 64.4058L41.6645 56.3926C40.8808 55.8232 41.2836 54.5836 42.2523 54.5836H55.8851C56.3183 54.5836 56.7023 54.3046 56.8362 53.8926L61.0489 40.9271Z" fill="white"/>
</svg>
