<svg width="124" height="124" viewBox="0 0 124 124" fill="none" xmlns="http://www.w3.org/2000/svg">
<circle cx="62" cy="62" r="54" fill="#63A9F8"/>
<path d="M45.2001 45.1999L58.606 58.6058M78.8001 78.7999L65.3942 65.394M78.7999 45.1999L65.394 58.6058M45.1999 78.7999L58.6058 65.394M58.4 38H62M65.6 38H62M76.4 42.8L81.2 47.6M86 58.4V62M86 65.6V62M38 58.4V62M38 65.6V62M47.6 42.8L42.8 47.6M42.8 76.4L47.6 81.2M58.4 86H62M65.6 86H62M76.4 81.2L81.2 76.4M66.8 62C66.8 60.6745 66.2627 59.4744 65.394 58.6058M66.8 62C66.8 63.3254 66.2628 64.5254 65.3942 65.394M66.8 62H86M62 66.8C60.6745 66.8 59.4744 66.2627 58.6058 65.394M62 66.8C63.3255 66.8 64.5256 66.2627 65.3942 65.394M62 66.8V86M57.2 62C57.2 60.6745 57.7373 59.4744 58.606 58.6058M57.2 62C57.2 63.3254 57.7372 64.5254 58.6058 65.394M57.2 62H38M62 57.2C63.3254 57.2 64.5254 57.7372 65.394 58.6058M62 57.2C60.6746 57.2 59.4746 57.7372 58.606 58.6058M62 57.2V38M76.4 62C76.4 69.9529 69.9529 76.4 62 76.4C54.0471 76.4 47.6 69.9529 47.6 62C47.6 54.0471 54.0471 47.6 62 47.6C69.9529 47.6 76.4 54.0471 76.4 62Z" stroke="white" stroke-width="3" stroke-linecap="round"/>
</svg>
