<svg width="124" height="124" viewBox="0 0 124 124" fill="none" xmlns="http://www.w3.org/2000/svg">
<circle cx="62" cy="62" r="54" fill="#AD7147"/>
<path fill-rule="evenodd" clip-rule="evenodd" d="M70.1998 93.1548C67.912 93.6916 65.2896 94 62.5 94C57.1696 94 52.4486 92.8726 49.5179 91.1822C47.2345 89.8637 46 88.1538 46 86.3965V41.7726C46.6777 42.7066 47.6652 43.578 48.9635 44.3272C49.7335 44.7704 50.6199 45.1787 51.6054 45.5414V60.3275C51.6054 60.9268 52.0985 61.4137 52.7054 61.4137C53.3123 61.4137 53.8054 60.9268 53.8054 60.3275V46.2303C56.3397 46.8995 59.316 47.2928 62.4995 47.2928C68.0588 47.2928 72.9801 46.0917 76.036 44.3275C77.3338 43.5778 78.3219 42.7069 78.9995 41.773V86.3969C78.9995 88.1542 77.7655 89.8641 75.4816 91.1825C74.6036 91.6888 73.5655 92.1451 72.3997 92.534V73.3622C72.3997 72.7628 71.9067 72.2759 71.2997 72.2759C70.6928 72.2759 70.1998 72.7628 70.1998 73.3622V93.1548ZM63.6 82.0518V64.6724C63.6 64.0731 63.1069 63.5862 62.5 63.5862C61.8931 63.5862 61.4 64.0731 61.4 64.6724V82.0518C61.4 82.6511 61.8931 83.138 62.5 83.138C63.1069 83.138 63.6 82.6511 63.6 82.0518ZM51.6059 66.8449V74.1074C51.6059 74.7068 52.099 75.1936 52.7059 75.1936C53.3128 75.1936 53.8059 74.7068 53.8059 74.1074V66.8449C53.8059 66.2455 53.3128 65.7586 52.7059 65.7586C52.099 65.7586 51.6059 66.2455 51.6059 66.8449ZM72.3997 69.0173V62.5C72.3997 61.9007 71.9067 61.4138 71.2997 61.4138C70.6928 61.4138 70.1998 61.9007 70.1998 62.5V69.0173C70.1998 69.6166 70.6928 70.1035 71.2997 70.1035C71.9067 70.1035 72.3997 69.6166 72.3997 69.0173ZM62.5 31C57.1696 31 52.4486 32.1274 49.5179 33.8178C47.2345 35.1363 46 36.8462 46 38.6035C46 40.3608 47.234 42.0706 49.5179 43.3891C52.4481 45.079 57.169 46.2069 62.5 46.2069C67.831 46.2069 72.5514 45.0795 75.4821 43.3891C77.7655 42.0706 79 40.3608 79 38.6035C79 36.8462 77.766 35.1363 75.4821 33.8178C72.5519 32.1279 67.831 31 62.5 31ZM62.5 34.8017C58.8505 34.8017 55.689 35.4903 54.1162 36.4247C53.0668 37.0503 52.6003 37.8518 52.6003 38.6035C52.6003 39.3551 53.0668 40.1567 54.1162 40.7822C55.6891 41.7161 58.8505 42.4052 62.5 42.4052C66.1495 42.4052 69.311 41.7166 70.8838 40.7822C71.9332 40.1567 72.3997 39.3551 72.3997 38.6035C72.3997 37.8518 71.9332 37.0502 70.8838 36.4247C69.3109 35.4908 66.1495 34.8017 62.5 34.8017ZM70.1536 38.6035C70.1075 38.6534 70.0436 38.7184 69.9886 38.762C69.7775 38.923 69.4981 39.0685 69.17 39.2072C67.6654 39.8395 65.2367 40.2328 62.5 40.2328C59.7633 40.2328 57.3345 39.8395 55.8299 39.2072C55.5019 39.068 55.223 38.9225 55.0113 38.762C54.9563 38.7184 54.8925 38.6534 54.8463 38.6035C54.8925 38.5535 54.9563 38.4885 55.0113 38.4449C55.2225 38.2839 55.5019 38.1384 55.8299 37.9997C57.3345 37.3674 59.7633 36.9742 62.5 36.9742C65.2367 36.9742 67.6654 37.3674 69.17 37.9997C69.4981 38.1389 69.777 38.2844 69.9886 38.4449C70.0436 38.4885 70.1075 38.5535 70.1536 38.6035Z" fill="white"/>
</svg>
