<svg width="124" height="124" viewBox="0 0 124 124" fill="none" xmlns="http://www.w3.org/2000/svg">
<circle cx="62" cy="62" r="54" fill="#4274D5"/>
<path fill-rule="evenodd" clip-rule="evenodd" d="M33.3642 43.1747C32.5086 43.7808 32 44.7642 32 45.8128V54.6479V62.7776V71.3352V83.7438C32 84.6365 32.7237 85.3602 33.6164 85.3602C34.5092 85.3602 35.2329 84.6365 35.2329 83.7438V72.9516H48.1644V83.7438C48.1644 84.6365 48.8881 85.3602 49.7808 85.3602C50.6736 85.3602 51.3973 84.6365 51.3973 83.7438V71.3352V62.7776V61.9392C51.5212 61.9644 51.6482 61.9821 51.7777 61.9918C54.356 62.1834 57.1171 62.5498 59.6818 63.8518C62.1534 65.1065 64.6441 67.336 66.4776 71.6506C69.4227 78.5812 78.6921 83.4001 89.1227 82.9732C90.7781 82.9055 92.0652 81.5085 91.9975 79.8531C91.9297 78.1976 90.5328 76.9105 88.8773 76.9783C79.967 77.3429 73.6358 73.1542 71.9997 69.304C69.6286 63.7243 66.1629 60.4131 62.3978 58.5017C58.7257 56.6375 54.9697 56.2124 52.2223 56.0082C51.9392 55.9872 51.6623 56.0062 51.3973 56.0604V54.6509L51.3973 54.6479V50.333C51.6802 50.5281 51.9919 50.7425 52.3236 50.9708L52.3241 50.9711C52.825 51.3157 53.3716 51.6917 53.9339 52.08C55.4574 53.1321 57.1447 54.3074 58.6072 55.3656C60.3928 55.742 62.3189 56.3503 64.223 57.3772C66.5728 58.6445 68.7809 60.4879 70.6639 63.1194C70.7548 63.0909 70.8447 63.0591 70.9276 63.0282C71.1442 62.9476 71.3981 62.8413 71.6578 62.7275C71.8928 62.6245 72.1481 62.5086 72.4084 62.3878L73.3891 68.076C73.4502 68.222 73.5106 68.3695 73.5702 68.5185C74.1392 69.9412 75.3042 71.4047 76.9661 72.6682C77.213 72.3278 77.3276 71.8918 77.2505 71.4446L75.4148 60.7975C75.1375 59.1892 73.399 58.328 71.9577 59.0238C71.4154 59.2856 70.8313 59.5601 70.3605 59.7663C70.1227 59.8705 69.9326 59.949 69.7994 59.9986L69.7793 60.006L68.2524 53.8048L74.5508 44.6531C75.0569 43.9177 74.871 42.9113 74.1356 42.4051C73.4002 41.899 72.3938 42.0849 71.8877 42.8203L65.6112 51.9401C65.5109 51.9518 65.4102 51.9699 65.3096 51.9947L61.8338 52.8505C61.5614 52.9176 61.3111 53.0283 61.0887 53.1733C59.4564 51.9774 57.4863 50.6044 55.7709 49.4198C55.1921 49.0201 54.6488 48.6463 54.1531 48.3053L54.1527 48.305L54.1517 48.3044C53.6719 47.9743 53.2367 47.6749 52.8572 47.4125C52.4757 47.1487 52.1665 46.9332 51.9446 46.7752C51.833 46.6957 51.751 46.6361 51.6962 46.595C51.6825 46.5848 51.672 46.5767 51.6643 46.5708C51.5806 46.4961 51.4911 46.4317 51.3973 46.3775V45.8128C51.3973 44.7642 50.8887 43.7808 50.033 43.1747L43.5673 38.5948C42.4477 37.8017 40.9495 37.8017 39.83 38.5948L33.3642 43.1747ZM48.1644 57.0725H35.2329V61.1612H48.1644V57.0725ZM48.1644 69.7188H35.2329V64.394H48.1644V69.7188ZM65.9452 48.586C65.9452 50.5947 64.3169 52.223 62.3082 52.223C60.2996 52.223 58.6712 50.5947 58.6712 48.586C58.6712 46.5774 60.2996 44.949 62.3082 44.949C64.3169 44.949 65.9452 46.5774 65.9452 48.586ZM80.1897 68.4345L77.7738 66.587L76.7738 60.7868L82.6195 65.257C83.4969 65.928 83.6643 67.1832 82.9933 68.0607C82.3224 68.9381 81.0671 69.1054 80.1897 68.4345Z" fill="white"/>
</svg>
