<svg width="124" height="124" viewBox="0 0 124 124" fill="none" xmlns="http://www.w3.org/2000/svg">
<circle cx="62" cy="62" r="54" fill="#407CD0"/>
<path d="M42.1901 71.1899H42.1909C42.7494 69.502 45.6046 68.2755 47.1099 67.7641L50.7232 66.5366L49.9893 70.8996L49.1744 70.7842L44.1163 86.8668L50.6034 87.9382L52.1937 71.2115L51.2413 71.0768L52.1139 65.8889L54.8646 64.1667V68.9045H53.6001L51.7034 89.9997H63.084L61.1872 68.9045H59.8449L59.3683 61.3477L60.4077 60.6969L63.0573 70.1469L62.5275 70.4046L64.1738 87.8115L71.9355 85.6143L65.6129 68.9042L64.2117 69.5852L61.5238 59.9977L61.6585 59.9135C61.9779 59.7207 62.221 59.4239 62.3472 59.0727C62.4738 58.7215 62.4754 58.3381 62.3521 57.9857C62.188 57.5623 61.8525 57.228 61.4283 57.0655C61.0041 56.9034 60.5311 56.9284 60.1263 57.1344L56.9085 58.8724L58.8908 55.8264C59.0904 55.5054 59.1376 55.1127 59.0198 54.7533C58.9021 54.3941 58.6311 54.1058 58.2799 53.9654C57.7311 53.7425 57.1008 53.9183 56.7468 54.3933L55.3871 56.2276C55.3161 56.3231 55.2319 56.4086 55.1367 56.4804L48.2089 61.9099L44.1702 62.1458C44.1174 62.1494 44.0682 62.1195 44.0472 62.0712C44.0258 62.0232 44.0371 61.9667 44.0754 61.93L48.0158 58.1974C48.4287 57.8405 48.6259 57.2938 48.5351 56.7554C48.4448 56.2171 48.0799 55.7647 47.5726 55.5627C47.0968 55.3695 46.5569 55.4171 46.1222 55.6909L40.2976 59.8252C37.6025 62.3489 36.3629 65.6494 35.2645 68.5328C34.8431 69.4916 34.4214 70.4509 34 71.4098L41.5871 73.9154L42.1901 71.1899ZM56.1297 63.3755L58.1499 62.1109L58.5785 68.9048H56.1297L56.1297 63.3755Z" fill="white"/>
<path d="M76.4517 61.0967C80.0449 61.0967 83.4912 59.6693 86.032 57.1286C88.5727 54.5879 90.0001 51.1415 90.0001 47.5484C90.0001 43.9552 88.5727 40.5089 86.032 37.9681C83.4913 35.4274 80.0449 34 76.4517 34C72.8585 34 69.4122 35.4274 66.8714 37.9681C64.3307 40.5088 62.9033 43.9552 62.9033 47.5484C62.9033 51.1415 64.3307 54.5878 66.8714 57.1286C69.4121 59.6693 72.8585 61.0967 76.4517 61.0967ZM75.7743 57.0322C75.3178 57.0322 74.9061 56.7572 74.7312 56.3354C74.5566 55.9133 74.6529 55.4278 74.9759 55.1048C75.2989 54.7818 75.7844 54.6854 76.2066 54.86C76.6284 55.035 76.9034 55.4467 76.9034 55.9031C76.9034 56.2027 76.7844 56.4898 76.5727 56.7015C76.361 56.9132 76.0739 57.0322 75.7743 57.0322L75.7743 57.0322ZM81.6452 57.0322C81.1888 57.0322 80.7771 56.7572 80.6021 56.3354C80.4275 55.9133 80.5239 55.4278 80.8469 55.1048C81.1699 54.7818 81.6554 54.6854 82.0775 54.86C82.4993 55.035 82.7743 55.4467 82.7743 55.9031C82.7743 56.2027 82.6554 56.4898 82.4437 56.7015C82.232 56.9132 81.9449 57.0322 81.6453 57.0322L81.6452 57.0322ZM67.5942 39.4199H70.3038C70.6954 39.4199 71.0421 39.6719 71.1631 40.0441L72.1337 43.0328H85.0317C85.1769 43.0328 85.3132 43.1025 85.3982 43.2202C85.4829 43.338 85.5059 43.4896 85.4603 43.6271L83.0519 50.8529H83.0515C82.9902 51.0372 82.8176 51.1618 82.6232 51.1618H74.7741L74.8785 51.4835H74.8789C75.0112 51.8347 75.3479 52.0666 75.7229 52.065H82.7741V53.8714H75.7229C75.1624 53.8706 74.6156 53.6968 74.1584 53.3731C73.7007 53.0493 73.3547 52.5916 73.1676 52.0633L69.6471 41.2267H67.5939L67.5942 39.4199Z" fill="white"/>
</svg>
