<svg width="124" height="124" viewBox="0 0 124 124" fill="none" xmlns="http://www.w3.org/2000/svg">
<circle cx="62" cy="62" r="54" fill="#595BA3"/>
<path d="M47.709 47.4434C46.6304 46.3526 45.3329 45.7886 43.7506 45.7886H39.502V87.3427C39.5567 87.7825 39.7171 88.1588 40.0117 88.4435C40.405 88.8202 40.8582 88.9993 41.4832 88.9993C41.5896 88.9993 41.6887 88.9862 41.7882 88.9749C41.8947 88.9849 41.9968 88.9993 42.1098 88.9993C42.7581 88.9993 43.3222 88.7842 43.8371 88.2736C44.3117 87.8077 44.5337 87.2115 44.5337 86.5627L44.5333 71.8158V52.8214H45.5593V59.5797L45.5597 65.0052C45.5597 65.5154 45.7262 65.9825 46.0655 66.3515C46.468 66.7209 46.9416 66.8865 47.4536 66.8865C47.5453 66.8865 47.6278 66.8747 47.7134 66.8673C48.1815 66.823 48.5569 66.6631 48.8446 66.3515C49.1523 65.9826 49.3504 65.5154 49.3504 65.0052V51.3785C49.3517 49.9063 48.8164 48.58 47.7091 47.4441L47.709 47.4434Z" fill="white"/>
<path d="M34.802 45.9185C33.759 45.9185 32.7648 46.2996 31.8044 47.1431C30.8393 47.9535 30.2187 48.8904 29.9349 49.9208C29.4526 51.2674 29.0597 52.6625 28.633 54.1104C28.357 55.0529 28.0924 55.9498 27.8386 56.809C27.7039 57.2631 27.5718 57.7094 27.4445 58.1383C27.0751 59.3595 26.7665 60.4097 26.5406 61.2575C26.3411 62.1093 26.1703 62.6125 26.1139 62.7585C26.0287 62.9293 26 63.0992 26 63.306C26 64.06 26.3976 64.5958 27.2212 64.8948L27.6714 65.0051C27.73 65.0051 27.7835 64.9982 27.8391 64.9947C28.6209 64.9434 29.1289 64.5397 29.3665 63.748C29.3996 63.4681 29.6785 62.6529 30.1053 61.3714C30.4742 60.0695 30.9001 58.7232 31.2895 57.2952C31.3973 56.9345 31.512 56.5499 31.6354 56.141C31.924 55.1793 32.2542 54.0751 32.6206 52.8218C32.7153 52.4972 32.8126 52.1656 32.9122 51.8202H33.9303L32.6262 56.2253L31.6358 59.5719L28.0121 71.8157H33.6987V87.001C33.6987 87.5928 33.8973 88.0874 34.3192 88.4446C34.6482 88.7562 35.0575 88.9248 35.5247 88.9765C35.6233 88.9878 35.7202 89 35.8245 89C36.4164 89 36.8996 88.8218 37.2682 88.4442C37.5315 88.1895 37.7019 87.861 37.7801 87.4812V67.0017L37.7788 45.9193L34.802 45.9185Z" fill="white"/>
<path d="M35.2225 37.2712C34.379 38.1147 33.9814 39.1372 33.9814 40.3296C33.9814 41.5829 34.3795 42.6211 35.2225 43.4571C35.9009 44.1559 36.7661 44.5392 37.7782 44.6378V36C36.7665 36.1091 35.9005 36.531 35.2225 37.2711V37.2712Z" fill="white"/>
<path d="M43.2925 40.3293C43.2925 39.1369 42.8632 38.1149 42.0193 37.2709C41.3092 36.5439 40.4575 36.1254 39.501 36.0068V44.6303C40.4574 44.5238 41.3087 44.1431 42.0193 43.4561C42.8623 42.6217 43.2925 41.5831 43.2925 40.3295V40.3293Z" fill="white"/>
<path d="M58.5924 85.4705C58.0154 85.4705 57.5488 85.0026 57.5488 84.427V37.0435C57.5488 36.4666 58.0161 36 58.5924 36C59.1693 36 59.6359 36.4672 59.6359 37.0435V84.427C59.6366 85.0026 59.1693 85.4705 58.5924 85.4705Z" fill="white"/>
<path d="M92.0635 40.9457C92.0635 43.1315 90.2911 44.9031 88.1053 44.9031C85.9196 44.9031 84.1479 43.1315 84.1479 40.9457C84.1479 38.7599 85.9196 36.9883 88.1053 36.9883C90.2911 36.9883 92.0635 38.7599 92.0635 40.9457Z" fill="white"/>
<path d="M90.2861 77.6272C90.0597 77.5802 89.8251 77.5547 89.5842 77.5547C87.6772 77.5547 86.1265 79.1083 86.1265 81.0167C86.1265 82.9265 87.678 84.4806 89.5842 84.4806C89.587 84.4806 89.5904 84.4799 89.5932 84.4799H89.5959C91.5029 84.4799 93.053 82.9277 93.053 81.0186C93.0523 79.3463 91.8624 77.9487 90.2861 77.6271L90.2861 77.6272ZM89.5842 82.0975C88.9893 82.0975 88.5054 81.6137 88.5054 81.0173C88.5054 80.4224 88.9893 79.9386 89.5842 79.9386C90.1777 79.9386 90.6609 80.4224 90.6609 81.0173C90.6609 81.6137 90.1784 82.0975 89.5842 82.0975Z" fill="white"/>
<path d="M97.9103 75.1259C97.5811 74.0582 96.4499 73.4584 95.3821 73.7883C95.3821 73.7883 95.1957 73.8449 95.1495 73.8587C94.1936 71.2305 91.346 63.4025 91.346 63.4025C91.0796 62.6682 90.4129 62.1526 89.6351 62.0794C89.6351 62.0794 85.975 61.7343 83.5311 61.5038C83.7941 60.441 84.2323 58.6693 84.7092 56.743L84.8935 57.6948C85.0744 58.6286 85.8701 59.3188 86.8212 59.3636L94.2094 59.7149C94.2433 59.717 94.2757 59.717 94.3081 59.717C95.4034 59.717 96.3144 58.8564 96.3683 57.7521C96.4228 56.614 95.5442 55.6478 94.4055 55.5932L88.6371 55.3192L86.9917 46.8266C86.7984 45.8355 85.9281 45.1522 84.9563 45.1578L82.2749 44.734C82.268 44.7333 82.2618 44.7333 82.2549 44.7319C82.2204 44.7271 82.1865 44.7243 82.152 44.7202C82.1217 44.7181 82.0906 44.714 82.0609 44.7126C82.0285 44.7119 81.9947 44.7119 81.9622 44.7119C81.9305 44.7119 81.8987 44.7119 81.8663 44.7126C81.8346 44.7133 81.8028 44.7174 81.7724 44.7195C81.74 44.7223 81.7062 44.7257 81.6744 44.7305C81.6441 44.7354 81.6123 44.7416 81.5813 44.7471C81.5495 44.7533 81.5178 44.7588 81.4853 44.7671C81.455 44.774 81.4239 44.7837 81.3935 44.792C81.3618 44.8016 81.33 44.8106 81.2997 44.8217C81.27 44.8327 81.2424 44.8437 81.2134 44.8541C81.181 44.8672 81.1478 44.8796 81.1168 44.8955C81.0912 44.9072 81.0636 44.9203 81.0374 44.9328C81.005 44.9507 80.9712 44.9687 80.9387 44.988C80.9249 44.9949 80.9097 45.0018 80.8959 45.0108L73.411 49.6295C72.8975 49.947 72.551 50.4763 72.4689 51.072L71.052 61.2791C70.5178 61.5144 70.0084 61.7919 69.517 62.0983C69.5163 62.099 69.515 62.099 69.5129 62.1004C69.2727 62.2508 69.0387 62.4082 68.8103 62.5745C68.7965 62.5842 68.7827 62.5952 68.7689 62.6049C68.1187 63.0818 67.519 63.6209 66.9771 64.2158C66.9267 64.2703 66.8763 64.3248 66.828 64.38C66.6727 64.556 66.5223 64.7362 66.3767 64.9211C66.3214 64.9922 66.269 65.0654 66.2145 65.1379C65.957 65.4823 65.7189 65.8384 65.498 66.2097C65.4532 66.2849 65.4049 66.3581 65.3614 66.434C65.2655 66.6045 65.1771 66.7791 65.0901 66.9544C65.0218 67.0897 64.9549 67.2277 64.8914 67.3657C64.8155 67.5328 64.7423 67.7005 64.6726 67.8703C64.6015 68.0476 64.538 68.2285 64.4745 68.4093C64.4082 68.6012 64.3427 68.7944 64.2854 68.9904C64.2102 69.2486 64.1412 69.5101 64.0839 69.7752C64.0535 69.9167 64.0287 70.0588 64.0024 70.2024C63.9617 70.4253 63.9272 70.6496 63.8996 70.8774C63.883 71.0127 63.8658 71.1486 63.8534 71.286C63.8244 71.6076 63.8071 71.9334 63.8037 72.2619C63.8037 72.2964 63.7988 72.3288 63.7988 72.364C63.7988 72.7823 63.8209 73.1964 63.8623 73.605C64.4828 79.7047 69.6474 84.4808 75.908 84.4808H75.9101H75.917C82.5966 84.4808 88.0316 79.0456 88.0316 72.3655C88.0316 70.2543 87.4864 68.2692 86.5325 66.5397C87.2758 66.5079 87.8604 66.4844 88.1593 66.4713C89.0703 68.9808 92.005 77.0497 92.005 77.0497C92.3742 78.0628 93.4716 78.6088 94.5014 78.2927L96.5734 77.6563C97.639 77.3257 98.2388 76.1938 97.9103 75.1262L97.9103 75.1259ZM76.3458 52.572C76.8069 52.2883 77.7904 51.6803 78.865 51.0177L76.6681 60.2896C76.4176 60.2738 76.1691 60.251 75.9151 60.251C75.6984 60.251 75.4879 60.2717 75.2733 60.2834C75.6591 57.522 76.2071 53.577 76.3458 52.572L76.3458 52.572ZM75.9166 81.5343C70.8618 81.5343 66.7482 77.4223 66.7482 72.3659C66.7482 68.8977 68.6848 65.8755 71.5318 64.3191C71.8216 64.5814 72.186 64.7663 72.6022 64.8236C73.6492 64.9693 74.6106 64.2805 74.8426 63.2694C75.196 63.2279 75.5528 63.201 75.9158 63.201C80.9699 63.201 85.0828 67.3125 85.0828 72.3673C85.0835 77.4221 80.9708 81.5343 75.9165 81.5343L75.9166 81.5343Z" fill="white"/>
</svg>
