<svg width="124" height="124" viewBox="0 0 124 124" fill="none" xmlns="http://www.w3.org/2000/svg">
<circle cx="62" cy="62" r="54" fill="#407CD0"/>
<path d="M45.3502 43.4834C45.3502 42.6873 44.6679 42.0049 43.8717 42.0049H42.2793V45.0191H43.8717C44.6675 45.0187 45.3502 44.3363 45.3502 43.4834Z" fill="white"/>
<path d="M42.1087 68.9047C43.0187 68.5635 43.9288 68.3358 44.9523 68.2223V54.0045H49.5021C50.8671 54.0045 52.0045 52.8672 52.0045 51.5021V39.5591C52.0045 38.1941 50.8672 37 49.5021 37L37.5591 37.0004C36.1941 37.0004 35 38.1377 35 39.5595V51.5025C35 52.8675 36.1373 54.0049 37.5591 54.0049H42.1089L42.1087 68.9047ZM40.2886 50.9902V40.0141H43.8716C45.8051 40.0141 47.3975 41.6065 47.3975 43.54C47.3975 45.4735 45.8051 47.0659 43.8716 47.0659H42.2792V51.0468L40.2885 51.0472L40.2886 50.9902Z" fill="white"/>
<path d="M81.4633 71.0088C78.3352 70.8382 75.5489 72.4306 74.0699 74.933L72.307 74.3074C73.5582 72.0328 75.6623 70.3265 78.1647 69.5871L81.4066 68.4498L83.0557 67.8242C83.3968 67.7103 83.6813 67.483 83.8518 67.1418L85.6719 64.1277C86.0131 63.6159 85.6152 62.9332 84.9896 62.8765C82.601 62.7626 77.8807 62.8765 74.4115 63.9C73.5015 64.1844 73.3309 65.549 72.5348 65.7201C69.1795 66.2889 65.5965 66.8574 64.1747 64.7533C62.2979 61.9097 57.0658 61.4548 53.3691 63.2177C53.2553 63.2744 53.1418 63.3315 53.028 63.3882L54.1086 60.3174H56.156C57.0089 60.3174 57.6916 59.6351 57.6916 58.7818C57.6916 57.9289 56.9522 57.3032 56.0992 57.3032H53.0284C52.4028 57.3032 51.8339 57.7015 51.6066 58.3267L47.2266 71.0659C46.8283 71.0091 46.4871 70.952 46.0893 70.952C41.6533 70.952 38.0703 74.535 38.0703 78.971C38.0703 83.5208 41.8807 87.2172 46.4872 86.9899C50.5819 86.8193 53.8805 83.5208 54.1078 79.4261C54.2784 76.298 52.6293 73.5116 50.1269 72.0327L50.7525 70.2698C53.8806 71.9188 55.9847 75.2175 55.9847 78.9711C55.9847 80.1084 56.8376 80.9618 57.9754 80.9618H69.179C70.3164 80.9618 71.1697 80.0517 71.1697 78.9711C71.1697 78.3455 71.2265 77.7199 71.3403 77.0943L73.1032 77.7199C73.0465 78.1182 72.9894 78.5161 72.9894 78.9711C72.9894 83.4071 76.5724 86.9901 81.0083 86.9901C85.5581 86.9901 89.2546 83.1797 89.0273 78.5732C88.8 74.5351 85.5581 71.2366 81.4634 71.0093L81.4633 71.0088ZM51.0371 79.0278C51.0371 81.7575 48.8191 84.0325 46.0323 84.0325C43.3026 84.0325 41.0276 81.8146 41.0276 79.0278C41.0276 76.241 43.2455 74.023 46.0323 74.023H46.1462L44.6106 78.5156C44.3261 79.3118 44.7811 80.1647 45.5206 80.4491C45.6912 80.5059 45.8618 80.563 46.0323 80.563C46.658 80.563 47.2268 80.1647 47.4541 79.5395L48.9898 75.0469C50.2405 75.9565 51.0371 77.3783 51.0371 79.0278L51.0371 79.0278ZM81.0083 83.9755C78.2786 83.9755 76.0035 81.7575 76.0035 78.9707V78.8001L80.4395 80.3925C80.6101 80.4492 80.7806 80.5063 80.9512 80.5063C81.5768 80.5063 82.1457 80.1081 82.373 79.4829C82.6574 78.6867 82.2592 77.8338 81.463 77.5493L77.027 75.9569C77.937 74.7624 79.3588 74.0234 80.9512 74.0234C83.681 74.0234 85.956 76.2414 85.956 79.0282C85.9564 81.8143 83.7384 83.9755 81.0083 83.9755L81.0083 83.9755Z" fill="white"/>
</svg>
