<svg width="124" height="124" viewBox="0 0 124 124" fill="none" xmlns="http://www.w3.org/2000/svg">
<circle cx="62" cy="62" r="54" fill="#63A9F8"/>
<path d="M61.9995 64.0768H34.0993C34.0993 61.5674 35.0791 59.1607 36.8234 57.3867C38.5677 55.6121 40.9333 54.6153 43.3994 54.6153H52.6995C55.1661 54.6153 57.5317 55.6121 59.276 57.3867C61.0197 59.1607 61.9995 61.5674 61.9995 64.0768ZM43.3994 83H52.6995C55.1661 83 57.5317 82.0032 59.276 80.2286C61.0197 78.4545 61.9995 76.0479 61.9995 73.5384H34.0993C34.0993 76.0479 35.0791 78.4545 36.8234 80.2286C38.5677 82.0032 40.9333 83 43.3994 83ZM63.55 67.2302H32.5502C31.6939 67.2302 31 67.9367 31 68.8074C31 69.678 31.6939 70.3845 32.5502 70.3845H63.55C64.4058 70.3845 65.1002 69.678 65.1002 68.8074C65.1002 67.9367 64.4058 67.2302 63.55 67.2302ZM74.4003 83H89.8995L92.3097 60.9234H71.989L74.4003 83ZM82.925 54.6153L79.0503 42H77.5001L81.3753 54.6153H71.2999L71.6409 57.7689H92.659L93 54.6153H82.925Z" fill="white"/>
</svg>
