<svg width="124" height="124" viewBox="0 0 124 124" fill="none" xmlns="http://www.w3.org/2000/svg">
<circle cx="62" cy="62" r="54" fill="#F36F6A"/>
<path d="M63.6185 42.3328L62.5692 39.2949L59.9111 40.9551L61.0627 43.8275L63.6185 42.3328Z" fill="white"/>
<path d="M62.0801 57.877L65.1102 65.4324L71.8918 61.4696L69.129 53.4761L62.0801 57.877Z" fill="white"/>
<path d="M45.7024 54.4031C45.9285 54.4907 46.1673 54.5079 46.4179 54.4663H46.4228C46.7708 54.4056 47.0728 54.2083 47.2773 53.9186C47.4795 53.6264 47.5573 53.2735 47.4941 52.9231C47.4232 52.5335 47.1848 52.2002 46.8413 52.003L43.1901 49.9292L40.4885 53.1472C40.2354 53.4512 40.1307 53.8481 40.2012 54.2353C40.2643 54.5833 40.4591 54.8877 40.7513 55.0898C41.0459 55.294 41.4037 55.3694 41.7566 55.3062C41.9925 55.2646 42.2142 55.1579 42.3968 54.9969L43.4119 54.111C43.6918 53.8653 44.0863 53.7919 44.4367 53.926L45.7024 54.4031Z" fill="white"/>
<path d="M44.4793 56.1042L44.2895 56.0312L44.1338 56.1674L44.1925 57.9665L45.0417 57.8422L44.4793 56.1042Z" fill="white"/>
<path d="M43.9386 76.5926C43.6102 75.9744 43.5393 75.2638 43.7414 74.5943L52.8234 44.7422L36.7561 48.1277C36.4007 48.2108 36.1742 48.5637 36.25 48.941L45.0421 90.4769C45.0788 90.6472 45.1762 90.7911 45.3245 90.886C45.4728 90.9859 45.6505 91.0225 45.8237 90.9859L71.044 85.6358L45.4878 77.8608C44.8211 77.6587 44.271 77.2108 43.9397 76.5927L43.9386 76.5926ZM42.1909 58.3294L42.1713 58.0788L42.1473 57.2874C42.1375 57.2874 42.1277 57.2948 42.1179 57.2948C41.9158 57.3314 41.7113 57.3481 41.5095 57.3481C40.8327 57.3481 40.1709 57.146 39.6012 56.7495C38.8637 56.2434 38.3693 55.4789 38.2113 54.5979C38.0336 53.6146 38.3013 52.6118 38.9415 51.8497L42.184 47.9842C42.4957 47.6093 43.0336 47.5143 43.457 47.7556L47.8408 50.2483C48.7075 50.7401 49.3062 51.5845 49.4814 52.5657C49.6395 53.4468 49.4448 54.3379 48.9338 55.0731C48.4272 55.8074 47.6607 56.2992 46.7793 56.4574C46.7647 56.4598 46.75 56.4574 46.7353 56.4598L46.9737 57.1705C46.9859 57.2047 47.0393 57.38 47.0467 57.4162C47.1514 57.9932 47.0296 58.5434 46.7133 58.9936C46.3992 59.439 45.9322 59.7361 45.3963 59.8311L44.5736 59.9794C44.4493 60.0014 44.3278 60.0136 44.2036 60.0136C43.7924 60.0136 43.3882 59.8869 43.0426 59.6485C42.5903 59.3347 42.2908 58.8673 42.1909 58.3294L42.1909 58.3294Z" fill="white"/>
<path d="M70.6865 77.4565L71.8381 80.3314L74.3939 78.8367L73.3446 75.7988L70.6865 77.4565Z" fill="white"/>
<path d="M87.9719 42.8949L58.8209 34.0274C58.6677 33.9789 58.5067 33.9956 58.3657 34.0714C58.2247 34.1468 58.1224 34.2711 58.076 34.4243L45.6786 75.183C45.6326 75.3362 45.6469 75.4971 45.7227 75.6381C45.798 75.7791 45.9223 75.879 46.0731 75.9279L75.2221 84.7954C75.5338 84.8855 75.8696 84.7127 75.967 84.401L88.3664 43.6392C88.4124 43.4859 88.3982 43.325 88.3224 43.184C88.2494 43.0426 88.1227 42.9403 87.9719 42.8943V42.8949ZM59.621 45.6696L57.7176 40.9231C57.535 40.4679 57.7054 39.9471 58.1194 39.6892L62.5737 36.9093C62.839 36.7487 63.1581 36.7096 63.4474 36.8144C63.7371 36.9166 63.9658 37.1452 64.0656 37.4374L65.8011 42.4615C65.9593 42.9191 65.7718 43.4227 65.3558 43.6664L61.0693 46.1714C60.9136 46.2639 60.7384 46.3099 60.5607 46.3099C60.4511 46.3099 60.339 46.2928 60.2323 46.2565C59.9523 46.1543 59.7306 45.9424 59.621 45.6697L59.621 45.6696ZM64.6063 67.9106C64.4967 67.9106 64.3847 67.891 64.2779 67.8547C64.0004 67.7598 63.7763 67.5479 63.6671 67.2753L59.8867 57.8453C59.7042 57.3901 59.8745 56.8718 60.2885 56.6134L69.1341 51.0906C69.3969 50.9301 69.716 50.8909 70.0078 50.9957C70.2975 51.0979 70.5261 51.3266 70.6259 51.6187L74.0749 61.5988C74.2331 62.0564 74.0456 62.5601 73.6296 62.8038L65.1173 67.7769C64.9592 67.8641 64.784 67.9105 64.6063 67.9105L64.6063 67.9106ZM76.1316 80.166L71.8451 82.6709C71.6894 82.7634 71.5142 82.8095 71.3365 82.8095C71.2244 82.8095 71.1148 82.7899 71.0081 82.7537C70.7306 82.6587 70.5064 82.4468 70.3972 82.1742L68.4938 77.4253C68.3113 76.9701 68.4816 76.4517 68.8956 76.1914L73.3475 73.4139C73.6104 73.2509 73.9319 73.2191 74.2212 73.3189C74.511 73.4212 74.7396 73.6498 74.8394 73.942L76.575 78.966C76.7351 79.4191 76.5477 79.9204 76.1316 80.1661L76.1316 80.166Z" fill="white"/>
</svg>
