<svg width="124" height="124" viewBox="0 0 124 124" fill="none" xmlns="http://www.w3.org/2000/svg">
<circle cx="62" cy="62" r="54" fill="#7F6DF3"/>
<path fill-rule="evenodd" clip-rule="evenodd" d="M45 36C42.7909 36 41 37.7909 41 40V77.9644C41 80.1735 42.7909 81.9644 45 81.9644H46.7455C43.5724 81.9644 41 84.5367 41 87.7099H71.1641C71.1641 84.5367 68.5917 81.9644 65.4186 81.9644H67.1641C69.3732 81.9644 71.1641 80.1735 71.1641 77.9644V75.0517C75.6955 80.2162 81.593 80.824 85.5766 77.8111C89.9094 74.534 91.0157 67.7028 86.1828 60.4892C86.1523 60.4437 86.1328 60.4042 86.1238 60.3816C85.224 58.099 84.7158 56.2239 84.4295 54.4358C84.0136 51.8391 84.054 49.4295 84.1095 46.1139L84.1095 46.1131C84.1312 44.8174 84.1552 43.3833 84.1552 41.7455C84.1552 40.9171 83.4836 40.2455 82.6552 40.2455C81.8268 40.2455 81.1552 40.9171 81.1552 41.7455C81.1552 43.2174 81.1325 44.5629 81.1114 45.8195V45.8197C81.0651 48.5652 81.026 50.8862 81.2461 53.173H71.1641V40C71.1641 37.7909 69.3733 36 67.1641 36H45ZM71.1641 56.173V71.1277C71.6346 71.1281 72.0976 71.3492 72.3896 71.7628C76.3243 77.3371 81.1096 77.4281 83.7669 75.4184C86.4451 73.3927 87.9357 68.4955 83.6905 62.159C83.5579 61.9611 83.4314 61.7319 83.3329 61.4819C82.5639 59.5312 82.0446 57.8144 81.7005 56.173H71.1641ZM66.855 41.7455H45.3092V54.673H66.855V41.7455Z" fill="white"/>
</svg>
