<svg width="124" height="124" viewBox="0 0 124 124" fill="none" xmlns="http://www.w3.org/2000/svg">
<circle cx="62" cy="62" r="54" fill="#595BA3"/>
<path d="M49.9451 41.3717C49.9451 44.1353 47.7044 46.3769 44.9408 46.3769C42.1763 46.3769 39.9356 44.1362 39.9356 41.3717C39.9356 38.6085 42.1763 36.3674 44.9408 36.3674C47.7048 36.3678 49.9451 38.6085 49.9451 41.3717ZM77.6116 86.0207C78.0857 87.0866 80.9298 86.9295 81.72 86.0207C82.5088 85.1115 86.8553 55.0905 86.9962 52.0965C87.1365 49.1019 83.3721 48.2241 83.3721 48.2241C77.3749 47.7429 74.823 48.4246 74.823 48.4246C74.823 48.4246 70.9753 49.1652 71.3458 52.0957C71.7163 55.0265 77.045 84.7492 77.6116 86.0207ZM83.9373 41.3717C83.9373 44.1353 81.6969 46.3769 78.9329 46.3769C76.1684 46.3769 73.9277 44.1362 73.9277 41.3717C73.9277 38.6085 76.1681 36.3674 78.9329 36.3674C81.6974 36.3678 83.9373 38.6085 83.9373 41.3717ZM63.8191 34.679C63.8191 33.752 63.0679 33 62.1393 33C61.2114 33 60.4594 33.7521 60.4594 34.679V88.4346C60.4594 89.3624 61.2115 90.1144 62.1393 90.1144C63.0671 90.1144 63.8191 89.3619 63.8191 88.4346V34.679ZM51.6767 47.7428C51.6767 47.7428 47.6214 48.0425 42.6476 50.4094C38.2687 52.4952 37.2267 56.4566 37.0186 60.0015C36.8588 62.715 37.7406 66.0341 39.1089 70.2045C39.1089 70.2045 38.6264 62.7979 47.5872 58.053C53.9266 54.6958 52.0312 50.1136 51.6767 47.7428ZM51.7944 57.4017C51.7944 57.4017 48.535 59.357 44.9871 62.5318C42.0846 65.1294 41.9031 66.2635 40.7561 69.2966C39.9961 71.3058 39.0962 74.5421 43.1346 82.0181C44.1447 83.8875 44.7069 84.5749 45.1584 85.428C45.6913 86.4351 47.7652 85.2505 47.5284 84.5984C47.408 84.2691 46.7949 82.3152 46.7573 82.1093C46.4616 80.5096 44.0907 73.044 47.0587 70.2773C52.5389 65.1695 52.0427 63.1641 51.7944 57.4017Z" fill="white"/>
</svg>
