<svg width="124" height="124" viewBox="0 0 124 124" fill="none" xmlns="http://www.w3.org/2000/svg">
<circle cx="62" cy="62" r="54" fill="#63A9F8"/>
<path fill-rule="evenodd" clip-rule="evenodd" d="M57.4092 39C56.2795 39 55.3638 39.9158 55.3638 41.0454V45.1363H53.3184C49.9294 45.1363 47.1821 47.8836 47.1821 51.2725V55.9345L42.4445 57.5138C41.6093 57.7922 41.0459 58.5738 41.0459 59.4542C41.0459 64.0682 43.2878 69.5726 45.4802 72.8613C46.1069 73.8013 47.3768 74.0553 48.3167 73.4286C49.2566 72.802 49.5106 71.5321 48.884 70.5922C47.2326 68.1151 45.6186 64.2189 45.2266 60.8985L59.4546 56.1558V70.704C59.4546 71.8337 60.3704 72.7495 61.5 72.7495C62.6297 72.7495 63.5454 71.8337 63.5454 70.704V56.1558L77.7734 60.8985C77.3814 64.2189 75.7674 68.1151 74.116 70.5922C73.4894 71.5321 73.7434 72.802 74.6833 73.4286C75.6232 74.0553 76.8931 73.8013 77.5198 72.8613C79.7122 69.5726 81.9541 64.0682 81.9541 59.4542C81.9541 58.5738 81.3907 57.7922 80.5555 57.5138L75.8179 55.9345V51.2725C75.8179 47.8836 73.0706 45.1363 69.6816 45.1363H67.6362V41.0454C67.6362 39.9158 66.7205 39 65.5908 39H57.4092ZM63.5454 45.1363H59.4546V43.0908H63.5454V45.1363ZM60.8532 51.3775L51.2729 54.5709V51.2725C51.2729 50.1429 52.1887 49.2271 53.3184 49.2271H69.6816C70.8113 49.2271 71.7271 50.1429 71.7271 51.2725V54.5709L62.1468 51.3775C61.727 51.2375 61.273 51.2375 60.8532 51.3775Z" fill="white"/>
<path d="M68.6589 83.9995C70.0797 83.9995 71.2272 83.6138 72.1723 82.9948C73.0633 82.4112 73.6975 81.6642 74.138 81.1364C75.1596 79.9126 75.2735 79.876 75.6771 79.9038C75.9943 79.9257 76.082 79.9962 76.1312 80.0358L76.1342 80.0382C76.2818 80.1565 76.4035 80.316 76.803 80.8398C77.1556 81.3023 77.6604 81.9452 78.429 82.5346C79.2123 83.1351 80.1874 83.6208 81.458 83.9384C82.5539 84.2124 83.6645 83.5461 83.9384 82.4502C84.2124 81.3543 83.5461 80.2437 82.4502 79.9697C81.6754 79.776 81.2199 79.5195 80.9181 79.2881C80.6016 79.0455 80.3667 78.7668 80.0558 78.3591C80.0276 78.3222 79.9972 78.2817 79.9645 78.2382C79.6905 77.8739 79.2584 77.2996 78.6928 76.8462C77.9608 76.2595 77.0715 75.8994 75.9586 75.8227C73.3434 75.6423 71.932 77.3714 71.159 78.3185C71.1019 78.3884 71.048 78.4545 70.9976 78.5148C70.5614 79.0374 70.2638 79.3546 69.9309 79.5727C69.6521 79.7553 69.2836 79.9087 68.6589 79.9087C68.0114 79.9087 67.6321 79.7565 67.3543 79.5822C67.0277 79.3773 66.734 79.0774 66.3064 78.5782C66.2506 78.5129 66.1911 78.4417 66.1276 78.3656C65.3566 77.4423 64.0002 75.8178 61.5 75.8178C59.0038 75.8178 57.4348 77.422 56.499 78.3787L56.4038 78.476C55.2739 79.6272 54.8785 79.9087 54.3411 79.9087C53.7962 79.9087 53.318 79.5716 52.1351 78.3883L52.0792 78.3324C51.595 77.8476 50.951 77.2028 50.2093 76.7125C49.3853 76.1678 48.3299 75.7338 47.0414 75.8227C45.9285 75.8994 45.0392 76.2595 44.3072 76.8462C43.7416 77.2996 43.3095 77.874 43.0355 78.2382C43.0028 78.2817 42.9724 78.3222 42.9442 78.3591C42.6333 78.7668 42.3984 79.0455 42.0819 79.2881C41.7801 79.5195 41.3246 79.776 40.5498 79.9697C39.4539 80.2437 38.7876 81.3543 39.0616 82.4502C39.3355 83.5461 40.4461 84.2124 41.542 83.9384C42.8126 83.6208 43.7877 83.1351 44.571 82.5346C45.3396 81.9452 45.8444 81.3023 46.197 80.8398C46.5965 80.316 46.7182 80.1565 46.8658 80.0382L46.8688 80.0358C46.918 79.9962 47.0057 79.9257 47.3229 79.9038C47.471 79.8936 47.6453 79.9214 47.9535 80.1252C48.3151 80.3642 48.6848 80.7231 49.2419 81.2804L49.3803 81.4195C50.3172 82.3636 51.9406 83.9995 54.3411 83.9995C56.7377 83.9995 58.2764 82.4175 59.178 81.4904C59.2285 81.4386 59.2769 81.3888 59.3234 81.3414C60.4077 80.2366 60.8629 79.9087 61.5 79.9087C62.0138 79.9087 62.1819 80.0511 63.1994 81.2392C63.6477 81.7626 64.2844 82.4855 65.1804 83.0476C66.1253 83.6404 67.2611 83.9995 68.6589 83.9995Z" fill="white"/>
</svg>
