<svg width="124" height="124" viewBox="0 0 124 124" fill="none" xmlns="http://www.w3.org/2000/svg">
<circle cx="62" cy="62" r="54" fill="#59A397"/>
<path d="M50.3121 40.688C48.1238 40.688 46.0257 41.5793 44.4781 43.1668C42.931 44.7537 42.062 46.9062 42.062 49.1504C42.062 51.3949 42.931 53.547 44.4781 55.1345C46.0256 56.7215 48.1237 57.6128 50.3121 57.6128C52.4998 57.6128 54.5984 56.7214 56.1456 55.1345C57.6931 53.5472 58.5621 51.3951 58.5621 49.1504C58.5621 46.9063 57.6932 44.7537 56.1456 43.1668C54.5984 41.5794 52.4999 40.688 50.3121 40.688ZM50.3121 51.9714C49.5827 51.9714 48.8829 51.6738 48.3674 51.145C47.8519 50.6162 47.5617 49.8985 47.5617 49.1503C47.5617 48.4021 47.8519 47.6849 48.3674 47.1556C48.8829 46.6268 49.5826 46.3297 50.3121 46.3297C51.0415 46.3297 51.7407 46.6268 52.2567 47.1556C52.7723 47.6849 53.0619 48.4021 53.0619 49.1503C53.0619 49.8985 52.7723 50.6163 52.2567 51.145C51.7407 51.6738 51.0415 51.9714 50.3121 51.9714Z" fill="white"/>
<path d="M47.5623 77.3584H42.7499C42.0204 77.3584 41.3212 77.6555 40.8052 78.1848C40.2897 78.7136 40 79.4313 40 80.1795C40 80.9272 40.2897 81.645 40.8052 82.1737C41.3212 82.703 42.0204 83.0001 42.7499 83.0001H81.2502C81.9796 83.0001 82.6788 82.703 83.1948 82.1737C83.7103 81.6449 84 80.9272 84 80.1795C84 79.4313 83.7103 78.7136 83.1948 78.1848C82.6788 77.6555 81.9796 77.3584 81.2502 77.3584H76.4377V75.2992C76.4229 74.1797 76.8415 73.0994 77.6016 72.2956C78.3622 71.4918 79.4019 71.0304 80.494 71.0118C81.3097 71.0418 82.0962 70.6979 82.6409 70.0742C83.1852 69.45 83.4317 68.6103 83.3128 67.7819C83.1958 67.0809 82.8323 66.4483 82.2913 66.0042C81.7504 65.5595 81.0694 65.3342 80.3769 65.3701C79.0116 65.3986 77.6679 65.7282 76.4377 66.3362V63.9598C76.4377 62.8378 76.8722 61.7615 77.6457 60.968C78.4193 60.1741 79.4686 59.7284 80.5625 59.7284C81.5451 59.7284 82.4529 59.1907 82.944 58.3181C83.4355 57.4455 83.4355 56.3701 82.944 55.4976C82.4529 54.6244 81.545 54.0868 80.5625 54.0868C79.1343 54.0878 77.7244 54.4178 76.4377 55.0529V50.5608C76.4377 49.5534 75.9135 48.6221 75.0623 48.118C74.2116 47.6143 73.1632 47.6143 72.3125 48.118C71.4618 48.6222 70.9377 49.5534 70.9377 50.5608V55.0529C69.6505 54.4178 68.2405 54.0878 66.8124 54.0868C65.8298 54.0868 64.922 54.6244 64.4309 55.4976C63.9398 56.3702 63.9398 57.4456 64.4309 58.3181C64.922 59.1907 65.8299 59.7284 66.8124 59.7284C67.9063 59.7284 68.9556 60.1741 69.7291 60.968C70.5031 61.7615 70.9376 62.8378 70.9376 63.9598V66.3362C69.7071 65.7282 68.3638 65.3986 66.998 65.3701C66.306 65.3342 65.6244 65.5595 65.0835 66.0042C64.5426 66.4484 64.1795 67.081 64.0625 67.7819C63.9436 68.6103 64.1896 69.45 64.7344 70.0742C65.2787 70.6979 66.0652 71.0418 66.8814 71.0118C67.9729 71.0304 69.0125 71.4919 69.7732 72.2956C70.5333 73.0994 70.952 74.1796 70.9376 75.2992V77.3584H53.0625V75.2992C53.0481 74.1797 53.4667 73.0994 54.2268 72.2956C54.9874 71.4918 56.0271 71.0304 57.1187 71.0118C57.9349 71.0418 58.7214 70.6979 59.2656 70.0742C59.8104 69.45 60.0564 68.6103 59.9375 67.7819C59.8205 67.0809 59.4575 66.4483 58.9165 66.0042C58.3756 65.5595 57.6941 65.3342 57.0021 65.3701C54.4781 65.4237 52.0755 66.4926 50.3126 68.3462C48.5493 66.4926 46.1471 65.4237 43.6232 65.3701C42.9307 65.3342 42.2497 65.5595 41.7088 66.0042C41.1678 66.4484 40.8043 67.081 40.6873 67.7819C40.5684 68.6103 40.8149 69.45 41.3592 70.0742C41.9039 70.6979 42.6905 71.0418 43.5061 71.0118C44.5981 71.0304 45.6378 71.4919 46.3985 72.2956C47.1586 73.0994 47.5772 74.1796 47.5624 75.2992L47.5623 77.3584Z" fill="white"/>
</svg>
