<svg width="124" height="124" viewBox="0 0 124 124" fill="none" xmlns="http://www.w3.org/2000/svg">
<circle cx="62" cy="62" r="54" fill="#407CD0"/>
<path d="M79.4664 66.7345H79.6325C80.4077 64.4642 80.8507 61.9726 80.8507 59.4253C80.8507 47.0776 70.8285 37 58.4253 37C46.0222 37 36 47.0776 36 59.4253C36 71.7731 46.0776 81.8507 58.4253 81.8507C62.0243 81.8507 65.3467 81.0203 68.3921 79.5251C68.3369 78.9712 68.2813 78.4178 68.2813 77.9195C68.2813 71.7176 73.2645 66.7345 79.4663 66.7345H79.4664ZM60.3634 70.5548V73.3787C60.3634 73.6556 60.142 73.9325 59.8095 73.9325H57.0409C56.764 73.9325 56.4871 73.7112 56.4871 73.3787V70.6101C53.7185 70.444 51.4482 68.2845 51.1712 65.516C51.116 65.1838 51.3925 64.9069 51.7251 64.9069H54.4937C54.715 64.9069 54.9367 65.0729 54.9919 65.2947C55.158 66.1807 55.9332 66.7898 56.8192 66.7898H59.2556C60.6951 66.7898 61.9689 65.7376 62.135 64.2982C62.3011 62.6926 61.0277 61.3083 59.4217 61.3083H57.6496C54.2167 61.3083 51.1712 58.8167 50.7835 55.3834C50.3957 51.7845 53.0538 48.6833 56.4315 48.2407V45.4722C56.4315 45.1952 56.6528 44.9183 56.9853 44.9183H59.7539C60.0308 44.9183 60.3078 45.1396 60.3078 45.4722V48.2407C63.1316 48.4068 65.4019 50.5663 65.6788 53.3349C65.6788 53.667 65.4574 53.944 65.1249 53.944H62.3563C62.135 53.944 61.8581 53.7779 61.8581 53.5562C61.692 52.6702 60.9168 52.0611 59.9756 52.0611H57.5391C56.0996 52.0611 54.7706 53.1132 54.6597 54.5527C54.4936 56.1582 55.7671 57.5982 57.373 57.5982H59.4772C63.2979 57.5982 66.3986 60.9207 66.0108 64.7965C65.7343 67.7864 63.2978 70.0567 60.3633 70.5549L60.3634 70.5548Z" fill="white"/>
<path d="M79.4661 68.728C74.4272 68.728 70.3301 72.8256 70.3301 77.8641C70.3301 82.903 74.4276 87.0001 79.4661 87.0001C84.505 87.0001 88.6022 82.9026 88.6022 77.8641C88.6022 72.8252 84.5046 68.728 79.4661 68.728ZM83.3973 76.1477L79.2444 81.0757C79.0784 81.297 78.8014 81.4079 78.5245 81.4079C78.2476 81.4079 78.0262 81.297 77.8046 81.0757L75.4238 78.2519C75.0916 77.8641 75.1469 77.3106 75.5346 76.9784C75.9224 76.6463 76.4759 76.7015 76.8081 77.0893L78.5245 79.1379L82.013 74.9851C82.3451 74.5973 82.899 74.5421 83.2864 74.8742C83.6742 75.2064 83.7294 75.7599 83.3973 76.1477H83.3973Z" fill="white"/>
</svg>
