<svg width="124" height="124" viewBox="0 0 124 124" fill="none" xmlns="http://www.w3.org/2000/svg">
<circle cx="62" cy="62" r="54" fill="#FFB831"/>
<path fill-rule="evenodd" clip-rule="evenodd" d="M80.5665 44.5C80.6217 44.5 80.6665 44.5448 80.6665 44.6V51.5V69.3333C80.6665 70.4379 79.7711 71.3333 78.6665 71.3333H73.6665H59.6665H56.1665C52.3005 71.3333 49.1665 68.1993 49.1665 64.3333C49.1665 60.6922 51.9465 57.7004 55.4998 57.3647V62C55.4998 62.8284 56.1714 63.5 56.9998 63.5C57.8283 63.5 58.4998 62.8284 58.4998 62V57.3333H61.4998V62C61.4998 62.8284 62.1714 63.5 62.9998 63.5C63.8283 63.5 64.4998 62.8284 64.4998 62V57.3333H66.5665C66.6217 57.3333 66.6665 57.2886 66.6665 57.2333V51.5V44.6C66.6665 44.5448 66.7113 44.5 66.7665 44.5H80.5665Z" fill="white"/>
<path d="M55.4998 57.3647H57.4998V55.1668L55.3117 55.3735L55.4998 57.3647ZM58.4998 57.3333V55.3333H56.4998V57.3333H58.4998ZM61.4998 57.3333H63.4998V55.3333H61.4998V57.3333ZM64.4998 57.3333V55.3333H62.4998V57.3333H64.4998ZM82.6665 44.6C82.6665 43.4402 81.7262 42.5 80.5665 42.5V46.5C79.5172 46.5 78.6665 45.6494 78.6665 44.6H82.6665ZM82.6665 51.5V44.6H78.6665V51.5H82.6665ZM82.6665 69.3333V51.5H78.6665V69.3333H82.6665ZM78.6665 73.3333C80.8756 73.3333 82.6665 71.5425 82.6665 69.3333H78.6665V69.3333V73.3333ZM73.6665 73.3333H78.6665V69.3333H73.6665V73.3333ZM59.6665 73.3333H73.6665V69.3333H59.6665V73.3333ZM56.1665 73.3333H59.6665V69.3333H56.1665V73.3333ZM47.1665 64.3333C47.1665 69.3039 51.1959 73.3333 56.1665 73.3333V69.3333C53.4051 69.3333 51.1665 67.0948 51.1665 64.3333H47.1665ZM55.3117 55.3735C50.7411 55.8054 47.1665 59.6507 47.1665 64.3333H51.1665C51.1665 61.7337 53.152 59.5954 55.688 59.3558L55.3117 55.3735ZM57.4998 62V57.3647H53.4998V62H57.4998ZM56.9998 61.5C57.276 61.5 57.4998 61.7239 57.4998 62H53.4998C53.4998 63.933 55.0668 65.5 56.9998 65.5V61.5ZM56.4998 62C56.4998 61.7239 56.7237 61.5 56.9998 61.5V65.5C58.9328 65.5 60.4998 63.933 60.4998 62H56.4998ZM56.4998 57.3333V62H60.4998V57.3333H56.4998ZM61.4998 55.3333H58.4998V59.3333H61.4998V55.3333ZM63.4998 62V57.3333H59.4998V62H63.4998ZM62.9998 61.5C63.276 61.5 63.4998 61.7239 63.4998 62H59.4998C59.4998 63.933 61.0668 65.5 62.9998 65.5V61.5ZM62.4998 62C62.4998 61.7239 62.7237 61.5 62.9998 61.5V65.5C64.9328 65.5 66.4998 63.933 66.4998 62H62.4998ZM62.4998 57.3333V62H66.4998V57.3333H62.4998ZM66.5665 55.3333H64.4998V59.3333H66.5665V55.3333ZM64.6665 57.2333C64.6665 56.184 65.5172 55.3333 66.5665 55.3333V59.3333C67.7263 59.3333 68.6665 58.3931 68.6665 57.2333H64.6665ZM64.6665 51.5V57.2333H68.6665V51.5H64.6665ZM64.6665 44.6V51.5H68.6665V44.6H64.6665ZM66.7665 42.5C65.6067 42.5 64.6665 43.4402 64.6665 44.6H68.6665C68.6665 45.6493 67.8158 46.5 66.7665 46.5V42.5ZM80.5665 42.5H66.7665V46.5H80.5665V42.5ZM38.9998 66.6667C38.9998 68.9312 39.6627 72.2834 41.7101 75.1269C43.8309 78.0725 47.348 80.3333 52.6665 80.3333V76.3333C48.6517 76.3333 46.3354 74.7053 44.9562 72.7897C43.5036 70.7722 42.9998 68.2911 42.9998 66.6667H38.9998ZM73.6665 80.3333H82.9998V76.3333H73.6665V80.3333ZM75.6665 78.3333V71.3333H71.6665V78.3333H75.6665ZM52.6665 80.3333H59.6665V76.3333H52.6665V80.3333ZM59.6665 80.3333H73.6665V76.3333H59.6665V80.3333ZM61.6665 78.3333V71.3333H57.6665V78.3333H61.6665Z" fill="white"/>
</svg>
