<svg width="124" height="124" viewBox="0 0 124 124" fill="none" xmlns="http://www.w3.org/2000/svg">
<circle cx="62" cy="62" r="54" fill="#AD7147"/>
<path d="M61.999 67.0625C63.397 67.0625 64.5303 65.9292 64.5303 64.5312C64.5303 63.1333 63.397 62 61.999 62C60.6011 62 59.4678 63.1333 59.4678 64.5312C59.4678 65.9292 60.6011 67.0625 61.999 67.0625Z" fill="white"/>
<path d="M78.874 51.875H71.2803V45.9688C71.2803 43.5072 70.3024 41.1465 68.5619 39.4059C66.8213 37.6653 64.4606 36.6875 61.999 36.6875C59.5375 36.6875 57.1768 37.6653 55.4362 39.4059C53.6956 41.1465 52.7178 43.5072 52.7178 45.9688V51.875H45.124C44.2292 51.876 43.3714 52.2319 42.7387 52.8646C42.106 53.4974 41.75 54.3552 41.749 55.25V78.875C41.75 79.7698 42.106 80.6276 42.7387 81.2604C43.3714 81.8931 44.2292 82.249 45.124 82.25H78.874C79.7688 82.249 80.6267 81.8931 81.2594 81.2604C81.8921 80.6276 82.248 79.7698 82.249 78.875V55.25C82.248 54.3552 81.8921 53.4974 81.2594 52.8646C80.6267 52.2319 79.7688 51.876 78.874 51.875ZM63.6865 70.1906V73.8125C63.6865 74.2601 63.5087 74.6893 63.1923 75.0057C62.8758 75.3222 62.4466 75.5 61.999 75.5C61.5515 75.5 61.1222 75.3222 60.8058 75.0057C60.4893 74.6893 60.3115 74.2601 60.3115 73.8125V70.1906C58.952 69.7852 57.7837 68.9041 57.0204 67.7082C56.2572 66.5123 55.9498 65.0817 56.1546 63.6778C56.3595 62.274 57.0627 60.9908 58.1359 60.0629C59.209 59.1349 60.5803 58.6243 61.999 58.6243C63.4177 58.6243 64.789 59.1349 65.8622 60.0629C66.9353 60.9908 67.6386 62.274 67.8434 63.6778C68.0482 65.0817 67.7409 66.5123 66.9776 67.7082C66.2143 68.9041 65.0461 69.7852 63.6865 70.1906ZM67.9053 51.875H56.0928V45.9688C56.0928 44.4023 56.715 42.9 57.8227 41.7924C58.9303 40.6848 60.4326 40.0625 61.999 40.0625C63.5655 40.0625 65.0677 40.6848 66.1754 41.7924C67.283 42.9 67.9053 44.4023 67.9053 45.9688V51.875Z" fill="white"/>
</svg>
