<svg width="124" height="124" viewBox="0 0 124 124" fill="none" xmlns="http://www.w3.org/2000/svg">
<circle cx="62" cy="62" r="54" fill="#F36F6A"/>
<path fill-rule="evenodd" clip-rule="evenodd" d="M56.9943 52.3701C58.3501 53.9849 62.0017 57.5063 62.0017 59.7691C62.0017 61.6661 60.1246 63.1163 58.3765 62.2224L58.9951 64.7371H54.9951L55.6147 62.2204C53.8672 63.1183 51.9875 61.6641 51.9875 59.7682C51.9868 57.5043 55.6385 53.987 56.9943 52.3702M48.9479 46.0069L49.2204 47.1139H47.4597L47.7323 46.0069C46.9641 46.4015 46.1362 45.7627 46.1362 44.9282C46.1362 43.931 47.7428 42.3832 48.3397 41.6728C48.9356 42.3832 50.5432 43.9331 50.5432 44.9282C50.5428 45.7627 49.717 46.4005 48.9478 46.0069H48.9479ZM43 79.1081H70.9874L70.9877 38H43.0003L43 79.1081ZM77.0743 53.0812L75.3268 52.8638L75.7346 51.7993C74.9219 52.0946 74.1821 51.3595 74.2851 50.5306C74.4082 49.542 76.1933 48.2033 76.8737 47.5722C77.3779 48.3519 78.7808 50.0858 78.6581 51.0754C78.5548 51.9033 77.6554 52.4358 76.941 51.9485L77.0743 53.0812ZM72.2638 43.2988V80.3844H49.4536L49.2691 81.8583L76.9186 85.3031L82 44.5109L72.2638 43.2988ZM63.4443 72.3361C63.4443 71.5017 64.2712 70.8622 65.0404 71.2575L64.7678 70.1505H66.5285L66.256 71.2575C67.0251 70.8638 67.851 71.5026 67.851 72.3367C67.851 73.3329 66.2444 74.8827 65.6475 75.5921C65.051 74.881 63.4444 73.3332 63.4444 72.336L63.4443 72.3361Z" fill="white"/>
</svg>
