<svg width="124" height="124" viewBox="0 0 124 124" fill="none" xmlns="http://www.w3.org/2000/svg">
<circle cx="62" cy="62" r="54" fill="#D66EB8"/>
<path d="M62.4626 44L83.698 53.9095C84.0713 54.0843 84.3102 54.4591 84.3102 54.872C84.3102 55.2849 84.0713 55.6593 83.698 55.834L62.4626 65.7445C62.3204 65.8108 62.1667 65.8445 62.0134 65.8445C61.8601 65.8445 61.7064 65.8112 61.5642 65.7445L40.3288 55.834C39.9552 55.6585 39.7163 55.2837 39.7163 54.8712C39.7163 54.4587 39.9552 54.0839 40.3288 53.9088M62.4629 72.8225L83.6984 62.913C84.2294 62.6645 84.4597 62.0335 84.2113 61.5013C83.9635 60.9703 83.3343 60.7396 82.7999 60.9884L62.0139 70.6884L41.2278 60.9884C40.6968 60.7414 40.065 60.9703 39.8165 61.5013C39.5688 62.0331 39.798 62.6645 40.3298 62.913L61.5652 72.8225C61.7074 72.8888 61.8611 72.9225 62.0144 72.9225C62.1681 72.9221 62.321 72.8888 62.4632 72.8225H62.4629ZM62.4629 79.9011L83.6984 69.9906C84.2294 69.7421 84.4597 69.1111 84.2113 68.5789C83.9635 68.0479 83.3343 67.8165 82.7999 68.0661L62.0139 77.7661L41.2278 68.0661C40.6968 67.8191 40.065 68.0479 39.8165 68.5789C39.5688 69.1107 39.798 69.7422 40.3298 69.9906L61.5652 79.9011C61.707 79.9674 61.8607 80 62.014 80C62.1673 80 62.321 79.9674 62.4632 79.9008L62.4629 79.9011Z" fill="white"/>
</svg>
