<svg width="124" height="124" viewBox="0 0 124 124" fill="none" xmlns="http://www.w3.org/2000/svg">
<circle cx="62" cy="62" r="54" fill="#ABA39A"/>
<path d="M62.7874 53.0486C62.5313 53.0222 62.2687 53.0093 62.0061 53.0093C61.7434 53.0093 61.4808 53.0222 61.2247 53.0486C60.6273 53.3639 59.3799 55.7275 59.2422 59.962H64.7834C64.6386 55.7273 63.3848 53.3638 62.7874 53.0486Z" fill="white"/>
<path d="M69.5616 62.2793H67.0539C66.9355 64.0783 66.6207 65.8116 66.1084 67.236C67.8547 66.1334 69.1284 64.3673 69.5617 62.2793H69.5616Z" fill="white"/>
<path d="M61.2231 68.3928C61.4792 68.4192 61.7418 68.4321 62.0044 68.4321C62.2671 68.4321 62.5297 68.4192 62.7858 68.3928C63.3439 68.0974 64.4728 66.0094 64.729 62.2808H59.2734C59.536 66.0095 60.665 68.0975 61.2231 68.3928Z" fill="white"/>
<path d="M54.4482 62.2793C54.875 64.3602 56.1552 66.1329 57.895 67.236C57.3827 65.8116 57.0679 64.0783 56.9495 62.2793H54.4482Z" fill="white"/>
<path d="M69.6801 59.9621C69.4438 57.5328 68.0715 55.4449 66.1084 54.2046C66.6928 55.846 67.0275 57.8811 67.0932 59.9621H69.6801Z" fill="white"/>
<path d="M80.5723 40.9957H43.4392C42.7955 40.9957 42.2773 41.5144 42.2773 42.1575V87.8383C42.2773 88.4819 42.7961 89.0001 43.4392 89.0001H80.5723C81.216 89.0001 81.7342 88.4813 81.7342 87.8383L81.7348 42.15C81.7348 41.5134 81.216 40.9946 80.5729 40.9946L80.5723 40.9957ZM51.9733 60.7185C51.9733 55.624 55.794 51.4158 60.7179 50.7786C60.9213 50.7259 61.1318 50.6866 61.3545 50.6866C61.4266 50.6866 61.5057 50.693 61.5714 50.7065C61.7156 50.7001 61.8604 50.6866 62.011 50.6866C62.1623 50.6866 62.3 50.6995 62.4507 50.7065C62.5228 50.6936 62.5949 50.6866 62.6676 50.6866C62.8909 50.6866 63.0943 50.7259 63.3042 50.7786C68.228 51.4152 72.0488 55.624 72.0488 60.7185C72.0488 60.8105 72.0359 60.8955 72.0359 60.9876C72.0424 61.0333 72.0488 61.0732 72.0488 61.1189C72.0488 61.2109 72.0359 61.3029 72.016 61.3879C71.7006 66.1742 68.0111 70.0477 63.3105 70.6578C63.1071 70.7106 62.8967 70.7498 62.6739 70.7498C62.6018 70.7498 62.5227 70.7434 62.457 70.7299C62.3128 70.7364 62.168 70.7498 62.0174 70.7498C61.8661 70.7498 61.7284 70.7369 61.5777 70.7299C61.5056 70.7428 61.4335 70.7498 61.3609 70.7498C61.1375 70.7498 60.9341 70.7106 60.7243 70.6578C56.0172 70.047 52.3336 66.1735 52.0188 61.3879C51.9988 61.3024 51.9859 61.2109 51.9859 61.1189C51.9859 61.0732 51.9924 61.0268 51.9988 60.9876C51.9865 60.8955 51.9731 60.8105 51.9731 60.7185H51.9733ZM63.9749 77.7612H50.9101C50.2664 77.7612 49.7483 77.2424 49.7483 76.5994C49.7483 75.9558 50.267 75.4376 50.9101 75.4376L63.9749 75.437C64.6185 75.437 65.1367 75.9558 65.1367 76.5988C65.1367 77.2424 64.6185 77.7612 63.9749 77.7612ZM73.1792 77.7612H68.6884C68.0447 77.7612 67.5266 77.2424 67.5266 76.5994C67.5266 75.9558 68.0453 75.4376 68.6884 75.4376H73.1792C73.8228 75.4376 74.341 75.9563 74.341 76.5994C74.3416 77.2424 73.8164 77.7612 73.1792 77.7612Z" fill="white"/>
<path d="M57.9027 54.2041C55.9396 55.4451 54.5743 57.5396 54.3311 59.9616H56.9178C56.9835 57.8807 57.3118 55.8389 57.9026 54.2041H57.9027Z" fill="white"/>
<path d="M77.5984 36L44.8906 39.5124H77.5984V36Z" fill="white"/>
</svg>
