<svg width="124" height="124" viewBox="0 0 124 124" fill="none" xmlns="http://www.w3.org/2000/svg">
<circle cx="61" cy="62" r="54" fill="#FFB831"/>
<path d="M62 74L62.1924 90.7383M62.1924 90.7383L55.355 83.9009M62.1924 90.7383L68.6269 84.3038" stroke="white" stroke-width="3" stroke-linecap="round"/>
<path fill-rule="evenodd" clip-rule="evenodd" d="M32 34C29.7909 34 28 35.7909 28 38V62C28 64.2091 29.7909 66 32 66H90C92.2091 66 94 64.2091 94 62V38C94 35.7909 92.2091 34 90 34H32ZM42.6866 53.9522C41.6901 53.9522 40.8399 53.6002 40.1359 52.8962C39.4427 52.1816 39.0962 51.3229 39.0962 50.3202C39.0962 49.3176 39.4427 48.4642 40.1359 47.7602C40.8399 47.0456 41.6901 46.6882 42.6866 46.6882C43.683 46.6882 44.5278 47.0456 45.221 47.7602C45.925 48.4642 46.277 49.3176 46.277 50.3202C46.277 51.3229 45.925 52.1816 45.221 52.8962C44.5278 53.6002 43.683 53.9522 42.6866 53.9522ZM42.6866 56.1922C44.3328 56.1922 45.7354 55.6216 46.8943 54.4802C48.064 53.3282 48.6489 51.9416 48.6489 50.3202C48.6489 48.6989 48.064 47.3176 46.8943 46.1762C45.7354 45.0242 44.3328 44.4482 42.6866 44.4482C41.0403 44.4482 39.6323 45.0242 38.4626 46.1762C37.3037 47.3176 36.7242 48.6989 36.7242 50.3202C36.7242 51.9416 37.3037 53.3282 38.4626 54.4802C39.6323 55.6216 41.0403 56.1922 42.6866 56.1922ZM60.0312 48.4642C60.0312 47.3762 59.6467 46.4696 58.8778 45.7442C58.1088 45.0082 57.1448 44.6402 55.9859 44.6402H52.1519V56.0002H54.5075V52.2882H55.9859C57.1448 52.2882 58.1088 51.9256 58.8778 51.2002C59.6467 50.4642 60.0312 49.5522 60.0312 48.4642ZM57.7405 48.4642C57.7405 48.9442 57.5781 49.3389 57.2531 49.6482C56.9282 49.9576 56.495 50.1122 55.9535 50.1122H54.5075V46.8162H55.9535C56.495 46.8162 56.9282 46.9709 57.2531 47.2802C57.5781 47.5896 57.7405 47.9842 57.7405 48.4642ZM63.375 44.6402H70.5558V46.8482H65.7307V49.1842H69.5811V51.3922H65.7307V53.7922H70.5558V56.0002H63.375V44.6402ZM82.5026 56.0002H84.5334V44.6402H82.1777V52.0482L76.2641 44.6402H74.2333V56.0002H76.589V48.5922L82.5026 56.0002Z" fill="white"/>
</svg>
