<svg width="124" height="124" viewBox="0 0 124 124" fill="none" xmlns="http://www.w3.org/2000/svg">
<circle cx="62" cy="62" r="54" fill="#ABA39A"/>
<path d="M56.2006 50.5337H48.4673C46.332 50.5337 44.6006 52.2651 44.6006 54.4004V67.9337H48.4673V87.267H56.2006V67.9337H60.0673V54.4004C60.0673 52.2651 58.3359 50.5337 56.2006 50.5337Z" fill="white"/>
<path d="M52.3335 46.6667C50.1982 46.6667 48.4668 44.9353 48.4668 42.8V40.8667C48.4668 38.7314 50.1982 37 52.3335 37C54.4687 37 56.2001 38.7314 56.2001 40.8667V42.8C56.2001 44.9353 54.4687 46.6667 52.3335 46.6667Z" fill="white"/>
<path d="M77.4673 46.6667C75.332 46.6667 73.6006 44.9353 73.6006 42.8V40.8667C73.6006 38.7314 75.332 37 77.4673 37C79.6025 37 81.3339 38.7314 81.3339 40.8667V42.8C81.3339 44.9353 79.6025 46.6667 77.4673 46.6667Z" fill="white"/>
<path d="M70.7773 76.6333C71.1101 78.9425 72.6093 80.8758 74.6596 81.8157C74.061 80.4006 73.7123 78.5463 73.6243 76.6333H70.7773Z" fill="white"/>
<path d="M77.467 82.4333C77.9852 82.4333 79.1936 80.4063 79.3752 76.6333H75.5586C75.7403 80.4063 76.9486 82.4333 77.4668 82.4333H77.467Z" fill="white"/>
<path d="M77.4668 68.8999C76.9486 68.8999 75.7402 70.9269 75.5586 74.6999H79.3752C79.1935 70.9269 77.9852 68.8999 77.467 68.8999H77.4668Z" fill="white"/>
<path d="M70.7773 74.7H73.6243C73.7124 72.7861 74.061 70.933 74.6596 69.5176C72.6085 70.4575 71.1101 72.3908 70.7774 74.7H70.7773Z" fill="white"/>
<path d="M86.166 60.1999V53.4332C86.166 51.8313 84.8679 50.5332 83.2659 50.5332H71.666C70.064 50.5332 68.766 51.8313 68.766 53.4332V60.1999H63.9326V64.0665H65.866V87.2665H89.066V64.0665H90.9993V60.1999H86.166ZM77.466 84.3665C72.6693 84.3665 68.766 80.4641 68.766 75.6665C68.766 70.869 72.6693 66.9665 77.466 66.9665C82.2626 66.9665 86.166 70.869 86.166 75.6665C86.166 80.4641 82.2626 84.3665 77.466 84.3665Z" fill="white"/>
<path d="M80.2734 81.8157C82.3245 80.875 83.8229 78.9429 84.1557 76.6333H81.3087C81.2207 78.5472 80.872 80.4003 80.2734 81.8157H80.2734Z" fill="white"/>
<path d="M80.2734 69.5176C80.872 70.9327 81.2207 72.787 81.3087 74.7H84.1557C83.823 72.3908 82.3247 70.4575 80.2735 69.5176H80.2734Z" fill="white"/>
<path d="M42.6667 71.8H41.7V63.1C41.7 62.5666 41.2667 62.1333 40.7333 62.1333H36.8667C36.3333 62.1333 35.9 62.5666 35.9 63.1V71.8H34.9333C33.8652 71.8 33 72.6652 33 73.7333V85.3333C33 86.4014 33.8652 87.2666 34.9333 87.2666H42.6667C43.7348 87.2666 44.6 86.4014 44.6 85.3333V73.7333C44.6 72.6652 43.7348 71.8 42.6667 71.8ZM37.8333 76.6333H35.9V74.7H37.8333V76.6333ZM37.8333 64.0666H39.7667V71.8H37.8333V64.0666ZM41.7 76.6333H39.7667V74.7H41.7V76.6333Z" fill="white"/>
</svg>
