<svg width="124" height="124" viewBox="0 0 124 124" fill="none" xmlns="http://www.w3.org/2000/svg">
<circle cx="62" cy="62" r="54" fill="#407CD0"/>
<path fill-rule="evenodd" clip-rule="evenodd" d="M84.4748 76.312H87.4127V52.8521H81.5368V73.3843H41.8759V52.8541H36V76.311H38.9379V86.5557H41.8759V76.311H81.5368V86.5114H84.4748V76.312Z" fill="white"/>
<path fill-rule="evenodd" clip-rule="evenodd" d="M46.3647 63.1353H77.0489C78.6714 63.1353 79.9868 64.7578 79.9868 66.0732V68.766C79.9868 70.3886 78.6714 71.704 77.0489 71.704H46.3647C44.7422 71.704 43.4268 70.0814 43.4268 68.766V66.0732C43.4268 64.4507 44.7422 63.1353 46.3647 63.1353Z" fill="white"/>
<path fill-rule="evenodd" clip-rule="evenodd" d="M46.3647 38H77.0489C78.6714 38 79.9868 39.6225 79.9868 40.9379V58.4834C79.9868 60.106 78.6714 61.4214 77.0489 61.4214H46.3647C44.7422 61.4214 43.4268 59.7988 43.4268 58.4834V40.9379C43.4268 39.3154 44.7422 38 46.3647 38Z" fill="white"/>
</svg>
