<svg width="124" height="124" viewBox="0 0 124 124" fill="none" xmlns="http://www.w3.org/2000/svg">
<circle cx="62" cy="62" r="54" fill="#FFB831"/>
<path d="M48.9091 93.2727L61.2727 62L74.3636 93.2727" stroke="white" stroke-width="5"/>
<path d="M41.6364 93.2727H82.3636" stroke="white"/>
<path fill-rule="evenodd" clip-rule="evenodd" d="M70.7263 38.8565C70.7059 40.2656 70.3515 41.5938 69.7387 42.7656C75.3671 45.0323 79.7717 49.6978 81.6863 55.4959C82.7803 55.0021 83.9944 54.7272 85.2727 54.7272C85.3967 54.7272 85.5201 54.7298 85.6428 54.735C83.3962 47.4149 77.8433 41.5413 70.7263 38.8565ZM62 82.7272C70.2604 82.7272 77.3922 77.8952 80.7229 70.9034C81.8553 71.5966 83.158 72.0388 84.5536 72.1526C80.6793 80.7458 72.0382 86.7272 62 86.7272C51.9618 86.7272 43.3207 80.7458 39.4464 72.1526C40.842 72.0388 42.1447 71.5966 43.2771 70.9034C46.6078 77.8952 53.7396 82.7272 62 82.7272ZM42.3137 55.4959C44.2283 49.6978 48.6329 45.0323 54.2613 42.7656C53.6485 41.5938 53.2941 40.2656 53.2737 38.8565C46.1567 41.5413 40.6038 47.4149 38.3572 54.735C38.4799 54.7298 38.6033 54.7272 38.7273 54.7272C40.0056 54.7272 41.2197 55.0021 42.3137 55.4959Z" fill="white"/>
<circle cx="62" cy="38.7273" r="6.72727" stroke="white" stroke-width="4"/>
<circle cx="85.2727" cy="63.4546" r="6.72727" stroke="white" stroke-width="4"/>
<circle cx="38.7273" cy="63.4546" r="6.72727" stroke="white" stroke-width="4"/>
</svg>
