<svg width="124" height="124" viewBox="0 0 124 124" fill="none" xmlns="http://www.w3.org/2000/svg">
<circle cx="62" cy="62" r="54" fill="#59A397"/>
<path d="M85.1457 61.6638H81.7626L79.5483 54.8364C78.4413 51.3302 75.1809 48.9932 71.552 48.9932H52.2383C48.5476 48.9932 45.3494 51.3306 44.2421 54.8364L42.0277 61.6638H38.6447C37.1683 61.6638 36 62.8326 36 64.3085V65.7848C36 67.2611 37.1688 68.4295 38.6447 68.4295H39.5671C39.0136 70.8896 38.7674 73.4116 38.7674 75.9335V88.7888C38.7674 90.2652 39.9361 91.4335 41.412 91.4335L45.9029 91.4339C47.3792 91.4339 48.5476 90.2652 48.5476 88.7893V84.6682H75.3039V88.7893C75.3039 90.2656 76.4726 91.4339 77.9485 91.4339H82.3771C83.8535 91.4339 85.0218 90.2652 85.0218 88.7893L85.0222 75.934C85.0222 73.412 84.7146 70.89 84.2225 68.4299H85.1449C86.6212 68.4299 87.7896 67.2611 87.7896 65.7852V64.3089C87.7904 62.8329 86.6217 61.6643 85.1454 61.6643L85.1457 61.6638ZM46.7027 64.4316L49.2247 56.4972C49.6555 55.2053 50.8238 54.3442 52.177 54.3442H71.4907C72.8439 54.3442 74.0741 55.2053 74.443 56.4972L76.965 64.4316C77.0881 64.8006 76.7805 65.1696 76.4115 65.1696H47.2564C46.8874 65.1696 46.6416 64.8006 46.7029 64.4316H46.7027ZM52.3001 77.41H46.949C46.0265 77.41 45.2881 76.672 45.2881 75.7491V73.2271C45.2881 72.2429 46.2106 71.4436 47.1948 71.628L52.1769 72.4278C52.8535 72.5509 53.3457 73.043 53.5301 73.7197L53.8991 75.4419C54.1453 76.4257 53.3456 77.41 52.3 77.41L52.3001 77.41ZM78.5028 75.7491C78.5028 76.6716 77.7649 77.41 76.842 77.41H71.4908C70.4452 77.41 69.6455 76.4257 69.8917 75.4415L70.2607 73.7192C70.3839 73.0426 70.9373 72.5504 71.6139 72.4273L76.596 71.6276C77.5802 71.4431 78.5027 72.2428 78.5027 73.2267L78.5028 75.7491Z" fill="white"/>
<path d="M52.7306 45.6715C55.1295 45.6715 57.1593 44.3796 58.2049 42.4115H62.326C62.5105 42.4115 62.7568 42.3501 62.8795 42.1656L64.4786 40.5665C64.5399 40.5052 64.6631 40.5052 64.7862 40.5665L66.2625 42.0428C66.447 42.2273 66.7547 42.2273 67.0005 42.0428C67.4313 41.6121 68.2306 40.8741 68.5382 40.5665C68.5996 40.5052 68.7227 40.5052 68.8458 40.5665L70.3222 42.0428C70.5067 42.2273 70.8756 42.2273 71.0601 42.0428L72.4747 40.5665C72.5361 40.5052 72.6592 40.5052 72.7824 40.5665L74.2587 42.0428C74.4432 42.2273 74.7508 42.2273 74.9967 42.0428L77.3955 39.7054C77.58 39.5209 77.58 39.1519 77.3955 38.9674L74.6894 36.3837C74.5663 36.3224 74.4436 36.2606 74.3205 36.2606H58.2052C56.852 33.8005 53.8997 32.324 50.7011 33.3083C48.7945 33.9236 47.2567 35.4613 46.7033 37.3061C45.3501 41.6735 48.5486 45.6713 52.731 45.6713L52.7306 45.6715ZM50.5163 37.5525C51.5006 37.5525 52.2998 38.3523 52.2998 39.3361C52.2998 40.3203 51.5001 41.1196 50.5163 41.1196C49.5321 41.1196 48.7328 40.3198 48.7328 39.3361C48.7941 38.3518 49.5325 37.5525 50.5163 37.5525Z" fill="white"/>
</svg>
