<svg width="124" height="124" viewBox="0 0 124 124" fill="none" xmlns="http://www.w3.org/2000/svg">
<circle cx="62" cy="62" r="54" fill="#BE3E51"/>
<g clip-path="url(#clip0_103_82)">
<path d="M44.3039 43.0136C40.2584 47.0591 40.0563 47.2799 40.0563 47.5923C40.0563 47.8683 40.1207 47.9879 40.424 48.2634C41.1229 48.8979 41.0034 48.9805 44.3312 45.6522L47.2731 42.7103L47.7143 43.1423L48.1463 43.5834L45.2048 46.5258C42.465 49.2747 42.2629 49.4955 42.2629 49.7989C42.2629 50.2491 42.8235 50.8011 43.2743 50.8011C43.5685 50.8011 43.8167 50.5803 46.5383 47.8592L49.4802 44.9173L49.94 45.3771L50.3999 45.837L47.4301 48.8067C44.1296 52.1072 44.2122 51.9877 44.7915 52.6314C45.1592 53.036 45.4813 53.1555 45.7847 52.9991C45.8951 52.9439 47.2832 51.6109 48.8552 50.0389L51.7328 47.1704L52.1648 47.6115L52.6059 48.0435L49.6362 51.0133C46.2805 54.3781 46.3909 54.213 47.0802 54.9023C47.7699 55.592 47.6043 55.7019 50.9691 52.3463L53.9389 49.3765L54.3709 49.8176L54.812 50.2496L51.944 53.1272C50.3629 54.6992 49.0295 56.1061 48.9839 56.2439C48.8552 56.5842 48.9656 56.8597 49.3794 57.2183C50.0413 57.7976 49.94 57.8619 53.2501 54.5706L56.2011 51.6287L56.6331 52.0698L57.0651 52.5018L54.1232 55.4437C51.3651 58.2018 51.1813 58.4043 51.1813 58.7077C51.1813 59.1675 51.7328 59.7191 52.1927 59.7191C52.4869 59.7191 52.7351 59.4891 55.4567 56.7771L58.3986 53.8352L58.8397 54.2672L59.2717 54.7083L57.3224 56.6759C56.1546 57.8528 55.5387 58.5147 55.8056 58.34C56.9917 57.5034 62.5813 52.9799 62.5813 52.8421C62.5813 52.8051 59.4277 49.6242 55.5666 45.7631L48.561 38.757L44.3039 43.0136Z" fill="white"/>
<path d="M80.7852 44.6134C76.6481 50.5525 76.2617 51.1227 76.5747 50.8011C76.8507 50.5251 80.1785 46.7557 80.8404 45.9742C82.2377 44.3283 83.6076 42.2048 84.0862 40.9635C84.3252 40.3477 84.546 39.4006 84.4448 39.4006C84.426 39.4006 82.7801 41.745 80.7852 44.6134Z" fill="white"/>
<path d="M82.8997 39.6214C81.824 40.017 79.9851 41.1661 78.4131 42.4256C77.889 42.8394 75.5907 44.8438 73.3107 46.8752C65.312 53.9912 61.423 57.2643 57.4419 60.2614C54.8125 62.2381 53.2678 63.2773 51.3738 64.3251L50.4085 64.8675L50.096 64.2882C49.627 63.4515 48.4501 62.3298 47.5952 61.8978C45.7198 60.9599 43.688 60.9599 41.803 61.8978C40.8747 62.3576 39.6886 63.5346 39.2014 64.4725C37.3352 68.049 39.2475 72.416 43.1274 73.4365C43.9366 73.6482 45.4074 73.6573 46.1706 73.4639C47.9173 73.004 49.3794 71.864 50.1973 70.3102L50.5098 69.7309L53.5803 68.2966C57.2302 66.6051 57.0738 66.6694 57.0003 66.8533C56.973 66.9267 56.3014 68.3797 55.5109 70.0803L54.0771 73.1696L53.4334 73.5008C52.6059 73.9237 51.2542 75.2475 50.841 76.0381C50.2986 77.0677 50.1238 77.84 50.133 79.0722C50.133 80.0101 50.179 80.2856 50.3811 80.9111C50.7123 81.9133 51.1995 82.713 51.9258 83.4301C52.6429 84.1563 53.4426 84.6435 54.4448 84.9747C55.4653 85.315 57.0469 85.3333 58.0765 85.0208C59.1522 84.6805 59.8693 84.2394 60.7429 83.3566C61.6069 82.4926 62.0667 81.7016 62.361 80.5895C62.5726 79.7898 62.5726 78.2634 62.361 77.4637C61.9654 76.0016 60.8254 74.4666 59.6029 73.7494C59.2717 73.5565 58.9962 73.3448 58.9962 73.2896C58.9962 73.0875 60.127 71.1474 61.0923 69.6949C63.1242 66.6426 66.6915 62.1282 71.0859 57.044C71.6926 56.336 73.7888 53.4123 77.3379 48.3099C83.7272 39.1434 83.4882 39.4928 83.3413 39.5019C83.2765 39.5019 83.0744 39.5571 82.8997 39.6214ZM63.4549 58.9006C64.3558 59.1306 64.9443 59.9854 64.8613 60.9507C64.8061 61.6309 64.4566 62.1186 63.8134 62.4402C62.3149 63.176 60.7333 61.8704 61.1562 60.2523C61.3218 59.5995 61.8824 59.0389 62.5352 58.8824C62.9398 58.7902 63.0133 58.7902 63.4549 58.9006ZM45.3339 63.3968C47.5496 63.7554 49.0942 65.9158 48.6987 68.095C48.2115 70.8618 45.1774 72.3056 42.704 70.963C42.1064 70.6414 41.2971 69.7678 41.0125 69.1429C40.0933 67.1384 40.9112 64.7667 42.8422 63.8106C43.7984 63.3416 44.396 63.2403 45.3339 63.3968ZM57.8005 75.2384C58.8118 75.6339 59.7219 76.544 60.1083 77.5554C60.2278 77.8587 60.3291 78.3646 60.3565 78.8058C60.4578 80.5064 59.5659 81.9959 58.0122 82.7317C57.4237 83.0077 57.332 83.0259 56.3298 83.0259C55.3366 83.0259 55.2358 83.0077 54.6565 82.7317C53.5899 82.2263 52.8267 81.38 52.4682 80.3048C52.3026 79.8176 52.2752 79.5598 52.3026 78.8427C52.3299 78.0982 52.376 77.8774 52.6242 77.3442C53.1296 76.2776 54.224 75.3402 55.281 75.0824C55.879 74.9351 57.2307 75.0176 57.8005 75.2384Z" fill="white"/>
<path d="M69.9363 62.2751C67.1783 65.5943 63.4088 70.5128 63.4088 70.7888C63.4088 71.0187 64.0064 70.4763 66.5807 67.9021L69.5226 64.9602L69.9824 65.42L70.4331 65.8799L67.4725 68.8496C64.172 72.1501 64.2546 72.0306 64.8339 72.6743C65.2016 73.0789 65.5237 73.1984 65.8271 73.0419C65.9375 72.9867 67.3256 71.6538 68.8976 70.0813L71.7752 67.2128L72.2072 67.6539L72.6483 68.0859L69.6786 71.0557C66.3229 74.4205 66.4333 74.2549 67.1226 74.9447C67.8123 75.6344 67.6467 75.7443 71.0115 72.3887L73.9813 69.428L74.4411 69.8787L74.901 70.3386L71.9408 73.2983C68.576 76.6631 68.6586 76.5435 69.3666 77.1963C70.0746 77.8674 69.9459 77.9504 73.2925 74.613L76.2344 71.6711L76.6755 72.1031L77.1075 72.5442L74.1656 75.4861C71.4258 78.2351 71.2237 78.4559 71.2237 78.7592C71.2237 79.2099 71.7843 79.7615 72.2351 79.7615C72.5384 79.7615 72.7683 79.5498 75.4991 76.8195L78.441 73.8776L78.873 74.3096L79.3141 74.7416L76.3722 77.6927C73.0808 81.0023 73.1451 80.9015 73.7245 81.5634C74.0831 81.9771 74.3591 82.0875 74.6989 81.9589C74.8367 81.9037 76.2435 80.5799 77.8247 78.9983L80.6931 76.1298L81.1251 76.5709L81.5663 77.0029L78.5965 79.9727C75.2408 83.3375 75.3512 83.1719 76.0405 83.8616C76.7394 84.5696 76.4264 84.8087 81.2442 79.9909L85.5195 75.7155L78.2111 68.4162L70.9016 61.1164L69.9363 62.2751Z" fill="white"/>
</g>
<defs>
<clipPath id="clip0_103_82">
<rect width="48" height="48" fill="white" transform="translate(38 38)"/>
</clipPath>
</defs>
</svg>
