<svg width="124" height="124" viewBox="0 0 124 124" fill="none" xmlns="http://www.w3.org/2000/svg">
<circle cx="62" cy="62" r="54" fill="#407CD0"/>
<path d="M83.8751 73.75C84.5052 73.75 85 73.2549 85 72.6251C85 71.995 84.5048 71.5002 83.8751 71.5002H76.0003L75.9999 70.3749C75.9999 69.7448 75.5048 69.25 74.875 69.25H70.375C67.2702 69.25 64.75 71.7702 64.75 74.8751V76H50.125C45.7827 76 42.2502 72.4674 42.2502 68.1251V59.1249C42.2502 55.1647 45.1977 51.9249 49.0001 51.3623V52.375C49.0001 52.6673 49.1127 52.96 49.3376 53.1625L51.5874 55.4123C51.7898 55.6375 52.0825 55.7501 52.3748 55.7501H53.7022C54.1746 57.0551 55.4121 57.9999 56.8749 57.9999C58.3373 57.9999 59.5748 57.0551 60.0476 55.7501H69.4527C69.9251 57.0551 71.1626 57.9999 72.6254 57.9999C74.0878 57.9999 75.3253 57.0551 75.7981 55.7501H77.1251C80.2298 55.7501 82.75 53.2299 82.75 50.1251C82.75 47.0199 80.2298 44.5001 77.1251 44.5001H72.9625L66.5049 40.1801C66.3248 40.0675 66.1 40 65.8751 40H54.6252C54.2426 40 53.9052 40.1801 53.6804 40.4952L49.1803 47.2451C49.0677 47.4252 49.0002 47.65 49.0002 47.8748V49.1123C43.9602 49.675 40 53.9275 40 59.1249V68.1251C40 73.705 44.5448 78.2501 50.125 78.2501H64.7499L64.7495 79.375C64.7495 82.4798 67.2697 85 70.3745 85H74.8746C75.5047 85 75.9995 84.5048 75.9995 83.8751V82.7502H83.8747C84.5048 82.7502 84.9996 82.255 84.9996 81.6253C84.9996 80.9952 84.5044 80.5004 83.8747 80.5004H75.9999V73.7505L83.8751 73.75ZM72.6251 53.5C73.2553 53.5 73.75 53.9952 73.75 54.6249C73.75 55.2551 73.2549 55.7502 72.6251 55.7502C71.995 55.7502 71.5002 55.255 71.5002 54.6253C71.5002 53.9952 71.995 53.5 72.6251 53.5ZM56.8752 53.5C57.5053 53.5 58.0001 53.9952 58.0001 54.6249C58.0001 55.2551 57.5053 55.7502 56.8752 55.7502C56.2451 55.7502 55.7503 55.255 55.7503 54.6253C55.7503 53.9952 56.2451 53.5 56.8752 53.5Z" fill="white"/>
</svg>
