<svg width="124" height="124" viewBox="0 0 124 124" fill="none" xmlns="http://www.w3.org/2000/svg">
<circle cx="62" cy="62" r="54" fill="#D66EB8"/>
<path d="M71 78C71 71.9249 75.9249 67 82 67H84.3571C90.4323 67 95.3571 71.9249 95.3571 78H71Z" fill="white"/>
<path d="M29 77.9999C29 72.3587 33.5731 67.7856 39.2143 67.7856H41.5714C47.2126 67.7856 51.7857 72.3587 51.7857 77.9999H29Z" fill="white"/>
<circle cx="62" cy="53" r="7" fill="white"/>
<circle cx="83" cy="59" r="6" fill="white"/>
<circle cx="40" cy="59" r="6" fill="white"/>
<path fill-rule="evenodd" clip-rule="evenodd" d="M53.9589 77.9998C53.7172 75.0713 52.424 72.441 50.4578 70.4873C52.7741 66.5214 57.0758 63.8569 61.9999 63.8569C66.5289 63.8569 70.5315 66.111 72.9469 69.5585C70.5345 71.5762 69.0001 74.6088 69 77.9998H53.9589Z" fill="white"/>
</svg>
