<svg width="124" height="124" viewBox="0 0 124 124" fill="none" xmlns="http://www.w3.org/2000/svg">
<circle cx="62" cy="62" r="54" fill="#407CD0"/>
<path d="M71.1943 67.3906V87.1721C71.1943 88.0577 71.9878 89 72.871 89H80.9229C81.8073 89 82.3638 88.0581 82.3638 87.1721L82.3642 54.5225C81.6249 56.2516 80.7527 57.8647 79.7477 59.3506C77.5339 62.6231 74.6559 65.3257 71.1944 67.391L71.1943 67.3906Z" fill="white"/>
<path d="M38.5781 87.1722C38.5781 88.0579 39.3211 89.0002 40.2056 89.0002H48.2583C49.1407 89.0002 49.7487 88.0583 49.7487 87.1722L49.7483 72.3831C44.8225 72.3286 40.7246 71.6787 38.5786 71.2612L38.5781 87.1722Z" fill="white"/>
<path d="M55.1104 72.1888V87.1711C55.1104 88.0568 55.6541 88.999 56.5401 88.999H64.5896C65.4761 88.999 66.2801 88.0559 66.2801 87.1711L66.2805 69.7515C64.476 70.4362 62.5562 70.9918 60.5326 71.4101C58.8027 71.7676 56.9899 72.0276 55.1104 72.1887L55.1104 72.1888Z" fill="white"/>
<path d="M64.3747 56.7109C64.4588 56.6027 64.5412 56.494 64.622 56.3858C64.6109 56.3854 64.6002 56.3837 64.5892 56.3837L56.5401 56.3833C55.6541 56.3833 55.1104 57.3075 55.1104 58.1916V63.4635C55.4347 63.3339 55.7549 63.2006 56.0686 63.0612C59.4879 61.5368 62.2827 59.4 64.3747 56.711L64.3747 56.7109Z" fill="white"/>
<path d="M82.285 45.4488H87.1153L76.2206 35.9126L65.3258 45.4488H71.1828C71.104 47.1944 70.5169 53.0357 66.2796 58.401C63.8969 61.4176 60.3598 64.2833 55.1098 66.1859C51.7209 67.4139 47.6176 68.2402 42.6499 68.4468C41.8463 68.4801 41.0208 68.4981 40.1709 68.4981C40.0626 68.4981 39.9532 68.4973 39.8445 68.4965C39.1077 68.4928 38.3565 68.4768 37.584 68.4468C37.584 68.4468 38.1888 68.5981 39.2581 68.8011C41.3337 69.1952 45.1602 69.784 49.7153 69.8393C49.9449 69.8422 50.1766 69.8434 50.4099 69.8434C51.9164 69.8434 53.4946 69.7831 55.1093 69.6368C58.782 69.305 62.6433 68.5292 66.2791 67.0166C67.9812 66.3085 69.6336 65.4384 71.1938 64.3764C76.5455 60.7345 80.8152 54.8341 82.2838 45.4495L82.285 45.4488Z" fill="white"/>
</svg>
