<svg width="124" height="124" viewBox="0 0 124 124" fill="none" xmlns="http://www.w3.org/2000/svg">
<circle cx="62" cy="62" r="54" fill="#9E86B3"/>
<path d="M67.4512 74.372C64.2456 74.4312 61.091 73.5624 58.3667 71.8702L46.254 84L41 78.5872L53.1127 66.4574C50.8429 62.8104 50.0825 58.4208 50.993 54.2211L67.5121 70.8233C67.5121 70.9296 67.5121 71.0355 67.4363 71.1418C67.3654 71.5219 67.3299 71.9077 67.3302 72.2942V72.7795V72.7792C67.3174 73.3126 67.3579 73.8459 67.4516 74.3712L67.4512 74.372ZM76.3843 63.6674V63.6678C77.723 63.6623 79.0448 63.9686 80.2452 64.5622C80.8485 64.8235 81.4136 65.1653 81.9256 65.5779C83.7551 62.1722 84.3451 58.2354 83.5955 54.4411C82.8463 50.6471 80.8033 47.2322 77.817 44.7805C74.8304 42.3285 71.0857 40.9923 67.2245 41.0001C65.0368 40.9923 62.8698 41.4215 60.8497 42.2625C58.8297 43.1032 56.9973 44.3392 55.4599 45.8973C54.0032 47.3695 52.8281 49.096 51.9927 50.9919L68.799 67.822C70.4652 65.2438 73.3179 63.6815 76.3847 63.6677L76.3843 63.6674ZM83.9548 72.7648V72.7651C83.9541 70.4739 82.9189 68.3058 81.1385 66.8667C80.6741 66.4924 80.1658 66.1767 79.6244 65.9268C78.6237 65.4405 77.5266 65.1863 76.4144 65.184C73.7269 65.1884 71.2431 66.6196 69.8886 68.944C69.4381 69.7048 69.116 70.5347 68.9349 71.4005C68.8933 71.6665 68.8679 71.9349 68.8592 72.2039C68.8436 72.2892 68.8436 72.3766 68.8592 72.4618V72.7956V72.7952C68.8622 73.3042 68.9129 73.8119 69.0106 74.3114C69.3597 76.024 70.2887 77.5628 71.6406 78.6682C72.9924 79.7732 74.6843 80.3767 76.4296 80.3763C78.4374 80.3763 80.3628 79.5776 81.7826 78.1558C83.2024 76.7344 84 74.8059 84 72.7952L83.9548 72.7648Z" fill="white"/>
</svg>
