<svg width="124" height="124" viewBox="0 0 124 124" fill="none" xmlns="http://www.w3.org/2000/svg">
<circle cx="62" cy="62" r="54" fill="#407CD0"/>
<path d="M82.0614 59.6287H77.5748C77.1875 57.5011 76.3538 55.4795 75.1279 53.6977L78.2965 50.5153C78.8232 49.9891 79.119 49.2757 79.119 48.5314C79.119 47.7871 78.8232 47.0733 78.2965 46.5475C77.7708 46.0209 77.0569 45.725 76.3126 45.725C75.5684 45.725 74.8549 46.0209 74.3287 46.5475L71.1669 49.7094L71.1674 49.7089C69.386 48.484 67.364 47.6521 65.2364 47.2693V42.8038C65.2364 41.8019 64.7019 40.8763 63.8344 40.3755C62.967 39.8748 61.898 39.8748 61.0306 40.3755C60.1631 40.8763 59.6287 41.802 59.6287 42.8038V47.2693C57.4991 47.6586 55.4771 48.4977 53.6977 49.7299L50.5153 46.5686C49.9891 46.0419 49.2757 45.7461 48.5314 45.7461C47.7871 45.7461 47.0733 46.0419 46.5475 46.5686C46.0209 47.0942 45.725 47.8082 45.725 48.5525C45.725 49.2967 46.0209 50.0102 46.5475 50.5363L49.7094 53.6982L49.7089 53.6977C48.4933 55.4821 47.6693 57.503 47.2904 59.6287H42.8038C41.8019 59.6287 40.8763 60.1632 40.3755 61.0306C39.8748 61.8981 39.8748 62.9671 40.3755 63.8345C40.8763 64.7019 41.802 65.2364 42.8038 65.2364H47.2904C47.3466 65.54 47.4116 65.8437 47.4864 66.1479H47.4869C47.7075 66.9576 48.2791 67.6256 49.0443 67.9689C49.8101 68.3126 50.6894 68.295 51.4404 67.9214C52.0028 67.6388 52.4536 67.1757 52.7207 66.606C52.9877 66.0363 53.0552 65.3938 52.9129 64.7811C52.396 62.7059 52.5711 60.519 53.4112 58.5523C54.2512 56.5861 55.7109 54.9479 57.5676 53.8868C58.3338 53.4364 59.1632 53.1034 60.0282 52.8985C63.3783 52.053 66.926 53.0315 69.3694 55.4745C71.8124 57.9181 72.7909 61.4656 71.9454 64.8157C71.7791 65.7585 72.1053 66.7204 72.8104 67.3678C73.5151 68.0148 74.5019 68.2583 75.4265 68.0123C76.3517 67.7668 77.0872 67.0666 77.3781 66.1546C77.4529 65.8509 77.5184 65.5473 77.5742 65.2431L82.0612 65.2436C83.0631 65.2436 83.9887 64.7092 84.4895 63.8417C84.9902 62.9737 84.9902 61.9048 84.4895 61.0374C83.9887 60.1699 83.063 59.6355 82.0612 59.6355L82.0614 59.6287Z" fill="white"/>
<path d="M82.0609 71.5459C79.4213 71.5493 76.8947 72.6153 75.0507 74.5043C73.2068 72.6153 70.6801 71.5494 68.0405 71.5459C67.0386 71.5459 66.113 72.0804 65.6122 72.9478C65.111 73.8153 65.111 74.8843 65.6122 75.7516C66.113 76.6196 67.0387 77.1541 68.0405 77.1541C69.1559 77.1541 70.2258 77.5971 71.0146 78.3858C71.8034 79.1746 72.2464 80.2445 72.2464 81.3599V82.0611C72.2464 83.0631 72.7808 83.9887 73.6488 84.4894C74.5163 84.9901 75.5852 84.9901 76.4526 84.4894C77.32 83.9887 77.8545 83.063 77.8545 82.0611V81.3599C77.8545 80.2445 78.2976 79.1746 79.0868 78.3858C79.8756 77.5971 80.9455 77.1541 82.0609 77.1541C83.0628 77.1541 83.9884 76.6196 84.4892 75.7516C84.9899 74.8842 84.9899 73.8152 84.4892 72.9478C83.9884 72.0804 83.0627 71.5459 82.0609 71.5459H82.0609Z" fill="white"/>
<path d="M47.7113 82.0616C47.7113 83.0636 48.2457 83.9892 49.1137 84.4899C49.9812 84.9906 51.0501 84.9906 51.9175 84.4899C52.7849 83.9892 53.3194 83.0635 53.3194 82.0616V81.3604C53.3194 80.245 53.7625 79.1751 54.5517 78.3863C55.3404 77.5976 56.4104 77.1545 57.5258 77.1545C58.5277 77.1545 59.4533 76.6201 59.9541 75.7521C60.4548 74.8847 60.4548 73.8157 59.9541 72.9483C59.4533 72.0809 58.5276 71.5464 57.5258 71.5464C54.8862 71.5498 52.3595 72.6158 50.5156 74.5048C48.6716 72.6158 46.145 71.5499 43.5054 71.5464C42.5034 71.5464 41.5778 72.0809 41.0771 72.9483C40.5759 73.8158 40.5759 74.8847 41.0771 75.7521C41.5778 76.6201 42.5035 77.1545 43.5054 77.1545C44.6208 77.1545 45.6907 77.5976 46.4795 78.3863C47.2682 79.1751 47.7112 80.245 47.7112 81.3604L47.7113 82.0616Z" fill="white"/>
</svg>
