<svg width="124" height="124" viewBox="0 0 124 124" fill="none" xmlns="http://www.w3.org/2000/svg">
<circle cx="62" cy="62" r="54" fill="#A35980"/>
<path fill-rule="evenodd" clip-rule="evenodd" d="M44 48C42.8954 48 42 48.8954 42 50V74.8889C42 75.9935 42.8954 76.8889 44 76.8889H80C81.1046 76.8889 82 75.9935 82 74.8889V50C82 48.8954 81.1046 48 80 48H44ZM77.9119 52.7654C77.4756 51.955 76.4648 51.6518 75.6543 52.0882L62.0001 59.4405L48.3458 52.0882C47.5353 51.6518 46.5246 51.955 46.0882 52.7654C45.6518 53.5759 45.955 54.5867 46.7654 55.0231L61.2099 62.8008C61.7032 63.0665 62.2969 63.0665 62.7902 62.8008L77.2347 55.0231C78.0451 54.5867 78.3483 53.5759 77.9119 52.7654Z" fill="white"/>
</svg>
