<svg width="124" height="124" viewBox="0 0 124 124" fill="none" xmlns="http://www.w3.org/2000/svg">
<circle cx="62" cy="62" r="54" fill="#407CD0"/>
<path d="M62.7463 44L83.9817 53.9095C84.355 54.0843 84.5939 54.4591 84.5939 54.872C84.5939 55.2849 84.355 55.6593 83.9817 55.834L62.7463 65.7445C62.6041 65.8108 62.4504 65.8445 62.2971 65.8445C62.1438 65.8445 61.9901 65.8112 61.8479 65.7445L40.6125 55.834C40.2389 55.6585 40 55.2837 40 54.8712C40 54.4587 40.2389 54.0839 40.6125 53.9088M62.7466 72.8225L83.982 62.913C84.5131 62.6645 84.7434 62.0335 84.4949 61.5013C84.2472 60.9703 83.618 60.7396 83.0836 60.9884L62.2976 70.6884L41.5115 60.9884C40.9805 60.7414 40.3487 60.9703 40.1002 61.5013C39.8525 62.0331 40.0817 62.6645 40.6135 62.913L61.8489 72.8225C61.9911 72.8888 62.1448 72.9225 62.2981 72.9225C62.4518 72.9221 62.6047 72.8888 62.7469 72.8225H62.7466ZM62.7466 79.9011L83.982 69.9906C84.5131 69.7421 84.7434 69.1111 84.4949 68.5789C84.2472 68.0479 83.618 67.8165 83.0836 68.0661L62.2976 77.7661L41.5115 68.0661C40.9805 67.8191 40.3487 68.0479 40.1002 68.5789C39.8525 69.1107 40.0817 69.7422 40.6135 69.9906L61.8489 79.9011C61.9907 79.9674 62.1444 80 62.2977 80C62.451 80 62.6047 79.9674 62.7469 79.9008L62.7466 79.9011Z" fill="white"/>
</svg>
