<svg width="124" height="124" viewBox="0 0 124 124" version="1.1" xmlns="http://www.w3.org/2000/svg" xmlns:xlink="http://www.w3.org/1999/xlink" xml:space="preserve" xmlns:serif="http://www.serif.com/" style="fill-rule:evenodd;clip-rule:evenodd;stroke-linejoin:round;stroke-miterlimit:2;">
    <circle cx="62" cy="62" r="54" style="fill:rgb(233,167,43);"/>
    <path d="M62.305,38C62.305,40.761 60.066,43 57.305,43C54.543,43 52.305,40.761 52.305,38C52.305,35.239 54.543,33 57.305,33C60.066,33 62.305,35.239 62.305,38ZM48.166,84L34.826,84L34.108,83.643C31.49,82.339 29.884,79.619 30.007,76.697C30.173,72.729 33.439,69.597 37.411,69.597L44.812,69.597C45.444,69.597 46.046,69.334 46.476,68.871L53.305,61.509L53.305,48.5C53.305,46.015 55.32,44 57.805,44C60.29,44 62.305,46.015 62.305,48.5L62.305,51.807L71.754,41.62C72.713,40.587 74.058,40 75.467,40L87.143,40C91.098,40 94.305,43.207 94.305,47.162C94.305,51.117 91.098,54.324 87.143,54.324L79.735,54.324C78.638,54.324 77.59,54.784 76.848,55.594L52.588,82.055C51.452,83.294 49.847,84 48.166,84ZM37.411,73.597L44.812,73.597C46.557,73.597 48.222,72.87 49.408,71.591L74.687,44.34C74.888,44.123 75.171,44 75.467,44L87.143,44C88.889,44 90.305,45.416 90.305,47.162C90.305,48.908 88.889,50.324 87.143,50.324L79.735,50.324C77.516,50.324 75.399,51.255 73.9,52.89L49.64,79.352C49.261,79.765 48.726,80 48.166,80L35.773,80C34.638,79.379 33.948,78.165 34.003,76.865C34.08,75.038 35.583,73.597 37.411,73.597Z" style="fill:white;"/>
</svg>
