<svg width="124" height="124" viewBox="0 0 124 124" fill="none" xmlns="http://www.w3.org/2000/svg">
<circle cx="62" cy="62" r="54" fill="#F36F6A"/>
<path d="M86.1726 36H57.8276C57.3721 36.0032 57.0032 36.3719 57 36.8272V53.0653C57 53.5233 57.3697 53.8952 57.8276 53.8984H66.9491C67.3339 53.8984 67.7032 54.0509 67.9753 54.3232C68.2474 54.5951 68.4004 54.9639 68.4004 55.3488V65.1728C68.4036 65.6285 68.7721 65.9972 69.2281 66H86.1723C86.6282 65.9972 86.9971 65.6285 86.9999 65.1728V36.8446C87.0031 36.6229 86.9173 36.4091 86.7619 36.2506C86.6069 36.0922 86.3945 36.0021 86.1723 36.0005L86.1726 36ZM64.1708 45.6599C63.3199 45.6599 62.5036 45.322 61.9022 44.7209C61.3004 44.1194 60.9623 43.3037 60.9623 42.4532C60.9623 41.6028 61.3004 40.787 61.9022 40.1856C62.5037 39.5845 63.3199 39.2466 64.1708 39.2466C65.0218 39.2466 65.838 39.5845 66.4398 40.1856C67.0417 40.7871 67.3798 41.6028 67.3798 42.4532C67.3798 43.3037 67.0417 44.1195 66.4398 44.7209C65.838 45.322 65.0218 45.6599 64.1708 45.6599ZM71.9997 54.2038C71.1487 54.2038 70.3329 53.8659 69.7311 53.2644C69.1292 52.6633 68.7911 51.8476 68.7911 50.9971C68.7911 50.1467 69.1292 49.3309 69.7311 48.7295C70.333 48.128 71.1487 47.7905 71.9997 47.7905C72.8507 47.7905 73.6669 48.128 74.2687 48.7295C74.8706 49.331 75.2087 50.1467 75.2087 50.9971C75.2087 51.8476 74.8706 52.6633 74.2687 53.2644C73.6669 53.8659 72.8507 54.2038 71.9997 54.2038ZM79.8514 62.7533C79.0005 62.7533 78.1843 62.4154 77.5824 61.8139C76.9806 61.2128 76.6429 60.397 76.6429 59.5466C76.6429 58.6961 76.9806 57.8804 77.5824 57.2789C78.1843 56.6774 79.0005 56.3399 79.8514 56.3399C80.7024 56.3399 81.5186 56.6774 82.1201 57.2789C82.7219 57.8804 83.06 58.6961 83.06 59.5466C83.06 60.397 82.7219 61.2128 82.1201 61.8139C81.5186 62.4154 80.7024 62.7533 79.8514 62.7533Z" fill="white"/>
<path d="M64.8387 57.332H36.9215C36.4128 57.332 36 57.7187 36 58.1954V84.35C36 84.8266 36.4128 85.2133 36.9215 85.2133H64.8387C65.0829 85.2133 65.3173 85.1223 65.4901 84.9603C65.663 84.7984 65.7602 84.5788 65.7602 84.35V58.1954C65.7602 57.9666 65.663 57.747 65.4901 57.5851C65.3173 57.4231 65.0829 57.332 64.8387 57.332ZM43.1088 82.1968C42.2653 82.1968 41.4562 81.8828 40.8601 81.3243C40.2635 80.7654 39.9284 80.0074 39.9284 79.2171C39.9284 78.4269 40.2635 77.6689 40.8601 77.11C41.4563 76.5514 42.2653 76.2375 43.1088 76.2375C43.9523 76.2375 44.7614 76.5514 45.358 77.11C45.9546 77.6689 46.2893 78.4269 46.2893 79.2171C46.2893 80.0074 45.9546 80.7654 45.358 81.3243C44.7614 81.8828 43.9523 82.1968 43.1088 82.1968ZM43.1088 74.2577C42.2653 74.2577 41.4562 73.9441 40.8601 73.3852C40.2635 72.8263 39.9284 72.0683 39.9284 71.2781C39.9284 70.4878 40.2635 69.7298 40.8601 69.1713C41.4563 68.6124 42.2653 68.2984 43.1088 68.2984C43.9523 68.2984 44.7614 68.6124 45.358 69.1713C45.9546 69.7298 46.2893 70.4878 46.2893 71.2781C46.285 72.0658 45.9479 72.8196 45.3521 73.375C44.7559 73.9302 43.9496 74.242 43.1089 74.242L43.1088 74.2577ZM43.1088 66.3187V66.319C42.2653 66.319 41.4562 66.0051 40.8601 65.4461C40.2635 64.8872 39.9284 64.1296 39.9284 63.3394C39.9284 62.5491 40.2635 61.7911 40.8601 61.2322C41.4563 60.6733 42.2653 60.3593 43.1088 60.3593C43.9523 60.3593 44.7614 60.6733 45.358 61.2322C45.9546 61.7911 46.2893 62.5491 46.2893 63.3394C46.2881 64.1285 45.9522 64.885 45.356 65.4428C44.7594 66.0003 43.9516 66.3135 43.1088 66.3135L43.1088 66.3187ZM58.6524 82.197C57.8088 82.197 56.9998 81.883 56.4032 81.3245C55.8066 80.7656 55.4715 80.0076 55.4715 79.2173C55.4715 78.4271 55.8066 77.6691 56.4032 77.1102C56.9998 76.5516 57.8089 76.2377 58.6524 76.2377C59.4959 76.2377 60.3049 76.5516 60.9011 77.1102C61.4977 77.6691 61.8328 78.4271 61.8328 79.2173C61.8328 80.0076 61.4977 80.7656 60.9011 81.3245C60.3049 81.883 59.4959 82.197 58.6524 82.197ZM58.6524 74.2579C57.8088 74.2579 56.9998 73.9443 56.4032 73.3854C55.8066 72.8265 55.4715 72.0685 55.4715 71.2783C55.4715 70.488 55.8066 69.73 56.4032 69.1715C56.9998 68.6126 57.8089 68.2986 58.6524 68.2986C59.4959 68.2986 60.3049 68.6126 60.9011 69.1715C61.4977 69.73 61.8328 70.488 61.8328 71.2783C61.8281 72.066 61.4914 72.8198 60.8952 73.3752C60.2994 73.9304 59.4927 74.2422 58.6523 74.2422L58.6524 74.2579ZM58.6524 66.3189V66.3192C57.8088 66.3192 56.9998 66.0052 56.4032 65.4463C55.8066 64.8874 55.4715 64.1298 55.4715 63.3395C55.4715 62.5493 55.8066 61.7913 56.4032 61.2324C56.9998 60.6735 57.8089 60.3595 58.6524 60.3595C59.4959 60.3595 60.3049 60.6735 60.9011 61.2324C61.4977 61.7913 61.8328 62.5493 61.8328 63.3395C61.8313 64.1287 61.4953 64.8852 60.8991 65.443C60.303 66.0005 59.4947 66.3137 58.6523 66.3137L58.6524 66.3189Z" fill="white"/>
</svg>
