<svg width="124" height="124" viewBox="0 0 124 124" fill="none" xmlns="http://www.w3.org/2000/svg">
<circle cx="62" cy="62" r="54" fill="#595BA3"/>
<path d="M77.5654 82.7672L67.5635 66.9853V51.5398H69.2896C70.148 51.5398 70.8449 50.8441 70.8449 49.9845C70.8449 49.1248 70.148 48.4292 69.2896 48.4292H54.7043C53.8451 48.4292 53.149 49.1248 53.149 49.9845C53.149 50.8441 53.8447 51.5398 54.7043 51.5398H56.4247L56.3686 67.053L46.5022 82.6589C45.7354 83.6735 45.6101 85.0127 46.1768 86.1522C46.7435 87.2925 47.8866 87.9999 49.16 87.9999H74.8345C76.107 87.9999 77.2501 87.2912 77.8177 86.1522C78.3836 85.0123 78.2607 83.6743 77.5655 82.7659L77.5654 82.7672ZM75.0318 84.7675C74.9711 84.8912 74.8719 84.8912 74.834 84.8912H49.1606C49.124 84.8912 49.0243 84.8912 48.9629 84.7687C48.9023 84.6463 48.9617 84.5673 49.0585 84.4306L58.9269 68.8237C59.324 68.2977 59.542 67.6444 59.542 66.9854L59.5424 51.5409H64.453V66.9854C64.453 67.6444 64.671 68.2978 64.9961 68.718L75.0113 84.5364C75.0321 84.5669 75.0927 84.6454 75.0321 84.7674L75.0318 84.7675Z" fill="white"/>
<path d="M62.828 45.2862C62.828 46.4497 61.8846 47.3927 60.7214 47.3927C59.558 47.3927 58.6146 46.4497 58.6146 45.2862C58.6146 44.1227 59.558 43.1797 60.7214 43.1797C61.8845 43.1797 62.828 44.1227 62.828 45.2862Z" fill="white"/>
<path d="M67.0209 38.3175C67.0209 40.0179 65.6427 41.3962 63.9422 41.3962C62.2418 41.3962 60.8635 40.0179 60.8635 38.3175C60.8635 36.6174 62.2418 35.2388 63.9422 35.2388C65.6427 35.2388 67.0209 36.6174 67.0209 38.3175Z" fill="white"/>
<path d="M65.0401 78.1902C61.6253 78.4095 57.562 73.7462 56.4075 75.1953C56.0869 75.5976 52.001 82.146 52.001 82.146C51.2435 83.2863 51.5669 83.6268 52.817 83.6268H71.9492C72.3809 83.6268 72.6429 83.1509 72.4118 82.7859L69.1329 77.608C68.9958 77.3916 68.7282 77.3029 68.4873 77.39C67.3731 77.7919 66.2384 78.1125 65.0404 78.1902L65.0401 78.1902Z" fill="white"/>
</svg>
