<svg width="124" height="124" viewBox="0 0 124 124" fill="none" xmlns="http://www.w3.org/2000/svg">
<circle cx="62" cy="62" r="54" fill="#F36F6A"/>
<path d="M43.8583 49.5214L43.289 47.873L41.8467 48.7738L42.4715 50.3324L43.8583 49.5214Z" fill="white"/>
<path d="M43.0234 57.9558L44.6676 62.0554L48.3473 59.9052L46.8482 55.5679L43.0234 57.9558Z" fill="white"/>
<path d="M34.1373 56.0711C34.26 56.1187 34.3895 56.128 34.5255 56.1054H34.5282C34.717 56.0725 34.8808 55.9654 34.9918 55.8082C35.1015 55.6497 35.1437 55.4582 35.1095 55.2681C35.071 55.0567 34.9417 54.8758 34.7553 54.7688L32.7741 53.6436L31.3082 55.3897C31.1709 55.5546 31.114 55.77 31.1523 55.9801C31.1866 56.1689 31.2923 56.3341 31.4508 56.4437C31.6106 56.5545 31.8048 56.5954 31.9963 56.5611C32.1243 56.5386 32.2446 56.4807 32.3436 56.3933L32.8944 55.9126C33.0463 55.7793 33.2603 55.7395 33.4505 55.8122L34.1373 56.0711Z" fill="white"/>
<path d="M33.4736 56.9942L33.3706 56.9546L33.2861 57.0284L33.318 58.0046L33.7788 57.9372L33.4736 56.9942Z" fill="white"/>
<path d="M33.1798 68.1108C33.0016 67.7754 32.9632 67.3898 33.0728 67.0265L38.0007 50.8286L29.2825 52.6656C29.0897 52.7107 28.9668 52.9022 29.0079 53.1069L33.7786 75.6445C33.7985 75.7369 33.8513 75.8149 33.9318 75.8665C34.0123 75.9206 34.1087 75.9405 34.2027 75.9206L47.8873 73.0177L34.0204 68.7989C33.6587 68.6892 33.3602 68.4462 33.1804 68.1108L33.1798 68.1108ZM32.2315 58.2011L32.2209 58.0651L32.2078 57.6357C32.2025 57.6357 32.1972 57.6397 32.1919 57.6397C32.0822 57.6596 31.9712 57.6687 31.8618 57.6687C31.4945 57.6687 31.1355 57.559 30.8263 57.3438C30.4261 57.0692 30.1579 56.6544 30.0721 56.1764C29.9757 55.6428 30.121 55.0987 30.4684 54.6852L32.2277 52.5877C32.3969 52.3843 32.6888 52.3328 32.9185 52.4637L35.2972 53.8162C35.7675 54.0831 36.0923 54.5413 36.1874 55.0737C36.2732 55.5517 36.1675 56.0353 35.8902 56.4342C35.6154 56.8326 35.1995 57.0995 34.7212 57.1853C34.7133 57.1867 34.7053 57.1853 34.6973 57.1867L34.8267 57.5723C34.8333 57.5908 34.8623 57.6859 34.8663 57.7056C34.9231 58.0187 34.857 58.3172 34.6854 58.5615C34.5149 58.8032 34.2615 58.9644 33.9708 59.0159L33.5243 59.0964C33.4569 59.1083 33.391 59.115 33.3236 59.115C33.1005 59.115 32.8811 59.0462 32.6936 58.9168C32.4482 58.7466 32.2857 58.493 32.2315 58.2011L32.2315 58.2011Z" fill="white"/>
<path d="M47.6934 68.5796L48.3182 70.1396L49.705 69.3285L49.1356 67.6802L47.6934 68.5796Z" fill="white"/>
<path d="M57.0731 49.8264L41.2557 45.0149C41.1725 44.9885 41.0852 44.9976 41.0087 45.0387C40.9322 45.0796 40.8767 45.1471 40.8515 45.2302L34.1246 67.346C34.0996 67.4292 34.1074 67.5165 34.1485 67.593C34.1894 67.6695 34.2568 67.7237 34.3387 67.7502L50.155 72.5618C50.3242 72.6107 50.5063 72.5169 50.5592 72.3478L57.2872 50.2303C57.3122 50.1471 57.3044 50.0598 57.2633 49.9833C57.2237 49.9065 57.1549 49.8511 57.0731 49.8261V49.8264ZM41.6898 51.332L40.657 48.7565C40.558 48.5095 40.6504 48.2269 40.875 48.087L43.292 46.5786C43.4359 46.4915 43.609 46.4703 43.766 46.5271C43.9232 46.5826 44.0473 46.7066 44.1015 46.8652L45.0432 49.5912C45.129 49.8395 45.0273 50.1128 44.8015 50.2451L42.4756 51.6042C42.3912 51.6544 42.2961 51.6794 42.1997 51.6794C42.1402 51.6794 42.0794 51.6701 42.0215 51.6504C41.8696 51.5949 41.7493 51.48 41.6898 51.332L41.6898 51.332ZM44.3949 63.4C44.3354 63.4 44.2746 63.3894 44.2167 63.3697C44.0661 63.3182 43.9445 63.2032 43.8852 63.0553L41.834 57.9386C41.7349 57.6916 41.8274 57.4103 42.052 57.2701L46.8516 54.2734C46.9943 54.1863 47.1674 54.1651 47.3257 54.2219C47.4829 54.2774 47.607 54.4015 47.6611 54.56L49.5326 59.9752C49.6184 60.2235 49.5167 60.4968 49.2909 60.629L44.6721 63.3275C44.5863 63.3748 44.4912 63.4 44.3948 63.4L44.3949 63.4ZM50.6485 70.0499L48.3226 71.4091C48.2382 71.4592 48.1431 71.4842 48.0467 71.4842C47.9859 71.4842 47.9264 71.4736 47.8685 71.4539C47.7179 71.4024 47.5963 71.2874 47.537 71.1395L46.5042 68.5627C46.4052 68.3157 46.4976 68.0345 46.7222 67.8932L49.1379 66.3861C49.2805 66.2977 49.455 66.2804 49.6119 66.3346C49.7692 66.3901 49.8932 66.5141 49.9474 66.6727L50.8891 69.3987C50.976 69.6446 50.8743 69.9166 50.6485 70.0499L50.6485 70.0499Z" fill="white"/>
<path d="M87.1292 45.832C86.8172 45.5046 86.3766 45.3319 85.9253 45.3599L73.6917 46.1452C73.2857 46.1715 72.9072 46.358 72.6387 46.6637C72.3703 46.9693 72.2346 47.3691 72.2613 47.7749L73.9923 74.7512H73.9928C74.0189 75.157 74.2054 75.536 74.5109 75.8042C74.8166 76.0727 75.2163 76.2084 75.6221 76.1817L87.8557 75.3965C88.2608 75.3697 88.6388 75.1832 88.9066 74.8782C89.1743 74.5728 89.3099 74.174 89.2841 73.7689L87.553 46.7926L87.5525 46.7926C87.5291 46.4324 87.3791 46.0924 87.1293 45.8319L87.1292 45.832ZM84.5981 48.8072L84.5986 48.8072C84.8977 49.0938 85.0677 49.4892 85.0709 49.9035C85.0735 50.3178 84.9086 50.7153 84.6133 51.0058C84.2261 51.393 83.6619 51.5441 83.1332 51.4024C82.6043 51.2609 82.1912 50.8479 82.0498 50.319C81.908 49.7903 82.0592 49.2261 82.4464 48.8389C82.7286 48.5518 83.1129 48.3876 83.5158 48.3818C83.9185 48.3758 84.3073 48.5286 84.5985 48.8072L84.5981 48.8072ZM85.0382 55.8115L85.0385 55.8117C85.3383 56.0966 85.5103 56.4911 85.5151 56.9046C85.52 57.3182 85.3572 57.7165 85.0641 58.0082C84.7773 58.2979 84.3867 58.4612 83.9789 58.4621C83.5714 58.4634 83.1801 58.3018 82.8918 58.0135C82.6036 57.7253 82.442 57.334 82.443 56.9262C82.4442 56.5187 82.6074 56.1281 82.8972 55.8413C83.1794 55.5576 83.5618 55.3958 83.9618 55.3905C84.362 55.385 84.7485 55.5359 85.0385 55.8118L85.0382 55.8115ZM77.7011 49.2493L77.7016 49.2493C78.003 49.5337 78.1764 49.9277 78.1824 50.3419C78.1885 50.7562 78.0264 51.1553 77.7331 51.4481C77.3452 51.8307 76.7834 51.9785 76.2574 51.836C75.7316 51.6938 75.3207 51.283 75.1782 50.7569C75.036 50.2311 75.1838 49.6693 75.5662 49.2812C75.8481 48.9992 76.2288 48.8381 76.6276 48.8321C77.0262 48.8263 77.4114 48.976 77.7016 49.2492L77.7011 49.2493ZM86.8385 59.6142L86.9381 61.1441L74.7045 61.9294L74.6051 60.3992L86.8385 59.6142ZM78.1602 56.2517H78.1606C78.461 56.5371 78.633 56.932 78.6373 57.346C78.6417 57.7606 78.4782 58.1586 78.1839 58.4505C77.8968 58.7381 77.507 58.8997 77.1004 58.8999C76.6939 58.9001 76.304 58.7386 76.0165 58.451C75.7292 58.1637 75.5676 57.7739 75.5676 57.3671C75.5679 56.9605 75.7296 56.5709 76.017 56.2836C76.2992 55.999 76.6818 55.8364 77.0825 55.8304C77.4833 55.8243 77.8702 55.9757 78.1607 56.2516L78.1602 56.2517ZM82.2803 66.7836L82.2811 66.7838C82.5819 67.0678 82.7553 67.4612 82.7618 67.875C82.7681 68.2886 82.6068 68.6874 82.3147 68.9805C81.9267 69.3631 81.3647 69.5106 80.8389 69.3684C80.3129 69.226 79.9023 68.8153 79.7598 68.2893C79.6176 67.7635 79.7651 67.2015 80.1477 66.8135C80.43 66.5323 80.8101 66.3722 81.2085 66.3666C81.6065 66.3608 81.9913 66.5105 82.281 66.7837L82.2803 66.7836Z" fill="white"/>
<rect x="62" y="39" width="3" height="43" rx="1.5" fill="white"/>
</svg>
