<svg width="124" height="124" viewBox="0 0 124 124" fill="none" xmlns="http://www.w3.org/2000/svg">
<circle cx="62" cy="62" r="54" fill="#666D6F"/>
<path fill-rule="evenodd" clip-rule="evenodd" d="M45.4047 40.676H41.9281C41.1538 40.676 40.6981 39.8424 41.2375 39.2869C42.6057 37.8781 44.5386 36.9999 46.681 36.9999C49.6979 36.9999 52.2993 38.7413 53.4935 41.2535C53.6744 41.634 54.0445 41.9013 54.4659 41.9013L61.0712 41.9013H62.9281L69.5334 41.9013C69.9548 41.9013 70.3249 41.634 70.5058 41.2535C71.7001 38.7413 74.3014 36.9999 77.3183 36.9999C79.4607 36.9999 81.3936 37.8781 82.7618 39.2869C83.3012 39.8424 82.8455 40.676 82.0712 40.676H78.5947C77.1985 40.676 76.0666 41.7732 76.0666 43.1267V45.5774C76.0666 46.9309 77.1985 48.0282 78.5947 48.0282L82.0712 48.0282C82.8455 48.0282 83.3012 48.8617 82.7618 49.4172C81.3936 50.826 79.4607 51.7043 77.3183 51.7043C74.3014 51.7043 71.7001 49.9628 70.5058 47.4507C70.3249 47.0701 69.9548 46.8028 69.5334 46.8028H62.9281H61.0712H54.4659C54.0445 46.8028 53.6744 47.0701 53.4935 47.4507C52.2993 49.9628 49.6979 51.7043 46.681 51.7043C44.5386 51.7043 42.6057 50.826 41.2375 49.4172C40.6981 48.8617 41.1538 48.0282 41.9281 48.0282L45.4047 48.0282C46.8009 48.0282 47.9327 46.9309 47.9327 45.5774L47.9327 43.1267C47.9327 41.7732 46.8009 40.676 45.4047 40.676Z" fill="white"/>
<path d="M47 71.8125V81H77V71.8125H47Z" fill="white"/>
<path d="M77 71.8125L72.3299 60.7794C72.2317 60.5474 72.0715 60.3503 71.8688 60.212C71.6661 60.0736 71.4295 60 71.1877 60H52.8123C52.5705 60 52.3339 60.0736 52.1312 60.212C51.9285 60.3503 51.7683 60.5474 51.6701 60.7794L47 71.8125M77 71.8125V81H47V71.8125M77 71.8125C76.2 71.8125 56.6667 71.8125 47 71.8125M77 71.8125H47" stroke="white" stroke-width="3" stroke-linecap="round" stroke-linejoin="round"/>
<path d="M53 81V85.8C53 86.1183 52.8736 86.4235 52.6485 86.6485C52.4235 86.8736 52.1183 87 51.8 87H48.2C47.8817 87 47.5765 86.8736 47.3515 86.6485C47.1264 86.4235 47 86.1183 47 85.8V81" stroke="white" stroke-width="3" stroke-linecap="round" stroke-linejoin="round"/>
<path d="M77 81V85.8C77 86.1183 76.8736 86.4235 76.6485 86.6485C76.4235 86.8736 76.1183 87 75.8 87H72.2C71.8817 87 71.5765 86.8736 71.3515 86.6485C71.1264 86.4235 71 86.1183 71 85.8V81" stroke="white" stroke-width="3" stroke-linecap="round" stroke-linejoin="round"/>
<path d="M44 72H80" stroke="white" stroke-width="3" stroke-linecap="round" stroke-linejoin="round"/>
</svg>
