<svg width="124" height="124" viewBox="0 0 124 124" fill="none" xmlns="http://www.w3.org/2000/svg">
<circle cx="62" cy="62" r="54" fill="#F36F6A"/>
<path d="M68.999 62.0054H75.9991V83.0056H68.999V62.0054Z" fill="white"/>
<path d="M87.6655 40.7898C89.0188 40.3116 89.9989 39.0281 89.9989 37.5001C89.9989 35.575 88.4239 34 86.4988 34C84.5619 34 82.9987 35.575 82.9987 37.5001C82.9987 39.0286 83.9669 40.3235 85.3321 40.7903V64.333H82.9987V55L34 54.9996V89.9996H82.9998V80.6665H89.9999L89.9995 64.3333H87.6661L87.6655 40.7898ZM50.3321 85.3382H38.6658V59.6721H50.3321V85.3382ZM64.3318 85.3382H52.6655V59.6721H64.3318V85.3382ZM78.3316 85.3382H66.6653V59.6721H78.3316V85.3382Z" fill="white"/>
<path d="M40.998 62.0054H47.9982V83.0056H40.998V62.0054Z" fill="white"/>
<path d="M54.999 62.0054H61.9991V83.0056H54.999V62.0054Z" fill="white"/>
<path d="M35.027 46V36.77H36.912V40.449H40.916V36.77H42.801V46H40.916V42.243H36.912V46H35.027ZM44.8532 46V36.77H46.7382V46H44.8532ZM53.1177 46.156C51.7224 46.156 50.5611 45.6967 49.6337 44.778C48.7151 43.8593 48.2557 42.7283 48.2557 41.385C48.2557 40.0417 48.7151 38.9107 49.6337 37.992C50.5524 37.0733 51.7051 36.614 53.0917 36.614C54.0624 36.614 54.9507 36.8827 55.7567 37.42C56.5714 37.9487 57.1347 38.642 57.4467 39.5H55.2887C55.0634 39.1707 54.7514 38.9107 54.3527 38.72C53.9627 38.5293 53.5424 38.434 53.0917 38.434C52.2251 38.434 51.5187 38.7157 50.9727 39.279C50.4267 39.8423 50.1537 40.5443 50.1537 41.385C50.1537 42.2257 50.4267 42.9277 50.9727 43.491C51.5187 44.0543 52.2337 44.336 53.1177 44.336C53.8544 44.336 54.4437 44.154 54.8857 43.79C55.3364 43.4173 55.6137 42.9017 55.7177 42.243H52.8967V40.475H57.6677C57.7717 41.3937 57.7241 42.2213 57.5247 42.958C57.3254 43.6947 57.0091 44.2927 56.5757 44.752C56.1424 45.2027 55.6311 45.5493 55.0417 45.792C54.4524 46.0347 53.8111 46.156 53.1177 46.156ZM59.2497 46V36.77H61.1347V40.449H65.1387V36.77H67.0237V46H65.1387V42.243H61.1347V46H59.2497ZM70.7788 46V38.564H68.3218V36.77H75.1598V38.564H72.6768V46H70.7788Z" fill="white"/>
</svg>
