<svg width="124" height="124" viewBox="0 0 124 124" fill="none" xmlns="http://www.w3.org/2000/svg">
<circle cx="62" cy="62" r="54" fill="#BE3E51"/>
<path d="M71.5 36C70.5 37.5 71.2288 39.4153 71.5 40.5C72 42.5 72 44.5 70.5 46" stroke="white" stroke-width="4" stroke-linecap="square"/>
<path d="M64 36C63 37.5 63.7288 39.4153 64 40.5C64.5 42.5 64.5 44.5 63 46" stroke="white" stroke-width="4" stroke-linecap="square"/>
<path d="M56.5 36C55.5 37.5 56.2288 39.4153 56.5 40.5C57 42.5 57 44.5 55.5 46" stroke="white" stroke-width="4" stroke-linecap="square"/>
<path fill-rule="evenodd" clip-rule="evenodd" d="M58.4631 55.3817C58.2231 54.1471 59.1686 53 60.4263 53H62.5737C63.8314 53 64.7769 54.1471 64.5369 55.3817L63.8333 59H77C79.7614 59 82 61.2386 82 64H40C40 61.2386 42.2386 59 45 59H59.1667L58.4631 55.3817ZM32.0122 68.7273C32.0041 68.8171 32 68.9081 32 69H32.06C32.338 70.1411 33.5486 71 35 71C36.4514 71 37.662 70.1411 37.94 69H40V83C40 86.3137 42.6863 89 46 89H76C79.3137 89 82 86.3137 82 83V69H84.06C84.338 70.1411 85.5486 71 87 71C88.4514 71 89.662 70.1411 89.94 69H90C90 68.9081 89.9959 68.8171 89.9878 68.7273C89.9959 68.6524 90 68.5766 90 68.5C90 67.1193 88.6569 66 87 66H82H40H35C33.3431 66 32 67.1193 32 68.5C32 68.5766 32.0041 68.6524 32.0122 68.7273ZM45 69.5C45.8284 69.5 46.5 70.1716 46.5 71V80.5C46.5 81.3284 45.8284 82 45 82C44.1716 82 43.5 81.3284 43.5 80.5V71C43.5 70.1716 44.1716 69.5 45 69.5Z" fill="white"/>
</svg>
