<svg width="124" height="124" viewBox="0 0 124 124" fill="none" xmlns="http://www.w3.org/2000/svg">
<circle cx="62" cy="62" r="54" fill="#FFB831"/>
<path fill-rule="evenodd" clip-rule="evenodd" d="M74.3502 78.0645C78.8623 74.3285 81.7368 68.6841 81.7368 62.3684C81.7368 51.1193 72.6176 42 61.3684 42C50.1193 42 41 51.1193 41 62.3684C41 73.6176 50.1193 82.7368 61.3684 82.7368C62.934 82.7368 64.4583 82.5602 65.9225 82.2258H83C83.5523 82.2258 84 81.7781 84 81.2258V79.0645C84 78.5122 83.5523 78.0645 83 78.0645H74.3502ZM60.8598 65.2943C62.1097 65.2943 63.123 64.281 63.123 63.0311C63.123 61.7812 62.1097 60.768 60.8598 60.768C59.6099 60.768 58.5967 61.7812 58.5967 63.0311C58.5967 64.281 59.6099 65.2943 60.8598 65.2943ZM62.8117 50.2666C63.4587 52.6813 62.0258 55.1632 59.6111 55.8102C57.1965 56.4572 54.7146 55.0243 54.0676 52.6096C53.4206 50.195 54.8535 47.713 57.2682 47.066C59.6828 46.419 62.1647 47.852 62.8117 50.2666ZM65.4687 77.6707C67.8833 77.0237 69.3163 74.5418 68.6693 72.1271C68.0223 69.7125 65.5403 68.2795 63.1257 68.9265C60.711 69.5735 59.2781 72.0555 59.9251 74.4701C60.5721 76.8847 63.054 78.3177 65.4687 77.6707ZM54.8103 64.1257C55.4573 66.5404 54.0244 69.0223 51.6097 69.6693C49.1951 70.3163 46.7131 68.8834 46.0661 66.4687C45.4191 64.0541 46.8521 61.5722 49.2667 60.9251C51.6814 60.2782 54.1633 61.7111 54.8103 64.1257ZM73.4701 63.8119C75.8847 63.1649 77.3177 60.683 76.6707 58.2683C76.0237 55.8537 73.5417 54.4207 71.1271 55.0677C68.7125 55.7147 67.2795 58.1967 67.9265 60.6113C68.5735 63.026 71.0555 64.4589 73.4701 63.8119Z" fill="white"/>
</svg>
