<svg width="124" height="124" viewBox="0 0 124 124" fill="none" xmlns="http://www.w3.org/2000/svg">
<circle cx="62" cy="62" r="54" fill="#FFB831"/>
<path fill-rule="evenodd" clip-rule="evenodd" d="M47.4118 34.1641C45.8597 35.7161 45.8597 38.2325 47.4118 39.7846L84.8821 77.2549C86.4341 78.8069 88.9505 78.8069 90.5026 77.2549C92.0547 75.7028 92.0547 73.1864 90.5026 71.6343L53.0323 34.1641C51.4803 32.612 48.9639 32.612 47.4118 34.1641ZM34.1641 47.4118C32.612 48.9639 32.612 51.4803 34.1641 53.0323L71.6343 90.5026C73.1864 92.0547 75.7028 92.0547 77.2549 90.5026C78.8069 88.9505 78.8069 86.4341 77.2549 84.8821L39.7846 47.4118C38.2325 45.8597 35.7161 45.8597 34.1641 47.4118ZM66.3178 56.392L68.275 58.3493C69.356 59.4303 71.1086 59.4303 72.1896 58.3493C73.2706 57.2683 73.2706 55.5157 72.1896 54.4348L70.2323 52.4775C69.1513 51.3965 67.3987 51.3965 66.3178 52.4775C65.2368 53.5585 65.2368 55.3111 66.3178 56.392ZM52.4777 70.2321L54.435 72.1894C55.516 73.2703 57.2686 73.2703 58.3496 72.1894C59.4305 71.1084 59.4305 69.3558 58.3496 68.2748L56.3923 66.3175C55.3113 65.2365 53.5587 65.2365 52.4777 66.3175C51.3967 67.3985 51.3967 69.1511 52.4777 70.2321Z" fill="white"/>
<path d="M47.4118 39.7846L46.9875 40.2089L47.4118 39.7846ZM47.4118 34.1641L46.9875 33.7398L47.4118 34.1641ZM84.8821 77.2549L84.4578 77.6791L84.8821 77.2549ZM90.5026 77.2549L90.9269 77.6791L90.5026 77.2549ZM90.5026 71.6343L90.0784 72.0586L90.5026 71.6343ZM53.0323 34.1641L53.4566 33.7398V33.7398L53.0323 34.1641ZM34.1641 53.0323L33.7398 53.4566H33.7398L34.1641 53.0323ZM34.1641 47.4118L34.5883 47.8361L34.1641 47.4118ZM71.6343 90.5026L72.0586 90.0784L71.6343 90.5026ZM77.2549 90.5026L77.6791 90.9269V90.9269L77.2549 90.5026ZM77.2549 84.8821L77.6791 84.4578L77.2549 84.8821ZM39.7846 47.4118L40.2089 46.9875L39.7846 47.4118ZM68.275 58.3493L67.8508 58.7736H67.8508L68.275 58.3493ZM66.3178 56.392L66.742 55.9678L66.3178 56.392ZM72.1896 58.3493L72.6139 58.7736V58.7736L72.1896 58.3493ZM72.1896 54.4348L72.6139 54.0105L72.1896 54.4348ZM66.3178 52.4775L65.8935 52.0532L66.3178 52.4775ZM54.435 72.1894L54.0107 72.6136H54.0107L54.435 72.1894ZM52.4777 70.2321L52.0535 70.6563V70.6563L52.4777 70.2321ZM58.3496 72.1894L58.7738 72.6136L58.7738 72.6136L58.3496 72.1894ZM58.3496 68.2748L58.7738 67.8505H58.7738L58.3496 68.2748ZM56.3923 66.3175L55.968 66.7418L56.3923 66.3175ZM47.8361 39.3603C46.5183 38.0426 46.5183 35.9061 47.8361 34.5883L46.9875 33.7398C45.2011 35.5262 45.2011 38.4225 46.9875 40.2089L47.8361 39.3603ZM85.3063 76.8306L47.8361 39.3603L46.9875 40.2089L84.4578 77.6791L85.3063 76.8306ZM90.0784 76.8306C88.7606 78.1484 86.6241 78.1484 85.3063 76.8306L84.4578 77.6791C86.2442 79.4655 89.1405 79.4655 90.9269 77.6791L90.0784 76.8306ZM90.0784 72.0586C91.3961 73.3764 91.3961 75.5129 90.0784 76.8306L90.9269 77.6791C92.7133 75.8927 92.7133 72.9965 90.9269 71.2101L90.0784 72.0586ZM52.6081 34.5883L90.0784 72.0586L90.9269 71.2101L53.4566 33.7398L52.6081 34.5883ZM47.8361 34.5883C49.1538 33.2706 51.2903 33.2706 52.6081 34.5883L53.4566 33.7398C51.6702 31.9534 48.7739 31.9534 46.9875 33.7398L47.8361 34.5883ZM34.5883 52.6081C33.2706 51.2903 33.2706 49.1538 34.5883 47.8361L33.7398 46.9875C31.9534 48.7739 31.9534 51.6702 33.7398 53.4566L34.5883 52.6081ZM72.0586 90.0784L34.5883 52.6081L33.7398 53.4566L71.2101 90.9269L72.0586 90.0784ZM76.8306 90.0784C75.5129 91.3961 73.3764 91.3961 72.0586 90.0784L71.2101 90.9269C72.9965 92.7133 75.8927 92.7133 77.6791 90.9269L76.8306 90.0784ZM76.8306 85.3063C78.1484 86.6241 78.1484 88.7606 76.8306 90.0784L77.6791 90.9269C79.4655 89.1405 79.4655 86.2442 77.6791 84.4578L76.8306 85.3063ZM39.3603 47.8361L76.8306 85.3063L77.6791 84.4578L40.2089 46.9875L39.3603 47.8361ZM34.5883 47.8361C35.9061 46.5183 38.0426 46.5183 39.3603 47.8361L40.2089 46.9875C38.4225 45.2011 35.5262 45.2011 33.7398 46.9875L34.5883 47.8361ZM68.6993 57.925L66.742 55.9678L65.8935 56.8163L67.8508 58.7736L68.6993 57.925ZM71.7653 57.925C70.9187 58.7717 69.546 58.7717 68.6993 57.925L67.8508 58.7736C69.1661 60.0889 71.2986 60.0889 72.6139 58.7736L71.7653 57.925ZM71.7653 54.859C72.612 55.7057 72.612 57.0784 71.7653 57.925L72.6139 58.7736C73.9291 57.4583 73.9291 55.3258 72.6139 54.0105L71.7653 54.859ZM69.8081 52.9017L71.7653 54.859L72.6139 54.0105L70.6566 52.0532L69.8081 52.9017ZM66.742 52.9017C67.5887 52.0551 68.9614 52.0551 69.8081 52.9017L70.6566 52.0532C69.3413 50.7379 67.2088 50.7379 65.8935 52.0532L66.742 52.9017ZM66.742 55.9678C65.8954 55.1211 65.8954 53.7484 66.742 52.9017L65.8935 52.0532C64.5782 53.3685 64.5782 55.501 65.8935 56.8163L66.742 55.9678ZM54.8593 71.7651L52.902 69.8078L52.0535 70.6563L54.0107 72.6136L54.8593 71.7651ZM57.9253 71.7651C57.0786 72.6117 55.7059 72.6117 54.8593 71.7651L54.0107 72.6136C55.326 73.9289 57.4585 73.9289 58.7738 72.6136L57.9253 71.7651ZM57.9253 68.6991C58.7719 69.5457 58.7719 70.9184 57.9253 71.7651L58.7738 72.6136C60.0891 71.2983 60.0891 69.1658 58.7738 67.8505L57.9253 68.6991ZM55.968 66.7418L57.9253 68.6991L58.7738 67.8505L56.8165 65.8933L55.968 66.7418ZM52.902 66.7418C53.7486 65.8951 55.1214 65.8951 55.968 66.7418L56.8165 65.8933C55.5013 64.578 53.3687 64.578 52.0535 65.8933L52.902 66.7418ZM52.902 69.8078C52.0553 68.9612 52.0553 67.5884 52.902 66.7418L52.0535 65.8933C50.7382 67.2085 50.7382 69.341 52.0535 70.6563L52.902 69.8078Z" fill="white"/>
</svg>
