<svg width="124" height="124" viewBox="0 0 124 124" fill="none" xmlns="http://www.w3.org/2000/svg">
<circle cx="62" cy="62" r="54" fill="#F36F6A"/>
<path d="M85.4513 76.2252H38.8156C37.2632 76.2252 36 74.9613 36 73.4088L36.0004 37.8148C36.0004 36.2624 37.2625 35 38.8156 35H85.4523C87.0047 35 88.2679 36.2632 88.2679 37.8156V73.4096C88.2667 74.9617 87.0047 76.2248 85.4515 76.2248L85.4513 76.2252ZM38.8156 36.6659C38.1815 36.6659 37.6668 37.1811 37.6668 37.8143V73.4083C37.6668 74.0424 38.1816 74.5583 38.8156 74.5583H85.4523C86.0864 74.5583 86.6011 74.0424 86.6011 73.4083V37.8143C86.6004 37.181 86.0856 36.6659 85.4515 36.6659H38.8156Z" fill="white"/>
<path d="M75.9316 85.5769C75.9316 87.0932 74.6903 88.3265 73.1735 88.3265H51.093C49.5767 88.3265 48.335 87.0932 48.335 85.5769C48.335 84.0606 49.5763 82.8188 51.093 82.8188H51.3846L53.4092 77.8945H70.8566L72.8812 82.8188H73.1727C74.6898 82.8188 75.9312 84.0606 75.9312 85.5769H75.9316Z" fill="white"/>
<path d="M60.7482 62.4724L65.1407 63.3297C65.3789 63.3765 65.5899 63.2189 65.6332 62.9979L65.8822 61.7197C65.4998 62.1762 64.9332 62.4731 64.2925 62.4731H60.748L60.7482 62.4724Z" fill="white"/>
<path d="M68.4332 46.4212L66.376 46.0195V59.1834L68.7658 46.9151C68.8126 46.6754 68.6569 46.4644 68.4332 46.4211L68.4332 46.4212Z" fill="white"/>
<path d="M57.1309 51.9336L59.0703 55.2207L61.011 51.9336L59.0703 48.6465L57.1309 51.9336Z" fill="white"/>
<path d="M70.4983 49.0188L70.0702 48.9355L67.2688 63.3171C67.0414 64.4802 65.9132 65.1867 64.8199 64.9642L56.635 63.3685L56.6208 63.4417C56.5775 63.665 56.7252 63.884 56.95 63.9274L67.2031 65.9262C67.4348 65.9661 67.6489 65.8188 67.6915 65.5963L70.8293 49.5061C70.8569 49.3596 70.8009 49.2468 70.7645 49.1927C70.7269 49.1398 70.6444 49.0465 70.4986 49.0189L70.4983 49.0188Z" fill="white"/>
<path d="M64.7098 60.3876V43.9978C64.7098 43.7677 64.5222 43.5805 64.2925 43.5805L53.8507 43.5801C53.6206 43.5801 53.4326 43.7677 53.4326 43.9974V60.3882C53.4326 60.6183 53.621 60.8063 53.8507 60.8063H64.2925C64.5222 60.8067 64.7098 60.6191 64.7098 60.3882V60.3876ZM62.6967 52.3581L59.7887 57.285C59.6387 57.5389 59.3656 57.6943 59.0713 57.6943C58.7771 57.6943 58.5032 57.5378 58.354 57.2842L55.4468 52.3573C55.2926 52.0965 55.2926 51.7723 55.4468 51.5107L58.354 46.5838C58.6532 46.0763 59.4898 46.0755 59.7898 46.583L62.6978 51.5099C62.8501 51.7715 62.8501 52.0957 62.6967 52.3581L62.6967 52.3581Z" fill="white"/>
<path d="M84.0559 38.3745H40.2111C39.7527 38.3745 39.3779 38.7493 39.3779 39.2077V71.1446C39.3779 71.603 39.7527 71.9778 40.2111 71.9778H84.0549C84.5133 71.9778 84.8881 71.603 84.8881 71.1446L84.8885 39.2077C84.8885 38.7497 84.5133 38.3745 84.0553 38.3745H84.0559ZM72.4643 49.8238L69.3264 65.914C69.1116 67.0372 68.0207 67.7794 66.8853 67.5631L56.6321 65.5642C55.5062 65.3475 54.7674 64.2528 54.983 63.1237L55.1096 62.4732H53.8491C52.699 62.4732 51.7643 61.5383 51.7643 60.3883V43.9976C51.7643 42.8487 52.6991 41.9139 53.8491 41.9139H64.2908C65.4397 41.9139 66.3745 42.8487 66.3745 43.9976V44.3217L68.7525 44.7851C69.8971 45.0111 70.6205 46.1093 70.4004 47.2341L70.3877 47.2989L70.8135 47.3814C71.3575 47.4857 71.8308 47.7987 72.1434 48.2613C72.4553 48.7236 72.5677 49.2775 72.4637 49.8241L72.4643 49.8238Z" fill="white"/>
</svg>
