<svg width="124" height="124" viewBox="0 0 124 124" fill="none" xmlns="http://www.w3.org/2000/svg">
<circle cx="62" cy="62" r="54" fill="#407CD0"/>
<path d="M83.8381 51.15L85.0969 49.4593L85.8484 50.0229C86.0111 50.1449 86.2086 50.2107 86.4119 50.2107H86.5436C86.7906 50.1759 87.0137 50.0439 87.1634 49.8443L89.4177 46.8293C89.7288 46.4142 89.6449 45.8254 89.2298 45.5143L83.2184 41.0057C82.8032 40.6946 82.2145 40.7784 81.9034 41.1936L79.6491 44.1993C79.3379 44.6144 79.4218 45.2032 79.8369 45.5143L80.5884 46.0779L79.2452 47.8625C77.4254 46.9073 75.4713 46.2326 73.4498 45.8619V43.6357H75.3283C75.5774 43.6357 75.8164 43.5368 75.9926 43.3606C76.1687 43.1845 76.2676 42.9455 76.2676 42.6964V38.9393C76.2676 38.6902 76.1687 38.4512 75.9926 38.2751C75.8164 38.099 75.5774 38 75.3283 38H64.0569C63.5382 38 63.1176 38.4206 63.1176 38.9393V42.6964C63.1176 42.9455 63.2166 43.1845 63.3927 43.3606C63.5688 43.5368 63.8078 43.6357 64.0569 43.6357H65.9355V45.8619C63.9726 46.2288 62.0739 46.8808 60.2997 47.7966L58.9847 46.0778L59.7362 45.5142C59.9358 45.3645 60.0674 45.1414 60.1027 44.8944C60.1375 44.6483 60.0733 44.398 59.924 44.1992L57.6697 41.1935C57.3586 40.7783 56.7699 40.6945 56.3547 41.0056L50.3433 45.5142C49.9282 45.8253 49.8443 46.4141 50.1554 46.8292L52.4097 49.8349C52.5594 50.0345 52.7825 50.1662 53.0295 50.2014H53.1612C53.3645 50.2014 53.562 50.1352 53.7247 50.0136L54.4762 49.45L55.6595 51.0186V51.0182C54.6933 51.9152 53.8157 52.9027 53.0391 53.9678H41.5143V55.8464H51.8465C51.155 57.0385 50.5856 58.2973 50.1465 59.6035H37.7576V61.4821H49.5733C49.2764 62.7149 49.094 63.9729 49.0286 65.2393H34V67.1178H49.0286C49.0848 68.3833 49.2575 69.6413 49.5452 70.875H37.7574V72.7536H50.1088C50.56 74.0615 51.142 75.3198 51.8465 76.5107H41.5144V78.3893H53.0391C55.293 81.5279 58.3821 83.9722 61.9556 85.4432C65.5287 86.9146 69.4431 87.3549 73.2539 86.7133C77.0647 86.0717 80.6193 84.3747 83.5139 81.8147C86.4085 79.2547 88.5274 75.9341 89.6298 72.2302C90.7323 68.5268 90.7737 64.5881 89.7502 60.8611C88.7266 57.135 86.6786 53.7703 83.8385 51.1495L83.8381 51.15ZM82.0912 47.205L83.5941 48.3322L82.4108 49.9101C81.913 49.5251 81.4057 49.1586 80.8798 48.8207L82.0912 47.205ZM67.814 43.6357H71.5712V45.599C70.9514 45.5143 70.322 45.5143 69.6926 45.5143C69.0632 45.5143 68.4338 45.5143 67.814 45.599V43.6357ZM55.979 48.3322L57.4819 47.205L58.6279 48.736C58.1021 49.074 57.5855 49.4313 57.0969 49.8161L55.979 48.3322ZM54.0158 55.8465H57.538C56.5761 56.9828 55.7765 58.2471 55.1617 59.6036H52.1186C52.608 58.284 53.2445 57.024 54.0156 55.8465H54.0158ZM72.5106 66.1786C72.5039 67.0668 72.0783 67.8999 71.3629 68.4263C70.6476 68.9529 69.7259 69.111 68.8759 68.8536C68.026 68.5961 67.3471 67.9529 67.0439 67.118H58.4214V65.2394H67.0439C67.3282 64.4418 67.956 63.8142 68.7535 63.5298V54.9072H70.6321V63.5298C71.1802 63.7235 71.6549 64.082 71.9911 64.5563C72.3274 65.0306 72.509 65.5975 72.5107 66.1786H72.5106ZM51.5264 61.4822H54.4289C54.0603 62.7037 53.8398 63.965 53.7714 65.2393H50.9536C51.0144 63.9705 51.2064 62.7116 51.5264 61.4822H51.5264ZM50.9536 67.1179H53.7714C53.8398 68.3922 54.0604 69.6536 54.4289 70.8751H51.5264C51.2064 69.6456 51.0144 68.3868 50.9536 67.1179H50.9536ZM52.1185 72.7536H55.162H55.1616C55.7763 74.1102 56.576 75.3744 57.5379 76.5108H54.0157C53.2445 75.3333 52.608 74.0733 52.1186 72.7536H52.1185ZM69.6923 84.9644C66.9835 84.9606 64.3078 84.371 61.8485 83.2359C59.3891 82.1012 57.204 80.4478 55.4433 78.3894H59.4261C62.5446 81.0172 66.5504 82.3524 70.6213 82.121C74.693 81.8895 78.5214 80.1091 81.3221 77.1445C84.1228 74.1803 85.6831 70.2566 85.6831 66.179C85.6831 62.1013 84.1228 58.1774 81.3221 55.2134C78.5214 52.2488 74.693 50.4684 70.6213 50.2369C66.55 50.0055 62.5443 51.3406 59.4261 53.9685H55.4433C58.1865 50.7611 61.9298 48.5715 66.0698 47.7512C70.2097 46.9314 74.5053 47.5298 78.2633 49.4494C82.0222 51.3687 85.0245 54.4981 86.7873 58.3328C88.5502 62.1676 88.9704 66.4841 87.9803 70.5865C86.9903 74.6888 84.6475 78.3386 81.3294 80.9472C78.0117 83.5555 73.9123 84.9706 69.6919 84.9648L69.6923 84.9644Z" fill="white"/>
</svg>
