<svg width="124" height="124" viewBox="0 0 124 124" fill="none" xmlns="http://www.w3.org/2000/svg">
<circle cx="62" cy="62" r="54" fill="#D92E68"/>
<path d="M46.0487 59.6668H81.0481C85.4552 59.6668 88.9985 63.2101 88.9985 67.6173H91.5912C91.5912 61.8273 86.8381 57.0743 81.0482 57.0743H46.0488C37.234 57.0743 30.0615 49.9016 30.0615 41.0869H27.4688C27.4694 51.3715 35.7652 59.6668 46.0487 59.6668Z" fill="white"/>
<path d="M46.049 55.6917H81.0484C87.616 55.6917 92.9743 61.0495 92.9743 67.617H95.567C95.567 59.5804 88.9993 53.0121 80.9621 53.0121H46.0492C39.4815 53.0121 34.037 47.6544 34.037 41H31.4443C31.4443 49.1235 38.0124 55.6916 46.0492 55.6916L46.049 55.6917Z" fill="white"/>
<path d="M95.0482 69.7778H26V82.0492H95.0482C96.5172 82.0492 97.727 80.8394 97.727 79.3704V72.4568C97.7264 70.9878 96.5165 69.778 95.0476 69.778L95.0482 69.7778ZM43.2836 79.4571H28.5927V72.3705H43.2836V79.4571ZM86.4063 79.4571H45.8762V72.3705H86.4063V79.4571Z" fill="white"/>
</svg>
