<svg width="124" height="124" viewBox="0 0 124 124" fill="none" xmlns="http://www.w3.org/2000/svg">
<circle cx="62" cy="62" r="54" fill="#407CD0"/>
<path d="M80.8309 75.8098L83.0846 77.0974L83.1489 76.9685C86.3039 72.5905 87.9778 67.375 87.9778 61.9023C88.042 54.8844 85.4026 48.317 80.5089 43.4237C75.6158 38.4659 69.0483 35.7617 62.0947 35.7617C47.7368 35.7617 36.083 47.4155 36.083 61.7734C36.083 76.1314 47.7368 87.7851 62.0947 87.7851C64.6057 87.7851 66.9879 87.4631 69.2415 86.7549L69.3704 86.6906L68.8553 84.1154L68.6621 84.1797C66.4731 84.8237 64.2194 85.2099 61.9663 85.2099C49.0892 85.2099 38.5944 74.715 38.5944 61.838C38.5944 48.9611 49.0893 38.4661 61.9663 38.4661C74.8432 38.4661 85.3382 48.9611 85.3382 61.838C85.3382 66.7958 83.7928 71.5601 80.8313 75.6809L80.8309 75.8098Z" fill="white"/>
<path d="M84.0492 40.1401C78.19 34.2163 70.3995 30.9971 62.0938 30.9971C59.1965 30.9971 56.4277 31.3833 53.7883 32.1558L53.6594 32.1562L54.1103 34.5384H54.3034C56.8786 33.8301 59.5185 33.4439 62.0943 33.4439C77.8687 33.4439 90.7458 46.2566 90.7458 62.0954C90.7458 77.9342 77.8687 90.6825 62.0943 90.6825C46.3199 90.6183 33.4428 77.741 33.4428 61.9666C33.4428 55.979 35.2456 50.3129 38.7226 45.4196L38.8511 45.2907L36.7263 44.0672L36.6621 44.1961C32.9924 49.4112 30.9961 55.5925 30.9961 62.0309C30.9961 79.093 44.9033 93.0003 61.9655 93.0003C79.092 93.0003 92.9992 79.093 92.9992 62.0309C93.1281 53.7896 89.9089 45.9989 84.0497 40.1398L84.0492 40.1401Z" fill="white"/>
<path d="M76.9717 59.4194H74.4027C74.0356 57.8708 73.4484 56.4704 72.6411 55.143L74.6961 53.0785C74.8431 52.9309 74.9163 52.7098 74.9163 52.4886C74.9163 52.2674 74.8431 52.0463 74.6961 51.8987L71.8338 49.0232C71.5404 48.7285 71.0264 48.7285 70.7331 49.0232L68.6049 51.1611C67.4305 50.4236 66.1096 49.9077 64.7883 49.539V46.8111C64.7883 46.3688 64.4212 46 63.9809 46H60.0179C59.5776 46 59.2105 46.3688 59.2105 46.8111V49.4654C57.7428 49.7601 56.4214 50.35 55.2475 51.0875L52.9724 48.802C52.679 48.5073 52.165 48.5073 51.8717 48.802L49.0093 51.6775C48.8624 51.8251 48.7892 52.0463 48.7892 52.2674C48.7892 52.4886 48.8624 52.7097 49.0093 52.8573L51.2113 55.0694C50.3307 56.3963 49.7435 57.7973 49.3764 59.4194H46.8074C46.3671 59.4194 46 59.7882 46 60.2305V64.2118C46 64.6541 46.3671 65.0228 46.8074 65.0228H49.3764C49.6698 66.4239 50.257 67.7508 50.9911 68.9306L48.9361 70.9951C48.7886 71.1432 48.7149 71.3644 48.7149 71.5855C48.7149 71.8067 48.7881 72.0278 48.935 72.1754L51.7974 75.051C51.9443 75.1986 52.1645 75.2721 52.3846 75.2721C52.6048 75.2721 52.8249 75.1986 52.9718 75.051L54.9536 73.0601C56.2745 73.9447 57.7427 74.5346 59.3575 74.9034V77.1889C59.3575 77.6312 59.7246 78 60.1649 78H64.1279C64.5682 78 64.9353 77.6312 64.9353 77.1889V74.8292C66.4768 74.4605 67.8708 73.8706 69.119 73.0596L70.8069 74.7553C70.9539 74.9029 71.174 74.9764 71.3942 74.9764C71.6143 74.9764 71.8345 74.9029 71.9814 74.7553L74.7705 71.9533C74.9174 71.8057 74.9906 71.5846 74.9906 71.3634C74.9906 71.1423 74.9174 70.9211 74.7705 70.7735L73.0089 69.0038C73.7431 67.824 74.2565 66.4971 74.6236 65.0226H77.1926C77.6329 65.0226 78 64.6538 78 64.2115V60.2302C77.7793 59.7884 77.4123 59.4197 76.972 59.4197L76.9717 59.4194ZM61.8525 70.1109C57.5224 70.1109 53.9991 66.5719 53.9991 62.2214C53.9991 57.8713 57.5219 54.2584 61.8525 54.2584C66.1827 54.2584 69.706 57.7973 69.706 62.1479C69.7055 66.4979 66.2559 70.1109 61.8525 70.1109Z" fill="white"/>
</svg>
