<svg width="124" height="124" viewBox="0 0 124 124" fill="none" xmlns="http://www.w3.org/2000/svg">
<circle cx="62" cy="62" r="54" fill="#59A397"/>
<g clip-path="url(#clip0_105_431)">
<path d="M60.1698 50.2587C59.3774 50.2587 58.7358 50.8974 58.7358 51.6864C58.7358 52.25 59.0566 52.7384 59.5283 52.9639V59.3324H60.717V53.0202C61.2453 52.8136 61.6226 52.2876 61.6226 51.6864C61.6226 50.8974 60.9623 50.2587 60.1698 50.2587Z" fill="white"/>
<path d="M65.264 50.2587C64.4716 50.2587 63.8301 50.8974 63.8301 51.6864C63.8301 52.25 64.1508 52.7384 64.6225 52.9639V59.3324H65.8112V53.0202C66.3395 52.8136 66.7169 52.2876 66.7169 51.6864C66.7169 50.8974 66.0565 50.2587 65.264 50.2587Z" fill="white"/>
<path d="M71.7922 51.6864C71.7922 50.8974 71.1507 50.2587 70.3583 50.2587C69.5658 50.2587 68.9243 50.8974 68.9243 51.6864C68.9243 52.2876 69.2828 52.7948 69.8111 53.0202V59.3512H70.9998V52.9827C71.4715 52.7572 71.7922 52.2688 71.7922 51.6864Z" fill="white"/>
<path d="M87.6226 49.0566C86.0755 50.2589 84.283 51.5176 82.2075 52.7011C81.1321 53.3211 80.0943 53.8659 79.0943 54.3355L59.4151 54.4295C56.6604 54.4483 54.0755 55.5191 52.1321 57.454C51.1698 58.4121 50.4151 59.5393 49.9057 60.7604H41C40.4906 60.1029 39.6792 59.6708 38.7925 59.6708C37.2453 59.652 36 60.8919 36 62.4324C36 63.9728 37.2453 65.2127 38.7925 65.2127C39.6981 65.2127 40.4906 64.7806 41 64.1231H49.1509C49.1321 64.3298 49.1321 64.5176 49.1321 64.7243V65.7199C49.1321 70.8485 53.3208 75.0191 58.4717 75.0191H71.9057C75.8491 75.0191 79.0566 71.8254 79.0566 67.8991C79.0566 63.9728 75.8491 60.7792 71.9057 60.7792H53.7547C53.9811 60.4598 54.2453 60.1405 54.5283 59.8587C55.8302 58.5436 57.5849 57.8298 59.434 57.811L79.3962 57.6795C80.6038 58.2618 81.8868 58.9381 83.1887 59.7459C84.8679 60.798 86.3585 61.9063 87.6226 62.9772C87.7736 63.1087 88 62.9772 88 62.7705V49.2633C88 49.0566 87.7925 48.9251 87.6226 49.0566ZM71.9057 64.1043C73.9811 64.1043 75.6792 65.7951 75.6792 67.8616C75.6792 69.928 73.9811 71.6188 71.9057 71.6188H58.4717C55.1887 71.6188 52.5094 68.9511 52.5094 65.6824V64.6867C52.5094 64.48 52.5094 64.2922 52.5283 64.0855H71.9057V64.1043Z" fill="white"/>
</g>
<defs>
<clipPath id="clip0_105_431">
<rect width="52" height="26" fill="white" transform="translate(36 49)"/>
</clipPath>
</defs>
</svg>
