<svg width="124" height="124" viewBox="0 0 124 124" fill="none" xmlns="http://www.w3.org/2000/svg">
<circle cx="62" cy="62" r="54" fill="#485475"/>
<path fill-rule="evenodd" clip-rule="evenodd" d="M61.1925 44.1607C61.709 43.9464 62.2911 43.9464 62.8075 44.1607L85.7241 53.6676C86.4972 53.9883 87 54.7351 87 55.5625V69.4375C87 70.5728 86.0673 71.4931 84.9167 71.4931C83.7661 71.4931 82.8333 70.5728 82.8333 69.4375V58.9224L80.125 60.2888V74.0625C80.125 74.6599 79.8616 75.2277 79.4034 75.6182L78.0417 74.0625C79.4034 75.6182 79.4041 75.6176 79.4034 75.6182L79.3968 75.6238L79.3881 75.6311L79.3642 75.651C79.3454 75.6666 79.3209 75.6866 79.2907 75.7109C79.2303 75.7595 79.1472 75.8249 79.0414 75.9047C78.8301 76.0643 78.5282 76.2818 78.1382 76.5375C77.3584 77.0486 76.2232 77.7141 74.7501 78.3748C71.8009 79.6974 67.4974 81 62 81C56.5026 81 52.1991 79.6974 49.2499 78.3748C47.7768 77.7141 46.6416 77.0486 45.8618 76.5375C45.4718 76.2818 45.17 76.0643 44.9586 75.9047C44.8529 75.8249 44.7697 75.7595 44.7093 75.7109C44.6791 75.6866 44.6546 75.6666 44.6358 75.651L44.6119 75.6311L44.6032 75.6238L44.5996 75.6208C44.5989 75.6201 44.5966 75.6182 45.9583 74.0625L44.5966 75.6182C44.1384 75.2277 43.875 74.6599 43.875 74.0625V60.2888L38.1348 57.3927C37.4133 57.0286 36.9712 56.2848 37.0015 55.4858C37.0317 54.6867 37.5288 53.9775 38.2759 53.6676L61.1925 44.1607ZM48.0417 62.3911V73.0298C48.082 73.0568 48.1239 73.0846 48.1675 73.1131C48.7842 73.5174 49.7258 74.0723 50.9741 74.6322C53.4676 75.7505 57.1849 76.8889 62 76.8889C66.8151 76.8889 70.5324 75.7505 73.0259 74.6322C74.2742 74.0723 75.2158 73.5174 75.8325 73.1131C75.8761 73.0846 75.918 73.0568 75.9583 73.0298V62.3911L62.9485 68.9552C62.3529 69.2557 61.6471 69.2557 61.0515 68.9552L48.0417 62.3911ZM79.9802 55.7445L62 48.2854L44.0198 55.7445L62 64.8163L79.9802 55.7445ZM76.6869 72.501C76.6873 72.5006 76.6875 72.5005 76.6869 72.501V72.501Z" fill="white"/>
</svg>
