<svg width="124" height="124" viewBox="0 0 124 124" fill="none" xmlns="http://www.w3.org/2000/svg">
<circle cx="62" cy="62" r="54" fill="#D66EB8"/>
<path d="M42.8931 57.542H44.9448V83.3503H42.8931V57.542Z" fill="white"/>
<path d="M47.4419 86.4901V85.2441C47.4419 84.6221 46.9375 84.1177 46.3154 84.1177L41.5305 84.118C40.9084 84.118 40.4041 84.6225 40.4041 85.2445V86.4904L47.4419 86.4901Z" fill="white"/>
<path d="M48.4209 43.9071C48.3214 43.0189 47.5711 42.3452 46.6753 42.3452H41.1706C40.2747 42.3452 39.5245 43.0189 39.425 43.9071L38.0011 56.3479C37.9935 56.4626 38.024 56.5698 38.1006 56.6464C38.1696 56.7306 38.2768 56.7764 38.3839 56.7764H47.6169V60.9029H47.3032C47.0965 60.9029 46.9204 61.079 46.9204 61.2856C46.9204 61.4999 47.0965 61.6684 47.3032 61.6684H48.6965C48.9108 61.6684 49.0793 61.4999 49.0793 61.2856C49.0793 61.079 48.9108 60.9029 48.6965 60.9029H48.3828V56.7764H49.4624C49.5695 56.7764 49.6767 56.7306 49.7457 56.6464C49.8223 56.5698 49.8528 56.4626 49.8452 56.3479L48.4209 43.9071Z" fill="white"/>
<path d="M86.5788 73.2067C85.8975 72.4946 84.6646 72.694 83.9067 72.9082C83.9986 72.5178 84.1519 72.1427 84.3814 71.7751C84.8789 71.668 85.2464 71.2239 85.2464 70.6955C85.2464 70.0753 84.7565 69.593 84.1363 69.593H81.566C81.0481 68.0831 82.1822 66.657 82.4829 64.7773C83.3055 64.749 84.1363 64.5405 84.7185 63.958C85.6296 63.0469 85.5301 61.5388 85.5225 61.4773C85.5149 61.2859 85.3616 61.1327 85.1702 61.1174C85.1012 61.1098 83.6007 61.0179 82.6819 61.9291C82.5671 62.0438 82.4753 62.1666 82.391 62.289C82.2991 61.8448 82.1535 61.4007 81.9545 60.9798C81.8703 60.7884 81.6408 60.7042 81.4494 60.7961C81.258 60.8803 81.1737 61.1098 81.2656 61.3012C82.0293 62.9685 81.8935 64.5619 81.3114 66.1627C81.1966 65.8489 81.0205 65.5348 80.7601 65.2744C79.8875 64.4018 78.4479 64.4937 78.387 64.5013C78.1956 64.5165 78.0423 64.6622 78.0271 64.8535C78.0271 64.9149 77.9352 66.3617 78.8002 67.2267C79.3896 67.8161 80.2393 67.9617 80.7449 67.9922C80.6911 68.3139 80.6606 68.6506 80.6759 69.0028C80.6835 69.2029 80.7129 69.4008 80.7601 69.5922H79.0911C78.4709 69.5922 77.981 70.0745 77.981 70.6947C77.981 71.2231 78.3485 71.6672 78.846 71.7819C79.0759 72.1418 79.2288 72.517 79.3207 72.9073C78.5628 72.693 77.3303 72.4937 76.6563 73.2058C75.9902 73.8947 76.105 75.1733 76.9856 77.0951C76.7481 77.5927 76.58 78.1515 76.511 78.7642C77.8728 79.8783 78.6336 76.4309 80.7526 78.5499C82.1358 79.8924 82.3309 77.8915 83.8456 77.8915C85.2818 77.8915 85.6032 79.675 86.7166 78.7642C86.64 78.1515 86.4791 77.5926 86.242 77.0951C87.1223 75.1741 87.2374 73.8954 86.579 73.2066L86.5788 73.2067ZM79.3514 74.6001C78.6778 74.96 77.9961 75.5341 77.4681 76.2844C76.7716 74.5925 76.9935 73.957 77.2077 73.735C77.6518 73.268 78.823 73.5437 79.428 73.7427C79.428 74.0183 79.4048 74.3016 79.3514 74.6001V74.6001ZM85.7596 76.2844C85.2312 75.5341 84.5499 74.96 83.8763 74.6001C83.8225 74.3016 83.7996 74.0183 83.7996 73.7427C84.4043 73.5361 85.5757 73.2681 86.0199 73.7351C86.2342 73.957 86.4561 74.5925 85.7596 76.2844V76.2844Z" fill="white"/>
<path d="M83.0014 79.0943C82.0913 79.9906 81.1249 79.9917 80.2142 79.0943C78.6832 77.5873 78.4304 80.4384 76.4749 79.6234C76.4919 80.1181 76.5918 80.6907 76.765 81.2954C77.8352 81.726 77.9772 80.264 79.3677 80.264C80.9416 80.264 81.0542 82.298 82.4653 80.9191C83.3805 80.0247 84.3374 80.0407 85.2391 80.9202C85.5572 81.23 85.9261 81.511 86.4629 81.2917C86.6357 80.6874 86.7356 80.1147 86.7523 79.6204C84.7633 80.455 84.5491 77.5708 83.0013 79.0942L83.0014 79.0943Z" fill="white"/>
<path d="M83.0008 81.4669C82.0933 82.3541 81.1294 82.361 80.215 81.4669C78.8569 80.1382 78.6335 82.1253 77.1195 82.1253C77.0887 82.1253 77.0651 82.1177 77.0356 82.1162C77.4097 83.1021 77.9482 84.0939 78.6008 84.8671C78.1414 84.9819 77.7968 85.4031 77.7968 85.893C77.7968 86.4824 78.2715 86.957 78.8608 86.957H84.3654C84.9548 86.957 85.4294 86.4823 85.4294 85.893C85.4294 85.4031 85.0848 84.9818 84.6254 84.8671C85.2784 84.0936 85.8173 83.1015 86.191 82.1151C84.5521 82.1976 84.393 80.1044 83.0007 81.4669L83.0008 81.4669Z" fill="white"/>
<path d="M66.29 37.9966C60.8696 37.9966 56.4597 43.4246 56.4597 50.1082C56.4597 56.7843 60.8695 62.2198 66.29 62.2198C71.7027 62.2198 76.1053 56.7842 76.1053 50.1082C76.1053 43.4248 71.7032 37.9966 66.29 37.9966ZM66.2903 59.9654C62.1621 59.9654 58.8178 55.5571 58.8178 50.1082C58.8178 44.6678 62.1621 40.251 66.2903 40.251C70.4106 40.251 73.7469 44.6673 73.7469 50.1082C73.7472 55.5569 70.4106 59.9654 66.2903 59.9654Z" fill="white"/>
<path d="M63.3197 46.7553C63.174 46.6021 63.174 46.365 63.3197 46.2117L64.4221 45.1092C64.5754 44.9636 64.8125 44.9636 64.9658 45.1092C65.119 45.2625 65.119 45.5072 64.9658 45.6529L63.8633 46.7553C63.7006 46.918 63.4631 46.8988 63.3197 46.7553Z" fill="white"/>
<path d="M67.7829 45.6529L63.8631 49.5727C63.7004 49.7354 63.4629 49.7161 63.3194 49.5727C63.1738 49.4194 63.1738 49.1823 63.3194 49.029L67.2392 45.1092C67.3925 44.9636 67.6296 44.9636 67.7829 45.1092C67.9285 45.2621 67.9285 45.5072 67.7829 45.6529Z" fill="white"/>
<path d="M54.7899 71.3679V77.1318C55.3267 76.5384 56.0947 76.1585 56.9558 76.1585H66.7563C67.6166 76.1585 68.3839 76.538 68.9206 77.1311V71.3726C68.9206 71.3487 68.9264 71.3258 68.9268 71.3018C68.9653 69.6077 70.1761 68.2339 71.6674 67.8766V67.0228C71.6674 65.5858 70.4981 64.4165 69.0604 64.4165H54.6478C53.2101 64.4165 52.0408 65.5858 52.0408 67.0228V67.8766C53.6125 68.2499 54.7818 69.6873 54.7898 71.3679L54.7899 71.3679ZM67.1609 66.1938H67.1744C67.3861 66.1938 67.5571 66.3648 67.5571 66.5765C67.5571 66.7883 67.3861 66.9593 67.1744 66.9593C66.9627 66.9593 66.7847 66.7883 66.7847 66.5765C66.7851 66.3652 66.9496 66.1938 67.1609 66.1938H67.1609ZM67.1609 68.746H67.1744C67.3861 68.746 67.5571 68.917 67.5571 69.1287C67.5571 69.3404 67.3861 69.5115 67.1744 69.5115C66.9627 69.5115 66.7847 69.3405 66.7847 69.1287C66.7851 68.917 66.9496 68.746 67.1609 68.746H67.1609ZM67.1609 71.2982H67.1744C67.3861 71.2982 67.5571 71.4692 67.5571 71.6809C67.5571 71.8927 67.3861 72.0637 67.1744 72.0637C66.9627 72.0637 66.7847 71.8927 66.7847 71.6809C66.7851 71.4692 66.9496 71.2982 67.1609 71.2982H67.1609ZM67.1609 73.8496H67.1744C67.3861 73.8496 67.5571 74.0207 67.5571 74.2324C67.5571 74.4441 67.3861 74.6151 67.1744 74.6151C66.9627 74.6151 66.7847 74.4441 66.7847 74.2324C66.7851 74.021 66.9496 73.8496 67.1609 73.8496H67.1609ZM64.5038 66.1937H64.5172C64.7289 66.1937 64.9 66.3647 64.9 66.5764C64.9 66.7882 64.7289 66.9592 64.5172 66.9592C64.3055 66.9592 64.1276 66.7882 64.1276 66.5764C64.1279 66.3651 64.2924 66.1937 64.5038 66.1937H64.5038ZM64.5038 68.7459H64.5172C64.7289 68.7459 64.9 68.9169 64.9 69.1286C64.9 69.3403 64.7289 69.5114 64.5172 69.5114C64.3055 69.5114 64.1276 69.3404 64.1276 69.1286C64.1279 68.9169 64.2924 68.7459 64.5038 68.7459H64.5038ZM64.5038 71.2981H64.5172C64.7289 71.2981 64.9 71.4691 64.9 71.6808C64.9 71.8926 64.7289 72.0636 64.5172 72.0636C64.3055 72.0636 64.1276 71.8926 64.1276 71.6808C64.1279 71.4691 64.2924 71.2981 64.5038 71.2981H64.5038ZM64.5038 73.8495H64.5172C64.7289 73.8495 64.9 74.0206 64.9 74.2323C64.9 74.444 64.7289 74.6151 64.5172 74.6151C64.3055 74.6151 64.1276 74.444 64.1276 74.2323C64.1279 74.0209 64.2924 73.8495 64.5038 73.8495H64.5038ZM61.8474 66.1936H61.8608C62.0725 66.1936 62.2436 66.3646 62.2436 66.5763C62.2436 66.7881 62.0725 66.9591 61.8608 66.9591C61.6491 66.9591 61.4711 66.7881 61.4711 66.5763C61.4715 66.365 61.636 66.1936 61.8474 66.1936H61.8474ZM61.8474 68.7458H61.8608C62.0725 68.7458 62.2436 68.9168 62.2436 69.1285C62.2436 69.3403 62.0725 69.5113 61.8608 69.5113C61.6491 69.5113 61.4711 69.3403 61.4711 69.1285C61.4715 68.9168 61.636 68.7458 61.8474 68.7458H61.8474ZM61.8474 71.298H61.8608C62.0725 71.298 62.2436 71.469 62.2436 71.6807C62.2436 71.8925 62.0725 72.0635 61.8608 72.0635C61.6491 72.0635 61.4711 71.8925 61.4711 71.6807C61.4715 71.469 61.636 71.298 61.8474 71.298H61.8474ZM61.8474 73.8494H61.8608C62.0725 73.8494 62.2436 74.0205 62.2436 74.2322C62.2436 74.4439 62.0725 74.615 61.8608 74.615C61.6491 74.615 61.4711 74.4439 61.4711 74.2322C61.4715 74.0209 61.636 73.8494 61.8474 73.8494H61.8474ZM59.1902 66.1935H59.2036C59.4154 66.1935 59.5864 66.3645 59.5864 66.5763C59.5864 66.788 59.4154 66.959 59.2036 66.959C58.9919 66.959 58.814 66.788 58.814 66.5763C58.8143 66.3649 58.9788 66.1935 59.1902 66.1935H59.1902ZM59.1902 68.7457H59.2036C59.4154 68.7457 59.5864 68.9167 59.5864 69.1285C59.5864 69.3402 59.4154 69.5112 59.2036 69.5112C58.9919 69.5112 58.814 69.3402 58.814 69.1285C58.8143 68.9167 58.9788 68.7457 59.1902 68.7457H59.1902ZM59.1902 71.2979H59.2036C59.4154 71.2979 59.5864 71.4689 59.5864 71.6807C59.5864 71.8924 59.4154 72.0634 59.2036 72.0634C58.9919 72.0634 58.814 71.8924 58.814 71.6807C58.8143 71.4689 58.9788 71.2979 59.1902 71.2979H59.1902ZM59.1902 73.8493H59.2036C59.4154 73.8493 59.5864 74.0204 59.5864 74.2321C59.5864 74.4438 59.4154 74.6149 59.2036 74.6149C58.9919 74.6149 58.814 74.4438 58.814 74.2321C58.8143 74.0208 58.9788 73.8493 59.1902 73.8493H59.1902ZM56.533 66.1934H56.5465C56.7582 66.1934 56.9292 66.3644 56.9292 66.5762C56.9292 66.7879 56.7582 66.9589 56.5465 66.9589C56.3348 66.9589 56.1568 66.7879 56.1568 66.5762C56.1572 66.3648 56.3217 66.1934 56.533 66.1934H56.533ZM56.533 68.7456H56.5465C56.7582 68.7456 56.9292 68.9166 56.9292 69.1284C56.9292 69.3401 56.7582 69.5111 56.5465 69.5111C56.3348 69.5111 56.1568 69.3401 56.1568 69.1284C56.1572 68.9166 56.3217 68.7456 56.533 68.7456H56.533ZM56.533 71.2978H56.5465C56.7582 71.2978 56.9292 71.4688 56.9292 71.6806C56.9292 71.8923 56.7582 72.0633 56.5465 72.0633C56.3348 72.0633 56.1568 71.8923 56.1568 71.6806C56.1572 71.4688 56.3217 71.2978 56.533 71.2978H56.533ZM56.533 73.8493H56.5465C56.7582 73.8493 56.9292 74.0203 56.9292 74.232C56.9292 74.4437 56.7582 74.6148 56.5465 74.6148C56.3348 74.6148 56.1568 74.4437 56.1568 74.232C56.1572 74.0207 56.3217 73.8493 56.533 73.8493H56.533Z" fill="white"/>
<path d="M72.6079 74.9676C72.4292 74.9313 72.3014 74.7747 72.3014 74.5924C72.3014 74.3876 72.4623 74.2017 72.6671 74.1926C73.3055 74.1639 73.9254 73.9061 74.412 73.4678C75.2226 72.7317 75.5291 71.6517 75.2306 70.5789C74.9553 69.5868 74.1291 68.8115 73.1257 68.6041C71.3525 68.2345 69.6957 69.5738 69.6881 71.371V80.5804C69.6881 80.6868 69.6445 80.7827 69.5748 80.8521C69.5055 80.9221 69.4096 80.9654 69.3032 80.9654L54.4044 80.965C54.1927 80.965 54.0217 80.794 54.0217 80.5822V71.3721C54.0115 69.5589 52.3366 68.2377 50.5863 68.6042C49.5829 68.8116 48.7567 69.5865 48.4808 70.5786C48.1834 71.6517 48.4899 72.7325 49.3 73.4686C49.7859 73.9062 50.4059 74.164 51.0443 74.1927C51.2491 74.2021 51.41 74.3703 51.41 74.5751C51.41 74.7581 51.2807 74.9331 51.1006 74.9684C50.4582 75.094 49.8513 75.7186 49.3916 76.7267C48.9558 77.6836 48.7158 78.9136 48.7158 80.1897C48.7158 81.5777 49.0371 83.3401 49.7856 84.3656C49.8335 84.4309 49.8597 84.5101 49.8597 84.5915V85.6228C49.8597 85.8894 50.0765 86.1062 50.3434 86.1062H53.5406C53.8075 86.1062 54.0243 85.8894 54.0243 85.6228V84.5915C54.0243 84.3798 54.1954 84.2087 54.4071 84.2087H69.3058C69.5175 84.2087 69.6886 84.3797 69.6886 84.5915V85.6228C69.6886 85.8894 69.9054 86.1062 70.1723 86.1062H73.3695C73.6364 86.1062 73.8532 85.8894 73.8532 85.6228V84.5915C73.8532 84.5105 73.8794 84.4309 73.9273 84.3656C74.6656 83.3538 74.9972 81.5806 74.9972 80.1897C74.9972 78.9147 74.7571 77.6848 74.3206 76.726C73.8634 75.7247 73.2555 75.1002 72.608 74.9676L72.6079 74.9676Z" fill="white"/>
<path d="M56.9561 76.9237C55.7621 76.9237 54.7903 77.8951 54.7903 79.0892V80.1971H68.9211V79.0815C68.9171 77.8911 67.9482 76.9233 66.7568 76.9233L56.9561 76.9237Z" fill="white"/>
</svg>
