<svg width="124" height="124" viewBox="0 0 124 124" fill="none" xmlns="http://www.w3.org/2000/svg">
<circle cx="62" cy="62" r="54" fill="#407CD0"/>
<path d="M67.4355 57.5645H57.5648V67.4352H67.4355V57.5645Z" fill="white"/>
<path d="M84.71 46.8711H81.42V57.5647H84.71V46.8711Z" fill="white"/>
<path d="M84.71 67.4355H81.42V78.1291H84.71V67.4355Z" fill="white"/>
<path d="M81.4193 57.5645H88V67.4358H78.1287V57.5645H81.4193Z" fill="white"/>
<path d="M43.5811 46.8711H40.2911V57.5647H43.5811V46.8711Z" fill="white"/>
<path d="M43.5811 67.4355H40.2911V78.1291H43.5811V67.4355Z" fill="white"/>
<path d="M40.2913 57.5645H46.8721V67.4358H37.0007V57.5645H40.2913Z" fill="white"/>
<path d="M78.1289 40.2905H67.4353V43.5805H78.1289V40.2905Z" fill="white"/>
<path d="M57.5645 40.29H46.8709V43.58H57.5645V40.29Z" fill="white"/>
<path d="M67.4355 37V46.8713H57.5642V37H67.4355Z" fill="white"/>
<path d="M88 37V46.8713H78.1287V37H88Z" fill="white"/>
<path d="M46.8711 37V46.8713H36.9998V37H46.8711Z" fill="white"/>
<path d="M78.1289 81.4189H67.4353V84.7089H78.1289V81.4189Z" fill="white"/>
<path d="M57.5645 81.4189H46.8709V84.7089H57.5645V81.4189Z" fill="white"/>
<path d="M67.4355 78.1289V88.0002H57.5642V78.1289H67.4355Z" fill="white"/>
<path d="M81.4193 78.1289H88V88.0002H78.1287V78.1289H81.4193Z" fill="white"/>
<path d="M40.2913 78.1289H46.8721V88.0002H37.0007V78.1289H40.2913Z" fill="white"/>
</svg>
