<svg width="124" height="124" viewBox="0 0 124 124" fill="none" xmlns="http://www.w3.org/2000/svg">
<circle cx="62" cy="62" r="54" fill="#666D6F"/>
<path fill-rule="evenodd" clip-rule="evenodd" d="M76.7185 39.516C76.9027 39.1895 77 38.8494 77 38.5C77 36.0147 72.0751 34 66 34C59.9249 34 55 36.0147 55 38.5C55 38.8494 55.0973 39.1895 55.2815 39.516C50.6857 43.2703 48 48.9019 48 54.8682V55H44.9585C44.7205 53.5811 43.4865 52.5 42 52.5H38.5L33 58V66C33 68.2091 34.7909 70 37 70H42.5V73.1404C38.7987 73.8425 36 77.0944 36 81C36 85.4183 39.5817 89 44 89C48.4183 89 52 85.4183 52 81C52 80.6613 51.979 80.3276 51.9381 80H79H79.0109H79.0217H79.0326H79.0434H79.0543H79.0651H79.076H79.0868H79.0977H79.1085H79.1193H79.1301H79.1409H79.1517H79.1625H79.1733H79.1841H79.1949H79.2057H79.2165H79.2273H79.238H79.2488H79.2595H79.2703H79.281H79.2918H79.3025H79.3133H79.324H79.3347H79.3454H79.3562H79.3669H79.3776H79.3883H79.399H79.4097H79.4204H79.431H79.4417H79.4524H79.4631H79.4737H79.4844H79.4951H79.5057H79.5163H79.527H79.5376H79.5483H79.5589H79.5695H79.5801H79.5907H79.6013H79.6119H79.6226H79.6331H79.6437H79.6543H79.6649H79.6755H79.686H79.6966H79.7072H79.7177H79.7283H79.7388H79.7494H79.7599H79.7705H79.781H79.7915H79.802H79.8125H79.8231H79.8336H79.8441H79.8546H79.8651H79.8755H79.886H79.8965H79.907H79.9174H79.9279H79.9384H79.9488H79.9593H79.9697H79.9802H79.9906H80.001H80.0115H80.0219H80.0323H80.0427H80.0531H80.0635H80.074H80.0843H80.0947H80.1051H80.1155H80.1259H80.1363H80.1466H80.157H80.1674H80.1777H80.1881H80.1984H80.2088H80.2191H80.2294H80.2398H80.2501H80.2604H80.2707H80.281H80.2913H80.3016H80.3119H80.3222H80.3325H80.3428H80.3531H80.3634H80.3736H80.3839H80.3942H80.4044H80.4147H80.4249H80.4352H80.4454H80.4557H80.4659H80.4761H80.4863H80.4966H80.5068H80.517H80.5272H80.5374H80.5476H80.5578H80.568H80.5781H80.5883H80.5985H80.6087H80.6188H80.629H80.6392H80.6493H80.6595H80.6696H80.6797H80.6899H80.7H80.7101H80.7203H80.7304H80.7405H80.7506H80.7607H80.7708H80.7809H80.791H80.8011H80.8112H80.8212H80.8313H80.8414H80.8514H80.8615H80.8716H80.8816H80.8917H80.9017H80.9118H80.9218H80.9318H80.9418H80.9519H80.9619H80.9719H80.9819H80.9919H81.0019H81.0119H81.0219H81.0319H81.0419H81.0519H81.0618H81.0718H81.0818H81.0917H81.1017H81.1117H81.1216H81.1316H81.1415H81.1514H81.1614H81.1713H81.1812H81.1912H81.2011H81.211H81.2209H81.2308H81.2407H81.2506H81.2605H81.2704H81.2803H81.2901H81.3H81.3099H81.3197H81.3296H81.3395H81.3493H81.3592H81.369H81.3789H81.3887H81.3985H81.4084H81.4182H81.428H81.4378H81.4476H81.4574H81.4673H81.4771H81.4869H81.4966H81.5064H81.5162H81.526H81.5358H81.5455H81.5553H81.5651H81.5748H81.5846H81.5943H81.6041H81.6138H81.6236H81.6333H81.643H81.6528H81.6625H81.6722H81.6819H81.6916H81.7013H81.711H81.7207H81.7304H81.7401H81.7498H81.7595H81.7692H81.7788H81.7885H81.7982H81.8078H81.8175H81.8272H81.8368H81.8465H81.8561H81.8657H81.8754H81.885H81.8946H81.9043H81.9139H81.9235H81.9331H81.9427H81.9523H81.9619H81.9715H81.9811H81.9907H82.0003H82.0098H82.0194H82.029H82.0385H82.0481H82.0577H82.0672H82.0768H82.0863H82.0959H82.1054H82.1149H82.1245H82.134H82.1435H82.153H82.1626H82.1721H82.1816H82.1911H82.2006H82.2101H82.2196H82.2291H82.2385H82.248H82.2575H82.267H82.2764H82.2859H82.2954H82.3048H82.3143H82.3237H82.3332H82.3426H82.3521H82.3615H82.3709H82.3804H82.3898H82.3992H82.4086H82.418H82.4274H82.4368H82.4462H82.4556H82.465H82.4744H82.4838H82.4932H82.5026H82.5119H82.5213H82.5307H82.54H82.5494H82.5587H82.5681H82.5774H82.5868H82.5961H82.6055H82.6148H82.6241H82.6334H82.6428H82.6521H82.6614H82.6707H82.68H82.6893H82.6986H82.7079H82.7172H82.7265H82.7358H82.745H82.7543H82.7636H82.7729H82.7821H82.7914H82.8006H82.8099H82.8191H82.8284H82.8376H82.8469H82.8561H82.8653H82.8746H82.8838H82.893H82.9022H82.9114H82.9206H82.9298H82.939H82.9482H82.9574H82.9666H82.9758H82.985H82.9942H83.0034H83.0125H83.0217H83.0309H83.04H83.0492H83.0583H83.0675H83.0766H83.0858H83.0949H83.1041H83.1132H83.1223H83.1314H83.1406H83.1497H83.1588H83.1679H83.177H83.186L89.2423 89.3175C89.6938 90.0121 90.6229 90.2091 91.3175 89.7577C92.0121 89.3062 92.2091 88.3771 91.7577 87.6825L86.4162 79.4649C86.9109 79.2291 87.3791 78.9112 87.7977 78.5027C88.8846 77.4419 89.5 75.9045 89.5 74V56.5V53.5C89.5 52.6716 88.8284 52 88 52C87.1716 52 86.5 52.6716 86.5 53.5V55H84V54.8682C84 48.9019 81.3143 43.2703 76.7185 39.516ZM50.9297 77H79H79.0109H79.0217H79.0326H79.0434H79.0543H79.0651H79.076H79.0868H79.0977H79.1085H79.1193H79.1301H79.1409H79.1517H79.1625H79.1733H79.1841H79.1949H79.2057H79.2165H79.2273H79.238H79.2488H79.2595H79.2703H79.281H79.2918H79.3025H79.3133H79.324H79.3347H79.3454H79.3562H79.3669H79.3776H79.3883H79.399H79.4097H79.4204H79.431H79.4417H79.4524H79.4631H79.4737H79.4844H79.4951H79.5057H79.5163H79.527H79.5376H79.5483H79.5589H79.5695H79.5801H79.5907H79.6013H79.6119H79.6226H79.6331H79.6437H79.6543H79.6649H79.6755H79.686H79.6966H79.7072H79.7177H79.7283H79.7388H79.7494H79.7599H79.7705H79.781H79.7915H79.802H79.8125H79.8231H79.8336H79.8441H79.8546H79.8651H79.8755H79.886H79.8965H79.907H79.9174H79.9279H79.9384H79.9488H79.9593H79.9697H79.9802H79.9906H80.001H80.0115H80.0219H80.0323H80.0427H80.0531H80.0635H80.074H80.0843H80.0947H80.1051H80.1155H80.1259H80.1363H80.1466H80.157H80.1674H80.1777H80.1881H80.1984H80.2088H80.2191H80.2294H80.2398H80.2501H80.2604H80.2707H80.281H80.2913H80.3016H80.3119H80.3222H80.3325H80.3428H80.3531H80.3634H80.3736H80.3839H80.3942H80.4044H80.4147H80.4249H80.4352H80.4454H80.4557H80.4659H80.4761H80.4863H80.4966H80.5068H80.517H80.5272H80.5374H80.5476H80.5578H80.568H80.5781H80.5883H80.5985H80.6087H80.6188H80.629H80.6392H80.6493H80.6595H80.6696H80.6797H80.6899H80.7H80.7101H80.7203H80.7304H80.7405H80.7506H80.7607H80.7708H80.7809H80.791H80.8011H80.8112H80.8212H80.8313H80.8414H80.8514H80.8615H80.8716H80.8816H80.8917H80.9017H80.9118H80.9218H80.9318H80.9418H80.9519H80.9619H80.9719H80.9819H80.9919H81.0019H81.0119H81.0219H81.0319H81.0419H81.0519H81.0618H81.0718H81.0818H81.0917H81.1017H81.1117H81.1216H81.1316H81.1415H81.1514H81.1614H81.1713H81.1812H81.1912H81.2011H81.211H81.2209H81.2308H81.2407H81.2506H81.2605H81.2704H81.2803H81.2901H81.3H81.3099H81.3197H81.3296H81.3395H81.3493H81.3592H81.369H81.3789H81.3887H81.3985H81.4084H81.4182H81.428H81.4378H81.4476H81.4574H81.4673H81.4771H81.4869H81.4966H81.5064H81.5162H81.526H81.5358H81.5455H81.5553H81.5651H81.5748H81.5846H81.5943H81.6041H81.6138H81.6236H81.6333H81.643H81.6528H81.6625H81.6722H81.6819H81.6916H81.7013H81.711H81.7207H81.7304H81.7401H81.7498H81.7595H81.7692H81.7788H81.7885H81.7982H81.8078H81.8175H81.8272H81.8368H81.8465H81.8561H81.8657H81.8754H81.885H81.8946H81.9043H81.9139H81.9235H81.9331H81.9427H81.9523H81.9619H81.9715H81.9811H81.9907H82.0003H82.0098H82.0194H82.029H82.0385H82.0481H82.0577H82.0672H82.0768H82.0863H82.0959H82.1054H82.1149H82.1245H82.134H82.1435H82.153H82.1626H82.1721H82.1816H82.1911H82.2006H82.2101H82.2196H82.2291H82.2385H82.248H82.2575H82.267H82.2764H82.2859H82.2954H82.3048H82.3143H82.3237H82.3332H82.3426H82.3521H82.3615H82.3709H82.3804H82.3898H82.3992H82.4086H82.418H82.4274H82.4368H82.4462H82.4556H82.465H82.4744H82.4838H82.4932H82.5026H82.5119H82.5213H82.5307H82.54H82.5494H82.5587H82.5681H82.5774H82.5868H82.5961H82.6055H82.6148H82.6241H82.6334H82.6428H82.6521H82.6614H82.6707H82.68H82.6893H82.6986H82.7079H82.7172H82.7265H82.7358H82.745H82.7543H82.7636H82.7729H82.7821H82.7914H82.8006H82.8099H82.8191H82.8284H82.8376H82.8469H82.8561H82.8653H82.8746H82.8838H82.893H82.9022H82.9114H82.9206H82.9298H82.939H82.9482H82.9574H82.9666H82.9758H82.985H82.9942H83.0034H83.0125H83.0217H83.0309H83.04H83.0492H83.0583H83.0675H83.0766H83.0858H83.0949H83.1041H83.1132H83.1223H83.1314H83.1406H83.1497H83.1588H83.1679H83.177H83.1861H83.1952H83.2043H83.2134H83.2225H83.2316H83.2407H83.2498H83.2588H83.2679H83.277H83.286H83.2951H83.3042H83.3132H83.3223H83.3313H83.3404H83.3494H83.3584H83.3675H83.3765H83.3855H83.3945H83.4036H83.4126H83.4216H83.4306H83.4396H83.4486H83.4576H83.4666H83.4756H83.4846H83.4936H83.5025H83.5115H83.5205H83.5295H83.5384H83.5474H83.5564H83.5653H83.5743H83.5832H83.5922H83.6011H83.61H83.619H83.6279H83.6368H83.6458H83.6547H83.6636H83.6725H83.6814H83.6903H83.6992H83.7081H83.717H83.7259H83.7348H83.7437H83.7526H83.7615H83.7704H83.7792H83.7881H83.797H83.8058H83.8147H83.8236H83.8324H83.8413H83.8501H83.8589H83.8678H83.8766H83.8855H83.8943H83.9031H83.9119H83.9208H83.9296H83.9384H83.9472H83.956H83.9648H83.9736H83.9824H83.9912H84C84.6688 77 85.2729 76.7748 85.7023 76.3557C86.1154 75.9526 86.5 75.24 86.5 74V58H84V65.9004C84 68.2035 82.7858 70.3359 80.8052 71.5112C71.9529 76.7642 60.9708 76.8963 51.9948 71.8578L51.4548 71.5547C49.321 70.3569 48 68.1005 48 65.6535V58H45.5V73.1404C47.8204 73.5806 49.786 75.0228 50.9297 77ZM73 38.5C73 39.8807 69.866 41 66 41C62.134 41 59 39.8807 59 38.5C59 37.1193 62.134 36 66 36C69.866 36 73 37.1193 73 38.5ZM44 85C46.2091 85 48 83.2091 48 81C48 78.7909 46.2091 77 44 77C41.7909 77 40 78.7909 40 81C40 83.2091 41.7909 85 44 85Z" fill="white"/>
</svg>
