<svg width="124" height="124" viewBox="0 0 124 124" fill="none" xmlns="http://www.w3.org/2000/svg">
<circle cx="62" cy="62" r="54" fill="#63A9F8"/>
<g clip-path="url(#clip0_139_2412)">
<path d="M85.4948 81.2487L88.4723 69.3934L79.8508 52.2105C79.7817 52.0723 79.6404 51.9843 79.4865 51.9843H74.4141C74.3575 51.8807 74.2853 51.7707 74.1785 51.6545C73.3839 50.7718 65.224 40.6442 65.224 40.6442C65.224 40.6442 64.6901 40.0945 63.17 40.0945C63.17 40.0945 61.2069 39.8526 60.3464 41.1751C60.3464 41.1751 59.5172 42.6924 59.0555 43.4902C58.9299 43.707 58.8168 43.9332 58.7163 44.1625C58.5278 44.5866 57.9562 45.485 56.2884 46.3834L52.0106 48.5886C52.0106 48.5886 50.9522 49.2734 51.527 50.244C51.527 50.244 51.9667 50.8849 53.1382 50.42C53.1382 50.42 56.9825 48.7676 59.7747 46.9331C59.825 46.9017 59.8878 46.9363 59.8878 46.9959V51.9875H43.276C43.1127 51.9875 42.9651 52.0848 42.9023 52.2356L35 70.6499L38.2193 81.3461L35.0879 90.0004H40.867L47.8679 71.495C48.0344 71.052 48.4584 70.7599 48.9295 70.7599H74.6465C75.1082 70.7599 75.5228 71.0395 75.6987 71.4635L83.3057 89.9972H88.9969L85.4948 81.2487ZM66.4113 46.4399C66.4113 46.396 66.4647 46.3771 66.4929 46.4085L71.3957 51.9875H66.4113V46.4399ZM44.5952 65.5548C44.1963 65.5548 43.8414 65.8029 43.7063 66.1799L39.4066 78.0666L37.1829 70.7348L44.2528 54.2523C44.2842 54.177 44.3596 54.1267 44.4413 54.1267L59.5392 54.1173L54.2752 65.5548H44.5952ZM79.4425 66.1485C79.298 65.7904 78.9525 65.5548 78.5662 65.5548H57.6987L62.6611 54.3686C62.6611 54.3686 62.7428 54.2304 62.8716 54.1141H63.5563C63.6222 54.177 63.6913 54.2618 63.7604 54.378L66.2982 58.2732C66.2982 58.2732 66.807 59.1559 67.9534 59.9287C67.9534 59.9287 72.2532 62.8627 74.8349 63.9433C74.8349 63.9433 76.0033 64.672 76.622 63.5694C76.622 63.5694 77.4387 62.203 76.4682 61.6501L70.8869 58.4083C70.8869 58.4083 69.8285 58.1004 68.9019 56.7088L67.0457 54.1141L78.2835 54.1078C78.3621 54.1078 78.4312 54.1518 78.4688 54.2209L86.4182 69.5316L84.1694 77.9503L79.4425 66.1485Z" fill="white"/>
<path d="M62.7679 39.3436C64.2441 39.3436 65.4408 38.1467 65.4408 36.6703C65.4408 35.1939 64.2441 33.9971 62.7679 33.9971C61.2917 33.9971 60.0951 35.1939 60.0951 36.6703C60.0982 38.1499 61.2917 39.3436 62.7679 39.3436Z" fill="white"/>
</g>
<defs>
<clipPath id="clip0_139_2412">
<rect width="54" height="56" fill="white" transform="translate(35 34)"/>
</clipPath>
</defs>
</svg>
