<svg width="124" height="124" viewBox="0 0 124 124" fill="none" xmlns="http://www.w3.org/2000/svg">
<circle cx="62" cy="62" r="54" fill="#59A397"/>
<g clip-path="url(#clip0_105_823)">
<path fill-rule="evenodd" clip-rule="evenodd" d="M54.3926 38.1445C58.0044 38.1445 60.936 42.7109 60.936 48.3398C60.936 53.9687 58.0044 58.5352 54.3926 58.5352C50.7808 58.5352 47.8492 53.9727 47.8492 48.3398C47.853 42.7109 50.7808 38.1445 54.3926 38.1445ZM62.7112 62.8242C70.3727 62.8398 71.3256 68 77.7845 76.832C81.0044 83.2578 76.8239 87.3086 69.6581 85.5742C66.4075 83.8906 64.1213 83.2969 61.8275 83.375C57.8545 83.5156 56.8517 86.1797 52.2294 85.9922C48.6637 85.8945 47.0577 84.375 46.7464 82.0586C46.4122 79.5977 47.3458 78.043 48.4832 76.0078C52.9018 68.0859 57.4703 61.832 62.7112 62.8242ZM41.7553 53.2656C39.0541 54.3516 38.1935 58.6445 39.8303 62.8516C41.4671 67.0586 44.9828 69.5898 47.684 68.5039C50.3851 67.418 51.2458 63.125 49.6089 58.918C47.9721 54.7109 44.4564 52.1797 41.7553 53.2656ZM82.2454 53.2656C84.9466 54.3516 85.8072 58.6445 84.1704 62.8516C82.5336 67.0586 79.0141 69.5898 76.3168 68.5039C73.6156 67.418 72.755 63.125 74.3918 58.918C76.0286 54.7109 79.5443 52.1797 82.2454 53.2656ZM69.489 38C73.1008 38 76.0324 42.5664 76.0324 48.1953C76.0324 53.8242 73.1008 58.3906 69.489 58.3906C65.8772 58.3906 62.9456 53.8281 62.9456 48.1953C62.9494 42.5664 65.8772 38 69.489 38Z" fill="white"/>
</g>
<defs>
<clipPath id="clip0_105_823">
<rect width="46" height="48" fill="white" transform="translate(39 38)"/>
</clipPath>
</defs>
</svg>
