<svg width="124" height="124" viewBox="0 0 124 124" fill="none" xmlns="http://www.w3.org/2000/svg">
<circle cx="62" cy="62" r="54" fill="#809CDA"/>
<path fill-rule="evenodd" clip-rule="evenodd" d="M46.5 44.5V38H77.5V44.5C77.5 45.3284 78.1716 46 79 46C79.8284 46 80.5 45.3284 80.5 44.5V37.5C80.5 36.1193 79.3807 35 78 35H46C44.6193 35 43.5 36.1193 43.5 37.5V44.5C43.5 45.3284 44.1716 46 45 46C45.8284 46 46.5 45.3284 46.5 44.5ZM65.143 48.3889C66.2757 47.4722 67 46.0707 67 44.5C67 41.7386 64.7614 39.5 62 39.5C59.2386 39.5 57 41.7386 57 44.5C57 46.0707 57.7243 47.4722 58.857 48.3889C58.7734 48.4246 58.6905 48.4616 58.6084 48.5H58.9995C59.8353 49.1279 60.8742 49.5 62 49.5C63.1258 49.5 64.1647 49.1279 65.0005 48.5H65.3916C65.3095 48.4616 65.2266 48.4246 65.143 48.3889ZM54 55.7462C54 52.793 55.6169 50.1447 58.1034 48.7584L62 58.5L65.8966 48.7584C68.3831 50.1447 70 52.793 70 55.7462V60.5H54V55.7462ZM62 51.5L63 54.5L62 57.5L61 54.5L62 51.5ZM49 52.5C49 55.2614 46.7614 57.5 44 57.5C41.2386 57.5 39 55.2614 39 52.5C39 49.7386 41.2386 47.5 44 47.5C46.7614 47.5 49 49.7386 49 52.5ZM49 67.0512L50.6567 68.5532L51.2284 69.0714H52H60C61.1046 69.0714 62 68.176 62 67.0714C62 65.9669 61.1046 65.0714 60 65.0714H52.7716L48.3838 61.0935C47.5334 59.5476 45.889 58.5 44 58.5C41.2386 58.5 39 60.7386 39 63.5V71.7857C39 75.0994 41.6863 77.7857 45 77.7857H50.5C51.6046 77.7857 52.5 78.6811 52.5 79.7857V86.25C52.5 87.4926 53.5074 88.5 54.75 88.5C55.9926 88.5 57 87.4926 57 86.25V75.4286C57 73.7717 55.6569 72.4286 54 72.4286H51C49.8954 72.4286 49 71.5331 49 70.4286V67.0512ZM85 52.5C85 55.2614 82.7614 57.5 80 57.5C77.2386 57.5 75 55.2614 75 52.5C75 49.7386 77.2386 47.5 80 47.5C82.7614 47.5 85 49.7386 85 52.5ZM76 67.0512L74.3433 68.5532L73.7716 69.0714H73H65C63.8954 69.0714 63 68.176 63 67.0714C63 65.9669 63.8954 65.0714 65 65.0714H72.2284L76.6162 61.0935C77.4666 59.5476 79.111 58.5 81 58.5C83.7614 58.5 86 60.7386 86 63.5V71.7857C86 75.0994 83.3137 77.7857 80 77.7857H74.5C73.3954 77.7857 72.5 78.6811 72.5 79.7857V86.25C72.5 87.4926 71.4926 88.5 70.25 88.5C69.0074 88.5 68 87.4926 68 86.25V75.4286C68 73.7717 69.3431 72.4286 71 72.4286H74C75.1046 72.4286 76 71.5331 76 70.4286V67.0512ZM54 70.5C54 69.9477 54.4477 69.5 55 69.5H70C70.5523 69.5 71 69.9477 71 70.5C71 71.0523 70.5523 71.5 70 71.5H55C54.4477 71.5 54 71.0523 54 70.5ZM52 62.5C52 61.9477 52.4477 61.5 53 61.5H71C71.5523 61.5 72 61.9477 72 62.5C72 63.0523 71.5523 63.5 71 63.5H53C52.4477 63.5 52 63.0523 52 62.5Z" fill="white"/>
</svg>
