<svg width="124" height="124" viewBox="0 0 124 124" fill="none" xmlns="http://www.w3.org/2000/svg">
<circle cx="62" cy="62" r="54" fill="#37BB7E"/>
<g clip-path="url(#clip0_105_254)">
<path fill-rule="evenodd" clip-rule="evenodd" d="M64.0571 43.8113C61.7604 38.339 54.0273 38.2811 51.6489 43.7184L35.1886 81.3479C34.8843 82.0435 34.9514 82.8458 35.367 83.4812C35.7826 84.1166 36.4907 84.4996 37.25 84.4996L86.7501 84.5003C87.5153 84.5003 88.228 84.1114 88.6421 83.4679C89.0562 82.8245 89.1149 82.0147 88.7979 81.3182L77.9836 57.5583C76.2505 53.7504 71.7735 52.6385 68.5262 54.4594L64.0571 43.8113ZM55.7717 45.5219C56.5645 43.7094 59.1422 43.7287 59.9078 45.5528L74.3655 79.9996H40.6901L55.7717 45.5219ZM70.3074 58.7032L79.2461 80.0003H83.2539L73.8879 59.4225C73.2291 57.975 71.3807 57.6961 70.3074 58.7032Z" fill="white"/>
</g>
<defs>
<clipPath id="clip0_105_254">
<rect width="54" height="54" fill="white" transform="translate(35 35)"/>
</clipPath>
</defs>
</svg>
