<svg width="124" height="124" viewBox="0 0 124 124" fill="none" xmlns="http://www.w3.org/2000/svg">
<circle cx="62" cy="62" r="54" fill="#E9A72B"/>
<path fill-rule="evenodd" clip-rule="evenodd" d="M62.3048 38C62.3048 40.7614 60.0662 43 57.3048 43C54.5434 43 52.3048 40.7614 52.3048 38C52.3048 35.2386 54.5434 33 57.3048 33C60.0662 33 62.3048 35.2386 62.3048 38ZM48.1657 84H34.8261L34.108 83.6425C31.4904 82.3392 29.8838 79.6187 30.0066 76.6972C30.1733 72.7286 33.4391 69.5971 37.4111 69.5971H44.8121C45.4435 69.5971 46.0464 69.334 46.4759 68.8711L53.3048 61.5093V48.5C53.3048 46.0147 55.3195 44 57.8048 44C60.2901 44 62.3048 46.0147 62.3048 48.5V51.8071L71.7545 41.6201C72.7127 40.5871 74.058 40 75.4671 40H87.1429C91.0983 40 94.3048 43.2065 94.3048 47.1619C94.3048 51.1173 91.0983 54.3237 87.1429 54.3237H79.7352C78.6375 54.3237 77.5901 54.7844 76.8483 55.5936L52.5883 82.0547C51.4518 83.2943 49.8474 84 48.1657 84ZM37.4111 73.5971H44.8121C46.5565 73.5971 48.2221 72.8703 49.4084 71.5914L74.6871 44.3404C74.8884 44.1233 75.171 44 75.4671 44H87.1429C88.8892 44 90.3048 45.4156 90.3048 47.1619C90.3048 48.9081 88.8892 50.3237 87.1429 50.3237H79.7352C77.5164 50.3237 75.3994 51.2549 73.8999 52.8904L49.6399 79.3516C49.2611 79.7648 48.7263 80 48.1657 80H35.7726C34.6379 79.3788 33.9484 78.1652 34.003 76.865C34.0798 75.0384 35.5829 73.5971 37.4111 73.5971ZM83.3453 73.0805C83.942 72.5058 83.9599 71.5563 83.3853 70.9595C82.8107 70.3628 81.8611 70.3449 81.2643 70.9195L70.3048 81.4731V74.5C70.3048 73.6716 69.6332 73 68.8048 73C67.9764 73 67.3048 73.6716 67.3048 74.5V85V86.5H68.8048H79.3048C80.1332 86.5 80.8048 85.8284 80.8048 85C80.8048 84.1716 80.1332 83.5 79.3048 83.5H72.525L83.3453 73.0805Z" fill="white"/>
</svg>
