<svg width="124" height="124" viewBox="0 0 124 124" fill="none" xmlns="http://www.w3.org/2000/svg">
<circle cx="62" cy="62" r="54" fill="#C5A079"/>
<path d="M84.2912 55.3727H77.4514L64.4426 40.3416C64.4331 40.3226 64.4046 40.3131 64.3861 40.3036C63.7151 39.5105 62.7325 39 61.6179 39C60.5033 39 59.5207 39.5101 58.8497 40.3036C58.8308 40.3226 58.8027 40.3226 58.7932 40.3416L45.7844 55.3626L38.9446 55.363C38.425 55.363 38 55.788 38 56.3076V85.0459C38 85.0649 38.0095 85.0744 38.0095 85.0839C38.0095 85.1594 38.0285 85.2163 38.0474 85.2824C38.0664 85.3389 38.0664 85.3959 38.0945 85.4429C38.1135 85.4899 38.151 85.5374 38.189 85.5844C38.227 85.641 38.2645 85.6979 38.312 85.7355C38.3214 85.745 38.3214 85.764 38.3404 85.7734C38.3689 85.8019 38.4159 85.8114 38.4539 85.83C38.5104 85.8679 38.5579 85.9055 38.6239 85.9245C38.69 85.9529 38.7469 85.9624 38.8129 85.9715C38.86 85.9715 38.8979 85.9905 38.9454 85.9905H79.9465C79.956 85.9905 79.9655 86 79.975 86C79.9845 86 80.0035 85.9905 80.0129 85.9905H84.2915C84.8111 85.9905 85.2361 85.575 85.2361 85.0459V56.3167C85.2361 55.7971 84.8111 55.3721 84.2915 55.3721L84.2912 55.3727ZM58.1977 43.9227C58.7173 45.3208 60.0494 46.3223 61.6175 46.3223C63.1856 46.3223 64.5176 45.3208 65.0372 43.9227L74.9472 55.3727H48.297L58.1977 43.9227ZM83.3458 84.102H80.4077L69.4395 71.0648C69.26 70.8569 68.9955 70.7248 68.7215 70.7248C68.438 70.7248 68.183 70.8478 68.0035 71.0553L62.4297 77.5552L53.9557 67.5222C53.7762 67.3142 53.5116 67.1916 53.2376 67.1916C52.9636 67.1916 52.6991 67.3146 52.5196 67.5222L39.8884 82.4774V57.2625H83.3451L83.3458 84.102Z" fill="white"/>
<path d="M61.6653 67.6825C63.876 67.6825 65.6805 65.8779 65.6805 63.6673C65.6805 61.4471 63.876 59.6426 61.6653 59.6426C59.4452 59.6426 57.6406 61.4471 57.6406 63.6673C57.641 65.8874 59.4456 67.6825 61.6653 67.6825Z" fill="white"/>
</svg>
