<svg width="124" height="124" viewBox="0 0 124 124" fill="none" xmlns="http://www.w3.org/2000/svg">
<circle cx="62" cy="62" r="54" fill="#ABA39A"/>
<path fill-rule="evenodd" clip-rule="evenodd" d="M61.4615 41.5769C74.8438 41.5769 85.6923 48.3271 85.6923 56.6538V64.1923H90V81.423L85.6923 81.4231H37.2307L34 81.423V64.1923H37.2307V56.6538C37.2307 48.3271 48.0792 41.5769 61.4615 41.5769ZM44.7693 55.5769H49.077V62.0384H44.7693V55.5769ZM56.6154 53.423H52.3077V59.8846H56.6154V53.423ZM59.8461 52.3461H64.1538V58.8077H59.8461V52.3461ZM64.1538 64.1923H59.8461V81.423H64.1538V64.1923ZM52.3077 64.1923H56.6154V81.423H52.3077V64.1923ZM71.6923 64.1923H67.3846V81.423H71.6923V64.1923ZM67.3846 53.423H71.6923V59.8846H67.3846V53.423ZM79.2308 55.5769H74.9231V62.0384H79.2308V55.5769Z" fill="white"/>
</svg>
