<svg width="124" height="124" viewBox="0 0 124 124" fill="none" xmlns="http://www.w3.org/2000/svg">
<circle cx="62" cy="62" r="54" fill="#C5A079"/>
<path fill-rule="evenodd" clip-rule="evenodd" d="M63.5715 78C71.7769 78 78.4286 71.3482 78.4286 63.1428C78.4286 54.9375 71.7769 48.2857 63.5715 48.2857C55.3661 48.2857 48.7144 54.9375 48.7144 63.1428C48.7144 71.3482 55.3661 78 63.5715 78ZM63.5714 72.0571C58.6482 72.0571 54.6571 68.066 54.6571 63.1428C54.6571 58.2196 58.6482 54.2285 63.5714 54.2285C68.4947 54.2285 72.4857 58.2196 72.4857 63.1428C72.4857 68.066 68.4947 72.0571 63.5714 72.0571ZM69.5144 63.1429C69.5144 66.4251 66.8537 69.0858 63.5715 69.0858C60.2894 69.0858 57.6287 66.4251 57.6287 63.1429C57.6287 59.8608 60.2894 57.2001 63.5715 57.2001C66.8537 57.2001 69.5144 59.8608 69.5144 63.1429Z" fill="white"/>
<rect x="83.2231" y="65.4286" width="4.59311" height="12.5714" rx="1.125" fill="white"/>
<path fill-rule="evenodd" clip-rule="evenodd" d="M83 46V62H89.8572V52.8571C89.8572 49.07 86.7871 46 83 46Z" fill="white"/>
<path fill-rule="evenodd" clip-rule="evenodd" d="M36.6327 46H35V56.4737C35 58.1305 36.3431 59.4737 38 59.4737H43.4286C45.0854 59.4737 46.4286 58.1305 46.4286 56.4737V46H44.7959L44.0453 53.7434C44.008 54.1278 43.685 54.4211 43.2988 54.4211H43.0278C42.6416 54.4211 42.3185 54.1278 42.2813 53.7434L41.5306 46H39.898L39.1473 53.7434C39.1101 54.1278 38.787 54.4211 38.4008 54.4211H38.1298C37.7436 54.4211 37.4206 54.1278 37.3833 53.7434L36.6327 46Z" fill="white"/>
<rect x="38.3977" y="62.8421" width="4.63347" height="15.1579" rx="1.125" fill="white"/>
</svg>
