<svg width="124" height="124" viewBox="0 0 124 124" fill="none" xmlns="http://www.w3.org/2000/svg">
<circle cx="62" cy="62" r="54" fill="#C5A079"/>
<circle cx="78.5551" cy="77.7466" r="2" stroke="white" stroke-width="2.89"/>
<path d="M72 81L72 81.0002C72.0001 81.0047 72.0014 81.059 71.9272 81.183C71.8442 81.322 71.6766 81.5281 71.3644 81.7808C70.7279 82.296 69.6848 82.8485 68.2186 83.3504C65.3058 84.3475 61.1529 85 56.4725 85C51.792 85 47.654 84.3475 44.7564 83.3513C43.298 82.8499 42.2625 82.2982 41.6314 81.7844C41.3421 81.5489 41.1781 81.3538 41.0905 81.2159C41.1819 81.1213 41.3097 81.0026 41.4828 80.8635C42.1039 80.3642 43.1132 79.7574 44.5106 79.1701C47.2898 78.0019 51.3934 77 56.4725 77C61.6674 77 65.8035 77.6575 68.5658 78.6414C69.9536 79.1357 70.8855 79.6742 71.4348 80.1611C71.9747 80.6397 72 80.9259 72 81ZM41 81C41 81.0007 41 81.0015 41 81.0022C41 81.0015 41 81.0009 41 81.0004L41 81ZM40.9161 81.4243C40.9102 81.4358 40.9064 81.4417 40.906 81.4418C40.9055 81.4419 40.9085 81.4361 40.9161 81.4243Z" stroke="white" stroke-width="4"/>
<path d="M56.7366 78.895V52.4833M56.7366 52.4833L68.2199 46.7417L56.7366 41V52.4833Z" stroke="white" stroke-width="4"/>
</svg>
