<svg width="124" height="124" viewBox="0 0 124 124" fill="none" xmlns="http://www.w3.org/2000/svg">
<circle cx="62" cy="62" r="54" fill="#595BA3"/>
<path d="M58.3065 38.5693C58.3065 39.5163 58.6829 40.424 59.3525 41.0935C60.0215 41.7631 60.9298 42.139 61.8762 42.139C62.8232 42.139 63.731 41.7631 64.4005 41.0935C65.0701 40.424 65.446 39.5163 65.446 38.5693C65.446 37.6228 65.0701 36.7146 64.4005 36.0455C63.731 35.3759 62.8232 35 61.8762 35C60.9302 35.0015 60.0234 35.3784 59.3544 36.0475C58.6853 36.7165 58.3084 37.6234 58.3064 38.5694L58.3065 38.5693Z" fill="white"/>
<path d="M71.749 49.1445C71.747 47.9931 71.2892 46.8897 70.4751 46.0756C69.661 45.262 68.5577 44.8036 67.4068 44.8018H56.3463C55.1945 44.8018 54.0902 45.2596 53.2755 46.0737C52.4613 46.8884 52.0035 47.9927 52.0035 49.1446V62.9524C51.9751 63.37 52.1211 63.7808 52.4069 64.0866C52.6926 64.3925 53.0921 64.566 53.5107 64.566C53.9293 64.566 54.3293 64.3925 54.615 64.0866C54.9008 63.7808 55.0464 63.37 55.0179 62.9524V51.3372C55.0179 50.949 55.3326 50.6344 55.7208 50.6344C55.9071 50.6344 56.086 50.7084 56.2178 50.8402C56.3492 50.9721 56.4232 51.1505 56.4232 51.3372V86.0851C56.4232 86.9262 56.8722 87.7031 57.6006 88.1236C58.3289 88.5442 59.2259 88.5442 59.9543 88.1236C60.6827 87.7031 61.1317 86.9262 61.1317 86.0851V65.1726C61.1317 64.7849 61.4459 64.4702 61.8341 64.4702C62.2223 64.4702 62.537 64.7849 62.537 65.1726V86.0851C62.537 86.9262 62.9854 87.7031 63.7138 88.1236C64.4422 88.5442 65.3397 88.5442 66.0681 88.1236C66.7964 87.7031 67.2449 86.9262 67.2449 86.0851V51.3372C67.2449 50.949 67.5596 50.6343 67.9473 50.6343C68.1341 50.6343 68.3125 50.7084 68.4443 50.8402C68.5762 50.9721 68.6502 51.1505 68.6502 51.3372V62.9524C68.6502 63.7866 69.3266 64.463 70.1608 64.463C70.9956 64.463 71.672 63.7866 71.672 62.9524L71.749 49.1445Z" fill="white"/>
</svg>
