<svg width="124" height="124" viewBox="0 0 124 124" fill="none" xmlns="http://www.w3.org/2000/svg">
<circle cx="62" cy="62" r="54" fill="#37BB7E"/>
<path d="M66.1437 35.9708C69.2143 35.9714 72.0343 37.0677 74.227 38.9006C76.4202 40.7333 77.9868 43.3026 78.5505 46.2474C78.8642 46.1851 79.1773 46.1539 80.4307 46.1221C83.7514 46.1221 86.7279 47.4697 88.8738 49.6473C91.0202 51.8244 92.3362 54.8321 92.3362 58.1527C92.3362 61.4742 90.9892 64.4819 88.8116 66.6594C86.6338 68.8365 83.6263 70.1841 80.3055 70.1841H76.411V77.9942C76.411 78.2511 76.2027 78.4601 75.9451 78.4601H68.2865C68.0289 78.4601 67.8213 78.2511 67.8213 77.9942L67.8238 70.1841H56.5433V77.5546H60.4533C60.8231 77.5546 61.0307 77.9805 60.8037 78.2723L52.5876 88.8282C52.4099 89.0571 52.0638 89.0571 51.8861 88.8282C51.6304 88.4977 51.6304 88.4977 50.6052 87.1788C49.7571 86.0849 48.9077 84.9918 48.059 83.8985C47.03 82.5727 46.0004 81.247 44.9708 79.9211C43.9462 78.6016 43.9462 78.6016 43.6906 78.2717C43.4636 77.9798 43.6718 77.5545 44.041 77.5545H47.9959V70.184H42.4577C39.7012 70.184 37.1632 69.0559 35.3148 67.2231C33.4665 65.3904 32.3071 62.8522 32.3071 60.0329C32.3071 57.4006 33.3093 54.9884 34.9544 53.1557C36.5995 51.323 38.8863 50.0694 41.4556 49.7564C41.957 47.3754 43.2417 45.3387 45.012 43.8976C46.7818 42.4564 49.0374 41.6108 51.4813 41.6102C52.108 41.6108 52.7347 41.6732 55.2411 42.3622C56.3062 40.4203 57.9039 38.822 59.7997 37.71C61.6949 36.5975 63.8881 35.9713 66.1437 35.9707L66.1437 35.9708ZM72.0394 53.0655C71.8262 53.1017 71.9203 53.0593 71.7551 53.1921C71.4988 53.5071 71.4988 53.5071 70.4742 54.7692C69.1939 56.347 69.1939 56.347 67.6568 58.2396C66.1202 60.1328 66.1202 60.1328 64.8393 61.71C63.8154 62.9721 63.8154 62.9721 63.5591 63.2871C63.3346 63.564 63.5316 63.9774 63.8877 63.9774H67.8632V69.2893C67.8632 69.5238 68.0534 69.5456 68.2866 69.5456H75.9453C76.1797 69.5456 76.3687 69.5238 76.3687 69.2893V63.9774H80.2993C80.6566 63.9774 80.8531 63.564 80.6279 63.2871L72.4118 53.1915L72.2615 53.0742L72.0394 53.0655ZM56.0769 63.1506H48.4176C48.1843 63.1512 47.9948 63.1731 47.9948 63.4069V69.2483C47.9948 69.4822 48.1843 69.504 48.4176 69.504H56.0769C56.3101 69.504 56.4997 69.4822 56.4997 69.2477V63.4069C56.4997 63.1731 56.3101 63.1513 56.0769 63.1506V63.1506Z" fill="white"/>
</svg>
