<svg width="124" height="124" viewBox="0 0 124 124" fill="none" xmlns="http://www.w3.org/2000/svg">
<circle cx="62" cy="62" r="54" fill="#F36F6A"/>
<path d="M75.0817 42.3301C73.6369 40.8689 71.8986 40.1133 69.779 40.1133H64.0874V95.7802C64.1608 96.3693 64.3756 96.8734 64.7703 97.2547C65.2971 97.7595 65.9043 97.9993 66.7415 97.9993C66.8841 97.9993 67.0168 97.9818 67.1501 97.9667C67.2928 97.9801 67.4296 97.9993 67.5809 97.9993C68.4495 97.9993 69.205 97.7111 69.8949 97.0271C70.5306 96.4031 70.8281 95.6044 70.8281 94.7352L70.8275 74.9799V49.5346H72.2019V58.5882L72.2025 65.8563C72.2025 66.5398 72.4255 67.1656 72.8801 67.6599C73.4192 68.1547 74.0537 68.3765 74.7396 68.3765C74.8624 68.3765 74.973 68.3608 75.0877 68.3509C75.7147 68.2915 76.2176 68.0773 76.603 67.6599C77.0152 67.1656 77.2807 66.5398 77.2807 65.8563V47.6017C77.2824 45.6295 76.5652 43.8528 75.0819 42.331L75.0817 42.3301Z" fill="white"/>
<path d="M57.7913 40.2871C56.3942 40.2871 55.0623 40.7977 53.7757 41.9276C52.4828 43.0133 51.6515 44.2684 51.2713 45.6487C50.6251 47.4527 50.0989 49.3216 49.5272 51.2612C49.1575 52.5239 48.803 53.7254 48.4631 54.8763C48.2826 55.4847 48.1056 56.0825 47.935 56.6571C47.4402 58.293 47.0269 59.7 46.7242 60.8357C46.457 61.9767 46.2282 62.6509 46.1525 62.8464C46.0384 63.0752 46 63.3028 46 63.5799C46 64.5899 46.5327 65.3078 47.6359 65.7082L48.239 65.8561C48.3176 65.8561 48.3892 65.8468 48.4637 65.8421C49.511 65.7734 50.1915 65.2326 50.5099 64.1719C50.5541 63.797 50.9279 62.7049 51.4995 60.9882C51.9938 59.2441 52.5643 57.4406 53.0859 55.5276C53.2303 55.0445 53.384 54.5293 53.5493 53.9815C53.9359 52.6932 54.3783 51.214 54.8691 49.535C54.996 49.1002 55.1264 48.656 55.2597 48.1932H56.6236L54.8766 54.0944L53.5499 58.5775L48.6954 74.9797H56.3133V95.3222C56.3133 96.1151 56.5794 96.7775 57.1446 97.2561C57.5853 97.6735 58.1337 97.8994 58.7595 97.9687C58.8916 97.9838 59.0215 98.0001 59.1612 98.0001C59.9541 98.0001 60.6014 97.7614 61.0951 97.2555C61.4479 96.9144 61.6761 96.4743 61.7809 95.9655V68.5307L61.7792 40.2882L57.7913 40.2871Z" fill="white"/>
<path d="M58.355 28.703C57.225 29.8329 56.6924 31.2026 56.6924 32.8001C56.6924 34.479 57.2256 35.8698 58.355 36.9897C59.2637 37.9258 60.4227 38.4393 61.7786 38.5714V27C60.4234 27.1461 59.2631 27.7114 58.355 28.7028V28.703Z" fill="white"/>
<path d="M69.1651 32.7993C69.1651 31.2019 68.59 29.8327 67.4595 28.7022C66.5083 27.7283 65.3673 27.1677 64.0859 27.0088V38.5609C65.3672 38.4183 66.5077 37.9084 67.4595 36.9879C68.5889 35.8702 69.1651 34.4789 69.1651 32.7995V32.7993Z" fill="white"/>
</svg>
