<svg width="124" height="124" viewBox="0 0 124 124" fill="none" xmlns="http://www.w3.org/2000/svg">
<circle cx="62" cy="62" r="54" fill="#809CDA"/>
<path fill-rule="evenodd" clip-rule="evenodd" d="M43.5283 40C42.976 40 42.5283 40.4477 42.5283 41V41.7547C42.5283 42.307 42.976 42.7547 43.5283 42.7547H64.566V49.6415H56.3019H54.9245H54.1698C53.498 49.6415 52.9035 49.9728 52.5408 50.4809C52.5235 50.4949 52.5062 50.509 52.4891 50.5233L50.6006 52.097C49.8377 52.7328 48.8655 53.062 47.8733 53.0207L32.8868 52.3962L28.7547 44.1321H26V59.283H28.7547L32.8868 56.5283L52.3812 65.6257C53.5344 72.1959 59.2691 77.1887 66.1698 77.1887H86.0566C92.1459 77.1887 97.1617 72.4061 97.4513 66.3237C97.5565 64.1149 96.418 62.0328 94.5017 60.9295L77.9078 51.3754C75.9347 50.2394 73.6979 49.6415 71.4212 49.6415H70.0755V42.7547H91.1132C91.6655 42.7547 92.1132 42.307 92.1132 41.7547V41C92.1132 40.4477 91.6655 40 91.1132 40H43.5283ZM66.667 55.2208C66.3346 54.5559 66.8181 53.7736 67.5614 53.7736H75.1707C75.4359 53.7736 75.6903 53.8789 75.8778 54.0665L84.8967 63.0853C85.5266 63.7153 85.0805 64.7925 84.1896 64.7925H72.0709C71.6921 64.7925 71.3458 64.5785 71.1764 64.2397L66.667 55.2208ZM99 81.3208H54.9245C54.9245 82.8421 56.1579 84.0755 57.6792 84.0755H96.2453C97.7667 84.0755 99 82.8421 99 81.3208Z" fill="white"/>
</svg>
