<svg width="124" height="124" viewBox="0 0 124 124" fill="none" xmlns="http://www.w3.org/2000/svg">
<circle cx="62" cy="62" r="54" fill="#407CD0"/>
<path d="M59.9027 49.9177L59.9891 49.9238L60.02 49.9177H80.529C81.5012 50.0293 83.8108 51.8681 84.1083 59.392H56.2427C56.5459 51.6425 58.9858 49.9239 59.9023 49.9177H59.9027ZM76.1021 77.8452H64.2436C63.4877 77.8452 62.8747 77.2323 62.8747 76.4764C62.8747 75.7209 63.4877 75.1079 64.2436 75.1079H76.1016C76.8576 75.1079 77.4705 75.7209 77.4705 76.4764C77.4705 77.2323 76.8576 77.8452 76.1016 77.8452H76.1021ZM87.6323 71.1453L87.6319 71.1448C87.6319 71.4736 87.5017 71.7886 87.2693 72.0205C87.037 72.2528 86.722 72.3835 86.3937 72.3835H82.6409C82.268 72.3859 81.914 72.2196 81.6783 71.9307C81.4426 71.6423 81.35 71.2622 81.4274 70.8973C81.7044 69.7531 82.2917 68.7078 83.1241 67.8753C83.9561 67.0429 85.0019 66.4561 86.1456 66.1786C86.5105 66.1017 86.8906 66.1939 87.1795 66.4295C87.4684 66.6657 87.6347 67.0197 87.6318 67.3922L87.6323 71.1453ZM90.2086 59.6707H87.0807C86.579 46.7031 80.8882 47.3721 80.8882 47.3721H59.4439C59.1032 47.3412 53.7531 47.1122 53.2637 59.6707H50.143C49.6503 59.6707 49.178 59.8664 48.8297 60.2147C48.4809 60.563 48.2852 61.0353 48.2852 61.528V62.9216C48.2856 63.2224 48.5294 63.4661 48.8301 63.4666H49.3875C49.6298 63.4656 49.8626 63.5611 50.0341 63.7317C50.2062 63.9023 50.3031 64.1346 50.304 64.3765V79.5104C50.3045 80.2663 50.917 80.8788 51.6724 80.8793H88.6777C89.4332 80.8788 90.0456 80.2664 90.0461 79.5104V64.3765C90.0456 64.1351 90.1411 63.9032 90.3122 63.7322C90.4827 63.5616 90.7146 63.4656 90.9565 63.4666H91.5138C91.8155 63.4666 92.0616 63.2233 92.065 62.9216V61.528C92.0635 61.0358 91.8673 60.5644 91.519 60.2162C91.1712 59.8684 90.6994 59.6721 90.2072 59.6707L90.2086 59.6707ZM57.7039 72.384H53.9511C53.2684 72.3817 52.7148 71.8286 52.7129 71.1453V67.3926C52.71 67.0201 52.8763 66.6661 53.1652 66.4299C53.4541 66.1943 53.8342 66.1021 54.1991 66.1791C55.3442 66.4537 56.391 67.04 57.2239 67.8725C58.0568 68.7054 58.6431 69.7526 58.9178 70.8977C58.9947 71.2626 58.9021 71.6427 58.6664 71.9311C58.4307 72.22 58.0768 72.3863 57.7038 72.3839L57.7039 72.384Z" fill="white"/>
<path d="M88.2813 82.1182V83.9265C88.278 84.2282 88.0318 84.4715 87.7301 84.4715H83.1417C82.8419 84.4687 82.5991 84.2263 82.5967 83.9265V82.1182H88.2813Z" fill="white"/>
<path d="M57.7097 82.1182V83.9265C57.7092 84.2273 57.4655 84.471 57.1647 84.4715H52.5762C52.2755 84.471 52.0317 84.2273 52.0312 83.9265V82.1182H57.7097Z" fill="white"/>
<path d="M42.2411 44.2138C41.8225 44.1592 41.4001 44.1383 40.9782 44.1521H40.1357V46.6166H41.0955C41.5602 46.6409 42.0258 46.5948 42.4767 46.4803C42.8288 46.3325 43.0906 46.0275 43.1832 45.6569C43.2759 45.2863 43.1885 44.8938 42.9471 44.5978C42.7627 44.393 42.5133 44.2576 42.241 44.2139L42.2411 44.2138Z" fill="white"/>
<path d="M50.1741 39H33.2387C32.5545 39 32 39.5545 32 40.2387V53.8096C32 54.138 32.1307 54.453 32.363 54.6853C32.5954 54.9177 32.9104 55.0483 33.2387 55.0483H41.0875V83.2314H36.7062C36.3641 83.2314 36.0871 83.5084 36.0871 83.8505C36.0871 84.1926 36.3641 84.4696 36.7062 84.4696H46.7045C47.0466 84.4696 47.3236 84.1926 47.3236 83.8505C47.3236 83.5084 47.0466 83.2314 46.7045 83.2314H42.3256V55.0483H50.1744C50.5032 55.0483 50.8182 54.9177 51.0501 54.6853C51.2824 54.453 51.4131 54.138 51.4131 53.8096V40.2387C51.4131 39.9104 51.2824 39.5954 51.0501 39.3631C50.8182 39.1307 50.5032 39 50.1744 39L50.1741 39ZM44.7371 46.6972H44.7376C44.5637 47.037 44.3109 47.3301 44.0006 47.552C43.7279 47.7482 43.4181 47.8875 43.0903 47.9606C42.4906 48.059 41.8834 48.1003 41.2757 48.0842H40.1363V51.3536L38.384 51.3541V42.6847H41.1954C41.8915 42.6567 42.5885 42.6999 43.276 42.8149C43.7777 42.9494 44.2186 43.2506 44.5265 43.6692C44.8781 44.1586 45.0549 44.7516 45.0283 45.3536C45.042 45.8183 44.9423 46.2797 44.7375 46.6973L44.7371 46.6972Z" fill="white"/>
</svg>
