<svg width="124" height="124" viewBox="0 0 124 124" fill="none" xmlns="http://www.w3.org/2000/svg">
<circle cx="62" cy="62" r="54" fill="#C5A079"/>
<path d="M80.3461 54.1828C80.2379 52.8321 79.1035 51.7515 77.6985 51.7515H73.2677V48.1854C73.2677 41.8099 68.0806 36.6768 61.7591 36.6768C55.4375 36.6768 50.2505 41.8639 50.2505 48.1854V51.7515H45.8198C44.469 51.7515 43.2803 52.8321 43.1721 54.1828L40.6865 85.0886C40.5784 86.6553 41.767 88.0061 43.3341 88.0061H80.2914C81.8581 88.0061 83.1011 86.6553 82.993 85.0886L80.3461 54.1828ZM54.9515 48.1854C54.9515 44.4033 57.9771 41.3776 61.7593 41.3776C65.4876 41.3776 68.5671 44.4575 68.5671 48.1854V51.7515L54.9513 51.7511L54.9515 48.1854ZM71.3769 64.3947L67.5409 67.7445L69.3237 77.0918C69.3776 77.3078 69.2698 77.578 69.1077 77.7401L68.081 78.7668C67.7569 79.0909 67.1625 79.037 66.9462 78.6047L65.3251 75.795L64.7308 76.4432C64.5687 76.6053 64.2985 76.6053 64.1364 76.4432L63.3804 75.6872C63.2183 75.5251 63.2183 75.2549 63.3804 75.0928L64.3527 74.1205L62.948 71.6892L57.9772 75.9574L59.0577 78.8749C59.1116 79.037 59.1116 79.2533 58.9495 79.4154L57.5988 80.7119C57.3828 80.9279 56.9505 80.874 56.7885 80.6038L54.6274 76.6596L50.6832 74.4442C50.413 74.2822 50.3591 73.9038 50.5751 73.6878L51.9258 72.337C52.0879 72.175 52.25 72.175 52.4663 72.2289L55.4381 73.3094L59.7064 68.3385L57.2751 66.9338L56.3027 67.9062C56.1406 68.0682 55.8704 68.0682 55.7083 67.9062L54.8973 67.204C54.7352 67.042 54.7352 66.7717 54.8973 66.6097L55.4916 66.0153L52.6819 64.3943C52.3035 64.1783 52.1957 63.584 52.5199 63.2594L53.5465 62.2328C53.7086 62.0707 53.9788 61.9625 54.1948 62.0168L63.5963 63.8538L66.8922 59.9635C68.0809 58.6127 70.1881 58.5046 71.485 59.8015C72.8358 61.0987 72.7816 63.2059 71.3769 64.3946L71.3769 64.3947Z" fill="white"/>
</svg>
