<svg width="124" height="124" viewBox="0 0 124 124" fill="none" xmlns="http://www.w3.org/2000/svg">
<circle cx="62" cy="62" r="54" fill="#9D86B7"/>
<path d="M43.25 62L41.6875 54.1875L46.375 54.1875L49.5 57.3125L57.3125 57.3125L54.1875 41.6875L58.875 41.6875L66.6875 57.3125L77.625 57.3345C78.8682 57.3345 80.0605 57.8283 80.9396 58.7074C81.8186 59.5865 82.3125 60.7788 82.3125 62.022C82.3125 63.2652 81.8186 64.4575 80.9396 65.3365C80.0605 66.2156 78.8682 66.7095 77.625 66.7095L66.6875 66.7315L58.875 82.3565L54.1875 82.3565L57.3125 66.7315L49.5 66.7315L46.375 69.8125L41.6875 69.8125L43.25 62Z" fill="white"/>
</svg>
