<svg width="124" height="124" viewBox="0 0 124 124" fill="none" xmlns="http://www.w3.org/2000/svg">
<circle cx="61" cy="62" r="54" fill="#D66EB8"/>
<path d="M70.1287 60.6752L69.736 58.8594L66.8404 61.1172L66.2512 63.6202L70.1287 60.6752Z" fill="white"/>
<path d="M68.6563 66.0734C68.7053 66.0734 68.7053 66.0734 68.7546 66.0245L70.8159 63.816C70.8649 63.767 70.8649 63.7177 70.8649 63.6688L70.4233 61.6074L66.7913 64.3554L68.5581 66.0734C68.6074 66.0245 68.6074 66.0734 68.6564 66.0734L68.6563 66.0734Z" fill="white"/>
<path d="M70.2268 55.0797L69.5886 53.4601C69.5886 53.4111 69.5397 53.3618 69.4904 53.3618H67.5763C67.5273 53.3618 67.478 53.4108 67.478 53.4601L66.8892 55.0797V55.2269L67.92 56.4539L67.135 59.7915L69.54 57.9756L69.1963 56.5032L70.2271 55.2272C70.2761 55.1779 70.2761 55.1289 70.2268 55.0796V55.0797Z" fill="white"/>
<path d="M68.5582 51.8897C72.3864 51.8897 75.5275 48.7486 75.5275 44.9203C75.5275 41.0921 72.3864 38 68.5582 38C64.73 38 61.5889 41.1411 61.5889 44.9693C61.5889 48.7975 64.73 51.8897 68.5582 51.8897ZM63.4541 43.6444C64.0922 43.9389 65.172 44.3805 66.4479 44.3805C67.3805 44.3805 68.362 44.135 69.2946 43.4972C69.3928 43.4483 71.6996 41.7793 73.5644 43.4483C73.7116 43.9392 73.8099 44.4298 73.8099 44.9697C73.8099 47.8653 71.4541 50.2214 68.5582 50.2214C65.6626 50.2214 63.3065 47.8656 63.3065 44.9697C63.3068 44.5277 63.3558 44.086 63.454 43.6444L63.4541 43.6444Z" fill="white"/>
<path d="M74.104 53.4113L71.4045 65.4849L79.8463 65.4359V58.9572C79.8463 55.8651 77.3433 53.4111 74.3002 53.4111L74.104 53.4113ZM74.8401 58.0738H77.3923V58.9081H74.8401V58.0738Z" fill="white"/>
<path d="M64.5337 52.2334H43.5767V65.3868H64.4846V52.2334H64.5337ZM53.9325 61.4113C52.5583 61.4113 51.4785 60.3316 51.4785 58.9573C51.4785 57.5831 52.5583 56.5033 53.9325 56.5033C55.3067 56.5033 56.3865 57.5831 56.3865 58.9573C56.3865 60.3316 55.2577 61.4113 53.9325 61.4113Z" fill="white"/>
<path d="M37 67.0063V70.8835H39.6012V86.3436H82.3988V70.8835H85V67.0063H37Z" fill="white"/>
</svg>
