<svg width="124" height="124" viewBox="0 0 124 124" fill="none" xmlns="http://www.w3.org/2000/svg">
<circle cx="62" cy="62" r="54" fill="#63A9F8"/>
<path d="M52.1175 52.1174L53.5317 53.5316L52.1175 52.1174ZM46.4435 43.6151C45.6625 42.834 44.3962 42.834 43.6151 43.6151C42.8341 44.3961 42.8341 45.6624 43.6151 46.4435L46.4435 43.6151ZM71.8823 71.8822L70.4681 70.468L70.4681 70.468L71.8823 71.8822ZM77.5562 80.3846C78.3373 81.1657 79.6036 81.1657 80.3847 80.3846C81.1657 79.6036 81.1657 78.3372 80.3847 77.5562L77.5562 80.3846ZM46.4606 57.7742L47.8749 59.1885L46.4606 57.7742ZM64.1042 79.6604L62.69 78.2462L64.1042 79.6604ZM79.6604 64.1041L81.0747 65.5183L79.6604 64.1041ZM44.3393 59.8955L42.9251 58.4813L44.3393 59.8955ZM52.8296 42.9301L47.8798 47.8798L50.7083 50.7082L55.658 45.7585L52.8296 42.9301ZM47.8798 47.8798L42.9301 52.8295L45.7586 55.6579L50.7083 50.7082L47.8798 47.8798ZM43.6151 46.4435L47.8798 50.7082L50.7083 47.8798L46.4435 43.6151L43.6151 46.4435ZM78.2412 68.3417L73.2915 73.2914L76.1199 76.1199L81.0696 71.1702L78.2412 68.3417ZM73.2915 73.2914L68.3418 78.2412L71.1702 81.0696L76.1199 76.1199L73.2915 73.2914ZM80.3847 77.5562L76.1199 73.2914L73.2915 76.1199L77.5562 80.3846L80.3847 77.5562ZM58.4814 42.9251L56.3601 45.0464L59.1885 47.8748L61.3098 45.7535L58.4814 42.9251ZM56.3601 45.0464L50.7033 50.7032L53.5317 53.5316L59.1885 47.8748L56.3601 45.0464ZM54.2438 45.7585L56.3601 47.8748L59.1885 45.0464L57.0722 42.9301L54.2438 45.7585ZM50.7033 50.7032L45.0464 56.36L47.8749 59.1885L53.5317 53.5316L50.7033 50.7032ZM45.0464 56.36L42.9251 58.4813L45.7536 61.3098L47.8749 59.1885L45.0464 56.36ZM42.9301 57.0722L45.0464 59.1885L47.8749 56.36L45.7586 54.2437L42.9301 57.0722ZM42.9251 62.724L44.3052 64.104L47.1336 61.2756L45.7536 59.8955L42.9251 62.724ZM59.8956 45.7535L61.2756 47.1336L64.1041 44.3051L62.724 42.9251L59.8956 45.7535ZM76.1249 64.8112L70.4681 70.468L73.2965 73.2965L78.9533 67.6396L76.1249 64.8112ZM81.0696 66.9275L78.9533 64.8112L76.1249 67.6396L78.2412 69.7559L81.0696 66.9275ZM70.4681 70.468L64.8113 76.1249L67.6397 78.9533L73.2965 73.2965L70.4681 70.468ZM64.8113 76.1249L62.69 78.2462L65.5184 81.0746L67.6397 78.9533L64.8113 76.1249ZM69.756 78.2412L67.6397 76.1249L64.8113 78.9533L66.9276 81.0696L69.756 78.2412ZM64.1042 78.2462L62.69 76.832L59.8615 79.6604L61.2758 81.0746L64.1042 78.2462ZM78.2462 62.6899L76.1249 64.8112L78.9533 67.6396L81.0747 65.5183L78.2462 62.6899ZM76.8321 62.6898L78.2462 64.1041L81.0747 61.2757L79.6606 59.8615L76.8321 62.6898ZM62.69 78.2462L70.4681 70.468L67.6397 67.6396L59.8615 75.4177L62.69 78.2462ZM70.4681 70.468L78.2463 62.6898L75.4179 59.8614L67.6397 67.6396L70.4681 70.468ZM48.5478 64.104L56.3259 56.3259L53.4975 53.4975L45.7194 61.2756L48.5478 64.104ZM56.3259 56.3259L64.1041 48.5478L61.2756 45.7193L53.4975 53.4975L56.3259 56.3259ZM70.4681 67.6396L56.3651 53.5367L53.5367 56.3651L67.6397 70.468L70.4681 67.6396ZM79.6606 59.8615C78.489 58.6899 76.5895 58.6898 75.4179 59.8614L78.2463 62.6898C77.8558 63.0804 77.2226 63.0804 76.8321 62.6898L79.6606 59.8615ZM61.2756 47.1336C60.8851 46.743 60.8851 46.1099 61.2756 45.7193L64.1041 48.5478C65.2756 47.3762 65.2756 45.4767 64.1041 44.3051L61.2756 47.1336ZM68.3418 78.2412C68.7323 77.8506 69.3655 77.8506 69.756 78.2412L66.9276 81.0696C68.0991 82.2412 69.9986 82.2412 71.1702 81.0696L68.3418 78.2412ZM81.0696 71.1702C82.2412 69.9986 82.2412 68.0991 81.0696 66.9275L78.2412 69.7559C77.8507 69.3654 77.8507 68.7323 78.2412 68.3417L81.0696 71.1702ZM62.69 76.832C63.0805 77.2225 63.0805 77.8556 62.69 78.2462L59.8615 75.4177C58.69 76.5893 58.69 78.4888 59.8615 79.6604L62.69 76.832ZM62.69 78.2462C63.0805 77.8556 63.7137 77.8556 64.1042 78.2462L61.2758 81.0746C62.4473 82.2462 64.3468 82.2462 65.5184 81.0746L62.69 78.2462ZM55.658 45.7585C55.2675 46.149 54.6343 46.149 54.2438 45.7585L57.0722 42.9301C55.9006 41.7585 54.0011 41.7585 52.8296 42.9301L55.658 45.7585ZM81.0747 65.5183C82.2462 64.3468 82.2462 62.4473 81.0747 61.2757L78.2462 64.1041C77.8557 63.7135 77.8557 63.0804 78.2462 62.6899L81.0747 65.5183ZM42.9251 58.4813C41.7536 59.6529 41.7536 61.5524 42.9251 62.724L45.7536 59.8955C46.1441 60.2861 46.1441 60.9192 45.7536 61.3098L42.9251 58.4813ZM44.3052 64.104C45.4768 65.2756 47.3763 65.2756 48.5478 64.104L45.7194 61.2756C46.1099 60.8851 46.7431 60.8851 47.1336 61.2756L44.3052 64.104ZM42.9301 52.8295C41.7586 54.0011 41.7586 55.9006 42.9301 57.0722L45.7586 54.2437C46.1491 54.6343 46.1491 55.2674 45.7586 55.6579L42.9301 52.8295ZM61.3098 45.7535C60.9193 46.144 60.2861 46.144 59.8956 45.7535L62.724 42.9251C61.5525 41.7535 59.653 41.7535 58.4814 42.9251L61.3098 45.7535Z" fill="white"/>
</svg>
