<svg width="124" height="124" viewBox="0 0 124 124" fill="none" xmlns="http://www.w3.org/2000/svg">
<circle cx="62" cy="62" r="54" fill="#59A397"/>
<path d="M76.0349 66.7534H48.9653C48.0684 66.7546 47.2084 67.0864 46.5743 67.6765C45.9397 68.2661 45.5829 69.0657 45.5815 69.8997V72.188C45.5815 72.6619 45.9946 73.046 46.5044 73.046H78.4969C78.7417 73.046 78.9763 72.9557 79.1495 72.7947C79.3226 72.6337 79.4197 72.4156 79.4197 72.188V69.8997C79.4184 69.0658 79.0616 68.2661 78.427 67.6765C77.7929 67.0864 76.9329 66.7546 76.036 66.7534H76.0349Z" fill="white"/>
<path d="M72.3435 81.0548H64.6531V74.7622H60.3466V81.0548H52.6562C52.1465 81.0548 51.7334 81.4389 51.7334 81.9129C51.7334 82.3869 52.1465 82.771 52.6562 82.771H72.3436C72.8533 82.771 73.2664 82.3869 73.2664 81.9129C73.2664 81.4389 72.8533 81.0548 72.3436 81.0548H72.3435Z" fill="white"/>
<path d="M93.0771 61.0336C92.5673 61.0336 92.1542 61.4177 92.1542 61.8917V71.9026H83.2334C82.7236 71.9026 82.3105 72.2867 82.3105 72.7607V81.9136C82.3105 82.3876 82.7236 82.7717 83.2334 82.7717C83.7431 82.7717 84.1562 82.3876 84.1562 81.9136V77.0512H92.1542V81.9136C92.1542 82.3876 92.5673 82.7717 93.0771 82.7717C93.5868 82.7717 93.9999 82.3876 93.9999 81.9136V61.8913C93.9999 61.6637 93.9028 61.4455 93.7297 61.2845C93.5565 61.1235 93.3219 61.0332 93.0771 61.0332L93.0771 61.0336Z" fill="white"/>
<path d="M41.7665 71.9022H32.8457V61.8913C32.8457 61.4173 32.4326 61.0332 31.9228 61.0332C31.4131 61.0332 31 61.4173 31 61.8913V81.9136C31 82.3876 31.4131 82.7717 31.9228 82.7717C32.4326 82.7717 32.8457 82.3876 32.8457 81.9136V77.0512H40.8437V81.9136C40.8437 82.3876 41.2568 82.7717 41.7665 82.7717C42.2763 82.7717 42.6894 82.3876 42.6894 81.9136V72.7607C42.6894 72.5331 42.5923 72.3149 42.4191 72.1539C42.246 71.9929 42.0113 71.9026 41.7665 71.9026L41.7665 71.9022Z" fill="white"/>
<path d="M62.9749 41.1341C62.6827 40.9703 62.3171 40.9703 62.0248 41.1341L43.7876 51.3086H81.2127L62.9749 41.1341Z" fill="white"/>
<path d="M43.1201 55.0271C43.1201 56.0532 43.5758 57.0334 44.38 57.7359C45.1842 58.4387 46.2644 58.8012 47.3656 58.7374C48.4669 58.6736 49.4908 58.1898 50.1952 57.4C50.9537 58.2524 52.0818 58.7455 53.2714 58.7455C54.4609 58.7455 55.5891 58.2523 56.3475 57.4C57.106 58.2524 58.2342 58.7455 59.4237 58.7455C60.6133 58.7455 61.7414 58.2523 62.4999 57.4C63.2584 58.2524 64.3865 58.7455 65.5761 58.7455C66.7656 58.7455 67.8938 58.2523 68.6522 57.4C69.4107 58.2524 70.5389 58.7455 71.7284 58.7455C72.918 58.7455 74.0461 58.2523 74.8046 57.4C75.509 58.1899 76.5329 58.6737 77.6342 58.7374C78.7354 58.8011 79.8156 58.4387 80.6198 57.7359C81.424 57.0335 81.8797 56.0532 81.8797 55.0271V53.0249H43.1203L43.1201 55.0271Z" fill="white"/>
<path d="M62.5 59.6479C61.8426 60.0271 61.1104 60.2805 60.3467 60.3929V65.0379H64.6533V60.3929C63.8895 60.2805 63.1574 60.0271 62.4999 59.6479H62.5Z" fill="white"/>
</svg>
