<svg width="124" height="124" viewBox="0 0 124 124" fill="none" xmlns="http://www.w3.org/2000/svg">
<circle cx="62" cy="62" r="54" fill="#595BA3"/>
<path fill-rule="evenodd" clip-rule="evenodd" d="M62.3813 38.9339C62.2405 38.8635 62.0749 38.8635 61.9341 38.9339L61.7336 39.0341C56.5278 42.7398 50.1318 41.2862 46.6905 39.7995C46.3452 39.6504 46.0421 39.7442 45.899 39.8873L43.2145 42.5718C43.1157 42.6707 43.0515 42.8153 43.0615 43.0234C43.072 43.2435 43.1685 43.4899 43.3475 43.6828C44.7715 45.2177 46.0681 47.3792 46.3602 50.2791C46.6499 53.156 45.9345 56.5945 43.6511 60.6752C42.4319 63.4111 42.2289 65.7225 42.5576 67.6627C42.891 69.6309 43.7899 71.3215 44.9177 72.7568C46.0488 74.1964 47.3865 75.3488 48.5456 76.2294C49.0963 76.6477 49.5968 76.9975 50.0204 77.2936L50.0848 77.3386L50.1511 77.3849C50.5092 77.635 50.9363 77.9333 51.1893 78.1863C51.1889 78.1859 51.1891 78.186 51.1899 78.1868L51.19 78.1868C51.1955 78.1919 51.2285 78.222 51.3039 78.2807C51.3851 78.3438 51.4935 78.4233 51.631 78.519C51.906 78.7105 52.2673 78.9464 52.7006 79.2166C53.5655 79.7562 54.6788 80.4089 55.8814 81.0795C58.0618 82.2953 60.4584 83.5265 62.1578 84.2439C63.8571 83.5265 66.2538 82.2953 68.4342 81.0795C69.6368 80.4089 70.75 79.7562 71.615 79.2166C72.0482 78.9464 72.4096 78.7105 72.6845 78.519C72.822 78.4233 72.9305 78.3438 73.0116 78.2807C73.0873 78.2218 73.1202 78.1917 73.1256 78.1868L73.1257 78.1868C73.1265 78.186 73.1267 78.1859 73.1262 78.1863C73.3792 77.9333 73.8063 77.635 74.1645 77.3849L74.2307 77.3386L74.2952 77.2936C74.7188 76.9975 75.2193 76.6477 75.7699 76.2294C76.9291 75.3488 78.2667 74.1964 79.3979 72.7568C80.5256 71.3215 81.4246 69.6309 81.758 67.6627C82.0867 65.7225 81.8837 63.4111 80.6644 60.6752C78.381 56.5945 77.6657 53.156 77.9554 50.2791C78.2475 47.3792 79.544 45.2177 80.968 43.6828C81.147 43.4899 81.2435 43.2435 81.2541 43.0234C81.264 42.8153 81.1999 42.6707 81.101 42.5718L78.4165 39.8873C78.2734 39.7442 77.9704 39.6504 77.6251 39.7995C74.1929 41.2823 67.8305 42.7297 62.6327 39.07C62.5933 39.0423 62.5626 39.0245 62.5417 39.0141L62.3813 38.9339ZM62.7073 87.2587C64.6127 86.517 67.4507 85.0628 69.8953 83.6997C71.1286 83.0119 72.2858 82.334 73.2027 81.762C73.6604 81.4766 74.0678 81.2115 74.3989 80.9809C74.7045 80.7681 75.0243 80.5309 75.2476 80.3076C75.245 80.3102 75.2455 80.3098 75.25 80.306C75.2636 80.2946 75.3132 80.253 75.4244 80.1707C75.5584 80.0716 75.7299 79.951 75.9498 79.7973L76.0209 79.7476C76.4419 79.4534 76.9855 79.0734 77.5847 78.6182C78.8502 77.6568 80.407 76.3282 81.7569 74.6102C83.1102 72.8879 84.2787 70.7441 84.7159 68.1638C85.1554 65.5695 84.8374 62.6376 83.3736 59.3848L83.3461 59.3235L83.3131 59.265C81.2226 55.5484 80.7261 52.707 80.9403 50.5797C81.1537 48.4613 82.0885 46.886 83.1673 45.7232C84.4196 44.3735 84.7855 42.0137 83.2224 40.4505L80.5378 37.766C79.4055 36.6336 77.746 36.4794 76.4354 37.0455C73.3236 38.3898 68.2586 39.3621 64.3598 36.6171C64.219 36.5179 64.0596 36.4189 63.8834 36.3308L63.723 36.2506C62.7376 35.7579 61.5778 35.7579 60.5925 36.2506L60.3058 36.3939C60.2716 36.4104 60.2378 36.4283 60.2045 36.4476C60.1496 36.4792 60.0975 36.5139 60.0481 36.5512C56.136 39.3768 51.0186 38.4013 47.8802 37.0455C46.5696 36.4794 44.9101 36.6336 43.7777 37.766L41.0932 40.4505C39.53 42.0137 39.896 44.3735 41.1483 45.7232C42.2271 46.886 43.1619 48.4613 43.3753 50.5797C43.5895 52.707 43.0929 55.5484 41.0024 59.265L40.9695 59.3235L40.9419 59.3848C39.4782 62.6376 39.1602 65.5695 39.5997 68.1638C40.0368 70.7441 41.2054 72.8879 42.5587 74.6102C43.9085 76.3282 45.4654 77.6568 46.7309 78.6182C47.3301 79.0734 47.8738 79.4534 48.2948 79.7477L48.3658 79.7973C48.5857 79.951 48.7572 80.0716 48.8911 80.1707C49.0024 80.253 49.052 80.2946 49.0655 80.306C49.0701 80.3098 49.0706 80.3102 49.068 80.3076C49.2913 80.5309 49.611 80.7681 49.9166 80.9809C50.2478 81.2115 50.6552 81.4766 51.1129 81.762C52.0297 82.334 53.187 83.0119 54.4203 83.6997C56.8648 85.0628 59.7028 86.5169 61.6082 87.2587C61.6443 87.2729 61.6811 87.2858 61.7182 87.2972C61.9968 87.3828 62.3019 87.3881 62.5973 87.2972C62.6345 87.2858 62.6712 87.2729 62.7073 87.2587Z" fill="white"/>
<path d="M61.0168 51.7721C61.3162 50.8508 62.6196 50.8508 62.9189 51.7721L64.7141 57.2972C64.848 57.7092 65.232 57.9882 65.6652 57.9882H71.4746C72.4433 57.9882 72.8461 59.2278 72.0624 59.7972L67.3625 63.2119C67.012 63.4665 66.8653 63.9179 66.9992 64.3299L68.7944 69.855C69.0938 70.7763 68.0393 71.5424 67.2556 70.973L62.5557 67.5584C62.2052 67.3037 61.7306 67.3037 61.3801 67.5584L56.6802 70.9731C55.8965 71.5425 54.842 70.7763 55.1413 69.855L56.9365 64.3299C57.0704 63.9179 56.9238 63.4665 56.5733 63.2119L51.8734 59.7972C51.0896 59.2278 51.4924 57.9882 52.4611 57.9882H58.2706C58.7038 57.9882 59.0877 57.7092 59.2216 57.2972L61.0168 51.7721Z" fill="white"/>
</svg>
