<svg width="124" height="124" viewBox="0 0 124 124" fill="none" xmlns="http://www.w3.org/2000/svg">
<circle cx="62" cy="62" r="54" fill="#F36F6A"/>
<path d="M61.0912 83.6684V94.0355C53.4214 93.7066 46.4484 90.6414 41.1465 85.7732L48.4617 78.458C51.9614 81.5238 56.4215 83.3527 61.0914 83.6684H61.0912Z" fill="white"/>
<path d="M41.2988 63.8795H30.9199C31.2518 71.5552 34.3315 78.5245 39.2012 83.8299L46.5194 76.5116C43.4403 73.0082 41.6005 68.5798 41.2988 63.8789V63.8795Z" fill="white"/>
<path d="M61.0918 41.3467V30.9604C53.4192 31.2894 46.446 34.3692 41.1377 39.2396L48.4888 46.5907C52.0312 43.4735 56.4022 41.6461 61.0922 41.3467H61.0918Z" fill="white"/>
<path d="M83.7862 39.2403L76.4452 46.5944C72.9066 43.4895 68.525 41.6477 63.8418 41.3451V30.9648C71.5117 31.2945 78.4839 34.3729 83.7865 39.2403H83.7862Z" fill="white"/>
<path d="M83.6186 61.1336H94.0003C93.6714 53.4637 90.5946 46.493 85.7277 41.1851L78.3936 48.5192C81.4646 51.9904 83.3117 56.4496 83.6186 61.1336Z" fill="white"/>
<path d="M46.54 48.5283C43.4485 52.0412 41.6064 56.4617 41.304 61.1317H30.9238C31.2527 53.4619 34.3311 46.4889 39.1992 41.1738L46.54 48.5283Z" fill="white"/>
<path d="M62.4603 30.9253C62.3737 30.9253 62.2878 30.9312 62.2012 30.9319H62.7195C62.6329 30.9312 62.547 30.9253 62.4603 30.9253Z" fill="white"/>
<path d="M62.4588 94.0747C62.4735 94.0747 62.4882 94.0732 62.5029 94.0732H62.4141C62.4295 94.0732 62.4442 94.0747 62.4588 94.0747Z" fill="white"/>
<path d="M63.8369 83.6686V94.0401C71.506 93.709 78.4747 90.6321 83.7817 85.7655L76.4635 78.4473C72.9175 81.5719 68.5374 83.3735 63.8373 83.6686H63.8369Z" fill="white"/>
<path d="M93.9949 63.8818C93.666 71.5517 90.5877 78.5247 85.7195 83.8266L78.4043 76.499C81.4827 72.9603 83.3247 68.5788 83.6271 63.8824L93.9949 63.8818Z" fill="white"/>
<path d="M71.4845 69.6704C71.9977 70.1836 71.9977 71.0124 71.4845 71.5256C71.2217 71.7752 70.8928 71.9074 70.5506 71.9074C70.2085 71.9074 69.8796 71.776 69.6168 71.5256L65.3675 67.2764C64.5651 67.7499 63.6702 68.0135 62.7098 68.0135C61.7363 68.0135 60.8025 67.7242 59.9868 67.2242L55.6979 71.5265C55.4351 71.7761 55.1062 71.9083 54.7641 71.9083C54.4219 71.9083 54.093 71.7768 53.8302 71.5265C53.317 71.0133 53.317 70.1845 53.8302 69.6713L58.1456 65.3427C57.7117 64.5667 57.4482 63.6718 57.4482 62.7511C57.4482 61.804 57.7242 60.8959 58.1977 60.0934L53.8303 55.7383C53.3171 55.2251 53.3171 54.3963 53.8303 53.8831C54.3435 53.3567 55.1855 53.3567 55.6987 53.8831L60.0538 58.2374C60.8562 57.7639 61.7512 57.4878 62.7115 57.4878C63.6322 57.4878 64.5139 57.7507 65.3031 58.1985L69.6185 53.8831C70.1317 53.3567 70.9738 53.3567 71.4869 53.8831C72.0001 54.3963 72.0001 55.2251 71.4869 55.7383L67.1847 60.0272C67.6847 60.8429 67.9739 61.7767 67.9739 62.7509C67.9739 63.7112 67.6979 64.6061 67.2243 65.4087L71.4845 69.6704Z" fill="white"/>
</svg>
