<svg width="124" height="124" viewBox="0 0 124 124" fill="none" xmlns="http://www.w3.org/2000/svg">
<circle cx="62" cy="62" r="54" fill="#FFB831"/>
<g clip-path="url(#clip0_105_687)">
<path d="M55.6005 62.8835L50.6507 67.8333M55.6005 62.8835C54.2171 61.5002 53.3559 59.7536 52.9931 57.8262M55.6005 62.8835C56.9839 64.2669 58.7304 65.1281 60.6578 65.4909M39.1013 79.3827L50.6507 67.8333M50.6507 67.8333C51.9373 66.3867 54.2071 62.36 52.9931 57.8262M50.6507 67.8333C52.0974 66.5467 56.1241 64.2769 60.6578 65.4909M52.9931 57.8262C52.1611 53.4058 53.9508 48.0341 58.0754 43.9095C63.9983 37.9866 72.4933 36.8785 77.0494 41.4346C81.6055 45.9908 80.4975 54.4857 74.5745 60.4087C70.45 64.5332 65.0782 66.3229 60.6578 65.4909M80.3492 84.3324C77.6155 87.0661 73.1834 87.0661 70.4497 84.3324C67.7161 81.5988 67.7161 77.1666 70.4497 74.433C73.1834 71.6993 77.6155 71.6993 80.3492 74.433C83.0829 77.1666 83.0829 81.5988 80.3492 84.3324Z" stroke="white" stroke-width="3"/>
</g>
<defs>
<clipPath id="clip0_105_687">
<rect width="56" height="56" fill="white" transform="translate(34 34)"/>
</clipPath>
</defs>
</svg>
