<svg width="124" height="124" viewBox="0 0 124 124" fill="none" xmlns="http://www.w3.org/2000/svg">
<circle cx="62" cy="62" r="54" fill="#59A397"/>
<path d="M80.659 78.0175C80.659 77.3951 80.5034 76.7726 80.659 76.1501C80.7368 75.4497 80.8924 74.7494 81.0481 74.0491C77.1574 71.5591 75.4456 67.6685 74.9009 67.3573C74.6674 67.2016 74.3562 67.046 74.1228 67.046C74.434 67.6685 74.6674 68.3688 74.5896 69.147C74.5118 70.7032 74.5896 72.4151 74.6674 73.9713C74.7453 75.761 75.2899 77.8619 74.2006 79.496C74.0449 79.8072 73.8115 80.0407 73.5003 80.2741V80.3519C73.0334 80.741 72.9556 81.5191 73.2668 82.0638C73.8115 82.9975 74.9787 82.9975 75.9124 82.9197C76.8462 82.8419 77.8578 82.7641 78.7915 82.6863C79.5696 82.6085 80.5812 82.7641 80.8924 81.7525C81.1259 81.0522 80.8146 80.6632 80.659 80.1185C80.5034 79.4182 80.659 78.7179 80.659 78.0175Z" fill="white"/>
<path d="M88.5959 57.7086C87.6622 55.452 86.884 53.1954 85.7947 51.0945C85.7947 51.0167 85.7947 50.9389 85.7169 50.9389C85.3278 50.2386 85.0165 49.4605 84.7053 48.6823C84.6275 48.4489 84.4719 48.2155 84.394 47.982C84.005 47.0483 83.4603 46.1923 82.8378 45.3364C81.6706 43.7802 80.1144 42.3017 78.3247 41.4458C76.535 40.4342 74.3563 40.123 72.3332 40.3564C72.0219 40.3564 71.7107 40.4342 71.3994 40.512C70.6991 40.6677 69.9988 40.8233 69.3763 40.9789C68.5203 41.2124 67.6644 41.5236 66.8863 41.9127C66.1082 42.1461 65.2522 42.3017 64.4741 42.4574C63.5404 42.613 62.6066 42.6908 61.5951 42.7686C60.5835 42.8464 59.5719 42.8464 58.6382 42.7686C58.3269 42.7686 57.9379 42.6908 57.6266 42.6908C57.6266 43.6245 57.471 45.0252 56.7707 46.0367C57.1598 44.8695 56.9263 42.613 56.9263 42.613C56.9263 42.3795 56.9263 42.1461 56.8485 41.9127C56.6929 40.7455 55.6035 40.123 54.592 39.7339C53.347 39.3449 52.2576 38.5667 50.9348 38.1777C47.4332 37.1661 43.2314 38.5667 39.652 38.8002C38.3292 38.878 37.0842 39.2671 36.0726 40.123C34.1273 41.6792 33.7383 43.858 33.1158 46.1145C33.038 46.5036 32.8823 46.8148 32.8045 47.2039C32.7267 47.4373 32.5711 47.593 32.4933 47.8264C32.4155 48.0598 32.2598 48.2155 32.1042 48.4489C32.1042 48.4489 31.9486 48.6045 32.0264 48.6045C31.9486 48.7601 31.8708 48.838 31.793 48.9936C31.3261 49.7717 31.2483 50.7054 31.2483 51.5614C31.2483 52.1061 31.3261 52.5729 31.4039 53.0398C31.3261 53.2733 31.3261 53.5067 31.2483 53.6623C30.6258 56.697 30.1589 59.8095 29.8477 62.922C29.5364 66.1901 28.6805 69.6138 29.7699 72.8041C30.7036 75.5276 33.8939 80.3519 37.5511 79.885C38.6404 79.7294 39.3408 78.9513 39.3408 77.9397C39.3408 77.6285 39.1851 77.3172 38.9517 77.006V76.9282C38.9517 76.4613 38.4848 76.0722 37.9401 76.1501C37.4733 76.2279 37.0842 76.6169 37.0842 77.0838V77.5507C37.0842 77.7063 35.4501 76.9282 35.2945 76.8504C34.5164 76.3057 33.8161 75.5276 33.2714 74.7494C30.7036 71.1701 31.793 66.1123 33.427 62.3773C34.2051 60.6654 35.528 60.2764 37.0842 59.2648C38.4848 58.2532 39.4186 56.4636 40.897 55.6076C41.4417 57.2417 41.3639 59.187 41.7529 60.821C41.8307 61.1323 41.9086 61.4435 42.0642 61.677C42.3754 62.1438 42.9979 62.2995 43.387 61.8326C43.7761 61.3657 44.1651 60.8989 44.5542 60.5098C44.632 60.432 44.7098 60.3542 44.7876 60.2764C45.877 59.0314 47.4332 57.942 48.756 56.9304C50.1567 55.8411 51.3238 54.8295 52.491 53.5067C53.1135 52.7286 53.8138 52.1839 54.4363 51.4836C54.2029 52.5729 53.1913 53.8958 52.3354 54.5961C49.612 56.7748 47.511 58.4867 46.0326 59.6539C45.9548 59.7317 45.877 59.8095 45.7992 59.8095C45.6435 59.9651 45.4879 60.0429 45.3323 60.1985C45.2545 60.2764 45.1767 60.3542 45.0989 60.432C45.0211 60.5098 45.0211 60.5098 44.9432 60.5876C44.9432 60.5876 44.9432 60.5876 44.8654 60.6654C44.7876 60.6654 44.7876 60.7432 44.7098 60.7432C44.7098 60.7432 44.7098 60.7432 44.632 60.821C44.4764 60.8989 44.3986 61.0545 44.3207 61.1323C44.2429 63.3888 44.0095 65.7232 43.5426 67.9798C43.2314 69.3804 42.9201 70.781 42.4532 72.1816C41.9864 73.5044 41.3639 74.7494 41.5973 76.2279C41.6751 76.6169 41.7529 77.006 41.7529 77.3951C41.8307 78.9513 40.7414 80.2741 40.1967 81.6747C40.1189 81.8303 40.1967 82.0638 40.3523 82.1416C41.4417 82.9197 42.9201 83.231 44.2429 83.3088C44.632 83.3088 45.0211 83.3088 45.3323 83.231C45.7214 83.1532 46.0326 82.9975 46.3439 82.9197C46.7329 82.7641 47.2776 82.7641 47.511 82.375C47.6667 82.1416 47.6667 81.8303 47.6667 81.5969C47.6667 81.2078 47.5889 80.741 47.5889 80.3519C47.2776 77.8619 48.1335 75.5276 49.612 73.5044C50.7013 71.9482 51.4795 71.1701 51.246 69.2248C51.1682 68.4466 51.1682 67.5907 51.4795 66.8904C50.7792 65.1785 49.4563 63.7001 49.4563 63.7001C49.4563 63.7001 52.2576 65.1785 51.7907 67.902C51.7907 67.902 51.7907 67.902 51.7907 67.8241C51.7907 68.6023 51.7129 69.3026 51.7907 70.0807C51.8685 72.6485 52.5688 75.2163 52.7245 77.7841C52.7245 78.4066 52.7245 79.0291 52.7245 79.6516C52.7245 79.7294 52.6467 79.7294 52.6467 79.8072C51.7907 81.13 50.6235 82.2194 50.3123 83.7757C50.2345 84.0869 50.2345 84.3982 50.3123 84.7094C50.6235 85.7988 52.491 85.5653 53.347 85.5653C54.7476 85.5653 56.7707 85.7988 58.0157 85.2541C58.9494 84.865 58.9494 83.7757 58.6382 82.9975C58.4826 82.6085 58.0935 82.2194 57.9379 81.8303C57.7823 81.2857 58.0935 80.3519 58.1713 79.8072C58.4048 77.5507 58.4048 75.3719 58.8716 73.1932C58.8716 73.0376 58.9494 72.8819 58.9494 72.7263C59.1051 72.4151 59.2607 72.1038 59.4941 71.8704C59.8832 71.0923 60.1944 70.3141 60.2723 69.3804C60.3501 68.9135 60.2723 68.5245 60.2723 68.0576C60.2723 67.8241 60.1944 67.5907 60.1166 67.3573C60.1166 67.2795 60.1166 67.2016 60.1166 67.1238C60.1944 66.657 60.3501 66.1123 60.5835 65.6454L61.4394 63.0776C61.4394 63.0776 61.1282 64.556 61.5951 66.1123C62.1397 66.3457 62.7622 66.5791 63.3069 66.7348C65.2522 67.2795 67.3532 67.2016 69.3763 67.046C70.3878 66.9682 71.3994 66.8904 72.411 66.7348C72.8778 66.657 73.3447 66.5791 73.8116 66.5791C74.2006 66.5791 74.5119 66.5791 74.8231 66.7348C75.0566 66.8126 75.2122 66.8904 75.3678 67.1238C75.9903 67.6685 76.2238 68.4466 76.6906 69.0691C77.3131 69.8473 77.9356 70.6254 78.5581 71.3257C79.2584 72.1816 80.0366 73.1154 80.8147 73.9713C80.9703 74.1269 81.2037 74.3604 81.3594 74.516C81.4372 74.5938 81.515 74.6716 81.5928 74.7494C81.5928 74.7494 81.5928 74.7494 81.515 74.7494C81.9819 75.2163 82.5266 75.761 82.8378 76.3835C83.0712 76.8504 82.9934 77.7841 83.0712 78.3288C83.149 79.0291 83.3047 80.0407 82.9156 80.6632C82.5266 81.2857 81.8262 81.6747 81.515 82.4528C81.3594 82.9975 81.3594 83.6978 81.7484 84.0869C82.4487 84.865 83.8494 84.6316 84.7831 84.5538C85.8725 84.476 86.884 84.5538 87.9734 84.2425C88.5959 84.0869 89.1406 83.7757 89.2962 83.1532C89.374 82.9197 89.374 82.6085 89.2962 82.2972C89.2184 81.9082 89.0628 81.4413 88.8293 81.2857C88.8293 80.741 88.7515 80.1963 88.7515 79.6516C88.6737 78.9513 88.6737 78.251 88.5959 77.5507C88.5959 77.2394 88.5959 76.8504 88.5959 76.5391C88.5959 76.2279 88.5959 75.9166 88.6737 75.6054C88.7515 75.3719 88.9072 75.0607 88.9072 74.8272C88.985 74.516 88.985 74.2826 88.9072 73.9713C88.8293 73.6601 88.6737 73.4266 88.5181 73.1154C88.3625 72.8819 88.2847 72.6485 88.2068 72.3373C87.74 71.1701 87.0397 69.6916 86.6506 68.5245C86.1837 67.2016 86.1837 65.8788 86.2615 64.4782C86.2615 63.0776 86.3394 61.5992 86.4172 60.1985C86.495 58.8757 86.6506 57.4751 86.7284 56.1523C87.4287 57.7086 87.9734 59.3426 89.2184 60.6654C89.6075 61.0545 89.9965 61.3657 90.4634 61.5992C91.0081 61.8326 91.7862 61.9882 92.1753 61.4435C90.5412 60.1207 89.2184 59.2648 88.5959 57.7086ZM37.2398 52.1839C37.2398 52.1839 37.0842 51.717 37.7067 51.6392C38.3292 51.5614 38.3292 51.5614 38.3292 51.5614C38.3292 51.5614 38.2514 52.4951 37.2398 52.1839Z" fill="white"/>
</svg>
