<svg width="124" height="124" viewBox="0 0 124 124" fill="none" xmlns="http://www.w3.org/2000/svg">
<circle cx="62" cy="62" r="54" fill="#7F6DF3"/>
<path d="M45.8957 73.8622V59.5829C45.8957 58.2493 44.4551 57.4133 43.2972 58.0749L37.2177 61.5487C36.6766 61.8581 36.3423 62.4338 36.3423 63.057V84.4684L34.9652 85.9975C33.8709 87.0918 32 86.3165 32 84.7691V38.7392C32 37.4639 33.328 36.6234 34.4807 37.1694L49.3699 44.8187V70.0048L45.8957 73.8622ZM39.8165 80.6117V64.0649L42.4219 62.5759V77.7189L39.8165 80.6117ZM86.7154 84.4688V63.0574C86.7154 62.4341 86.3811 61.8586 85.84 61.5492L79.7605 58.0753C78.6026 57.4137 77.162 58.2497 77.162 59.5833V73.8626L73.6878 70.0054V44.8193L88.577 37.17C89.7296 36.624 91.0577 37.4645 91.0577 38.7398V84.7698C91.0577 86.3171 89.1868 87.0923 88.0925 85.9981L86.7154 84.4688ZM83.2412 80.6117L80.6358 77.719V62.576L83.2412 64.065V80.6117ZM67.6085 70.0054V56.9779C67.6085 56.0186 66.8309 55.241 65.8713 55.241H57.1867C56.2271 55.241 55.4494 56.0187 55.4494 56.9779V70.0054H51.9755V44.8193H71.0824V70.0054H67.6085ZM64.1343 70.0054H58.9235V58.715H64.1343V70.0054Z" fill="white"/>
</svg>
