<svg width="124" height="124" viewBox="0 0 124 124" fill="none" xmlns="http://www.w3.org/2000/svg">
<circle cx="62" cy="62" r="54" fill="#7F6DF3"/>
<path d="M51.3957 41.5863C51.3957 43.5668 49.7903 45.1726 47.8094 45.1726C45.8289 45.1726 44.2231 43.5668 44.2231 41.5863C44.2231 39.6054 45.8289 38 47.8094 38C49.7903 38 51.3957 39.6054 51.3957 41.5863Z" fill="white"/>
<path d="M50.1231 59.6777L54.7317 63.1773C55.0451 63.4145 55.4158 63.5319 55.7793 63.5319C56.3023 63.5319 56.8194 63.2964 57.1622 62.8437C57.7401 62.0835 57.5919 60.9946 56.8304 60.415L50.123 55.3213L50.1231 59.6777Z" fill="white"/>
<path d="M44.2393 67.0375C43.0654 66.2264 42.2438 65.6571 41.813 64.9966L35.1527 82.3185C34.7124 83.4323 35.2565 84.6919 36.3693 85.1333C36.6315 85.2377 36.9005 85.2855 37.1668 85.2855C38.0297 85.2855 38.8459 84.7643 39.1824 83.9181L45.374 67.7856L45.2187 67.6845L44.2393 67.0375Z" fill="white"/>
<path d="M57.3721 70.6202C57.254 70.1352 56.9342 69.6778 56.5334 69.3866L49.2581 63.7197V49.4844C49.2977 47.7626 48.7174 46.3094 46.445 46.0009C46.3375 45.9862 46.2289 45.979 46.1211 45.979C44.9673 45.979 43.6971 46.7563 42.8523 47.6623L36.8041 53.6431C36.4836 53.9637 36.29 54.4211 36.29 54.8744V62.0115C36.29 62.9707 37.0656 63.7479 38.0234 63.7479C38.9813 63.7479 39.7576 62.9707 39.7576 62.0115V55.5998L42.3232 53.0618L42.3638 64.1198C42.5215 64.8216 43.4438 65.432 44.9213 66.4536L46.4263 67.464L53.3579 72.4403L56.1604 83.6415C56.4072 84.6267 57.2906 85.2835 58.2621 85.2835C58.4379 85.2835 58.6151 85.2623 58.7885 85.2179C59.9501 84.9288 60.656 83.7511 60.3663 82.5891L57.3721 70.6202Z" fill="white"/>
<path d="M82.8551 65.2811C81.6942 65.5573 80.5981 65.8178 79.2736 65.6147C78.7927 65.5426 78.3199 65.4105 77.8188 65.273C77.075 65.0657 76.3049 64.8521 75.4556 64.8196C74.5749 64.7855 73.7109 64.8585 72.733 65.0504C72.2206 65.1507 71.7291 65.303 71.2515 65.447C70.5528 65.66 69.8929 65.8608 69.2334 65.8946C68.3981 65.9383 67.6044 65.6993 66.7658 65.447C66.463 65.3562 66.1571 65.2641 65.8437 65.1832C63.8516 64.6667 62.0114 64.7759 60.4868 65.4901V67.1132C60.6097 67.1067 60.7329 67.0818 60.8463 67.0169C62.0953 66.3052 63.6416 66.1806 65.4382 66.6452C65.7304 66.7213 66.0171 66.8063 66.3011 66.8913C67.1569 67.1487 68.0383 67.4136 69.0392 67.4136C69.1289 67.4136 69.2204 67.4105 69.3119 67.4071C70.1731 67.3651 70.9617 67.1238 71.7242 66.8923C72.181 66.7524 72.6148 66.6213 73.0453 66.5353C73.8952 66.3677 74.6418 66.3028 75.3904 66.3329C76.0519 66.3595 76.7001 66.5401 77.3859 66.7295C77.9089 66.8746 78.4507 67.0251 79.0268 67.1125C80.663 67.3627 81.9686 67.0535 83.2286 66.7531C84.5165 66.4462 85.7324 66.1581 87.2416 66.5401C87.6287 66.638 88.4179 66.9579 88.9391 67.1658L89.1033 67.2337V65.5928C88.5892 65.388 88.0185 65.1709 87.6396 65.0757C85.7468 64.5937 84.2766 64.9436 82.8551 65.2812L82.8551 65.2811Z" fill="white"/>
<path d="M66.7661 60.9062C67.2713 61.0584 67.7612 61.2049 68.2517 61.2881C68.5756 61.3441 68.9016 61.3725 69.2337 61.3554C69.4191 61.3448 69.6055 61.3206 69.7915 61.2881C70.2684 61.2055 70.7501 61.0615 71.2518 60.9068C71.7287 60.7618 72.2199 60.6112 72.7326 60.5102C73.7106 60.3183 74.576 60.2446 75.4552 60.2787C76.3045 60.3112 77.0753 60.5242 77.8184 60.7314C78.3196 60.87 78.7924 61.0011 79.2733 61.0748C80.5977 61.2772 81.6938 61.0164 82.8547 60.7406C83.8027 60.5146 84.7735 60.2856 85.8761 60.3003C85.6088 57.4199 81.1482 55.1038 75.5504 54.9109L75.5501 45.7877C75.5501 45.6225 75.5613 45.46 75.5753 45.2989C77.5573 45.447 78.7059 46.6162 79.9638 48.5451C80.1089 48.767 80.3509 48.8885 80.597 48.8885C80.7394 48.8885 80.8827 48.8489 81.0101 48.7657C81.3606 48.5373 81.4586 48.0693 81.2302 47.7197C80.3035 46.299 79.1797 44.8093 77.3306 44.1375C79.3917 43.3425 81.8212 43.8614 83.3545 45.6214C83.5044 45.7921 83.7133 45.8805 83.9253 45.8805C84.1011 45.8805 84.2783 45.819 84.4216 45.6944C84.7367 45.42 84.7688 44.9424 84.4943 44.6284C82.4373 42.2675 79.119 41.646 76.4052 42.8837C77.3669 41.3827 79.046 40.384 80.9565 40.384C81.3744 40.384 81.7126 40.0457 81.7126 39.6279C81.7126 39.2101 81.3744 38.8718 80.9565 38.8718C78.8032 38.8718 76.8764 39.861 75.6071 41.4091L75.6068 38.7561C75.6075 38.3383 75.2692 38 74.8524 38C74.4356 38 74.0963 38.3383 74.0963 38.7561V41.5491C72.8302 39.9211 70.8531 38.8701 68.636 38.8701C68.2182 38.8701 67.8792 39.2084 67.8792 39.6262C67.8792 40.0441 68.2185 40.3823 68.636 40.3823C70.4298 40.3823 72.0175 41.2641 73.0013 42.6127C70.4302 41.7552 67.4792 42.4588 65.5921 44.626C65.317 44.9411 65.3501 45.4187 65.6649 45.6921C65.8089 45.8167 65.9854 45.8781 66.1612 45.8781C66.3725 45.8781 66.5821 45.7897 66.7319 45.619C68.2193 43.9116 70.5514 43.3692 72.5722 44.0648C70.5954 44.6964 69.418 46.2427 68.4571 47.7167C68.2288 48.0672 68.3277 48.5352 68.6773 48.7626C68.8043 48.8459 68.9483 48.8855 69.0893 48.8855C69.3361 48.8855 69.5781 48.765 69.7232 48.5421C70.9593 46.6452 72.0936 45.4846 74.0171 45.3053C74.0308 45.4631 74.0414 45.6228 74.0414 45.7846V54.9069C68.4189 55.1022 63.9473 57.4378 63.7148 60.3348C64.4006 60.3543 65.1113 60.4505 65.8463 60.6407C66.1573 60.7243 66.4638 60.8144 66.7666 60.9059L66.7661 60.9062Z" fill="white"/>
<path d="M87.6391 62.0465C87.1851 61.9308 86.756 61.8636 86.347 61.8328C86.1876 61.8199 86.0289 61.8141 85.8749 61.8117C84.7731 61.797 83.8015 62.0271 82.8536 62.2531C81.6927 62.5292 80.5966 62.789 79.2722 62.5866C78.7922 62.5139 78.3184 62.3817 77.8183 62.2432C77.0735 62.036 76.3037 61.8229 75.4561 61.7905C74.5754 61.7557 73.7107 61.8301 72.7321 62.0213C72.2197 62.1223 71.7282 62.2739 71.2523 62.4179C70.7495 62.5709 70.2678 62.7149 69.792 62.7992C69.6049 62.8306 69.4195 62.8559 69.2335 62.8665C68.9017 62.8835 68.5761 62.8542 68.2531 62.7992C67.7609 62.7159 67.2711 62.5702 66.7658 62.4173C66.463 62.3264 66.1571 62.2343 65.8445 62.1541C65.1095 61.9646 64.3978 61.8684 63.713 61.8482C63.6232 61.8458 63.5307 61.84 63.4409 61.84C62.3715 61.8407 61.375 62.0455 60.4868 62.4616V64.0848C60.609 64.0783 60.7329 64.0523 60.8463 63.9885C61.7457 63.4761 62.8005 63.273 63.9888 63.37C64.452 63.4078 64.9336 63.4874 65.4371 63.6168C65.7294 63.6929 66.0174 63.7786 66.3008 63.8636C67.1566 64.1192 68.0379 64.3841 69.0388 64.3841C69.1286 64.3841 69.2194 64.3824 69.3115 64.3776C70.1721 64.3346 70.9613 64.0936 71.7239 63.8619C72.1813 63.7226 72.6135 63.5915 73.0449 63.5065C73.8949 63.3358 74.6404 63.2727 75.3911 63.3034C76.0516 63.33 76.7001 63.5099 77.3849 63.6994C77.9085 63.8444 78.4502 63.995 79.0257 64.0824C80.6625 64.3343 81.9675 64.024 83.2282 63.7236C84.0225 63.5348 84.7916 63.3536 85.6163 63.3327C86.128 63.3191 86.6622 63.3652 87.2401 63.5123C87.6272 63.6103 88.4165 63.9291 88.9377 64.139L89.1019 64.2052V62.565C88.5885 62.3592 88.0178 62.1414 87.6389 62.0465L87.6391 62.0465Z" fill="white"/>
</svg>
