<svg width="124" height="124" viewBox="0 0 124 124" fill="none" xmlns="http://www.w3.org/2000/svg">
<circle cx="62" cy="62" r="54" fill="#AD7147"/>
<path d="M61.1004 74.1499C60.772 73.2193 60.2794 72.3979 59.5676 71.741L55.0784 67.2519L58.3082 57.0147C58.4724 57.2885 58.6916 57.5623 58.9104 57.8907C59.841 59.2593 61.3192 60.19 62.9616 60.4092L67.998 61.1755C69.3666 61.3944 70.6256 60.4638 70.8448 59.0952C71.0636 57.7266 70.133 56.4676 68.7644 56.2484L63.728 55.482C63.4542 55.4274 63.1804 55.2632 63.0162 55.044C58.8008 48.8578 57.9252 48.5294 56.6658 48.4748L52.56 48.201C51.9578 48.1464 51.246 48.0914 45.1694 50.4456C43.8008 50.9932 42.651 52.033 41.9942 53.3471L39.257 58.8215C38.6548 60.0258 39.1474 61.5586 40.3518 62.1608C40.7352 62.325 41.1182 62.4346 41.4466 62.4346C42.3772 62.4346 43.2531 61.942 43.6912 61.066L46.4284 55.5916C46.538 55.3728 46.7568 55.2082 46.976 55.099C47.414 54.9348 47.852 54.7706 48.235 54.6064L46.2096 63.4202C45.8812 64.953 46.3192 66.5953 47.4686 67.7448L48.4538 68.73L42.8159 84.1677C42.2683 85.6459 43.0347 87.2883 44.5129 87.8356C44.8413 87.9452 45.1697 87.9998 45.4981 87.9998C46.6479 87.9998 47.7427 87.288 48.1806 86.1386L52.9433 73.219L55.5162 75.792C55.5708 75.8466 55.6258 75.9562 55.6804 76.0658L59.1844 86.0839C59.5678 87.2883 60.7173 88.0002 61.867 88.0002C62.1954 88.0002 62.4692 87.9455 62.7976 87.836C64.2758 87.3433 65.0968 85.7009 64.5496 84.2228L61.1004 74.1499Z" fill="white"/>
<path d="M56.0844 36.0329C59.1199 36.3632 61.3128 39.092 60.9825 42.1275C60.6522 45.1633 57.9234 47.3563 54.888 47.026C51.8521 46.6957 49.6591 43.9669 49.9895 40.931C50.3202 37.8956 53.0486 35.7026 56.0844 36.0329Z" fill="white"/>
<path d="M84.2023 69.0584L76.4833 63.3106C75.8811 62.818 75.0051 63.4202 75.1147 64.1866L75.7169 67.1976L65.5345 67.1972C65.1511 67.1972 64.8228 67.5256 64.8228 67.909V71.6314C64.8228 72.0148 65.1512 72.3432 65.5345 72.3432H75.7169L75.1147 75.3542C74.9505 76.1206 75.8265 76.6681 76.4833 76.2302L84.2023 70.4819C84.6403 70.0986 84.6403 69.3872 84.2023 69.0584V69.0584Z" fill="white"/>
</svg>
