<svg width="124" height="124" viewBox="0 0 124 124" fill="none" xmlns="http://www.w3.org/2000/svg">
<circle cx="62" cy="62" r="54" fill="#595BA3"/>
<path d="M63.8664 66.6821C63.8664 67.7151 63.0288 68.5527 61.9958 68.5527C60.9628 68.5527 60.1252 67.7151 60.1252 66.6821C60.1252 65.6491 60.9628 64.8115 61.9958 64.8115C63.0288 64.8115 63.8664 65.6491 63.8664 66.6821Z" fill="white"/>
<path d="M49.8367 79.2154V91H74.1542V79.2154L84.7509 68.0294C85.5943 67.1396 86.0548 65.9543 86.0327 64.7283C86.011 63.5024 85.5087 62.3342 84.634 61.4753C83.7592 60.616 82.5818 60.135 81.3559 60.1354H72.3032C72.1154 59.9112 71.9016 59.7091 71.6673 59.5341C72.3287 55.9108 71.9087 53.1742 70.3868 51.4092C69.2787 50.1804 67.71 49.4668 66.0556 49.4384C64.7742 48.4714 63.2485 47.8801 61.6497 47.7315C60.051 47.5828 58.4426 47.8826 57.0046 48.5966C52.7891 50.7039 51.2472 54.2964 52.2993 59.555C52.0743 59.7257 51.8693 59.9207 51.6876 60.1366H42.635C41.4091 60.1366 40.2325 60.618 39.3578 61.4769C38.4834 62.3358 37.9811 63.5036 37.959 64.7291C37.9369 65.9546 38.397 67.14 39.24 68.0298L49.8367 79.2154ZM64.3716 74.0994C63.8601 74.9194 62.9624 75.418 61.9958 75.418C61.0291 75.418 60.1315 74.9194 59.6199 74.0994L58.7164 72.6588L58.7168 72.6592C59.3139 72.8572 59.9281 72.9991 60.5514 73.0839C60.645 73.1027 60.7385 73.1148 60.832 73.1298C60.8554 73.1298 60.8788 73.1373 60.903 73.139H60.9034C61.6295 73.2597 62.371 73.2597 63.0975 73.139C63.1218 73.139 63.1451 73.1315 63.1694 73.1298C63.2629 73.1148 63.3564 73.1027 63.4445 73.0839C64.0679 72.9991 64.6821 72.8572 65.2796 72.6601L64.3716 74.0994ZM73.2192 62.5777C73.2146 62.3861 73.1954 62.1948 73.1611 62.0061H81.3562C82.0915 62.0057 82.7979 62.2946 83.3227 62.8099C83.8476 63.3247 84.1491 64.0257 84.1624 64.761C84.1758 65.4963 83.8998 66.2074 83.3941 66.7414L77.8275 72.6179L74.3782 68.4838L76.4208 67.5297L75.6295 65.835L68.989 68.9343L68.9886 68.9348C69.4646 68.1164 69.8224 67.2346 70.0512 66.316C70.9356 66.1669 71.7385 65.7097 72.3185 65.0258C72.898 64.3415 73.217 63.4742 73.2191 62.5778L73.2192 62.5777ZM54.5658 60.6554L54.8577 60.6487C55.1216 60.6412 55.5124 60.6253 55.6239 60.6329V60.6333C55.9007 60.6913 56.1888 60.6228 56.4093 60.4462C56.6306 60.2692 56.7588 60.0015 56.7583 59.7184V58.2362C58.6138 58.0492 62.3701 57.5084 64.3016 56.0187C65.1212 56.8942 66.1216 57.5811 67.2335 58.0312V59.7147C67.2235 59.9953 67.3421 60.2646 67.5555 60.4471C67.7659 60.6245 68.0478 60.6938 68.3166 60.6341C68.4795 60.6183 68.8703 60.6341 69.1342 60.6416L69.426 60.6483C70.1129 60.6538 70.7446 61.0254 71.0837 61.6229C71.4223 62.2208 71.4165 62.9535 71.0682 63.546C70.7196 64.1381 70.082 64.4997 69.3952 64.4938C68.9038 64.4371 68.4528 64.7723 68.3664 65.2592C68.181 66.7026 67.5555 68.0546 66.5751 69.1302C65.5947 70.2062 64.3066 70.954 62.8861 71.2722C62.2957 71.3348 61.6999 71.3348 61.1091 71.2722C59.6891 70.954 58.4009 70.2062 57.4205 69.1302C56.4402 68.0547 55.8147 66.7026 55.6293 65.2592C55.5378 64.8074 55.1399 64.4834 54.679 64.4855C54.6418 64.4859 54.6042 64.4884 54.5671 64.493C54.0497 64.5043 53.5495 64.3072 53.18 63.9452C52.81 63.5836 52.6017 63.088 52.6017 62.5707C52.6017 62.0534 52.81 61.5577 53.18 61.1962C53.5495 60.8342 54.0497 60.6367 54.5671 60.6484L54.5658 60.6554ZM40.0577 63.7039C40.2706 63.1974 40.6297 62.7657 41.0886 62.4635C41.5474 62.1612 42.0857 62.0021 42.6352 62.0062H50.8302C50.796 62.195 50.7768 62.3862 50.7722 62.5779C50.7734 63.4751 51.0924 64.3433 51.6728 65.028C52.2528 65.7127 53.0569 66.17 53.9417 66.319C54.1706 67.2376 54.5284 68.1195 55.0044 68.9378L48.3638 65.8384L47.5726 67.5332L49.6152 68.4872L46.1658 72.6213L40.5971 66.7415C40.2163 66.3457 39.9616 65.8455 39.8656 65.3048C39.7695 64.7637 39.8363 64.2067 40.0576 63.7039L40.0577 63.7039Z" fill="white"/>
<path d="M40.484 41.8644L38.0945 43.4544L39.1325 45.0106L41.9383 43.14C42.1976 42.9672 42.3538 42.6761 42.3546 42.3646V36.7529H40.484L40.484 41.8644Z" fill="white"/>
<path d="M33.0017 41.4297C33.0013 44.4105 34.5771 47.1691 37.145 48.6827C39.7128 50.1962 42.8894 50.2389 45.497 48.795L44.5897 47.159H44.5901C42.9275 48.0818 40.9463 48.2359 39.1609 47.582C37.3759 46.9281 35.9629 45.5303 35.2899 43.7524C34.6168 41.974 34.75 39.9911 35.6548 38.3189C36.5596 36.6471 38.1466 35.4509 40.0031 35.0413C41.8599 34.6317 43.8027 35.0496 45.3267 36.1862C46.8512 37.3227 47.8056 39.0656 47.9431 40.962H45.6283L48.9018 45.6384L52.1753 40.962H49.8136C49.655 38.0129 47.9614 35.3628 45.3514 33.9804C42.7418 32.5979 39.5982 32.6856 37.0692 34.2109C34.5401 35.7362 32.9964 38.4764 33.0019 41.4297H33.0017Z" fill="white"/>
<path d="M82.5716 33.0117C81.4893 33.0121 80.4176 33.2217 79.415 33.6288C81.4969 34.4735 83.1549 36.1153 84.0201 38.1892C84.8848 40.2626 84.8848 42.5959 84.0201 44.6694C83.1549 46.7433 81.4969 48.3851 79.415 49.2297C81.7462 50.175 84.3779 50.0285 86.5896 48.8301C88.8013 47.6314 90.3608 45.5065 90.8413 43.0377C91.3219 40.5683 90.6731 38.0134 89.0726 36.0732C87.4718 34.1325 85.0873 33.0097 82.5716 33.0117V33.0117Z" fill="white"/>
</svg>
