<svg width="124" height="124" viewBox="0 0 124 124" fill="none" xmlns="http://www.w3.org/2000/svg">
<circle cx="62" cy="62" r="54" fill="#407CD0"/>
<path d="M85.9877 53.3025L83.2062 50.5262C82.6321 49.9519 81.6924 49.9519 81.1186 50.5262C79.0054 52.6401 75.5808 52.6401 73.4676 50.5262C71.361 48.4123 71.361 44.9927 73.4676 42.8726C74.0417 42.2983 74.0417 41.3648 73.4676 40.7905L70.6922 38.0081C69.3485 36.664 67.1663 36.664 65.8232 38.0081L38.0078 65.8329C36.6641 67.1771 36.6641 69.3601 38.0078 70.7036L40.7892 73.4799C41.3634 74.0604 42.2965 74.0604 42.8768 73.4799C43.0031 73.3602 43.0911 73.215 43.1606 73.0697C43.3058 73.0002 43.4505 72.9122 43.5706 72.7859C45.6838 70.672 49.1085 70.672 51.2217 72.7859C53.3282 74.8998 53.3282 78.3256 51.2217 80.4395C51.0954 80.5469 51.007 80.6921 50.9379 80.8369C50.7927 80.9126 50.6475 81.0011 50.5279 81.1274C49.9537 81.7017 49.9537 82.6352 50.5279 83.2095L53.3032 85.9919C54.6469 87.336 56.8291 87.336 58.1723 85.9919L85.9877 58.1671C87.3374 56.8229 87.3374 54.6466 85.9877 53.3024V53.3025ZM70.3837 57.7825L71.7775 59.1768C72.3517 59.7511 72.3517 60.6846 71.7775 61.2651C71.2034 61.8395 70.2637 61.8395 69.6899 61.2651L68.2957 59.8708C67.7215 59.2965 67.7215 58.363 68.2957 57.7825C68.8698 57.2081 69.8095 57.2081 70.3837 57.7825ZM66.208 55.7004C65.6339 56.2747 64.7007 56.2747 64.1204 55.7004L62.7328 54.3061C62.1525 53.7317 62.1525 52.7982 62.7328 52.2177C63.307 51.6372 64.2402 51.6372 64.8204 52.2177L66.2142 53.6058C66.7822 54.1859 66.7822 55.126 66.2081 55.7004H66.208Z" fill="white"/>
</svg>
