<svg width="124" height="124" viewBox="0 0 124 124" fill="none" xmlns="http://www.w3.org/2000/svg">
<circle cx="62" cy="62" r="54" fill="#F36F6A"/>
<path d="M68.999 62.0054H75.9991V83.0056H68.999V62.0054Z" fill="white"/>
<path d="M87.6655 40.7898C89.0188 40.3116 89.9989 39.0281 89.9989 37.5001C89.9989 35.575 88.4239 34 86.4988 34C84.5619 34 82.9987 35.575 82.9987 37.5001C82.9987 39.0286 83.9669 40.3235 85.3321 40.7903V64.333H82.9987V55L34 54.9996V89.9996H82.9998V80.6665H89.9999L89.9995 64.3333H87.6661L87.6655 40.7898ZM50.3321 85.3382H38.6658V59.6721H50.3321V85.3382ZM64.3318 85.3382H52.6655V59.6721H64.3318V85.3382ZM78.3316 85.3382H66.6653V59.6721H78.3316V85.3382Z" fill="white"/>
<path d="M40.998 62.0054H47.9982V83.0056H40.998V62.0054Z" fill="white"/>
<path d="M54.999 62.0054H61.9991V83.0056H54.999V62.0054Z" fill="white"/>
</svg>
