<svg width="124" height="124" viewBox="0 0 124 124" fill="none" xmlns="http://www.w3.org/2000/svg">
<circle cx="61" cy="62" r="54" fill="#809CDA"/>
<path fill-rule="evenodd" clip-rule="evenodd" d="M44 40.6667V83.3333C44 84.8061 45.1513 86 46.5714 86H77.4286C78.8487 86 80 84.8061 80 83.3333V40.6667C80 39.1939 78.8487 38 77.4286 38H46.5714C45.1513 38 44 39.1939 44 40.6667ZM62 78.8C68.6274 78.8 74 73.4274 74 66.8C74 64.6168 73.417 62.5699 72.3982 60.8062L57.8646 78.0684C59.1538 78.5417 60.5467 78.8 62 78.8ZM54.3432 76.0402L69.8006 57.681C69.0881 57.0709 68.3033 56.5429 67.4607 56.1116L52.5379 74.0612L52.295 73.8592C52.8848 74.6687 53.5735 75.4017 54.3432 76.0402ZM50.5037 70.2512L63.2922 54.8688C62.8677 54.8233 62.4366 54.8 62 54.8C55.3726 54.8 50 60.1726 50 66.8C50 67.9996 50.176 69.1582 50.5037 70.2512ZM53.6 45.2C53.6 46.5255 52.5255 47.6 51.2 47.6C49.8745 47.6 48.8 46.5255 48.8 45.2C48.8 43.8745 49.8745 42.8 51.2 42.8C52.5255 42.8 53.6 43.8745 53.6 45.2ZM60.8 45.2C60.8 46.5255 59.7255 47.6 58.4 47.6C57.0745 47.6 56 46.5255 56 45.2C56 43.8745 57.0745 42.8 58.4 42.8C59.7255 42.8 60.8 43.8745 60.8 45.2Z" fill="white"/>
</svg>
