<svg width="124" height="124" viewBox="0 0 124 124" fill="none" xmlns="http://www.w3.org/2000/svg">
<circle cx="62" cy="62" r="54" fill="#595BA3"/>
<path d="M55.5921 86.4705C55.0151 86.4705 54.5486 86.0026 54.5486 85.427V38.0435C54.5486 37.4666 55.0158 37 55.5921 37C56.1691 37 56.6357 37.4672 56.6357 38.0435V85.427C56.6363 86.0026 56.1691 86.4705 55.5921 86.4705Z" fill="white"/>
<path d="M89.0635 41.9457C89.0635 44.1315 87.2911 45.9031 85.1053 45.9031C82.9196 45.9031 81.1479 44.1315 81.1479 41.9457C81.1479 39.7599 82.9196 37.9883 85.1053 37.9883C87.2911 37.9883 89.0635 39.7599 89.0635 41.9457Z" fill="white"/>
<path d="M87.2861 78.6272C87.0597 78.5802 86.8251 78.5547 86.5842 78.5547C84.6772 78.5547 83.1265 80.1083 83.1265 82.0167C83.1265 83.9265 84.678 85.4806 86.5842 85.4806C86.587 85.4806 86.5904 85.4799 86.5932 85.4799H86.5959C88.5029 85.4799 90.053 83.9277 90.053 82.0186C90.0523 80.3463 88.8624 78.9487 87.2861 78.6271L87.2861 78.6272ZM86.5842 83.0975C85.9893 83.0975 85.5054 82.6137 85.5054 82.0173C85.5054 81.4224 85.9893 80.9386 86.5842 80.9386C87.1777 80.9386 87.6609 81.4224 87.6609 82.0173C87.6609 82.6137 87.1784 83.0975 86.5842 83.0975Z" fill="white"/>
<path d="M94.91 76.1259C94.5808 75.0582 93.4496 74.4584 92.3819 74.7883C92.3819 74.7883 92.1955 74.8449 92.1493 74.8587C91.1934 72.2305 88.3458 64.4025 88.3458 64.4025C88.0794 63.6682 87.4127 63.1526 86.6348 63.0794C86.6348 63.0794 82.9748 62.7343 80.5309 62.5038C80.7938 61.441 81.2321 59.6693 81.709 57.743L81.8933 58.6948C82.0741 59.6286 82.8699 60.3188 83.8209 60.3636L91.2092 60.7149C91.243 60.717 91.2755 60.717 91.3079 60.717C92.4032 60.717 93.3142 59.8564 93.368 58.7521C93.4226 57.614 92.544 56.6478 91.4052 56.5932L85.6368 56.3192L83.9914 47.8266C83.7982 46.8355 82.9279 46.1522 81.956 46.1578L79.2746 45.734C79.2677 45.7333 79.2615 45.7333 79.2546 45.7319C79.2201 45.7271 79.1863 45.7243 79.1518 45.7202C79.1214 45.7181 79.0904 45.714 79.0607 45.7126C79.0283 45.7119 78.9944 45.7119 78.962 45.7119C78.9303 45.7119 78.8985 45.7119 78.8661 45.7126C78.8343 45.7133 78.8026 45.7174 78.7722 45.7195C78.7398 45.7223 78.7059 45.7257 78.6742 45.7305C78.6438 45.7354 78.6121 45.7416 78.581 45.7471C78.5493 45.7533 78.5175 45.7588 78.4851 45.7671C78.4547 45.774 78.4237 45.7837 78.3933 45.792C78.3615 45.8016 78.3298 45.8106 78.2994 45.8217C78.2698 45.8327 78.2421 45.8437 78.2132 45.8541C78.1807 45.8672 78.1476 45.8796 78.1165 45.8955C78.091 45.9072 78.0634 45.9203 78.0372 45.9328C78.0047 45.9507 77.9709 45.9687 77.9385 45.988C77.9247 45.9949 77.9095 46.0018 77.8957 46.0108L70.4108 50.6295C69.8973 50.947 69.5508 51.4763 69.4687 52.072L68.0517 62.2791C67.5176 62.5144 67.0082 62.7919 66.5168 63.0983C66.5161 63.099 66.5147 63.099 66.5126 63.1004C66.2725 63.2508 66.0385 63.4082 65.81 63.5745C65.7962 63.5842 65.7824 63.5952 65.7686 63.6049C65.1185 64.0818 64.5187 64.6209 63.9769 65.2158C63.9265 65.2703 63.8761 65.3248 63.8278 65.38C63.6725 65.556 63.522 65.7362 63.3764 65.9211C63.3212 65.9922 63.2687 66.0654 63.2142 66.1379C62.9568 66.4823 62.7187 66.8384 62.4978 67.2097C62.4529 67.2849 62.4046 67.3581 62.3612 67.434C62.2652 67.6045 62.1769 67.7791 62.0899 67.9544C62.0216 68.0897 61.9546 68.2277 61.8911 68.3657C61.8152 68.5328 61.7421 68.7005 61.6723 68.8703C61.6013 69.0476 61.5378 69.2285 61.4743 69.4093C61.408 69.6012 61.3424 69.7944 61.2852 69.9904C61.2099 70.2486 61.1409 70.5101 61.0836 70.7752C61.0533 70.9167 61.0284 71.0588 61.0022 71.2024C60.9615 71.4253 60.927 71.6496 60.8993 71.8774C60.8828 72.0127 60.8655 72.1486 60.8531 72.286C60.8241 72.6076 60.8069 72.9334 60.8034 73.2619C60.8034 73.2964 60.7986 73.3288 60.7986 73.364C60.7986 73.7823 60.8207 74.1964 60.8621 74.605C61.4825 80.7047 66.6471 85.4808 72.9078 85.4808H72.9098H72.9168C79.5963 85.4808 85.0314 80.0456 85.0314 73.3655C85.0314 71.2543 84.4861 69.2692 83.5323 67.5397C84.2756 67.5079 84.8602 67.4844 85.159 67.4713C86.0701 69.9808 89.0048 78.0497 89.0048 78.0497C89.374 79.0628 90.4714 79.6088 91.5012 79.2927L93.5731 78.6563C94.6388 78.3257 95.2385 77.1938 94.91 76.1262L94.91 76.1259ZM73.3456 53.572C73.8066 53.2883 74.7901 52.6803 75.8648 52.0177L73.6679 61.2896C73.4173 61.2738 73.1689 61.251 72.9149 61.251C72.6982 61.251 72.4877 61.2717 72.273 61.2834C72.6588 58.522 73.2069 54.577 73.3456 53.572L73.3456 53.572ZM72.9163 82.5343C67.8615 82.5343 63.7479 78.4223 63.7479 73.3659C63.7479 69.8977 65.6846 66.8755 68.5315 65.3191C68.8214 65.5814 69.1858 65.7663 69.602 65.8236C70.649 65.9693 71.6104 65.2805 71.8423 64.2694C72.1957 64.2279 72.5525 64.201 72.9156 64.201C77.9696 64.201 82.0825 68.3125 82.0825 73.3673C82.0832 78.4221 77.9705 82.5343 72.9163 82.5343L72.9163 82.5343Z" fill="white"/>
<path d="M39.8638 45.9033C42.1144 45.9033 43.8212 43.8638 43.8212 41.905C43.8212 39.8677 42.0358 37.9883 39.7857 37.9883C37.6904 37.9883 35.9048 39.6337 35.9048 41.8271C35.9055 44.1772 37.9236 45.9033 39.8636 45.9033H39.8638Z" fill="white"/>
<path d="M50.2016 60.0121L47.4292 50.6478C46.679 48.1749 45.033 46.6021 42.7098 46.6021H37.091C34.7685 46.6021 32.9707 48.2516 32.297 50.4222L29.2257 60.6858C29 61.5092 29 61.7349 29 61.9592C29 62.7826 29.7502 63.4562 30.4245 63.4562C31.3231 63.4562 31.7724 62.7826 31.9961 62.1083L34.694 52.9689L35.1433 51.7693L36.0426 51.9936L31.0995 69.8972H35.743V82.7807C35.743 84.5808 36.193 85.4787 37.5395 85.4787C38.8129 85.4787 39.3375 84.5794 39.3375 82.7807V69.8993H40.3113V82.7828C40.3113 84.5062 40.9111 85.4808 42.1093 85.4808C43.4585 85.4808 43.9072 84.5063 43.9072 82.7828V69.8993H48.6266L43.4579 51.9215L44.3572 51.6972L47.278 61.5847C47.6507 62.8588 48.1014 63.458 49.2243 63.458C50.0484 63.458 50.5723 63.0839 50.5723 62.0348C50.575 61.5841 50.5005 61.0589 50.2016 60.0119L50.2016 60.0121Z" fill="white"/>
</svg>
