<svg width="124" height="124" viewBox="0 0 124 124" fill="none" xmlns="http://www.w3.org/2000/svg">
<circle cx="62" cy="62" r="54" fill="#AD7147"/>
<path fill-rule="evenodd" clip-rule="evenodd" d="M49.9091 53.4546L43.3475 39.5455L37.1591 53.4546H49.9091ZM86.1356 53.376L78.7881 39.5455L72.3051 53.376H86.1356ZM61.5 46.5L71.9318 60.4091H51.0681L61.5 46.5ZM37.1591 54.6137H42.0508V61.1949H44.369V54.6137H49.9091V81.2727H37.1591V54.6137ZM78.356 54.6137H73.0909V81.2727H85.8409V54.6137H80.6742V61.1949H78.356V54.6137ZM71.9318 81.2728V61.5682H51.0681V81.2728H71.9318ZM59.1818 61.5682H56.8636V68.5228H59.1818V61.5682ZM63.8182 61.5682H66.1363V68.5228H63.8182V61.5682ZM66.1364 82.4318H87V84.75H66.1364V82.4318ZM56.8636 82.4318H36V84.75H56.8636V82.4318Z" fill="white"/>
</svg>
