<svg width="124" height="124" viewBox="0 0 124 124" fill="none" xmlns="http://www.w3.org/2000/svg">
<circle cx="62" cy="62" r="54" fill="#9E86B3"/>
<path d="M81.3839 43.2515H43.4129L43 43.706L48.0405 96.6252L48.4535 97H75.3402L75.7519 96.6327L81.7958 43.7135L81.3839 43.2515ZM48.8314 96.1707L43.8695 44.0805H48.5266L49.7503 60.188L52.4846 96.1707H48.8314ZM61.8422 58.6172L61.4831 96.1707H57.8213L56.4987 44.0805H61.9804L61.8422 58.6172ZM70.4792 96.1707H66.8121L68.0803 67.5637L69.1219 44.082H75.4329L70.4792 96.1707Z" fill="white"/>
<path d="M46.473 42.5615C47.2335 42.5615 47.8997 42.1555 48.2669 41.5437C48.6335 42.1532 49.3015 42.5615 50.0637 42.5615C51.2192 42.5615 52.1594 41.6212 52.1594 40.4658C52.1594 39.7845 51.8246 39.1524 51.2804 38.7638C51.4163 38.4041 51.4846 38.0357 51.4846 37.6639C51.4846 35.8897 50.0411 34.4473 48.268 34.4473C46.4948 34.4473 45.0513 35.8896 45.0513 37.6639C45.0513 38.0363 45.1202 38.4053 45.2555 38.7638C44.7119 39.1524 44.3765 39.7834 44.3765 40.4658C44.3759 41.6212 45.3162 42.5615 46.4728 42.5615H46.473ZM45.9542 39.3132C46.0578 39.2658 46.1381 39.1796 46.1757 39.0721C46.2133 38.9651 46.2058 38.8471 46.1532 38.7453C45.9722 38.392 45.8802 38.0282 45.8802 37.6627C45.8802 36.3459 46.9512 35.2749 48.2681 35.2749C49.5849 35.2749 50.6559 36.3459 50.6559 37.6627C50.6559 38.0276 50.5639 38.3926 50.3829 38.7453C50.3315 38.8465 50.3234 38.9651 50.3604 39.0721C50.398 39.1796 50.4783 39.2658 50.5819 39.3132C51.0364 39.5179 51.3308 39.9696 51.3308 40.4658C51.3308 41.165 50.7623 41.7329 50.0637 41.7329C49.501 41.7329 49.0274 41.3604 48.8643 40.8452C49.3368 40.7746 49.7873 40.6005 50.1869 40.3305C50.3766 40.2026 50.4263 39.9447 50.2991 39.7562C50.1707 39.5665 49.9145 39.515 49.7237 39.644C49.0638 40.0899 48.1917 40.1737 47.4596 39.8638C47.2491 39.7776 47.0062 39.8736 46.9165 40.0853C46.8281 40.2958 46.9258 40.5398 47.1369 40.6283C47.3167 40.7046 47.5024 40.7578 47.6915 40.8001C47.544 41.3367 47.0571 41.7334 46.4753 41.7334C45.7761 41.7334 45.2082 41.165 45.2082 40.4664C45.2053 39.9702 45.4997 39.518 45.9543 39.3132L45.9542 39.3132Z" fill="white"/>
<path d="M54.2457 37.6629C54.2457 38.0353 54.3145 38.4043 54.4498 38.7628C53.9062 39.1515 53.5708 39.7824 53.5708 40.4648C53.5708 41.6214 54.5111 42.5605 55.6665 42.5605C56.427 42.5605 57.0932 42.1546 57.4604 41.5427C57.8271 42.1522 58.495 42.5605 59.2573 42.5605C60.4127 42.5605 61.353 41.6202 61.353 40.4648C61.353 39.7841 61.0182 39.1514 60.4751 38.7628C60.6105 38.4037 60.6793 38.0347 60.6793 37.6629C60.6793 35.8887 59.2358 34.4463 57.4627 34.4463C55.6891 34.4463 54.2456 35.8892 54.2456 37.6629H54.2457ZM57.4617 35.2756C58.7785 35.2756 59.8495 36.3467 59.8495 37.6635C59.8495 38.029 59.7576 38.3939 59.5766 38.7461C59.5251 38.8473 59.517 38.9658 59.554 39.0728C59.5916 39.1804 59.672 39.2665 59.7744 39.314C60.2289 39.5187 60.5233 39.9703 60.5233 40.4665C60.5233 41.1657 59.9548 41.7336 59.2562 41.7336C58.6669 41.7336 58.1736 41.3265 58.0325 40.7973C58.4257 40.7112 58.8028 40.5596 59.14 40.3312C59.3296 40.2034 59.3794 39.9455 59.2522 39.757C59.1238 39.5673 58.8664 39.5158 58.6767 39.6448C58.0169 40.0906 57.1448 40.1745 56.4127 39.8645C56.201 39.7784 55.9581 39.8744 55.8696 40.086C55.7812 40.2965 55.8789 40.5406 56.09 40.6291C56.341 40.7355 56.6041 40.7956 56.8718 40.8349C56.7128 41.3537 56.2357 41.7342 55.6666 41.7342C54.9675 41.7342 54.3996 41.1657 54.3996 40.4671C54.3996 39.9715 54.6928 39.5193 55.1485 39.3146C55.252 39.2671 55.3324 39.181 55.37 39.0734C55.4076 38.9664 55.4 38.8484 55.3474 38.7467C55.1664 38.3933 55.0745 38.0296 55.0745 37.6641C55.075 36.3467 56.1455 35.2756 57.4617 35.2756V35.2756Z" fill="white"/>
<path d="M63.4408 37.6629C63.4408 38.0353 63.5096 38.4049 63.645 38.7628C63.1019 39.1515 62.7671 39.7835 62.7671 40.4648C62.7671 41.6214 63.7074 42.5605 64.8628 42.5605C65.6233 42.5605 66.2895 42.1546 66.6567 41.5433C67.0239 42.1517 67.6925 42.5605 68.4536 42.5605C69.609 42.5605 70.5493 41.6202 70.5493 40.4648C70.5493 39.7841 70.2145 39.1514 69.6714 38.7628C69.8068 38.4037 69.8756 38.0347 69.8756 37.6629C69.8756 35.8887 68.4321 34.4463 66.659 34.4463C64.8848 34.4463 63.4407 35.8892 63.4407 37.6629H63.4408ZM66.6574 35.2756C67.9742 35.2756 69.0453 36.3467 69.0453 37.6635C69.0453 38.029 68.9533 38.3939 68.7723 38.7461C68.7208 38.8473 68.7127 38.9658 68.7497 39.0728C68.7873 39.1804 68.8677 39.2665 68.9701 39.314C69.4246 39.5187 69.719 39.9703 69.719 40.4665C69.719 41.1657 69.1505 41.7336 68.4519 41.7336C67.8516 41.7336 67.3508 41.3132 67.2207 40.7453C67.5307 40.6522 67.8262 40.5145 68.098 40.3306C68.2877 40.2028 68.3374 39.9449 68.2102 39.7564C68.0824 39.5667 67.8245 39.5152 67.6348 39.6442C66.9749 40.0901 66.1028 40.1739 65.3707 39.8639C65.1602 39.7778 64.9162 39.8738 64.8277 40.0854C64.7392 40.2959 64.8369 40.54 65.048 40.6285C65.3707 40.7644 65.7119 40.8315 66.0612 40.8575C65.8952 41.3641 65.4239 41.7336 64.8624 41.7336C64.1644 41.7336 63.5953 41.1652 63.5953 40.4666C63.5953 39.9709 63.8885 39.5187 64.3442 39.314C64.4477 39.2666 64.5275 39.1804 64.5645 39.0728C64.6021 38.9658 64.5946 38.8479 64.542 38.7461C64.361 38.3939 64.269 38.0296 64.269 37.6635C64.2702 36.3467 65.3412 35.2757 66.6575 35.2757L66.6574 35.2756Z" fill="white"/>
<path d="M72.6356 37.6629C72.6356 38.0353 72.7045 38.4049 72.8398 38.7628C72.2967 39.1515 71.9619 39.7835 71.9619 40.4648C71.9619 41.6214 72.9022 42.5605 74.0577 42.5605C74.8181 42.5605 75.4843 42.1546 75.8515 41.5433C76.2188 42.1517 76.8873 42.5605 77.6484 42.5605C78.8038 42.5605 79.7441 41.6202 79.7441 40.4648C79.7441 39.7841 79.4093 39.1514 78.8663 38.7628C79.0016 38.4037 79.0704 38.0347 79.0704 37.6629C79.0704 35.8887 77.6269 34.4463 75.8538 34.4463C74.0796 34.4463 72.6356 35.8892 72.6356 37.6629H72.6356ZM75.8523 35.2756C77.169 35.2756 78.2401 36.3467 78.2401 37.6635C78.2401 38.029 78.1481 38.3939 77.9671 38.7461C77.9157 38.8473 77.9076 38.9658 77.9446 39.0728C77.9822 39.1804 78.0625 39.2665 78.1649 39.314C78.6195 39.5187 78.9138 39.9703 78.9138 40.4665C78.9138 41.1657 78.3453 41.7336 77.6467 41.7336C77.0175 41.7336 76.4982 41.2715 76.4016 40.6614C76.6295 40.5741 76.8504 40.4689 77.0557 40.3306C77.2454 40.2028 77.2951 39.9449 77.1667 39.7552C77.0389 39.5661 76.781 39.5146 76.5913 39.6442C75.9315 40.0901 75.0593 40.1739 74.3279 39.8639C74.1179 39.7778 73.8733 39.8738 73.7848 40.0854C73.6963 40.2959 73.7941 40.54 74.0052 40.6285C74.3996 40.795 74.8183 40.8789 75.2485 40.8806C75.0762 41.3756 74.6095 41.7336 74.056 41.7336C73.358 41.7336 72.789 41.1651 72.789 40.4665C72.789 39.9709 73.0822 39.5187 73.5379 39.314C73.6414 39.2665 73.7212 39.1804 73.7582 39.0728C73.7958 38.9658 73.7883 38.8479 73.7357 38.7461C73.5546 38.3939 73.4627 38.0296 73.4627 37.6635C73.465 36.3467 74.536 35.2756 75.8523 35.2756H75.8523Z" fill="white"/>
<path d="M51.07 34.1136C51.8304 34.1136 52.4966 33.7077 52.8638 33.0964C53.2311 33.7048 53.8996 34.1136 54.6607 34.1136C55.8161 34.1136 56.7564 33.1733 56.7564 32.0185C56.7564 31.3378 56.4222 30.7052 55.8786 30.3165C56.0145 29.9568 56.0827 29.5885 56.0827 29.2166C56.0827 27.4424 54.6393 26 52.8661 26C51.0929 26 49.6495 27.4423 49.6495 29.2166C49.6495 29.589 49.7183 29.958 49.8536 30.316C49.31 30.7057 48.9746 31.3373 48.9746 32.0191C48.974 33.1734 49.9144 34.1137 51.0698 34.1137L51.07 34.1136ZM50.5518 30.8654C50.6553 30.8179 50.7351 30.7312 50.7733 30.6242C50.8109 30.5166 50.8022 30.3992 50.7507 30.2975C50.5697 29.9453 50.4778 29.5809 50.4778 29.2155C50.4778 27.8987 51.5488 26.8276 52.8656 26.8276C54.1824 26.8276 55.2535 27.8986 55.2535 29.2155C55.2535 29.5804 55.1615 29.9453 54.9805 30.2975C54.929 30.3987 54.9209 30.5161 54.9579 30.6242C54.9955 30.7312 55.0759 30.8179 55.1794 30.8654C55.634 31.0701 55.9283 31.5229 55.9283 32.0185C55.9283 32.7165 55.3599 33.2844 54.6613 33.2844C54.0558 33.2844 53.5503 32.8565 53.426 32.2811C53.832 32.2701 54.2252 32.1932 54.5948 32.0359C54.8053 31.9474 54.9041 31.7033 54.8134 31.4928C54.7237 31.2823 54.4808 31.1834 54.2697 31.2731C53.5457 31.5796 52.6655 31.4992 52.0074 31.0527C51.8178 30.9244 51.5598 30.9741 51.432 31.1638C51.3042 31.3535 51.3534 31.6108 51.5431 31.7392C51.7865 31.904 52.0514 32.0295 52.3273 32.1203C52.2735 32.7697 51.7339 33.2833 51.0712 33.2833C50.372 33.2833 49.8041 32.7148 49.8041 32.0173C49.8035 31.5235 50.0967 31.0701 50.5519 30.8654L50.5518 30.8654Z" fill="white"/>
<path d="M60.2651 34.1136C61.0256 34.1136 61.6918 33.7077 62.059 33.0964C62.4262 33.7048 63.0947 34.1136 63.8558 34.1136C65.0113 34.1136 65.9516 33.1733 65.9516 32.0185C65.9516 31.3378 65.6167 30.7052 65.0737 30.3165C65.209 29.9574 65.2778 29.5885 65.2778 29.2166C65.2778 27.4424 63.8344 26 62.0612 26C60.2881 26 58.8446 27.4423 58.8446 29.2166C58.8446 29.589 58.9135 29.9586 59.0488 30.3165C58.5057 30.7052 58.1709 31.3373 58.1709 32.0185C58.1692 33.1734 59.1089 34.1136 60.265 34.1136H60.2651ZM59.7475 30.8654C59.851 30.8179 59.9309 30.7312 59.9679 30.6242C60.0055 30.5166 59.9968 30.3992 59.9453 30.2975C59.7643 29.9459 59.6723 29.5821 59.6723 29.2155C59.6723 27.8987 60.7434 26.8276 62.0602 26.8276C63.377 26.8276 64.448 27.8986 64.448 29.2155C64.448 29.5809 64.3567 29.9459 64.1751 30.2975C64.1236 30.3987 64.1155 30.5161 64.1525 30.6242C64.1901 30.7312 64.2705 30.8179 64.3728 30.8654C64.828 31.0701 65.1217 31.5235 65.1217 32.0185C65.1217 32.7165 64.5533 33.2844 63.8547 33.2844C63.2411 33.2844 62.7287 32.8461 62.6136 32.2579C62.9363 32.2267 63.2521 32.1625 63.5505 32.0359C63.761 31.9474 63.8599 31.7033 63.7702 31.4928C63.6806 31.2823 63.436 31.1834 63.2266 31.2731C62.5014 31.5796 61.6218 31.4986 60.9632 31.0527C60.7735 30.9243 60.5155 30.9741 60.3877 31.1638C60.2594 31.3534 60.3091 31.6108 60.4988 31.7392C60.8099 31.9497 61.1546 32.0948 61.5143 32.1845C61.4316 32.8027 60.9059 33.2838 60.264 33.2838C59.566 33.2838 58.9969 32.7154 58.9969 32.0179C58.9981 31.5235 59.2924 31.0701 59.7476 30.8653L59.7475 30.8654Z" fill="white"/>
<path d="M69.4604 34.1136C70.2209 34.1136 70.8871 33.7077 71.2543 33.0964C71.6215 33.7048 72.29 34.1136 73.0511 34.1136C74.2066 34.1136 75.1469 33.1733 75.1469 32.0185C75.1469 31.3378 74.812 30.7052 74.269 30.3165C74.4043 29.9574 74.4732 29.5885 74.4732 29.2166C74.4732 27.4424 73.0297 26 71.2565 26C69.4834 26 68.0399 27.4423 68.0399 29.2166C68.0399 29.589 68.1088 29.9586 68.2441 30.3165C67.701 30.7052 67.3662 31.3373 67.3662 32.0185C67.3645 33.1734 68.3048 34.1136 69.4603 34.1136H69.4604ZM68.9428 30.8654C69.0463 30.8179 69.1262 30.7312 69.1632 30.6242C69.2008 30.5166 69.1921 30.3992 69.1406 30.2975C68.9596 29.9459 68.8676 29.5821 68.8676 29.2155C68.8676 27.8987 69.9387 26.8276 71.2555 26.8276C72.5723 26.8276 73.6433 27.8986 73.6433 29.2155C73.6433 29.5809 73.552 29.9459 73.3704 30.2975C73.3189 30.3987 73.3108 30.5161 73.3478 30.6242C73.3854 30.7312 73.4658 30.8179 73.5681 30.8654C74.0233 31.0701 74.3171 31.5235 74.3171 32.0185C74.3171 32.7165 73.7486 33.2844 73.05 33.2844C72.4283 33.2844 71.9125 32.8345 71.8066 32.2348C72.0472 32.1932 72.2826 32.1319 72.507 32.0359C72.7175 31.9474 72.8164 31.7033 72.7267 31.4928C72.6371 31.2823 72.3919 31.1834 72.1831 31.2731C71.4568 31.5796 70.5783 31.4986 69.9196 31.0527C69.73 30.9243 69.472 30.9741 69.3442 31.1638C69.2164 31.3534 69.2656 31.6108 69.4553 31.7392C69.8335 31.9948 70.2579 32.1602 70.7038 32.2377C70.5991 32.831 70.0821 33.2838 69.4593 33.2838C68.7613 33.2838 68.1922 32.7154 68.1922 32.0179C68.1934 31.5235 68.4878 31.0701 68.9429 30.8653L68.9428 30.8654Z" fill="white"/>
</svg>
