<svg width="124" height="124" viewBox="0 0 124 124" fill="none" xmlns="http://www.w3.org/2000/svg">
<circle cx="62" cy="62" r="54" fill="#9E86B3"/>
<path d="M85.1179 38H58.795C58.3719 38.0029 58.0293 38.3456 58.0264 38.7686V53.8573C58.0264 54.2829 58.3697 54.6284 58.795 54.6314H67.2658C67.6231 54.6314 67.9661 54.7731 68.2188 55.0261C68.4714 55.2788 68.6135 55.6214 68.6135 55.9791V65.1077C68.6165 65.5311 68.9587 65.8737 69.3821 65.8763H85.1176C85.541 65.8738 85.8836 65.5311 85.8862 65.1077V38.7848C85.8891 38.5788 85.8094 38.3801 85.6651 38.2329C85.5212 38.0856 85.324 38.0019 85.1176 38.0004L85.1179 38ZM64.6857 46.9761C63.8954 46.9761 63.1374 46.6621 62.5789 46.1036C62.02 45.5447 61.706 44.7867 61.706 43.9964C61.706 43.2062 62.02 42.4482 62.5789 41.8893C63.1374 41.3307 63.8954 41.0168 64.6857 41.0168C65.4759 41.0168 66.2339 41.3307 66.7928 41.8893C67.3517 42.4482 67.6657 43.2062 67.6657 43.9964C67.6657 44.7867 67.3517 45.5447 66.7928 46.1036C66.2339 46.6621 65.4759 46.9761 64.6857 46.9761ZM71.956 54.9152C71.1658 54.9152 70.4082 54.6012 69.8493 54.0423C69.2903 53.4837 68.9764 52.7258 68.9764 51.9355C68.9764 51.1453 69.2903 50.3872 69.8493 49.8284C70.4082 49.2694 71.1658 48.9558 71.956 48.9558C72.7463 48.9558 73.5043 49.2694 74.0632 49.8284C74.6221 50.3873 74.9361 51.1453 74.9361 51.9355C74.9361 52.7258 74.6221 53.4838 74.0632 54.0423C73.5043 54.6012 72.7463 54.9152 71.956 54.9152ZM79.2477 62.8594C78.4574 62.8594 77.6994 62.5454 77.1405 61.9865C76.5816 61.428 76.268 60.67 76.268 59.8797C76.268 59.0895 76.5816 58.3315 77.1405 57.7726C77.6994 57.2137 78.4574 56.9001 79.2477 56.9001C80.0379 56.9001 80.7959 57.2137 81.3544 57.7726C81.9134 58.3315 82.2273 59.0895 82.2273 59.8797C82.2273 60.67 81.9134 61.428 81.3544 61.9865C80.7959 62.5454 80.0379 62.8594 79.2477 62.8594Z" fill="white"/>
<path d="M65.018 57.332H38.8634C38.3867 57.332 38 57.7187 38 58.1954V84.35C38 84.8266 38.3867 85.2133 38.8634 85.2133H65.018C65.2467 85.2133 65.4663 85.1223 65.6283 84.9603C65.7902 84.7984 65.8813 84.5788 65.8813 84.35V58.1954C65.8813 57.9666 65.7902 57.747 65.6283 57.5851C65.4663 57.4231 65.2467 57.332 65.018 57.332ZM44.66 82.1968C43.8698 82.1968 43.1118 81.8828 42.5533 81.3243C41.9943 80.7654 41.6804 80.0074 41.6804 79.2171C41.6804 78.4269 41.9943 77.6689 42.5533 77.11C43.1118 76.5514 43.8698 76.2375 44.66 76.2375C45.4503 76.2375 46.2083 76.5514 46.7672 77.11C47.3261 77.6689 47.6397 78.4269 47.6397 79.2171C47.6397 80.0074 47.3261 80.7654 46.7672 81.3243C46.2083 81.8828 45.4503 82.1968 44.66 82.1968ZM44.66 74.2577C43.8698 74.2577 43.1118 73.9441 42.5533 73.3852C41.9943 72.8263 41.6804 72.0683 41.6804 71.2781C41.6804 70.4878 41.9943 69.7298 42.5533 69.1713C43.1118 68.6124 43.8698 68.2984 44.66 68.2984C45.4503 68.2984 46.2083 68.6124 46.7672 69.1713C47.3261 69.7298 47.6397 70.4878 47.6397 71.2781C47.6357 72.0658 47.3199 72.8196 46.7617 73.375C46.2031 73.9302 45.4477 74.242 44.6601 74.242L44.66 74.2577ZM44.66 66.3187V66.319C43.8698 66.319 43.1118 66.0051 42.5533 65.4461C41.9943 64.8872 41.6804 64.1296 41.6804 63.3394C41.6804 62.5491 41.9943 61.7911 42.5533 61.2322C43.1118 60.6733 43.8698 60.3593 44.66 60.3593C45.4503 60.3593 46.2083 60.6733 46.7672 61.2322C47.3261 61.7911 47.6397 62.5491 47.6397 63.3394C47.6386 64.1285 47.3239 64.885 46.7653 65.4428C46.2064 66.0003 45.4496 66.3135 44.66 66.3135L44.66 66.3187ZM59.2222 82.197C58.432 82.197 57.674 81.883 57.1151 81.3245C56.5562 80.7656 56.2422 80.0076 56.2422 79.2173C56.2422 78.4271 56.5561 77.6691 57.1151 77.1102C57.674 76.5516 58.432 76.2377 59.2222 76.2377C60.0125 76.2377 60.7705 76.5516 61.329 77.1102C61.8879 77.6691 62.2019 78.4271 62.2019 79.2173C62.2019 80.0076 61.8879 80.7656 61.329 81.3245C60.7704 81.883 60.0125 82.197 59.2222 82.197ZM59.2222 74.2579C58.432 74.2579 57.674 73.9443 57.1151 73.3854C56.5562 72.8265 56.2422 72.0685 56.2422 71.2783C56.2422 70.488 56.5561 69.73 57.1151 69.1715C57.674 68.6126 58.432 68.2986 59.2222 68.2986C60.0125 68.2986 60.7705 68.6126 61.329 69.1715C61.8879 69.73 62.2019 70.488 62.2019 71.2783C62.1975 72.066 61.882 72.8198 61.3235 73.3752C60.7653 73.9304 60.0095 74.2422 59.2222 74.2422L59.2222 74.2579ZM59.2222 66.3189V66.3192C58.432 66.3192 57.674 66.0052 57.1151 65.4463C56.5562 64.8874 56.2422 64.1298 56.2422 63.3395C56.2422 62.5493 56.5561 61.7913 57.1151 61.2324C57.674 60.6735 58.432 60.3595 59.2222 60.3595C60.0125 60.3595 60.7705 60.6735 61.329 61.2324C61.8879 61.7913 62.2019 62.5493 62.2019 63.3395C62.2004 64.1287 61.8857 64.8852 61.3272 65.443C60.7686 66.0005 60.0114 66.3137 59.2222 66.3137L59.2222 66.3189Z" fill="white"/>
</svg>
