<svg width="124" height="124" viewBox="0 0 124 124" fill="none" xmlns="http://www.w3.org/2000/svg">
<circle cx="62" cy="62" r="54" fill="#BAB86C"/>
<path d="M33.95 66.25H39.65C40.1746 66.25 40.6 66.7746 40.6 67.2V89.05C40.6 89.5746 40.1746 90 39.65 90H33.95C33.4254 90 33 89.4754 33 89.05V67.2C33 66.6754 33.4254 66.25 33.95 66.25Z" fill="white"/>
<path d="M64.35 66.25H70.05C70.5746 66.25 71 66.7746 71 67.2V89.05C71 89.5746 70.5746 90 70.05 90H64.35C63.8254 90 63.4 89.4754 63.4 89.05V67.2C63.4 66.6754 63.8254 66.25 64.35 66.25Z" fill="white"/>
<path d="M42.5001 76.6997H61.5001V84.2997H42.5001V76.6997Z" fill="white"/>
<path d="M88.8763 78.6001H85.7252V72.4251H88.1002C88.8874 72.4251 89.5252 71.7873 89.5252 71.0001C89.5252 70.213 88.8874 69.5751 88.1002 69.5751H85.7252V63.4001C85.7142 62.6211 85.0793 61.9951 84.3002 61.9951C83.5211 61.9951 82.8863 62.6211 82.8752 63.4001V64.8251H81.4502C80.6631 64.8251 80.0252 65.463 80.0252 66.2501C80.0252 67.0373 80.6631 67.6751 81.4502 67.6751H82.8752V78.5996H79.7245C79.4446 78.5996 79.1791 78.723 78.9988 78.9363C78.8181 79.1501 78.741 79.4321 78.7876 79.7078L80.3937 89.2078C80.4709 89.665 80.867 89.9996 81.3306 89.9996H87.2698C87.7333 89.9996 88.1294 89.665 88.2066 89.2078L89.8127 79.7078C89.8593 79.4321 89.7822 79.1501 89.6015 78.9363C89.4212 78.723 89.1558 78.5996 88.8763 78.5996L88.8763 78.6001Z" fill="white"/>
<path d="M79.55 33C76.7785 33 74.1205 34.101 72.1607 36.0607C70.2009 38.0206 69.1 40.6784 69.1 43.45C69.6505 57.3113 89.4517 57.3081 90 43.45C90 40.6785 88.899 38.0206 86.9392 36.0607C84.9794 34.1009 82.3216 33 79.55 33ZM82.4576 46.3575C82.1904 46.6247 81.8278 46.7749 81.45 46.7749C81.0721 46.7749 80.7095 46.6247 80.4423 46.3575L78.5431 44.4584C78.2772 44.1899 78.1267 43.8278 78.125 43.4499V39.6499C78.1364 38.8708 78.7709 38.2456 79.55 38.2456C80.3291 38.2456 80.9636 38.8712 80.975 39.6499V42.8599L82.4576 44.3426V44.3421C82.7248 44.6093 82.875 44.9719 82.875 45.3498C82.875 45.7277 82.7248 46.0903 82.4576 46.3575V46.3575Z" fill="white"/>
<path d="M67.1999 64.35V57.7C67.1999 56.9443 66.8997 56.219 66.3653 55.6847C65.8309 55.1505 65.1056 54.8501 64.35 54.8501H39.65C38.8942 54.8501 38.169 55.1504 37.6347 55.6847C37.1004 56.2191 36.8 56.9444 36.8 57.7V64.35H40.6C41.1039 64.35 41.5874 64.5502 41.9436 64.9065C42.2999 65.2627 42.5001 65.7462 42.5001 66.25V74.8H61.5V66.25C61.5 65.7462 61.7002 65.2627 62.0565 64.9065C62.4127 64.5502 62.8962 64.35 63.4 64.35H67.1999ZM48.1999 67.2C47.5273 67.1907 46.9098 66.8264 46.576 66.2424C46.2427 65.6584 46.2427 64.9417 46.576 64.3577C46.9098 63.7733 47.5273 63.4094 48.1999 63.4001C48.8726 63.4094 49.4901 63.7737 49.8238 64.3577C50.1572 64.9417 50.1572 65.6584 49.8238 66.2424C49.4901 66.8268 48.8726 67.1907 48.1999 67.2ZM55.7999 67.2C55.1273 67.1907 54.5098 66.8264 54.176 66.2424C53.8427 65.6584 53.8427 64.9417 54.176 64.3577C54.5098 63.7733 55.1273 63.4094 55.7999 63.4001C56.4726 63.4094 57.0901 63.7737 57.4238 64.3577C57.7572 64.9417 57.7572 65.6584 57.4238 66.2424C57.0901 66.8268 56.4726 67.1907 55.7999 67.2Z" fill="white"/>
</svg>
