<svg width="124" height="124" viewBox="0 0 124 124" fill="none" xmlns="http://www.w3.org/2000/svg">
<circle cx="62" cy="62" r="54" fill="#FFB831"/>
<path fill-rule="evenodd" clip-rule="evenodd" d="M78 43H46V81H78V43ZM82 81H87C88.6569 81 90 79.6569 90 78V46C90 44.3431 88.6569 43 87 43H82V81ZM37 43H42V81H37C35.3431 81 34 79.6569 34 78V46C34 44.3431 35.3431 43 37 43ZM60 54H64V60H70V64H64V70H60V64H54V60H60V54Z" fill="white"/>
<path fill-rule="evenodd" clip-rule="evenodd" d="M52 36C50.8954 36 50 36.8954 50 38V45H74V38C74 36.8954 73.1046 36 72 36H52ZM55 40C54.4477 40 54 40.4477 54 41V43H70V41C70 40.4477 69.5523 40 69 40H55Z" fill="white"/>
</svg>
