<svg width="124" height="124" viewBox="0 0 124 124" fill="none" xmlns="http://www.w3.org/2000/svg">
<circle cx="62" cy="62" r="54" fill="#AD7147"/>
<path d="M39 83.4668H85V85.0001H39V83.4668Z" fill="white"/>
<path d="M39 39H85V43.6H39V39Z" fill="white"/>
<path d="M40.5332 45.1333V81.9333H63.5332V45.1333H40.5332ZM60.4665 60.4666H43.5999V48.2H60.4665V60.4666Z" fill="white"/>
<path d="M81.8563 55.5602L77.7929 54.1802L75.0329 57.7068L72.1963 54.1802L68.1329 55.5602C67.2129 55.8668 66.5996 56.7102 66.5996 57.7068V67.3668C66.5996 69.0535 67.9796 70.4335 69.6663 70.4335L71.1996 81.9335H78.8663L80.3996 70.4335C82.0863 70.4335 83.4663 69.0535 83.4663 67.3668V57.7068C83.4663 56.7102 82.8529 55.8668 81.8563 55.5602Z" fill="white"/>
<path d="M75.0335 45.8999C72.8869 45.8999 71.2002 47.5866 71.2002 49.7332C71.2002 51.8799 72.8869 53.5666 75.0335 53.5666C77.1802 53.5666 78.8669 51.8799 78.8669 49.7332C78.8669 47.5866 77.1802 45.8999 75.0335 45.8999Z" fill="white"/>
</svg>
