<svg width="124" height="124" viewBox="0 0 124 124" fill="none" xmlns="http://www.w3.org/2000/svg">
<circle cx="62" cy="62" r="54" fill="#42D5C7"/>
<path fill-rule="evenodd" clip-rule="evenodd" d="M75.1399 35.1177C74.6086 34.8472 73.9587 35.0586 73.6882 35.5899C73.4177 36.1211 73.6291 36.7711 74.1603 37.0416L75.4428 37.6946C75.9741 37.9651 76.624 37.7537 76.8945 37.2225C77.165 36.6912 76.9537 36.0413 76.4224 35.7708L75.1399 35.1177ZM75.1963 57.3987C73.7376 56.4007 72.1843 55.4566 70.5462 54.5811L55.5228 87.2407H69.5414C70.7337 87.2407 71.7002 88.2072 71.7002 89.3995H35C35 88.2072 35.9665 87.2407 37.1588 87.2407H51.426L51.1733 87.1245L66.9479 52.832C63.1893 51.1797 59.4198 50.0543 55.8243 49.4399C57.3959 47.9552 59.268 46.3237 61.3042 44.7559C65.2236 41.7381 69.4771 39.1731 73.1836 38.1886C73.475 38.3055 73.7654 38.4285 74.0545 38.5576C75.3261 41.7128 75.7291 46.3254 75.6397 50.88C75.5932 53.2485 75.4167 55.5061 75.1963 57.3987ZM86.9002 69.763C85.1415 66.4588 82.3913 63.1625 78.8554 60.1783C79.2338 57.7651 79.5704 54.4496 79.639 50.9585C79.699 47.9002 79.5582 44.5559 78.9979 41.496C87.5075 48.0179 90.8844 59.5367 86.9002 69.763ZM50.6874 48.9029C52.7174 46.7777 55.6124 44.09 58.8639 41.5865C61.2259 39.7679 63.8713 37.9709 66.5864 36.5584C56.7853 35.5545 46.9755 40.5778 42.2842 49.8118C44.7757 49.1032 47.6228 48.7963 50.6874 48.9029Z" fill="white"/>
</svg>
