<svg width="124" height="124" viewBox="0 0 124 124" fill="none" xmlns="http://www.w3.org/2000/svg">
<circle cx="62" cy="62" r="54" fill="#F36E6D"/>
<path d="M65.8229 44.3246C65.8229 46.312 64.205 47.9233 62.2092 47.9233C60.2137 47.9233 58.5955 46.312 58.5955 44.3246C58.5955 42.3369 60.2137 40.7256 62.2092 40.7256C64.205 40.7256 65.8229 42.3369 65.8229 44.3246Z" fill="white"/>
<path d="M63.7065 65.115C63.3673 64.3844 62.9019 63.6661 62.6752 62.9165L55.6985 62.9168C55.5415 63.9822 55.3851 65.1637 55.2281 66.5359C55.0393 68.1895 54.8116 69.8835 54.4198 70.3917C53.1536 72.0357 52.1846 73.6517 50.9002 75.2819C50.1703 76.2083 50.2564 77.0473 50.7268 77.5845H53.6692C53.7783 77.4854 53.8832 77.3744 53.9823 77.2484C55.1203 75.8038 56.2584 74.3599 57.3957 72.9157C59.0089 70.8676 58.9396 67.528 59.3605 65.0244C60.6365 67.7691 61.9122 70.5132 63.1881 73.2575C63.7784 74.5283 64.3697 75.7994 64.9607 77.0706C65.0518 77.2667 65.1599 77.4361 65.2785 77.5841H68.2855C68.5862 77.1253 68.6585 76.484 68.3052 75.7238C66.6609 72.1877 65.3511 68.651 63.7065 65.1154L63.7065 65.115Z" fill="white"/>
<path d="M55.143 56.0089L57.1924 54.3523C56.8221 56.5585 56.4705 58.2868 56.126 60.2612H62.7776C62.9929 58.785 63.2085 57.3088 63.4235 55.8322C63.8983 56.6412 64.3114 57.7479 64.9483 58.4325C65.3999 59.2042 67.1052 59.6887 67.8857 60.0455C68.042 60.1172 68.1987 60.1889 68.3558 60.2606H74.0702C73.9704 59.9295 73.6925 59.6123 73.1789 59.3772C71.4938 58.6056 68.0247 57.5072 67.0765 55.8909C65.8108 53.7321 64.7281 48.7062 60.2813 48.7345C58.3394 48.7472 55.1783 51.9444 52.9471 53.3866C51.9088 54.0575 51.9423 55.8625 51.7592 56.941C51.5713 58.0474 51.3825 59.1542 51.1943 60.2609H54.2653C54.5412 58.7803 54.8817 57.5462 55.1432 56.0089L55.143 56.0089Z" fill="white"/>
<path d="M86.7157 60.9251H37.7163C35.1429 60.9251 33.0496 62.6611 33.0496 64.7953V75.7068C33.0496 77.8406 35.1429 79.5762 37.7163 79.5762V82.1712H85.9383V79.5762H86.7157C89.2895 79.5762 91.3824 77.8402 91.3824 75.7068L91.3821 64.7953C91.3821 62.6608 89.2891 60.9248 86.7154 60.9248L86.7157 60.9251ZM90.0492 75.7071C90.0492 77.1086 88.5539 78.2487 86.7157 78.2487H37.7163C35.8785 78.2487 34.3828 77.1083 34.3828 75.7071V64.7956C34.3828 63.3938 35.878 62.2534 37.7163 62.2534H86.7166C88.5544 62.2534 90.0501 63.3941 90.0501 64.7956L90.0497 75.7071H90.0492Z" fill="white"/>
<path d="M38.9464 49.166L41.3384 51.547H33.0496V53.5387H41.3384L38.9464 55.9197H41.8256L45.2164 52.543L41.8256 49.166H38.9464Z" fill="white"/>
<path d="M87.77 49.166H84.8912L87.2832 51.547H78.9937V53.5387H87.2832L84.8912 55.9197H87.77L91.1605 52.543L87.77 49.166Z" fill="white"/>
</svg>
