<svg width="124" height="124" viewBox="0 0 124 124" fill="none" xmlns="http://www.w3.org/2000/svg">
<circle cx="62" cy="62" r="54" fill="#618660"/>
<path d="M36 61.5679V36.2905L40.6588 38.707C45.4713 41.2033 51.1527 41.3975 56.1245 39.2357L62.0525 36.658L69.718 39.5564C74.8896 41.5118 80.673 40.982 85.4033 38.1194L88 36.548V61.5679C88 70.8072 83.0968 79.3525 75.1201 84.0148L63.0092 91.0935C62.3858 91.4579 61.6142 91.4579 60.9908 91.0935L48.8799 84.0148C40.9032 79.3525 36 70.8072 36 61.5679Z" stroke="white" stroke-width="4"/>
<path d="M38 38L48.56 40.6042L62 38V63H38V38Z" fill="white" fill-opacity="0.6"/>
<path d="M62 63H87L84.3958 75.5L62 91V63Z" fill="white" fill-opacity="0.6"/>
</svg>
