<svg width="124" height="124" viewBox="0 0 124 124" fill="none" xmlns="http://www.w3.org/2000/svg">
<circle cx="62" cy="62" r="54" fill="#D66EB8"/>
<path fill-rule="evenodd" clip-rule="evenodd" d="M48.25 45C45.9028 45 44 46.9028 44 49.25V53.5C44 62.8888 51.6112 70.5 61 70.5C66.3686 70.5 71.1559 68.0115 74.2714 64.125H79.0625C83.1701 64.125 86.5 60.7951 86.5 56.6875C86.5 52.5799 83.1701 49.25 79.0625 49.25H78C78 46.9028 76.0972 45 73.75 45H48.25ZM78 53.5C78 55.7544 77.5612 57.9063 76.7643 59.875H79.0625C80.8229 59.875 82.25 58.4479 82.25 56.6875C82.25 54.9271 80.8229 53.5 79.0625 53.5H78Z" fill="white"/>
<path d="M44 76.875C44 75.7014 44.9514 74.75 46.125 74.75H75.875C77.0486 74.75 78 75.7014 78 76.875C78 78.0486 77.0486 79 75.875 79H46.125C44.9514 79 44 78.0486 44 76.875Z" fill="white"/>
</svg>
