<svg width="124" height="124" viewBox="0 0 124 124" fill="none" xmlns="http://www.w3.org/2000/svg">
<circle cx="62" cy="62" r="54" fill="#ABA39A"/>
<path d="M74.8461 43.1185H69.5933C69.1618 42.2729 68.5051 41.5629 67.6955 41.0667C66.8862 40.5706 65.9553 40.3078 65.0058 40.3071H58.4458C57.4962 40.3078 56.5653 40.5706 55.756 41.0667C54.9464 41.5629 54.2898 42.2728 53.8583 43.1185H48.6054C47.2385 43.1185 45.9275 43.6617 44.9606 44.6282C43.9941 45.5947 43.4512 46.9058 43.4512 48.273V78.7308C43.4512 80.0977 43.9941 81.4088 44.9606 82.3756C45.9275 83.3422 47.2385 83.8851 48.6054 83.8851H74.846C76.2129 83.8851 77.5239 83.3421 78.4908 82.3756C79.4573 81.4088 80.0002 80.0977 80.0002 78.7308V48.273C80.0002 46.9058 79.4573 45.5947 78.4908 44.6282C77.5239 43.6617 76.2129 43.1185 74.846 43.1185H74.8461ZM58.4458 43.1185H65.0058C65.6271 43.1185 66.223 43.3652 66.6626 43.8049C67.1019 44.2442 67.3487 44.84 67.3487 45.4614H56.1027C56.1027 44.84 56.3495 44.2442 56.7888 43.8049C57.2284 43.3652 57.8243 43.1185 58.4456 43.1185H58.4458ZM59.9078 70.5865L54.2849 76.2094H54.2846C54.0346 76.4595 53.6992 76.6062 53.3459 76.6203C52.9922 76.634 52.6467 76.5141 52.3777 76.2843L49.0978 73.4726L49.0974 73.473C48.716 73.1422 48.5395 72.6333 48.6349 72.1371C48.7307 71.6412 49.0834 71.234 49.5605 71.0689C50.0378 70.9035 50.5666 71.0055 50.9484 71.3363L53.2397 73.2997L57.9258 68.6135C58.2844 68.2792 58.7917 68.1563 59.2636 68.2887C59.7359 68.421 60.105 68.7901 60.2373 69.2624C60.37 69.7347 60.2468 70.2416 59.9124 70.6005L59.9078 70.5865ZM59.9078 56.0605L54.2849 61.6834H54.2846C54.0346 61.9338 53.6992 62.0805 53.3459 62.0943C52.9922 62.1083 52.6467 61.9884 52.3777 61.7586L49.0978 58.9469H49.0974C48.716 58.6165 48.5395 58.1073 48.6349 57.6114C48.7307 57.1155 49.0834 56.7083 49.5605 56.5429C50.0378 56.3778 50.5666 56.4794 50.9484 56.8102L53.2397 58.7737L57.9255 54.0879H57.9258C58.2844 53.7535 58.7917 53.6302 59.2636 53.7626C59.7359 53.8953 60.105 54.2644 60.2373 54.7364C60.37 55.2087 60.2468 55.7159 59.9124 56.0745L59.9078 56.0605ZM68.7548 77.0906H64.069C63.5666 77.0906 63.1028 76.8226 62.8514 76.3879C62.6004 75.9528 62.6004 75.4171 62.8514 74.9821C63.1028 74.547 63.5666 74.2793 64.069 74.2793H68.7548C69.2572 74.2793 69.721 74.547 69.9724 74.9821C70.2234 75.4171 70.2234 75.9529 69.9724 76.3879C69.721 76.8226 69.2572 77.0906 68.7548 77.0906ZM72.5036 71.4677H64.0691C63.5667 71.4677 63.1029 71.1997 62.8515 70.765C62.6005 70.3299 62.6005 69.7939 62.8515 69.3592C63.1029 68.9241 63.5667 68.6561 64.0691 68.6561H72.5036C73.0056 68.6561 73.4698 68.9241 73.7208 69.3592C73.9721 69.7939 73.9721 70.33 73.7208 70.765C73.4698 71.1997 73.0056 71.4677 72.5036 71.4677ZM62.6633 61.1589C62.6633 60.786 62.8114 60.4284 63.0752 60.165C63.3386 59.9012 63.6962 59.7531 64.0692 59.7531H68.755C69.2574 59.7531 69.7212 60.0211 69.9725 60.4558C70.2236 60.8909 70.2236 61.4269 69.9725 61.8617C69.7212 62.2967 69.2574 62.5647 68.755 62.5647H64.0692C63.6962 62.5647 63.3386 62.4164 63.0752 62.1529C62.8114 61.8891 62.6633 61.5315 62.6633 61.1589V61.1589ZM72.5036 56.9419L64.0691 56.9415C63.5667 56.9415 63.1029 56.6738 62.8515 56.2388C62.6005 55.8038 62.6005 55.268 62.8515 54.833C63.1029 54.3983 63.5667 54.1302 64.0691 54.1302H72.5036C73.0056 54.1302 73.4698 54.3983 73.7208 54.833C73.9721 55.268 73.9721 55.8038 73.7208 56.2388C73.4698 56.6738 73.0056 56.9415 72.5036 56.9415V56.9419Z" fill="white"/>
</svg>
