<svg width="124" height="124" viewBox="0 0 124 124" fill="none" xmlns="http://www.w3.org/2000/svg">
<circle cx="62" cy="62" r="54" fill="#AD7147"/>
<path d="M59.8195 39.1954C59.8195 42.8191 56.882 45.757 53.2584 45.757C49.6343 45.757 46.6968 42.8191 46.6968 39.1954C46.6968 35.5713 49.6343 32.6338 53.2584 32.6338C56.882 32.6338 59.8195 35.5713 59.8195 39.1954Z" fill="white"/>
<path d="M60.2571 75.3149H51.5086C49.259 75.3149 47.3218 73.6902 47.0093 71.4406L44.3847 54.6307C44.1345 53.5684 43.1346 52.8182 42.01 52.9433C40.9477 53.1307 40.198 54.1307 40.3226 55.2553L42.9472 72.0653C43.5723 76.2521 47.1963 79.3143 51.4459 79.3143H60.1943C61.3189 79.3143 62.1943 78.4394 62.1943 77.3143C62.1943 76.1897 61.3194 75.3149 60.2572 75.3149H60.2571Z" fill="white"/>
<path d="M69.5684 69.3154C69.3186 67.8782 68.0685 66.8783 66.6314 66.8783H60.5698L59.5698 52.9429C59.3824 49.8808 56.8201 47.5063 53.7585 47.5063H52.8213C51.0715 47.5063 49.447 48.2561 48.2596 49.5685C47.135 50.8811 46.635 52.6307 46.8848 54.3804L49.3842 70.3155C49.634 71.7526 50.8841 72.8777 52.3212 72.8777H64.1319L67.1314 89.5626C67.3811 90.9998 68.6312 91.9997 70.0684 91.9997C70.2558 91.9997 70.4433 91.9997 70.6307 91.9374C72.2554 91.6249 73.3176 90.0626 73.0678 88.438L69.5684 69.3154Z" fill="white"/>
<path d="M73.9422 44.1318C68.5681 44.1318 64.1938 48.5061 64.1938 53.8802C64.1938 59.2544 68.5681 63.6286 73.9422 63.6286C79.3164 63.6286 83.6906 59.2544 83.6906 53.8802C83.6906 48.5061 79.3164 44.1318 73.9422 44.1318ZM78.8165 47.694L77.6291 48.8814C77.2542 49.2563 77.2542 49.8186 77.6291 50.1311C77.8165 50.3186 78.0039 50.3809 78.2541 50.3809C78.5039 50.3809 78.6918 50.3186 78.8792 50.1311L80.0666 48.9437C80.9415 50.0683 81.5665 51.4431 81.754 52.9431H80.1286C79.6286 52.9431 79.2537 53.318 79.2537 53.8179C79.2537 54.3179 79.6286 54.6928 80.1286 54.6928H81.8159C81.6285 56.1927 81.0662 57.5676 80.1286 58.6922L78.9412 57.5047C78.5663 57.1299 78.004 57.1299 77.6915 57.5047C77.3166 57.8796 77.3166 58.4419 77.6915 58.7544L78.8789 59.9419C77.7543 60.8167 76.3795 61.4417 74.8795 61.6292V59.9419C74.8795 59.4419 74.5046 59.067 74.0047 59.067C73.5047 59.067 73.1298 59.4419 73.1298 59.9419V61.6292C71.6299 61.4418 70.255 60.8795 69.1304 59.9419L70.3179 58.7544C70.6927 58.3796 70.6927 57.8173 70.3179 57.5047C69.943 57.1299 69.3807 57.1299 69.0682 57.5047L67.8807 58.6922C67.0059 57.5676 66.3809 56.1928 66.1934 54.6928H67.8807C68.3807 54.6928 68.7556 54.3179 68.7556 53.8179C68.7556 53.318 68.3807 52.9431 67.8807 52.9431H66.1934C66.3808 51.4432 66.9431 50.0683 67.8807 48.9437L69.0682 50.1311C69.2556 50.3186 69.443 50.3809 69.6932 50.3809C69.943 50.3809 70.1309 50.3186 70.3183 50.1311C70.6932 49.7563 70.6932 49.194 70.3183 48.8814L69.1309 47.694C70.5057 46.6317 72.193 45.9443 74.0674 45.9443C75.8171 45.9443 77.5041 46.6317 78.8166 47.694H78.8165Z" fill="white"/>
<path d="M73.9428 55.3802C74.4428 55.3802 74.88 55.1304 75.1302 54.7551H76.9422C77.4422 54.7551 77.817 54.3803 77.817 53.8803C77.817 53.3803 77.4422 53.0054 76.9422 53.0054H75.1302C75.0679 52.8803 74.9428 52.818 74.8177 52.6929V48.3187C74.8177 47.8187 74.4428 47.4438 73.9428 47.4438C73.4428 47.4438 73.068 47.8187 73.068 48.3187V52.6929C72.6931 52.9427 72.4429 53.3803 72.4429 53.8803C72.3806 54.6928 73.068 55.3802 73.9428 55.3802Z" fill="white"/>
</svg>
