<svg width="124" height="124" viewBox="0 0 124 124" fill="none" xmlns="http://www.w3.org/2000/svg">
<circle cx="62" cy="62" r="54" fill="#63A9F8"/>
<g clip-path="url(#clip0_101_53)">
<path d="M42.5311 64.296C43.5316 63.7949 44.4426 63.5543 45.3816 64.3136C48.481 66.6012 49.8495 65.5274 53.1818 64.8075C53.2074 64.8163 53.1984 64.8424 53.224 64.8511C53.2661 64.8947 53.2917 64.9035 53.3338 64.9471C53.4015 64.9995 53.4437 65.0431 53.5114 65.0955C53.5791 65.1478 53.6468 65.2002 53.7401 65.2614C53.7657 65.2701 53.7657 65.2701 53.7823 65.305C54.2051 65.6541 55.1978 66.2571 54.5053 66.7766C54.4708 66.7938 54.4363 66.8111 54.4107 66.8023C54.1616 66.8624 53.8805 66.7659 53.6237 66.7651C53.0334 66.7372 52.4495 66.8571 51.8669 66.89C50.487 66.9987 49.0866 67.3334 47.7042 67.0335C45.7647 66.7753 44.0604 65.6658 42.1477 65.3294L42.1222 65.3206C42.0966 65.3119 42.0711 65.3031 42.0455 65.2943C41.9433 65.2592 41.8321 65.2502 41.7555 65.2238C41.7044 65.2063 41.6533 65.1887 41.5932 65.1973L41.5677 65.1885C41.5166 65.1709 41.4565 65.1794 41.3798 65.1531L41.3543 65.1443C41.3632 65.1183 41.3632 65.1183 41.3977 65.101C41.7785 64.824 42.1593 64.547 42.5311 64.296Z" fill="white"/>
<path fill-rule="evenodd" clip-rule="evenodd" d="M29.8146 62.2304C30.0865 64.683 30.7263 67.1454 31.9361 69.2793C31.9597 69.3225 31.9834 69.3659 32.0072 69.4094C32.4964 70.3029 33.0143 71.2486 32.8838 72.3426C32.8989 72.6181 32.8093 72.977 32.7153 73.3535C32.5156 74.1533 32.2961 75.0325 33.0189 75.3599C33.07 75.3774 33.1556 75.3777 33.2157 75.3692C33.1597 75.4563 33.2815 75.5803 33.3673 75.6675C33.3755 75.6759 33.3833 75.6838 33.3907 75.6914C33.7101 76.0924 34.2684 75.9637 34.607 75.6431C35.2201 75.0953 35.5626 74.3287 35.8994 73.5747C35.9248 73.5178 35.9502 73.4609 35.9757 73.4043C36.1933 72.9131 36.4443 72.4334 36.6953 71.9537C36.8835 71.5939 37.0718 71.2342 37.2459 70.8696C37.5288 70.411 37.8239 69.8787 38.1372 69.3137C39.6796 66.5318 41.6616 62.9571 44.7774 63.4944C46.589 64.8738 48.1873 65.6265 50.6354 65.069C50.7167 65.044 50.798 65.0189 50.8793 64.9938C52.5847 64.468 54.2717 63.9478 56.0401 63.721C56.1931 63.6905 56.3546 63.6776 56.5311 63.6637C56.6021 63.658 56.6755 63.6522 56.7518 63.6449L56.7924 63.6419C57.337 63.6014 57.8993 63.5595 58.2148 63.1279C58.2761 63.0324 58.2442 62.8758 58.1509 62.8147C57.3747 62.326 56.469 62.1811 55.5662 62.0366C55.0484 61.9538 54.5316 61.8711 54.0407 61.7237C52.6251 61.3542 51.4127 60.5592 50.2871 59.6776C51.6027 59.8766 52.929 59.9574 54.2578 60.0384C54.7666 60.0694 55.2758 60.1005 55.7849 60.1382C65.3189 60.907 72.9603 64.6086 76.1561 74.2691C76.181 74.3517 76.2059 74.4341 76.2308 74.5164C76.5 75.405 76.7643 76.2779 76.8917 77.2014C76.9 77.2188 76.9019 77.234 76.9038 77.2492C76.9057 77.2644 76.9077 77.2796 76.916 77.2971C76.9115 77.3101 76.9156 77.3188 76.9198 77.3275C76.9239 77.3362 76.9281 77.3449 76.9236 77.3579C76.9568 77.4276 76.9645 77.4885 76.9722 77.5494C76.9632 77.5754 76.9709 77.6363 76.9875 77.6711C76.9913 77.7016 76.9974 77.7255 77.0034 77.7494C77.0095 77.7734 77.0156 77.7973 77.0194 77.8277C77.0277 77.8451 77.0338 77.8691 77.0398 77.893C77.0459 77.9169 77.052 77.9409 77.0603 77.9583C77.0632 77.9815 77.0637 77.9997 77.0641 78.0152C77.0648 78.0403 77.0653 78.0585 77.0756 78.08C77.0785 78.1033 77.079 78.1215 77.0795 78.137C77.0801 78.1621 77.0806 78.1803 77.0909 78.2018C77.0437 78.1176 76.9974 78.0305 76.9511 77.9435C76.8586 77.7693 76.766 77.5951 76.6655 77.4441L76.5965 77.4786L76.562 77.4959L76.5275 77.5132C76.5117 77.5078 76.5023 77.5157 76.4892 77.5266C76.4812 77.5333 76.4717 77.5412 76.4585 77.5478L76.3895 77.5823C76.3806 77.6084 76.3461 77.6257 76.3116 77.6429C76.2984 77.6495 76.289 77.6574 76.2809 77.6641C76.2678 77.675 76.2584 77.6829 76.2426 77.6775C74.7655 78.5684 73.5809 79.9383 72.5842 81.3437C71.8226 82.4802 71.1964 83.7215 70.6558 84.9631C70.2597 85.7009 69.5951 87.2203 71.0542 86.964C71.3043 86.9085 71.4833 86.7334 71.6529 86.5676C71.693 86.5284 71.7325 86.4897 71.7723 86.4533C72.3295 85.8291 73.0131 85.3356 73.7631 84.9815C74.2382 84.7337 74.7405 84.5617 75.2422 84.3898C75.8428 84.1841 76.4425 83.9787 76.9932 83.644C77.935 83.0645 78.7093 82.2236 79.2626 81.2776C80.291 82.9414 81.98 83.9292 83.8569 84.3698C84.1587 84.444 84.4709 84.4787 84.7811 84.5132C85.391 84.581 85.9929 84.648 86.4927 85.0127C86.6414 85.0859 86.8013 85.2473 86.9673 85.4149C87.2376 85.6879 87.5242 85.9773 87.806 85.9297C87.8916 85.93 87.9606 85.8954 88.0475 85.8087C88.4075 85.1789 87.8814 84.3801 87.4246 83.6865C87.2457 83.4148 87.0774 83.1593 86.9771 82.9363C85.3841 80.0883 83.0232 77.6466 80.0374 76.3592C80.0149 75.5177 79.8968 74.6841 79.7806 73.864C79.7263 73.4807 79.6725 73.1005 79.629 72.7237C79.0749 67.9315 77.509 63.2579 75.4153 58.9564C72.6165 53.7137 67.6813 48.7861 62.4738 46.0659C61.5066 45.4717 60.4781 44.9729 59.4228 44.5523C59.9264 42.9193 60.9845 41.4186 62.2763 40.3184C62.554 40.0643 62.8465 39.8411 63.139 39.6179C63.2852 39.5063 63.4314 39.3947 63.5758 39.2792C64.0703 38.8374 63.5286 38.4183 63.0764 38.3213C59.0453 37.6653 54.8276 39.217 51.7481 41.9461C51.7136 41.9633 51.6701 42.0067 51.6267 42.05C51.2601 42.0589 50.7696 42.1227 50.3947 42.1715C50.1214 42.207 49.9096 42.2345 49.852 42.227C47.7156 42.542 45.5934 43.0657 43.5784 43.8593C38.4457 45.9124 33.7422 49.6275 31.5159 54.8631C30.4629 57.1811 29.7152 59.6914 29.8146 62.2304ZM36.0411 61.6881C36.7596 61.5478 37.2283 60.8516 37.088 60.1331C36.9477 59.4146 36.2515 58.9459 35.533 59.0862C34.8145 59.2265 34.3458 59.9227 34.4861 60.6412C34.6264 61.3597 35.3226 61.8284 36.0411 61.6881Z" fill="white"/>
</g>
<defs>
<clipPath id="clip0_101_53">
<rect width="63.6254" height="45.068" fill="white" transform="matrix(-0.945795 -0.324763 -0.324763 0.945795 100 51)"/>
</clipPath>
</defs>
</svg>
