<svg width="124" height="124" viewBox="0 0 124 124" fill="none" xmlns="http://www.w3.org/2000/svg">
<circle cx="62" cy="62" r="54" fill="#37BB7E"/>
<path fill-rule="evenodd" clip-rule="evenodd" d="M62 41C52.9793 41 45.6667 48.3127 45.6667 57.3334C45.6667 65.5618 51.7513 72.3691 59.6667 73.5013V67.6332L52.1834 60.15C51.2722 59.2387 51.2722 57.7613 52.1834 56.8501C53.0946 55.9389 54.572 55.9389 55.4832 56.8501L59.6667 61.0335V52.6667C59.6667 51.378 60.7113 50.3334 62 50.3334C63.2887 50.3334 64.3333 51.378 64.3333 52.6667V61.0335L68.5168 56.8501C69.428 55.9389 70.9054 55.9389 71.8166 56.8501C72.7278 57.7613 72.7278 59.2387 71.8166 60.15L64.3333 67.6332V73.5013C72.2487 72.3691 78.3333 65.5618 78.3333 57.3334C78.3333 48.3127 71.0207 41 62 41ZM64.3333 78.2052C74.8332 77.0445 83 68.1427 83 57.3334C83 45.7354 73.598 36.3334 62 36.3334C50.402 36.3334 41 45.7354 41 57.3334C41 68.1427 49.1668 77.0445 59.6667 78.2052V83H52.6667C51.378 83 50.3333 84.0447 50.3333 85.3334C50.3333 86.622 51.378 87.6667 52.6667 87.6667H71.3333C72.622 87.6667 73.6667 86.622 73.6667 85.3334C73.6667 84.0447 72.622 83 71.3333 83H64.3333V78.2052Z" fill="white"/>
</svg>
