<svg width="124" height="124" viewBox="0 0 124 124" fill="none" xmlns="http://www.w3.org/2000/svg">
<circle cx="62" cy="62" r="54" fill="#809CDA"/>
<path d="M47 65.8125V75H77V65.8125H47Z" fill="white"/>
<path d="M77 65.8125L72.3299 54.7794C72.2317 54.5474 72.0715 54.3503 71.8688 54.212C71.6661 54.0736 71.4295 54 71.1877 54H52.8123C52.5705 54 52.3339 54.0736 52.1312 54.212C51.9285 54.3503 51.7683 54.5474 51.6701 54.7794L47 65.8125M77 65.8125V75H47V65.8125M77 65.8125C76.2 65.8125 56.6667 65.8125 47 65.8125M77 65.8125H47" stroke="white" stroke-width="3" stroke-linecap="round" stroke-linejoin="round"/>
<path d="M53 75V79.8C53 80.1183 52.8736 80.4235 52.6485 80.6485C52.4235 80.8736 52.1183 81 51.8 81H48.2C47.8817 81 47.5765 80.8736 47.3515 80.6485C47.1264 80.4235 47 80.1183 47 79.8V75" stroke="white" stroke-width="3" stroke-linecap="round" stroke-linejoin="round"/>
<path d="M77 75V79.8C77 80.1183 76.8736 80.4235 76.6485 80.6485C76.4235 80.8736 76.1183 81 75.8 81H72.2C71.8817 81 71.5765 80.8736 71.3515 80.6485C71.1264 80.4235 71 80.1183 71 79.8V75" stroke="white" stroke-width="3" stroke-linecap="round" stroke-linejoin="round"/>
<path d="M44 66H80" stroke="white" stroke-width="3" stroke-linecap="round" stroke-linejoin="round"/>
<path fill-rule="evenodd" clip-rule="evenodd" d="M62.12 34.1972L49.1113 34.0024L46 37.1024L49.1113 40.2024L51.1855 38.1357L53.1993 40.1422L55.2735 38.0755L57.4081 40.2024L62.12 40.022L62.12 34.1972Z" fill="white"/>
<path fill-rule="evenodd" clip-rule="evenodd" d="M68.2104 45.5791C63.3561 45.5791 59.4209 41.6439 59.4209 36.7896C59.4209 31.9352 63.3561 28 68.2104 28C73.0648 28 77 31.9352 77 36.7896C77 41.6439 73.0648 45.5791 68.2104 45.5791ZM70.2822 39.2687C69.0686 39.2687 68.0848 38.2849 68.0848 37.0714C68.0848 35.8578 69.0686 34.874 70.2822 34.874C71.4958 34.874 72.4796 35.8578 72.4796 37.0714C72.4796 38.2849 71.4958 39.2687 70.2822 39.2687Z" fill="white"/>
</svg>
