<svg width="124" height="124" viewBox="0 0 124 124" fill="none" xmlns="http://www.w3.org/2000/svg">
<circle cx="62" cy="62" r="54" fill="#42D4C7"/>
<path fill-rule="evenodd" clip-rule="evenodd" d="M73.7849 57.9565L66.0435 50.2151C66.4337 46.7186 69.3994 44 73 44C76.866 44 80 47.134 80 51C80 54.6006 77.2814 57.5663 73.7849 57.9565ZM73 40C66.9249 40 62 44.9249 62 51C62 51.5304 62.2107 52.0391 62.5858 52.4142L71.5858 61.4142C71.9609 61.7893 72.4696 62 73 62C79.0751 62 84 57.0751 84 51C84 44.9249 79.0751 40 73 40ZM61.4142 54.5858C61.014 54.1855 60.4629 53.9736 59.8976 54.0026C59.3323 54.0316 58.8058 54.2988 58.4486 54.7378L46.4485 69.4878L41.4383 75.7506C40.8017 76.5464 40.8652 77.6936 41.5858 78.4142L45.5858 82.4142C46.3064 83.1348 47.4536 83.1984 48.2494 82.5617L54.4994 77.5618L69.2622 65.5514C69.7013 65.1942 69.9684 64.6677 69.9974 64.1024C70.0264 63.5371 69.8145 62.986 69.4142 62.5858L61.4142 54.5858ZM50.6905 70.6121L60.1529 58.9813L65.0187 63.8472L53.3879 73.3095L50.6905 70.6121ZM48.1659 73.7443L50.2557 75.8342L47.1484 78.32L45.68 76.8516L48.1659 73.7443Z" fill="white"/>
</svg>
