<svg width="124" height="124" viewBox="0 0 124 124" fill="none" xmlns="http://www.w3.org/2000/svg">
<circle cx="62" cy="62" r="54" fill="#407CD0"/>
<path d="M59.8685 64.0165C59.8685 65.0146 59.059 65.8236 58.0615 65.8236C57.0634 65.8236 56.2539 65.0146 56.2539 64.0165C56.2539 63.0185 57.0634 62.2095 58.0615 62.2095C59.059 62.2095 59.8685 63.0185 59.8685 64.0165Z" fill="white"/>
<path d="M65.7973 45.2325C65.8539 45.2537 65.9101 45.2749 65.9667 45.303C68.3878 46.3266 70.5547 47.7875 72.4185 49.6581C74.2821 51.5218 75.7505 53.6957 76.7736 56.1167C77.8323 58.6225 78.3689 61.2838 78.3689 64.0225C78.3689 66.7612 77.8322 69.4225 76.7736 71.9282C75.75 74.3493 74.2891 76.5162 72.4185 78.3868C70.5548 80.2505 68.381 81.7188 65.9667 82.742C63.4609 83.8006 60.7996 84.3373 58.0609 84.3373C55.3222 84.3373 52.6609 83.8006 50.1552 82.742C47.7341 81.7183 45.5672 80.2574 43.7034 78.3868C41.8398 76.5232 40.3714 74.3493 39.3482 71.9282C38.2896 69.4225 37.7529 66.7612 37.7529 64.0225C37.7529 61.2838 38.2896 58.6225 39.3482 56.1167C40.3719 53.6957 41.8328 51.5287 43.7034 49.6581C45.5671 47.7945 47.7409 46.3261 50.1552 45.303C52.6609 44.2443 55.3222 43.7077 58.0609 43.7077H80.0845V37.9546H58.0609C43.6887 37.9546 32 49.6443 32 64.0155C32 74.7944 38.5787 84.0626 47.9252 88.0231C51.0455 89.3432 54.4685 90.0774 58.0614 90.0774C72.4337 90.0774 84.1224 78.3882 84.1224 64.0164C84.1224 56.8517 81.2847 50.195 76.1246 45.2324L65.7973 45.2325Z" fill="white"/>
<path d="M65.9017 48.9317C63.7327 47.7867 61.282 47.1021 58.6909 47V48.9509C58.6909 49.3346 58.3838 49.6416 58 49.6416C57.6162 49.6416 57.3091 49.3346 57.3091 48.9509V47C54.7178 47.1022 52.2672 47.7934 50.0982 48.9317L51.077 50.6206C51.2689 50.953 51.1537 51.3756 50.8212 51.5675C50.7124 51.6313 50.591 51.6634 50.4758 51.6634C50.2393 51.6634 50.0023 51.542 49.8742 51.318L48.9017 49.6291C46.7773 50.9789 44.9733 52.783 43.6233 54.9065L45.3126 55.8788C45.6451 56.0707 45.7607 56.4928 45.5683 56.8257C45.4402 57.0497 45.2099 57.1711 44.9667 57.1711C44.8515 57.1711 44.7301 57.139 44.6213 57.0814L42.932 56.1028C41.7869 58.2714 41.1021 60.7217 41 63.3124H42.9512C43.335 63.3124 43.6421 63.6194 43.6421 64.0031C43.6421 64.3869 43.335 64.6939 42.9512 64.6939H41C41.1022 67.2847 41.7935 69.7348 42.932 71.9034L44.6213 70.9249C44.9538 70.733 45.3764 70.8481 45.5683 71.1805C45.7602 71.513 45.6451 71.9355 45.3126 72.1274L43.6233 73.0997C44.9734 75.2238 46.7778 77.0274 48.9017 78.3771L49.8742 76.6882C50.0661 76.3558 50.4883 76.2402 50.8213 76.4325C51.1538 76.6244 51.2694 77.0465 51.077 77.3794L50.0983 79.0683C52.2672 80.2133 54.718 80.8979 57.3091 81V79.0491C57.3091 78.6654 57.6162 78.3584 58 78.3584C58.3838 78.3584 58.6909 78.6654 58.6909 79.0491V81C61.2883 80.8978 63.7328 80.2066 65.9017 79.0683L64.923 77.3794C64.7311 77.047 64.8462 76.6244 65.1787 76.4325C65.5112 76.2407 65.9339 76.3558 66.1258 76.6882L67.0983 78.3771C69.2227 77.0274 71.0266 75.2233 72.3767 73.0997L70.6874 72.1274C70.3549 71.9355 70.246 71.5134 70.4317 71.1805C70.6174 70.8481 71.0458 70.7392 71.3787 70.9249L73.068 71.9034C74.2131 69.7348 74.8979 67.2845 75 64.6939H73.0488C72.665 64.6939 72.3579 64.3869 72.3579 64.0031C72.3579 63.6194 72.665 63.3124 73.0488 63.3124H75C74.8978 60.7216 74.2065 58.2714 73.068 56.1028L71.3787 57.0814C71.2698 57.1452 71.1485 57.1711 71.0333 57.1711C70.7968 57.1711 70.5598 57.0497 70.4317 56.8257C70.2398 56.4933 70.3549 56.0707 70.6874 55.8788L72.3767 54.9065C71.0267 52.7825 69.2223 50.9789 67.0983 49.6291L66.1258 51.318C65.9977 51.542 65.7674 51.6634 65.5242 51.6634C65.409 51.6634 65.2877 51.6313 65.1788 51.5675C64.8463 51.3756 64.7374 50.9535 64.923 50.6206L65.9017 48.9317ZM70.5406 63.3124C70.9244 63.3124 71.2315 63.6194 71.2315 64.0031C71.2315 64.3869 70.9244 64.6939 70.5406 64.6939H60.9434C60.6301 66.0244 59.4269 67.0222 58 67.0222C56.3366 67.0222 54.9798 65.6662 54.9798 64.0026C54.9798 62.5761 55.9777 61.3735 57.3086 61.0598L57.3091 53.8702C57.3091 53.4865 57.6161 53.1795 57.9999 53.1795C58.3838 53.1795 58.6908 53.4865 58.6908 53.8702V61.0669C59.8039 61.3292 60.6804 62.2056 60.9429 63.3185L70.5406 63.3189L70.5406 63.3124Z" fill="white"/>
<path d="M81.6084 33V48.6567L91.9992 40.8284L81.6084 33Z" fill="white"/>
</svg>
