<svg width="124" height="124" viewBox="0 0 124 124" fill="none" xmlns="http://www.w3.org/2000/svg">
<circle cx="62" cy="62" r="54" fill="#59A397"/>
<path fill-rule="evenodd" clip-rule="evenodd" d="M41.7222 37C38.4085 37 35.7222 39.6863 35.7222 43V81.9167H33V86H61.5833V81.9167H57.5V70H65.0138L75.9027 61.5H67.5025L57.5 69.3081V66.3029L63.6527 61.5H57.5V43C57.5 39.6863 54.8137 37 51.5 37H41.7222ZM52.0556 45.1667H41.1667V61.5H52.0556V45.1667ZM68.8636 70H75.9027L86.6994 61.572C86.4456 61.5247 86.1839 61.5 85.9165 61.5H79.7525L68.8636 70ZM85.9165 70H79.7525L88.976 62.8001C89.7131 63.5644 90.1665 64.6043 90.1665 65.75C90.1665 68.0972 88.2637 70 85.9165 70Z" fill="white"/>
</svg>
