<svg width="124" height="124" viewBox="0 0 124 124" fill="none" xmlns="http://www.w3.org/2000/svg">
<circle cx="62" cy="62" r="54" fill="#407CD0"/>
<path d="M48.2271 39.615C48.5137 39.9016 48.9443 39.9016 49.1593 39.615L51.2383 37.536L53.3173 39.615C53.6039 39.9016 54.0345 39.9016 54.2495 39.615L56.3285 37.536L58.6945 39.902C58.8381 40.0456 58.9811 40.1171 59.1967 40.1171H62.8531C64.2155 42.6268 66.8681 44.3471 69.9514 44.3471C74.4685 44.3471 78.1249 40.6907 78.1249 36.1736C78.1249 31.6565 74.4685 28 69.9514 28C66.8686 28 64.2875 29.7209 62.8531 32.2301H49.0154C48.8719 32.2301 48.6568 32.3016 48.5133 32.4451L45.2149 35.7435C44.9284 36.03 44.9284 36.4607 45.2149 36.6757L48.2271 39.615ZM72.7478 33.8795C74.0381 33.8795 75.0424 34.8833 75.0424 36.1741C75.0424 37.4644 74.0386 38.4687 72.7478 38.4687C71.4575 38.4687 70.4532 37.465 70.4532 36.1741C70.5252 34.8833 71.529 33.8795 72.7478 33.8795Z" fill="white"/>
<path d="M75.9746 48.147H47.152C45.9332 48.147 45.001 49.1507 45.001 50.298V93.8904C45.001 95.1092 46.0047 96.0415 47.152 96.0415H75.9029C77.1217 96.0415 78.054 95.0377 78.054 93.8904V50.3697C78.1255 49.1509 77.1218 48.1472 75.9745 48.1472L75.9746 48.147ZM59.1256 53.6678C59.1256 53.3813 59.3407 53.1657 59.6277 53.1657H63.4277C63.7143 53.1657 63.9299 53.3808 63.9299 53.6678V57.2527C63.9299 57.5393 63.7148 57.7549 63.4277 57.7549H59.6277C59.3412 57.7549 59.1256 57.5398 59.1256 57.2527V53.6678ZM59.1256 63.2037C59.1256 62.9171 59.3407 62.7015 59.6277 62.7015H63.4277C63.7143 62.7015 63.9299 62.9166 63.9299 63.2037V66.7886C63.9299 67.0752 63.7148 67.2907 63.4277 67.2907H59.6277C59.3412 67.2907 59.1256 67.0757 59.1256 66.7886V63.2037ZM59.1256 72.8111C59.1256 72.5245 59.3407 72.309 59.6277 72.309H63.4277C63.7143 72.309 63.9299 72.524 63.9299 72.8111V76.396C63.9299 76.6826 63.7148 76.8981 63.4277 76.8981H59.6277C59.3412 76.8981 59.1256 76.6831 59.1256 76.396V72.8111ZM49.9483 53.6677C49.9483 53.3811 50.1633 53.1656 50.4504 53.1656H54.2504C54.537 53.1656 54.7525 53.3806 54.7525 53.6677V57.2526C54.7525 57.5392 54.5375 57.7547 54.2504 57.7547H50.4504C50.1638 57.7547 49.9483 57.5397 49.9483 57.2526V53.6677ZM49.9483 63.2035C49.9483 62.917 50.1633 62.7014 50.4504 62.7014H54.2504C54.537 62.7014 54.7525 62.9165 54.7525 63.2035V66.7884C54.7525 67.075 54.5375 67.2906 54.2504 67.2906H50.4504C50.1638 67.2906 49.9483 67.0755 49.9483 66.7884V63.2035ZM54.2499 76.8979H50.4499C50.1633 76.8979 49.9478 76.6828 49.9478 76.3957V72.8108C49.9478 72.5243 50.1628 72.3087 50.4499 72.3087H54.2499C54.5365 72.3087 54.752 72.5238 54.752 72.8108V76.3957C54.8235 76.6823 54.537 76.8979 54.2499 76.8979ZM60.9181 90.6639C60.9181 90.9505 60.703 91.166 60.4159 91.166H55.3972C55.1106 91.166 54.8951 90.951 54.8951 90.6639L54.8956 82.3468C54.8956 82.0602 55.1106 81.8447 55.3977 81.8447H60.4164C60.703 81.8447 60.9186 82.0597 60.9186 82.3468L60.9181 90.6639ZM68.303 90.6639C68.303 90.9505 68.0879 91.166 67.8008 91.166H62.7821C62.4955 91.166 62.28 90.951 62.28 90.6639L62.2805 82.3468C62.2805 82.0602 62.4955 81.8447 62.7826 81.8447H67.8013C68.0879 81.8447 68.3035 82.0597 68.3035 82.3468L68.303 90.6639ZM73.1782 76.396C73.1782 76.6826 72.9631 76.8981 72.676 76.8981H68.876C68.5895 76.8981 68.3739 76.6831 68.3739 76.396V72.8111C68.3739 72.5245 68.589 72.309 68.876 72.309H72.676C72.9626 72.309 73.1782 72.524 73.1782 72.8111V76.396ZM73.1782 66.8601C73.1782 67.1467 72.9631 67.3623 72.676 67.3623H68.876C68.5895 67.3623 68.3739 67.1472 68.3739 66.8601V63.2752C68.3739 62.9887 68.589 62.7731 68.876 62.7731H72.676C72.9626 62.7731 73.1782 62.9882 73.1782 63.2752V66.8601ZM73.1782 57.2527C73.1782 57.5393 72.9631 57.7549 72.676 57.7549H68.876C68.5895 57.7549 68.3739 57.5398 68.3739 57.2527V53.6678C68.3739 53.3813 68.589 53.1657 68.876 53.1657H72.676C72.9626 53.1657 73.1782 53.3808 73.1782 53.6678V57.2527Z" fill="white"/>
</svg>
