<svg width="124" height="124" viewBox="0 0 124 124" fill="none" xmlns="http://www.w3.org/2000/svg">
<circle cx="62" cy="62" r="54" fill="#63A9F8"/>
<path d="M42 69C42.6316 69 43.4626 68.7009 44.3041 68.2915C46.6353 67.1574 49.4333 67.0238 51.5428 68.5306C53.6109 70.0078 56.4104 69.9926 58.4784 68.5154C60.5721 67.0199 63.4279 67.0199 65.5216 68.5154C67.5896 69.9926 70.3891 70.0078 72.4572 68.5306C74.5667 67.0238 77.3647 67.1574 79.6959 68.2915C80.5374 68.7009 81.3684 69 82 69M42 77.6063C42.6316 77.6063 43.4626 77.3071 44.3041 76.8977C46.6353 75.7636 49.4333 75.6301 51.5428 77.1369C53.6109 78.6141 56.4104 78.5989 58.4784 77.1217C60.5721 75.6262 63.4279 75.6262 65.5216 77.1217C67.5896 78.5989 70.3891 78.6141 72.4572 77.1369C74.5667 75.6301 77.3647 75.7636 79.6959 76.8977C80.5374 77.3071 81.3684 77.6063 82 77.6063" stroke="white" stroke-width="3"/>
<mask id="mask0_105_643" style="mask-type:alpha" maskUnits="userSpaceOnUse" x="42" y="40" width="40" height="23">
<path d="M44.3041 60.8977C43.4626 61.3071 42.6316 61.6062 42 61.6062V40H82V61.6062C81.3684 61.6062 80.5374 61.3071 79.6959 60.8977C77.3647 59.7636 74.5667 59.63 72.4572 61.1368C70.3891 62.614 67.5896 62.5988 65.5216 61.1216C63.4279 59.6261 60.5721 59.6261 58.4784 61.1216C56.4104 62.5988 53.6109 62.614 51.5428 61.1368C49.4333 59.63 46.6353 59.7636 44.3041 60.8977Z" fill="white"/>
</mask>
<g mask="url(#mask0_105_643)">
<path d="M70.0001 62C67 62 65 58.9999 62 58.9999C59 58.9999 57 61.9999 53.0001 62L57.5001 58L62.0001 54L66.0001 58L70.0001 62Z" fill="white"/>
<path d="M62.0001 54L58.2999 50.2998C56.7223 48.7221 54.799 47.5527 52.6969 46.8749C51.1885 46.3885 49.5849 46.34 48 46.34M62.0001 54L57.5001 58L53.0001 62C57 61.9999 59 58.9999 62 58.9999C65 58.9999 67 62 70.0001 62L66.0001 58L62.0001 54Z" stroke="white" stroke-width="3"/>
</g>
<path d="M75.4 49C75.4 51.4301 73.4301 53.4 71 53.4C68.5699 53.4 66.6 51.4301 66.6 49C66.6 46.5699 68.5699 44.6 71 44.6C73.4301 44.6 75.4 46.5699 75.4 49Z" fill="white" stroke="white" stroke-width="1.2"/>
</svg>
