<svg width="124" height="124" viewBox="0 0 124 124" fill="none" xmlns="http://www.w3.org/2000/svg">
<circle cx="62" cy="62" r="54" fill="#C5A079"/>
<path d="M42.6787 42.4454C42.6787 41.6613 43.5399 41.1822 44.2061 41.5957L49.5881 44.9363C50.2006 45.3164 50.2219 46.2 49.6285 46.6092L42.6787 51.4021V42.4454Z" fill="white"/>
<path d="M42.6787 57.0624V51.4021M42.6787 51.4021V42.4454C42.6787 41.6613 43.5399 41.1822 44.2061 41.5957L49.5881 44.9363C50.2006 45.3164 50.2219 46.2 49.6285 46.6092L42.6787 51.4021Z" stroke="white" stroke-width="3" stroke-linecap="round"/>
<path d="M78.2441 42.4454C78.2441 41.6613 79.1054 41.1822 79.7715 41.5957L85.1536 44.9363C85.766 45.3164 85.7873 46.2 85.1939 46.6092L78.2441 51.4021V42.4454Z" fill="white"/>
<path d="M78.2441 57.0624V51.4021M78.2441 51.4021V42.4454C78.2441 41.6613 79.1054 41.1822 79.7715 41.5957L85.1536 44.9363C85.766 45.3164 85.7873 46.2 85.1939 46.6092L78.2441 51.4021Z" stroke="white" stroke-width="3" stroke-linecap="round"/>
<path d="M60.9175 38.8507C60.9175 38.0556 61.8005 37.5785 62.4655 38.0142L67.9142 41.5841C68.4992 41.9674 68.5202 42.8174 67.9547 43.229L60.9175 48.3519V38.8507Z" fill="white"/>
<path d="M60.9175 54.3266V48.3519M60.9175 48.3519V38.8507C60.9175 38.0556 61.8005 37.5785 62.4655 38.0142L67.9142 41.5841C68.4992 41.9674 68.5202 42.8174 67.9547 43.229L60.9175 48.3519Z" stroke="white" stroke-width="3" stroke-linecap="round"/>
<path fill-rule="evenodd" clip-rule="evenodd" d="M95.5706 62.5339C74.3548 71.834 50.2158 71.834 29 62.5339L31.2566 74.8588L36.4348 75.9978L38.1192 84.4201C54.6107 88.3181 71.7837 88.3181 88.2752 84.4201L90.0436 75.5782L93.314 74.8588L95.5706 62.5339Z" fill="white"/>
<path fill-rule="evenodd" clip-rule="evenodd" d="M62.2853 71.6531C80.6683 71.6531 95.5706 67.7744 95.5706 62.9898C95.5706 62.2457 95.2102 61.5236 94.5323 60.8345L84.3136 65.2774C84.0004 65.4135 83.6662 65.4344 83.3583 65.3587C79.5976 66.9214 71.3718 68.0054 61.8293 68.0054C52.3755 68.0054 44.214 66.9414 40.4064 65.4021C40.2041 65.4032 39.9984 65.3632 39.801 65.2774L29.9051 60.9748C29.3133 61.6214 29 62.2961 29 62.9898C29 67.7744 43.9023 71.6531 62.2853 71.6531ZM84.3248 62.0012C81.183 60.1911 72.2986 58.8862 61.8293 58.8862C51.5751 58.8862 42.8413 60.138 39.5347 61.8903L32.8044 58.9641C38.3738 56.2069 49.4859 54.3265 62.2853 54.3265C74.922 54.3265 85.9139 56.1594 91.5511 58.8594L84.3248 62.0012Z" fill="white"/>
</svg>
