<svg width="124" height="124" viewBox="0 0 124 124" fill="none" xmlns="http://www.w3.org/2000/svg">
<circle cx="62" cy="62" r="54" fill="#A874D6"/>
<path fill-rule="evenodd" clip-rule="evenodd" d="M51.9 32.6001C52.3971 31.9373 53.3373 31.803 54 32.3001C56.2498 33.9874 60.4239 35.398 72.6387 34.8686C73.4082 34.8003 73.9355 34.8001 74.1 34.8001L74.1788 37.798C73.7235 37.822 73.2774 37.8435 72.8403 37.8628C71.883 37.9513 70.4887 38.1651 68.9876 38.6811C66.4363 39.5581 63.6917 41.2632 62.1656 44.6208C61.8227 45.375 60.9335 45.7084 60.1793 45.3656C59.4251 45.0228 59.0916 44.1336 59.4345 43.3794C60.56 40.9031 62.1999 39.1415 63.9668 37.8903C57.7446 37.5644 54.4617 36.3964 52.2 34.7001C51.5373 34.203 51.4029 33.2628 51.9 32.6001ZM48.2 51.0001C48.2 54.0929 45.6928 56.6001 42.6 56.6001C39.5072 56.6001 37 54.0929 37 51.0001C37 47.9073 39.5072 45.4001 42.6 45.4001C45.6928 45.4001 48.2 47.9073 48.2 51.0001ZM60.8 51.0001C60.8 54.0929 58.2928 56.6001 55.2 56.6001C52.1072 56.6001 49.6 54.0929 49.6 51.0001C49.6 47.9073 52.1072 45.4001 55.2 45.4001C58.2928 45.4001 60.8 47.9073 60.8 51.0001ZM59.4 67.8001C62.4928 67.8001 65 65.2929 65 62.2001C65 59.1073 62.4928 56.6001 59.4 56.6001C56.3072 56.6001 53.8 59.1073 53.8 62.2001C53.8 65.2929 56.3072 67.8001 59.4 67.8001ZM59.4 73.4001C59.4 76.4929 56.8928 79.0001 53.8 79.0001C50.7072 79.0001 48.2 76.4929 48.2 73.4001C48.2 70.3073 50.7072 67.8001 53.8 67.8001C56.8928 67.8001 59.4 70.3073 59.4 73.4001ZM46.8 67.8001C49.8928 67.8001 52.4 65.2929 52.4 62.2001C52.4 59.1073 49.8928 56.6001 46.8 56.6001C43.7072 56.6001 41.2 59.1073 41.2 62.2001C41.2 65.2929 43.7072 67.8001 46.8 67.8001ZM73.4 51.0001C73.4 54.0929 70.8928 56.6001 67.8 56.6001C64.7072 56.6001 62.2 54.0929 62.2 51.0001C62.2 47.9073 64.7072 45.4001 67.8 45.4001C70.8928 45.4001 73.4 47.9073 73.4 51.0001ZM72 67.8001C75.0928 67.8001 77.6 65.2929 77.6 62.2001C77.6 59.1073 75.0928 56.6001 72 56.6001C68.9072 56.6001 66.4 59.1073 66.4 62.2001C66.4 65.2929 68.9072 67.8001 72 67.8001ZM72 73.4001C72 76.4929 69.4928 79.0001 66.4 79.0001C63.3072 79.0001 60.8 76.4929 60.8 73.4001C60.8 70.3073 63.3072 67.8001 66.4 67.8001C69.4928 67.8001 72 70.3073 72 73.4001ZM60.8 91.6001C63.8928 91.6001 66.4 89.0929 66.4 86.0001C66.4 82.9073 63.8928 80.4001 60.8 80.4001C57.7072 80.4001 55.2 82.9073 55.2 86.0001C55.2 89.0929 57.7072 91.6001 60.8 91.6001ZM80.4 56.6001C83.4928 56.6001 86 54.0929 86 51.0001C86 47.9073 83.4928 45.4001 80.4 45.4001C77.3072 45.4001 74.8 47.9073 74.8 51.0001C74.8 54.0929 77.3072 56.6001 80.4 56.6001Z" fill="white"/>
</svg>
