<svg width="124" height="124" viewBox="0 0 124 124" fill="none" xmlns="http://www.w3.org/2000/svg">
<circle cx="62" cy="62" r="54" fill="#407CD0"/>
<path fill-rule="evenodd" clip-rule="evenodd" d="M34.7759 39.3159H45.9876C49.0282 39.3159 50.1658 40.9865 51.0756 43.8874L54.1589 53.7095C54.5234 53.3886 55.0014 53.1935 55.5225 53.1935H58.6632C59.8012 53.1935 60.7319 54.1234 60.7319 55.2614C60.7319 56.3994 59.802 57.3305 58.6632 57.3305H56.2961L58.9967 60.6132C60.4577 62.3883 60.3923 64.6691 60.3923 66.9697V74.5308C60.3923 77.5714 59.0723 78.644 56.0342 78.644H34.7766C34.3492 78.644 34.0006 78.2958 34.0006 77.8685V55.9828C34.0006 55.5555 34.3492 55.2069 34.7766 55.2069H48.0012C48.882 55.2069 49.9144 54.6739 49.4569 52.9328L47.2188 44.4035C46.9909 43.5397 46.5905 42.7792 45.2138 42.7792H34.776C34.3486 42.7792 34 42.431 34 42.0032V40.0924C34 39.6647 34.3486 39.3165 34.776 39.3165L34.7759 39.3159ZM83.9686 86.3348H74.1157C73.5119 86.3348 73.0228 86.8235 73.0228 87.4269V88.5599C73.0228 88.8016 73.2195 88.9999 73.4628 88.9999H84.6219C84.8637 88.9999 85.0619 88.802 85.0619 88.5599V87.4269C85.0619 86.8243 84.5717 86.3348 83.9686 86.3348ZM76.5781 58.7295H81.9976C82.328 58.7295 82.6003 58.9558 82.6003 59.232V84.5213C82.6003 84.7979 82.3288 85.0238 81.9976 85.0238H76.5781C76.2458 85.0238 75.9763 84.7975 75.9763 84.5213V59.232C75.9763 58.955 76.2458 58.7295 76.5781 58.7295ZM48.6693 80.5482H54.6895C55.3155 80.5482 55.8263 81.0979 55.8263 81.7717V86.5518C55.8263 87.8992 54.8038 89 53.5534 89H49.8053C48.5549 89 47.5324 87.8992 47.5324 86.5518V81.7717C47.5324 81.0982 48.0432 80.5482 48.6693 80.5482ZM51.3346 64.8935C53.6214 64.8935 55.4748 66.7457 55.4748 69.0325C55.4748 71.3192 53.621 73.1723 51.3346 73.1723C49.0487 73.1723 47.1949 71.32 47.1949 69.0325C47.1949 66.7457 49.0487 64.8935 51.3346 64.8935Z" fill="white"/>
<path fill-rule="evenodd" clip-rule="evenodd" d="M79.2507 56.513C84.9152 56.513 89.5072 51.921 89.5072 46.2565C89.5072 40.592 84.9152 36 79.2507 36C73.5861 36 68.9941 40.592 68.9941 46.2565C68.9941 51.921 73.5861 56.513 79.2507 56.513ZM80.2757 39.9512C80.2757 39.3847 79.8165 38.9255 79.25 38.9255C78.6835 38.9255 78.2243 39.3847 78.2243 39.9512V47.2447V48.2703H79.25H84.2643C84.8307 48.2703 85.2899 47.8111 85.2899 47.2447C85.2899 46.6782 84.8307 46.219 84.2643 46.219H80.2757V39.9512Z" fill="white"/>
</svg>
