<svg width="124" height="124" viewBox="0 0 124 124" fill="none" xmlns="http://www.w3.org/2000/svg">
<circle cx="62" cy="62" r="54" fill="#C5A079"/>
<path d="M55.3636 67.6361C55.3636 66.5064 54.4478 65.5906 53.3182 65.5906C52.1885 65.5906 51.2727 66.5064 51.2727 67.6361V73.7724C51.2727 74.902 52.1885 75.8178 53.3182 75.8178C54.4478 75.8178 55.3636 74.902 55.3636 73.7724V67.6361Z" fill="white"/>
<path d="M63.5454 67.6361C63.5454 66.5064 62.6297 65.5906 61.5 65.5906C60.3703 65.5906 59.4545 66.5064 59.4545 67.6361V73.7724C59.4545 74.902 60.3703 75.8178 61.5 75.8178C62.6297 75.8178 63.5454 74.902 63.5454 73.7724V67.6361Z" fill="white"/>
<path d="M69.6818 65.5906C70.8115 65.5906 71.7272 66.5064 71.7272 67.6361V73.7724C71.7272 74.902 70.8115 75.8178 69.6818 75.8178C68.5521 75.8178 67.6363 74.902 67.6363 73.7724V67.6361C67.6363 66.5064 68.5521 65.5906 69.6818 65.5906Z" fill="white"/>
<path fill-rule="evenodd" clip-rule="evenodd" d="M63.5454 41.0454C63.5454 39.9158 64.4612 39 65.5909 39H73.7727C74.9024 39 75.8182 39.9158 75.8182 41.0454V47.1813C78.2992 49.0449 79.9091 52.0152 79.9091 55.3635V57.4094H81.9545C82.5611 57.4094 83.1363 57.6785 83.5249 58.1442C83.9136 58.6098 84.0755 59.224 83.967 59.8207L80.4868 78.9614C79.9563 81.8791 77.4151 84 74.4494 84H48.5506C45.5849 84 43.0437 81.8791 42.5132 78.9614L39.033 59.8207C38.9245 59.224 39.0864 58.6098 39.4751 58.1442C39.8637 57.6785 40.4389 57.4094 41.0455 57.4094H42.5166L41.1065 51.7691C40.8326 50.6732 41.4989 49.5627 42.5948 49.2887L54.8675 46.2205C55.947 45.9507 57.0442 46.5932 57.337 47.6667L59.4545 55.4308V55.3635C59.4545 52.0152 61.0643 49.0449 63.5454 47.1813V41.0454ZM75.8182 55.3635V57.4094H63.5454V55.3635C63.5454 53.0947 64.7756 51.1109 66.6151 50.0468C67.5156 49.5259 68.5607 49.2272 69.6818 49.2272C70.8029 49.2272 71.848 49.5259 72.7485 50.0468C74.588 51.1109 75.8182 53.0947 75.8182 55.3635ZM67.6363 45.3413C68.2978 45.2068 68.982 45.1363 69.6818 45.1363C70.3816 45.1363 71.0658 45.2068 71.7272 45.3413V43.0909H67.6363V45.3413ZM43.4964 61.5002L46.5381 78.2296C46.7149 79.2022 47.562 79.9091 48.5506 79.9091H74.4494C75.438 79.9091 76.2851 79.2022 76.4619 78.2296L79.5036 61.5002H43.4964ZM46.7334 57.4094L45.5714 52.7613L53.9171 50.6749L55.7538 57.4094H46.7334Z" fill="white"/>
</svg>
