<svg width="124" height="124" viewBox="0 0 124 124" fill="none" xmlns="http://www.w3.org/2000/svg">
<circle cx="62" cy="62" r="54" fill="#C5A079"/>
<path d="M60.6729 54.5915L62.9917 53.2666L60.6729 51.9414V54.5915Z" fill="white"/>
<path d="M69.0362 57.8209V48.7944C63.9846 47.635 58.7676 47.635 53.7158 48.7944V57.7382C58.7674 58.9804 63.9844 58.9804 69.0362 57.8209V57.8209ZM59.4301 56.7446C59.1816 56.5788 59.0161 56.3306 59.0161 56.082V50.5336C59.0161 50.285 59.1816 49.9541 59.4301 49.7882C59.6787 49.6228 60.0097 49.6228 60.2582 49.7882L65.1443 52.5211C65.3929 52.6865 65.5584 52.9351 65.5584 53.2664C65.5584 53.5977 65.3929 53.8459 65.1443 54.0118L60.2582 56.7446C60.0097 56.91 59.6783 56.91 59.4301 56.7446V56.7446Z" fill="white"/>
<path d="M45.3525 65.3578H77.4836C77.9804 65.3578 78.3117 65.0265 78.3117 64.5297V42.0874C78.3117 41.5906 77.9804 41.2593 77.4836 41.2593H45.3525C44.8557 41.2593 44.5244 41.5906 44.5244 42.0874V64.5297C44.5244 64.9441 44.8553 65.3581 45.3525 65.3581V65.3578ZM52.0603 48.1332C52.0603 47.7191 52.3089 47.3878 52.7229 47.3051C58.4372 45.8144 64.3999 45.8144 70.1134 47.3051C70.5275 47.3878 70.776 47.7191 70.776 48.1332V58.4018C70.776 58.7331 70.5275 59.0644 70.1134 59.2298C67.2978 59.9752 64.3164 60.3065 61.4182 60.3065C58.5199 60.3065 55.5385 59.9752 52.7229 59.2298C52.3916 59.1471 52.0603 58.8158 52.0603 58.4018V48.1332Z" fill="white"/>
<path d="M35.4148 70.4915C35.5802 70.5742 35.6634 70.5742 35.8288 70.5742C35.9943 70.5742 36.0774 70.5742 36.2429 70.4915L43.6959 66.3507C43.1992 65.9366 42.8679 65.1913 42.8679 64.4459V42.0865C42.8679 41.3412 43.1992 40.6785 43.6959 40.1817L36.2429 36.1241C35.9943 35.9586 35.6634 35.9586 35.4148 36.1241C35.1666 36.2896 35.0007 36.5381 35.0007 36.8694V69.8292C35.0007 70.0778 35.1666 70.326 35.4148 70.4918V70.4915Z" fill="white"/>
<path d="M79.1399 66.3513L86.593 70.4921C86.7584 70.5748 86.8416 70.5748 87.007 70.5748C87.1725 70.5748 87.2556 70.5748 87.4211 70.4921C87.6696 70.3266 87.8351 70.078 87.8351 69.7467V36.8699C87.8351 36.6214 87.6696 36.2904 87.4211 36.1246C87.1725 35.9591 86.8416 35.9591 86.593 36.1246L79.1399 40.2654C79.6367 40.7622 79.968 41.4248 79.968 42.0874V64.5297C79.968 65.2747 79.6367 65.9373 79.1399 66.3513V66.3513Z" fill="white"/>
<path d="M52.2253 72.6444C52.2253 74.4664 53.716 75.9568 55.5377 75.9568C57.3597 75.9568 58.8501 74.4661 58.8501 72.6444C58.8501 70.8224 57.3594 69.332 55.5377 69.332C53.6333 69.332 52.2253 70.8227 52.2253 72.6444Z" fill="white"/>
<path d="M64.1504 72.6444C64.1504 74.4664 65.641 75.9568 67.4628 75.9568C69.2848 75.9568 70.7751 74.4661 70.7751 72.6444C70.7751 70.8224 69.2845 69.332 67.4628 69.332C65.6411 69.332 64.1504 70.8227 64.1504 72.6444Z" fill="white"/>
<path d="M40.2175 72.6444C40.2175 74.4664 41.7082 75.9568 43.5299 75.9568C45.3519 75.9568 46.8423 74.4661 46.8423 72.6444C46.8423 70.8224 45.3516 69.332 43.5299 69.332C41.7082 69.332 40.2175 70.8227 40.2175 72.6444Z" fill="white"/>
<path d="M87.1724 83.9075H84.8536V79.1045C84.8536 77.6965 83.6942 76.5371 82.2862 76.5371H76.6552C75.2472 76.5371 74.0878 77.6965 74.0878 79.1045V83.9075H72.9284V79.1045C72.9284 77.6965 71.769 76.5371 70.361 76.5371H64.7299C63.3219 76.5371 62.1625 77.6965 62.1625 79.1045L62.1629 83.9075H61.0035V79.1045C61.0035 77.6965 59.8441 76.5371 58.4361 76.5371H52.805C51.3971 76.5371 50.2377 77.6965 50.2377 79.1045V83.9075H49.0783V79.1045C49.0783 77.6965 47.9189 76.5371 46.5109 76.5371H40.7143C39.3063 76.5371 38.1469 77.6965 38.1469 79.1045V83.9075H35.8281C35.414 83.9075 35 84.2388 35 84.7356V87.9652C35 88.462 35.414 88.7933 35.8281 88.7933H87.1719C87.6687 88.7933 88 88.462 88 87.9652V84.7356C88 84.2388 87.6687 83.9075 87.1719 83.9075H87.1724Z" fill="white"/>
<path d="M76.1582 72.6444C76.1582 74.4664 77.6489 75.9568 79.4706 75.9568C81.2926 75.9568 82.783 74.4661 82.783 72.6444C82.783 70.8224 81.2923 69.332 79.4706 69.332C77.6486 69.332 76.1582 70.8227 76.1582 72.6444Z" fill="white"/>
</svg>
