<svg width="124" height="124" viewBox="0 0 124 124" fill="none" xmlns="http://www.w3.org/2000/svg">
<circle cx="62" cy="62" r="54" fill="#FFB831"/>
<path fill-rule="evenodd" clip-rule="evenodd" d="M66.1539 50.986C68.334 48.9682 70.3078 45.729 70.3078 42.0769C70.3078 35.1538 68.9232 31 62.0001 31C55.077 31 53.6924 35.1538 53.6924 42.0769C53.6924 45.7289 55.6661 48.9682 57.8462 50.986V55.9231H66.1539V50.986Z" fill="white"/>
<path fill-rule="evenodd" clip-rule="evenodd" d="M44 65.2546C44 63.7327 44.6932 62.2936 45.8832 61.3449L57.0741 52.4235C57.6054 51.9999 58.2647 51.7693 58.9442 51.7693H64.4604C65.1177 51.7693 65.7568 51.9852 66.2795 52.3837L78.0318 61.3454C79.2721 62.2912 80 63.7616 80 65.3213V92.3077C80 92.86 79.5523 93.3077 79 93.3077H45C44.4477 93.3077 44 92.86 44 92.3077V65.2546ZM64.7692 72.5385C64.7692 74.068 63.5294 75.3078 62 75.3078C60.4706 75.3078 59.2308 74.068 59.2308 72.5385C59.2308 71.0091 60.4706 69.7693 62 69.7693C63.5294 69.7693 64.7692 71.0091 64.7692 72.5385ZM70.4615 72.5385C70.4615 77.2117 66.6732 81.0001 62 81.0001C57.3268 81.0001 53.5385 77.2117 53.5385 72.5385C53.5385 67.8654 57.3268 64.077 62 64.077C66.6732 64.077 70.4615 67.8654 70.4615 72.5385ZM74.4615 72.5385C74.4615 79.4209 68.8823 85.0001 62 85.0001C55.1177 85.0001 49.5385 79.4209 49.5385 72.5385C49.5385 65.6562 55.1177 60.077 62 60.077C68.8823 60.077 74.4615 65.6562 74.4615 72.5385Z" fill="white"/>
</svg>
