<svg width="124" height="124" viewBox="0 0 124 124" fill="none" xmlns="http://www.w3.org/2000/svg">
<circle cx="62" cy="62" r="54" fill="#485475"/>
<path fill-rule="evenodd" clip-rule="evenodd" d="M69.3994 24.4027C68.6184 23.6216 67.352 23.6216 66.571 24.4027L25.8676 65.1061C25.0865 65.8872 25.0865 67.1535 25.8676 67.9345L45.7514 87.8184C46.5325 88.5994 47.7988 88.5994 48.5798 87.8184L57.6746 78.7236C57.5597 78.5895 57.4815 78.4261 57.4499 78.2495L57.2342 77.044L44.2022 68.6255L70.5656 42.2621L79.3136 54.9646L80.5191 55.1803C80.6957 55.2119 80.8591 55.2901 80.9932 55.405L89.2833 47.115C90.0643 46.3339 90.0643 45.0676 89.2833 44.2865L69.3994 24.4027Z" fill="white"/>
<path d="M47.7887 67.9907L70.2959 45.4836L78.9322 57.496L80.0514 57.7605C80.2803 57.8146 80.4828 57.9477 80.6234 58.1364L84.8553 63.8186C85.1338 64.1926 85.1169 64.7094 84.8144 65.0644L83.0403 67.1469C80.3738 70.2768 80.5142 74.9185 83.365 77.8815L90.3797 85.1723C91.8454 86.6957 92.7822 88.6501 93.0519 90.7467C90.9552 90.4771 89.0008 89.5402 87.4775 88.0746L80.1707 81.0445C77.2144 78.2001 72.5856 78.0531 69.4546 80.704L67.6506 82.2314C67.2955 82.532 66.7801 82.5481 66.4071 82.2703L60.7228 78.0369C60.5342 77.8964 60.4011 77.6938 60.347 77.4649L60.0824 76.3457L47.7887 67.9907Z" fill="white"/>
</svg>
