<svg width="124" height="124" viewBox="0 0 124 124" fill="none" xmlns="http://www.w3.org/2000/svg">
<circle cx="62" cy="62" r="54" fill="#595BA3"/>
<path d="M58.5924 90.4705C58.0154 90.4705 57.5488 90.0026 57.5488 89.427V42.0435C57.5488 41.4666 58.0161 41 58.5924 41C59.1693 41 59.6359 41.4672 59.6359 42.0435V89.427C59.6366 90.0026 59.1693 90.4705 58.5924 90.4705Z" fill="white"/>
<path d="M92.0635 45.9457C92.0635 48.1315 90.2911 49.9031 88.1053 49.9031C85.9196 49.9031 84.1479 48.1315 84.1479 45.9457C84.1479 43.7599 85.9196 41.9883 88.1053 41.9883C90.2911 41.9883 92.0635 43.7599 92.0635 45.9457Z" fill="white"/>
<path d="M90.2861 82.6272C90.0597 82.5802 89.8251 82.5547 89.5842 82.5547C87.6772 82.5547 86.1265 84.1083 86.1265 86.0167C86.1265 87.9265 87.678 89.4806 89.5842 89.4806C89.587 89.4806 89.5904 89.4799 89.5932 89.4799H89.5959C91.5029 89.4799 93.053 87.9277 93.053 86.0186C93.0523 84.3463 91.8624 82.9487 90.2861 82.6271L90.2861 82.6272ZM89.5842 87.0975C88.9893 87.0975 88.5054 86.6137 88.5054 86.0173C88.5054 85.4224 88.9893 84.9386 89.5842 84.9386C90.1777 84.9386 90.6609 85.4224 90.6609 86.0173C90.6609 86.6137 90.1784 87.0975 89.5842 87.0975Z" fill="white"/>
<path d="M97.9103 80.1259C97.5811 79.0582 96.4499 78.4584 95.3821 78.7883C95.3821 78.7883 95.1957 78.8449 95.1495 78.8587C94.1936 76.2305 91.346 68.4025 91.346 68.4025C91.0796 67.6682 90.4129 67.1526 89.6351 67.0794C89.6351 67.0794 85.975 66.7343 83.5311 66.5038C83.7941 65.441 84.2323 63.6693 84.7092 61.743L84.8935 62.6948C85.0744 63.6286 85.8701 64.3188 86.8212 64.3636L94.2094 64.7149C94.2433 64.717 94.2757 64.717 94.3081 64.717C95.4034 64.717 96.3144 63.8564 96.3683 62.7521C96.4228 61.614 95.5442 60.6478 94.4055 60.5932L88.6371 60.3192L86.9917 51.8266C86.7984 50.8355 85.9281 50.1522 84.9563 50.1578L82.2749 49.734C82.268 49.7333 82.2618 49.7333 82.2549 49.7319C82.2204 49.7271 82.1865 49.7243 82.152 49.7202C82.1217 49.7181 82.0906 49.714 82.0609 49.7126C82.0285 49.7119 81.9947 49.7119 81.9622 49.7119C81.9305 49.7119 81.8987 49.7119 81.8663 49.7126C81.8346 49.7133 81.8028 49.7174 81.7724 49.7195C81.74 49.7223 81.7062 49.7257 81.6744 49.7305C81.6441 49.7354 81.6123 49.7416 81.5813 49.7471C81.5495 49.7533 81.5178 49.7588 81.4853 49.7671C81.455 49.774 81.4239 49.7837 81.3935 49.792C81.3618 49.8016 81.33 49.8106 81.2997 49.8217C81.27 49.8327 81.2424 49.8437 81.2134 49.8541C81.181 49.8672 81.1478 49.8796 81.1168 49.8955C81.0912 49.9072 81.0636 49.9203 81.0374 49.9328C81.005 49.9507 80.9712 49.9687 80.9387 49.988C80.9249 49.9949 80.9097 50.0018 80.8959 50.0108L73.411 54.6295C72.8975 54.947 72.551 55.4763 72.4689 56.072L71.052 66.2791C70.5178 66.5144 70.0084 66.7919 69.517 67.0983C69.5163 67.099 69.515 67.099 69.5129 67.1004C69.2727 67.2508 69.0387 67.4082 68.8103 67.5745C68.7965 67.5842 68.7827 67.5952 68.7689 67.6049C68.1187 68.0818 67.519 68.6209 66.9771 69.2158C66.9267 69.2703 66.8763 69.3248 66.828 69.38C66.6727 69.556 66.5223 69.7362 66.3767 69.9211C66.3214 69.9922 66.269 70.0654 66.2145 70.1379C65.957 70.4823 65.7189 70.8384 65.498 71.2097C65.4532 71.2849 65.4049 71.3581 65.3614 71.434C65.2655 71.6045 65.1771 71.7791 65.0901 71.9544C65.0218 72.0897 64.9549 72.2277 64.8914 72.3657C64.8155 72.5328 64.7423 72.7005 64.6726 72.8703C64.6015 73.0476 64.538 73.2285 64.4745 73.4093C64.4082 73.6012 64.3427 73.7944 64.2854 73.9904C64.2102 74.2486 64.1412 74.5101 64.0839 74.7752C64.0535 74.9167 64.0287 75.0588 64.0024 75.2024C63.9617 75.4253 63.9272 75.6496 63.8996 75.8774C63.883 76.0127 63.8658 76.1486 63.8534 76.286C63.8244 76.6076 63.8071 76.9334 63.8037 77.2619C63.8037 77.2964 63.7988 77.3288 63.7988 77.364C63.7988 77.7823 63.8209 78.1964 63.8623 78.605C64.4828 84.7047 69.6474 89.4808 75.908 89.4808H75.9101H75.917C82.5966 89.4808 88.0316 84.0456 88.0316 77.3655C88.0316 75.2543 87.4864 73.2692 86.5325 71.5397C87.2758 71.5079 87.8604 71.4844 88.1593 71.4713C89.0703 73.9808 92.005 82.0497 92.005 82.0497C92.3742 83.0628 93.4716 83.6088 94.5014 83.2927L96.5734 82.6563C97.639 82.3257 98.2388 81.1938 97.9103 80.1262L97.9103 80.1259ZM76.3458 57.572C76.8069 57.2883 77.7904 56.6803 78.865 56.0177L76.6681 65.2896C76.4176 65.2738 76.1691 65.251 75.9151 65.251C75.6984 65.251 75.4879 65.2717 75.2733 65.2834C75.6591 62.522 76.2071 58.577 76.3458 57.572L76.3458 57.572ZM75.9166 86.5343C70.8618 86.5343 66.7482 82.4223 66.7482 77.3659C66.7482 73.8977 68.6848 70.8755 71.5318 69.3191C71.8216 69.5814 72.186 69.7663 72.6022 69.8236C73.6492 69.9693 74.6106 69.2805 74.8426 68.2694C75.196 68.2279 75.5528 68.201 75.9158 68.201C80.9699 68.201 85.0828 72.3125 85.0828 77.3673C85.0835 82.4221 80.9708 86.5343 75.9165 86.5343L75.9166 86.5343Z" fill="white"/>
<path fill-rule="evenodd" clip-rule="evenodd" d="M42.9408 51.0095C45.7044 51.0095 47.9451 48.7679 47.9451 46.0043C47.9451 43.2412 45.7048 41.0004 42.9408 41C40.1763 41 37.9356 43.2412 37.9356 46.0043C37.9356 48.7688 40.1763 51.0095 42.9408 51.0095ZM40.6476 55.042C45.6214 52.6751 49.6767 52.3754 49.6767 52.3754C49.7192 52.6598 49.7839 52.976 49.8539 53.3181C50.3675 55.8279 51.1661 59.7311 45.5872 62.6856C36.6264 67.4305 37.1089 74.8371 37.1089 74.8371C35.7406 70.6668 34.8588 67.3477 35.0186 64.6342C35.2267 61.0892 36.2687 57.1278 40.6476 55.042ZM42.9871 67.1644C46.535 63.9896 49.7944 62.0343 49.7944 62.0343C49.8106 62.4107 49.8279 62.771 49.8445 63.1173C50.082 68.0719 50.181 70.1357 45.0587 74.91C42.494 77.3007 43.9158 83.2002 44.5404 85.7915C44.6386 86.1989 44.7171 86.5246 44.7573 86.7419C44.7949 86.9479 45.408 88.9017 45.5284 89.2311C45.7652 89.8831 43.6913 91.0677 43.1584 90.0606C42.9702 89.7051 42.7629 89.3784 42.5119 88.983C42.1606 88.4294 41.7238 87.7412 41.1346 86.6508C37.0962 79.1748 37.9961 75.9384 38.7561 73.9292C38.8805 73.6003 38.9935 73.2937 39.0999 73.0052C39.9744 70.6329 40.3994 69.4803 42.9871 67.1644Z" fill="white"/>
</svg>
