<svg width="124" height="124" viewBox="0 0 124 124" fill="none" xmlns="http://www.w3.org/2000/svg">
<circle cx="62" cy="62" r="54" fill="#C5A079"/>
<path fill-rule="evenodd" clip-rule="evenodd" d="M49.2215 45.9487C48.0004 42.1067 52.1858 39.9185 53.0598 39.4616L53.1 39.4406C54.3411 38.4643 57.7542 37.4068 61.2448 37C64.3476 37 69.2345 37.0814 73.2681 39.0338C77.3017 40.9862 77.2759 44.1861 76.7588 45.542C74.9488 51.7789 71.0962 65.0664 70.1653 68.3205C69.2345 71.5746 65.1233 72.1169 63.1841 71.9813C58.5299 71.9813 57.1765 71.4249 56.5906 69.5408C54.6514 63.3038 50.4626 49.8536 49.2215 45.9487ZM33.82 55.3387C32.9407 54.3379 32.9282 52.8438 33.7905 51.8284L33.8754 51.7285C36.5275 48.6056 40.0592 46.3544 44.0098 45.2686C45.704 44.8029 47.4649 45.7517 48.0079 47.4227L54.4367 67.2085C55.0037 68.9535 54.3074 70.8601 52.7493 71.829C51.0925 72.8593 48.9336 72.5401 47.6458 71.0744L33.82 55.3387ZM91.4457 51.5703C92.384 52.6236 92.3797 54.2141 91.4357 55.2623L79.4859 68.5305C78.1935 69.9655 76.0566 70.2638 74.4206 69.2377C72.9107 68.2907 72.2158 66.4544 72.7205 64.7451L77.7723 47.6343C78.2955 45.8622 80.1638 44.8573 81.9307 45.3976C85.5407 46.5014 88.7779 48.5759 91.289 51.3945L91.4457 51.5703ZM95.007 78.938C99.6845 71.9773 94.7191 64.0055 91.384 59.9032C91.0086 59.4415 90.3154 59.4318 89.9103 59.8676L81.4806 68.9371C80.8942 69.5681 81.334 70.6451 82.1537 70.91C84.1588 71.558 85.5222 73.0826 87.2822 75.3206C91.2493 80.3648 93.0899 81.1718 95.007 78.938ZM33.8775 60.1138C30.5423 64.2161 25.577 72.1879 30.2545 79.1486C32.1716 81.3824 34.0122 80.5754 37.9793 75.5312C39.7393 73.2932 41.1026 71.7686 43.1077 71.1206C43.9274 70.8557 44.3673 69.7787 43.7808 69.1477L35.3511 60.0782C34.946 59.6423 34.2528 59.6521 33.8775 60.1138Z" fill="white"/>
</svg>
