<svg width="124" height="124" viewBox="0 0 124 124" fill="none" xmlns="http://www.w3.org/2000/svg">
<circle cx="62" cy="62" r="54" fill="#595BA3"/>
<path fill-rule="evenodd" clip-rule="evenodd" d="M70.907 42.0846C71.8384 41.8052 72.8357 42.2361 73.2706 43.1058L74.3944 45.3535C74.6414 45.8475 74.4412 46.4482 73.9472 46.6952C73.4532 46.9422 72.8526 46.7419 72.6056 46.248L71.4817 44.0003L67.2873 45.2586C66.7584 45.4173 66.2009 45.1171 66.0422 44.5881C65.8835 44.0591 66.1837 43.5016 66.7127 43.3429L70.907 42.0846ZM82.3293 46.3008C80.4906 46.3008 79 47.7913 79 49.6301C79 51.1905 80.0838 52.5416 81.6071 52.8801L83.5 53.3008L84 46.3008H82.3293ZM74.5079 46.9302C74.9887 46.6584 75.5988 46.8279 75.8706 47.3087L83.2552 60.3739C84.6918 59.686 86.3009 59.3008 88 59.3008C94.0751 59.3008 99 64.2256 99 70.3008C99 76.3759 94.0751 81.3008 88 81.3008C81.9249 81.3008 77 76.3759 77 70.3008C77 66.6408 78.7875 63.3983 81.5371 61.3986L74.1294 48.2928C73.8577 47.812 74.0271 47.2019 74.5079 46.9302ZM87.1294 71.2928L83.0267 64.0341C81.1825 65.4996 80 67.7621 80 70.3008C80 74.719 83.5817 78.3008 88 78.3008C92.4183 78.3008 96 74.719 96 70.3008C96 65.8825 92.4183 62.3008 88 62.3008C86.8376 62.3008 85.7331 62.5487 84.7365 62.9945L88.8706 70.3087C89.1423 70.7895 88.9729 71.3996 88.4921 71.6713C88.0113 71.9431 87.4012 71.7736 87.1294 71.2928ZM29.1889 53.3097C28.0892 53.2054 27.1133 54.0122 27.0089 55.1119C26.9046 56.2115 27.7115 57.1875 28.8111 57.2918L39.3528 58.2918L39.447 58.3008H39.5417H51C52.1046 58.3008 53 57.4053 53 56.3008C53 55.1962 52.1046 54.3008 51 54.3008H39.6363L29.1889 53.3097ZM54 60.3008C52.8954 60.3008 52 61.1962 52 62.3008C52 63.4053 52.8954 64.3008 54 64.3008H72.0079L67.6631 74.8008H53.9332L48.8276 72.48C47.822 72.0229 46.6363 72.4676 46.1793 73.4732C45.7222 74.4787 46.1668 75.6644 47.1724 76.1215L52.278 78.4422C52.7978 78.6785 53.3622 78.8008 53.9332 78.8008H67.6631C69.2815 78.8008 70.7404 77.8256 71.3592 76.3302L75.704 65.8302C76.7938 63.1966 74.8581 60.3008 72.0079 60.3008H54ZM42 71.3008C42 75.1668 38.866 78.3008 35 78.3008C31.134 78.3008 28 75.1668 28 71.3008C28 67.4348 31.134 64.3008 35 64.3008C38.866 64.3008 42 67.4348 42 71.3008ZM45 71.3008C45 76.8236 40.5228 81.3008 35 81.3008C29.4772 81.3008 25 76.8236 25 71.3008C25 65.7779 29.4772 61.3008 35 61.3008C40.5228 61.3008 45 65.7779 45 71.3008ZM54.2013 54.8312C54.0685 55.141 54 55.4746 54 55.8117C54 57.1863 55.1144 58.3008 56.4891 58.3008H67.5C71.0899 58.3008 74 55.3906 74 51.8008C74 49.8678 72.433 48.3008 70.5 48.3008H63.9406C59.73 48.3008 55.9246 50.8101 54.266 54.6802L54.2013 54.8312Z" fill="white"/>
</svg>
