<svg width="124" height="124" viewBox="0 0 124 124" fill="none" xmlns="http://www.w3.org/2000/svg">
<circle cx="62" cy="62" r="54" fill="#407CD0"/>
<path d="M80.1708 69.0718C79.2494 69.082 78.3324 69.207 77.442 69.4443L72.8933 58.3181C72.6851 57.8022 72.1851 57.4639 71.6285 57.4633H66.1151C65.3619 57.4633 64.7508 58.0744 64.7508 58.8277C64.7508 59.5816 65.3619 60.1927 66.1151 60.1927H70.7185L72.6197 64.8962L57.236 64.8956L56.6173 63.0763H57.6276C58.3808 63.0763 58.9919 62.4652 58.9919 61.7119C58.9919 60.958 58.3808 60.3469 57.6276 60.3469H52.4054C51.6515 60.3469 51.0411 60.958 51.0411 61.7119C51.0411 62.4652 51.6515 63.0763 52.4054 63.0763H53.752L54.7255 66.0055L50.741 70.8086V70.8093C48.0865 69.1231 44.8297 68.6751 41.8186 69.5826C38.8075 70.4901 36.3408 72.6636 35.0602 75.5358C33.7802 78.408 33.8132 81.6951 35.1509 84.5413C36.4886 87.3875 38.9991 89.5101 42.0273 90.3567C45.0563 91.2039 48.3034 90.6905 50.923 88.9511C53.5433 87.2117 55.2763 84.4183 55.6716 81.2986H58.8191C60.6131 81.2974 62.3278 80.5568 63.5589 79.252L74.1484 68.6715L74.8763 70.4908C71.801 72.2309 69.7703 75.3638 69.4378 78.8813C69.1059 82.3994 70.514 85.8573 73.2098 88.1419C75.9049 90.4263 79.5469 91.2495 82.9628 90.3458C86.3781 89.4421 89.1367 86.9253 90.3495 83.6065C91.5622 80.2882 91.0761 76.586 89.0473 73.693C87.0192 70.7998 83.704 69.0807 80.1706 69.0897L80.1708 69.0718ZM51.0588 74.6396V74.639C52.0069 75.7521 52.6352 77.1005 52.8782 78.5417H47.8567L51.0588 74.6396ZM44.9362 88.0035C42.1066 87.9083 39.5314 86.344 38.143 83.8762C36.7552 81.4088 36.7552 78.3959 38.143 75.9279C39.5315 73.46 42.1066 71.8958 44.9362 71.8006C46.3565 71.8037 47.7506 72.1832 48.9754 72.9016L43.8897 79.0329L43.8903 79.0336C43.5464 79.4391 43.4715 80.0083 43.6987 80.4887C43.9284 80.9646 44.4082 81.268 44.9361 81.2711H52.9148C52.5912 83.1533 51.6133 84.8611 50.1537 86.0928C48.6935 87.3245 46.8463 88.001 44.9361 88.0036L44.9362 88.0035ZM61.5944 77.3227C60.8798 78.0982 59.874 78.5399 58.82 78.5418H55.6724C55.3837 76.2858 54.3905 74.1777 52.8338 72.5196L56.9002 67.625H71.3288L61.5944 77.3227ZM80.1711 88.0035C77.8054 88.0086 75.5558 86.9774 74.0155 85.1815C72.4753 83.3856 71.7983 81.0053 72.1639 78.6674C72.5287 76.3301 73.8989 74.2697 75.9136 73.029L78.907 80.4164C79.1165 80.931 79.6159 81.268 80.1711 81.2712C80.3463 81.2699 80.5189 81.2356 80.6807 81.1715C81.0272 81.0364 81.3039 80.766 81.4467 80.4227C81.5888 80.0788 81.585 79.6923 81.4359 79.3515L78.4425 71.9458L78.4431 71.9465C79.0111 71.8227 79.5898 71.7586 80.1711 71.7555C82.3669 71.6818 84.4985 72.5024 86.0778 74.0298C87.6573 75.5566 88.5489 77.6597 88.5489 79.8566C88.5489 82.0535 87.6573 84.1566 86.0778 85.6834C84.4983 87.2108 82.3667 88.0313 80.1711 87.9577L80.1711 88.0035ZM44.855 41.3237C45.039 41.7292 45.1323 42.1702 45.1279 42.6157C45.1311 43.2325 44.9115 43.8303 44.5092 44.2986C44.0186 44.8443 43.3047 45.1362 42.5717 45.0899H39.1145V40.1497H42.4626C43.0445 40.1255 43.6207 40.2747 44.1181 40.5774C44.424 40.7589 44.6778 41.0159 44.8549 41.3236L44.855 41.3237ZM48.9487 34.0455H34.5841C33.9 34.0455 33.2445 34.3165 32.7602 34.7988C32.276 35.2817 32.0025 35.9366 32 36.6201V53.6697C32 54.3551 32.2722 55.0119 32.7571 55.4967C33.2413 55.9809 33.8987 56.2531 34.584 56.2531H48.9486C49.6276 56.2436 50.2756 55.9676 50.7522 55.484C51.2288 55.0004 51.4966 54.3487 51.4959 53.6697V36.5746C51.494 35.8974 51.2256 35.2483 50.749 34.7666C50.2724 34.2849 49.6264 34.0095 48.9487 34L48.9487 34.0455ZM46.2193 45.8178H46.2199C45.3106 46.8382 43.9912 47.3961 42.6263 47.3371H39.1145V52.7959C39.1145 52.9063 39.0707 53.0129 38.992 53.0916C38.9133 53.1703 38.8074 53.2141 38.6963 53.2141H37.2133C37.1016 53.2166 36.9937 53.1734 36.9144 53.0941C36.8357 53.0154 36.7919 52.9076 36.7944 52.7959V38.376C36.7944 38.145 36.9823 37.9578 37.2133 37.9578H42.335C42.9188 37.954 43.5014 38.0124 44.0724 38.1305C44.6975 38.3107 45.2769 38.6204 45.7738 39.0398C46.2904 39.425 46.6953 39.9397 46.9472 40.5324C47.2778 41.2114 47.4403 41.9602 47.4206 42.7155C47.4079 43.8457 46.984 44.9322 46.2288 45.7722L46.2193 45.8178Z" fill="white"/>
</svg>
