<svg width="124" height="124" viewBox="0 0 124 124" fill="none" xmlns="http://www.w3.org/2000/svg">
<circle cx="62" cy="62" r="54" fill="#407CD0"/>
<path fill-rule="evenodd" clip-rule="evenodd" d="M84.8686 42.5822C85.0385 42.9466 85.1247 43.343 85.1206 43.7434C85.1235 44.2977 84.9208 44.835 84.5493 45.2558C84.0964 45.7463 83.4373 46.0087 82.7605 45.9671H79.5686V41.527H82.6598C83.197 41.5053 83.729 41.6394 84.1883 41.9114C84.4707 42.0745 84.7052 42.3055 84.8686 42.5822ZM88.6482 36.0409H75.3858C74.7542 36.0409 74.149 36.2845 73.7019 36.7179C73.2549 37.1519 73.0023 37.7405 73 38.3548V53.6782C73 54.2941 73.2514 54.8844 73.699 55.3202C74.146 55.7553 74.753 56 75.3858 56H88.6481C89.2751 55.9914 89.8733 55.7433 90.3133 55.3087C90.7533 54.8741 91.0006 54.2884 91 53.6781V38.3139C90.9982 37.7053 90.7504 37.1219 90.3104 36.689C89.8704 36.2561 89.2739 36.0086 88.6482 36L88.6482 36.0409ZM86.1282 46.6213C85.2886 47.5384 84.0711 48.0397 82.8109 47.9867H79.5686V52.8928C79.5686 52.992 79.5282 53.0878 79.4555 53.1586C79.3829 53.2293 79.285 53.2686 79.1825 53.2686H77.8132C77.7101 53.2709 77.6105 53.2321 77.5373 53.1608C77.4646 53.0901 77.4242 52.9932 77.4266 52.8928V39.933C77.4266 39.7254 77.6 39.5571 77.8132 39.5571H82.542C83.081 39.5537 83.6188 39.6062 84.1461 39.7122C84.7232 39.8742 85.2581 40.1525 85.7169 40.5296C86.1939 40.8757 86.5677 41.3383 86.8003 41.871C87.1055 42.4812 87.2555 43.1543 87.2374 43.833C87.2256 44.8488 86.8343 45.8253 86.1371 46.5803L86.1282 46.6213ZM52.3528 79.4121C52.3528 83.1845 49.295 86.2423 45.5226 86.2423C41.7501 86.2423 38.6924 83.1845 38.6924 79.4121C38.6924 75.6396 41.7501 72.5819 45.5226 72.5819C49.295 72.5819 52.3528 75.6396 52.3528 79.4121ZM72.8429 86.2421C76.6154 86.2421 79.6731 83.1843 79.6731 79.4119C79.6731 75.6394 76.6154 72.5817 72.8429 72.5817C69.0704 72.5817 66.0127 75.6394 66.0127 79.4119C66.0127 83.1843 69.0704 86.2421 72.8429 86.2421ZM30.4961 67.1178H31.8621V69.8499H30.4961V67.1178ZM49.6216 56.1891H43.5294L39.8818 61.6532H49.6216V56.1891ZM86.5036 73.9478C85.7492 73.9478 85.1376 73.3361 85.1376 72.5817C85.1376 71.8274 85.7492 71.2157 86.5036 71.2157H90.2053C89.6168 69.2416 88.4068 67.511 86.7554 66.2803C85.104 65.0497 83.0988 64.3849 81.0394 64.3855H56.4507C55.6963 64.3855 55.0847 63.7738 55.0847 63.0195V52.0911H39.3619L30.4961 63.4842V64.3856H33.2282C33.5904 64.3856 33.938 64.5295 34.1942 64.7856C34.4503 65.0418 34.5942 65.3894 34.5942 65.7516V71.2158C34.5942 71.578 34.4503 71.9256 34.1942 72.1818C33.938 72.4379 33.5904 72.5818 33.2282 72.5818H30.4961V75.3139C30.4961 76.4006 30.9279 77.4435 31.6963 78.2118C32.4647 78.98 33.5075 79.4119 34.5941 79.4119H37.3262C37.3262 76.4835 38.8887 73.7776 41.4243 72.314C43.96 70.8498 47.0849 70.8498 49.6206 72.314C52.1563 73.7776 53.7187 76.4835 53.7187 79.4119H64.647C64.647 76.4835 66.2095 73.7776 68.7451 72.314C71.2808 70.8498 74.4057 70.8498 76.9414 72.314C79.4771 73.7776 81.0395 76.4835 81.0395 79.4119H90.6018V73.9478L86.5036 73.9478ZM52.3526 63.0195C52.3526 63.3817 52.2087 63.7293 51.9525 63.9854C51.6964 64.2416 51.3488 64.3855 50.9865 64.3855H37.3261C36.8224 64.3843 36.3608 64.1062 36.1241 63.6616C35.9009 63.2268 35.9266 62.706 36.1924 62.2956L41.6566 54.0993C41.9012 53.7072 42.328 53.4657 42.7903 53.4572H50.9865C51.3488 53.4572 51.6964 53.6011 51.9525 53.8572C52.2087 54.1134 52.3526 54.461 52.3526 54.8232V63.0195ZM57.8167 69.8497C57.2642 69.8497 56.766 69.5167 56.555 69.0063C56.3434 68.4958 56.4599 67.9086 56.8508 67.5176C57.2417 67.1267 57.8289 67.0103 58.3394 67.2219C58.8498 67.4329 59.1828 67.9311 59.1828 68.4836C59.1828 68.8459 59.0389 69.1935 58.7827 69.4496C58.5266 69.7057 58.179 69.8497 57.8167 69.8497ZM57.8164 61.6533H73.6484L66.081 54.0992C64.8052 52.8064 63.0617 52.0825 61.2449 52.091H57.8164V61.6533Z" fill="white"/>
</svg>
