<svg width="124" height="124" viewBox="0 0 124 124" fill="none" xmlns="http://www.w3.org/2000/svg">
<circle cx="62" cy="62" r="54" fill="#595BA3"/>
<path d="M35.3065 38.5693C35.3065 39.5163 35.6829 40.424 36.3525 41.0935C37.0215 41.7631 37.9298 42.139 38.8762 42.139C39.8232 42.139 40.731 41.7631 41.4005 41.0935C42.0701 40.424 42.446 39.5163 42.446 38.5693C42.446 37.6228 42.0701 36.7146 41.4005 36.0455C40.731 35.3759 39.8232 35 38.8762 35C37.9302 35.0015 37.0234 35.3784 36.3544 36.0475C35.6853 36.7165 35.3084 37.6234 35.3064 38.5694L35.3065 38.5693Z" fill="white"/>
<path d="M48.749 49.1445C48.747 47.9931 48.2892 46.8897 47.4751 46.0756C46.661 45.262 45.5577 44.8036 44.4068 44.8018H33.3463C32.1945 44.8018 31.0902 45.2596 30.2755 46.0737C29.4613 46.8884 29.0035 47.9927 29.0035 49.1446V62.9524C28.9751 63.37 29.1211 63.7808 29.4069 64.0866C29.6926 64.3925 30.0921 64.566 30.5107 64.566C30.9293 64.566 31.3293 64.3925 31.615 64.0866C31.9008 63.7808 32.0464 63.37 32.0179 62.9524V51.3372C32.0179 50.949 32.3326 50.6344 32.7208 50.6344C32.9071 50.6344 33.086 50.7084 33.2178 50.8402C33.3492 50.9721 33.4232 51.1505 33.4232 51.3372V86.0851C33.4232 86.9262 33.8722 87.7031 34.6006 88.1236C35.3289 88.5442 36.2259 88.5442 36.9543 88.1236C37.6827 87.7031 38.1317 86.9262 38.1317 86.0851V65.1726C38.1317 64.7849 38.4459 64.4702 38.8341 64.4702C39.2223 64.4702 39.537 64.7849 39.537 65.1726V86.0851C39.537 86.9262 39.9854 87.7031 40.7138 88.1236C41.4422 88.5442 42.3397 88.5442 43.0681 88.1236C43.7964 87.7031 44.2449 86.9262 44.2449 86.0851V51.3372C44.2449 50.949 44.5596 50.6343 44.9473 50.6343C45.1341 50.6343 45.3125 50.7084 45.4443 50.8402C45.5762 50.9721 45.6502 51.1505 45.6502 51.3372V62.9524C45.6502 63.7866 46.3266 64.463 47.1608 64.463C47.9956 64.463 48.672 63.7866 48.672 62.9524L48.749 49.1445Z" fill="white"/>
<path d="M56.5921 86.4705C56.0151 86.4705 55.5486 86.0026 55.5486 85.427V38.0435C55.5486 37.4666 56.0158 37 56.5921 37C57.1691 37 57.6357 37.4672 57.6357 38.0435V85.427C57.6363 86.0026 57.1691 86.4705 56.5921 86.4705Z" fill="white"/>
<path d="M90.0635 41.9457C90.0635 44.1315 88.2911 45.9031 86.1053 45.9031C83.9196 45.9031 82.1479 44.1315 82.1479 41.9457C82.1479 39.7599 83.9196 37.9883 86.1053 37.9883C88.2911 37.9883 90.0635 39.7599 90.0635 41.9457Z" fill="white"/>
<path d="M88.2861 78.6272C88.0597 78.5802 87.8251 78.5547 87.5842 78.5547C85.6772 78.5547 84.1265 80.1083 84.1265 82.0167C84.1265 83.9265 85.678 85.4806 87.5842 85.4806C87.587 85.4806 87.5904 85.4799 87.5932 85.4799H87.5959C89.5029 85.4799 91.053 83.9277 91.053 82.0186C91.0523 80.3463 89.8624 78.9487 88.2861 78.6271L88.2861 78.6272ZM87.5842 83.0975C86.9893 83.0975 86.5054 82.6137 86.5054 82.0173C86.5054 81.4224 86.9893 80.9386 87.5842 80.9386C88.1777 80.9386 88.6609 81.4224 88.6609 82.0173C88.6609 82.6137 88.1784 83.0975 87.5842 83.0975Z" fill="white"/>
<path d="M95.91 76.1259C95.5808 75.0582 94.4496 74.4584 93.3819 74.7883C93.3819 74.7883 93.1955 74.8449 93.1493 74.8587C92.1934 72.2305 89.3458 64.4025 89.3458 64.4025C89.0794 63.6682 88.4127 63.1526 87.6348 63.0794C87.6348 63.0794 83.9748 62.7343 81.5309 62.5038C81.7938 61.441 82.2321 59.6693 82.709 57.743L82.8933 58.6948C83.0741 59.6286 83.8699 60.3188 84.8209 60.3636L92.2092 60.7149C92.243 60.717 92.2755 60.717 92.3079 60.717C93.4032 60.717 94.3142 59.8564 94.368 58.7521C94.4226 57.614 93.544 56.6478 92.4052 56.5932L86.6368 56.3192L84.9914 47.8266C84.7982 46.8355 83.9279 46.1522 82.956 46.1578L80.2746 45.734C80.2677 45.7333 80.2615 45.7333 80.2546 45.7319C80.2201 45.7271 80.1863 45.7243 80.1518 45.7202C80.1214 45.7181 80.0904 45.714 80.0607 45.7126C80.0283 45.7119 79.9944 45.7119 79.962 45.7119C79.9303 45.7119 79.8985 45.7119 79.8661 45.7126C79.8343 45.7133 79.8026 45.7174 79.7722 45.7195C79.7398 45.7223 79.7059 45.7257 79.6742 45.7305C79.6438 45.7354 79.6121 45.7416 79.581 45.7471C79.5493 45.7533 79.5175 45.7588 79.4851 45.7671C79.4547 45.774 79.4237 45.7837 79.3933 45.792C79.3615 45.8016 79.3298 45.8106 79.2994 45.8217C79.2698 45.8327 79.2421 45.8437 79.2132 45.8541C79.1807 45.8672 79.1476 45.8796 79.1165 45.8955C79.091 45.9072 79.0634 45.9203 79.0372 45.9328C79.0047 45.9507 78.9709 45.9687 78.9385 45.988C78.9247 45.9949 78.9095 46.0018 78.8957 46.0108L71.4108 50.6295C70.8973 50.947 70.5508 51.4763 70.4687 52.072L69.0517 62.2791C68.5176 62.5144 68.0082 62.7919 67.5168 63.0983C67.5161 63.099 67.5147 63.099 67.5126 63.1004C67.2725 63.2508 67.0385 63.4082 66.81 63.5745C66.7962 63.5842 66.7824 63.5952 66.7686 63.6049C66.1185 64.0818 65.5187 64.6209 64.9769 65.2158C64.9265 65.2703 64.8761 65.3248 64.8278 65.38C64.6725 65.556 64.522 65.7362 64.3764 65.9211C64.3212 65.9922 64.2687 66.0654 64.2142 66.1379C63.9568 66.4823 63.7187 66.8384 63.4978 67.2097C63.4529 67.2849 63.4046 67.3581 63.3612 67.434C63.2652 67.6045 63.1769 67.7791 63.0899 67.9544C63.0216 68.0897 62.9546 68.2277 62.8911 68.3657C62.8152 68.5328 62.7421 68.7005 62.6723 68.8703C62.6013 69.0476 62.5378 69.2285 62.4743 69.4093C62.408 69.6012 62.3424 69.7944 62.2852 69.9904C62.2099 70.2486 62.1409 70.5101 62.0836 70.7752C62.0533 70.9167 62.0284 71.0588 62.0022 71.2024C61.9615 71.4253 61.927 71.6496 61.8993 71.8774C61.8828 72.0127 61.8655 72.1486 61.8531 72.286C61.8241 72.6076 61.8069 72.9334 61.8034 73.2619C61.8034 73.2964 61.7986 73.3288 61.7986 73.364C61.7986 73.7823 61.8207 74.1964 61.8621 74.605C62.4825 80.7047 67.6471 85.4808 73.9078 85.4808H73.9098H73.9168C80.5963 85.4808 86.0314 80.0456 86.0314 73.3655C86.0314 71.2543 85.4861 69.2692 84.5323 67.5397C85.2756 67.5079 85.8602 67.4844 86.159 67.4713C87.0701 69.9808 90.0048 78.0497 90.0048 78.0497C90.374 79.0628 91.4714 79.6088 92.5012 79.2927L94.5731 78.6563C95.6388 78.3257 96.2385 77.1938 95.91 76.1262L95.91 76.1259ZM74.3456 53.572C74.8066 53.2883 75.7901 52.6803 76.8648 52.0177L74.6679 61.2896C74.4173 61.2738 74.1689 61.251 73.9149 61.251C73.6982 61.251 73.4877 61.2717 73.273 61.2834C73.6588 58.522 74.2069 54.577 74.3456 53.572L74.3456 53.572ZM73.9163 82.5343C68.8615 82.5343 64.7479 78.4223 64.7479 73.3659C64.7479 69.8977 66.6846 66.8755 69.5315 65.3191C69.8214 65.5814 70.1858 65.7663 70.602 65.8236C71.649 65.9693 72.6104 65.2805 72.8423 64.2694C73.1957 64.2279 73.5525 64.201 73.9156 64.201C78.9696 64.201 83.0825 68.3125 83.0825 73.3673C83.0832 78.4221 78.9705 82.5343 73.9163 82.5343L73.9163 82.5343Z" fill="white"/>
</svg>
