<svg width="124" height="124" viewBox="0 0 124 124" fill="none" xmlns="http://www.w3.org/2000/svg">
<circle cx="62" cy="62" r="54" fill="#485475"/>
<path fill-rule="evenodd" clip-rule="evenodd" d="M62.6559 37.0615C62.4354 36.9804 62.1935 36.9795 61.9724 37.059L34.6616 46.8798C34.2647 47.0226 34 47.399 34 47.8208V51.2087C34 51.7609 34.4477 52.2087 35 52.2087H89C89.5523 52.2087 90 51.7609 90 51.2087V47.8155C90 47.3963 89.7386 47.0216 89.3452 46.8769L62.6559 37.0615ZM90 83.7541C90 83.2018 89.5523 82.7541 89 82.7541H35C34.4477 82.7541 34 83.2018 34 83.7541V86.845C34 87.3973 34.4477 87.845 35 87.845H89C89.5523 87.845 90 87.3973 90 86.845V83.7541Z" fill="white"/>
<path fill-rule="evenodd" clip-rule="evenodd" d="M84.8182 53.4813H39V81.4813H84.8182V53.4813ZM67.2518 66.5019L68.2936 64.376H60.0793C60.1672 64.0642 60.2704 63.7715 60.389 63.4976C60.8544 62.433 61.4952 61.6412 62.3115 61.1221C63.1277 60.5965 64.0692 60.3336 65.136 60.3336C65.7661 60.3336 66.3461 60.4135 66.8759 60.5732C67.4057 60.7329 67.889 60.9325 68.3258 61.1721C68.7625 61.4116 69.1527 61.6578 69.4964 61.9106L71 58.9363C70.2053 58.3175 69.3138 57.8417 68.3258 57.509C67.3449 57.1697 66.2816 57 65.136 57C63.3031 57 61.6778 57.4225 60.2601 58.2676C58.8496 59.106 57.7434 60.3104 56.9415 61.8807C56.5537 62.6401 56.2597 63.4718 56.0594 64.376H53.8484L53 66.5019H55.7689C55.7487 66.8335 55.7387 67.1728 55.7387 67.52C55.7387 67.8531 55.748 68.1792 55.7667 68.4981H53.8484L53 70.654H56.0589C56.2592 71.5574 56.5534 72.3892 56.9415 73.1492C57.7434 74.7129 58.8496 75.914 60.2601 76.7524C61.6778 77.5841 63.3031 78 65.136 78C66.2387 78 67.2876 77.8436 68.2828 77.5309C69.2852 77.2182 70.1694 76.7524 70.9356 76.1336L69.4105 73.1592C69.1026 73.3921 68.7339 73.625 68.3043 73.8579C67.8819 74.0908 67.4057 74.2837 66.8759 74.4368C66.3461 74.5898 65.7661 74.6664 65.136 74.6664C64.0692 74.6664 63.1277 74.4102 62.3115 73.8978C61.4952 73.3855 60.8544 72.6003 60.389 71.5423C60.2692 71.2655 60.165 70.9694 60.0765 70.654H65.2005L66.3067 68.4981H59.7315C59.7116 68.1843 59.7017 67.8583 59.7017 67.52C59.7017 67.1673 59.7125 66.8279 59.7341 66.5019H67.2518Z" fill="white"/>
</svg>
