<svg width="124" height="124" viewBox="0 0 124 124" fill="none" xmlns="http://www.w3.org/2000/svg">
<circle cx="62" cy="62" r="54" fill="#F36F6A"/>
<path fill-rule="evenodd" clip-rule="evenodd" d="M62.4388 35C50.8946 35 41.5361 44.3584 41.5361 55.9027V82.0769H50V71H56V60H69V71H75V82.0769H83.3414V55.9026C83.3414 44.3584 73.983 35 62.4388 35Z" fill="white"/>
<path fill-rule="evenodd" clip-rule="evenodd" d="M57.4736 61H67.5265V71.0529H57.4736V61ZM65.4422 66.0263C65.4422 67.6513 64.1249 68.9686 62.4999 68.9686C60.8749 68.9686 59.5576 67.6513 59.5576 66.0263C59.5576 64.4013 60.8749 63.084 62.4999 63.084C64.1249 63.084 65.4422 64.4013 65.4422 66.0263ZM61.2736 72H51.2207V82.0529H61.2736V72ZM63 72.0239H73.0529V82.0768H63V72.0239ZM62.4988 66.8848C62.9728 66.8848 63.357 66.5006 63.357 66.0266C63.357 65.5527 62.9728 65.1685 62.4988 65.1685C62.0248 65.1685 61.6406 65.5527 61.6406 66.0266C61.6406 66.5006 62.0248 66.8848 62.4988 66.8848ZM53.1826 73.9614H55.3893V76.1682H53.1826V73.9614ZM67.1686 73.9854H64.9619V76.1921H67.1686V73.9854ZM64.9619 77.9082H67.1686V80.1149H64.9619V77.9082ZM71.0915 73.9854H68.8848V76.1921H71.0915V73.9854ZM57.1064 77.8848H59.3132V80.0915H57.1064V77.8848ZM71.0915 77.9082H68.8848V80.1149H71.0915V77.9082Z" fill="white"/>
<rect x="41.5361" y="83.793" width="41.8053" height="1.71635" rx="0.858173" fill="white"/>
<rect x="37" y="87.2261" width="51" height="1.71635" rx="0.858173" fill="white"/>
</svg>
