<svg width="124" height="124" viewBox="0 0 124 124" fill="none" xmlns="http://www.w3.org/2000/svg">
<circle cx="62" cy="62" r="54" fill="#E9A72B"/>
<path d="M46.2104 54.5263V52.5263H44.2104V54.5263H46.2104ZM67.9433 54.5263V52.5263H65.9178L65.9435 54.5516L67.9433 54.5263ZM56.8951 52.1442C57.527 51.2382 57.3048 49.9916 56.3989 49.3596C55.4929 48.7277 54.2462 48.9499 53.6143 49.8558L56.8951 52.1442ZM67.9433 47.0428L65.9574 47.2796C66.0427 47.9949 66.506 48.609 67.1703 48.8874C67.8346 49.1658 68.5973 49.0655 69.1671 48.6248L67.9433 47.0428ZM52.3015 45.817L50.8678 47.2115C51.3659 47.7236 52.0995 47.9312 52.7921 47.7559C53.4848 47.5806 54.0313 47.0491 54.2259 46.3616L52.3015 45.817ZM56 59.899L54.5715 61.2988L56 59.899ZM64 61.338L63.1436 59.5307L64 61.338ZM64.8707 60.8421L63.7525 59.1839L64.8707 60.8421ZM55.2547 59L56.8951 57.8558V57.8558L55.2547 59ZM69.3683 82H50.421V86H69.3683V82ZM74 61.899H76.1053V57.899H74V61.899ZM80 66.4V70.8H84V66.4H80ZM72 59.899V77.4H76V59.899H72ZM72 77.4V79.7895H76V77.4H72ZM76.1053 75.4H74V79.4H76.1053V75.4ZM80 70.8C80 73.4895 78.2059 75.4 76.1053 75.4V79.4C80.9808 79.4 84 75.0868 84 70.8H80ZM76.1053 61.899C78.2414 61.899 80 63.7517 80 66.4H84C84 62.0721 80.9453 57.899 76.1053 57.899V61.899ZM50.421 82C49.2001 82 48.2104 81.0103 48.2104 79.7895H44.2104C44.2104 83.2195 46.991 86 50.421 86V82ZM69.3683 86C71.0543 86 72.6731 85.3263 73.8763 84.2692C75.0845 83.2077 76 81.6387 76 79.7895H72C72 80.2657 71.7624 80.8019 71.2361 81.2643C70.7048 81.7311 70.0078 82 69.3683 82V86ZM44 50C44 47.7909 45.7909 46 48 46V42C43.5817 42 40 45.5817 40 50H44ZM71 48C72.6569 48 74 49.3431 74 51H78C78 47.134 74.866 44 71 44V48ZM69.1671 48.6248C69.6742 48.2324 70.3071 48 71 48V44C69.3905 44 67.9027 44.5457 66.7196 45.4609L69.1671 48.6248ZM60 42C63.0693 42 65.6029 44.3064 65.9574 47.2796L69.9293 46.806C69.3378 41.8452 65.1194 38 60 38V42ZM48 46C49.125 46 50.1387 46.4618 50.8678 47.2115L53.7352 44.4226C52.2841 42.9306 50.249 42 48 42V46ZM54.2259 46.3616C54.9388 43.8426 57.2568 42 60 42V38C55.4203 38 51.5644 41.0769 50.377 45.2724L54.2259 46.3616ZM74 51C74 51.7216 73.8811 52.1001 73.7788 52.2868C73.7068 52.4183 73.6024 52.5408 73.3054 52.6508L74.6946 56.4018C75.8188 55.9855 76.7144 55.2538 77.287 54.2083C77.8295 53.2179 78 52.0964 78 51H74ZM72 54.5263V59.899H76V54.5263H72ZM56 55C56 54.8853 56.0038 54.7718 56.0113 54.6597L52.0202 54.393C52.0068 54.5939 52 54.7963 52 55H56ZM56.0113 54.6597C56.0736 53.7275 56.3907 52.8673 56.8951 52.1442L53.6143 49.8558C52.7062 51.1577 52.1325 52.7133 52.0202 54.393L56.0113 54.6597ZM46.2104 56.5263H54.0158V52.5263H46.2104V56.5263ZM67.9433 56.5263H74V52.5263H67.9433V56.5263ZM46.8062 53.8194C45.178 53.3113 44 51.7906 44 50H40C40 53.5903 42.3635 56.6232 45.6147 57.6378L46.8062 53.8194ZM48.2104 79.7895V55.7286H44.2104V79.7895H48.2104ZM48.2104 55.7286V54.5263H44.2104V55.7286H48.2104ZM61 60C59.6005 60 58.3383 59.4277 57.4285 58.4992L54.5715 61.2988C56.2027 62.9634 58.4821 64 61 64V60ZM63.1436 59.5307C62.5089 59.8314 61.7845 60 61 60V64C62.3637 64 63.6745 63.7054 64.8564 63.1454L63.1436 59.5307ZM65.9435 54.5516C65.9713 56.7438 65.0333 58.3202 63.7525 59.1839L65.9889 62.5003C68.4675 60.8289 69.9867 57.9411 69.9432 54.501L65.9435 54.5516ZM63.7525 59.1839C63.5594 59.3141 63.356 59.43 63.1436 59.5307L64.8564 63.1454C65.2501 62.9589 65.6285 62.7433 65.9889 62.5003L63.7525 59.1839ZM62.8707 60.8421V76H66.8707V60.8421H62.8707ZM57.4285 58.4992C57.2333 58.3 57.0548 58.0848 56.8951 57.8558L53.6143 60.1442C53.9013 60.5557 54.2217 60.9418 54.5715 61.2988L57.4285 58.4992ZM56.8951 57.8558C56.3307 57.0467 56 56.065 56 55H52C52 56.9095 52.5969 58.6856 53.6143 60.1442L56.8951 57.8558ZM53.2547 59V76H57.2547V59H53.2547Z" fill="white"/>
</svg>
