<svg width="124" height="124" viewBox="0 0 124 124" fill="none" xmlns="http://www.w3.org/2000/svg">
<circle cx="62" cy="62" r="54" fill="#D66EB8"/>
<path d="M71.6513 41.151C71.6513 46.7572 67.1064 51.3021 61.5003 51.3021C55.8941 51.3021 51.3492 46.7572 51.3492 41.151C51.3492 35.5449 55.8941 31 61.5003 31C67.1064 31 71.6513 35.5449 71.6513 41.151Z" fill="white"/>
<path d="M83.3244 67.6568C82.2093 65.2676 80.5916 62.5807 79.3052 60.425C77.2287 56.9448 74.9268 54.1661 70.0993 54.1661C68.4711 54.1661 62.9288 54.1655 54.3633 54.1655C46.9519 54.1655 44.2731 61.8447 41.9173 66.2936C40.1249 69.6799 38.176 74.8835 38.018 77.7742C37.6961 83.6616 41.7877 87.5151 42.4194 87.966C45.7254 90.326 49.5636 92.3328 55.841 92.8559C60.5148 93.2447 64.7383 90.98 65.1691 88.3963C65.6798 85.3285 63.7321 83.1915 59.7146 83.3728C53.4331 83.6563 49.3665 81.8145 48.1396 81.2014C45.0389 79.6512 48.7456 79.7086 49.5314 79.648C51.4805 79.4982 53.4294 79.048 54.4034 78.2233C55.4026 77.3776 54.4981 77.6382 53.2023 73.5897C52.2135 70.5022 53.6388 69.2119 54.4196 68.9568C56.3438 68.3278 57.4527 69.1767 58.5918 71.2594C59.3576 72.6593 60.3625 74.1891 60.8931 74.7951C61.6787 75.6934 62.2458 76.7027 63.8668 77.6723C65.198 78.4692 66.7816 78.9762 68.0856 79.0522C69.4162 79.1308 69.3448 79.0659 70.5597 78.8529C69.2638 80.0702 64.7843 83.211 67.8893 86.5496C69.5381 88.3234 73.2323 87.6429 74.9628 86.97C76.6932 86.2971 79.6725 84.2434 82.2246 81.0822C87.1649 74.9637 84.1769 69.4819 83.325 67.657L83.3244 67.6568ZM69.3106 77.6371C65.4163 77.6371 62.2582 74.4796 62.2582 70.5842C62.2582 66.6893 65.4163 63.5314 69.3106 63.5314C73.2061 63.5314 76.3634 66.6895 76.3634 70.5842C76.363 74.4798 73.2059 77.6371 69.3106 77.6371Z" fill="white"/>
</svg>
