<svg width="124" height="124" viewBox="0 0 124 124" fill="none" xmlns="http://www.w3.org/2000/svg">
<circle cx="61" cy="62" r="54" fill="#485475"/>
<path d="M78.9692 77.0392L78.0045 78.0038C75.0245 80.9835 64.0049 82.0036 53.005 71.0047C42.0052 60.0057 43.005 49.0065 46.005 46.0068L46.987 45.0248C48.5488 43.4632 51.1479 43.7216 52.3731 45.5591L56.4133 51.6188C57.3388 53.0069 57.1558 54.8552 55.976 56.0348L53.8789 58.1316C53.3433 58.6673 53.1638 59.4578 53.5135 60.1298C54.1509 61.3548 55.4805 63.4809 58.005 66.0051C60.5294 68.5294 62.6555 69.8588 63.8805 70.4961C64.5525 70.8457 65.3431 70.6663 65.8787 70.1307L67.9758 68.0338C69.1554 66.8542 71.0038 66.6712 72.392 67.5966L78.4318 71.6227C80.2801 72.8547 80.5399 75.4686 78.9692 77.0392Z" fill="white"/>
</svg>
