<svg width="124" height="124" viewBox="0 0 124 124" fill="none" xmlns="http://www.w3.org/2000/svg">
<circle cx="62" cy="62" r="54" fill="#F36F6A"/>
<path d="M75.261 68.866C74.8752 68.4794 74.3689 68.2367 73.8261 68.1772C73.2834 68.1177 72.7362 68.2452 72.276 68.5389L52.5477 48.8111L65.1835 36.1756L69.2662 38.6248C69.5123 38.7694 69.829 38.6888 69.9762 38.4438C70.123 38.1992 70.045 37.8814 69.8015 37.7323L65.3712 35.0741C65.1663 34.9514 64.9043 34.9834 64.7355 35.1525L38.1525 61.7348C37.9834 61.904 37.9514 62.166 38.0741 62.3705L40.7324 66.8007V66.8011C40.8804 67.0475 41.2 67.1274 41.4465 66.9795C41.693 66.8315 41.7729 66.5119 41.6249 66.2654L39.1756 62.1839L51.8114 49.5484L71.5397 69.2762C71.2461 69.7364 71.1186 70.2832 71.178 70.8263C71.2375 71.369 71.4803 71.8753 71.8665 72.2611L84.9039 85.2982C85.3544 85.7476 85.9648 86 86.6012 86C87.2377 86 87.8477 85.7476 88.2982 85.2982C88.7476 84.8477 89 84.2373 89 83.6009C89 82.9645 88.7476 82.3545 88.2982 81.904L75.261 68.866Z" fill="white"/>
<path d="M51.1774 63.9668C49.9253 63.9671 48.7441 64.5493 47.9817 65.543C47.2193 66.5366 46.9625 67.8283 47.2869 69.0378C47.6108 70.2473 48.4792 71.2375 49.6362 71.7167C50.7932 72.1957 52.1073 72.1096 53.1915 71.4837C54.276 70.8575 55.0076 69.7624 55.1713 68.5211C55.3347 67.2794 54.9114 66.0325 54.0259 65.147C53.2719 64.3888 52.2465 63.9641 51.1772 63.9668L51.1774 63.9668Z" fill="white"/>
<path d="M60.2956 74.5797C61.5477 74.5797 62.7289 73.9972 63.4913 73.0039C64.2537 72.0103 64.5108 70.7185 64.1865 69.5091C63.8625 68.2996 62.9942 67.3094 61.8372 66.8301C60.6802 66.3508 59.3664 66.4369 58.2819 67.0632C57.1973 67.6891 56.4658 68.7842 56.302 70.0258C56.1387 71.2671 56.562 72.5144 57.4475 73.3999C58.2011 74.1577 59.2269 74.5825 60.2958 74.5797L60.2956 74.5797Z" fill="white"/>
<path d="M50.8856 74.2662C50.0005 75.1517 49.5772 76.3987 49.7405 77.6403C49.9043 78.8816 50.6358 79.9764 51.7201 80.6026C52.8046 81.2286 54.1188 81.3146 55.2754 80.8357C56.4324 80.3563 57.3004 79.3662 57.6247 78.1567C57.9487 76.9473 57.6919 75.6559 56.9295 74.6623C56.1672 73.669 54.986 73.0864 53.7338 73.0864C52.665 73.0836 51.6395 73.5084 50.8856 74.2662L50.8856 74.2662Z" fill="white"/>
</svg>
