<svg width="124" height="124" viewBox="0 0 124 124" fill="none" xmlns="http://www.w3.org/2000/svg">
<circle cx="62" cy="62" r="54" fill="#485475"/>
<path fill-rule="evenodd" clip-rule="evenodd" d="M62.6559 37.0615C62.4354 36.9804 62.1935 36.9795 61.9724 37.059L34.6616 46.8798C34.2647 47.0226 34 47.399 34 47.8208V51.2087C34 51.7609 34.4477 52.2087 35 52.2087H89C89.5523 52.2087 90 51.7609 90 51.2087V47.8155C90 47.3963 89.7386 47.0216 89.3452 46.8769L62.6559 37.0615ZM90 83.7541C90 83.2018 89.5523 82.7541 89 82.7541H35C34.4477 82.7541 34 83.2018 34 83.7541V86.845C34 87.3973 34.4477 87.845 35 87.845H89C89.5523 87.845 90 87.3973 90 86.845V83.7541Z" fill="white"/>
<path fill-rule="evenodd" clip-rule="evenodd" d="M84.9091 53.4813H39.0909V81.4813H84.9091V53.4813ZM60.813 76.8698V79H62.3779V76.8693C63.6053 76.8013 64.674 76.5709 65.584 76.1781C66.6908 75.6969 67.5369 75.0312 68.1221 74.1813C68.7074 73.325 69 72.3344 69 71.2094C69 70.3781 68.841 69.6531 68.5229 69.0344C68.2048 68.4156 67.7723 67.8875 67.2252 67.45C66.6845 67.0125 66.0706 66.65 65.3836 66.3625C64.7029 66.075 63.9936 65.8469 63.2557 65.6781L62.3779 65.4625V60.1222C63.0979 60.2065 63.7054 60.421 64.2004 60.7656C64.862 61.2219 65.2373 61.8594 65.3263 62.6781H68.7328C68.7137 61.5969 68.4052 60.6406 67.8073 59.8094C67.2093 58.9719 66.3855 58.3188 65.3359 57.85C64.4686 57.4551 63.4826 57.2244 62.3779 57.1578V55H60.813V57.1717C59.7937 57.2529 58.8618 57.479 58.0172 57.85C56.9357 58.3188 56.0802 58.9781 55.4504 59.8281C54.827 60.6781 54.5153 61.6688 54.5153 62.8C54.5153 64.175 54.9796 65.2781 55.9084 66.1094C56.8435 66.9344 58.1158 67.55 59.7252 67.9563L60.813 68.2315V73.8791C60.3634 73.8295 59.9435 73.7333 59.5534 73.5906C58.9618 73.3719 58.4816 73.0406 58.1126 72.5969C57.7436 72.1531 57.5337 71.5969 57.4828 70.9281H54C54.0509 72.2031 54.388 73.2844 55.0115 74.1719C55.6412 75.0594 56.5127 75.7344 57.626 76.1969C58.5514 76.5792 59.6137 76.8035 60.813 76.8698ZM62.3779 73.8719C62.8162 73.8193 63.217 73.7224 63.5802 73.5813C64.1654 73.35 64.6234 73.0312 64.9542 72.625C65.285 72.2125 65.4536 71.7312 65.4599 71.1813C65.4536 70.6813 65.3041 70.2688 65.0115 69.9437C64.7188 69.6125 64.3085 69.3375 63.7805 69.1188C63.3685 68.941 62.901 68.7789 62.3779 68.6324V73.8719ZM60.813 65.0676V60.1331C60.4186 60.1855 60.0624 60.2776 59.7443 60.4094C59.2163 60.6281 58.8123 60.925 58.5324 61.3C58.2525 61.675 58.1094 62.1031 58.1031 62.5844C58.1031 62.9844 58.1953 63.3312 58.3798 63.625C58.5706 63.9188 58.8282 64.1687 59.1527 64.375C59.4771 64.575 59.8365 64.7438 60.2309 64.8812C60.4242 64.9486 60.6182 65.0107 60.813 65.0676Z" fill="white"/>
</svg>
