<svg width="124" height="124" viewBox="0 0 124 124" fill="none" xmlns="http://www.w3.org/2000/svg">
<circle cx="62" cy="62" r="54" fill="#AD7147"/>
<path d="M46.4964 72.4793H45.4676C44.9532 72.4793 44.5323 72.0585 44.5323 71.5441C44.5323 71.0297 44.9532 70.6088 45.4676 70.6088H46.4964V66.9146L40.8848 62.1914V80.8968L46.4964 76.1736V72.4793Z" fill="white"/>
<path d="M86.2457 54.7094H83.6738C83.4867 52.1375 81.2421 50.2201 78.6702 50.4072C77.9219 50.4539 77.2205 50.6878 76.5658 51.1086L61.7415 40.3536C62.3494 38.6701 61.4609 36.7996 59.7774 36.1916C58.094 35.5836 56.2234 36.4722 55.6154 38.1557C55.2881 39.0442 55.3816 40.0262 55.8493 40.8212L46.3095 50.6415C43.8778 49.7998 41.2591 51.1092 40.4174 53.5876C40.2771 53.9617 40.2303 54.3358 40.1835 54.7099H37.6116C34.5252 54.7099 32 57.2351 32 60.3215V82.2997C32 85.3861 34.5252 87.9113 37.6116 87.9113H86.2455C89.3319 87.9113 91.8571 85.3861 91.8571 82.2997V60.3215C91.8571 57.2351 89.3319 54.7099 86.2455 54.7099L86.2457 54.7094ZM78.9974 52.2777C80.4003 52.2777 81.6162 53.3532 81.8032 54.7562H76.1916C76.3787 53.3066 77.5945 52.2777 78.9974 52.2777ZM58.6556 37.8746C59.4506 37.8746 60.0586 38.4825 60.0586 39.2775C60.0586 40.0725 59.4506 40.6804 58.6556 40.6804C57.8607 40.6804 57.2527 40.0725 57.2527 39.2775C57.2527 38.4825 57.8607 37.8746 58.6556 37.8746ZM44.8607 52.2777C46.2636 52.2777 47.4795 53.3532 47.6665 54.7562H42.0549C42.242 53.3066 43.4578 52.2777 44.8607 52.2777ZM53.0443 80.8969C53.0443 81.9257 52.2025 82.7674 51.1737 82.7674H40.8858C39.857 82.7674 39.0153 81.9257 39.0153 80.8969V62.1915C39.062 61.1627 39.857 60.3678 40.8858 60.321H51.1737C52.2025 60.321 53.0443 61.1627 53.0443 62.1915V80.8969ZM49.5371 54.7094C49.4435 53.4936 48.8824 52.4179 47.9938 51.5763L57.1126 42.1301C58.2349 42.738 59.5911 42.5977 60.6198 41.8495L75.163 52.3713C74.6953 53.0728 74.4147 53.8678 74.3212 54.7095L49.5371 54.7094Z" fill="white"/>
<path d="M56.7852 66.3999H60.5262V70.141H56.7852V66.3999Z" fill="white"/>
</svg>
