<svg width="124" height="124" viewBox="0 0 124 124" fill="none" xmlns="http://www.w3.org/2000/svg">
<circle cx="62" cy="62" r="54" fill="#485475"/>
<path fill-rule="evenodd" clip-rule="evenodd" d="M37 36H87C87.5523 36 88 36.4477 88 37V87C88 87.5523 87.5523 88 87 88H37C36.4477 88 36 87.5523 36 87V37C36 36.4477 36.4477 36 37 36ZM33 37C33 34.7909 34.7909 33 37 33H87C89.2091 33 91 34.7909 91 37V87C91 89.2091 89.2091 91 87 91H37C34.7909 91 33 89.2091 33 87V37ZM56 48C56 50.7614 53.7614 53 51 53C48.2386 53 46 50.7614 46 48C46 45.2386 48.2386 43 51 43C53.7614 43 56 45.2386 56 48ZM49 55C46.2386 55 44 57.2386 44 60V64C44 66.0873 45.279 67.8759 47.0961 68.6248L48.6199 78.5291C48.8386 79.9506 50.0617 81 51.5 81C52.9383 81 54.1614 79.9506 54.3801 78.5291L55.9039 68.6248C57.721 67.8759 59 66.0873 59 64V60C59 57.2386 56.7614 55 54 55H49ZM74.7053 42.0526L75.6764 42.8276L82.9356 48.6207C83.5831 49.1374 83.6892 50.0812 83.1724 50.7287C82.6557 51.3763 81.7119 51.4823 81.0644 50.9655L76.2407 47.1161V58C76.2407 58.8284 75.5692 59.5 74.7407 59.5C73.9123 59.5 73.2407 58.8284 73.2407 58V47.267L68.9777 50.9307C68.3494 51.4707 67.4024 51.3991 66.8624 50.7708C66.3224 50.1425 66.394 49.1955 67.0223 48.6555L73.7631 42.8624L74.7053 42.0526ZM73.8051 80.1724L74.7762 80.9474L75.7184 80.1376L81.9777 74.7583C82.606 74.2183 82.6776 73.2713 82.1376 72.643C81.5976 72.0147 80.6506 71.9431 80.0223 72.4831L76.2407 75.733V66C76.2407 65.1716 75.5692 64.5 74.7407 64.5C73.9123 64.5 73.2407 65.1716 73.2407 66V75.8839L68.9356 72.4483C68.2881 71.9315 67.3443 72.0375 66.8276 72.6851C66.3108 73.3326 66.4169 74.2764 67.0644 74.7931L73.8051 80.1724Z" fill="white"/>
</svg>
