<svg width="124" height="124" viewBox="0 0 124 124" fill="none" xmlns="http://www.w3.org/2000/svg">
<circle cx="62" cy="62" r="54" fill="#9E86B3"/>
<path d="M61.8076 39.4629C59.3257 39.4629 57.3013 41.4726 57.3013 43.9519C57.3013 46.4364 59.3256 48.4543 61.8076 48.4543C64.2808 48.4543 66.3086 46.435 66.3086 43.9519C66.3086 41.4726 64.2821 39.4629 61.8076 39.4629Z" fill="white"/>
<path d="M47.459 40.6899H50.1494V58.4131H47.459V40.6899Z" fill="white"/>
<path d="M76.5939 58.5105C75.3306 55.3972 71.9285 49.3241 64.7337 49.5921C60.4064 49.7512 59.6441 55.719 59.5278 58.5105H76.5939Z" fill="white"/>
<path d="M89.3437 40.5728V81.7456H82.768V60.4286H40.2729V81.7456H33.6563V40.5728H30.4502V84.9995H33.6563V84.9514H89.3439V84.9995H92.55V40.5728H89.3437Z" fill="white"/>
<path d="M58.3392 58.5143C58.3392 58.5104 58.344 58.507 58.344 58.4996C58.344 57.0354 56.997 55.8599 55.3599 55.8599C53.7205 55.8599 52.3784 57.0356 52.3784 58.4996C52.3784 58.507 52.3832 58.5109 52.3832 58.5143H58.3392Z" fill="white"/>
</svg>
