<svg width="124" height="124" viewBox="0 0 124 124" fill="none" xmlns="http://www.w3.org/2000/svg">
<circle cx="62" cy="62" r="54" fill="#ABA39A"/>
<path d="M82.5802 44.9551H79.77V73.057H82.5802C84.5122 73.057 86.093 71.4763 86.093 69.5443V48.4678C86.093 46.5358 84.5122 44.9551 82.5802 44.9551Z" fill="white"/>
<path d="M78.3648 44.9547H72.0419V42.119C72.0419 40.7805 70.9465 39.6855 69.6084 39.6855H60.4243C59.0863 39.6855 57.9909 40.7809 57.9909 42.119V44.9547H51.668V73.0566H78.3648V44.9547ZM61.5036 42.4957H68.5291V44.9547H61.5036V42.4957Z" fill="white"/>
<path d="M47.4532 73.057H50.2634V44.9551H47.4532C45.5212 44.9551 43.9404 46.5358 43.9404 48.4678V69.5443C43.9404 71.4763 45.5212 73.057 47.4532 73.057Z" fill="white"/>
<path d="M84.6878 74.4614H38.3196C37.5469 74.4614 36.9146 75.0938 36.9146 75.8665V76.5691C36.9146 77.3418 37.5469 77.9742 38.3196 77.9742H84.6878C85.4605 77.9742 86.0929 77.3418 86.0929 76.5691V75.8665C86.0929 75.0938 85.4605 74.4614 84.6878 74.4614Z" fill="white"/>
<path d="M86.093 82.1896C86.093 83.7417 84.835 84.9998 83.2828 84.9998C81.7307 84.9998 80.4727 83.7417 80.4727 82.1896C80.4727 80.6375 81.7307 79.3794 83.2828 79.3794C84.835 79.3794 86.093 80.6375 86.093 82.1896Z" fill="white"/>
<path d="M76.9597 82.1896C76.9597 83.7417 75.7017 84.9998 74.1495 84.9998C72.5974 84.9998 71.3394 83.7417 71.3394 82.1896C71.3394 80.6375 72.5974 79.3794 74.1495 79.3794C75.7017 79.3794 76.9597 80.6375 76.9597 82.1896Z" fill="white"/>
<path d="M67.8264 82.1896C67.8264 83.7417 66.5684 84.9998 65.0162 84.9998C63.4641 84.9998 62.2061 83.7417 62.2061 82.1896C62.2061 80.6375 63.4641 79.3794 65.0162 79.3794C66.5684 79.3794 67.8264 80.6375 67.8264 82.1896Z" fill="white"/>
<path d="M58.6936 82.1896C58.6936 83.7417 57.4356 84.9998 55.8834 84.9998C54.3313 84.9998 53.0732 83.7417 53.0732 82.1896C53.0732 80.6375 54.3313 79.3794 55.8834 79.3794C57.4356 79.3794 58.6936 80.6375 58.6936 82.1896Z" fill="white"/>
<path d="M49.5608 82.1896C49.5608 83.7417 48.3028 84.9998 46.7506 84.9998C45.1985 84.9998 43.9404 83.7417 43.9404 82.1896C43.9404 80.6375 45.1985 79.3794 46.7506 79.3794C48.3028 79.3794 49.5608 80.6375 49.5608 82.1896Z" fill="white"/>
</svg>
