<svg width="124" height="124" viewBox="0 0 124 124" fill="none" xmlns="http://www.w3.org/2000/svg">
<circle cx="62" cy="62" r="54" fill="#BE3E51"/>
<path fill-rule="evenodd" clip-rule="evenodd" d="M45.6667 36.3333H78.3334C79.622 36.3333 80.6667 37.378 80.6667 38.6666V85.3333C80.6667 86.622 79.622 87.6666 78.3334 87.6666H45.6667C44.378 87.6666 43.3334 86.622 43.3334 85.3333V38.6666C43.3334 37.378 44.378 36.3333 45.6667 36.3333ZM49.8007 64.0913C49.8007 67.7488 52.7657 70.7137 56.4232 70.7137C57.8521 70.7137 59.1752 70.2612 60.2572 69.4916L59.6667 74.8963H64.3334L63.7427 69.4916C64.8246 70.261 66.1481 70.7137 67.5768 70.7137C71.2342 70.7137 74.1992 67.7488 74.1992 64.0913C74.1992 62.345 73.5109 60.7434 72.4064 59.5602L62.3485 49.1037L51.5935 59.5602C50.4817 60.7447 49.8007 62.3385 49.8007 64.0913Z" fill="white"/>
<path d="M60.2572 69.4916L60.8537 69.5568C60.8793 69.3219 60.7647 69.0938 60.5609 68.9742C60.3571 68.8546 60.102 68.8657 59.9095 69.0027L60.2572 69.4916ZM59.6667 74.8963L59.0703 74.8312L58.9976 75.4963H59.6667V74.8963ZM64.3334 74.8963V75.4963H65.0025L64.9298 74.8311L64.3334 74.8963ZM63.7427 69.4916L64.0904 69.0027C63.8979 68.8657 63.6428 68.8546 63.439 68.9742C63.2352 69.0938 63.1206 69.3219 63.1463 69.5568L63.7427 69.4916ZM51.5935 59.5602L51.1753 59.13L51.1654 59.1395L51.156 59.1495L51.5935 59.5602ZM62.3485 49.1037L62.7809 48.6877L62.3628 48.253L61.9303 48.6735L62.3485 49.1037ZM72.4064 59.5602L72.8451 59.1507L72.8389 59.1442L72.4064 59.5602ZM56.4232 70.1137C53.0971 70.1137 50.4007 67.4174 50.4007 64.0913H49.2007C49.2007 68.0801 52.4343 71.3137 56.4232 71.3137V70.1137ZM73.5992 64.0913C73.5992 67.4174 70.9029 70.1137 67.5768 70.1137V71.3137C71.5656 71.3137 74.7992 68.0801 74.7992 64.0913H73.5992ZM59.9095 69.0027C58.9257 69.7024 57.7234 70.1137 56.4232 70.1137V71.3137C57.9807 71.3137 59.4248 70.82 60.605 69.9806L59.9095 69.0027ZM59.6608 69.4265L59.0703 74.8312L60.2632 74.9615L60.8537 69.5568L59.6608 69.4265ZM59.6667 75.4963H64.3334V74.2963H59.6667V75.4963ZM50.4007 64.0913C50.4007 62.497 51.0194 61.0485 52.031 59.9708L51.156 59.1495C49.944 60.4409 49.2007 62.18 49.2007 64.0913H50.4007ZM61.9303 48.6735L51.1753 59.13L52.0118 59.9903L62.7668 49.5339L61.9303 48.6735ZM61.9161 49.5196L71.974 59.9761L72.8389 59.1442L62.7809 48.6877L61.9161 49.5196ZM71.9678 59.9696C72.9739 61.0474 73.5992 62.5046 73.5992 64.0913H74.7992C74.7992 62.1854 74.048 60.4394 72.845 59.1507L71.9678 59.9696ZM45.6667 36.9333H78.3334V35.7333H45.6667V36.9333ZM80.0667 38.6666V85.3333H81.2667V38.6666H80.0667ZM78.3334 87.0666H45.6667V88.2666H78.3334V87.0666ZM43.9334 85.3333V38.6666H42.7334V85.3333H43.9334ZM45.6667 87.0666C44.7094 87.0666 43.9334 86.2906 43.9334 85.3333H42.7334C42.7334 86.9534 44.0467 88.2666 45.6667 88.2666V87.0666ZM80.0667 85.3333C80.0667 86.2906 79.2907 87.0666 78.3334 87.0666V88.2666C79.9534 88.2666 81.2667 86.9534 81.2667 85.3333H80.0667ZM78.3334 36.9333C79.2907 36.9333 80.0667 37.7094 80.0667 38.6666H81.2667C81.2667 37.0466 79.9534 35.7333 78.3334 35.7333V36.9333ZM45.6667 35.7333C44.0467 35.7333 42.7334 37.0466 42.7334 38.6666H43.9334C43.9334 37.7094 44.7094 36.9333 45.6667 36.9333V35.7333ZM64.9298 74.8311L64.3392 69.4265L63.1463 69.5568L63.7369 74.9615L64.9298 74.8311ZM67.5768 70.1137C66.2768 70.1137 65.0742 69.7022 64.0904 69.0027L63.395 69.9806C64.5751 70.8198 66.0194 71.3137 67.5768 71.3137V70.1137Z" fill="white"/>
</svg>
