<svg width="124" height="124" viewBox="0 0 124 124" fill="none" xmlns="http://www.w3.org/2000/svg">
<circle cx="62" cy="62" r="54" fill="#59A397"/>
<path d="M59.9022 49.9172L59.9887 49.9233L60.0195 49.9172H80.5286C81.5007 50.0288 83.8103 51.8676 84.1078 59.3915H56.2423C56.5454 51.642 58.9853 49.9234 59.9018 49.9172H59.9022ZM76.1016 77.8448H64.2431C63.4872 77.8448 62.8742 77.2318 62.8742 76.4759C62.8742 75.7204 63.4872 75.1075 64.2431 75.1075H76.1011C76.8571 75.1075 77.47 75.7204 77.47 76.4759C77.47 77.2318 76.8571 77.8448 76.1011 77.8448H76.1016ZM87.6319 71.1448L87.6314 71.1443C87.6314 71.4731 87.5012 71.7882 87.2688 72.02C87.0365 72.2524 86.7215 72.383 86.3932 72.383H82.6405C82.2675 72.3854 81.9135 72.2191 81.6778 71.9302C81.4422 71.6418 81.3495 71.2617 81.4269 70.8968C81.7039 69.7527 82.2912 68.7073 83.1236 67.8749C83.9556 67.0424 85.0015 66.4556 86.1451 66.1782C86.51 66.1012 86.8901 66.1934 87.179 66.429C87.4679 66.6652 87.6342 67.0192 87.6313 67.3917L87.6319 71.1448ZM90.2081 59.6702H87.0802C86.5785 46.7026 80.8878 47.3716 80.8878 47.3716H59.4434C59.1027 47.3407 53.7526 47.1117 53.2632 59.6702H50.1425C49.6498 59.6702 49.1775 59.8659 48.8292 60.2142C48.4804 60.5625 48.2847 61.0348 48.2847 61.5275V62.9211C48.2851 63.2219 48.5289 63.4656 48.8297 63.4661H49.387C49.6293 63.4651 49.8621 63.5606 50.0337 63.7312C50.2057 63.9018 50.3026 64.1341 50.3035 64.376V79.5099C50.304 80.2659 50.9165 80.8783 51.6719 80.8788H88.6772C89.4327 80.8783 90.0451 80.2659 90.0456 79.5099V64.376C90.0451 64.1346 90.1406 63.9027 90.3117 63.7317C90.4823 63.5611 90.7141 63.4651 90.956 63.4661H91.5133C91.815 63.4661 92.0612 63.2228 92.0645 62.9211V61.5275C92.063 61.0353 91.8668 60.5639 91.5185 60.2157C91.1707 59.8679 90.6989 59.6716 90.2067 59.6702L90.2081 59.6702ZM57.7034 72.3835H53.9507C53.2679 72.3812 52.7144 71.8281 52.7124 71.1448V67.3921C52.7096 67.0196 52.8759 66.6656 53.1647 66.4295C53.4536 66.1938 53.8337 66.1016 54.1986 66.1786C55.3437 66.4532 56.3905 67.0395 57.2234 67.872C58.0563 68.7049 58.6426 69.7521 58.9173 70.8972C58.9942 71.2621 58.9016 71.6422 58.6659 71.9306C58.4302 72.2195 58.0763 72.3858 57.7033 72.3834L57.7034 72.3835Z" fill="white"/>
<path d="M88.2813 82.1182V83.9265C88.278 84.2282 88.0318 84.4715 87.7301 84.4715H83.1417C82.8419 84.4687 82.5991 84.2263 82.5967 83.9265V82.1182H88.2813Z" fill="white"/>
<path d="M57.7097 82.1182V83.9265C57.7092 84.2273 57.4655 84.471 57.1647 84.4715H52.5762C52.2755 84.471 52.0317 84.2273 52.0312 83.9265V82.1182H57.7097Z" fill="white"/>
<path d="M42.2411 44.2138C41.8225 44.1592 41.4001 44.1383 40.9782 44.1521H40.1357V46.6166H41.0955C41.5602 46.6409 42.0258 46.5948 42.4767 46.4803C42.8288 46.3325 43.0906 46.0275 43.1832 45.6569C43.2759 45.2863 43.1885 44.8938 42.9471 44.5978C42.7627 44.393 42.5133 44.2576 42.241 44.2139L42.2411 44.2138Z" fill="white"/>
<path d="M50.1741 39H33.2387C32.5545 39 32 39.5545 32 40.2387V53.8096C32 54.138 32.1307 54.453 32.363 54.6853C32.5954 54.9177 32.9104 55.0483 33.2387 55.0483H41.0875V83.2314H36.7062C36.3641 83.2314 36.0871 83.5084 36.0871 83.8505C36.0871 84.1926 36.3641 84.4696 36.7062 84.4696H46.7045C47.0466 84.4696 47.3236 84.1926 47.3236 83.8505C47.3236 83.5084 47.0466 83.2314 46.7045 83.2314H42.3256V55.0483H50.1744C50.5032 55.0483 50.8182 54.9177 51.0501 54.6853C51.2824 54.453 51.4131 54.138 51.4131 53.8096V40.2387C51.4131 39.9104 51.2824 39.5954 51.0501 39.3631C50.8182 39.1307 50.5032 39 50.1744 39L50.1741 39ZM44.7371 46.6972H44.7376C44.5637 47.037 44.3109 47.3301 44.0006 47.552C43.7279 47.7482 43.4181 47.8875 43.0903 47.9606C42.4906 48.059 41.8834 48.1003 41.2757 48.0842H40.1363V51.3536L38.384 51.3541V42.6847H41.1954C41.8915 42.6567 42.5885 42.6999 43.276 42.8149C43.7777 42.9494 44.2186 43.2506 44.5265 43.6692C44.8781 44.1586 45.0549 44.7516 45.0283 45.3536C45.042 45.8183 44.9423 46.2797 44.7375 46.6973L44.7371 46.6972Z" fill="white"/>
</svg>
