<svg width="124" height="124" viewBox="0 0 124 124" fill="none" xmlns="http://www.w3.org/2000/svg">
<circle cx="62" cy="62" r="54" fill="#F36F6A"/>
<path d="M48.2248 62.0082L59.9807 55.216C60.9384 54.6936 62.0705 54.6936 63.0282 55.216L74.7841 62.0082C75.7419 62.5306 76.3516 63.5757 76.3516 64.6204V78.2041C76.3516 79.3362 75.7422 80.2939 74.7841 80.8163L63.0282 87.6085C62.0705 88.1309 60.9384 88.1309 59.9807 87.6085L48.2248 80.8163C47.2671 80.2939 46.6574 79.2488 46.6574 78.2041V64.6204C46.6574 63.5752 47.2668 62.5306 48.2248 62.0082ZM55.0167 81.2528L61.4605 76.6374L67.9043 81.3393L65.4661 73.7638L71.91 69.1488H63.9861L61.5478 61.5733L59.1096 69.1488H51.1857L57.6295 73.7638L55.0167 81.2528Z" fill="white"/>
<path d="M63.8995 53.7357L72.7816 35.972C72.9556 35.7106 73.2169 35.5366 73.5653 35.5366H88.4554C89.2392 35.5366 89.5875 36.4073 89.1522 36.9297L71.3885 58.0893L63.8995 53.7357Z" fill="white"/>
<path d="M34.467 35.4492H49.3571C49.7055 35.4492 49.9664 35.6232 50.1408 35.8846L59.0225 53.7355L51.5339 58.0021L33.7702 36.9297C33.3344 36.32 33.7702 35.4492 34.4665 35.4492L34.467 35.4492Z" fill="white"/>
</svg>
