<svg width="124" height="124" viewBox="0 0 124 124" fill="none" xmlns="http://www.w3.org/2000/svg">
<circle cx="62" cy="62" r="54" fill="#407CD0"/>
<path d="M86.9833 39.3032C79.0064 35.3453 70.9539 31.238 62.9772 27.2801C62.3694 26.9066 61.6858 26.9066 61.1538 27.2801C53.1013 31.3124 45.0485 35.4198 37.0718 39.3778C36.3882 39.6017 35.9324 40.3487 36.0082 41.0952V50.1315C36.0082 53.2679 36.0082 56.4793 36.084 59.6902C36.084 61.7066 36.2361 63.872 36.5397 65.814C37.4512 72.3108 39.8061 78.5091 43.2251 83.6619C47.7835 90.6818 53.7089 95.3866 60.6219 97.776C61.0776 97.9255 61.5334 98 62.0655 98C62.5212 98 62.9769 97.9255 63.4326 97.776C70.1938 95.5355 75.9672 90.9802 80.1457 84.6329C85.2356 77.3892 87.9705 68.4279 87.9705 59.1678V51.1027V41.096C88.1231 40.349 87.6674 39.5275 86.9838 39.3036L86.9833 39.3032ZM82.1213 63.1254C81.5135 69.3236 79.4621 75.1484 75.968 80.0772C72.6252 85.0806 67.9911 88.7399 62.6734 90.4573H62.5977V63.1254H82.1213ZM61.3818 34.5985V61.7065H41.9339C41.8581 59.0925 41.8581 49.6088 41.8581 44.6053V44.5308V44.3813L42.0102 44.3068C48.3909 41.0954 54.8485 37.8846 61.3822 34.5986L61.3818 34.5985Z" fill="white"/>
</svg>
