<svg width="124" height="124" viewBox="0 0 124 124" fill="none" xmlns="http://www.w3.org/2000/svg">
<circle cx="62" cy="62" r="54" fill="#59A397"/>
<path d="M90.4211 73.1753H87.2662V63.851C87.2662 63.1983 86.7355 62.6684 86.0818 62.6684H63.1839V54.4068C66.912 53.8344 69.7746 50.645 69.7746 46.7632C69.7746 42.4749 66.2932 39 62 39C57.7069 39 54.222 42.4749 54.222 46.7632C54.222 50.6465 57.0894 53.8329 60.8156 54.4068V62.6684H37.9177C37.2639 62.6684 36.7333 63.1983 36.7333 63.851V73.1753H33.5789C32.709 73.1753 32 73.8862 32 74.7519V83.4234C32 84.292 32.709 85 33.5789 85H42.2598C43.1297 85 43.8387 84.2921 43.8387 83.4234V74.7519C43.8387 73.8862 43.1298 73.1753 42.2598 73.1753H39.1021V65.0337H60.8152V73.1753H57.6575C56.7905 73.1753 56.0786 73.8862 56.0786 74.7519V83.4234C56.0786 84.292 56.7905 85 57.6575 85H66.3418C67.2087 85 67.9207 84.2921 67.9207 83.4234V74.7519C67.9207 73.8862 67.2088 73.1753 66.3418 73.1753H63.184V65.0337H84.8984V73.1753H81.7407C80.8708 73.1753 80.1618 73.8862 80.1618 74.7519V83.4234C80.1618 84.292 80.8707 85 81.7407 85H90.4211C91.291 85 92 84.2921 92 83.4234V74.7519C92 73.8862 91.2915 73.1753 90.4211 73.1753H90.4211Z" fill="white"/>
</svg>
