<svg width="124" height="124" viewBox="0 0 124 124" fill="none" xmlns="http://www.w3.org/2000/svg">
<circle cx="62" cy="62" r="54" fill="#9E86B3"/>
<path d="M45.9355 35.3775V54.6559C45.9355 55.4165 46.5519 56.0329 47.3126 56.0329H76.6891C77.4498 56.0329 78.0662 55.4165 78.0662 54.6559V35.3775C78.0662 34.6169 77.4498 34.0005 76.6891 34.0005H47.3126C46.5519 34.0005 45.9355 34.6169 45.9355 35.3775ZM48.6896 37.2135C48.6896 36.9599 48.8949 36.7545 49.1486 36.7545H74.8531C74.9748 36.7545 75.0916 36.8029 75.1777 36.889C75.2638 36.975 75.3121 37.0918 75.3121 37.2135V52.8198C75.3121 52.9416 75.2637 53.0584 75.1777 53.1444C75.0916 53.2305 74.9748 53.2789 74.8531 53.2789H49.1486C48.8949 53.2789 48.6896 53.0735 48.6896 52.8198V37.2135Z" fill="white"/>
<path d="M74.3929 49.363L69.3438 45.1586L65.1394 48.7655L65.9352 49.3216V49.322C66.143 49.4675 66.1934 49.754 66.0479 49.9618C65.9025 50.1696 65.616 50.22 65.4082 50.0745L58.3276 45.1172L49.6064 51.2221V52.3606H74.3929L74.3929 49.363Z" fill="white"/>
<path d="M70.7208 41.084C70.7208 41.591 70.3097 42.0021 69.8028 42.0021C69.2958 42.0021 68.8848 41.591 68.8848 41.084C68.8848 40.5771 69.2958 40.166 69.8028 40.166C70.3097 40.166 70.7208 40.5771 70.7208 41.084Z" fill="white"/>
<path d="M58.5911 44.1815L64.3636 48.2208L69.0455 44.2082C69.2152 44.0623 69.4656 44.0602 69.6377 44.2033L74.3929 48.1655V37.6729H49.6064V50.1033L58.0641 44.1821C58.2223 44.071 58.4329 44.071 58.5911 44.1821L58.5911 44.1815ZM69.8025 39.2481C70.2893 39.2481 70.7565 39.4415 71.1008 39.7857C71.4451 40.13 71.6385 40.5972 71.6385 41.0841C71.6385 41.571 71.4451 42.0382 71.1008 42.3824C70.7565 42.7267 70.2893 42.9201 69.8025 42.9201C69.3156 42.9201 68.8484 42.7267 68.5041 42.3824C68.1599 42.0382 67.9664 41.571 67.9664 41.0841C67.9664 40.5972 68.1599 40.13 68.5041 39.7857C68.8484 39.4415 69.3156 39.2481 69.8025 39.2481Z" fill="white"/>
<path d="M58.8495 62.3106C55.9974 63.1499 53.0397 63.5753 50.0668 63.5741C47.0964 63.5765 44.1403 63.1646 41.2842 62.3491C41.3219 62.5364 41.3424 62.7265 41.3456 62.9175C41.3428 63.6228 41.1059 64.3076 40.6719 64.8638C46.7783 66.8088 53.3395 66.7994 59.4403 64.8372C59.019 64.2855 58.79 63.6113 58.7875 62.9175C58.7887 62.7138 58.8092 62.5105 58.849 62.3105L58.8495 62.3106Z" fill="white"/>
<path d="M88.6234 87.2451H83.1153C82.3547 87.2451 81.7383 87.8615 81.7383 88.6221V89.9992H90.0004V88.6221C90.0004 87.8615 89.3841 87.2451 88.6234 87.2451Z" fill="white"/>
<path d="M84.4932 65.8081V86.3266H87.2472V65.8081C86.3796 66.2376 85.3608 66.2376 84.4932 65.8081Z" fill="white"/>
<path d="M88.1643 62.9181C88.1643 64.1857 87.1369 65.2131 85.8693 65.2131C84.6017 65.2131 83.5742 64.1857 83.5742 62.9181C83.5742 61.6505 84.6017 60.623 85.8693 60.623C87.1369 60.623 88.1643 61.6505 88.1643 62.9181Z" fill="white"/>
<path d="M34.001 88.6221V89.9992H42.2631V88.6221C42.2631 87.8615 41.6468 87.2451 40.8861 87.2451H35.378C34.6174 87.2451 34.001 87.8615 34.001 88.6221Z" fill="white"/>
<path d="M82.7136 62.349C79.8587 63.1642 76.9038 63.576 73.9346 63.5741C70.963 63.5749 68.0064 63.1495 65.1556 62.3105C65.1937 62.5105 65.2134 62.7138 65.2134 62.9175C65.211 63.6114 64.9819 64.2855 64.5605 64.8372C70.6616 66.7998 77.2229 66.8093 83.329 64.8638C82.895 64.3077 82.6581 63.6228 82.6553 62.9175C82.6573 62.7265 82.6766 62.5364 82.713 62.3491L82.7136 62.349Z" fill="white"/>
<path d="M64.2952 62.9181C64.2952 64.1857 63.2677 65.2131 62.0001 65.2131C60.7325 65.2131 59.7051 64.1857 59.7051 62.9181C59.7051 61.6505 60.7325 60.623 62.0001 60.623C63.2677 60.623 64.2952 61.6505 64.2952 62.9181Z" fill="white"/>
<path d="M38.1319 66.1317C37.6545 66.1288 37.184 66.019 36.7549 65.8096V86.3281H39.5089V65.8096C39.0798 66.019 38.6094 66.1288 38.1319 66.1317Z" fill="white"/>
<path d="M40.428 62.9181C40.428 64.1857 39.4005 65.2131 38.1329 65.2131C36.8653 65.2131 35.8379 64.1857 35.8379 62.9181C35.8379 61.6505 36.8653 60.623 38.1329 60.623C39.4005 60.623 40.428 61.6505 40.428 62.9181Z" fill="white"/>
<path d="M62.0001 66.1317C61.5226 66.1288 61.0521 66.019 60.623 65.8096V86.3281H63.3771V65.8096C62.948 66.019 62.4775 66.1288 62.0001 66.1317Z" fill="white"/>
<path d="M57.8682 88.6221V89.9992H66.1303V88.6221C66.1303 87.8615 65.5139 87.2451 64.7533 87.2451H59.2452C58.4845 87.2451 57.8682 87.8615 57.8682 88.6221Z" fill="white"/>
</svg>
