<svg width="124" height="124" viewBox="0 0 124 124" fill="none" xmlns="http://www.w3.org/2000/svg">
<circle cx="60" cy="62" r="54" fill="#63A9F8"/>
<circle cx="71.5" cy="60.5" r="4.5" fill="white"/>
<path fill-rule="evenodd" clip-rule="evenodd" d="M80 41H45V59H48.207C48.0722 59.4768 48 59.98 48 60.5C48 61.02 48.0722 61.5232 48.207 62H45H42V59V41V38H45H80H83V41V59V62H80H76.793C76.9278 61.5232 77 61.02 77 60.5C77 59.98 76.9278 59.4768 76.793 59H80V41ZM58.793 62H66.207C66.0722 61.5232 66 61.02 66 60.5C66 59.98 66.0722 59.4768 66.207 59H58.793C58.9278 59.4768 59 59.98 59 60.5C59 61.02 58.9278 61.5232 58.793 62Z" fill="white"/>
<circle cx="53.5" cy="60.5" r="4.5" fill="white"/>
<circle cx="80" cy="72" r="5" fill="white"/>
<path fill-rule="evenodd" clip-rule="evenodd" d="M75.8979 76.3784C73.621 77.2302 72 79.4257 72 81.9999V86.9999H88V81.9999C88 79.4257 86.379 77.2302 84.1021 76.3784C83.0292 77.384 81.5865 77.9997 80 77.9997C78.4135 77.9997 76.9708 77.384 75.8979 76.3784Z" fill="white"/>
<circle cx="62" cy="72" r="5" fill="white"/>
<path fill-rule="evenodd" clip-rule="evenodd" d="M57.8977 76.3789C55.6209 77.2308 54 79.4262 54 82.0003V87.0003H70V82.0003C70 79.4262 68.3791 77.2308 66.1023 76.3789C65.0293 77.3846 63.5866 78.0004 62 78.0004C60.4134 78.0004 58.9707 77.3846 57.8977 76.3789Z" fill="white"/>
<path fill-rule="evenodd" clip-rule="evenodd" d="M68.2727 72C68.2727 73.5367 67.6425 74.9385 66.6061 76H75.5278C74.5777 74.9385 74 73.5367 74 72C74 69.7792 75.2066 67.8401 77 66.8027V66H65V66.8027C66.9564 67.8401 68.2727 69.7792 68.2727 72Z" fill="white"/>
<circle cx="44" cy="72" r="5" fill="white"/>
<path fill-rule="evenodd" clip-rule="evenodd" d="M39.8978 76.3789C37.6209 77.2307 36 79.4262 36 82.0003V87.0003H52V82.0003C52 79.4262 50.3791 77.2307 48.1022 76.3789C47.0293 77.3845 45.5866 78.0003 44 78.0003C42.4134 78.0003 40.9707 77.3845 39.8978 76.3789Z" fill="white"/>
<path fill-rule="evenodd" clip-rule="evenodd" d="M48.6993 75.7309C48.863 75.8134 49.0223 75.9033 49.177 76H56.823C56.944 75.9243 57.0679 75.8529 57.1944 75.7858C56.2772 74.7532 55.7273 73.4355 55.7273 72C55.7273 69.7792 57.0436 67.8401 59 66.8027V66H47V66.8027C48.7934 67.8401 50 69.7792 50 72C50 73.4101 49.5136 74.7066 48.6993 75.7309Z" fill="white"/>
</svg>
