<svg width="124" height="124" viewBox="0 0 124 124" fill="none" xmlns="http://www.w3.org/2000/svg">
<circle cx="62" cy="62" r="54" fill="#63A9F8"/>
<path fill-rule="evenodd" clip-rule="evenodd" d="M62.3931 51.2362C63.482 50.3064 64.1724 48.9236 64.1724 47.3795C64.1724 44.58 61.903 42.3105 59.1034 42.3105C56.3039 42.3105 54.0345 44.58 54.0345 47.3795C54.0345 48.9236 54.7249 50.3064 55.8138 51.2361C52.7063 52.0508 50.4138 54.8783 50.4138 58.2413H67.7931C67.7931 54.8783 65.5006 52.0508 62.3931 51.2362Z" fill="white"/>
<path fill-rule="evenodd" clip-rule="evenodd" d="M75.7586 50.2757C79.7579 50.2757 83 47.0337 83 43.0343C83 39.035 79.7579 35.793 75.7586 35.793C71.7593 35.793 68.5172 39.035 68.5172 43.0343C68.5172 44.0245 68.716 44.9683 69.0757 45.8279L67.7931 50.6378L71.908 49.1682C73.0234 49.8699 74.3436 50.2757 75.7586 50.2757Z" fill="white"/>
<circle cx="71.431" cy="81.431" r="5.43103" fill="white"/>
<circle cx="47.431" cy="81.431" r="5.43103" fill="white"/>
<circle cx="59.431" cy="81.431" r="5.43103" fill="white"/>
<path fill-rule="evenodd" clip-rule="evenodd" d="M46.069 59.6895C45.2691 59.6895 44.6207 60.3379 44.6207 61.1377C44.6207 61.9376 45.2691 62.586 46.069 62.586H46.7931V71.9998H48.661C49.6924 70.0903 51.712 68.793 54.0345 68.793C56.3571 68.793 58.3766 70.0903 59.4081 71.9998H59.5229C60.5544 70.0902 62.574 68.7929 64.8966 68.7929C67.2192 68.7929 69.2387 70.0902 70.2702 71.9998H72.138V62.586H72.8621C73.6619 62.586 74.3104 61.9376 74.3104 61.1377C74.3104 60.3379 73.6619 59.6895 72.8621 59.6895H46.069Z" fill="white"/>
<path fill-rule="evenodd" clip-rule="evenodd" d="M59.83 75.0546C62.3427 75.3505 64.4944 76.8262 65.7159 78.9126C66.5616 77.1945 68.0911 75.8737 69.9493 75.3052C69.9601 75.1704 69.9655 75.0341 69.9655 74.8966C69.9655 72.0971 67.6961 69.8276 64.8966 69.8276C62.0971 69.8276 59.8276 72.0971 59.8276 74.8966C59.8276 74.9495 59.8284 75.0021 59.83 75.0546Z" fill="white"/>
<path fill-rule="evenodd" clip-rule="evenodd" d="M59.1024 75.0014C56.612 75.0483 54.4292 76.3524 53.1621 78.3055C52.279 76.7437 50.7684 75.5836 48.9726 75.1676C48.9679 75.0779 48.9655 74.9875 48.9655 74.8966C48.9655 72.0971 51.235 69.8276 54.0345 69.8276C56.834 69.8276 59.1034 72.0971 59.1034 74.8966C59.1034 74.9316 59.1031 74.9666 59.1024 75.0014Z" fill="white"/>
</svg>
