<svg width="124" height="124" viewBox="0 0 124 124" fill="none" xmlns="http://www.w3.org/2000/svg">
<circle cx="62" cy="62" r="54" fill="#D66EB8"/>
<path d="M79.5 49.75H39.25V44.5C39.25 44.0359 39.0656 43.5908 38.7374 43.2626C38.4092 42.9344 37.9641 42.75 37.5 42.75C37.0359 42.75 36.5908 42.9344 36.2626 43.2626C35.9344 43.5908 35.75 44.0359 35.75 44.5V79.5C35.75 79.9641 35.9344 80.4092 36.2626 80.7374C36.5908 81.0656 37.0359 81.25 37.5 81.25C37.9641 81.25 38.4092 81.0656 38.7374 80.7374C39.0656 80.4092 39.25 79.9641 39.25 79.5V72.5H84.75V79.5C84.75 79.9641 84.9344 80.4092 85.2626 80.7374C85.5908 81.0656 86.0359 81.25 86.5 81.25C86.9641 81.25 87.4092 81.0656 87.7374 80.7374C88.0656 80.4092 88.25 79.9641 88.25 79.5V58.5C88.2474 56.1802 87.3247 53.9561 85.6843 52.3157C84.0439 50.6753 81.8198 49.7526 79.5 49.75ZM39.25 53.25H55V69H39.25V53.25Z" fill="white"/>
</svg>
