<svg width="124" height="124" viewBox="0 0 124 124" fill="none" xmlns="http://www.w3.org/2000/svg">
<circle cx="62" cy="62" r="54" fill="#AD7147"/>
<path fill-rule="evenodd" clip-rule="evenodd" d="M59.7688 53.023H76.3592C77.825 53.023 79.0295 54.2227 79.0295 55.6885V68.3394L73.2596 72.3772C73.1383 72.167 72.9981 71.9617 72.8303 71.7656C71.8407 70.6031 70.4308 70.3512 68.993 70.6641L68.8855 70.6875V69.0864C69.7865 68.7504 70.426 67.8867 70.426 66.8692C70.426 65.5619 69.3665 64.5072 68.0641 64.5072C66.7568 64.5072 65.7021 65.5623 65.7021 66.8692C65.7021 67.887 66.3416 68.7504 67.2426 69.0864V71.0469L62.0096 72.1812C60.427 71.1823 58.8073 70.3141 57.0986 69.7396V63.8112C57.234 63.7692 57.3601 63.6992 57.4721 63.6103C57.673 63.7692 57.9249 63.867 58.2005 63.867H59.6942C59.8854 63.867 60.0677 63.825 60.2265 63.7409C60.3854 63.825 60.5673 63.867 60.7589 63.867H62.1918C62.5795 63.867 62.9106 63.6989 63.1394 63.3864L64.325 61.7711C64.6286 61.3511 64.6286 60.8046 64.325 60.3846L63.1394 58.7648C62.9106 58.452 62.5791 58.2842 62.1918 58.2842L57.099 58.289V55.689C57.099 54.2232 58.3032 53.0235 59.7693 53.0235L59.7688 53.023ZM60.399 48.9432V46.8566C60.399 43.1081 62.4016 40.6901 64.9692 39.6161C65.9495 39.2054 67.0093 39 68.0643 39C69.1145 39 70.1744 39.2054 71.1595 39.6161C73.7271 40.6897 75.7297 43.1078 75.7297 46.8566V51.9683H72.5508V46.8566C72.5508 44.5925 71.4072 43.1595 69.9411 42.5431C69.3575 42.3002 68.7135 42.1789 68.0647 42.1789C67.4158 42.1789 66.7716 42.3002 66.1882 42.5431C64.7224 43.1591 63.5741 44.5925 63.5741 46.8566V48.9432H60.399ZM48.738 65.725C50.736 65.725 52.4398 64.4646 53.0979 62.6953H56.7392V61.7943H58.2004V62.6953H59.6941L60.1703 61.8412L60.7584 62.6953H62.1914L63.3771 61.0755L62.1914 59.4558H53.0982C52.4401 57.6865 50.7363 56.4261 48.7382 56.4261C46.1706 56.4261 44.0888 58.5082 44.0888 61.0755C44.0888 63.6432 46.1709 65.725 48.7382 65.725H48.738ZM48.738 63.1294C49.8723 63.1294 50.7919 62.2098 50.7919 61.0755C50.7919 59.9412 49.8723 59.0216 48.738 59.0216C47.6036 59.0216 46.6841 59.9412 46.6841 61.0755C46.6841 62.2098 47.6036 63.1294 48.738 63.1294ZM48.0423 71.5179C52.3137 70.2341 55.6046 69.9681 61.6822 73.9639L69.3471 72.2973C71.5178 71.8259 71.9612 73.3709 72.3113 74.4914L62.8911 79.2576C62.1441 79.743 62.6579 80.5365 63.2598 80.2657L73.3618 75.1915L73.6278 74.1599L82.1427 68.1987C84.0894 66.8356 84.5467 68.3762 84.9997 69.4171L75.6593 78.8701L65.6928 84.005C64.3718 84.6821 63.0646 84.9198 61.5896 84.7565L48.0425 83.216V71.518L48.0423 71.5179ZM39 71.3873H46.8706V84.9992H39V71.3873Z" fill="white"/>
<path d="M39.0151 85.0689C39.0141 85.0699 39.0132 85.0702 39.0125 85.0702H39.01C39.0074 85.0702 39.0051 85.0699 39.0035 85.0689C39.0016 85.0673 39.001 85.0648 39.001 85.0612C39.001 85.0587 39.0016 85.0567 39.0035 85.0548C39.0051 85.0532 39.0074 85.0522 39.01 85.0522C39.0106 85.0522 39.0116 85.0529 39.0125 85.0535H39.0151V85.0574C39.0141 85.0567 39.0132 85.0561 39.0125 85.0561H39.01C39.009 85.0561 39.008 85.0567 39.0074 85.0574C39.0064 85.0583 39.0061 85.0596 39.0061 85.0612C39.0061 85.0632 39.0064 85.0648 39.0074 85.0664C39.008 85.0673 39.009 85.0676 39.01 85.0676H39.0125C39.0132 85.067 39.0141 85.0664 39.0151 85.0664V85.0689Z" fill="white"/>
<path d="M39.0298 85.0618H39.0284C39.0284 85.0611 39.0277 85.0604 39.027 85.0604C39.0259 85.0604 39.0249 85.0611 39.0242 85.0618V85.0646V85.0716H39.0186V85.0576H39.0242V85.0604C39.0242 85.0597 39.0245 85.059 39.0256 85.059C39.0263 85.0583 39.0273 85.0576 39.0284 85.0576H39.0298V85.0618Z" fill="white"/>
<path d="M39.0443 85.0646V85.066H39.0345V85.0688H39.0387H39.0415C39.0422 85.0681 39.0432 85.0674 39.0443 85.0674V85.0702C39.0432 85.0713 39.0422 85.0716 39.0415 85.0716H39.0387C39.0359 85.0716 39.0334 85.0713 39.0317 85.0702C39.0306 85.0685 39.0303 85.0667 39.0303 85.0646C39.0303 85.0629 39.0306 85.0615 39.0317 85.0604C39.0334 85.0587 39.0352 85.0576 39.0373 85.0576C39.0401 85.0576 39.0418 85.0587 39.0429 85.0604C39.0436 85.0615 39.0443 85.0629 39.0443 85.0646H39.0443ZM39.0401 85.0632C39.0401 85.0625 39.0394 85.0618 39.0387 85.0618C39.0387 85.0611 39.038 85.0604 39.0373 85.0604C39.0362 85.0604 39.0352 85.0611 39.0345 85.0618V85.0632H39.0401Z" fill="white"/>
<path d="M39.0529 85.0646C39.0519 85.0646 39.0508 85.0653 39.0501 85.066V85.0674V85.0688H39.0515H39.0543C39.055 85.0681 39.0557 85.0671 39.0557 85.066V85.0646H39.0529ZM39.0599 85.0632V85.0716H39.0557V85.0702C39.0547 85.0702 39.0536 85.0709 39.0529 85.0716H39.0501H39.0473C39.0462 85.0709 39.0459 85.0695 39.0459 85.0674C39.0459 85.0657 39.0462 85.0646 39.0473 85.0646C39.048 85.0639 39.0501 85.0632 39.0529 85.0632H39.0557V85.0618H39.0543C39.0543 85.0611 39.0533 85.0604 39.0515 85.0604H39.0487C39.0477 85.0604 39.0473 85.0611 39.0473 85.0618V85.0576H39.0501H39.0529C39.0557 85.0576 39.0575 85.0583 39.0585 85.059C39.0592 85.0601 39.0599 85.0615 39.0599 85.0632Z" fill="white"/>
<path d="M39.066 85.0537V85.0576H39.0698V85.0601H39.066V85.0665V85.0678H39.0673H39.0698V85.0704H39.066C39.0641 85.0704 39.0628 85.0701 39.0621 85.0691V85.0665V85.0601H39.0596V85.0576H39.0621V85.0537H39.066Z" fill="white"/>
<path d="M39.0873 85.0646V85.066H39.0774V85.0688H39.0817H39.0845C39.0852 85.0681 39.0862 85.0674 39.0873 85.0674V85.0702C39.0862 85.0713 39.0852 85.0716 39.0845 85.0716H39.0817C39.0789 85.0716 39.0764 85.0713 39.0746 85.0702C39.0736 85.0685 39.0732 85.0667 39.0732 85.0646C39.0732 85.0629 39.0736 85.0615 39.0746 85.0604C39.0764 85.0587 39.0782 85.0576 39.0803 85.0576C39.0831 85.0576 39.0848 85.0587 39.0859 85.0604C39.0866 85.0615 39.0873 85.0629 39.0873 85.0646H39.0873ZM39.0831 85.0632C39.0831 85.0625 39.0824 85.0618 39.0817 85.0618C39.0817 85.0611 39.081 85.0604 39.0803 85.0604C39.0792 85.0604 39.0782 85.0611 39.0774 85.0618V85.0632H39.0831Z" fill="white"/>
<path d="M39.0979 85.0587V85.0522H39.1017V85.0702H39.0979V85.0689C39.0979 85.0689 39.0972 85.0696 39.0966 85.0702H39.094C39.0921 85.0702 39.0908 85.0699 39.0902 85.0689C39.0892 85.0673 39.0889 85.0657 39.0889 85.0638C39.0889 85.0622 39.0892 85.0609 39.0902 85.0599C39.0908 85.0583 39.0921 85.0574 39.094 85.0574C39.0946 85.0574 39.0956 85.058 39.0966 85.0587H39.0979ZM39.0953 85.0676H39.0966C39.0972 85.067 39.0979 85.0657 39.0979 85.0638C39.0979 85.0632 39.0972 85.0622 39.0966 85.0612C39.0966 85.0606 39.0959 85.0599 39.0953 85.0599C39.0943 85.0599 39.0934 85.0606 39.0927 85.0612V85.0638V85.0676H39.0953Z" fill="white"/>
<path d="M39.121 85.0676H39.1223C39.1229 85.067 39.1235 85.0657 39.1235 85.0638C39.1235 85.0632 39.1229 85.0622 39.1223 85.0612C39.1223 85.0606 39.1216 85.0599 39.121 85.0599C39.12 85.0599 39.1191 85.0606 39.1184 85.0612V85.0638V85.0664C39.1191 85.0673 39.12 85.0676 39.121 85.0676ZM39.1184 85.0587H39.1197C39.1203 85.058 39.1213 85.0574 39.1223 85.0574C39.1239 85.0574 39.1252 85.0583 39.1261 85.0599C39.1268 85.0609 39.1274 85.0622 39.1274 85.0638C39.1274 85.0657 39.1268 85.0673 39.1261 85.0689C39.1252 85.0699 39.1239 85.0702 39.1223 85.0702H39.1197C39.1187 85.0696 39.1184 85.0689 39.1184 85.0689V85.0702H39.1133V85.0522H39.1184V85.0587Z" fill="white"/>
<path d="M39.1279 85.0576H39.1318L39.1356 85.0666L39.1382 85.0576H39.1433L39.1369 85.0717C39.1369 85.0733 39.1363 85.0743 39.1356 85.0743C39.1347 85.0749 39.1337 85.0756 39.1331 85.0756H39.1305V85.073H39.1318C39.1324 85.073 39.1331 85.0724 39.1331 85.0717H39.1343V85.0705L39.1279 85.0576Z" fill="white"/>
<path d="M39.1594 85.0692V85.0756H39.1543V85.0576H39.1594V85.0589H39.1607C39.1614 85.0583 39.1623 85.0576 39.1633 85.0576C39.1649 85.0576 39.1662 85.0586 39.1671 85.0602C39.1678 85.0611 39.1684 85.0624 39.1684 85.064C39.1684 85.066 39.1678 85.0676 39.1671 85.0692C39.1662 85.0701 39.1649 85.0705 39.1633 85.0705H39.1607C39.1598 85.0698 39.1594 85.0692 39.1594 85.0692ZM39.162 85.0602C39.161 85.0602 39.1601 85.0608 39.1594 85.0615V85.064V85.0666C39.1601 85.0676 39.161 85.0679 39.162 85.0679H39.1633C39.1639 85.0672 39.1646 85.066 39.1646 85.064C39.1646 85.0634 39.1639 85.0624 39.1633 85.0615C39.1633 85.0608 39.1626 85.0602 39.162 85.0602Z" fill="white"/>
<path d="M39.1769 85.0604C39.1759 85.0604 39.1748 85.0611 39.1741 85.0618V85.0646V85.0688H39.1769H39.1797C39.1804 85.0681 39.1811 85.0667 39.1811 85.0646C39.1811 85.0629 39.1804 85.0618 39.1797 85.0618C39.1787 85.0611 39.1776 85.0604 39.1769 85.0604ZM39.1769 85.0576C39.1797 85.0576 39.1815 85.0587 39.1825 85.0604C39.1843 85.0615 39.1853 85.0629 39.1853 85.0646C39.1853 85.0667 39.1843 85.0685 39.1825 85.0702C39.1815 85.0713 39.1797 85.0716 39.1769 85.0716C39.1748 85.0716 39.1731 85.0713 39.1713 85.0702C39.1703 85.0685 39.1699 85.0667 39.1699 85.0646C39.1699 85.0629 39.1703 85.0615 39.1713 85.0604C39.1731 85.0587 39.1748 85.0576 39.1769 85.0576Z" fill="white"/>
<path d="M39.1917 85.0692V85.0756H39.1865V85.0576H39.1917V85.0589H39.1929C39.1936 85.0583 39.1945 85.0576 39.1955 85.0576C39.1971 85.0576 39.1984 85.0586 39.1994 85.0602C39.2 85.0611 39.2006 85.0624 39.2006 85.064C39.2006 85.066 39.2 85.0676 39.1994 85.0692C39.1984 85.0701 39.1971 85.0705 39.1955 85.0705H39.1929C39.192 85.0698 39.1917 85.0692 39.1917 85.0692ZM39.1942 85.0602C39.1933 85.0602 39.1923 85.0608 39.1917 85.0615V85.064V85.0666C39.1923 85.0676 39.1933 85.0679 39.1942 85.0679H39.1955C39.1961 85.0672 39.1968 85.066 39.1968 85.064C39.1968 85.0634 39.1961 85.0624 39.1955 85.0615C39.1955 85.0608 39.1949 85.0602 39.1942 85.0602Z" fill="white"/>
<path d="M39.2148 85.0576V85.0618H39.212C39.212 85.0611 39.2113 85.0604 39.2106 85.0604C39.2095 85.0604 39.2085 85.0611 39.2078 85.0618C39.2067 85.0629 39.2064 85.0639 39.2064 85.0646C39.2064 85.0657 39.2067 85.0667 39.2078 85.0674C39.2085 85.0685 39.2095 85.0688 39.2106 85.0688H39.212C39.2127 85.0681 39.2137 85.0674 39.2148 85.0674V85.0716H39.212H39.2106C39.2078 85.0716 39.2053 85.0713 39.2036 85.0702C39.2025 85.0685 39.2021 85.0667 39.2021 85.0646C39.2021 85.0629 39.2025 85.0615 39.2036 85.0604C39.2053 85.0587 39.2078 85.0576 39.2106 85.0576H39.212H39.2148Z" fill="white"/>
<path d="M39.2228 85.0604C39.2218 85.0604 39.2207 85.0611 39.22 85.0618V85.0646V85.0688H39.2228H39.2256C39.2263 85.0681 39.227 85.0667 39.227 85.0646C39.227 85.0629 39.2263 85.0618 39.2256 85.0618C39.2246 85.0611 39.2235 85.0604 39.2228 85.0604ZM39.2228 85.0576C39.2256 85.0576 39.2274 85.0587 39.2284 85.0604C39.2302 85.0615 39.2312 85.0629 39.2312 85.0646C39.2312 85.0667 39.2302 85.0685 39.2284 85.0702C39.2274 85.0713 39.2256 85.0716 39.2228 85.0716C39.2207 85.0716 39.219 85.0713 39.2172 85.0702C39.2162 85.0685 39.2158 85.0667 39.2158 85.0646C39.2158 85.0629 39.2162 85.0615 39.2172 85.0604C39.219 85.0587 39.2207 85.0576 39.2228 85.0576Z" fill="white"/>
<path d="M39.2446 85.0618H39.2432C39.2432 85.0611 39.2425 85.0604 39.2418 85.0604C39.2408 85.0604 39.2397 85.0611 39.239 85.0618V85.0646V85.0716H39.2334V85.0576H39.239V85.0604C39.239 85.0597 39.2394 85.059 39.2404 85.059C39.2411 85.0583 39.2422 85.0576 39.2432 85.0576H39.2446V85.0618Z" fill="white"/>
<path d="M39.2596 85.0632V85.0716H39.254V85.0646V85.0632V85.0618H39.2526V85.0604C39.2515 85.0604 39.2505 85.0611 39.2497 85.0618V85.0646V85.0716H39.2441V85.0576H39.2497V85.059H39.2512C39.2519 85.0583 39.2529 85.0576 39.254 85.0576C39.2557 85.0576 39.2571 85.0583 39.2582 85.059C39.2589 85.0601 39.2596 85.0615 39.2596 85.0632Z" fill="white"/>
<path d="M39.2687 85.0646C39.2677 85.0646 39.2666 85.0653 39.2659 85.066V85.0674V85.0688H39.2673H39.2701C39.2708 85.0681 39.2715 85.0671 39.2715 85.066V85.0646H39.2687ZM39.2757 85.0632V85.0716H39.2715V85.0702C39.2705 85.0702 39.2694 85.0709 39.2687 85.0716H39.2659H39.2631C39.2621 85.0709 39.2617 85.0695 39.2617 85.0674C39.2617 85.0657 39.2621 85.0646 39.2631 85.0646C39.2638 85.0639 39.2659 85.0632 39.2687 85.0632H39.2715V85.0618H39.2701C39.2701 85.0611 39.2691 85.0604 39.2673 85.0604H39.2645C39.2635 85.0604 39.2631 85.0611 39.2631 85.0618V85.0576H39.2659H39.2687C39.2715 85.0576 39.2733 85.0583 39.2743 85.059C39.275 85.0601 39.2757 85.0615 39.2757 85.0632Z" fill="white"/>
<path d="M39.2886 85.0618H39.2872C39.2872 85.0611 39.2865 85.0604 39.2858 85.0604C39.2847 85.0604 39.2837 85.0611 39.283 85.0618V85.0646V85.0716H39.2773V85.0576H39.283V85.0604C39.283 85.0597 39.2833 85.059 39.2844 85.059C39.2851 85.0583 39.2861 85.0576 39.2872 85.0576H39.2886V85.0618Z" fill="white"/>
<path d="M39.2926 85.0537V85.0576H39.2964V85.0601H39.2926V85.0665V85.0678H39.2938H39.2964V85.0704H39.2926C39.2906 85.0704 39.2893 85.0701 39.2887 85.0691V85.0665V85.0601H39.2861V85.0576H39.2887V85.0537H39.2926Z" fill="white"/>
<path d="M39.311 85.0576V85.0618C39.31 85.0611 39.3089 85.0604 39.3082 85.0604H39.3054H39.304V85.0618V85.0632H39.3054H39.3068C39.3086 85.0632 39.31 85.0639 39.311 85.0646C39.3117 85.0646 39.3124 85.0657 39.3124 85.0674C39.3124 85.0695 39.3117 85.0709 39.311 85.0716H39.3054H39.3026H39.2998V85.0674C39.3005 85.0685 39.3016 85.0688 39.3026 85.0688H39.3054H39.3068C39.3075 85.0688 39.3082 85.0685 39.3082 85.0674H39.3068C39.3068 85.0667 39.3061 85.066 39.3054 85.066C39.3033 85.066 39.3019 85.0657 39.3012 85.0646C39.3002 85.0639 39.2998 85.0629 39.2998 85.0618C39.2998 85.0601 39.3002 85.059 39.3012 85.059C39.3019 85.0583 39.3033 85.0576 39.3054 85.0576H39.3082H39.311Z" fill="white"/>
<path d="M39.0103 85.0762V85.0787H39.0077C39.0077 85.0787 39.0071 85.0794 39.0064 85.08V85.0813H39.0103V85.0839H39.0064V85.0941H39.0026V85.0839H39V85.0813H39.0026V85.08C39.0026 85.0794 39.0029 85.0784 39.0039 85.0775C39.0045 85.0768 39.0058 85.0762 39.0077 85.0762H39.0103Z" fill="white"/>
<path d="M39.0229 85.0853H39.0215C39.0215 85.0846 39.0208 85.0839 39.0201 85.0839C39.0191 85.0839 39.018 85.0846 39.0173 85.0853V85.0881V85.0951H39.0117V85.0811H39.0173V85.0839C39.0173 85.0832 39.0177 85.0825 39.0187 85.0825C39.0194 85.0818 39.0205 85.0811 39.0215 85.0811H39.0229V85.0853Z" fill="white"/>
<path d="M39.0295 85.0839C39.0284 85.0839 39.0274 85.0846 39.0267 85.0853V85.0881V85.0923H39.0295H39.0323C39.033 85.0916 39.0337 85.0902 39.0337 85.0881C39.0337 85.0863 39.033 85.0853 39.0323 85.0853C39.0312 85.0846 39.0302 85.0839 39.0295 85.0839ZM39.0295 85.0811C39.0323 85.0811 39.034 85.0821 39.0351 85.0839C39.0368 85.0849 39.0379 85.0863 39.0379 85.0881C39.0379 85.0902 39.0368 85.0919 39.0351 85.0937C39.034 85.0947 39.0323 85.0951 39.0295 85.0951C39.0274 85.0951 39.0256 85.0947 39.0239 85.0937C39.0228 85.0919 39.0225 85.0902 39.0225 85.0881C39.0225 85.0863 39.0228 85.0849 39.0239 85.0839C39.0256 85.0821 39.0274 85.0811 39.0295 85.0811Z" fill="white"/>
<path d="M39.0509 85.0836C39.0509 85.083 39.0512 85.0823 39.0522 85.0823C39.0528 85.0817 39.0538 85.0811 39.0548 85.0811C39.0564 85.0811 39.0577 85.0817 39.0586 85.0823C39.0593 85.0833 39.0599 85.0846 39.0599 85.0862V85.0939H39.0548V85.0875V85.0862V85.0849C39.0548 85.0843 39.0541 85.0836 39.0535 85.0836C39.0525 85.0836 39.0516 85.0843 39.0509 85.0849V85.0875V85.0939H39.0471V85.0875C39.0471 85.0859 39.0464 85.0849 39.0458 85.0849V85.0836C39.0448 85.0836 39.0439 85.0843 39.0432 85.0849V85.0875V85.0939H39.0381V85.0811H39.0432V85.0823H39.0445C39.0451 85.0817 39.0461 85.0811 39.0471 85.0811C39.0477 85.0811 39.0484 85.0817 39.0484 85.0823C39.049 85.0823 39.05 85.083 39.0509 85.0836Z" fill="white"/>
<path d="M39.0767 85.0771V85.081H39.0806V85.0836H39.0767V85.09V85.0913H39.078H39.0806V85.0938H39.0767C39.0748 85.0938 39.0735 85.0935 39.0729 85.0926V85.09V85.0836H39.0703V85.081H39.0729V85.0771H39.0767Z" fill="white"/>
<path d="M39.0961 85.086V85.0937H39.091V85.0872V85.086V85.0847H39.0897V85.0834C39.0888 85.0834 39.0878 85.084 39.0872 85.0847V85.0872V85.0937H39.082V85.0757H39.0872V85.0821H39.0884C39.0891 85.0815 39.0901 85.0808 39.091 85.0808C39.0926 85.0808 39.0939 85.0815 39.0949 85.0821C39.0955 85.0831 39.0961 85.0843 39.0961 85.086Z" fill="white"/>
<path d="M39.1136 85.0881V85.0895H39.1038V85.0923H39.108H39.1108C39.1115 85.0916 39.1126 85.0909 39.1136 85.0909V85.0937C39.1126 85.0947 39.1115 85.0951 39.1108 85.0951H39.108C39.1052 85.0951 39.1028 85.0947 39.101 85.0937C39.1 85.0919 39.0996 85.0902 39.0996 85.0881C39.0996 85.0863 39.1 85.0849 39.101 85.0839C39.1028 85.0821 39.1045 85.0811 39.1066 85.0811C39.1094 85.0811 39.1112 85.0821 39.1122 85.0839C39.1129 85.0849 39.1136 85.0863 39.1136 85.0881H39.1136ZM39.1094 85.0867C39.1094 85.086 39.1087 85.0853 39.108 85.0853C39.108 85.0846 39.1073 85.0839 39.1066 85.0839C39.1056 85.0839 39.1045 85.0846 39.1038 85.0853V85.0867H39.1094Z" fill="white"/>
<path d="M39.125 85.0771H39.1289L39.1353 85.0887V85.0771H39.1404V85.0938H39.1353L39.1289 85.0823V85.0938H39.125V85.0771Z" fill="white"/>
<path d="M39.1506 85.0839C39.1495 85.0839 39.1485 85.0846 39.1478 85.0853V85.0881V85.0923H39.1506H39.1534C39.1541 85.0916 39.1548 85.0902 39.1548 85.0881C39.1548 85.0863 39.1541 85.0853 39.1534 85.0853C39.1523 85.0846 39.1513 85.0839 39.1506 85.0839ZM39.1506 85.0811C39.1534 85.0811 39.1551 85.0821 39.1562 85.0839C39.1579 85.0849 39.159 85.0863 39.159 85.0881C39.159 85.0902 39.1579 85.0919 39.1562 85.0937C39.1551 85.0947 39.1534 85.0951 39.1506 85.0951C39.1485 85.0951 39.1467 85.0947 39.145 85.0937C39.1439 85.0919 39.1436 85.0902 39.1436 85.0881C39.1436 85.0863 39.1439 85.0849 39.145 85.0839C39.1467 85.0821 39.1485 85.0811 39.1506 85.0811Z" fill="white"/>
<path d="M39.1592 85.0895V85.0811H39.1648V85.0825V85.0853V85.0881V85.0909V85.0923H39.1662C39.1669 85.0923 39.1676 85.0919 39.1676 85.0909C39.1683 85.0902 39.169 85.0891 39.169 85.0881V85.0811H39.1732V85.0951H39.169V85.0937C39.1679 85.0937 39.1669 85.0944 39.1662 85.0951H39.1648C39.1627 85.0951 39.1613 85.0947 39.1606 85.0937C39.1595 85.093 39.1592 85.0916 39.1592 85.0895Z" fill="white"/>
<path d="M39.1902 85.0867V85.0951H39.1846V85.0881V85.0867V85.0853H39.1832V85.0839C39.1822 85.0839 39.1811 85.0846 39.1804 85.0853V85.0881V85.0951H39.1748V85.0811H39.1804V85.0825H39.1818C39.1825 85.0818 39.1836 85.0811 39.1846 85.0811C39.1864 85.0811 39.1878 85.0818 39.1888 85.0825C39.1895 85.0835 39.1902 85.0849 39.1902 85.0867Z" fill="white"/>
<path d="M39.2021 85.0771H39.2086C39.2111 85.0771 39.2127 85.0778 39.2137 85.0784C39.2153 85.0794 39.2163 85.0807 39.2163 85.0823C39.2163 85.0842 39.2153 85.0855 39.2137 85.0861C39.2127 85.0871 39.2111 85.0874 39.2086 85.0874H39.206V85.0938H39.2021V85.0771ZM39.206 85.0797V85.0848H39.2086H39.2098C39.2105 85.0842 39.2111 85.0832 39.2111 85.0823C39.2111 85.0816 39.2105 85.081 39.2098 85.081C39.2098 85.0804 39.2092 85.0797 39.2086 85.0797H39.206Z" fill="white"/>
<path d="M39.228 85.0853H39.2266C39.2266 85.0846 39.2259 85.0839 39.2252 85.0839C39.2242 85.0839 39.2231 85.0846 39.2224 85.0853V85.0881V85.0951H39.2168V85.0811H39.2224V85.0839C39.2224 85.0832 39.2228 85.0825 39.2238 85.0825C39.2245 85.0818 39.2256 85.0811 39.2266 85.0811H39.228V85.0853Z" fill="white"/>
<path d="M39.2365 85.0839C39.2355 85.0839 39.2344 85.0846 39.2337 85.0853V85.0881V85.0923H39.2365H39.2393C39.24 85.0916 39.2407 85.0902 39.2407 85.0881C39.2407 85.0863 39.24 85.0853 39.2393 85.0853C39.2383 85.0846 39.2372 85.0839 39.2365 85.0839ZM39.2365 85.0811C39.2393 85.0811 39.2411 85.0821 39.2421 85.0839C39.2439 85.0849 39.2449 85.0863 39.2449 85.0881C39.2449 85.0902 39.2439 85.0919 39.2421 85.0937C39.2411 85.0947 39.2393 85.0951 39.2365 85.0951C39.2344 85.0951 39.2326 85.0947 39.2309 85.0937C39.2298 85.0919 39.2295 85.0902 39.2295 85.0881C39.2295 85.0863 39.2298 85.0849 39.2309 85.0839C39.2326 85.0821 39.2344 85.0811 39.2365 85.0811Z" fill="white"/>
<path d="M39.2448 85.0813H39.2499V85.0941C39.2499 85.0957 39.2492 85.097 39.2486 85.098C39.2476 85.0986 39.2464 85.0993 39.2448 85.0993H39.2422V85.0967H39.2435C39.2441 85.0967 39.2448 85.0961 39.2448 85.0954V85.0941V85.0813ZM39.2448 85.0762H39.2499V85.08H39.2448V85.0762Z" fill="white"/>
<path d="M39.266 85.0881V85.0895H39.2562V85.0923H39.2604H39.2632C39.2639 85.0916 39.2649 85.0909 39.266 85.0909V85.0937C39.2649 85.0947 39.2639 85.0951 39.2632 85.0951H39.2604C39.2576 85.0951 39.2551 85.0947 39.2534 85.0937C39.2523 85.0919 39.252 85.0902 39.252 85.0881C39.252 85.0863 39.2523 85.0849 39.2534 85.0839C39.2551 85.0821 39.2569 85.0811 39.259 85.0811C39.2618 85.0811 39.2635 85.0821 39.2646 85.0839C39.2653 85.0849 39.266 85.0863 39.266 85.0881H39.266ZM39.2618 85.0867C39.2618 85.086 39.2611 85.0853 39.2604 85.0853C39.2604 85.0846 39.2597 85.0839 39.259 85.0839C39.2579 85.0839 39.2569 85.0846 39.2562 85.0853V85.0867H39.2618Z" fill="white"/>
<path d="M39.2812 85.0811V85.0853H39.2784C39.2784 85.0846 39.2777 85.0839 39.277 85.0839C39.2759 85.0839 39.2749 85.0846 39.2742 85.0853C39.2731 85.0863 39.2728 85.0874 39.2728 85.0881C39.2728 85.0891 39.2731 85.0902 39.2742 85.0909C39.2749 85.0919 39.2759 85.0923 39.277 85.0923H39.2784C39.2791 85.0916 39.2801 85.0909 39.2812 85.0909V85.0951H39.2784H39.277C39.2742 85.0951 39.2717 85.0947 39.27 85.0937C39.2689 85.0919 39.2686 85.0902 39.2686 85.0881C39.2686 85.0863 39.2689 85.0849 39.27 85.0839C39.2717 85.0821 39.2742 85.0811 39.277 85.0811H39.2784H39.2812Z" fill="white"/>
<path d="M39.2877 85.0771V85.081H39.2915V85.0836H39.2877V85.09V85.0913H39.289H39.2915V85.0938H39.2877C39.2857 85.0938 39.2845 85.0935 39.2838 85.0926V85.09V85.0836H39.2812V85.081H39.2838V85.0771H39.2877Z" fill="white"/>
</svg>
