<svg width="124" height="124" viewBox="0 0 124 124" fill="none" xmlns="http://www.w3.org/2000/svg">
<circle cx="62" cy="62" r="54" fill="#9E86B3"/>
<path d="M51.6328 56.2502C44.3754 58.2694 37.1659 59.3847 33 58.6701C33 58.6701 45.8217 93.8508 63.711 88.4332C70.0623 86.5098 73.0349 80.6798 74.2395 73.9663C73.0307 74.282 71.7511 74.4628 70.3863 74.4628C60.4769 74.4628 54.8356 65.5793 51.633 56.2495L51.6328 56.2502ZM48.4674 70.8907C46.8887 69.2227 46.9615 66.5953 48.6294 65.0188C50.2933 63.4401 52.9248 63.5128 54.5013 65.1808L48.4674 70.8907ZM54.7401 80.2996C54.7401 80.2996 55.5233 75.7217 59.4985 74.5194C63.4741 73.3165 66.6662 76.6875 66.6662 76.6875L54.7401 80.2996Z" fill="white"/>
<path d="M49.6162 35C49.6162 35 51.6933 72.3861 70.3859 72.3861C89.0794 72.3861 91.1566 35 91.1566 35C82.8483 39.1541 57.9239 39.1541 49.6162 35ZM64.1554 45.3849C66.4483 45.3849 68.3095 47.2457 68.3095 49.539H60.0016C60.0013 47.2461 61.8602 45.3849 64.1554 45.3849ZM70.3862 64.0784C66.2321 64.0784 64.155 59.9242 64.155 59.9242H76.617C76.6174 59.9242 74.5403 64.0784 70.3862 64.0784ZM76.6174 45.3849C78.9103 45.3849 80.7715 47.2457 80.7715 49.539H72.4637C72.4633 47.2461 74.3222 45.3849 76.6174 45.3849Z" fill="white"/>
</svg>
