<svg width="124" height="124" viewBox="0 0 124 124" fill="none" xmlns="http://www.w3.org/2000/svg">
<circle cx="62" cy="62" r="54" fill="#407CD0"/>
<path d="M61.6627 74.8466C61.311 73.8503 60.7836 72.9708 60.0215 72.2675L55.215 67.461L58.6731 56.5003C58.8489 56.7934 59.0835 57.0866 59.3178 57.4382C60.3142 58.9035 61.8969 59.8999 63.6553 60.1346L69.0478 60.9552C70.5131 61.1895 71.8611 60.1931 72.0958 58.7278C72.3301 57.2624 71.3337 55.9144 69.8684 55.6797L64.4759 54.8592C64.1828 54.8007 63.8896 54.6249 63.7138 54.3902C59.2005 47.7668 58.263 47.4151 56.9145 47.3567L52.5185 47.0635C51.8738 47.0051 51.1117 46.9462 44.6055 49.4668C43.1401 50.0531 41.909 51.1664 41.2059 52.5733L38.2752 58.4347C37.6304 59.7242 38.1579 61.3654 39.4474 62.0101C39.8579 62.1859 40.2679 62.3033 40.6195 62.3033C41.6159 62.3033 42.5538 61.7758 43.0228 60.8379L45.9535 54.9766C46.0708 54.7423 46.3051 54.5661 46.5398 54.4491C47.0087 54.2733 47.4777 54.0975 47.8878 53.9217L45.7192 63.3585C45.3676 64.9997 45.8365 66.7581 47.0672 67.9888L48.122 69.0436L42.0857 85.5726C41.4994 87.1553 42.32 88.9138 43.9026 89.4997C44.2542 89.6171 44.6058 89.6755 44.9574 89.6755C46.1885 89.6755 47.3607 88.9134 47.8296 87.6828L52.9289 73.85L55.6837 76.6048C55.7422 76.6633 55.8011 76.7806 55.8595 76.898L59.6112 87.6243C60.0217 88.9138 61.2524 89.6759 62.4834 89.6759C62.835 89.6759 63.1282 89.6175 63.4798 89.5001C65.0624 88.9727 65.9415 87.2142 65.3556 85.6315L61.6627 74.8466Z" fill="white"/>
<path d="M56.2915 34.0352C59.5415 34.3889 61.8895 37.3106 61.5359 40.5606C61.1822 43.8111 58.2605 46.159 55.0105 45.8054C51.76 45.4517 49.412 42.53 49.7657 39.2796C50.1198 36.0296 53.0411 33.6816 56.2915 34.0352Z" fill="white"/>
<path d="M86.3979 69.3953L78.1332 63.2412C77.4885 62.7137 76.5506 63.3585 76.6679 64.1791L77.3127 67.4029L66.4105 67.4025C66 67.4025 65.6484 67.7541 65.6484 68.1646V72.1501C65.6484 72.5606 66.0001 72.9122 66.4105 72.9122H77.3127L76.6679 76.1361C76.4921 76.9567 77.43 77.5429 78.1332 77.074L86.3979 70.9195C86.8668 70.509 86.8668 69.7473 86.3979 69.3953V69.3953Z" fill="white"/>
</svg>
