<svg width="124" height="124" viewBox="0 0 124 124" fill="none" xmlns="http://www.w3.org/2000/svg">
<circle cx="62" cy="62" r="54" fill="#407CD0"/>
<path fill-rule="evenodd" clip-rule="evenodd" d="M62.4033 50.7251C68.2149 51.0736 82.8232 49.4667 84.4689 66.1756H85.4332V52.1147H91.3955V81.0631H85.4332V79.9249H84.4689V81.0641H62.4033V50.7251ZM64.128 62.0429H65.0096V69.778H64.128V62.0429ZM85.4324 77.927V68.1738H84.4681V77.927H85.4324Z" fill="white"/>
<path fill-rule="evenodd" clip-rule="evenodd" d="M61.581 50.7251C55.7691 51.0736 41.1611 49.4667 39.5154 66.1756H38.5511V52.1147H32.5889V81.0631H38.5511V79.9249H39.5154V81.0641H61.581V50.7251ZM59.267 62.0429H60.1486V69.778H59.267V62.0429ZM38.5515 77.927V68.1738H39.5157V77.927H38.5515Z" fill="white"/>
<path fill-rule="evenodd" clip-rule="evenodd" d="M38.8254 49.0056C38.961 46.6209 36.9441 44.6247 35.51 42.3467C34.1007 44.6318 32.1252 46.6242 32.2672 49.0056H32V50.1316H39.0919V49.0056H38.8254Z" fill="white"/>
<path fill-rule="evenodd" clip-rule="evenodd" d="M32.208 50.458H38.882V51.013H32.208V50.458Z" fill="white"/>
<path fill-rule="evenodd" clip-rule="evenodd" d="M32.5518 51.3359H38.5401V51.8909H32.5518V51.3359Z" fill="white"/>
<path fill-rule="evenodd" clip-rule="evenodd" d="M91.7326 49.0056C91.8682 46.6209 89.8513 44.6247 88.4172 42.3467C87.0079 44.6318 85.0325 46.6242 85.1744 49.0056H84.9072V50.1316H91.9988V49.0056H91.7326Z" fill="white"/>
<path fill-rule="evenodd" clip-rule="evenodd" d="M85.1172 50.458H91.7912V51.013H85.1172V50.458Z" fill="white"/>
<path fill-rule="evenodd" clip-rule="evenodd" d="M85.4609 51.3359H91.4492V51.8909H85.4609V51.3359Z" fill="white"/>
</svg>
