<svg width="124" height="124" viewBox="0 0 124 124" fill="none" xmlns="http://www.w3.org/2000/svg">
<circle cx="62" cy="62" r="54" fill="#7F6DF3"/>
<path fill-rule="evenodd" clip-rule="evenodd" d="M82.3403 34.8843C82.9565 33.9676 84.1992 33.724 85.1159 34.3401C97.5865 42.7223 99.0058 62.9311 85.0645 71.6933C84.1293 72.2811 82.8947 71.9995 82.3069 71.0643C81.7191 70.1291 82.0008 68.8945 82.936 68.3067C94.1233 61.2754 93.2582 44.6326 82.8845 37.6599C81.9678 37.0437 81.7242 35.8011 82.3403 34.8843ZM77.2912 41.4725C76.4476 40.7595 75.1857 40.8654 74.4727 41.709C73.7597 42.5527 73.8656 43.8146 74.7093 44.5276C76.6962 46.2068 77.942 49.2401 77.9983 52.4887C78.0544 55.7272 76.9245 58.7205 74.7602 60.4309C73.8936 61.1157 73.7462 62.3734 74.4311 63.2401C75.1159 64.1067 76.3736 64.254 77.2403 63.5692C80.6601 60.8666 82.0685 56.5051 81.9977 52.4194C81.927 48.3439 80.3808 44.0836 77.2912 41.4725ZM47.9214 42.3159C48.8516 41.7201 50.0885 41.9911 50.6843 42.9213C51.2801 43.8514 51.009 45.0884 50.0789 45.6841C44.8203 49.0524 44.4841 56.9639 50.0278 60.2842C50.9754 60.8518 51.2835 62.08 50.716 63.0276C50.1484 63.9753 48.9201 64.2833 47.9725 63.7158C39.5559 58.6748 40.4888 47.0766 47.9214 42.3159ZM38.9074 35.3249C39.8325 34.7214 41.0717 34.9821 41.6752 35.9072C42.2788 36.8323 42.0181 38.0715 41.093 38.6751C30.7433 45.427 29.8912 61.4905 41.0417 68.2926C41.9847 68.8678 42.2828 70.0986 41.7076 71.0415C41.1323 71.9845 39.9016 72.2826 38.9586 71.7074C24.9805 63.1804 26.4128 43.4762 38.9074 35.3249ZM69.0002 54.3752C69.0002 58.2412 65.8662 61.3752 62.0002 61.3752C58.1342 61.3752 55.0002 58.2412 55.0002 54.3752C55.0002 50.5092 58.1342 47.3752 62.0002 47.3752C65.8662 47.3752 69.0002 50.5092 69.0002 54.3752ZM65.867 65.0071C64.6681 61.2691 59.3634 61.3148 58.2289 65.0728L54.0856 78.7972L50.5762 90.4223L48.0856 98.6723C47.7664 99.7297 48.3648 100.846 49.4223 101.165C50.4797 101.484 51.5957 100.886 51.9149 99.8283L53.9762 93.0003H70.6453L72.8459 99.8612C73.1833 100.913 74.3094 101.492 75.3612 101.155C76.413 100.817 76.9922 99.6912 76.6548 98.6395L74.0086 90.3894L70.2798 78.7644L65.867 65.0071ZM69.3622 89.0003H55.1838L57.4857 81.3752H66.9165L69.3622 89.0003ZM65.6335 77.3752H58.6932L62.0582 66.2288L65.6335 77.3752Z" fill="white"/>
</svg>
