<svg width="124" height="124" viewBox="0 0 124 124" fill="none" xmlns="http://www.w3.org/2000/svg">
<circle cx="61" cy="62" r="54" fill="#D66EB8"/>
<path fill-rule="evenodd" clip-rule="evenodd" d="M62 46H59C56.7909 46 55 47.7909 55 50V54H66V50C66 47.7909 64.2091 46 62 46ZM51 50V54H42V75C42 78.866 45.134 82 49 82H72C75.866 82 79 78.866 79 75V54H70V50C70 45.5817 66.4183 42 62 42H59C54.5817 42 51 45.5817 51 50ZM54 62H50V66H54V62ZM59 62H63V66H59V62ZM58 70H54V74H58V70ZM72 62V66H68V62H72ZM67 70H63V74H67V70Z" fill="white"/>
</svg>
