<svg width="124" height="124" viewBox="0 0 124 124" fill="none" xmlns="http://www.w3.org/2000/svg">
<circle cx="61" cy="62" r="54" fill="#F36E6D"/>
<path fill-rule="evenodd" clip-rule="evenodd" d="M79.5162 42C79.5162 41.4477 79.9639 41 80.5162 41H85.1291C85.6814 41 86.1291 41.4477 86.1291 42V46.2903H89.3161C89.7749 46.2903 90.1749 46.6026 90.2862 47.0478L94.0347 62.0419C94.0546 62.1212 94.0646 62.2026 94.0646 62.2844V77.0323C94.0646 77.5845 93.6169 78.0323 93.0646 78.0323H88.3227C88.6151 77.2049 88.7743 76.3146 88.7743 75.3871C88.7743 71.0045 85.2214 67.4517 80.8388 67.4517C76.4561 67.4517 72.9033 71.0045 72.9033 75.3871C72.9033 76.3146 73.0624 77.2049 73.3548 78.0323H47.3227C47.6151 77.2049 47.7743 76.3146 47.7743 75.3871C47.7743 71.0045 44.2214 67.4517 39.8388 67.4517C35.4561 67.4517 31.9033 71.0045 31.9033 75.3871C31.9033 76.3146 32.0624 77.2049 32.3548 78.0323H27.9355V59.5162L63.6452 59.5162V71.4194H66.2904V54.2258V48.9355L69.5968 46.2904H63.6452V48.9355H61.0001V54.2258H63.6452V56.871L27.9355 56.871L27.9355 54.2258H31.9033V48.9355H27.9355V46.2903H79.5162V42ZM34.5484 48.9355H37.1936V54.2258H34.5484V48.9355ZM42.4839 48.9355H39.8388V54.2258H42.4839V48.9355ZM45.1291 48.9355H47.7743V54.2258H45.1291V48.9355ZM53.0646 48.9355H50.4194V54.2258H53.0646V48.9355ZM58.3549 48.9355H55.7097V54.2258H58.3549V48.9355ZM75.5484 48.9356H68.9355V55.5485H75.5484V48.9356ZM88.113 48.9356H76.871V60.8388H90.7581L88.113 48.9356ZM39.8388 79C41.8341 79 43.4517 77.3824 43.4517 75.3871C43.4517 73.3917 41.8341 71.7742 39.8388 71.7742C37.8434 71.7742 36.2259 73.3917 36.2259 75.3871C36.2259 77.3824 37.8434 79 39.8388 79ZM39.8388 82C43.491 82 46.4517 79.0393 46.4517 75.3871C46.4517 71.7349 43.491 68.7742 39.8388 68.7742C36.1866 68.7742 33.2259 71.7349 33.2259 75.3871C33.2259 79.0393 36.1866 82 39.8388 82ZM80.8388 79C82.8341 79 84.4517 77.3824 84.4517 75.3871C84.4517 73.3917 82.8341 71.7742 80.8388 71.7742C78.8434 71.7742 77.2259 73.3917 77.2259 75.3871C77.2259 77.3824 78.8434 79 80.8388 79ZM80.8388 82C84.491 82 87.4517 79.0393 87.4517 75.3871C87.4517 71.7349 84.491 68.7742 80.8388 68.7742C77.1866 68.7742 74.2259 71.7349 74.2259 75.3871C74.2259 79.0393 77.1866 82 80.8388 82Z" fill="white"/>
</svg>
