<svg width="124" height="124" viewBox="0 0 124 124" fill="none" xmlns="http://www.w3.org/2000/svg">
<circle cx="62" cy="62" r="54" fill="#407CD0"/>
<path fill-rule="evenodd" clip-rule="evenodd" d="M68.6688 47.8562C71.7499 47.8562 74.2476 45.3585 74.2476 42.2775C74.2476 39.1964 71.7499 36.6987 68.6688 36.6987C65.5878 36.6987 63.0901 39.1964 63.0901 42.2775C63.0901 45.3585 65.5878 47.8562 68.6688 47.8562ZM49.84 62.5003C53.5592 57.1541 60.9975 50.6455 69.3656 54.1322C73.5497 56.2243 68.6283 66.0671 63.7869 75.7498C60.9975 81.3286 64.3659 82.2927 67.2736 80.6312C72.1552 77.8419 75.6417 76.0985 72.8523 78.5392C67.2736 83.4206 53.8311 91.8325 52.6294 83.4206C51.9321 78.5392 54.724 70.7695 57.5108 65.9871C60.3555 61.1053 60.8491 54.6912 56.1161 58.3163C50.2313 62.8237 49.3751 63.1977 49.84 62.5003Z" fill="white"/>
</svg>
