<svg width="124" height="124" viewBox="0 0 124 124" fill="none" xmlns="http://www.w3.org/2000/svg">
<circle cx="62" cy="62" r="54" fill="#F36F6A"/>
<path d="M62.3832 30C47.8107 30 36 41.8129 36 56.3832C36 76.4204 62.3832 93.8599 62.3832 93.8599C62.3832 93.8599 88.7665 76.4216 88.7665 56.3832C88.7665 41.8118 76.9547 30 62.3832 30ZM62.3832 76.8891C51.0582 76.8891 41.8785 67.7092 41.8785 56.3832C41.8785 45.0582 51.0584 35.8774 62.3832 35.8774C73.7081 35.8774 82.8902 45.0582 82.8902 56.3832C82.8902 67.7097 73.7081 76.8891 62.3832 76.8891Z" fill="white"/>
<path d="M67.9311 47.8726H56.6687C53.7283 47.8726 51.3158 50.1238 51.0623 53.0011C51.0623 53.0011 50.0596 61.8692 50.0596 62.0789C50.0596 63.634 51.3202 64.8933 52.8752 64.8933C54.0089 64.8933 54.9872 64.2242 55.433 63.2549L58.1138 59.1328H66.486L69.1668 63.2549C69.6113 64.2238 70.5887 64.8933 71.7237 64.8933C73.2788 64.8933 74.5393 63.6335 74.5393 62.0789C74.5393 61.8686 73.5384 53.0011 73.5384 53.0011C73.2849 50.124 70.8698 47.8726 67.9311 47.8726H67.9311ZM68.4198 50.6874C68.9383 50.6874 69.3583 51.1075 69.3583 51.6273C69.3583 52.1449 68.9383 52.565 68.4198 52.565C67.9035 52.565 67.4834 52.1449 67.4834 51.6273C67.4834 51.107 67.9035 50.6874 68.4198 50.6874ZM59.4853 54.4417H57.6082V56.3165H55.7297V54.4417H53.8548V52.5645H55.7297V50.6874H57.6082V52.5645H59.4853V54.4417ZM66.5443 54.4417C66.0258 54.4417 65.6049 54.0198 65.6049 53.5022C65.6049 52.9846 66.0258 52.5645 66.5443 52.5645C67.061 52.5645 67.4829 52.9842 67.4829 53.5022C67.4833 54.0194 67.0615 54.4417 66.5443 54.4417ZM68.4196 56.3165C67.9034 56.3165 67.4833 55.8987 67.4833 55.3789C67.4833 54.8612 67.9034 54.4412 68.4196 54.4412C68.9382 54.4412 69.3582 54.8612 69.3582 55.3789C69.3582 55.8987 68.9382 56.3165 68.4196 56.3165ZM70.2954 54.4417C69.7778 54.4417 69.3577 54.0198 69.3577 53.5022C69.3577 52.9846 69.7778 52.5645 70.2954 52.5645C70.8153 52.5645 71.2349 52.9842 71.2349 53.5022C71.2353 54.0194 70.8153 54.4417 70.2954 54.4417Z" fill="white"/>
</svg>
