<svg width="124" height="124" viewBox="0 0 124 124" fill="none" xmlns="http://www.w3.org/2000/svg">
<circle cx="62" cy="62" r="54" fill="#9E86B3"/>
<path d="M92.5126 56.56C92.8115 56.2737 92.9728 55.9269 92.997 55.5209C93.0208 55.115 92.9021 54.7507 92.6381 54.4286C92.3639 54.0822 92.005 53.8972 91.5646 53.8734L91.6174 53.8909L71.8961 51.4368L63.459 33.4181C63.2803 33.0238 62.9872 32.7617 62.5813 32.63L62.6176 32.6479C62.2233 32.4929 61.859 32.4866 61.5248 32.63C61.1077 32.7734 60.8088 33.0359 60.6296 33.4181L52.175 51.3661L32.4363 53.874C32.0299 53.8856 31.6782 54.0649 31.3793 54.4112C31.3793 54.4228 31.373 54.4291 31.3614 54.4291C31.0984 54.7513 30.9792 55.1155 31.003 55.5215C31.0146 55.9202 31.1875 56.2665 31.5227 56.5606L46.1026 70.193L42.3053 89.7345C42.1973 90.1041 42.2578 90.4742 42.4841 90.8448C42.4962 90.8569 42.5083 90.8753 42.5199 90.8981C42.7703 91.2323 43.0808 91.4421 43.4509 91.5264C43.8336 91.633 44.2091 91.5908 44.5796 91.4004V91.382L62.008 81.8536L79.4364 91.4004L79.4548 91.4178C79.8138 91.5966 80.1829 91.6392 80.5651 91.5438H80.6015C80.9711 91.4474 81.2762 91.2328 81.516 90.898C81.5262 90.8753 81.5383 90.8569 81.5499 90.8448C81.7301 90.5105 81.8018 90.1646 81.766 89.8047V89.7529L78.0229 70.1742L92.5122 56.5603M91.4388 55.3062H91.4916C91.5046 55.3062 91.5153 55.3125 91.5279 55.3246C91.5516 55.36 91.5642 55.4021 91.5642 55.4496C91.5642 55.4738 91.5511 55.4975 91.5279 55.5218L76.7508 69.4047C76.6539 69.4885 76.59 69.5898 76.5537 69.7089C76.5173 69.816 76.512 69.9361 76.5353 70.0674L80.3331 89.9685C80.3452 90.015 80.3384 90.063 80.3147 90.111C80.2909 90.1231 80.2725 90.1352 80.2614 90.1468C80.2493 90.1468 80.2377 90.1531 80.2255 90.1652C80.1776 90.1652 80.1427 90.1589 80.119 90.1468L62.3483 80.4028C62.2413 80.3432 62.1269 80.3137 62.0082 80.3137C61.8886 80.3137 61.7752 80.3428 61.6672 80.4028L43.899 90.1289H43.9169C43.8816 90.1411 43.8453 90.1464 43.8094 90.1464C43.7973 90.1348 43.7852 90.1289 43.7736 90.1289C43.7498 90.1173 43.7261 90.0994 43.7019 90.0757C43.7019 90.0393 43.7082 90.0156 43.7193 90.003L47.5888 70.0857C47.6004 69.9656 47.5888 69.8469 47.5525 69.7268C47.5166 69.6081 47.4575 69.5064 47.3737 69.4226L32.5061 55.5222C32.494 55.5106 32.4819 55.5043 32.4708 55.5043C32.4587 55.4927 32.4465 55.4748 32.4349 55.4506C32.4349 55.4031 32.4465 55.3614 32.4708 55.3256C32.4824 55.3135 32.494 55.3072 32.5061 55.3072H32.5594L52.7284 52.7456C52.8481 52.7219 52.9619 52.6802 53.0695 52.6206C53.1644 52.5368 53.2366 52.4414 53.2846 52.3339L61.9178 34.0275C61.9294 34.0042 61.9473 33.9916 61.9715 33.9916C61.9832 33.98 62.0011 33.9742 62.0253 33.9742C62.0491 33.9742 62.0718 33.98 62.096 33.9916H62.1324C62.144 34.0042 62.1561 34.0158 62.1677 34.0275L70.7651 52.4058C70.8131 52.5133 70.8911 52.6087 70.9991 52.6921C71.0936 52.7517 71.2025 52.7938 71.3198 52.8175L91.438 55.3069M62.6713 38.63C62.5991 38.4629 62.4746 38.3437 62.2944 38.2716C62.1157 38.1999 61.9422 38.1999 61.7756 38.2716C61.5969 38.3432 61.4651 38.4624 61.3813 38.63L54.1267 54.0519L37.1286 56.2018C36.9377 56.2134 36.7818 56.2972 36.6631 56.4522C36.5434 56.5951 36.4901 56.7627 36.5018 56.9536C36.5134 57.1328 36.5914 57.2878 36.7348 57.4196L49.2548 69.1347L45.9942 85.9009C45.9473 86.0797 45.9768 86.2531 46.0848 86.4207C46.1919 86.5757 46.3358 86.6769 46.5145 86.7244C46.6932 86.7724 46.8667 86.7486 47.0343 86.6532L62.0085 78.467L76.9828 86.6701C77.1489 86.7665 77.3223 86.7907 77.5011 86.7427C77.6813 86.6953 77.8242 86.5935 77.9322 86.4385C78.0272 86.2709 78.064 86.0985 78.0388 85.9197L74.832 69.1163L87.2814 57.4197C87.4132 57.2879 87.4839 57.1329 87.4974 56.9537C87.5081 56.7633 87.4558 56.5952 87.3347 56.4523C87.216 56.2973 87.062 56.2135 86.8701 56.2019L69.9254 54.1058L62.6703 38.6293M64.9983 62.4344C64.9746 62.3026 64.963 62.1713 64.963 62.04C64.963 61.1923 65.2599 60.4759 65.8572 59.8902C66.4428 59.2934 67.1598 58.995 68.007 58.995C68.8305 58.995 69.547 59.2939 70.1564 59.8902H70.1748C70.76 60.4749 71.0516 61.1918 71.0516 62.04C71.0516 62.1839 71.0453 62.3147 71.0346 62.4344C70.9503 63.0922 70.6635 63.6773 70.1748 64.1898V64.2073C69.5533 64.8046 68.8305 65.1035 68.0071 65.1035C67.1603 65.1035 66.4434 64.7978 65.8572 64.1889C65.3568 63.6769 65.07 63.0917 64.9984 62.4344M58.1565 59.8728C58.7411 60.4817 59.0337 61.1986 59.0337 62.0227C59.0337 62.1539 59.0279 62.2915 59.0163 62.4349C58.9325 63.1039 58.6404 63.6885 58.1385 64.1904C57.5296 64.7751 56.8069 65.0677 55.9708 65.0677C55.1226 65.0677 54.4067 64.7746 53.821 64.1904C53.3308 63.7011 53.045 63.1213 52.9616 62.4523L52.9432 62.4348C52.9316 62.2915 52.9258 62.1539 52.9258 62.0226C52.9258 61.1991 53.2247 60.4826 53.821 59.8728C54.4062 59.2638 55.1221 58.9596 55.9708 58.9596C56.8191 58.9591 57.5476 59.2634 58.1565 59.8728M56.9203 72.0359V72.0175C55.9888 71.1814 55.3323 70.214 54.9501 69.1154V69.098L54.9322 69.0796C54.9206 69.0558 54.9138 69.0379 54.9138 69.0268C54.8789 68.9546 54.8547 68.8882 54.8421 68.8296C54.7946 68.6388 54.8247 68.4591 54.9322 68.2924C55.0281 68.1137 55.171 67.9993 55.3619 67.9514C55.5528 67.9039 55.7388 67.934 55.918 68.041C56.0842 68.1374 56.1922 68.2866 56.2392 68.4891V68.4717C56.2518 68.4944 56.2634 68.5249 56.2755 68.5608C56.5865 69.4807 57.1232 70.2868 57.8881 70.979H57.9056C59.0522 72.0539 60.4076 72.5921 61.9717 72.5921C63.5597 72.5921 64.933 72.0544 66.0907 70.979C66.8309 70.2989 67.3692 69.516 67.7029 68.633C67.715 68.5845 67.7266 68.5366 67.7387 68.4891C67.7867 68.2866 67.9 68.1369 68.0788 68.041C68.2469 67.9339 68.4251 67.9039 68.6165 67.9514C68.8069 67.9993 68.9565 68.1132 69.0646 68.2924C69.1595 68.4591 69.1832 68.6388 69.1358 68.8296C69.1232 68.8771 69.112 68.9246 69.0994 68.9725C69.0888 68.9846 69.081 69.0084 69.081 69.0447C68.677 70.1671 68.0076 71.1577 67.0765 72.0181L67.0581 72.0365C65.6368 73.3619 63.9409 74.0245 61.9712 74.0245C60.0374 74.024 58.3531 73.3609 56.9203 72.036M57.6004 62.0222C57.6004 61.5804 57.4459 61.1987 57.1349 60.876V60.8945C56.8016 60.5602 56.4126 60.3926 55.9708 60.3926C55.529 60.3926 55.1531 60.5534 54.8421 60.876C54.5205 61.1987 54.3597 61.5809 54.3597 62.0222C54.3597 62.106 54.366 62.1898 54.3776 62.2726L54.3771 62.2556C54.4246 62.602 54.5801 62.9072 54.8417 63.1693C55.1527 63.4798 55.5286 63.6357 55.9704 63.6357C56.4238 63.6357 56.8128 63.4798 57.1344 63.1693C57.3974 62.9183 57.5525 62.6199 57.5999 62.2736H57.582C57.5941 62.1898 57.6004 62.106 57.6004 62.0222M66.4143 62.2726C66.4497 62.6064 66.6047 62.9125 66.8794 63.1872C67.1899 63.5093 67.5663 63.6697 68.0076 63.6697C68.4498 63.6697 68.8311 63.5088 69.1542 63.1872C69.4172 62.9125 69.5713 62.6068 69.6197 62.2726L69.6202 62.2556V62.0401C69.6202 61.5983 69.4637 61.2224 69.1547 60.9119C68.8315 60.5897 68.4498 60.4284 68.008 60.4284C67.5667 60.4284 67.1903 60.5897 66.8798 60.9119C66.5577 61.2219 66.3964 61.5983 66.3964 62.0401C66.3964 62.1118 66.4027 62.184 66.4148 62.2556L66.4143 62.2726Z" fill="white"/>
</svg>
