<svg width="124" height="124" viewBox="0 0 124 124" fill="none" xmlns="http://www.w3.org/2000/svg">
<circle cx="62" cy="62" r="54" fill="#F36F6A"/>
<path d="M73.047 46.207L70.0703 46.4305L70.1093 46.811L73.086 46.5872L73.047 46.207Z" fill="white"/>
<path d="M73.1658 47.3648L73.1655 47.3635L73.1648 47.3545L70.1875 47.5779L70.5667 51.2814L73.5434 51.0576L73.1658 47.3648Z" fill="white"/>
<path d="M74.6699 62.0904L74.4897 60.3247L71.5127 60.5491L71.8038 63.3946L74.5581 63.187L74.6699 62.0904Z" fill="white"/>
<path d="M64.7236 51.1123C65.8944 54.6485 68.7843 56.4715 70.156 57.1621C69.249 55.0705 66.2507 52.3882 64.7236 51.1123Z" fill="white"/>
<path d="M73.6219 51.8242L70.6445 52.048L70.7306 52.8856L73.7073 52.6619L73.6219 51.8242Z" fill="white"/>
<path d="M73.7859 53.4282L70.8086 53.652L71.2674 58.1386L74.2444 57.9142L73.7859 53.4282Z" fill="white"/>
<path d="M79.4345 49.6742L76.736 49.4717L76.7061 49.7664L79.4045 49.9689L79.4345 49.6742Z" fill="white"/>
<path d="M42.4451 80.3549C43.04 80.8492 43.7913 81.0849 44.5613 81.0104L59.0649 79.6652C60.6522 79.5181 61.825 78.1072 61.6789 76.5201L59.2787 50.4018C59.2078 49.6318 58.8415 48.9356 58.2469 48.4414C57.7227 48.0058 57.0758 47.7729 56.4026 47.7729C56.3123 47.7729 56.2217 47.7771 56.1308 47.7855L41.6263 49.1307C40.039 49.2778 38.8662 50.6887 39.0123 52.2758L41.338 77.5753V77.5756L41.3899 78.1415L41.4132 78.3946C41.4841 79.1649 41.8504 79.8604 42.4453 80.3547L42.4451 80.3549ZM42.5512 57.0933C42.5567 56.3756 43.0229 55.753 43.7113 55.5431C45.3284 55.0507 46.9979 54.7177 48.6791 54.5374L48.5086 52.6789C48.4892 52.467 48.6449 52.2794 48.8568 52.2597C49.0706 52.2397 49.2563 52.3964 49.2759 52.6079L49.4465 54.4661C51.1312 54.3343 52.833 54.3549 54.5129 54.5416C55.2281 54.6209 55.8008 55.1478 55.9361 55.8529L56.3021 57.7463C56.3998 58.2522 56.2599 58.7617 55.9181 59.145C55.5795 59.5249 55.0952 59.7222 54.5887 59.6819C53.042 59.5639 51.4759 59.5726 49.9267 59.6957L51.4292 76.0434C51.4486 76.2553 51.2928 76.4429 51.081 76.4626C51.0691 76.4639 51.0568 76.4642 51.0452 76.4642C50.8485 76.4642 50.6805 76.314 50.6618 76.1144L49.1593 59.7667C47.6142 59.9301 46.0736 60.2097 44.5739 60.6099C44.435 60.6473 44.2931 60.6656 44.1532 60.6656C43.8011 60.6656 43.4567 60.5492 43.1691 60.3268C42.7628 60.0127 42.5323 59.5371 42.5358 59.0218L42.5512 57.0933Z" fill="white"/>
<path d="M43.6401 59.7171C43.8503 59.8792 44.1186 59.9344 44.3742 59.8654C45.9158 59.4536 47.4996 59.1667 49.0882 58.9987L48.7484 55.3042C47.1194 55.4796 45.5014 55.8027 43.9341 56.2799C43.5701 56.3908 43.3231 56.72 43.3202 57.0992L43.3057 59.0273C43.3041 59.2994 43.4259 59.5516 43.64 59.717L43.6401 59.7171Z" fill="white"/>
<path d="M69.9332 58.5344C68.7414 57.6183 66.6599 56.7449 65.127 56.1919C66.7824 57.7754 68.7556 58.3358 69.9332 58.5344Z" fill="white"/>
<path d="M54.6488 58.9124C54.9113 58.9298 55.1673 58.8299 55.3446 58.6312C55.5252 58.4291 55.5993 58.1589 55.5478 57.8913L55.1818 55.9979C55.1099 55.6261 54.8074 55.3482 54.4295 55.3066C53.4725 55.2002 52.5082 55.147 51.5441 55.147C50.8676 55.147 50.1921 55.1789 49.5186 55.2318L49.8584 58.9275C51.449 58.8004 53.0583 58.7914 54.6488 58.9123L54.6488 58.9124Z" fill="white"/>
<path d="M61.8846 78.749C61.2961 79.6709 60.3069 80.3238 59.1371 80.4325L44.6326 81.7777C44.5172 81.788 44.4024 81.7935 44.2879 81.7935C43.4351 81.7935 42.6164 81.4988 41.9525 80.9471C41.8326 80.8478 41.723 80.7395 41.6182 80.6272L41.7349 81.896C41.8258 82.8852 42.2946 83.7797 43.0553 84.4146C43.8155 85.0485 44.777 85.349 45.7599 85.2568L58.6564 84.0612C60.6884 83.8729 62.189 82.0585 62.0013 80.0169L61.8846 78.749Z" fill="white"/>
<path d="M83.1072 75.9675H65.8796C64.7033 75.9675 63.6573 75.4078 62.9863 74.543V75.8476C62.9863 78.183 64.8774 80.0828 67.2012 80.0828H81.7849C84.1093 80.0828 86 78.1826 86 75.8476V74.543C85.3297 75.4078 84.2841 75.9675 83.1075 75.9675H83.1072Z" fill="white"/>
<path d="M74.3224 58.6816L71.3457 58.9054L71.4353 59.7824L74.412 59.5587L74.3224 58.6816Z" fill="white"/>
<path d="M76.2832 53.9046L78.9816 54.1077L79.3266 50.736L76.6279 50.5332L76.2832 53.9046Z" fill="white"/>
<path d="M72.4844 70.04L73.8689 69.9362L74.2893 65.8242L72.0703 65.9912L72.4844 70.04Z" fill="white"/>
<path d="M84.3553 54.0698C82.9401 55.2586 80.3023 57.6379 79.4453 59.5202C80.7237 58.8641 83.2749 57.2103 84.3553 54.0698Z" fill="white"/>
<path d="M83.9181 58.7588C82.5574 59.2563 80.7843 60.0082 79.707 60.8004C80.7798 60.6034 82.4709 60.0907 83.9181 58.7588Z" fill="white"/>
<path d="M75.6338 60.2531L78.3322 60.4556L78.7511 56.3604L76.0523 56.1572L75.6338 60.2531Z" fill="white"/>
<path d="M83.1072 39.0493H65.8796C64.2842 39.0493 62.9863 40.3471 62.9863 41.9425V72.3036C62.9863 73.899 64.2842 75.1968 65.8796 75.1968H83.1072C84.7026 75.1968 86.0004 73.899 86.0004 72.3036V41.9425C86.0001 40.3471 84.7022 39.0493 83.1072 39.0493V39.0493ZM85.4928 58.1548C83.3041 61.1076 80.0517 61.5968 78.9822 61.6777L77.9347 71.923C77.9321 71.9501 77.9205 71.9736 77.9124 71.9981C77.9063 72.0178 77.904 72.0391 77.895 72.0571C77.8831 72.0807 77.865 72.0987 77.8489 72.1187C77.8357 72.1352 77.8263 72.1542 77.8105 72.1684C77.7905 72.1867 77.7651 72.198 77.7415 72.2119C77.7251 72.2216 77.7106 72.2351 77.6925 72.2419C77.6487 72.2593 77.6013 72.269 77.5519 72.269C77.5423 72.269 77.5323 72.2686 77.5226 72.2677L77.5129 72.267H77.5126L74.0558 72.0075C74.0542 72.0075 74.0525 72.0062 74.0513 72.0062C74.0493 72.0062 74.0477 72.0068 74.0458 72.0068C74.0206 72.0042 73.9997 71.9923 73.9761 71.9852C73.9519 71.9778 73.9265 71.9746 73.9045 71.963C73.8826 71.9514 73.8665 71.9333 73.8475 71.9178C73.8278 71.902 73.8062 71.8895 73.7904 71.8701C73.7743 71.8508 73.7653 71.8266 73.753 71.8043C73.7414 71.7831 73.7269 71.7647 73.7195 71.7415C73.7111 71.7157 73.7121 71.6876 73.7095 71.6599C73.7072 71.638 73.6995 71.6176 73.7014 71.5948C73.7014 71.5931 73.7027 71.5915 73.7027 71.5902C73.7027 71.5883 73.7021 71.5867 73.7024 71.5848L73.7914 70.7142L72.1805 70.8351H72.1801L72.1705 70.8357C72.1608 70.8364 72.1508 70.837 72.1411 70.837C72.0918 70.837 72.0444 70.8273 72.0005 70.8099C71.9825 70.8028 71.9683 70.7896 71.9515 70.78C71.9277 70.7661 71.9025 70.7548 71.8825 70.7364C71.8671 70.7222 71.8571 70.7032 71.8442 70.6868C71.828 70.6668 71.81 70.6487 71.7981 70.6252C71.7887 70.6071 71.7868 70.5858 71.7806 70.5662C71.7726 70.541 71.761 70.5181 71.7584 70.491L70.6241 59.3972C69.5027 59.3166 65.9639 58.8081 63.5876 55.6016C63.4886 55.4678 63.4867 55.2862 63.5821 55.1502C63.6776 55.0141 63.8497 54.9548 64.0084 55.0035C64.1312 55.0405 65.6709 55.5126 67.3311 56.2319C65.8272 54.9638 64.2563 53.0118 63.6728 50.1469C63.6405 49.9893 63.7098 49.8284 63.8462 49.7429C63.9826 49.6581 64.1577 49.6665 64.2851 49.7645C64.4921 49.9235 68.4141 52.9605 70.252 55.7679L69.4215 47.6455V47.6452L69.2651 46.1152C69.2548 46.0117 69.2864 45.9089 69.3535 45.8289C69.4202 45.7493 69.5163 45.6999 69.6198 45.6922L73.3655 45.411C73.569 45.3959 73.757 45.5481 73.7776 45.756L73.895 46.9026L75.0609 58.3035L75.9018 50.082V50.0814L76.0105 49.0205C76.0321 48.8129 76.2139 48.6572 76.4226 48.6755L79.8897 48.9364C79.9932 48.9445 80.0896 48.9935 80.156 49.0731C80.2231 49.1527 80.2547 49.2559 80.2444 49.3594L80.0996 50.7755C80.0996 50.7759 80.0993 50.7759 80.0993 50.7762L79.3422 58.1793C81.0737 55.6024 84.6192 52.8575 84.8085 52.7118C84.9355 52.6135 85.1112 52.6054 85.2473 52.6902C85.3837 52.7757 85.453 52.9369 85.4208 53.0942C84.8971 55.6634 83.5184 57.4423 82.1668 58.6214C83.6387 57.9962 84.9646 57.5903 85.0742 57.557C85.2332 57.5083 85.405 57.5683 85.5004 57.7037C85.5943 57.8388 85.592 58.021 85.493 58.1548L85.4928 58.1548Z" fill="white"/>
<path d="M76.1309 55.3902L78.8296 55.5927L78.9028 54.874L76.2044 54.6709L76.1309 55.3902Z" fill="white"/>
<path d="M71.9914 65.224L74.3691 65.0457L74.4794 63.9658L71.8828 64.1612L71.9914 65.224Z" fill="white"/>
<path d="M75.4785 61.7742L78.1773 61.977L78.2543 61.2222L75.5559 61.019L75.4785 61.7742Z" fill="white"/>
<path d="M74.5068 71.2692L77.2056 71.472L77.5832 67.7808L74.8844 67.5776L74.5068 71.2692Z" fill="white"/>
<path d="M74.9629 66.8114L77.6611 67.0149L77.7559 66.0873L75.0577 65.8848L74.9629 66.8114Z" fill="white"/>
<path d="M75.1367 65.1181L77.8355 65.3206L78.0989 62.7437L75.4005 62.5405L75.1367 65.1181Z" fill="white"/>
</svg>
