<svg width="124" height="124" viewBox="0 0 124 124" fill="none" xmlns="http://www.w3.org/2000/svg">
<circle cx="62" cy="62" r="54" fill="#595BA3"/>
<path d="M75.7832 37.01C75.7832 39.7772 73.5394 42.0201 70.7722 42.0201C68.0051 42.0201 65.7622 39.7772 65.7622 37.01C65.7622 34.2429 68.0051 32 70.7722 32C73.5394 32 75.7832 34.2429 75.7832 37.01Z" fill="white"/>
<path d="M73.5327 83.4482C73.2461 83.3888 72.949 83.3564 72.6441 83.3564C70.2299 83.3564 68.2666 85.3233 68.2666 87.7393C68.2666 90.1571 70.2308 92.1246 72.6441 92.1246C72.6475 92.1246 72.6519 92.1237 72.6554 92.1237H72.6589C75.0731 92.1237 77.0355 90.1586 77.0355 87.7418C77.0346 85.6246 75.5282 83.8553 73.5326 83.4482L73.5327 83.4482ZM72.6441 89.1076C71.8909 89.1076 71.2784 88.4951 71.2784 87.7401C71.2784 86.987 71.8909 86.3744 72.6441 86.3744C73.3955 86.3744 74.0071 86.987 74.0071 87.7401C74.0071 88.4951 73.3964 89.1076 72.6441 89.1076Z" fill="white"/>
<path d="M83.1848 80.2812C82.768 78.9294 81.3359 78.1702 79.9841 78.5878C79.9841 78.5878 79.7482 78.6595 79.6897 78.6769C78.4795 75.3497 74.8745 65.4394 74.8745 65.4394C74.5372 64.5098 73.6932 63.8571 72.7084 63.7644C72.7084 63.7644 68.0748 63.3276 64.9809 63.0357C65.3138 61.6902 65.8686 59.4472 66.4724 57.0086L66.7057 58.2135C66.9346 59.3957 67.942 60.2695 69.1461 60.3263L78.4995 60.771C78.5424 60.7736 78.5834 60.7736 78.6245 60.7736C80.0111 60.7736 81.1644 59.6841 81.2326 58.2861C81.3016 56.8453 80.1893 55.622 78.7477 55.5529L71.445 55.206L69.3619 44.4545C69.1173 43.1998 68.0155 42.3348 66.7851 42.3418L63.3905 41.8053C63.3818 41.8044 63.3739 41.8044 63.3652 41.8027C63.3215 41.7966 63.2787 41.7931 63.235 41.7878C63.1965 41.7852 63.1572 41.78 63.1197 41.7782C63.0786 41.7773 63.0358 41.7773 62.9947 41.7773C62.9545 41.7773 62.9143 41.7773 62.8733 41.7782C62.8331 41.7791 62.7929 41.7843 62.7544 41.787C62.7134 41.7905 62.6705 41.7948 62.6303 41.8009C62.5919 41.8071 62.5517 41.8149 62.5124 41.8219C62.4722 41.8298 62.432 41.8368 62.3909 41.8472C62.3525 41.856 62.3132 41.8682 62.2747 41.8787C62.2345 41.8909 62.1943 41.9023 62.1559 41.9163C62.1183 41.9303 62.0834 41.9442 62.0467 41.9573C62.0056 41.9739 61.9637 41.9897 61.9244 42.0098C61.892 42.0246 61.8571 42.0412 61.8239 42.0569C61.7828 42.0797 61.74 42.1024 61.6989 42.1268C61.6815 42.1356 61.6622 42.1443 61.6447 42.1557L52.1689 48.003C51.5189 48.4049 51.0802 49.0751 50.9762 49.8291L49.1824 62.7512C48.5061 63.0492 47.8613 63.4004 47.2392 63.7884C47.2383 63.7892 47.2366 63.7892 47.2339 63.791C46.9299 63.9815 46.6337 64.1807 46.3445 64.3913C46.327 64.4035 46.3095 64.4175 46.292 64.4297C45.4689 65.0335 44.7097 65.7159 44.0237 66.4691C43.9599 66.5381 43.8961 66.6071 43.8349 66.677C43.6383 66.8998 43.4479 67.1279 43.2635 67.362C43.1936 67.452 43.1272 67.5447 43.0582 67.6364C42.7323 68.0724 42.4308 68.5233 42.1512 68.9933C42.0944 69.0886 42.0332 69.1812 41.9782 69.2773C41.8567 69.4931 41.7449 69.7142 41.6348 69.9361C41.5483 70.1074 41.4635 70.2821 41.3832 70.4569C41.287 70.6683 41.1944 70.8806 41.1062 71.0956C41.0162 71.3202 40.9358 71.5491 40.8554 71.778C40.7715 72.0209 40.6885 72.2656 40.616 72.5137C40.5208 72.8405 40.4334 73.1717 40.3609 73.5072C40.3224 73.6863 40.291 73.8663 40.2578 74.048C40.2062 74.3303 40.1625 74.6142 40.1276 74.9026C40.1066 75.0738 40.0848 75.246 40.069 75.4198C40.0323 75.827 40.0105 76.2394 40.0061 76.6553C40.0061 76.699 40 76.7401 40 76.7846C40 77.3141 40.028 77.8384 40.0804 78.3556C40.8659 86.0778 47.4042 92.1244 55.3301 92.1244H55.3327H55.3415C63.7978 92.1244 70.6785 85.2435 70.6785 76.7865C70.6785 74.1137 69.9882 71.6007 68.7807 69.4111C69.7217 69.3709 70.4618 69.3412 70.8401 69.3246C71.9934 72.5015 75.7088 82.7166 75.7088 82.7166C76.1762 83.9993 77.5655 84.6904 78.8692 84.2903L81.4923 83.4846C82.8413 83.0661 83.6007 81.6332 83.1847 80.2815L83.1848 80.2812ZM55.8844 51.7282C56.4681 51.369 57.7132 50.5993 59.0737 49.7604L56.2924 61.4986C55.9752 61.4785 55.6607 61.4497 55.3391 61.4497C55.0648 61.4497 54.7983 61.4759 54.5265 61.4907C55.015 57.9948 55.7087 53.0004 55.8844 51.7281L55.8844 51.7282ZM55.3409 88.3941C48.9416 88.3941 43.7338 83.1884 43.7338 76.787C43.7338 72.3964 46.1856 68.5703 49.7898 66.5999C50.1568 66.9319 50.6181 67.1661 51.145 67.2386C52.4705 67.423 53.6876 66.551 53.9813 65.2709C54.4287 65.2185 54.8804 65.1844 55.34 65.1844C61.7384 65.1844 66.9453 70.3895 66.9453 76.7888C66.9461 83.1881 61.7395 88.3941 55.3409 88.3941L55.3409 88.3941Z" fill="white"/>
</svg>
