<svg width="124" height="124" viewBox="0 0 124 124" fill="none" xmlns="http://www.w3.org/2000/svg">
<circle cx="62" cy="62" r="54" fill="#F36F6A"/>
<path d="M81.0249 45.2564C80.2016 44.4317 79.7891 43.4281 79.7891 42.2478C79.7891 41.0626 80.2016 40.0599 81.0249 39.2351C81.849 38.4126 82.8543 38 84.0374 38C85.1775 38 86.1695 38.4126 87.0151 39.2351C87.8585 40.0599 88.2822 41.063 88.2822 42.2478C88.2822 43.4282 87.8585 44.4309 87.0151 45.2564C86.1695 46.0797 85.1779 46.4923 84.0374 46.4923C82.8544 46.4916 81.849 46.079 81.0249 45.2564Z" fill="white"/>
<path d="M79.0171 65.383C77.983 64.1348 72.6892 58.564 64.8825 55.8797L66.163 54.3947C68.548 55.1905 72.0255 56.9826 74.1922 58.5186L79.5131 52.3386C79.5131 52.3386 81.9767 49.2298 80.3394 46.6098C79.2495 44.8657 77.4216 44.6389 76.6609 44.6389L76.6512 44.646C76.6277 44.646 76.6058 44.6389 76.5827 44.6389L57.5198 44.6382C56.1953 44.6382 55.1215 45.7121 55.1215 47.0365C55.1215 48.3603 56.1954 49.4345 57.5198 49.4345H70.4486L66.1523 54.4032C63.7503 53.5699 61.0588 53.0035 58.2535 53.0922C56.6479 53.1439 55.237 53.4329 53.9602 53.8514C52.3066 51.8812 51.4129 49.881 51.3984 49.8489L49.7597 50.5639C49.8189 50.699 50.6426 52.5575 52.2069 54.5425C50.9144 55.1271 49.7511 55.8081 48.6601 56.4594C47.571 57.1084 46.5429 57.7224 45.5797 58.1168C39.8495 59.9912 37.6324 56.4427 37.5438 56.2963L36 57.1977C36.0287 57.2473 38.9915 62.1557 46.1949 59.7938C47.3425 59.3269 48.4272 58.6796 49.5759 57.9949C50.7995 57.2651 52.0446 56.5241 53.4395 55.9466C54.4757 57.0056 55.7247 57.9931 57.1884 58.6518C58.6532 59.3109 60.063 59.7324 61.3104 60.0045L56.4317 65.6476H46.6667C45.8691 65.6476 45.1959 65.8986 44.6493 66.4002C44.1038 66.901 43.8294 67.5478 43.8294 68.342C43.8294 69.0956 44.1053 69.7305 44.6553 70.253C45.2015 70.7739 45.8583 71.0345 46.6202 71.0345H58.0905C58.5544 71.0345 58.9771 70.9939 59.3565 70.9087C60.3279 70.7404 61.0038 70.4443 61.3862 70.0213L66.8576 64.1232C66.8576 64.1232 72.1462 66.5618 74.4336 69.0279C78.6301 73.552 77.9841 82.4294 77.9766 82.6001C77.9215 83.7991 79.0893 85.5301 80.9745 85.2707C82.5544 85.0528 83.209 83.5261 83.209 82.1644C83.209 82.1648 83.7541 71.1002 79.0169 65.3837L79.0171 65.383ZM62.6652 58.4389C61.3147 58.2151 59.6525 57.7995 57.9229 57.0217C56.9722 56.5935 56.1217 55.9866 55.3671 55.3092C56.2719 55.0753 57.2393 54.9141 58.3121 54.8791C60.602 54.8065 62.8302 55.2302 64.8764 55.88L62.6652 58.4389Z" fill="white"/>
</svg>
