<svg width="124" height="124" viewBox="0 0 124 124" fill="none" xmlns="http://www.w3.org/2000/svg">
<circle cx="62" cy="62" r="54" fill="#F36F6A"/>
<path d="M61.1475 36.0007C60.4817 35.9845 59.8431 36.2636 59.4025 36.7627L47.4822 50.3181C47.0868 50.7684 46.8869 51.3566 46.9256 51.9544C46.9644 52.5521 47.2394 53.1097 47.6896 53.5045L77.5803 79.7903L77.5808 79.7898C78.0306 80.1852 78.6193 80.3856 79.2167 80.3468C79.8145 80.3081 80.372 80.0331 80.7668 79.5828L92.6871 66.0273C93.0809 65.5776 93.2803 64.9899 93.2416 64.3936C93.2023 63.7968 92.9283 63.2403 92.4796 62.8454L62.5889 36.5595L62.5884 36.56C62.189 36.2095 61.6788 36.0116 61.1475 36.0005V36.0007ZM61.6098 41.734L61.6103 41.7335C62.2202 41.7204 62.809 41.9551 63.2436 42.3831C63.6777 42.8117 63.9199 43.3974 63.9149 44.0074C63.9149 44.8137 63.4848 45.5585 62.7868 45.9614C62.0888 46.3648 61.2286 46.3648 60.5305 45.9614C59.8325 45.5585 59.4024 44.8137 59.4024 44.0074C59.3974 43.4146 59.6265 42.8435 60.04 42.418C60.453 41.9924 61.017 41.7466 61.6104 41.7335L61.6098 41.734ZM69.3611 48.5687H69.3616C69.9705 48.5531 70.5602 48.7848 70.9959 49.2103C71.4315 49.6359 71.6768 50.2201 71.6753 50.829C71.6783 51.4293 71.4416 52.006 71.018 52.4316C70.595 52.8572 70.0194 53.0964 69.4191 53.0964C68.8188 53.0964 68.2431 52.8571 67.8196 52.4316C67.3966 52.006 67.1598 51.4294 67.1629 50.829C67.1614 50.2398 67.391 49.6732 67.802 49.2512C68.2129 48.8287 68.7724 48.5834 69.3617 48.5688L69.3611 48.5687ZM54.8889 49.3755L54.8894 49.375C55.4993 49.3574 56.0901 49.587 56.5277 50.0121C56.9654 50.4371 57.2121 51.0213 57.2116 51.6317C57.2061 52.434 56.775 53.1728 56.079 53.5722C55.3835 53.9716 54.5279 53.9716 53.8318 53.5722C53.1363 53.1728 52.7052 52.434 52.6991 51.6317C52.6991 51.0444 52.9278 50.4804 53.3367 50.0589C53.7456 49.6379 54.3027 49.3926 54.8894 49.375L54.8889 49.3755ZM75.1951 50.6537L76.8918 52.143L64.9715 65.6985L63.2748 64.2087L75.1951 50.6537ZM62.6579 56.1886L62.6584 56.1881C63.2683 56.1725 63.8585 56.4046 64.2942 56.8312C64.7304 57.2583 64.9746 57.843 64.9721 58.4534C64.9726 59.0517 64.7349 59.6258 64.3118 60.0494C63.8888 60.4729 63.3147 60.7106 62.7158 60.7106C62.1175 60.7106 61.5434 60.4729 61.1198 60.0494C60.6968 59.6258 60.4596 59.0517 60.4596 58.4534C60.4571 57.8631 60.6862 57.2956 61.0972 56.872C61.5081 56.4484 62.0687 56.2031 62.6584 56.188L62.6579 56.1886ZM77.9139 62.8646L77.9149 62.8641C78.5238 62.8465 79.1141 63.0756 79.5517 63.4997C79.9888 63.9237 80.2361 64.5069 80.2371 65.1163C80.2316 65.9186 79.8 66.6574 79.1045 67.0568C78.4084 67.4562 77.5533 67.4562 76.8572 67.0568C76.1617 66.6574 75.7301 65.9186 75.7246 65.1163C75.7256 64.5296 75.9547 63.967 76.3637 63.5465C76.7721 63.126 77.3286 62.8812 77.9148 62.8641L77.9139 62.8646Z" fill="white"/>
<path d="M51.3062 81.8521V88.6208H31V81.8521H51.3062Z" fill="white"/>
<path d="M55.8189 72.8271V79.5959H35.5127V72.8271H55.8189Z" fill="white"/>
<path d="M53.563 63.8022V70.571H33.2568V63.8022H53.563Z" fill="white"/>
</svg>
