<svg width="124" height="124" viewBox="0 0 124 124" fill="none" xmlns="http://www.w3.org/2000/svg">
<circle cx="61" cy="62" r="54" fill="#809CDA"/>
<path d="M70 65C67.7909 65 66 63.2091 66 61C66 58.7909 67.7909 57 70 57C72.2091 57 74 58.7909 74 61C74 63.2091 72.2091 65 70 65Z" fill="white"/>
<path d="M57.5 61C54.4624 61 52 58.5376 52 55.5C52 52.4624 54.4624 50 57.5 50C60.5376 50 63 52.4624 63 55.5C63 58.5376 60.5376 61 57.5 61Z" fill="white"/>
<path d="M60.0007 73.1992C60.3883 68.4265 64.2619 66 68.9833 66C73.7712 66 77.7049 68.2932 77.9979 73.2C78.0096 73.3955 77.9979 74 77.2467 74C73.5411 74 68.0347 74 60.7275 74C60.4767 74 59.9795 73.4592 60.0007 73.1992Z" fill="white"/>
<path d="M45.0009 72.8989C45.5392 66.3365 50.9193 63 57.4769 63C64.1267 63 69.5901 66.1531 69.9971 72.9C70.0133 73.1688 69.9971 74 68.9537 74C63.8071 74 56.1593 74 46.0104 74C45.6621 74 44.9716 73.2564 45.0009 72.8989Z" fill="white"/>
<circle cx="61" cy="62" r="26" stroke="white" stroke-width="4"/>
<path d="M43.5 44L77.5 80" stroke="white" stroke-width="4" stroke-linecap="round"/>
</svg>
