<svg width="124" height="124" viewBox="0 0 124 124" fill="none" xmlns="http://www.w3.org/2000/svg">
<circle cx="62" cy="62" r="54" fill="#F36F6A"/>
<path d="M62.61 50.898C61.9954 50.2834 61.1452 49.9316 60.2761 49.9316C59.8813 49.9316 59.4941 50.0136 59.127 50.1499L73.8514 64.8743C73.9876 64.5071 74.0696 64.1199 74.0696 63.7251C74.0696 62.8561 73.7178 62.0059 73.1032 61.3912L62.61 50.898Z" fill="white"/>
<path d="M58.5797 62.3848L42.0494 80.4698L41.5202 80.2959C41.1303 80.1662 40.7793 80.1042 40.4483 80.1042C38.5467 80.1042 37 81.651 37 83.5526C37 85.4542 38.5467 87.0009 40.4483 87.0009C42.35 87.0009 43.8967 85.4542 43.8967 83.5526C43.8967 83.2216 43.8347 82.8706 43.7054 82.4811L43.5315 81.9519L61.6155 65.4216L58.5797 62.3848Z" fill="white"/>
<path d="M79.2034 47.3447C78.7982 47.3447 78.3922 47.4406 78.0285 47.6222L76.656 48.3084L75.2828 47.6214C74.9199 47.4406 74.5138 47.3447 74.1086 47.3447C72.6612 47.3447 71.4834 48.5224 71.4834 49.9699C71.4834 50.8189 71.8178 51.5459 72.399 52.045L76.6559 55.6924L80.9121 52.045C81.494 51.5459 81.8284 50.8189 81.8284 50.0519C81.8284 48.5225 80.6507 47.3447 79.2032 47.3447L79.2034 47.3447Z" fill="white"/>
<path d="M56.0699 52.7696C55.4553 53.3843 55.1035 54.2344 55.1035 55.1035C55.1035 55.9726 55.4553 56.8226 56.0699 57.4373L66.5627 67.9301C67.1773 68.5447 68.0275 68.8965 68.8965 68.8965C69.7656 68.8965 70.6157 68.5447 71.2304 67.9301L72.8502 66.3103L57.6893 51.1494L56.0699 52.7696Z" fill="white"/>
<path d="M86.1385 37H67.1726C66.6969 37 66.3105 37.3864 66.3105 37.8621V52.1609L74.3217 60.1721C75.2573 61.1073 75.7935 62.4024 75.7935 63.7247C75.7935 64.6376 75.5322 65.5343 75.0669 66.311H86.139C86.6147 66.311 87.0011 65.9246 87.0011 65.4489V37.8622C87.0011 37.3865 86.6147 37.0001 86.139 37.0001L86.1385 37ZM71.4831 38.7242H73.2072V40.4483H71.4831V38.7242ZM68.0347 38.7242H69.7589V40.4483H68.0347V38.7242ZM81.8281 64.5867H80.1039V62.8626H81.8281V64.5867ZM82.0332 53.354L76.6556 57.9635L71.2779 53.354C70.3123 52.5273 69.7589 51.3227 69.7589 50.0523C69.7589 47.5722 71.7098 45.621 74.1082 45.621C74.7779 45.621 75.4514 45.7795 76.0529 46.0785L76.6556 46.3814L77.2575 46.0797C77.8598 45.7795 78.5333 45.621 79.203 45.621C81.6014 45.621 83.5523 47.5718 83.5523 49.9703C83.5523 51.3227 82.9989 52.5273 82.0333 53.354H82.0332ZM85.2764 64.5867H83.5523V62.8626H85.2764V64.5867ZM85.2764 48.2071H83.5523V46.4829H85.2764V48.2071ZM85.2764 44.7588H83.5523V40.4483H81.8281V38.7242H85.2764V44.7588Z" fill="white"/>
</svg>
