<svg width="124" height="124" viewBox="0 0 124 124" fill="none" xmlns="http://www.w3.org/2000/svg">
<circle cx="62" cy="62" r="54" fill="#F36E6D"/>
<path fill-rule="evenodd" clip-rule="evenodd" d="M44.8889 46.1111C44.8889 45.4361 45.4361 44.8889 46.1111 44.8889H47.3333C48.6834 44.8889 49.7778 43.7945 49.7778 42.4444C49.7778 41.0944 48.6834 40 47.3333 40H46.1111C42.736 40 40 42.736 40 46.1111V54.6667C40 60.5797 44.199 65.512 49.7778 66.6444V69.3333C49.7778 77.4335 56.3443 84 64.4444 84C72.5446 84 79.1111 77.4335 79.1111 69.3333V68.9161C81.9594 67.9093 84 65.193 84 62C84 57.9499 80.7168 54.6667 76.6667 54.6667C72.6166 54.6667 69.3333 57.9499 69.3333 62C69.3333 65.193 71.374 67.9093 74.2222 68.9161V69.3333C74.2222 74.7335 69.8446 79.1111 64.4444 79.1111C59.0443 79.1111 54.6667 74.7335 54.6667 69.3333V66.6444C60.2455 65.512 64.4444 60.5797 64.4444 54.6667V46.1111C64.4444 42.736 61.7084 40 58.3333 40H57.1111C55.7611 40 54.6667 41.0944 54.6667 42.4444C54.6667 43.7945 55.7611 44.8889 57.1111 44.8889H58.3333C59.0083 44.8889 59.5556 45.4361 59.5556 46.1111V54.6667C59.5556 58.7168 56.2723 62 52.2222 62C48.1721 62 44.8889 58.7168 44.8889 54.6667V46.1111Z" fill="white"/>
</svg>
