<svg width="124" height="124" viewBox="0 0 124 124" fill="none" xmlns="http://www.w3.org/2000/svg">
<circle cx="62" cy="62" r="54" fill="#F36F6A"/>
<path d="M40.7372 83.5714L48.4682 74.0596C48.4736 74.0522 48.4757 74.0428 48.481 74.0354L59.4002 60.6097C58.7862 60.2615 58.2348 59.8125 57.7696 59.2812L38.0352 83.5713L40.7372 83.5714Z" fill="white"/>
<path d="M68.821 76.1961C68.821 76.7781 68.3494 77.2497 67.7674 77.2497C67.1855 77.2497 66.7139 76.7781 66.7139 76.1961C66.7139 75.6142 67.1855 75.1426 67.7674 75.1426C68.3494 75.1426 68.821 75.6142 68.821 76.1961Z" fill="white"/>
<path d="M84.6253 47.2705L68.67 53.7627C68.8819 54.6755 68.8721 55.6263 68.6416 56.5346L84.6253 63.1963L84.6253 47.2705ZM79.3574 58.2856C77.6117 58.2856 76.1967 56.8707 76.1967 55.1249C76.1967 53.3791 77.6117 51.9642 79.3574 51.9642C81.1032 51.9642 82.5181 53.3791 82.5181 55.1249C82.5181 56.8707 81.1032 58.2856 79.3574 58.2856Z" fill="white"/>
<path d="M62.4996 50.9107C60.3879 50.9053 58.5981 52.4638 58.3134 54.5562C58.0281 56.6485 59.3361 58.6289 61.3724 59.1887C62.1107 59.3887 62.8886 59.3887 63.6268 59.1887C65.6632 58.629 66.9711 56.6486 66.6859 54.5562C66.4011 52.4639 64.6113 50.9054 62.4996 50.9107Z" fill="white"/>
<path d="M40.375 63.1997L56.3598 56.5367C56.1281 55.6272 56.1186 54.6748 56.3314 53.7608L40.375 47.2686L40.375 63.1997ZM45.6429 51.9644C47.3886 51.9644 48.8036 53.3794 48.8036 55.1251C48.8036 56.8709 47.3886 58.2859 45.6429 58.2859C43.8971 58.2859 42.4821 56.8709 42.4821 55.1251C42.4821 53.3794 43.8971 51.9644 45.6429 51.9644Z" fill="white"/>
<path d="M80.4109 55.1249C80.4109 55.7068 79.9392 56.1784 79.3573 56.1784C78.7754 56.1784 78.3037 55.7068 78.3037 55.1249C78.3037 54.5429 78.7754 54.0713 79.3573 54.0713C79.9392 54.0713 80.4109 54.5429 80.4109 55.1249Z" fill="white"/>
<path d="M83.7828 65.1288L70.04 59.4004L78.7678 70.1437L83.7828 65.1288Z" fill="white"/>
<path d="M76.531 74.0596L84.262 83.5713H86.9647L67.2302 59.2812C66.7652 59.8126 66.2137 60.2616 65.5996 60.6097L76.5188 74.0354C76.5242 74.0428 76.5262 74.0522 76.5316 74.0596L76.531 74.0596Z" fill="white"/>
<path d="M61.0933 48.9669C62.0201 48.7483 62.9852 48.7483 63.9116 48.9669L70.524 33H54.4834L61.0933 48.9669Z" fill="white"/>
<path d="M54.9563 59.4048L41.2178 65.1307L46.2317 70.1438L54.9563 59.4048Z" fill="white"/>
<path d="M44.5897 89.8926C44.0078 89.8926 43.5361 90.3642 43.5361 90.9461V91.9997H81.4647V90.9461C81.4647 90.3642 80.9931 89.8926 80.4111 89.8926H44.5897Z" fill="white"/>
<path d="M58.2859 76.1966C58.2859 76.7786 57.8142 77.2502 57.2323 77.2502C56.6504 77.2502 56.1787 76.7786 56.1787 76.1966C56.1787 75.6147 56.6504 75.1431 57.2323 75.1431C57.8142 75.1431 58.2859 75.6147 58.2859 76.1966Z" fill="white"/>
<path d="M65.8574 49.778C66.6748 50.2937 67.3641 50.9892 67.8728 51.8115L83.9377 45.2794L72.4695 33.8081L65.8574 49.778Z" fill="white"/>
<path d="M34.0536 92.0001H41.4286V90.9466C41.4286 89.2008 42.8435 87.7859 44.5893 87.7859H80.4107C82.1565 87.7859 83.5714 89.2008 83.5714 90.9466V92.0001H90.9464C91.5284 92.0001 92 91.5285 92 90.9466V86.7323C92 86.1504 91.5284 85.6787 90.9464 85.6787H34.0536C33.4716 85.6787 33 86.1504 33 86.7323V90.9466C33 91.5285 33.4716 92.0001 34.0536 92.0001Z" fill="white"/>
<path d="M46.696 55.1249C46.696 55.7068 46.2244 56.1784 45.6424 56.1784C45.0605 56.1784 44.5889 55.7068 44.5889 55.1249C44.5889 54.5429 45.0605 54.0713 45.6424 54.0713C46.2244 54.0713 46.696 54.5429 46.696 55.1249Z" fill="white"/>
<path d="M64.6071 68.8216C64.6071 69.4036 64.1355 69.8752 63.5536 69.8752C62.9716 69.8752 62.5 69.4036 62.5 68.8216C62.5 68.2397 62.9716 67.7681 63.5536 67.7681C64.1355 67.7681 64.6071 68.2397 64.6071 68.8216Z" fill="white"/>
<path d="M41.0625 45.274L57.1274 51.8062C57.6364 50.9827 58.3275 50.2863 59.1468 49.7707L52.5348 33.8027L41.0625 45.274Z" fill="white"/>
<path d="M70.7913 77.2501C71.3506 77.2505 71.8868 77.0274 72.2812 76.6307L74.283 74.6289L64.5617 62.673L63.5007 61.3696H63.4332C62.8146 61.4651 62.1849 61.4651 61.5664 61.3696H61.4989L60.4379 62.673L50.7188 74.6321L52.7205 76.6339C53.1148 77.0294 53.6502 77.2512 54.2083 77.2504H54.2651C54.1404 76.9129 54.0745 76.5565 54.0712 76.1968C54.0712 74.451 55.4862 73.0361 57.232 73.0361C58.9777 73.0361 60.3927 74.451 60.3927 76.1968C60.3894 76.5565 60.3235 76.9129 60.1988 77.2504H64.8008C64.6761 76.9129 64.6103 76.5565 64.607 76.1968C64.607 74.451 66.0219 73.0361 67.7677 73.0361C69.5135 73.0361 70.9284 74.451 70.9284 76.1968C70.9251 76.5565 70.8593 76.9129 70.7346 77.2504L70.7913 77.2501ZM63.5534 71.9822C61.8076 71.9822 60.3927 70.5673 60.3927 68.8215C60.3927 67.0758 61.8076 65.6608 63.5534 65.6608C65.2992 65.6608 66.7141 67.0758 66.7141 68.8215C66.7141 70.5673 65.2992 71.9822 63.5534 71.9822Z" fill="white"/>
</svg>
