<svg width="124" height="124" viewBox="0 0 124 124" fill="none" xmlns="http://www.w3.org/2000/svg">
<circle cx="62" cy="62" r="54" fill="#8FB6DB"/>
<rect x="37" y="78" width="19" height="2" fill="white"/>
<rect x="68" y="78" width="19" height="2" fill="white"/>
<path fill-rule="evenodd" clip-rule="evenodd" d="M40 66C40 53.8497 49.8497 44 62 44C74.1503 44 84 53.8497 84 66V78H68V73C68 71.8954 67.1046 71 66 71H58C56.8954 71 56 71.8954 56 73V78H40V66ZM72.4084 57.8734L70.5 52L68.5916 57.8734H62.416L67.4122 61.5033L65.5038 67.3766L70.5 63.7467L75.4962 67.3766L73.5878 61.5033L78.584 57.8734H72.4084ZM52 58L52.8981 60.7639H55.8042L53.4531 62.4721L54.3511 65.2361L52 63.5279L49.6489 65.2361L50.5469 62.4721L48.1958 60.7639H51.1019L52 58ZM57.6735 51.0729L57 49L56.3265 51.0729H54.1468L55.9102 52.3541L55.2366 54.4271L57 53.1459L58.7634 54.4271L58.0898 52.3541L59.8532 51.0729H57.6735Z" fill="white"/>
</svg>
