<svg width="124" height="124" viewBox="0 0 124 124" fill="none" xmlns="http://www.w3.org/2000/svg">
<circle cx="62" cy="62" r="54" fill="#E9A72B"/>
<path fill-rule="evenodd" clip-rule="evenodd" d="M53.8743 46C50.9407 46 48.672 48.534 49.039 51.4005L51.9069 73.8005C52.2142 76.2003 54.2864 78 56.7422 78H67.2573C69.7131 78 71.7852 76.2003 72.0925 73.8006L74.961 51.4006C75.328 48.534 73.0593 46 70.1257 46H53.8743ZM52.2625 51.0002C52.1402 50.0447 52.8964 49.2 53.8743 49.2H70.1257C71.1036 49.2 71.8598 50.0447 71.7375 51.0002L70.7402 58.7881C66.5256 58.6859 64.2626 57.9429 61.9997 57.2C59.6649 56.4335 57.3301 55.667 52.852 55.6041L52.2625 51.0002ZM60.3752 63.6C60.3752 64.4837 59.6478 65.2 58.7507 65.2C57.8535 65.2 57.1261 64.4837 57.1261 63.6C57.1261 62.7163 57.8535 62 58.7507 62C59.6478 62 60.3752 62.7163 60.3752 63.6ZM63.6242 71.6C64.5214 71.6 65.2487 70.8837 65.2487 70C65.2487 69.1163 64.5214 68.4 63.6242 68.4C62.727 68.4 61.9997 69.1163 61.9997 70C61.9997 70.8837 62.727 71.6 63.6242 71.6Z" fill="white"/>
</svg>
