<svg width="124" height="124" viewBox="0 0 124 124" fill="none" xmlns="http://www.w3.org/2000/svg">
<circle cx="62" cy="62" r="54" fill="#FFB831"/>
<path d="M61.9999 52.6667L45.501 36.3334H51.0006C57.0754 36.3334 61.9999 41.2085 61.9999 47.2223M61.9999 52.6667V47.2223M61.9999 52.6667H56.5003C50.4255 52.6667 45.501 57.5418 45.501 63.5556V69L58.5 56.1315M61.9999 52.6667H38.6667L42.5555 48.8169C46.851 44.5645 53.8154 44.5645 58.1109 48.8169L61.9999 52.6667ZM61.9999 52.6667L78.4991 36.3334H72.9994C66.9247 36.3334 61.9999 41.2085 61.9999 47.2223M61.9999 52.6667H67.4998C73.5745 52.6667 78.4991 57.5418 78.4991 63.5556V69L65.4999 56.1315M61.9999 52.6667H85.3334L81.4445 48.8169C77.149 44.5645 70.1846 44.5645 65.8892 48.8169L61.9999 52.6667ZM61.9999 52.6667L58.5 56.1315M61.9999 52.6667L65.4999 56.1315M58.5 56.1315V87.6667M65.4999 56.1315V87.6667M48 87.6667H76" stroke="white" stroke-width="3"/>
</svg>
