<svg width="124" height="124" viewBox="0 0 124 124" fill="none" xmlns="http://www.w3.org/2000/svg">
<circle cx="62" cy="62" r="54" fill="#F36F6A"/>
<path d="M67.692 62.7556C66.8714 61.5518 65.5036 60.8403 64.0807 60.8403H61.0712C59.6487 60.8403 58.2809 61.5517 57.4599 62.7556L52.8089 69.5404C52.3166 70.2518 52.3712 71.2914 52.9731 71.8929C53.7936 72.6589 55.107 72.4948 55.7088 71.6193L58.1164 68.1175V86.1188C58.1164 86.9943 58.7183 87.8149 59.5938 87.979C60.743 88.1431 61.6731 87.3226 61.6731 86.2279V75.45C61.6731 75.2313 61.8372 75.0668 62.0563 75.0668H62.9864C63.2051 75.0668 63.3696 75.2309 63.3696 75.45V86.0648C63.3696 86.9403 63.9715 87.7608 64.847 87.925C65.9962 88.0891 66.9263 87.2685 66.9263 86.1739V68.1179L69.3338 71.6196C69.6621 72.112 70.2639 72.3856 70.8112 72.3856C71.1944 72.3856 71.6318 72.2761 71.9605 71.9479C72.6719 71.346 72.7264 70.2518 72.2341 69.4858L67.692 62.7556Z" fill="white"/>
<path d="M66.5429 55.8066C66.5429 58.0126 64.7548 59.8011 62.5488 59.8011C60.3428 59.8011 58.5547 58.0126 58.5547 55.8066C58.5547 53.601 60.3428 51.8125 62.5488 51.8125C64.7548 51.8125 66.5429 53.601 66.5429 55.8066Z" fill="white"/>
<path d="M78.6348 41.526H72.8896V38.4621C72.8896 37.0942 71.7954 36 70.4275 36H54.6148C53.2469 36 52.1527 37.0942 52.1527 38.4621V41.526H46.4621C45.0942 41.526 44 42.6203 44 43.9881V87.1585C44 87.5962 44.3282 87.9245 44.766 87.9245H48.1036C48.5414 87.9245 48.8696 87.5962 48.8696 87.1585V46.3956H76.1178V87.1585C76.1178 87.5962 76.446 87.9245 76.8838 87.9245H80.2214C80.6592 87.9245 80.9874 87.5962 80.9874 87.1585V43.9881C81.097 42.6203 80.0028 41.5257 78.6349 41.5257L78.6348 41.526ZM59.758 42.6753H58.3355C57.5149 42.6753 56.8581 42.0188 56.8581 41.1979C56.8581 40.3773 57.5146 39.7204 58.3355 39.7204H59.758C60.5786 39.7204 61.2354 40.3769 61.2354 41.1979C61.235 42.0188 60.5786 42.6753 59.758 42.6753ZM66.7615 42.6753H65.339C64.5185 42.6753 63.8616 42.0188 63.8616 41.1979C63.8616 40.3773 64.5181 39.7204 65.339 39.7204H66.7615C67.5821 39.7204 68.239 40.3769 68.239 41.1979C68.2386 42.0188 67.5821 42.6753 66.7615 42.6753Z" fill="white"/>
</svg>
