<svg width="124" height="124" viewBox="0 0 124 124" fill="none" xmlns="http://www.w3.org/2000/svg">
<circle cx="62" cy="62" r="54" fill="#407CD0"/>
<path d="M56.3946 62.5H68.6089C69.6358 62.5 70.5015 61.7357 70.6287 60.7169L72.6644 44.4312C72.7371 43.8519 72.5571 43.2693 72.1704 42.8317C71.7846 42.3932 71.228 42.1429 70.6446 42.1429H68.6089V40.1071C68.6089 36.7396 65.8693 34 62.5017 34C59.1342 34 56.3946 36.7396 56.3946 40.1071V42.1429H54.3589C53.7754 42.1429 53.2188 42.3932 52.833 42.8317C52.4463 43.2693 52.2664 43.8514 52.3391 44.4312L54.3748 60.7169C54.502 61.7357 55.3677 62.5 56.3946 62.5H56.3946ZM60.466 40.1071C60.466 38.9848 61.3794 38.0714 62.5017 38.0714C63.6241 38.0714 64.5374 38.9848 64.5374 40.1071V42.1428H60.466V40.1071Z" fill="white"/>
<path d="M50.3183 44.6835C50.297 44.5136 50.3383 44.3482 50.3388 44.1787H40.108C38.9838 44.1787 38.0723 45.0902 38.0723 46.2144V54.3573H51.5278L50.3183 44.6835Z" fill="white"/>
<path d="M86.9299 54.3573V46.2144C86.9299 45.0902 86.0184 44.1787 84.8942 44.1787H74.6634C74.6638 44.3482 74.7052 44.5136 74.6838 44.6835L73.4746 54.3573L86.9299 54.3573Z" fill="white"/>
<path d="M62.501 68.6069C58.4477 68.6069 54.977 70.2777 53.3398 72.6784H71.6624C70.0248 70.2777 66.5541 68.6069 62.5008 68.6069H62.501Z" fill="white"/>
<path d="M63.5186 90.9996H72.6793V74.7139H63.5186V90.9996ZM64.5364 81.8389C64.5364 81.2763 64.9917 80.821 65.5543 80.821C66.1168 80.821 66.5721 81.2763 66.5721 81.8389V83.8746C66.5721 84.4371 66.1168 84.8924 65.5543 84.8924C64.9917 84.8924 64.5364 84.4371 64.5364 83.8746V81.8389Z" fill="white"/>
<path d="M52.3232 90.9996H61.484V74.7139H52.3232V90.9996ZM58.4304 81.8389C58.4304 81.2763 58.8857 80.821 59.4482 80.821C60.0108 80.821 60.4661 81.2763 60.4661 81.8389V83.8746C60.4661 84.4371 60.0108 84.8924 59.4482 84.8924C58.8857 84.8924 58.4304 84.4371 58.4304 83.8746V81.8389Z" fill="white"/>
<path d="M88.9655 56.3931H73.2195L72.6474 60.9698C72.3925 63.0074 70.6608 64.5359 68.6077 64.5359H56.3934C54.3405 64.5359 52.6088 63.0073 52.3538 60.9698L51.7817 56.3931H36.0357C34.9115 56.3931 34 57.3046 34 58.4288V88.9645C34 90.0887 34.9115 91.0002 36.0357 91.0002H50.2857V74.7145C50.2857 71.3415 55.7545 66.5716 62.5 66.5716C69.2455 66.5716 74.7143 71.3415 74.7143 74.7145V91.0002H88.9643C90.0885 91.0002 91 90.0887 91 88.9645V58.4288C91 57.3046 90.0885 56.3931 88.9643 56.3931H88.9655ZM50.2869 70.6431C50.2869 71.7673 49.3754 72.6788 48.2512 72.6788H40.1083C38.9841 72.6788 38.0726 71.7673 38.0726 70.6431V64.5359C38.0726 63.4117 38.9841 62.5002 40.1083 62.5002H48.2512C49.3754 62.5002 50.2869 63.4117 50.2869 64.5359V70.6431ZM86.9297 70.6431C86.9297 71.7673 86.0182 72.6788 84.894 72.6788H76.7512C75.627 72.6788 74.7155 71.7673 74.7155 70.6431V64.5359C74.7155 63.4117 75.627 62.5002 76.7512 62.5002H84.894C86.0182 62.5002 86.9297 63.4117 86.9297 64.5359V70.6431Z" fill="white"/>
</svg>
