<svg width="124" height="124" viewBox="0 0 124 124" fill="none" xmlns="http://www.w3.org/2000/svg">
<circle cx="62" cy="62" r="54" fill="#FFB831"/>
<path d="M44.5 40L49.8548 61.3548M73.5645 61.3548L79.5 40M53.8065 62.9355H40.4099C39.1576 62.9355 38.2133 64.0732 38.4441 65.304L40.371 75.5806M53.8065 62.9355V88.2258M53.8065 62.9355H69.6129M53.8065 88.2258H44.4018C43.4394 88.2258 42.6134 87.5403 42.436 86.5944L40.371 75.5806M53.8065 88.2258H69.6129M69.6129 62.9355H84.4384C85.7396 62.9355 86.6943 64.1582 86.3787 65.4205L83.8387 75.5806M69.6129 62.9355V88.2258M69.6129 88.2258H79.1159C80.0336 88.2258 80.8336 87.6012 81.0562 86.7109L83.8387 75.5806M83.8387 75.5806H40.371" stroke="white" stroke-width="4" stroke-linecap="round"/>
</svg>
