<svg width="124" height="124" viewBox="0 0 124 124" fill="none" xmlns="http://www.w3.org/2000/svg">
<circle cx="62" cy="62" r="54" fill="#F36F6A"/>
<path fill-rule="evenodd" clip-rule="evenodd" d="M67.6024 48.8951C67.9447 49.6005 67.4153 50.3832 66.6374 50.4814C58.2173 51.5449 51.5449 58.2173 50.4814 66.6374C50.3832 67.4153 49.6005 67.9447 48.8951 67.6024C44.2218 65.3343 41 60.5434 41 55C41 47.268 47.268 41 55 41C60.5434 41 65.3343 44.2218 67.6024 48.8951Z" fill="white"/>
<path fill-rule="evenodd" clip-rule="evenodd" d="M77.1119 57.5883C74.8233 55.9585 72.0236 55 69 55C61.268 55 55 61.268 55 69C55 72.0236 55.9585 74.8233 57.5883 77.1119L77.1119 57.5883ZM80.4117 60.8881L60.8881 80.4117C63.1767 82.0415 65.9764 83 69 83C76.732 83 83 76.732 83 69C83 65.9764 82.0415 63.1767 80.4117 60.8881Z" fill="white"/>
</svg>
