<svg width="124" height="124" viewBox="0 0 124 124" fill="none" xmlns="http://www.w3.org/2000/svg">
<circle cx="62" cy="62" r="54" fill="#595BA3"/>
<path d="M52.5198 78.6317C48.2974 79.5204 44.5938 78.7055 45.6313 83.5945C46.6683 88.4834 50.9646 91.7427 55.1864 90.8535C59.4083 89.9647 62.0749 85.1503 61.0379 80.2614C60.0008 75.3725 56.8155 77.6686 52.5198 78.6318V78.6317Z" fill="white"/>
<path d="M52.1496 76.4838C52.4456 76.4099 52.6683 76.3355 52.9644 76.2616C54.3719 75.8173 55.7049 75.2985 56.8163 74.3359C58.0016 73.2989 58.6681 71.7431 58.9641 70.188C59.7051 66.3361 59.1863 62.0398 57.9271 58.4106C56.8902 55.448 55.3343 52.7069 53.0382 50.5591C51.2604 48.8555 48.8158 47.448 46.2975 47.8925C43.7047 48.3368 41.7791 50.7074 40.6682 53.1519C39.0386 56.8555 38.8164 61.0034 39.6312 64.9292C40.2238 67.7441 41.483 70.4847 42.8905 73.003C43.7792 74.4843 44.9645 75.8918 46.5941 76.5583C48.4459 77.2987 50.3717 77.0027 52.1495 76.4839L52.1496 76.4838Z" fill="white"/>
<path d="M73.2603 64.1881C69.0379 63.8921 65.4826 61.2255 64.6678 66.1882C63.853 71.151 66.8156 75.6695 71.1119 76.336C75.4087 77.0025 79.5567 73.5211 80.2976 68.5583C81.038 63.5954 77.4827 65.1507 73.2603 64.1881Z" fill="white"/>
<path d="M77.7046 33.0778C73.705 32.4852 70.89 35.3739 69.0382 38.485C67.0381 41.7443 65.9271 45.5217 65.6306 49.3736C65.4823 51.3737 65.6306 53.3732 66.001 55.3733C66.3715 57.0768 66.6676 58.8547 68.1489 60.04C69.112 60.7809 70.2967 61.1509 71.482 61.4475C73.1855 61.8918 74.8896 62.0401 76.6669 62.0401C78.8147 62.0401 80.1483 61.2253 81.3336 59.4473C83.5559 56.188 84.815 52.4106 85.1111 48.4848C85.3333 44.8551 84.7407 40.7071 83.1111 37.3739C82.5184 36.2631 81.778 35.1516 80.815 34.3368C79.8524 33.6698 78.8897 33.2999 77.7045 33.0777L77.7046 33.0778Z" fill="white"/>
</svg>
