<svg width="124" height="124" viewBox="0 0 124 124" fill="none" xmlns="http://www.w3.org/2000/svg">
<circle cx="62" cy="62" r="54" fill="#ABA39A"/>
<path d="M47.5536 65.2855H50.619V44.4761H47.5536C46.5319 44.4761 45.6904 45.3725 45.6904 46.4609V63.2364C45.6904 64.3249 46.5319 65.2856 47.5536 65.2856V65.2855Z" fill="white"/>
<path d="M79.0951 63.2365V46.4609C79.0951 45.3724 78.2536 44.4761 77.2319 44.4761H74.1665V65.2856H77.2319C78.2536 65.2856 79.0951 64.3249 79.0951 63.2364V63.2365Z" fill="white"/>
<path d="M71.4286 44.6009H67.7938V42.564C67.7938 40.5911 66.1997 39 64.2231 39H60.0146C58.038 39 56.4439 40.5911 56.4439 42.564L56.4444 44.6009H52.8096V65.2857H71.3012V44.6009H71.4286ZM64.9246 44.6009H59.4408V42.564C59.4408 42.1822 59.7597 41.9274 60.0787 41.9274H64.2872C64.6697 41.9274 64.925 42.2457 64.925 42.564L64.9246 44.6009Z" fill="white"/>
<path d="M85.3073 69.6665H39.4145C35.3238 69.6665 32 73.1034 32 77.3332C32 81.563 35.3238 84.9998 39.4145 84.9998H85.3712C89.4619 84.9998 92.7857 81.563 92.7857 77.3332C92.7215 73.1034 89.3976 69.6665 85.307 69.6665H85.3073ZM43.1217 80.5717C41.3959 80.5717 39.9897 79.1177 39.9897 77.3332C39.9897 75.5486 41.3959 74.0946 43.1217 74.0946C44.8476 74.0946 46.2538 75.5486 46.2538 77.3332C46.2534 79.1177 44.8472 80.5717 43.1217 80.5717ZM55.9692 80.5717C54.2433 80.5717 52.8371 79.1177 52.8371 77.3332C52.8371 75.5486 54.2433 74.0946 55.9692 74.0946C57.695 74.0946 59.1012 75.5486 59.1012 77.3332C59.1012 79.1177 57.695 80.5717 55.9692 80.5717ZM68.7526 80.5717C67.0268 80.5717 65.6206 79.1177 65.6206 77.3332C65.6206 75.5486 67.0268 74.0946 68.7526 74.0946C70.4785 74.0946 71.8847 75.5486 71.8847 77.3332C71.9485 79.1177 70.5422 80.5717 68.7526 80.5717ZM81.6001 80.5717C79.8742 80.5717 78.468 79.1177 78.468 77.3332C78.468 75.5486 79.8742 74.0946 81.6001 74.0946C83.3259 74.0946 84.7321 75.5486 84.7321 77.3332C84.7959 79.1177 83.3896 80.5717 81.6001 80.5717Z" fill="white"/>
</svg>
