<svg width="124" height="124" viewBox="0 0 124 124" fill="none" xmlns="http://www.w3.org/2000/svg">
<circle cx="62" cy="62" r="54" fill="#7F6DF3"/>
<path d="M48 86V38H67.6497C71.2111 38 74.2848 38.7031 76.8707 40.1094C79.4721 41.5 81.4773 43.4453 82.8864 45.9453C84.2955 48.4297 85 51.3203 85 54.6172C85 57.9297 84.28 60.8281 82.8399 63.3125C81.4154 65.7812 79.3792 67.6953 76.7313 69.0547C74.0835 70.4141 70.9402 71.0938 67.3013 71.0938H55.177V61.9531H65.1645C66.8987 61.9531 68.3465 61.6484 69.5078 61.0391C70.6847 60.4297 71.575 59.5781 72.1789 58.4844C72.7828 57.375 73.0847 56.0859 73.0847 54.6172C73.0847 53.1328 72.7828 51.8516 72.1789 50.7734C71.575 49.6797 70.6847 48.8359 69.5078 48.2422C68.331 47.6484 66.8832 47.3516 65.1645 47.3516H59.4972V86H48Z" fill="white"/>
</svg>
