<svg width="124" height="124" viewBox="0 0 124 124" fill="none" xmlns="http://www.w3.org/2000/svg">
<circle cx="62" cy="62" r="54" fill="#595BA3"/>
<path d="M65.1383 96.0989C65.7509 96.0964 66.3379 95.8513 66.7703 95.4171C67.2026 94.9829 67.4453 94.3953 67.4453 93.7828V74.2422H62.8222V93.7556C62.8147 94.3745 63.0555 94.9702 63.4909 95.4106C63.9257 95.851 64.519 96.0986 65.1384 96.0986L65.1383 96.0989Z" fill="white"/>
<path d="M61.007 93.7566V74.2432H56.3745V93.7566C56.3745 94.5838 56.8162 95.3486 57.5329 95.7622C58.2497 96.1765 59.1325 96.1765 59.8492 95.7622C60.566 95.3487 61.007 94.5838 61.007 93.7566H61.007Z" fill="white"/>
<path d="M57.3756 32.6032C57.3756 33.809 57.8547 34.965 58.7074 35.8171C59.5595 36.6686 60.7161 37.1471 61.9213 37.1465C63.1272 37.1458 64.2825 36.6655 65.134 35.8127C65.9855 34.9593 66.4633 33.8028 66.4614 32.5975C66.4602 31.3917 65.9792 30.2364 65.1258 29.3856C64.2718 28.5347 63.1153 28.0581 61.9094 28.0606C60.706 28.0624 59.5532 28.5421 58.703 29.3943C57.8527 30.2458 57.3755 31.3999 57.3755 32.6032L57.3756 32.6032Z" fill="white"/>
<path d="M73.7143 72.0424C73.8946 71.8085 73.9482 71.501 73.8571 71.2196L71.5765 63.8237L67.0607 49.1122C66.9859 48.8814 67.0083 48.6294 67.1231 48.4154C67.2379 48.2008 67.435 48.043 67.6689 47.9769C67.8998 47.902 68.1518 47.9245 68.3658 48.0393C68.5804 48.1541 68.7388 48.3512 68.8043 48.5851L73.2758 62.9566L73.365 63.2785H73.3657C73.7948 64.1175 74.7693 64.5218 75.6663 64.2329C76.5633 63.9441 77.1191 63.0477 76.9781 62.1157L71.5321 44.4356C71.1865 43.3033 70.4866 42.3121 69.5346 41.6084C68.5833 40.9048 67.4305 40.5255 66.2465 40.5274H57.5897C56.4064 40.5236 55.2535 40.9017 54.3029 41.606C53.3522 42.3102 52.6541 43.3027 52.3135 44.4356L46.8402 62.1157C46.6225 62.8456 46.8583 63.6354 47.4403 64.1263C48.0223 64.6173 48.8408 64.7165 49.5232 64.3783C49.9905 64.1625 50.3486 63.7651 50.5157 63.2786L55.0497 48.5851H55.0503C55.1957 48.106 55.7022 47.8353 56.1813 47.9813C56.6604 48.1272 56.9305 48.6332 56.7851 49.1122L52.3136 63.5018L49.9349 71.2109H49.9343C49.8432 71.4916 49.8969 71.7997 50.0778 72.0337C50.2481 72.2732 50.5257 72.4136 50.8201 72.4092H72.9718C73.2643 72.4155 73.5413 72.2788 73.7141 72.0424L73.7143 72.0424Z" fill="white"/>
</svg>
