<svg width="124" height="124" viewBox="0 0 124 124" fill="none" xmlns="http://www.w3.org/2000/svg">
<circle cx="62" cy="62" r="54" fill="#F36F6A"/>
<path fill-rule="evenodd" clip-rule="evenodd" d="M47.4851 69.2339C47.4851 67.5586 48.8432 66.1993 50.5197 66.1993C52.195 66.1993 53.553 67.5574 53.553 69.2339C53.553 70.9092 52.195 72.2685 50.5197 72.2685C48.8444 72.2685 47.4851 70.9091 47.4851 69.2339ZM50.5197 59.9667C45.8046 59.9667 41.983 56.1451 41.983 51.4301C41.983 46.715 45.8046 42.8934 50.5197 42.8934C55.2347 42.8934 59.0563 46.7137 59.0563 51.4301C59.0563 56.1451 55.2347 59.9667 50.5197 59.9667ZM79.1648 75.0717C79.1648 73.3964 80.5229 72.0371 82.1982 72.0371C83.8735 72.0371 85.2328 73.3952 85.2328 75.0717C85.2328 76.747 83.8747 78.1063 82.1982 78.1063C80.5238 78.1063 79.1648 76.7474 79.1648 75.0717ZM73.6629 57.2681C73.6629 52.5531 77.4845 48.7314 82.1995 48.7314C86.9159 48.7314 90.7361 52.5517 90.7361 57.2681C90.7361 61.9831 86.9145 65.8047 82.1995 65.8047C77.4845 65.8047 73.6629 61.9831 73.6629 57.2681ZM67.3974 43.0002V83.8373H97.0001V43.0002H67.3974ZM77.5405 55.0488C77.5405 55.7276 78.0907 56.2782 78.7699 56.2782C79.4487 56.2782 79.9993 55.728 79.9993 55.0488C79.9993 54.37 79.4491 53.8194 78.7699 53.8194C78.0911 53.8194 77.5405 54.3696 77.5405 55.0488ZM84.4006 55.0501C84.4006 55.7289 84.9508 56.2794 85.63 56.2794C86.3088 56.2794 86.8594 55.7293 86.8594 55.0501C86.8594 54.3712 86.3092 53.8207 85.63 53.8207C84.9512 53.8207 84.4006 54.3708 84.4006 55.0501ZM85.9951 58.9964C84.0009 61.987 80.3986 61.9857 78.4036 58.9964L76.9758 59.8851C79.6502 63.9359 84.749 63.9333 87.4245 59.8864L85.9951 58.9964ZM55.1799 49.212C55.1799 48.5332 54.6297 47.9827 53.9505 47.9827C53.2717 47.9827 52.7211 48.5328 52.7211 49.212C52.7211 49.8909 53.2713 50.4414 53.9505 50.4414C54.6297 50.4414 55.1799 49.8913 55.1799 49.212ZM48.3202 49.212C48.3202 48.5332 47.77 47.9827 47.0908 47.9827C46.412 47.9827 45.8614 48.5328 45.8614 49.212C45.8614 49.8909 46.4116 50.4414 47.0908 50.4414C47.7696 50.4414 48.3202 49.8913 48.3202 49.212ZM54.3159 53.1584C52.3217 56.149 48.7194 56.149 46.7253 53.1584L45.2962 54.0471C47.9705 58.0966 53.0693 58.0953 55.7449 54.0484L54.3159 53.1584ZM35.7178 37.1626V77.9997H65.3205V37.1626H35.7178Z" fill="white"/>
</svg>
