<svg width="124" height="124" viewBox="0 0 124 124" fill="none" xmlns="http://www.w3.org/2000/svg">
<circle cx="62" cy="62" r="54" fill="#FFB831"/>
<path fill-rule="evenodd" clip-rule="evenodd" d="M78.375 40H50.875C46.8728 40 44 42.9925 44 46.875V78.9583C44 82.8407 46.8728 85.8333 50.875 85.8333H78.375C79.8458 85.8333 80.6666 84.9783 80.6666 83.5416V81.2499H52.5417C51.6212 81.2499 50.875 80.5037 50.875 79.5832V78.3332C50.875 77.4127 51.6212 76.6665 52.5417 76.6665H80.6666V42.2917C80.6666 40.855 79.8458 40 78.375 40Z" fill="white"/>
<mask id="mask0_131_1708" style="mask-type:alpha" maskUnits="userSpaceOnUse" x="47" y="43" width="37" height="47">
<path fill-rule="evenodd" clip-rule="evenodd" d="M81.7083 43.667H54.2084C50.2062 43.667 47.3334 46.6595 47.3334 50.542V82.6253C47.3334 86.5077 50.2062 89.5003 54.2084 89.5003H81.7083C83.1792 89.5003 84 88.6453 84 87.2086V84.9168H55.875C54.9546 84.9168 54.2084 84.1707 54.2084 83.2502V82.0002C54.2084 81.0797 54.9546 80.3335 55.875 80.3335H84V45.9587C84 44.522 83.1792 43.667 81.7083 43.667Z" fill="white"/>
</mask>
<g mask="url(#mask0_131_1708)">
</g>
</svg>
