<svg width="124" height="124" viewBox="0 0 124 124" fill="none" xmlns="http://www.w3.org/2000/svg">
<circle cx="62" cy="62" r="54" fill="#AD7147"/>
<path d="M77.4309 48.5633L62.4309 44.0633C62.2069 43.9961 61.9703 43.9822 61.74 44.0227C61.5097 44.0632 61.2921 44.157 61.1044 44.2966C60.9168 44.4361 60.7645 44.6177 60.6595 44.8266C60.5545 45.0356 60.4998 45.2662 60.4998 45.5V54.4663C60.4993 54.4892 60.4993 54.5121 60.4998 54.5349V65.799C58.9643 64.4262 57.0042 63.6221 54.947 63.5208C52.8898 63.4196 50.8602 64.0274 49.1973 65.2427C47.5343 66.458 46.3389 68.2072 45.8106 70.198C45.2824 72.1888 45.4534 74.3006 46.295 76.1805C47.1366 78.0603 48.5979 79.5945 50.4346 80.5265C52.2714 81.4584 54.3723 81.7319 56.3864 81.301C58.4006 80.8701 60.2058 79.7611 61.5005 78.1592C62.7952 76.5574 63.501 74.5597 63.4998 72.5V56.516L76.5688 60.4367C76.7928 60.5039 77.0294 60.5178 77.2597 60.4773C77.49 60.4368 77.7076 60.343 77.8952 60.2035C78.0829 60.0639 78.2352 59.8824 78.3402 59.6734C78.4452 59.4644 78.4998 59.2338 78.4998 59V50C78.4999 49.6774 78.3959 49.3634 78.2033 49.1046C78.0107 48.8458 77.7399 48.656 77.4309 48.5633Z" fill="white"/>
</svg>
