<svg width="124" height="124" viewBox="0 0 124 124" fill="none" xmlns="http://www.w3.org/2000/svg">
<circle cx="62" cy="62" r="54" fill="#F36F6A"/>
<path d="M38 78.337L43.5727 77.5483L45.6658 92.3362L40.0931 93.1249L38 78.337Z" fill="white"/>
<path d="M82.4783 74.5092C82.4705 74.5149 82.4633 74.5203 82.4551 74.5256L75.3596 79.4796L75.3601 79.4791C75.4934 79.865 75.59 80.2629 75.6474 80.6672C75.731 81.2588 75.3195 81.806 74.7279 81.89L63.1628 83.5267C62.8769 83.5706 62.5852 83.4982 62.3533 83.3258C62.121 83.1533 61.9675 82.8954 61.9274 82.6091C61.8868 82.3227 61.9626 82.0324 62.1375 81.8021C62.3128 81.5722 62.5726 81.422 62.8595 81.3848L73.2138 79.9191C72.8511 79.0677 72.218 78.3592 71.4125 77.9037C70.6069 77.4478 69.6734 77.2706 68.7568 77.3991L61.7213 78.3949C60.2985 78.5948 58.8488 78.4717 57.48 78.0351L56.7049 77.7869C54.8914 77.2015 52.9548 77.1112 51.0945 77.5251C49.2346 77.939 47.5187 78.8426 46.125 80.1417L47.5043 89.8837L48.2953 89.2699V89.2704C49.4273 88.3885 50.8579 87.9819 52.2845 88.1355L64.7271 89.4534V89.4539C67.0424 89.5312 69.3233 88.8777 71.2459 87.5859L85.6803 74.3447C85.1896 74.0544 84.624 73.9148 84.0542 73.9443C83.4843 73.9733 82.9362 74.1698 82.4774 74.5093L82.4783 74.5092Z" fill="white"/>
<path d="M79.36 36.1096C75.9595 33.0453 71.6101 31.2415 67.0391 31V35.6112C70.3888 35.8416 73.5719 37.1609 76.1021 39.3681L79.36 36.1096Z" fill="white"/>
<path d="M61.1621 51.0313L65.9694 58.2272L70.7772 51.0313L65.9694 43.8354L61.1621 51.0313Z" fill="white"/>
<path d="M85.9989 49.9481C85.7545 45.3813 83.9513 41.0368 80.8898 37.6392L77.6318 40.8972C79.8365 43.4244 81.1549 46.6026 81.3877 49.9481H85.9989Z" fill="white"/>
<path d="M67.04 71.0619C71.6333 70.819 76.002 68.9992 79.4097 65.9099L76.1516 62.6519V62.6514C73.6138 64.8841 70.4123 66.2188 67.0404 66.4511L67.04 71.0619Z" fill="white"/>
<path d="M55.883 39.3255C58.4001 37.148 61.5552 35.845 64.8754 35.6122V31.001C60.3344 31.2458 56.0123 33.0328 52.624 36.0662L55.883 39.3255Z" fill="white"/>
<path d="M54.3491 40.8488L51.0911 37.5908C48.004 40.9951 46.1842 45.359 45.9395 49.948H50.5506C50.7849 46.5804 52.1193 43.3832 54.3491 40.8487V40.8488Z" fill="white"/>
<path d="M54.3046 61.1657C52.0999 58.638 50.781 55.4592 50.5487 52.1128H45.9375C46.1809 56.6805 47.9843 61.0261 51.0466 64.4241L54.3046 61.1657Z" fill="white"/>
<path d="M77.6758 61.1159L80.9347 64.3747C83.971 60.9835 85.7584 56.6567 86.0008 52.1113H81.3896C81.1588 55.4355 79.8558 58.5953 77.6758 61.1159Z" fill="white"/>
<path d="M52.5771 65.9538C55.9723 69.0128 60.313 70.8156 64.8763 71.0619V66.4507C61.5343 66.216 58.3599 64.8976 55.835 62.6953L52.5771 65.9538Z" fill="white"/>
<path d="M65.9693 37.7363C62.4433 37.7363 59.0618 39.1369 56.5683 41.6303C54.0753 44.1238 52.6748 47.5054 52.6748 51.0313C52.6748 54.5573 54.0758 57.9389 56.5688 60.4319C59.0622 62.9253 62.4439 64.3259 65.9698 64.3259C69.4958 64.3259 72.8774 62.9248 75.3704 60.4319C77.8638 57.9384 79.2643 54.5568 79.2643 51.0309C79.2605 47.5063 77.8585 44.1266 75.366 41.6346C72.8736 39.1422 69.4939 37.7402 65.9693 37.7363ZM72.9774 51.6316L66.8686 60.7747C66.6677 61.0751 66.3302 61.2553 65.9694 61.2553C65.6082 61.2553 65.2706 61.0751 65.0702 60.7747L58.9619 51.6316H58.9614C58.7185 51.2679 58.7185 50.7932 58.9614 50.4295L65.0697 41.2864H65.0702C65.2706 40.986 65.6082 40.8059 65.9694 40.8059C66.3302 40.8059 66.6677 40.986 66.8686 41.2864L72.9774 50.4295H72.9769C73.2203 50.7932 73.2203 51.2679 72.9769 51.6316H72.9774Z" fill="white"/>
</svg>
