<svg width="124" height="124" viewBox="0 0 124 124" fill="none" xmlns="http://www.w3.org/2000/svg">
<circle cx="62" cy="62" r="54" fill="#595BA3"/>
<path d="M74.3951 39.8779C74.3951 37.2012 76.5959 35 79.273 35C81.9497 35 84.1509 37.2008 84.1509 39.8779C84.1509 42.5546 81.9501 44.7558 79.273 44.7558C76.5365 44.7554 74.3951 42.5546 74.3951 39.8779ZM87.2436 46.3019H71.2424C70.4096 46.3019 69.6959 47.0156 69.6959 47.8484V65.0393C69.6959 65.8721 70.4096 66.5858 71.2424 66.5858C72.0752 66.5858 72.7889 65.8721 72.7889 65.0393V52.3692H74.3951V85.9183C74.3951 87.0486 75.2871 87.9406 76.4174 87.9406C77.5477 87.9406 78.4398 87.0485 78.4398 85.9183L78.4402 68.8463H79.9867V85.9183C79.9867 87.0486 80.8788 87.9406 82.009 87.9406C83.1393 87.9406 84.0314 87.0485 84.0314 85.9183V52.3692H85.6376V65.0393C85.6376 65.8721 86.3512 66.5858 87.184 66.5858C88.0168 66.5858 88.7305 65.8721 88.7305 65.0393L88.7309 47.7889C88.7903 46.9561 88.0766 46.3018 87.2438 46.3018L87.2436 46.3019ZM47.3297 44.7554C50.0064 44.7554 52.2077 42.5546 52.2077 39.8775C52.2077 37.2008 50.0662 35 47.3297 35C44.6531 35 42.4518 37.2008 42.4518 39.8779C42.4522 42.5546 44.6531 44.7554 47.3297 44.7554ZM59.643 60.8756L54.8841 47.3132C54.6464 46.7182 54.0514 46.3016 53.397 46.3016H41.3217C40.6674 46.3016 40.0723 46.7182 39.894 47.3128L35.1352 60.8752C34.8376 61.6486 35.2542 62.5408 36.087 62.8382C36.8604 63.1357 37.7526 62.7191 38.05 61.8864L42.4519 49.3352L43.939 49.3356L37.3363 68.8464H42.4519V85.9184C42.4519 87.0487 43.344 87.9408 44.4743 87.9408C45.6045 87.9408 46.4966 87.0487 46.4966 85.9184V68.8464H48.0431V85.9184C48.0431 87.0487 48.9352 87.9408 50.0655 87.9408C51.1958 87.9408 52.0878 87.0487 52.0878 85.9184L52.0882 68.8464H57.2039L50.7796 49.3356H52.3261L56.728 61.8868C56.9658 62.5411 57.5608 62.898 58.1557 62.898C58.3342 62.898 58.5126 62.898 58.691 62.8386C59.4644 62.5411 59.8806 61.6486 59.6428 60.8756H59.643ZM64.818 68.073C66.186 68.073 67.2569 67.0025 67.2569 65.6341C67.2569 64.266 66.1864 63.1951 64.818 63.1951C63.45 63.1951 62.379 64.2656 62.379 65.6341C62.379 67.0025 63.5093 68.073 64.818 68.073ZM68.6847 68.8464H60.7135C60.2969 68.8464 59.94 69.2033 59.94 69.6199V78.245C59.94 78.6616 60.2969 79.0184 60.7135 79.0184C61.1301 79.0184 61.4869 78.6615 61.4869 78.245V71.8799H62.3197V86.9294C62.3197 87.4647 62.7956 87.9406 63.3308 87.9406C63.8661 87.9406 64.342 87.4647 64.342 86.9294V79.018H65.1154V86.9888C65.1154 87.5241 65.5914 88 66.1266 88C66.6619 88 67.1378 87.5241 67.1378 86.9888V71.8798H67.9112V78.1851C67.9112 78.6016 68.2681 78.9585 68.6846 78.9585C69.1012 78.9585 69.4581 78.6016 69.4581 78.1851L69.4576 69.6196C69.4576 69.2031 69.1008 68.8462 68.6846 68.8462L68.6847 68.8464Z" fill="white"/>
</svg>
