<svg width="124" height="124" viewBox="0 0 124 124" fill="none" xmlns="http://www.w3.org/2000/svg">
<circle cx="62" cy="62" r="54" fill="#485475"/>
<path fill-rule="evenodd" clip-rule="evenodd" d="M40.1667 48C39.3382 48 38.6667 48.6716 38.6667 49.5V51.1667C38.6667 51.9951 39.3382 52.6667 40.1667 52.6667H46.5C47.3284 52.6667 48 51.9951 48 51.1667V49.5C48 48.6716 47.3284 48 46.5 48H40.1667ZM34 61.1667C34 60.3382 34.6716 59.6667 35.5 59.6667H46.5C47.3284 59.6667 48 60.3382 48 61.1667V62.8333C48 63.6618 47.3284 64.3333 46.5 64.3333H35.5C34.6716 64.3333 34 63.6618 34 62.8333V61.1667ZM41 72.8333C41 72.0049 41.6716 71.3333 42.5 71.3333H46.5C47.3284 71.3333 48 72.0049 48 72.8333V74.5C48 75.3284 47.3284 76 46.5 76H42.5C41.6716 76 41 75.3284 41 74.5V72.8333Z" fill="white"/>
<path fill-rule="evenodd" clip-rule="evenodd" d="M54.6666 48C53.5621 48 52.6666 48.8954 52.6666 50V74C52.6666 75.1046 53.5621 76 54.6666 76H88C89.1045 76 90 75.1046 90 74V50C90 48.8954 89.1045 48 88 48H54.6666ZM85.1599 53.4032C84.7807 52.7224 83.9024 52.4677 83.1982 52.8343L71.3333 59.01L59.4685 52.8343C58.7642 52.4677 57.8859 52.7224 57.5067 53.4032C57.1275 54.0839 57.391 54.933 58.0952 55.2995L70.6467 61.8327C71.0754 62.0558 71.5913 62.0558 72.0199 61.8327L84.5714 55.2995C85.2757 54.933 85.5392 54.0839 85.1599 53.4032Z" fill="white"/>
</svg>
