<svg width="124" height="124" viewBox="0 0 124 124" fill="none" xmlns="http://www.w3.org/2000/svg">
<circle cx="62" cy="62" r="54" fill="#A35980"/>
<path d="M80.8359 71.6703C83.5677 71.6703 85.7788 69.4578 85.7788 66.726V59.0245C85.7788 56.2931 83.5677 54.0811 80.8359 54.0811H43.9626C41.2308 54.0811 39.0192 56.2936 39.0192 59.0245V66.7255C39.0192 69.4573 41.2308 71.6698 43.9626 71.6698H60.6823V78.1764C58.9191 78.853 57.5422 80.2284 56.8679 81.9916H39.019V86.7109H56.8679C57.8236 89.2111 60.2062 91 63.0416 91C65.8784 91 68.2592 89.2113 69.2145 86.7113H85.7782V81.9921H69.2145C68.542 80.2297 67.1638 78.8543 65.401 78.1769V71.6703H80.8359ZM49.7442 67.0084C47.4621 67.0084 45.612 65.1564 45.612 62.8752C45.612 60.5932 47.4621 58.743 49.7442 58.743C52.0262 58.743 53.8755 60.5932 53.8755 62.8752C53.8755 65.1569 52.0262 67.0084 49.7442 67.0084Z" fill="white"/>
<path d="M80.8363 32.334H43.9629C41.2311 32.334 39.0195 34.5456 39.0195 37.2774V44.9784C39.0195 47.7102 41.2311 49.9218 43.9629 49.9218H80.8351C83.5669 49.9218 85.778 47.7102 85.778 44.9784L85.7785 37.2774C85.7785 34.5456 83.5683 32.334 80.8355 32.334H80.8363ZM49.7445 45.2602C47.4625 45.2602 45.6123 43.4101 45.6123 41.129C45.6123 38.8465 47.4625 36.9963 49.7445 36.9963C52.0266 36.9963 53.8758 38.8465 53.8758 41.129C53.8758 43.4097 52.0266 45.2602 49.7445 45.2602Z" fill="white"/>
</svg>
