<svg width="56" height="38" viewBox="0 0 56 38" fill="none" xmlns="http://www.w3.org/2000/svg">
<path d="M43.0745 31.1799C41.3873 31.1799 40.3866 30.3165 40.3101 29.0729H41.9233C41.9233 29.4875 42.153 30.0393 43.1511 30.0736C43.8428 30.0736 44.2257 29.6591 44.2257 29.3475C44.1491 28.8644 43.5339 28.83 42.9214 28.7244C42.3678 28.6589 41.8253 28.5204 41.3081 28.3124C41.0452 28.1652 40.8274 27.949 40.6785 27.687C40.5296 27.425 40.4551 27.1272 40.4632 26.826C40.4632 25.7197 41.3873 24.8563 42.9979 24.8563C44.5346 24.8563 45.5327 25.651 45.6066 26.8603H44.0725C44.0725 26.5514 43.996 26.0312 43.0745 26.0312C42.4593 26.0312 42.0765 26.1342 41.9999 26.583C41.9999 27.2061 43.3042 27.1719 44.3023 27.4122C45.2237 27.6551 45.8389 28.2412 45.8389 29.0729C45.8389 30.5938 44.6112 31.1799 43.0745 31.1799" fill="black"/>
<path d="M13.6772 20.9764L18.9738 17.9004L21.8149 22.7746H14.6754" fill="black"/>
<path fill-rule="evenodd" clip-rule="evenodd" d="M25.59 24.8445V30.9965H24.04V24.8445H25.59Z" fill="black"/>
<path d="M11.2187 28.0117C11.2187 28.978 12.0636 29.7728 12.9824 29.7728C13.9831 29.7728 14.7488 28.978 14.7488 28.0117C14.7488 27.0796 13.9831 26.2506 12.9824 26.2506C12.5201 26.2663 12.081 26.4568 11.7537 26.7837C11.4263 27.1105 11.2351 27.5494 11.2187 28.0117V28.0117ZM12.9059 31.1907C11.2187 31.1907 9.76123 29.7728 9.76123 28.0117C9.76123 26.2506 11.2187 24.867 12.9059 24.867C13.5976 24.867 14.2128 25.0413 14.7488 25.4189V24.9357H16.2855V31.0507H14.7488V30.6705C14.2894 31.0164 13.5976 31.1907 12.9059 31.1907Z" fill="black"/>
<path d="M33.4064 22.7731L26.0371 9.91989L31.3338 6.80957L40.5459 22.7731" fill="black"/>
<path d="M18.2819 28.0115C18.2819 28.9779 19.0502 29.7726 20.0483 29.7726C20.9671 29.7726 21.8147 28.9779 21.8147 28.0115C21.7976 27.549 21.6058 27.1102 21.2781 26.7834C20.9503 26.4566 20.5109 26.2661 20.0483 26.2504C19.5814 26.2525 19.1341 26.4385 18.8034 26.7682C18.4728 27.0979 18.2854 27.5446 18.2819 28.0115V28.0115ZM19.9717 31.1905C19.5555 31.1912 19.1434 31.1092 18.7591 30.9493C18.3749 30.7894 18.0262 30.5548 17.7334 30.259C17.4406 29.9633 17.2095 29.6123 17.0534 29.2264C16.8974 28.8406 16.8195 28.4277 16.8244 28.0115C16.8244 26.2504 18.2053 24.8668 19.9717 24.8668C20.6609 24.8668 21.276 25.0411 21.8147 25.4187V22.8285H23.3487V31.0505H21.8147V30.6703C21.2643 31.0199 20.6236 31.2007 19.9717 31.1905" fill="black"/>
<path d="M19.896 15.4826L25.2693 12.4436L31.1808 22.7726H25.5755V24.2934H24.0414V22.7726" fill="black"/>
<path d="M44.8435 24.3415C44.643 24.3356 44.4521 24.2539 44.3095 24.1127C44.1669 23.9716 44.0831 23.7816 44.0752 23.5811C44.0831 23.3806 44.1669 23.1906 44.3095 23.0494C44.4521 22.9083 44.643 22.8266 44.8435 22.8207C44.9445 22.8178 45.0451 22.8355 45.1391 22.8726C45.2331 22.9097 45.3186 22.9654 45.3904 23.0365C45.4622 23.1076 45.5189 23.1925 45.5569 23.2861C45.595 23.3797 45.6137 23.4801 45.6119 23.5811C45.6137 23.6821 45.595 23.7825 45.5569 23.8761C45.5189 23.9697 45.4622 24.0546 45.3904 24.1257C45.3186 24.1968 45.2331 24.2526 45.1391 24.2897C45.0451 24.3268 44.9445 24.3444 44.8435 24.3415V24.3415ZM44.8435 22.9263C44.458 22.9263 44.2283 23.2352 44.2283 23.5811C44.2283 23.927 44.458 24.2385 44.8435 24.2385C45.2264 24.2385 45.4561 23.927 45.4561 23.5811C45.4561 23.2352 45.2264 22.9263 44.8435 22.9263Z" fill="black"/>
<path d="M45.0019 23.9982L44.8487 23.6522H44.6956V23.9982H44.5794V23.169H44.9253C45.0019 23.169 45.155 23.2747 45.155 23.412C45.1577 23.463 45.1443 23.5135 45.1168 23.5566C45.0894 23.5997 45.0492 23.6331 45.0019 23.6522L45.155 23.9982H45.0019ZM44.8487 23.2747H44.6956V23.5493H44.8487C45.0019 23.5493 45.0019 23.5149 45.0019 23.412C45.0019 23.3407 45.0019 23.2747 44.8487 23.2747ZM34.7046 28.0114C34.7046 28.9778 35.4729 29.7725 36.4709 29.7725C37.3924 29.7725 38.2347 28.9778 38.2347 28.0114C38.2189 27.549 38.0279 27.1097 37.7004 26.7827C37.3729 26.4558 36.9335 26.2655 36.4709 26.2504C36.004 26.2524 35.5567 26.4385 35.2261 26.7681C34.8954 27.0978 34.708 27.5445 34.7046 28.0114V28.0114ZM36.3917 31.1904C35.9758 31.1908 35.5639 31.1086 35.1799 30.9485C34.796 30.7885 34.4476 30.5537 34.1551 30.258C33.8626 29.9623 33.6317 29.6115 33.4758 29.2258C33.3199 28.8402 33.2422 28.4274 33.2471 28.0114C33.2471 26.2503 34.628 24.8668 36.3917 24.8668C37.0835 24.8668 37.6987 25.0411 38.2347 25.4186V24.9354H39.6948V31.0505H38.2347V30.6702C37.6846 31.0205 37.0438 31.2014 36.3917 31.1904V31.1904ZM27.6469 28.0114C27.6469 28.9778 28.4918 29.7725 29.4133 29.7725C30.4114 29.7725 31.1797 28.9778 31.1797 28.0114C31.1762 27.5445 30.9888 27.0978 30.6582 26.7681C30.3275 26.4385 29.8802 26.2524 29.4133 26.2504C28.9505 26.2655 28.5108 26.4557 28.1829 26.7826C27.855 27.1095 27.6634 27.5487 27.6469 28.0114V28.0114ZM31.1797 22.8284H32.7137V31.0505H31.1797V30.6702C30.6623 31.0294 30.0428 31.2119 29.4133 31.1904C27.6469 31.1904 26.1895 29.7726 26.1895 28.0114C26.1895 26.2503 27.6469 24.8668 29.4133 24.8668C30.1024 24.8668 30.7176 25.0411 31.1797 25.4186V22.8284Z" fill="black"/>
</svg>
