<svg width="56" height="38" viewBox="0 0 56 38" fill="none" xmlns="http://www.w3.org/2000/svg">
<path d="M41.6117 19.6774L42.3225 17.5956L43.01 19.6774H41.6117ZM34.2455 18.8709V16.9525H34.5784C35.1288 16.9525 35.498 17.3103 35.498 17.9575C35.498 18.3144 35.2187 18.8709 34.6396 18.8709H34.2455ZM30.6477 19.6774L31.3584 17.5956L32.046 19.6774H30.6477ZM49.0987 16.861H46.9925V16.9525H47.3405V20.2475L45.1982 16.861H44.2778V16.9525H44.6249V21.1192H44.0428L42.5512 16.6685L41.011 21.1192H40.4625V16.9525H40.7802V16.861H39.949L38.7661 20.3362L37.5259 16.861H36.6808V16.9525H37.0286V21.1192H36.3897C36.1703 21.1192 35.9897 20.9234 35.9897 20.6153V19.9686C35.9897 19.4348 35.8027 19.0087 35.2081 18.9182C35.7029 18.8508 36.066 18.4092 36.066 17.9333C36.066 17.328 35.6173 16.8611 34.7249 16.8611H33.3974V16.9526H33.7446V21.1195L33.079 21.1193L31.5871 16.6685L30.047 21.1192H29.7606V21.2108H30.5548V21.1192H30.1552L30.6162 19.7691H32.0761L32.5222 21.1192H31.9755V21.2108H34.783L34.7832 21.1193H34.2453V18.9626H34.6395C35.1804 18.9626 35.4642 19.1826 35.4642 19.7231V20.102C35.4642 20.9956 36.0396 21.2108 36.3471 21.2108H37.4992V21.1192H37.1203V17.2643L38.5789 21.2573L39.9613 17.134V21.119H39.6134V21.2107H41.5188V21.119H41.1192L41.5803 19.7689H43.0403L43.4862 21.119H42.9396V21.2107H45.0661V21.119H44.7166V17.0971L47.4323 21.3609V16.9525H48.2495V21.1192H47.9011V21.2108H49.0988V21.1192H48.7505V16.9525H49.0988V16.861H49.0987ZM25.8896 21.2298C24.7336 21.2298 24.6771 19.7194 24.6771 19.039C24.6771 18.3638 24.7539 16.8482 25.8896 16.8482C27.0231 16.8482 27.1086 18.3639 27.1086 19.039C27.1086 19.7139 27.0437 21.2298 25.8896 21.2298V21.2298ZM25.8896 16.7566C24.7521 16.7566 24.0049 18.0229 24.0049 19.039C24.0049 20.1478 24.8136 21.3152 25.8896 21.3152C26.9658 21.3152 27.7745 20.2189 27.7745 19.039C27.7745 18.0227 26.9662 16.7566 25.8896 16.7566V16.7566ZM22.6451 16.9523L22.9933 16.9525V21.1192H22.6451V21.2108H23.8427V21.1192H23.4944V16.9525H23.8427V16.861H22.6451V16.9523ZM16.7423 18.8707V16.9525H17.0752C17.6257 16.9525 17.9947 17.3103 17.9947 17.9575C17.9947 18.3144 17.7157 18.8707 17.1363 18.8707H16.7423V18.8707ZM18.8866 21.1561C18.6671 21.1561 18.4866 20.9543 18.4866 20.6461V19.9686C18.4866 19.4327 18.2995 19.0087 17.7048 18.9182C18.1998 18.8508 18.5629 18.409 18.5629 17.9333C18.5629 17.328 18.127 16.8611 17.2218 16.8611H15.8941V16.9526H16.2413V21.1195H15.8941V21.211H17.2799L17.28 21.1195H16.7423V18.9626H17.1363C17.6774 18.9626 17.9611 19.1913 17.9611 19.7231V20.145C17.9611 21.0245 18.5364 21.2539 18.8439 21.2539C19.041 21.2539 19.1287 21.1931 19.1961 21.131L19.1415 21.0557C19.0416 21.1505 18.935 21.1561 18.8866 21.1561V21.1561ZM13.8481 21.2298C12.6921 21.2298 12.6353 19.7194 12.6353 19.039C12.6353 18.3638 12.7124 16.8482 13.8481 16.8482C14.9816 16.8482 15.0671 18.3639 15.0671 19.039C15.0671 19.7139 15.0022 21.2298 13.8481 21.2298V21.2298ZM13.8481 16.7566C12.7106 16.7566 11.9634 18.0229 11.9634 19.039C11.9634 20.1478 12.7719 21.3152 13.8481 21.3152C14.9243 21.3152 15.733 20.2189 15.733 19.039C15.733 18.0227 14.9246 16.7566 13.8481 16.7566V16.7566ZM10.5974 16.9523L10.9456 16.9525V21.1192H10.5974V21.2108H11.7948V21.1192H11.4467V16.9525H11.7948V16.861H10.5974V16.9523V16.9523ZM9.25294 19.4911H9.66232V20.3159C9.66232 20.7445 9.33662 21.2298 8.76121 21.2298C7.67204 21.2298 7.57298 19.855 7.57298 19.039C7.57298 18.2961 7.64779 16.8482 8.8437 16.8482C9.30498 16.8482 9.80085 17.2587 9.89858 18.1068H9.97693V16.7749H9.89902C9.87477 16.9176 9.77823 16.9906 9.61043 16.9906C9.45401 16.9906 9.25383 16.7566 8.8406 16.7566C7.56219 16.7566 6.90088 18.1145 6.90088 19.039C6.90088 20.0127 7.63581 21.3152 8.76106 21.3152C9.38555 21.3152 9.42281 20.9422 9.82421 20.9422C9.96644 20.9422 10.0537 21.0744 10.0664 21.2108H10.1634V19.4911H10.5115V19.3994H9.25294V19.4911V19.4911ZM21.3142 19.4911H21.7235V20.3159C21.7235 20.7445 21.3979 21.2298 20.8224 21.2298C19.7332 21.2298 19.6341 19.855 19.6341 19.039C19.6341 18.2961 19.709 16.8482 20.9049 16.8482C21.3663 16.8482 21.8622 17.2587 21.9597 18.1068H22.0382V16.7749H21.9602C21.9361 16.9176 21.8394 16.9906 21.6716 16.9906C21.5152 16.9906 21.315 16.7566 20.9018 16.7566C19.6235 16.7566 18.9622 18.1145 18.9622 19.039C18.9622 20.0126 19.6971 21.3152 20.8224 21.3152C21.4469 21.3152 21.484 20.9422 21.8855 20.9422C22.0276 20.9422 22.1148 21.0744 22.1275 21.2108H22.2247L22.2245 19.4911H22.5728V19.3994H21.3142V19.4911" fill="black"/>
</svg>
