<svg width="56" height="38" viewBox="0 0 56 38" fill="none" xmlns="http://www.w3.org/2000/svg">
<path fill-rule="evenodd" clip-rule="evenodd" d="M35.6685 21.8461C35.0355 22.5251 34.2226 22.87 33.2528 22.87C32.2827 22.87 31.4698 22.5251 30.8372 21.8461C30.233 21.1993 29.8858 20.1651 29.8858 19.0096C29.8858 17.8818 30.2368 16.8618 30.8476 16.2104C31.4867 15.5314 32.2957 15.185 33.2521 15.1823C34.2099 15.185 35.019 15.5314 35.6577 16.2104C36.2692 16.8618 36.6194 17.8818 36.6194 19.0096C36.6194 20.1651 36.2726 21.1993 35.6685 21.8461V21.8461ZM27.1752 19.0096C27.1752 19.0618 27.1775 19.1132 27.179 19.1646C26.2085 18.2812 24.8052 17.9524 23.9478 17.7809C22.3616 17.4464 21.1497 17.1403 21.1497 16.0109C21.1497 15.2142 21.8633 14.6345 23.2339 14.7339C24.4864 14.8248 25.0139 15.5905 25.1585 16.3293C25.1792 16.4505 25.2352 16.5388 25.3734 16.5399L27.6259 16.5591C27.6367 16.5591 27.6459 16.558 27.6555 16.5572C27.3378 17.298 27.1752 18.1227 27.1752 19.0096V19.0096ZM23.344 23.1535C22.2546 23.1535 21.0542 22.7664 20.7776 21.2688C20.7542 21.1257 20.6867 21.0666 20.577 21.0635L18.3992 21.0344V17.1848C18.6854 18.313 19.6333 19.094 21.6833 19.5555C23.0555 19.8839 25.4359 20.0926 25.4359 21.5012C25.4359 22.4833 24.7128 23.1765 23.344 23.1535V23.1535ZM12.4969 22.8715C10.7399 22.8715 9.13028 21.4886 9.13028 19.0112C9.13028 17.0674 10.3371 15.1838 12.5084 15.1838C13.449 15.1838 15.834 15.5061 15.834 19.0112C15.834 22.5255 13.3439 22.8715 12.4965 22.8715H12.4969ZM39.2652 18.0656C39.7651 18.7323 40.6674 19.226 42.1332 19.5559C43.505 19.8843 45.8857 20.093 45.8857 21.5016C45.8857 22.4837 45.1622 23.1769 43.7938 23.1539C42.7047 23.1539 41.5036 22.7668 41.2274 21.2691C41.2044 21.1261 41.1369 21.067 41.0268 21.0639L39.009 21.0371C39.2219 20.4091 39.3305 19.7289 39.3305 19.01C39.3303 18.6941 39.3086 18.3785 39.2652 18.0656V18.0656ZM43.645 25.1141C46.0614 25.1141 48.9093 24.2146 48.6865 21.2968C48.4402 18.7066 45.7449 18.0506 44.3976 17.7813C42.811 17.4468 41.5992 17.1407 41.5992 16.0113C41.5992 15.2145 42.3127 14.6349 43.6837 14.7342C44.9362 14.8252 45.4637 15.5909 45.6083 16.3297C45.629 16.4509 45.6854 16.5392 45.8232 16.5403L48.0757 16.5595C48.2472 16.5606 48.3005 16.4716 48.2791 16.3497C47.8379 13.6498 45.5822 12.886 43.5065 12.886C41.4338 12.886 38.9365 13.4683 38.7592 16.0466C38.7531 16.1463 38.7508 16.2445 38.7508 16.3408C38.4209 15.6549 37.9452 15.025 37.3322 14.4673C36.2005 13.4468 34.7896 12.9002 33.2509 12.8868H33.1999C32.4649 12.8868 31.7456 13.0222 31.0616 13.2907C30.3664 13.5657 29.7267 13.9643 29.1735 14.4673C28.593 14.9951 28.1346 15.5874 27.807 16.2307C27.3191 13.6287 25.101 12.886 23.0563 12.886C21.1536 12.886 18.8925 13.3782 18.3992 15.4562V13.3935C18.3991 13.3407 18.378 13.29 18.3406 13.2527C18.3033 13.2154 18.2526 13.1944 18.1997 13.1944H16.0783C16.0255 13.1945 15.9749 13.2156 15.9375 13.253C15.9002 13.2904 15.8792 13.3411 15.8792 13.3939V13.9501C15.8792 14.0437 15.8167 14.0763 15.7404 14.0219C14.9858 13.4745 13.8695 12.8871 12.5261 12.8871C11.7711 12.8871 11.0503 13.0199 10.3832 13.2815C9.71568 13.5439 9.08118 13.9432 8.49885 14.4688C7.83596 15.0718 7.33112 15.7593 7.00006 16.5119C6.669 17.2646 6.50098 18.1055 6.50098 19.0108C6.50098 19.8559 6.64982 20.6485 6.9429 21.3647C7.23598 22.0809 7.68213 22.7434 8.26945 23.3342C8.85638 23.9249 9.51313 24.3738 10.2201 24.6691C10.9271 24.9634 11.7063 25.1126 12.5372 25.1126C13.965 25.1126 15.0364 24.5046 15.7385 23.9518C15.8159 23.8927 15.8792 23.9245 15.8792 24.0212V24.6055C15.8792 24.7152 15.969 24.8049 16.0787 24.8049H18.2001C18.2529 24.8047 18.3035 24.7836 18.3408 24.7463C18.3781 24.7089 18.3991 24.6583 18.3992 24.6055V22.6375C19.3993 24.9891 21.9477 25.1137 23.1952 25.1137C25.2805 25.1137 27.6854 24.4424 28.1626 22.3832C28.392 22.724 28.6537 23.0419 28.944 23.3326C30.0811 24.4769 31.5711 25.0923 33.2547 25.1107H33.3238C34.1232 25.1107 34.8947 24.9572 35.6167 24.6538C36.3456 24.3456 37.0065 23.8966 37.5616 23.3326C37.9769 22.9186 38.3315 22.448 38.615 21.9347C39.3711 24.9664 42.2835 25.1137 43.645 25.1137V25.1141Z" fill="#0B0B0A"/>
</svg>
