<svg width="56" height="38" viewBox="0 0 56 38" fill="none" xmlns="http://www.w3.org/2000/svg">
<path d="M47.1923 17.3801H47.221C47.2869 17.6926 47.3156 17.8351 47.3825 18.0619L47.7715 19.5968H46.6325L47.0215 18.0619C47.0785 17.8351 47.1165 17.6926 47.192 17.3801H47.1923ZM48.2261 21.4064H49.2989L47.9518 16.6215H46.4901L45.1332 21.4067H46.1485L46.4518 20.3359H47.9228L48.2261 21.4064ZM42.808 21.4723C43.3965 21.4723 43.9658 21.3306 44.3363 21.1789V18.7825H42.6847V19.5497H43.3589V20.6198C43.2352 20.6956 43.0259 20.7434 42.7991 20.7434C42.0969 20.7434 41.8783 20.393 41.8783 19.3796V18.7628C41.8783 17.7589 42.0867 17.266 42.7322 17.266C43.1782 17.266 43.3309 17.5693 43.3407 17.8918H44.3561C44.3449 17.0485 43.7383 16.5276 42.7318 16.5276C41.3268 16.5276 40.8151 17.3419 40.8151 18.6596V19.3608C40.8052 20.7909 41.2899 21.4726 42.8077 21.4726L42.808 21.4723ZM38.0545 17.3801H38.0835C38.1494 17.6926 38.1784 17.8351 38.2444 18.0619L38.634 19.5968H37.495L37.884 18.0619C37.9407 17.8351 37.9787 17.6926 38.0545 17.3801V17.3801ZM39.089 21.4067H40.1604L38.814 16.6215H37.3516L35.996 21.4067H37.0114L37.3147 20.3359H38.785L39.089 21.4064V21.4067ZM33.9643 21.4067H34.9796V16.6215H33.9643V21.4067ZM31.1746 21.4726C32.3034 21.4726 32.8539 20.9511 32.8823 19.9766H31.858C31.8389 20.45 31.6866 20.7434 31.2033 20.7434C30.6534 20.7434 30.445 20.3554 30.445 19.3608V18.6596C30.445 17.6551 30.6534 17.2766 31.2033 17.2766C31.7162 17.2766 31.8013 17.6178 31.8198 17.9778H32.8444C32.8345 17.1441 32.3604 16.5474 31.1749 16.5474C29.8556 16.5474 29.3723 17.3715 29.3723 18.6596V19.3608C29.3723 20.6584 29.8552 21.4726 31.1746 21.4726ZM24.3043 21.4067H25.2062V18.6309C25.2062 18.2425 25.1865 17.7688 25.1673 17.3801H25.197C25.3388 17.8726 25.4146 18.1285 25.5474 18.4977L26.6011 21.4067H28.0813V16.6215H27.1796V19.2846C27.1796 19.6341 27.1895 20.0989 27.1988 20.544H27.1704C27.0946 20.212 27.0273 19.8803 26.8282 19.3407L25.8415 16.6219H24.2954V21.4067H24.3043ZM20.1669 21.4067H22.9282V20.6386H21.1823V19.3123H22.7663V18.5363H21.182V17.3801H22.8616V16.6126H20.1659V21.406L20.1669 21.4067ZM16.4571 21.4067H19.1143V20.6386H17.4725V16.6219H16.4571V21.4067ZM13.3068 17.3798H13.3355C13.4014 17.6923 13.4311 17.8347 13.497 18.0615L13.886 19.5965H12.7477L13.1367 18.0615C13.1934 17.8347 13.2316 17.6923 13.3071 17.3798H13.3068ZM14.3413 21.4067H15.4137L14.066 16.6215H12.6049L11.2477 21.4067H12.2631L12.5663 20.3359H14.0377L14.3416 21.4064L14.3413 21.4067ZM8.12569 20.6768V19.285H8.74283C9.2647 19.285 9.51096 19.5217 9.51096 19.9852C9.51096 20.4962 9.18855 20.6867 8.72371 20.6867H8.12569V20.6768ZM8.12569 18.5547V17.3518H8.76195C9.22613 17.3518 9.42558 17.5595 9.42558 17.9485C9.42558 18.3375 9.1991 18.5551 8.77151 18.5551H8.12569V18.5547ZM7.1103 21.4067H8.90371C9.90921 21.4067 10.5257 21.0457 10.5257 20.0518C10.5257 19.4168 10.1565 18.9817 9.47272 18.9144V18.8867C10.0793 18.7825 10.4406 18.4509 10.4406 17.8163C10.4406 16.9914 9.96591 16.6222 8.95118 16.6222H7.10107V21.4067H7.1103Z" fill="black"/>
</svg>
