<svg width="56" height="38" viewBox="0 0 56 38" fill="none" xmlns="http://www.w3.org/2000/svg">
<path d="M7.70314 24.3465H8.03593V25.3449H9.31167V24.3465H9.63339V26.676H9.31167V25.6111H8.03588V26.676H7.70309V24.3465H7.70314ZM14.7917 25.833C14.7917 26.4209 14.4367 26.7315 13.8266 26.7315C13.2054 26.7315 12.8282 26.4542 12.8282 25.833V24.3465H13.161V25.833C13.161 26.2434 13.405 26.4764 13.8266 26.4764C14.237 26.4764 14.47 26.2434 14.47 25.833V24.3465H14.7917V25.833ZM18.8185 26.7426C18.0864 26.787 17.6426 26.1658 17.6426 25.5557C17.6426 24.879 18.0309 24.291 18.8074 24.291C19.3399 24.291 19.7614 24.5129 19.8502 25.0675H19.5285C19.462 24.7125 19.1624 24.5462 18.8074 24.5462C18.2084 24.5462 17.9644 25.0454 17.9644 25.5446C17.9644 26.0326 18.275 26.4986 18.8629 26.4875C19.1624 26.4764 19.4065 26.421 19.5285 26.2212C19.6172 26.0992 19.595 25.8774 19.584 25.7109H18.8075V25.4447H19.8724V26.3211C19.595 26.665 19.2622 26.7204 18.8185 26.7426V26.7426ZM23.8548 26.4764C24.4428 26.4764 24.698 25.9772 24.698 25.5113C24.698 25.0454 24.4428 24.5461 23.8548 24.5461C23.2558 24.5461 23.0118 25.0454 23.0118 25.5113C23.0118 25.9772 23.2558 26.4764 23.8548 26.4764V26.4764ZM23.8548 24.291C24.6313 24.291 25.0196 24.879 25.0196 25.5113C25.0196 26.1436 24.6314 26.7315 23.8549 26.7315C23.0783 26.7315 22.6901 26.1436 22.6901 25.5113C22.6901 24.879 23.0783 24.291 23.8548 24.291V24.291ZM31.5535 25.3448H32.1969C32.563 25.3448 32.7183 25.2229 32.7183 24.9788C32.7183 24.6571 32.4853 24.6016 32.1969 24.6016H31.5535V25.3448V25.3448ZM31.5535 26.4209H32.3633C32.6406 26.4209 32.8181 26.2545 32.8181 25.9994C32.8181 25.6999 32.563 25.6112 32.2857 25.6112H31.5534V26.4209H31.5535ZM31.2318 24.3465H32.1082C32.3301 24.3465 32.6074 24.3465 32.7516 24.4241C32.918 24.524 33.04 24.6904 33.04 24.9122C33.04 25.1674 32.9069 25.356 32.685 25.4447C32.9845 25.5002 33.1509 25.722 33.1509 26.0105C33.1509 26.3544 32.8847 26.676 32.4077 26.676H31.2318V24.3465H31.2318ZM37.2221 26.4764C37.8211 26.4764 38.0652 25.9772 38.0652 25.5113C38.0652 25.0454 37.8211 24.5461 37.2221 24.5461C36.6342 24.5461 36.379 25.0454 36.379 25.5113C36.379 25.9772 36.6342 26.4764 37.2221 26.4764V26.4764ZM37.2221 24.291C37.9986 24.291 38.398 24.879 38.398 25.5113C38.398 26.1436 37.9986 26.7315 37.2221 26.7315C36.4457 26.7315 36.0574 26.1436 36.0574 25.5113C36.0574 24.879 36.4456 24.291 37.2221 24.291H37.2221ZM42.8686 25.0343C42.8353 24.6904 42.6024 24.5462 42.2696 24.5462C41.9922 24.5462 41.7259 24.646 41.7259 24.9455C41.7259 25.234 42.1142 25.2783 42.5025 25.367C42.8908 25.4447 43.2791 25.5778 43.2791 26.0437C43.2791 26.5319 42.7687 26.7315 42.325 26.7315C41.7814 26.7315 41.3266 26.4764 41.3266 25.9106H41.6261C41.6261 26.2989 41.97 26.4764 42.3361 26.4764C42.6356 26.4764 42.9573 26.3876 42.9573 26.0437C42.9573 25.722 42.5691 25.6777 42.1808 25.589C41.7926 25.5113 41.3932 25.4003 41.3932 24.9677C41.3932 24.5018 41.8369 24.291 42.2806 24.291C42.7798 24.291 43.157 24.5129 43.1792 25.0343H42.8686H42.8686ZM48.1267 25.0343C48.0824 24.6904 47.8495 24.5462 47.5166 24.5462C47.2504 24.5462 46.9731 24.646 46.9731 24.9455C46.9731 25.234 47.3613 25.2783 47.7607 25.367C48.1489 25.4447 48.5372 25.5778 48.5372 26.0437C48.5372 26.5319 48.0269 26.7315 47.5832 26.7315C47.0396 26.7315 46.5737 26.4764 46.5737 25.9106H46.8843C46.8843 26.2989 47.2282 26.4764 47.5943 26.4764C47.8827 26.4764 48.2155 26.3876 48.2155 26.0437C48.2155 25.722 47.8161 25.6777 47.4279 25.589C47.0396 25.5113 46.6514 25.4003 46.6514 24.9677C46.6514 24.5018 47.084 24.291 47.5388 24.291C48.0269 24.291 48.4152 24.5129 48.4263 25.0343H48.1267ZM10.5652 12.033V16.2263H12.085C12.085 16.2263 12.218 16.2152 12.2957 16.193C13.1832 16.1153 13.7489 15.0504 13.8044 14.2739C13.8932 13.4419 13.3829 12.0663 12.1072 12.033C11.73 12.022 10.5652 12.033 10.5652 12.033V12.033ZM10.5652 16.7144V21.7396H11.9407C11.9407 21.7396 12.7173 21.795 13.4161 21.2293C14.1039 20.6746 14.4589 19.8537 14.3813 18.9108C14.3258 18.0678 13.6824 16.8697 12.2403 16.7144H10.5652V16.7144ZM13.8044 11.545C14.9471 11.6115 15.6903 12.2217 15.7569 12.2993C16.3448 12.8428 16.5223 13.6637 16.3781 14.4514C16.1895 15.7715 14.5477 16.3261 14.5477 16.3261C15.9232 16.4925 16.9549 17.5242 17.1102 18.6335C17.2434 19.7206 16.844 20.6857 15.9455 21.3624C15.0358 22.0391 13.7046 22.261 12.9835 22.261H7.10419V21.795C7.85849 21.8062 7.94726 21.8062 7.94726 21.5066C7.93619 20.3751 7.94726 12.4767 7.94726 12.266C7.94726 12.022 7.82522 12.0109 7.10419 12.0109C7.09307 11.8223 7.11526 11.545 7.11526 11.545H13.8044V11.545ZM22.8786 12.1218C22.1465 12.6099 21.6362 13.7303 21.3922 14.6621C21.0039 16.071 21.0815 17.735 21.4698 19.4433C21.8691 21.1517 22.9674 21.7507 23.6219 21.8949C24.8421 22.1722 25.6409 21.4623 26.0735 20.8078C26.9166 19.5321 27.1274 16.903 26.8611 15.3943C26.617 13.9966 26.2399 13.0203 25.5077 12.3658C24.6868 11.6448 23.5109 11.7003 22.8786 12.1218V12.1218ZM29.4569 18.7555C28.9466 20.2753 27.926 21.2293 26.7501 21.8506C25.2082 22.6825 23.0006 22.8156 21.4587 21.8949C20.5047 21.3292 18.0753 19.8205 18.397 16.2595C18.4635 15.4941 18.8518 13.575 20.9928 12.1328C22.4571 11.1789 24.5648 10.9016 26.5283 11.8112C29.59 13.2089 30.2334 16.6589 29.4569 18.7555V18.7555ZM38.4535 12.0441C38.4646 12.8428 38.4535 14.4957 38.4535 14.4957L38.0652 14.5068C37.8323 13.4752 37.3331 12.5877 36.4789 12.1773C35.658 11.7779 34.4156 11.5782 33.6057 12.2882C33.1288 12.7097 33.0622 13.1424 33.2286 13.6305C33.517 14.3515 34.3157 14.5734 34.937 14.8507C35.4472 15.0504 36.5343 15.4054 36.5343 15.4054C37.7435 15.8269 39.0858 16.6478 39.4519 18.0122C39.6182 18.6002 39.6182 19.2658 39.4851 19.8648C39.1856 21.196 38.3315 21.5177 37.8433 21.8505C37.5993 22.0169 35.3141 22.8933 32.563 21.9947C31.9972 21.8062 31.3427 21.5843 31.3427 21.5843V18.6002C31.3427 18.6002 31.6423 18.6113 31.7643 18.6113C31.9529 19.0883 32.1193 19.6652 32.5186 20.242C33.4504 21.5954 34.7705 22.0058 36.2237 21.6952C36.8006 21.5621 37.4329 21.1627 37.5993 20.5637C37.8101 19.887 37.7435 18.7666 35.7023 18.0122C34.227 17.3356 32.3744 17.0583 31.4981 15.4165C31.1542 14.4957 31.254 12.8984 32.3855 12.1218C33.5281 11.3453 34.6374 11.1678 35.9797 11.3453C37.3109 11.5338 37.6658 11.7113 38.4535 12.0441V12.0441ZM48.1711 12.0441C48.1822 12.8428 48.1711 14.4957 48.1711 14.4957L47.7829 14.5068C47.5499 13.4752 47.0507 12.5877 46.1965 12.1773C45.3756 11.7779 44.1332 11.5782 43.3234 12.2882C42.8464 12.7097 42.7798 13.1424 42.9462 13.6305C43.2347 14.3515 44.0333 14.5734 44.6546 14.8507C45.1649 15.0504 46.252 15.4054 46.252 15.4054C47.4612 15.8269 48.8034 16.6478 49.1695 18.0122C49.3359 18.6002 49.3359 19.2658 49.2028 19.8648C48.9033 21.196 48.0491 21.5177 47.561 21.8505C47.3169 22.0169 45.0318 22.8933 42.2806 21.9947C41.7149 21.8062 41.0604 21.5843 41.0604 21.5843V18.6002C41.0604 18.6002 41.3599 18.6113 41.4819 18.6113C41.6705 19.0883 41.8369 19.6652 42.2363 20.242C43.1681 21.5954 44.4882 22.0058 45.9414 21.6952C46.5183 21.5621 47.1506 21.1627 47.3169 20.5637C47.5277 19.887 47.4612 18.7666 45.42 18.0122C43.9446 17.3356 42.092 17.0583 41.2157 15.4165C40.8718 14.4957 40.9716 12.8984 42.1142 12.1218C43.2457 11.3453 44.3551 11.1678 45.6863 11.3453C47.0285 11.5338 47.3835 11.7113 48.1711 12.0441V12.0441Z" fill="#231F20"/>
</svg>
