<svg width="56" height="38" viewBox="0 0 56 38" fill="none" xmlns="http://www.w3.org/2000/svg">
<path d="M38.7377 21.6717L37.4291 19.3759C38.0087 19.0984 38.3778 18.5132 38.3785 17.8705C38.3785 16.9468 37.6267 16.1952 36.7028 16.1952H33.9041V21.6715H35.1487V19.5459H36.1393L37.3508 21.6717H38.7377ZM35.1283 18.4887V17.255H36.4696L36.4644 17.2571C36.8727 17.279 37.1329 17.5157 37.1329 17.8731C37.1329 18.2266 36.8542 18.4743 36.4387 18.489H35.1283V18.4887ZM28.8214 21.6717V16.1952H32.9131V17.2401H30.0996V18.3357H32.5665V19.404H30.0996V20.5722H33.0523V21.6717H28.8214ZM22.9854 21.6717L21.6769 19.3759C22.2564 19.0984 22.6255 18.5131 22.626 17.8705C22.626 16.9468 21.8744 16.1952 20.9507 16.1952H18.1518V21.6715H19.3965V19.5459H20.3874L21.5987 21.6717H22.9854ZM19.3758 18.4887V17.255H20.7173L20.712 17.2571C21.1203 17.279 21.3807 17.5157 21.3807 17.8731C21.3807 18.2266 21.1019 18.4743 20.6863 18.489H19.3758V18.4887ZM14.835 21.8067C16.3324 21.8067 17.2267 20.9457 17.2267 19.5038V16.1992H15.9485V19.4184C15.9485 20.198 15.5427 20.6452 14.8351 20.6452H14.8344C14.1268 20.6452 13.7212 20.1981 13.7212 19.4184V16.1992H12.4425V19.5041C12.4425 20.9458 13.3368 21.8068 14.8344 21.8068H14.835V21.8067ZM10.7709 18.6386C11.5084 18.8901 11.868 19.5175 11.868 20.1226C11.868 20.975 11.1758 21.6689 10.3241 21.6717H7.30078V16.1948H10.0853C10.8102 16.2015 11.3945 16.7906 11.3954 17.5156C11.3963 17.9728 11.1599 18.3979 10.7709 18.6384V18.6386ZM8.5555 20.6498H9.9529C10.3922 20.6498 10.622 20.3222 10.622 19.9983C10.622 19.7374 10.4145 19.3701 9.9529 19.3701H8.5555V20.6498ZM9.57873 18.3486C9.90053 18.3486 10.153 18.1 10.153 17.7827C10.153 17.4758 9.88957 17.2167 9.57852 17.2167H8.5555V18.3486H9.57873ZM27.038 18.6375C27.7756 18.8888 28.1351 19.5165 28.1351 20.1215C28.1351 20.974 27.4429 21.6677 26.5912 21.6706L23.568 21.6704V16.1937L26.3522 16.1936C27.0772 16.2005 27.6616 16.7897 27.6624 17.5147C27.6633 17.972 27.4269 18.397 27.0379 18.6373L27.038 18.6375ZM24.8226 20.6488H26.2199C26.6592 20.6488 26.889 20.3212 26.889 19.9973C26.889 19.7365 26.6813 19.3691 26.2199 19.3691H24.8226V20.6488ZM25.8456 18.3475C26.1678 18.3475 26.4202 18.099 26.4202 17.7816C26.4202 17.4748 26.1568 17.2157 25.8456 17.2157H24.8226V18.3475H25.8456ZM44.1539 21.6717L42.8453 19.3759C43.4249 19.0984 43.7939 18.5131 43.7944 17.8705C43.7944 16.9468 43.0429 16.1952 42.1191 16.1952H39.3203V21.6715H40.5651V19.5459H41.5558L42.7671 21.6717H44.154H44.1539ZM40.5442 18.4887V17.255H41.8857L41.8805 17.2571C42.2888 17.279 42.5492 17.5157 42.5492 17.8731C42.5492 18.2266 42.2704 18.4743 41.8548 18.489H40.5442V18.4887ZM45.9725 21.6717V19.4401L43.8 16.1952H45.396L46.6466 18.078L47.9026 16.1952H49.4986L47.3207 19.4401V21.6717H45.9725Z" fill="black"/>
</svg>
