<svg width="56" height="38" viewBox="0 0 56 38" fill="none" xmlns="http://www.w3.org/2000/svg">
<path d="M15.4314 13.1318C15.0706 13.131 14.6676 13.173 14.2304 13.2842C14.2304 13.2842 11.989 13.8405 9.51857 16.1473C9.51857 16.1473 8.34061 17.3416 7.50622 18.8795C7.50622 18.8795 6.63911 20.4829 6.50822 21.8244C6.50822 21.8244 6.37734 23.3296 7.22809 24.0986C7.22809 24.0986 8.20973 24.9984 10.353 24.8184C10.353 24.8184 11.6945 24.6548 13.1506 23.7386C13.1506 23.7386 13.8541 23.2805 14.3122 22.8552C14.3122 22.8552 14.0995 23.6241 14.4104 24.1804C14.4104 24.1804 14.7049 24.7039 15.3757 24.8184C15.3757 24.8184 15.8665 24.9166 16.57 24.6548C16.57 24.6548 17.0117 24.4585 17.3062 24.3113C17.3062 24.3113 17.9116 23.984 18.5005 23.526C18.5005 23.526 18.386 23.984 18.6478 24.3767C18.6478 24.3767 18.9586 24.8184 19.5313 24.8675C19.5313 24.8675 21.0692 24.982 23.2124 22.348L21.7072 24.7694L23.0815 24.753L24.2758 22.6916C24.2758 22.6916 25.5192 20.5647 25.781 20.3029C25.781 20.3029 26.4191 19.4522 27.3843 19.2558L28.0224 19.3049C28.0224 19.3049 28.2842 19.4358 28.2842 19.7303L27.8097 19.6485C27.8097 19.6485 27.5316 19.6812 27.3843 19.9757C27.3843 19.9757 27.2535 20.2538 27.3189 20.532C27.3189 20.532 27.4007 20.761 27.6134 20.8428L27.7606 20.8919L28.2351 20.8265C28.2351 20.8265 29.0695 20.5156 30.2147 19.0759L29.953 19.5503L28.9877 21.2027L27.8588 23.1987C27.8588 23.1987 27.5316 23.8532 27.6788 24.2458C27.6788 24.2458 27.8261 24.6221 28.3169 24.7203L29.3803 24.6385C29.3803 24.6385 29.9857 24.4585 30.4765 24.0331L31.18 23.4605C31.18 23.4605 32.0308 22.7406 32.7997 21.8899L32.7506 21.9553C32.7506 21.9553 32.0798 23.1824 31.9653 23.5914C31.9653 23.5914 31.7035 24.4585 32.3089 24.8021L32.996 24.8675C32.996 24.8675 33.5687 24.7857 34.1413 24.3767L35.0738 23.575C35.0738 23.575 35.8755 22.8224 36.3009 22.2825C36.3009 22.2825 36.0882 22.7734 36.0391 23.1333C36.0391 23.1333 35.8755 24.2785 36.9389 24.7366L37.9369 24.8184C37.9369 24.8184 38.3296 24.7857 38.9349 24.573C38.9349 24.573 40.3419 24.1149 42.3216 22.2989C42.3216 22.2989 43.3196 21.3827 44.0231 20.5647L41.5363 24.7366H42.7633L43.6795 23.1987L44.8575 21.2845C44.8575 21.2845 45.5283 20.2211 46.7553 19.534C46.7553 19.534 47.2461 19.2395 47.6224 19.174C47.6224 19.174 48.0151 19.0922 48.0969 19.2886C48.0969 19.2886 47.5406 19.174 47.4097 19.7467C47.4097 19.7467 47.2788 20.3193 47.7369 20.4992C47.7369 20.4992 48.0805 20.6138 48.3586 20.4174C48.3586 20.4174 48.6041 20.2375 48.6859 19.8939C48.6859 19.8939 48.7513 19.5503 48.5877 19.3049C48.5877 19.3049 48.3914 19.0104 47.9333 18.9777C47.9333 18.9777 47.4261 18.9613 46.4117 19.6321C46.4117 19.6321 45.6591 20.1229 45.3483 20.4338L46.1827 19.0104H44.9393C44.9393 19.0104 43.7613 21.0064 41.6835 22.7243C41.6835 22.7243 39.6548 24.3767 38.5096 24.4258C38.5096 24.4258 37.397 24.5076 37.2825 23.6568C37.2825 23.6568 37.2171 23.1497 37.5116 22.4298C37.5116 22.4298 38.1987 22.4952 39.1149 22.2007C39.1149 22.2007 39.982 21.9226 40.7019 21.4318C40.7019 21.4318 41.4708 20.9083 41.749 20.352C41.749 20.352 42.0762 19.7303 41.6999 19.2068C41.6999 19.2068 41.0127 18.536 39.5239 19.1577C39.5239 19.1577 37.986 19.7957 36.8408 21.3173L36.5463 21.759L36.5136 21.8081L35.6955 22.757L34.8611 23.5914C34.8611 23.5914 33.8468 24.5894 33.3396 24.2949C33.3396 24.2949 33.1433 24.164 33.1433 23.8532C33.1433 23.8532 33.1433 23.5423 33.3723 23.166L35.7446 19.0431H34.6812C34.6812 19.0431 34.0922 20.0084 33.4051 20.9246C33.4051 20.9246 32.0635 22.7079 30.6074 23.7386C30.6074 23.7386 29.6094 24.5076 29.0531 24.2458C29.0531 24.2458 28.8077 24.1313 28.8241 23.8204C28.8241 23.8204 28.8404 23.4769 29.1677 23.0024L31.4909 19.0431L32.7833 19.0268L32.947 18.8632H31.6381L33.0288 16.3927L31.8508 16.4091C31.8508 16.4091 31.0328 17.7997 30.4111 18.6341C30.4111 18.6341 29.2658 20.1393 28.3169 20.5483C28.3169 20.5483 28.4805 20.3356 28.4969 20.0084L28.4805 19.7467C28.4805 19.7467 28.4151 19.4031 28.0879 19.2395L27.7934 19.1577L27.2371 19.2068C27.2371 19.2068 26.5827 19.354 25.9773 19.8775L26.4845 19.0268H25.3066C25.3066 19.0268 24.2431 20.9246 22.8525 22.5443C22.8525 22.5443 21.0364 24.6385 20.0384 24.3931C20.0384 24.3931 19.7439 24.2458 19.7276 23.8859C19.7276 23.8859 19.7276 23.526 20.0384 23.0188L22.4107 19.0104L21.2328 19.0268L20.8565 19.6812L20.6111 20.1557C20.6111 20.1557 20.6601 20.0084 20.6111 19.6976C20.6111 19.6976 20.5129 18.9613 19.8094 18.8141L19.2531 18.765C19.2531 18.765 17.8461 18.7487 16.2428 20.1557C16.2428 20.1557 15.1466 21.1373 14.3122 22.6261C14.3122 22.6261 12.6434 24.1804 10.8765 24.5239C10.8765 24.5239 9.30589 24.8512 8.6351 24.1477C8.6351 24.1477 7.89887 23.3951 7.89887 22.0862C7.89887 22.0862 7.91523 20.532 9.02776 18.4214C9.02776 18.4214 10.2057 16.6872 10.9256 15.9019C10.9256 15.9019 12.758 13.8896 14.6558 13.3824C14.6558 13.3824 16.2101 12.9734 17.0772 13.6769C17.0772 13.6769 17.8134 14.2822 17.8788 15.5093L18.3042 14.7894C18.3042 14.7894 18.8441 13.9386 19.3186 13.4478C19.3186 13.4478 18.8768 13.6441 18.3369 13.7096C18.3369 13.7096 17.6662 13.7914 17.3389 13.5951C17.3389 13.5951 16.6101 13.1347 15.4314 13.1319L15.4314 13.1318ZM19.427 18.9133C19.9063 18.9157 20.153 19.1413 20.153 19.1413C20.7256 19.6648 20.2675 20.6465 20.2675 20.6465C19.384 22.4789 18.0915 23.5914 18.0915 23.5914L17.3062 24.1477C16.0792 24.753 15.5556 24.3276 15.5556 24.3276C15.1303 23.9677 15.3102 23.1497 15.3102 23.1497C15.4247 22.5934 15.8828 21.7917 15.8828 21.7917L16.7663 20.4992C17.568 19.6158 18.4842 19.1577 18.4842 19.1577C18.861 18.9721 19.1759 18.912 19.427 18.9133ZM40.4733 19.0575C40.4898 19.0573 40.5061 19.058 40.5219 19.0595C40.5219 19.0595 40.7837 19.0922 40.8982 19.2231C40.8982 19.2231 41.0127 19.3867 40.98 19.7139C40.98 19.7139 40.8982 20.581 39.9329 21.3991C39.9329 21.3991 38.8368 22.3316 37.5606 22.2989L37.8061 21.7917C37.8061 21.7917 38.3623 20.7119 39.1803 19.8775C39.1803 19.8775 39.9633 19.0637 40.4733 19.0575Z" fill="black"/>
<path d="M35.4995 17.2269C35.4995 17.2269 35.4995 17.4396 35.6631 17.6032C35.6631 17.6032 35.8104 17.7504 36.0394 17.7504C36.0394 17.7504 36.2521 17.7504 36.3993 17.6032C36.3993 17.6032 36.5466 17.4396 36.5466 17.2269L36.3993 16.8506C36.3993 16.8506 36.2357 16.7034 36.0394 16.7034C36.0394 16.7034 35.8104 16.7034 35.6631 16.8506C35.6631 16.8506 35.4995 16.9979 35.4995 17.2269" fill="black"/>
</svg>
