<svg width="56" height="38" viewBox="0 0 56 38" fill="none" xmlns="http://www.w3.org/2000/svg">
<path fill-rule="evenodd" clip-rule="evenodd" d="M14.2489 29.587C14.2419 29.6002 14.2358 29.614 14.2307 29.6281C13.7387 30.5574 12.7727 31.1905 11.6703 31.1905C10.0711 31.1905 8.75928 29.8512 8.75928 28.1974C8.75928 26.5528 10.0713 25.2042 11.6703 25.2042C12.7775 25.2042 13.7479 25.8511 14.2352 26.7943C14.249 26.8125 14.2534 26.8216 14.2671 26.8488C14.2718 26.8535 13.3378 27.5277 13.3286 27.5141C13.324 27.4959 13.3196 27.4822 13.3105 27.473C13.0415 26.8033 12.404 26.3569 11.6703 26.3706C10.6908 26.3798 9.88433 27.1905 9.88433 28.1973C9.88433 29.2133 10.6908 30.0335 11.6703 30.0335C12.3811 30.0335 13.0006 29.596 13.283 28.9765C13.2968 28.9537 13.3014 28.9355 13.3105 28.9173L14.2489 29.587V29.587ZM15.4562 25.259H16.5768V27.3502H19.52V25.259H20.6497V31.0767H19.52V28.5209H16.5768V31.0767H15.4562V25.259ZM36.4676 31.0767V25.259H40.5359V26.4343H37.6019V27.596H40.3126V28.7577H37.6019V29.9194H40.9502V31.0767H36.4676ZM42.5403 31.0767V25.259H43.6792V29.9194H46.841V31.0767H42.5402H42.5403ZM30.3536 31.0767H29.2147V25.259H30.7955L33.2874 28.7577V25.259H34.4173V31.0767H33.5153L30.3536 26.6896V31.0767V31.0767ZM24.9275 26.4342L23.9345 28.7577H25.9664L24.9275 26.4343V26.4342ZM23.4241 29.9194L22.9049 31.0767H21.5562L24.1348 25.259H25.711L28.3079 31.0767H26.9593L26.4355 29.9194H23.424H23.4241ZM28.3853 23.0184C27.1633 23.725 25.7016 24.1449 24.1442 24.1449C20.9575 24.1449 18.1663 22.4076 16.6568 19.8315C16.6568 19.8197 16.6451 19.8197 16.6451 19.8076C16.6451 19.7957 16.6328 19.7957 16.6328 19.7837L17.8548 19.149L19.0767 18.5256C19.0889 18.5382 19.1013 18.5495 19.1129 18.574C20.1552 20.263 22.0241 21.3894 24.1442 21.3894C24.8275 21.3894 25.4862 21.2697 26.0733 21.0776C24.7674 19.5803 23.9767 17.6157 23.9767 15.4709C23.9767 13.3388 24.7557 11.3742 26.0495 9.86428C25.4624 9.66086 24.8153 9.55312 24.1442 9.55312C22.0481 9.55312 20.1073 10.6791 19.041 12.4881C19.0288 12.5001 19.0288 12.5127 19.0288 12.524L16.5733 11.2545C16.585 11.2306 16.5972 11.2067 16.6089 11.1941C18.1068 8.57076 20.9336 6.80957 24.1442 6.80957C25.7016 6.80957 27.1635 7.22897 28.3853 7.94795C29.6073 7.22884 31.069 6.80957 32.6259 6.80957C35.8366 6.80957 38.6639 8.57089 40.1614 11.1941C40.1733 11.2067 40.1852 11.2306 40.1972 11.2545L37.7414 12.524C37.7414 12.5127 37.7414 12.5001 37.7295 12.4881C36.6634 10.6791 34.7226 9.55312 32.6259 9.55312C31.9555 9.55312 31.3084 9.66086 30.7213 9.86428C32.0149 11.3742 32.794 13.3388 32.794 15.4709C32.794 17.6157 32.0032 19.5803 30.6973 21.0777C31.2844 21.2697 31.9431 21.3894 32.6259 21.3894C34.7465 21.3894 36.6155 20.263 37.6577 18.574C37.6696 18.5495 37.6816 18.5381 37.6935 18.5256L38.9152 19.149L40.1373 19.7837C40.1373 19.7957 40.1254 19.7957 40.1254 19.8076C40.1254 19.8197 40.1135 19.8197 40.1135 19.8315C38.6041 22.4076 35.8126 24.1449 32.6259 24.1449C31.069 24.1449 29.6073 23.725 28.3854 23.0184H28.3853ZM28.3853 19.5803C27.3787 18.5142 26.7321 17.0647 26.7321 15.4709C26.7321 13.9017 27.3431 12.4762 28.3853 11.4101C29.4275 12.4762 30.0385 13.9018 30.0385 15.4709C30.0385 17.0647 29.3913 18.5142 28.3853 19.5803Z" fill="#161413"/>
</svg>
