<svg width="56" height="38" viewBox="0 0 56 38" fill="none" xmlns="http://www.w3.org/2000/svg">
<path d="M9.36779 19.6985C9.57865 19.9093 9.57865 20.2256 9.36779 20.4365L9.18329 20.621C8.97243 20.8318 8.65615 20.8318 8.44529 20.621L7.25922 19.4349C7.04836 19.224 7.04836 18.9078 7.25922 18.6969L7.44372 18.5124C7.65457 18.3015 7.97086 18.3015 8.18172 18.5124L9.36779 19.6985ZM9.236 17.4318C9.02515 17.2209 8.70886 17.2209 8.498 17.4318L8.3135 17.6163C8.10265 17.8271 8.10265 18.1434 8.3135 18.3543L9.49958 19.5403C9.71043 19.7512 10.0267 19.7512 10.2376 19.5403L10.4221 19.3558C10.6329 19.145 10.6329 18.8287 10.4221 18.6178L9.236 17.4318ZM12.3989 18.486C12.188 18.2752 11.8717 18.2752 11.6609 18.486L11.4764 18.6705C11.2655 18.8814 11.2655 19.1977 11.4764 19.4085L12.6624 20.5946C12.8733 20.8055 13.1896 20.8055 13.4004 20.5946L13.5849 20.4101C13.7958 20.1993 13.7958 19.883 13.5849 19.6721L12.3989 18.486ZM13.4795 17.4054C13.2686 17.1945 12.9524 17.1945 12.7415 17.4054L12.557 17.5899C12.3461 17.8008 12.3461 18.117 12.557 18.3279L13.7431 19.514C13.9539 19.7248 14.2702 19.7248 14.4811 19.514L14.6656 19.3295C14.8764 19.1186 14.8764 18.8023 14.6656 18.5915L13.4795 17.4054ZM11.5027 16.2457C11.7136 16.0348 11.7136 15.7185 11.5027 15.5077L11.3182 15.3232C11.1074 15.1123 10.7911 15.1123 10.5802 15.3232L9.39415 16.5093C9.18329 16.7201 9.18329 17.0364 9.39415 17.2473L9.57865 17.4318C9.7895 17.6426 10.1058 17.6426 10.3166 17.4318L11.5027 16.2457ZM12.557 17.3C12.7679 17.0891 12.7679 16.7728 12.557 16.562L12.3725 16.3775C12.1616 16.1666 11.8454 16.1666 11.6345 16.3775L10.4484 17.5635C10.2376 17.7744 10.2376 18.0907 10.4484 18.3015L10.6329 18.486C10.8438 18.6969 11.1601 18.6969 11.3709 18.486L12.557 17.3ZM11.5027 20.4101C11.7136 20.1993 11.7136 19.883 11.5027 19.6721L11.3182 19.4876C11.1074 19.2768 10.7911 19.2768 10.5802 19.4876L9.39415 20.6737C9.18329 20.8845 9.18329 21.2008 9.39415 21.4117L9.57865 21.5962C9.7895 21.807 10.1058 21.807 10.3166 21.5962L11.5027 20.4101ZM12.557 21.4644C12.7679 21.2535 12.7679 20.9373 12.557 20.7264L12.3725 20.5419C12.1616 20.331 11.8454 20.331 11.6345 20.5419L10.4748 21.7543C10.2639 21.9652 10.2639 22.2815 10.4748 22.4923L10.6593 22.6768C10.8701 22.8877 11.1864 22.8877 11.3973 22.6768L12.557 21.4644ZM21.2022 20.4365C21.2285 20.4892 21.3867 20.7264 21.3867 20.7264C21.3076 21.0954 21.0704 21.5962 21.0704 21.5962L21.044 21.6225C20.1742 21.9652 18.8037 22.2551 17.354 21.6753C16.4842 21.3326 15.8516 20.6473 15.6144 19.7512C15.3509 18.8287 15.5354 17.8271 16.1152 17.0364C16.7478 16.193 17.7494 15.7185 19.1199 15.6395C19.6471 15.6131 20.7014 15.7449 21.2812 16.0875H21.3339C21.3339 16.0875 21.3603 17.5372 21.3339 17.5899L21.3076 17.669L20.8859 17.6953L20.8595 17.5372C20.7804 17.1155 20.5959 16.0085 19.0409 16.0875C18.3819 16.1139 17.8284 16.4565 17.4331 16.9837C16.9323 17.6426 16.8005 18.5124 17.0114 19.514C17.2222 20.4628 17.9602 21.069 18.5137 21.3063C18.7509 21.3853 19.4889 21.5698 20.0424 21.3063C20.5169 21.069 20.9913 20.7 21.2022 20.4365V20.4365ZM26.5263 21.9652V16.9837C26.5263 16.8255 26.5263 16.562 26.3682 16.3775C26.3418 16.3511 26.1046 16.1666 26.1046 16.1666V15.9558L27.4488 15.6922L27.5806 15.7713V21.1218C27.6069 21.6225 27.9496 21.6753 27.9496 21.6753V21.9915L26.5263 21.9652ZM32.4567 21.6225C32.2194 21.5698 32.0877 21.359 32.0877 21.0163V17.8535L31.9822 17.8008L30.638 18.0643V18.2752C30.638 18.2752 30.8752 18.4597 30.9016 18.486C31.0597 18.6705 31.0597 18.9341 31.0597 19.0923V20.9636C30.6117 21.3063 30.2163 21.4117 29.9264 21.2799C29.7155 21.1745 29.5837 20.9109 29.5837 20.5419V17.8535L29.4783 17.8008L28.1341 18.0643V18.2752C28.1341 18.2752 28.3713 18.4597 28.3977 18.486C28.5822 18.6705 28.5822 18.9341 28.5558 19.0923V20.7C28.5558 21.0163 28.5822 21.1218 28.6085 21.2535C28.6876 21.5962 28.8984 21.8334 29.1884 21.9388C29.6628 22.1233 30.3481 21.9388 31.0597 21.4644V21.9125H32.5357V21.6225H32.4567ZM39.1514 21.6225C38.9142 21.5698 38.8087 21.359 38.7824 21.0163V19.0923C38.7824 18.6442 38.5452 17.8008 37.6754 17.8008C37.0164 17.8008 36.5947 18.1961 36.3575 18.407C36.2257 18.117 35.9358 17.8008 35.4087 17.8008C34.9869 17.8008 34.6179 17.9589 34.2489 18.2752V17.8798L34.1172 17.8008L32.7729 18.0643V18.2752C32.7729 18.2752 33.0102 18.4597 33.0365 18.486C33.1947 18.6705 33.1947 18.9341 33.1947 19.0923V21.9125H34.6707V21.6225L34.5916 21.5962C34.3544 21.5435 34.2489 21.359 34.2489 20.99V18.7233C34.5125 18.5124 34.7761 18.4597 35.0397 18.486C35.2505 18.5124 35.4877 18.6705 35.4877 19.4613V21.8861H36.9374V21.5962L36.8583 21.5698C36.6211 21.5171 36.5157 21.3326 36.4893 20.9636V19.0395C36.4893 18.9868 36.4893 18.8287 36.4629 18.7233C36.7265 18.486 36.9901 18.4597 37.2537 18.486C37.4645 18.5124 37.7017 18.6705 37.7017 19.4613V21.8861H39.1514V21.5962V21.6225ZM26.0519 19.883C26.0519 19.2768 25.841 18.7233 25.472 18.3543C25.0767 17.9589 24.5232 17.748 23.8379 17.748C22.5727 17.748 21.6239 18.6705 21.6239 19.883C21.6239 21.1745 22.4937 22.0179 23.8379 22.0179C24.4704 22.0179 25.0503 21.807 25.4457 21.4117C25.841 20.99 26.0519 20.4628 26.0519 19.883V19.883ZM23.8379 21.5435C23.0208 21.5435 22.7836 20.9109 22.7836 19.8566C22.7836 19.0923 23.0208 18.1698 23.8379 18.1698C24.6549 18.1698 24.8922 19.0923 24.8922 19.8566C24.8922 20.9109 24.6549 21.5435 23.8379 21.5435V21.5435ZM44.1065 16.5093C44.1065 16.2193 44.3437 15.9558 44.66 15.9558C44.9499 15.9558 45.2135 16.193 45.2135 16.5093C45.2135 16.8255 44.9763 17.0628 44.66 17.0628C44.3437 17.0628 44.1065 16.7992 44.1065 16.5093ZM44.1592 21.9125V19.0659C44.1592 18.9078 44.1592 18.6442 44.0011 18.4597C43.9747 18.4333 43.7375 18.2488 43.7375 18.2488V18.038L45.0817 17.7744L45.2135 17.8535V21.0163C45.2135 21.359 45.3453 21.5698 45.5562 21.6225L45.6352 21.6489V21.9388L44.1592 21.9125ZM43.3949 18.776C43.1049 18.2752 42.7359 17.9589 42.2879 17.8535C41.6553 17.6953 41.0227 17.9853 40.6274 18.1961V15.7449L40.4956 15.6658L39.1514 15.9294V16.1403C39.1514 16.1403 39.3886 16.3248 39.4149 16.3511C39.5731 16.5356 39.5731 16.7728 39.5731 16.9573V21.6225L39.6258 21.6489C40.3902 22.0443 41.3917 22.097 42.1297 21.807C42.9468 21.4644 43.3158 20.8845 43.4476 20.4628C43.7112 19.8039 43.6057 19.145 43.3949 18.776V18.776ZM42.2879 20.99C42.0507 21.3853 41.5762 21.6225 41.2072 21.5171C40.8382 21.4117 40.6274 21.0163 40.6274 20.4101V18.6969C40.6274 18.6969 40.6537 18.6969 40.6801 18.6705C40.9173 18.5651 41.339 18.3279 41.8925 18.6178C42.1824 18.776 42.4197 19.0659 42.5251 19.4349C42.6569 19.9357 42.5778 20.4892 42.2879 20.99ZM49.2725 21.4908L49.1934 21.4644C49.1407 21.4644 49.0353 21.3063 49.0353 21.069V19.1977C49.0353 18.6442 48.8508 18.2225 48.5345 18.0116C48.2446 17.8008 47.8492 17.7744 47.3748 17.9325C46.8213 18.117 46.0042 18.8287 45.8724 18.9868L45.8461 19.0132V19.0659C45.8461 19.1186 45.9252 19.1977 45.9515 19.2504L45.9779 19.2768H46.9004V19.0132C46.9004 18.6442 47.1376 18.4597 47.3484 18.4333C47.5593 18.407 47.6911 18.407 47.7965 18.486C47.9283 18.5915 48.0074 18.855 48.0074 19.2768V19.514L46.0833 20.3574L46.0569 20.3838V20.4101C45.8724 20.9373 45.9252 21.359 46.1624 21.6489C46.5577 22.097 47.5329 22.1497 48.9562 21.8334C49.0617 21.807 49.2989 21.7807 49.2989 21.7807C49.2725 21.7543 49.2725 21.4908 49.2725 21.4908V21.4908ZM48.0337 19.9357V21.3853C47.7174 21.5962 47.4012 21.6225 47.1639 21.438C46.9267 21.2272 46.874 20.8582 47.0322 20.4892L48.0337 19.9357Z" fill="#1987C7"/>
</svg>
