<svg width="56" height="38" viewBox="0 0 56 38" fill="none" xmlns="http://www.w3.org/2000/svg">
<path fill-rule="evenodd" clip-rule="evenodd" d="M46.7742 27.2742H46.8983C46.9618 27.2742 47.0305 27.2864 47.0305 27.3664C47.0305 27.4619 46.9548 27.4661 46.8723 27.4661H46.7742V27.2742ZM46.6808 27.8008H46.7742V27.5412H46.8735L47.0375 27.8008H47.1381L46.9657 27.5344C47.0552 27.5253 47.1243 27.4794 47.1243 27.3706C47.1243 27.2546 47.0571 27.1984 46.9135 27.1984H46.6806V27.8008H46.6808ZM46.456 27.4972C46.456 27.2509 46.6405 27.0602 46.8815 27.0602C47.1202 27.0602 47.3052 27.2508 47.3052 27.4972C47.3052 27.7495 47.12 27.9401 46.8815 27.9401C46.6405 27.9401 46.456 27.7495 46.456 27.4972ZM46.3621 27.4972C46.3621 27.7934 46.5992 28.016 46.8815 28.016C46.9497 28.0163 47.0172 28.0032 47.0802 27.9772C47.1432 27.9512 47.2005 27.913 47.2486 27.8648C47.2967 27.8165 47.3348 27.7591 47.3605 27.6961C47.3863 27.633 47.3993 27.5654 47.3987 27.4972C47.3987 27.2063 47.1628 26.9846 46.8815 26.9846C46.5992 26.9846 46.3621 27.2063 46.3621 27.4972ZM40.5886 26.7309V27.5924H38.4307V28.5657H39.913C40.0328 28.5657 40.1514 28.5892 40.2621 28.6351C40.3728 28.6809 40.4733 28.7481 40.5581 28.8328C40.6428 28.9175 40.71 29.0181 40.7558 29.1288C40.8016 29.2395 40.8252 29.3581 40.8252 29.4779V30.2782C40.8252 30.398 40.8016 30.5166 40.7558 30.6273C40.71 30.738 40.6428 30.8386 40.5581 30.9233C40.4733 31.008 40.3728 31.0752 40.2621 31.121C40.1514 31.1669 40.0328 31.1904 39.913 31.1904H37.4059V30.329H39.8827V29.4271H38.4003C38.2805 29.4271 38.1619 29.4035 38.0512 29.3577C37.9405 29.3119 37.84 29.2447 37.7553 29.16C37.6705 29.0752 37.6034 28.9747 37.5575 28.864C37.5117 28.7533 37.4881 28.6347 37.4881 28.5149V27.6431C37.4882 27.4012 37.5843 27.1692 37.7554 26.9981C37.9264 26.8271 38.1584 26.7309 38.4003 26.7309H40.5886ZM45.5345 31.1905H43.3462C43.2264 31.1905 43.1078 31.167 42.9971 31.1211C42.8864 31.0753 42.7859 31.0081 42.7012 30.9234C42.6165 30.8387 42.5493 30.7381 42.5034 30.6274C42.4576 30.5167 42.434 30.3981 42.434 30.2783V27.6431C42.4341 27.4012 42.5302 27.1692 42.7013 26.9981C42.8723 26.8271 43.1043 26.7309 43.3462 26.7309H45.5345V27.5924H43.3766V28.5858H45.5345V29.4473H43.3766V30.329H45.5345V31.1905ZM30.7573 31.1905H28.569C28.4492 31.1905 28.3306 31.1669 28.2199 31.1211C28.1092 31.0752 28.0087 31.008 27.924 30.9233C27.8393 30.8386 27.7721 30.7381 27.7263 30.6274C27.6804 30.5167 27.6569 30.3981 27.6569 30.2783V27.6431C27.657 27.4012 27.7531 27.1693 27.9241 26.9982C28.0951 26.8272 28.3271 26.731 28.569 26.7309H30.7573V27.5924H28.5996V28.5858H30.7573V29.4473H28.5996V30.329H30.7573V31.1905ZM18.1691 26.7309H20.2468C20.4887 26.7309 20.7207 26.8271 20.8917 26.9981C21.0628 27.1692 21.1589 27.4012 21.159 27.6431V31.1905H20.2164V27.5924H18.6456V31.1905H17.703V26.7309H18.1691ZM33.3924 28.5859H35.0638V27.5924H33.3924V28.5859ZM36.0062 27.7653V28.5352C36.0063 28.758 35.9248 28.9731 35.7771 29.1399C35.6294 29.3067 35.4258 29.4137 35.2046 29.4407L36.0883 31.1905H35.0274L34.2565 29.4474H33.3924V31.1905H32.4499V26.7309H35.0944C35.3363 26.731 35.5683 26.8271 35.7393 26.9982C35.9103 27.1692 36.0064 27.4012 36.0065 27.6431V27.7653H36.0062ZM23.318 26.7309L24.372 30.4408L25.4869 26.7309H26.5612L25.1221 31.1905H23.6423L22.2639 26.7309H23.318ZM7.80078 27.6431C7.80089 27.4012 7.89701 27.1693 8.06803 26.9982C8.23905 26.8272 8.47098 26.731 8.71285 26.7309H11.0541V27.5924H8.74348V30.329H11.0543V31.1904H8.71298C8.5932 31.1904 8.47459 31.1668 8.36392 31.1209C8.25325 31.0751 8.1527 31.0079 8.06801 30.9232C7.98331 30.8385 7.91613 30.7379 7.8703 30.6273C7.82447 30.5166 7.8009 30.398 7.80091 30.2782V27.6431H7.80078ZM12.4934 27.6431C12.4935 27.4012 12.5896 27.1692 12.7607 26.9982C12.9317 26.8271 13.1637 26.731 13.4056 26.7309H15.3514C15.5934 26.7309 15.8254 26.8271 15.9964 26.9981C16.1675 27.1692 16.2637 27.4012 16.2638 27.6431V30.2783C16.2638 30.3981 16.2402 30.5168 16.1944 30.6275C16.1485 30.7381 16.0813 30.8387 15.9966 30.9234C15.9119 31.0081 15.8113 31.0753 15.7006 31.1212C15.5899 31.167 15.4712 31.1906 15.3514 31.1905H13.4056C13.2858 31.1905 13.1672 31.167 13.0565 31.1211C12.9458 31.0753 12.8452 31.0081 12.7605 30.9234C12.6758 30.8387 12.6086 30.7381 12.5628 30.6274C12.517 30.5167 12.4934 30.3981 12.4934 30.2783V27.6431ZM13.4361 27.5925H15.3213V30.3291H13.4361V27.5925ZM26.9714 10.1035L28.1835 13.8342H32.1062L28.9327 16.1395L30.1449 19.8709L26.9714 17.565L23.7979 19.8709L25.01 16.1395L21.8367 13.8342H25.7592L26.9714 10.1035ZM34.284 15.3738C34.284 19.4125 31.01 22.6861 26.9713 22.6861C22.9326 22.6861 19.6585 19.4124 19.6585 15.3738C19.6585 11.3352 22.9327 8.06086 26.9713 8.06086C31.0099 8.06086 34.284 11.3352 34.284 15.3738V15.3738ZM26.9714 6.80957C22.2416 6.80957 18.4073 10.6436 18.4073 15.3739C18.4073 20.1036 22.2416 23.9376 26.9714 23.9376C31.7013 23.9376 35.5354 20.1036 35.5354 15.3739C35.5353 10.6434 31.7013 6.80957 26.9714 6.80957Z" fill="black"/>
</svg>
