<svg width="56" height="38" viewBox="0 0 56 38" fill="none" xmlns="http://www.w3.org/2000/svg">
<path d="M42.4142 20.8691C42.4011 20.7897 42.4011 20.7205 42.7964 20.5971C43.1903 20.4752 44.1481 20.1506 44.7301 19.8286C45.312 19.5039 45.4091 19.4584 45.5456 19.5494C45.6826 19.639 45.6427 19.8594 45.6427 20.0152V21.5937C45.856 21.2438 46.5553 20.0799 47.1106 19.7375C47.547 19.467 47.7012 19.4452 47.9721 19.4392C48.2967 19.4332 49.0638 19.6333 49.0976 20.4429C49.124 21.0764 48.6568 21.3307 48.3599 21.2908C48.1218 21.257 47.9514 21.038 47.8103 20.8176C47.6674 20.5941 47.4417 20.4621 47.2152 20.5384C46.9887 20.6163 45.7206 21.439 45.6487 22.609C45.5972 23.4701 45.6487 26.155 45.6487 26.155C45.6487 26.562 45.8045 26.7193 45.9865 26.828C46.1671 26.9382 46.833 26.9439 47.0196 26.9706C47.2092 26.9969 47.202 27.0409 47.202 27.0996C47.202 27.1572 47.202 27.185 47.0342 27.185H42.576C42.433 27.185 42.3762 27.1572 42.3762 27.0733C42.3762 26.957 42.5628 26.9777 42.7054 26.957C42.8476 26.9382 43.6015 26.9999 43.8178 26.6207C43.9762 26.3724 43.957 25.9725 43.957 25.9725L43.9352 21.257C43.9352 20.8763 43.8223 20.8206 43.7177 20.7604C43.612 20.7002 43.4371 20.6678 43.068 20.7927C42.7201 20.9071 42.4804 21.0147 42.4142 20.8691V20.8691ZM26.8214 20.8706C26.7612 20.7544 26.873 20.6795 27.2036 20.5926C27.5723 20.4944 28.3804 20.2488 29.0214 19.8857C29.6621 19.5246 29.7723 19.4862 29.9073 19.5302C30.0439 19.5758 30.0307 19.8154 30.0307 20.0095V26.1106C30.0307 26.4529 30.0762 26.5959 30.2305 26.7381C30.3862 26.881 30.7745 26.9646 31.2785 26.9646C31.5061 26.9646 31.5769 26.9909 31.5769 27.0879C31.5769 27.185 31.5061 27.185 31.4151 27.185H26.99C26.8534 27.185 26.8207 27.1263 26.8207 27.0688C26.8207 26.9969 26.8812 26.9514 27.087 26.9514C27.2601 26.9514 28.0614 27.0116 28.2434 26.5955C28.3142 26.4371 28.3476 26.2152 28.3476 26.0079V21.1674C28.3476 20.7999 28.0629 20.637 27.7337 20.716C27.3485 20.8044 26.9004 21.0218 26.8211 20.8702L26.8214 20.8706ZM29.0771 16.6501C29.3655 16.65 29.6422 16.5355 29.8463 16.3317C30.0504 16.1278 30.1653 15.8514 30.1658 15.5629C30.1657 15.42 30.1375 15.2785 30.0828 15.1465C30.028 15.0145 29.9478 14.8946 29.8467 14.7936C29.7456 14.6926 29.6256 14.6125 29.4936 14.5579C29.3615 14.5033 29.22 14.4752 29.0771 14.4753C28.7887 14.4753 28.5121 14.5899 28.3082 14.7938C28.1043 14.9978 27.9897 15.2743 27.9897 15.5627C27.9897 15.8511 28.1043 16.1277 28.3082 16.3316C28.5121 16.5355 28.7887 16.6501 29.0771 16.6501V16.6501ZM34.3953 23.5698C34.6142 25.5493 35.7929 27.0894 37.2532 26.8306C38.717 26.5722 39.4502 25.1746 39.2738 22.9367C39.0932 20.6607 37.9676 19.5246 36.4523 19.6612C34.8859 19.8037 34.1749 21.5891 34.3953 23.5698V23.5698ZM35.844 19.3128C37.7295 18.9603 40.411 19.376 41.0212 22.3269C41.6295 25.2773 39.5988 26.8487 37.8367 27.232C36.1145 27.6052 33.1904 27.3392 32.6611 24.1649C32.1852 21.3156 34.2523 19.6096 35.844 19.3128V19.3128ZM13.5223 26.7072H14.6159C18.6833 26.7072 19.775 26.3295 21.2068 24.4283C22.6378 22.5266 22.8082 19.7962 22.8082 18.8734C22.8082 17.9506 22.5629 15.6344 21.1315 13.6759C19.6986 11.7171 17.3079 11.2085 15.2166 11.2085H13.5136C13.1096 11.2085 13.0889 11.3879 13.0889 11.6701V26.3491C13.0889 26.6689 13.2018 26.7072 13.5223 26.7072V26.7072ZM6.89941 27.0511C6.89941 26.9029 7.09202 26.878 7.27109 26.872C9.34165 26.8133 9.728 26.7411 9.96463 26.4958C10.094 26.3604 10.2836 26.2502 10.2836 25.2909V12.0888C10.2836 10.903 8.84358 11.0911 7.82673 10.9865C7.46935 10.9512 7.44 10.903 7.44 10.7984C7.44 10.6957 7.50772 10.6457 7.69431 10.6382H16.0367C25.2094 10.6382 25.6782 17.3438 25.6782 19.1322C25.6782 22.9747 23.1374 27.2012 17.8267 27.2012H7.16689C7.03597 27.2012 6.89941 27.1835 6.89941 27.0511" fill="#211E1E"/>
</svg>
