<svg width="56" height="38" viewBox="0 0 56 38" fill="none" xmlns="http://www.w3.org/2000/svg">
<path fill-rule="evenodd" clip-rule="evenodd" d="M7.30078 17.0806H8.67511C9.63546 17.0806 10.4426 17.9309 10.4426 19.0005C10.4426 20.0479 9.63527 20.8983 8.67511 20.9204H7.30078V17.0806ZM7.8899 17.5385V20.4623H8.52253C9.39541 20.4402 9.83156 19.7424 9.83156 19.0217C9.83156 18.2796 9.39522 17.669 8.67511 17.5597L7.8899 17.5385ZM12.7555 16.9926C13.934 16.9926 14.8717 17.8872 14.8717 19.0003C14.8717 20.1124 13.9338 21.0073 12.7555 21.0073C11.5991 21.0073 10.6393 20.1126 10.6393 19.0003C10.6391 17.8874 11.5991 16.9926 12.7555 16.9926V16.9926ZM12.7555 17.4728C13.6067 17.4728 14.3046 18.1492 14.3046 19.0005C14.3046 19.8295 13.6067 20.5058 12.7555 20.5058C11.9266 20.5058 11.228 19.8295 11.228 19.0005C11.228 18.1492 11.9264 17.4728 12.7555 17.4728ZM15.0465 17.0806H15.6136V20.4625H16.7046V20.9204H15.0465L15.0465 17.0806ZM18.5374 16.9714C18.9737 16.9714 19.3885 17.1018 19.7374 17.3203V18.0188C19.4534 17.6689 19.0173 17.4507 18.5374 17.4507C17.6863 17.4507 17.0099 18.1492 17.0099 19.0005C17.0099 19.8295 17.6863 20.5272 18.5374 20.5272C19.0175 20.5272 19.4536 20.3097 19.7374 19.9601V20.68C19.3883 20.8984 18.9735 21.0298 18.5374 21.0298C17.3809 21.0298 16.4212 20.1128 16.4212 19.0007C16.4212 17.8874 17.3811 16.9714 18.5374 16.9714V16.9714ZM20.501 20.4623H21.8757V20.9202H19.9119V17.0806H21.8757V17.5164H20.501V18.6506H21.8757V19.1096H20.501V20.4623ZM24.0359 20.6586C23.9704 20.7243 23.9047 20.7678 23.8174 20.8112C23.7519 20.8547 23.6648 20.8769 23.5774 20.898C23.5556 20.898 23.5338 20.898 23.5121 20.9202H23.4466C23.3811 20.9202 23.3374 20.898 23.2718 20.898C23.2063 20.8769 23.1626 20.8545 23.0971 20.8112C23.0536 20.7676 23.01 20.702 22.9665 20.6363C22.9445 20.5715 22.9228 20.5059 22.901 20.4402V20.3311H22.9228V20.2878C22.9443 20.1785 22.9883 20.0917 23.0753 20.0036C23.1624 19.9389 23.2497 19.8732 23.3371 19.8075C23.2932 19.7423 23.2496 19.6769 23.2061 19.6114C23.1624 19.5678 23.1406 19.481 23.1406 19.4153V19.3274C23.1624 19.3274 23.1624 19.3062 23.1624 19.3062C23.1844 19.2194 23.2281 19.1537 23.2936 19.0878C23.3807 19.0442 23.4462 19.0221 23.5334 19.0221H23.599C23.686 19.0221 23.7952 19.0666 23.8827 19.1313C23.948 19.197 23.9916 19.2839 23.9916 19.4155C23.9916 19.5247 23.97 19.6116 23.9043 19.6773C23.817 19.7642 23.7517 19.8299 23.6644 19.8734L24.079 20.3748C24.1008 20.3313 24.1445 20.288 24.1883 20.2223C24.2318 20.1787 24.2536 20.1354 24.2975 20.0919L24.4283 20.2223C24.4065 20.2658 24.3628 20.3101 24.341 20.3537C24.3192 20.3972 24.2755 20.4405 24.2318 20.4841L24.21 20.5062C24.21 20.5062 24.21 20.5274 24.1883 20.5274L24.4936 20.8773H24.2318L24.0359 20.6586ZM23.5338 20.7243C23.5993 20.7243 23.6648 20.7022 23.7302 20.6586C23.7739 20.6151 23.8392 20.5717 23.8831 20.5272H23.9047L23.9266 20.506L23.4468 19.9601C23.4468 19.9822 23.4468 19.9822 23.4248 19.9822L23.403 20.0034C23.3593 20.0256 23.3375 20.0479 23.2942 20.0691C23.2501 20.1126 23.2287 20.1348 23.2067 20.1783C23.1852 20.1783 23.1852 20.2005 23.1852 20.2219C23.1632 20.244 23.1632 20.2654 23.1632 20.2876C23.1414 20.3097 23.1414 20.3311 23.1414 20.3311V20.3968C23.1414 20.4837 23.1632 20.5494 23.2289 20.6364C23.316 20.7022 23.3815 20.7243 23.4905 20.7243H23.5339L23.5338 20.7243ZM23.3593 19.3716V19.4149C23.3593 19.4584 23.3593 19.5018 23.3813 19.5453C23.403 19.5888 23.4468 19.6332 23.4683 19.6545C23.4827 19.6693 23.4973 19.6838 23.5121 19.6981L23.5338 19.7202H23.5556C23.5556 19.7202 23.5774 19.7202 23.5774 19.6981C23.6211 19.6769 23.6648 19.6545 23.7086 19.6112C23.7521 19.5677 23.7741 19.5243 23.7956 19.4586V19.4153C23.7956 19.3496 23.7739 19.3061 23.7302 19.2627C23.6864 19.2405 23.6431 19.2192 23.5993 19.2192H23.5556C23.5121 19.2192 23.4683 19.2192 23.4246 19.2627C23.3813 19.2835 23.3593 19.327 23.3593 19.3716V19.3716ZM27.5703 16.9492C28.334 16.9492 29.0104 17.3424 29.4032 17.9098L28.9013 18.1716C28.6177 17.7348 28.1375 17.4507 27.5921 17.4507C26.7194 17.4507 26.043 18.1492 26.043 19.0005C26.043 19.8508 26.7194 20.5272 27.5921 20.5272C28.3122 20.5272 28.8793 20.1783 28.9233 19.4363H27.6796V18.9784H29.5344V19.0005C29.5344 20.2005 28.8793 21.0508 27.5705 21.0508C26.2613 21.0508 25.4322 20.1348 25.4322 19.0005C25.4322 17.865 26.3921 16.9492 27.5703 16.9492H27.5703ZM29.2067 20.9204L30.7997 17.0806H31.1707L32.7631 20.9204H32.1524L31.7161 19.8295H30.2541L29.8179 20.9204L29.2067 20.9204ZM30.4725 19.3492L30.9958 17.9743L31.4978 19.3492H30.4725ZM38.3488 20.9204L39.9199 17.0806H40.2905L41.8833 20.9204H41.2726L40.8365 19.8295H39.3741L38.9377 20.9204H38.3488ZM39.5925 19.3492L40.1162 17.9743L40.6398 19.3492H39.5925ZM45.9416 20.9204L47.5345 17.0806H47.9056L49.4986 20.9204H48.8873L48.4294 19.8295H46.9892L46.553 20.9204H45.9416ZM47.2072 19.3492L47.7093 17.9743L48.2327 19.3492H47.2072ZM34.1378 17.5164C34.5306 17.5599 34.6612 17.7125 34.6612 18.1059C34.6612 18.4769 34.3994 18.673 34.0721 18.673H33.5703V17.5164H34.1378L34.1378 17.5164ZM34.1815 19.1309H34.2031C34.4869 19.1309 34.9887 19.1966 34.9887 19.8295C34.9887 20.3309 34.5526 20.4623 34.1378 20.4623H34.2247H33.5701V19.1307H34.1815V19.1309ZM33.4398 20.9204H34.4216C35.098 20.9204 35.6 20.4625 35.6 19.8294C35.6 19.327 35.294 18.957 34.8579 18.8042C35.098 18.6506 35.229 18.3675 35.229 18.0186C35.229 17.4504 34.8579 17.0804 34.2688 17.0804C33.9631 17.0582 33.636 17.0804 33.3306 17.0804H32.9816V20.9202H33.4398V20.9204ZM37.0614 17.5163C37.4324 17.5599 37.5634 17.7124 37.585 18.1059C37.585 18.4769 37.3232 18.673 36.9959 18.673H36.494V17.5164H37.0614V17.5163ZM37.0835 19.1309H37.1053C37.3889 19.1309 37.8903 19.1966 37.8903 19.8294C37.8903 20.3309 37.454 20.4623 37.0396 20.4623H37.1486H36.494V19.1307H37.0835L37.0835 19.1309ZM36.3415 20.9204H37.3453C38.0217 20.9204 38.5014 20.4625 38.5014 19.8294C38.5014 19.327 38.1961 18.957 37.7599 18.8042C38.0217 18.6506 38.1521 18.3675 38.1521 18.0186C38.1521 17.4504 37.7599 17.0804 37.1922 17.0804C36.8651 17.0582 36.5597 17.0804 36.232 17.0804H35.8834V20.9202H36.3415V20.9204ZM42.1453 17.0806H42.5163L45.2001 19.9165V17.0806H45.7237V20.9204H45.3309L42.6907 18.1056V20.9204H42.1453V17.0806Z" fill="black"/>
</svg>
