<svg width="56" height="38" viewBox="0 0 56 38" fill="none" xmlns="http://www.w3.org/2000/svg">
<path d="M23.9189 6.80957C25.2579 6.81526 26.5963 6.80906 27.9354 6.81262C28.421 6.84617 28.9081 6.81425 29.3942 6.83224C29.3711 7.26631 29.3778 7.70049 29.3778 8.13517C28.0254 8.13517 26.6731 8.13212 25.3206 8.1367C25.3202 8.78507 25.3223 9.43384 25.3202 10.0828C26.0793 10.0833 26.8384 10.0864 27.5969 10.0808C27.6006 10.4953 27.5954 10.9099 27.6006 11.3245C26.8409 11.3337 26.0808 11.3219 25.3212 11.3301C25.3238 12.9637 25.314 14.5967 25.3263 16.2297C24.8511 16.24 24.3757 16.24 23.9004 16.2302C23.9158 14.8418 23.8875 13.4529 23.9179 12.065C23.9179 10.313 23.9153 8.56101 23.9189 6.80957V6.80957Z" fill="#231F20"/>
<path d="M29.8763 6.81287C30.35 6.81185 30.8239 6.80779 31.2977 6.8149C31.2853 8.06741 31.311 9.32084 31.2817 10.5728C31.2827 12.0493 31.2817 13.5253 31.2822 15.0017C31.2802 15.4131 31.291 15.8251 31.2641 16.2361C30.4973 16.2474 29.7316 16.212 28.9653 16.2202C27.9148 16.2212 26.8646 16.2182 25.8146 16.2222C25.8151 15.7855 25.8296 15.3488 25.8239 14.9121C27.1742 14.9136 28.5245 14.9105 29.8753 14.9141C29.883 14.2606 29.8768 13.6071 29.8778 12.9542C29.1188 12.9521 28.3601 12.9515 27.6011 12.9535C27.6001 12.5385 27.6027 12.123 27.6001 11.7078C28.3592 11.6949 29.1188 11.7119 29.8784 11.6991C29.8778 10.0702 29.8809 8.44131 29.8763 6.81287V6.81287ZM7.52851 20.3426C9.92273 20.3426 12.3163 20.3446 14.7106 20.3416C14.7131 20.9853 14.7156 21.629 14.7095 22.2732C13.0188 22.2727 11.3276 22.2717 9.63636 22.2737C9.63738 23.0818 9.63534 23.8903 9.63738 24.6983C11.118 24.6952 12.5986 24.6979 14.0787 24.6972C14.0868 25.339 14.0771 25.9807 14.0837 26.6223C12.6016 26.6208 11.12 26.6238 9.63839 26.6208C9.63484 28.1431 9.63636 29.6654 9.63738 31.1876C8.93549 31.18 8.23355 31.1798 7.53166 31.1871C7.52393 27.5725 7.53064 23.9573 7.52861 20.3426H7.52851ZM16.1071 31.1876C16.1046 27.5715 16.1041 23.9552 16.1076 20.339C18.5816 20.3467 21.0562 20.3426 23.5306 20.341C23.5312 20.9853 23.5281 21.6295 23.5322 22.2732C21.7457 22.2732 19.9587 22.2702 18.1723 22.2753C18.1779 23.0313 18.1728 23.7879 18.1748 24.5443C19.8156 24.5403 21.4558 24.5428 23.0965 24.5428C23.0904 25.184 23.0975 25.8257 23.0919 26.4668C21.4531 26.4683 19.814 26.4693 18.1753 26.4658C18.1713 27.3938 18.1794 28.3218 18.1713 29.2492C20.0386 29.2554 21.9059 29.2502 23.7738 29.2519C23.7783 29.8956 23.7783 30.5393 23.7738 31.1836C21.2184 31.1856 18.6625 31.1768 16.1071 31.1876V31.1876ZM25.3584 20.339C26.102 20.3447 26.8456 20.3461 27.5892 20.339C28.9308 22.8588 30.2718 25.3786 31.6159 27.8969C31.6205 25.3792 31.62 22.8614 31.6159 20.3441C32.2716 20.3405 32.927 20.3451 33.5826 20.3416C33.5857 23.9563 33.5853 27.5709 33.5831 31.1856C32.8817 31.1805 32.1803 31.1836 31.4795 31.1836C30.1035 28.6028 28.724 26.0239 27.341 23.447C27.3415 26.027 27.342 28.6066 27.3405 31.1866C26.6797 31.181 26.0186 31.1785 25.3573 31.1882C25.362 27.572 25.3599 23.9552 25.3583 20.339H25.3584ZM35.5962 20.341C37.1278 20.3457 38.6594 20.341 40.1909 20.3436C41.0309 20.357 41.8909 20.5939 42.5382 21.1485C43.2164 21.68 43.6125 22.4813 43.8602 23.2894C44.0693 24.0253 44.1455 24.7926 44.1584 25.5558C44.128 26.7345 43.9617 27.9417 43.4173 29.0026C43.0764 29.7375 42.5084 30.3714 41.7967 30.7623C41.275 31.046 40.6792 31.1656 40.09 31.181C38.5935 31.1881 37.0964 31.1753 35.5998 31.1876C35.5896 27.572 35.5968 23.9563 35.5962 20.341V20.341ZM37.6835 22.231C37.6778 24.585 37.6804 26.9391 37.6819 29.293C38.3478 29.29 39.0131 29.293 39.6791 29.2915C39.9515 29.2843 40.2296 29.2502 40.4809 29.14C40.9676 28.9393 41.3131 28.5041 41.5423 28.0442C41.9291 27.2058 42.0134 26.2613 41.9882 25.3493C41.965 24.4753 41.8322 23.5396 41.2559 22.8455C40.9093 22.416 40.3357 22.2732 39.8093 22.2388C39.1008 22.2259 38.3921 22.2413 37.6835 22.231V22.231ZM45.5668 31.1903C45.5591 27.573 45.5601 23.9558 45.5663 20.3384C46.2673 20.3488 46.9687 20.341 47.6696 20.3416C47.6727 23.9552 47.6742 27.5693 47.669 31.1836C46.9682 31.1866 46.2672 31.1733 45.5668 31.1903V31.1903Z" fill="#231F20"/>
</svg>
