<svg width="56" height="38" viewBox="0 0 56 38" fill="none" xmlns="http://www.w3.org/2000/svg">
<path fill-rule="evenodd" clip-rule="evenodd" d="M38.4697 24.0809C38.4697 28.0062 35.2853 31.1907 31.36 31.1907C30.2291 31.1907 29.1634 30.9309 28.2016 30.4498C27.2526 30.9179 26.1738 31.1907 25.0562 31.1907C21.1307 31.1907 17.9463 28.0062 17.9463 24.0809C17.9463 20.1556 21.1307 16.9712 25.056 16.9712C26.1869 16.9712 27.2526 17.2312 28.2014 17.699C29.1504 17.2312 30.2291 16.9712 31.36 16.9712C35.2853 16.9712 38.4697 20.1556 38.4697 24.0809V24.0809ZM37.0661 24.0809C37.0661 20.9355 34.5053 18.375 31.36 18.375C30.7621 18.375 30.1773 18.466 29.6443 18.635C30.7361 19.5447 31.529 20.7665 31.9188 22.1703H30.4501C30.0375 20.9984 29.2523 19.994 28.2146 19.3108C27.1877 19.9866 26.4078 20.9876 25.992 22.1703H24.5232C24.9079 20.786 25.7004 19.5495 26.7977 18.622C26.2378 18.4494 25.655 18.3617 25.069 18.362C21.9237 18.362 19.3631 20.9225 19.3631 24.0679C19.3631 27.2133 21.9237 29.774 25.069 29.774C25.6669 29.774 26.2387 29.6831 26.7717 29.514C25.3551 28.3313 24.4323 26.5896 24.2893 24.6399H27.6686V26.0306L26.0178 26.0566C26.4468 27.2005 27.2137 28.1624 28.2146 28.8252C29.2153 28.1623 29.9822 27.2005 30.4112 26.0566L28.7604 26.0306V24.6399H32.1399C31.9839 26.5896 31.0481 28.3183 29.6313 29.501C30.1773 29.67 30.7621 29.774 31.36 29.774C34.5184 29.787 37.0661 27.2393 37.0661 24.0809Z" fill="black"/>
<path d="M37.2892 8.29496L37.2455 8.30951C37.0756 7.94054 36.8329 7.64681 36.5173 7.42831C36.2066 7.20994 35.8159 7.10075 35.3451 7.10075C35.0829 7.10075 34.8329 7.15659 34.595 7.26826C34.3571 7.37496 34.1484 7.52786 33.9688 7.72695C33.794 7.92108 33.6532 8.15655 33.5465 8.43337C33.4397 8.70994 33.3863 9.01573 33.3863 9.35076C33.3863 9.68565 33.4397 9.99145 33.5465 10.2681C33.6533 10.5448 33.7941 10.7827 33.9688 10.9818C34.1484 11.176 34.357 11.3264 34.5948 11.4333C34.8328 11.5401 35.0829 11.5935 35.3451 11.5935C35.811 11.5935 36.1896 11.5207 36.4809 11.3751C36.777 11.2245 37.027 10.9963 37.231 10.6905L37.2746 10.705L37.2601 11.171C37.1484 11.2875 37.0197 11.3919 36.8741 11.4842C36.7286 11.5716 36.5709 11.6469 36.4009 11.7101C36.2358 11.7681 36.0636 11.8118 35.884 11.841C35.7043 11.875 35.5246 11.8919 35.3451 11.8919C34.9713 11.8919 34.6145 11.8313 34.2747 11.7101C33.9349 11.5886 33.6363 11.4186 33.379 11.2003C33.1217 10.9769 32.9178 10.7099 32.7673 10.3993C32.6168 10.0838 32.5416 9.73428 32.5416 9.35076C32.5416 8.96724 32.6169 8.62009 32.7675 8.30932C32.9179 7.99382 33.1217 7.72447 33.379 7.50125C33.6363 7.2779 33.9349 7.10796 34.2747 6.99144C34.6145 6.87019 34.9712 6.80957 35.3449 6.80957C35.5246 6.80957 35.7043 6.82406 35.884 6.85303C36.0636 6.88225 36.2358 6.92839 36.4009 6.99144C36.5707 7.04976 36.7285 7.12506 36.8741 7.21734C37.0197 7.30464 37.1484 7.40655 37.2601 7.52307L37.2892 8.29496ZM21.2433 9.68578C21.19 9.71003 21.1391 9.74155 21.0906 9.78035C21.0421 9.81915 21.0178 9.87256 21.0178 9.94059V10.8363C20.7847 11.1712 20.486 11.431 20.1219 11.6155C19.7579 11.7999 19.355 11.8921 18.9133 11.8921C18.5395 11.8921 18.1827 11.8314 17.8428 11.7101C17.503 11.5887 17.2045 11.4188 16.9472 11.2003C16.6899 10.9769 16.486 10.71 16.3356 10.3995C16.1851 10.0838 16.1099 9.73428 16.1099 9.35076C16.1099 8.96736 16.1852 8.62028 16.3358 8.30951C16.4861 7.99401 16.6899 7.72459 16.9472 7.50125C17.2045 7.2779 17.503 7.10803 17.8428 6.99163C18.1827 6.87026 18.5395 6.80957 18.9133 6.80957C19.0929 6.80957 19.2725 6.82412 19.452 6.85322C19.6317 6.88232 19.804 6.92846 19.9689 6.99163C20.1389 7.04983 20.2967 7.12506 20.4424 7.21734C20.588 7.30476 20.7166 7.40667 20.8283 7.52307L20.8576 8.29496L20.8138 8.30951C20.644 7.94067 20.4013 7.647 20.0857 7.4285C19.7749 7.21 19.3841 7.10075 18.9133 7.10075C18.6512 7.10075 18.4012 7.15659 18.1633 7.26826C17.9255 7.37509 17.7168 7.52798 17.5372 7.72695C17.3624 7.9212 17.2216 8.15668 17.1147 8.43337C17.0079 8.71007 16.9545 9.01586 16.9545 9.35076C16.9545 9.6808 17.0056 9.98417 17.1077 10.2609C17.2143 10.5377 17.3551 10.7756 17.5298 10.9746C17.7095 11.1687 17.9182 11.3216 18.156 11.4333C18.3939 11.5401 18.6463 11.5935 18.9133 11.5935C19.4182 11.5935 19.8502 11.4964 20.2094 11.3023V9.94059C20.2094 9.87269 20.1827 9.81928 20.1294 9.78035C20.0809 9.74155 20.0324 9.70996 19.9839 9.68559L19.9904 9.64921C20.0146 9.65368 20.0583 9.65853 20.1215 9.66376C20.1847 9.66823 20.2502 9.67308 20.3181 9.67831H20.9443C21.0026 9.67384 21.0585 9.66899 21.1118 9.66376C21.1652 9.6593 21.2064 9.65445 21.2355 9.64921L21.2433 9.68578ZM26.5175 6.96234C26.469 6.98659 26.4205 7.01818 26.372 7.0571C26.3234 7.0959 26.2967 7.16871 26.2918 7.27554C26.2874 7.39206 26.2825 7.54011 26.2773 7.71968C26.2773 7.89453 26.2751 8.09363 26.2708 8.31698C26.2708 8.5402 26.2685 8.78288 26.2641 9.04503V9.86056C26.2596 10.1761 26.2207 10.4455 26.1475 10.6688C26.0747 10.8922 25.9777 11.079 25.8563 11.2294C25.7398 11.38 25.6087 11.4989 25.4631 11.5862C25.3223 11.6736 25.1815 11.7392 25.0408 11.7828C24.9048 11.8313 24.7762 11.8605 24.6548 11.8703C24.5335 11.8849 24.4388 11.8921 24.3707 11.8921C24.094 11.8921 23.827 11.8558 23.5697 11.783C23.3124 11.715 23.0867 11.6033 22.8926 11.448C22.6985 11.2925 22.5432 11.0911 22.4266 10.8436C22.3101 10.596 22.2519 10.295 22.2519 9.94059V8.36043C22.2519 8.12751 22.2496 7.91884 22.2452 7.73442C22.2452 7.54502 22.2429 7.39206 22.2385 7.27554C22.2341 7.16871 22.2074 7.09597 22.1584 7.05729C22.1099 7.01837 22.0614 6.98672 22.0129 6.96234L22.0195 6.92597C22.0437 6.93043 22.0826 6.93528 22.1362 6.94052C22.1944 6.94498 22.2526 6.94983 22.3108 6.95507C22.374 6.95507 22.4346 6.9573 22.4927 6.96177H22.755C22.8133 6.9573 22.874 6.95507 22.937 6.95507C23.0002 6.9506 23.0585 6.94575 23.1118 6.94052C23.17 6.93605 23.2112 6.9312 23.2355 6.92597L23.2422 6.96234C23.1888 6.98659 23.1378 7.01818 23.0892 7.0571C23.0456 7.0959 23.0213 7.16871 23.0165 7.27554C23.012 7.39206 23.0072 7.54496 23.0019 7.73423V9.94059C23.0019 10.4697 23.1257 10.8605 23.3733 11.113C23.6209 11.3654 23.9874 11.4916 24.4728 11.4916C24.6135 11.4916 24.7737 11.4746 24.9533 11.4405C25.133 11.4017 25.3005 11.3241 25.4558 11.2075C25.616 11.091 25.7495 10.926 25.8563 10.7125C25.968 10.4988 26.0238 10.2149 26.0238 9.86056C26.0238 9.47704 26.0216 9.14936 26.0171 8.87751C26.0171 8.60082 26.0149 8.36535 26.0104 8.1711C26.0104 7.972 26.0082 7.80213 26.0037 7.66148C25.9994 7.52071 25.9945 7.39206 25.9892 7.27554C25.9848 7.16871 25.9582 7.0959 25.9091 7.0571C25.8606 7.0183 25.8121 6.98672 25.7636 6.96234L25.7702 6.92597C25.8236 6.93567 25.8843 6.94543 25.9522 6.95526C26.0202 6.9596 26.0834 6.96177 26.1417 6.96177C26.195 6.96177 26.2556 6.9596 26.3236 6.95526C26.3964 6.94556 26.4595 6.93579 26.5129 6.92597L26.5175 6.96234ZM31.8013 8.29496L31.7577 8.30951C31.5877 7.94054 31.3449 7.64681 31.0294 7.42831C30.7188 7.20994 30.328 7.10075 29.857 7.10075C29.595 7.10075 29.3451 7.15659 29.1072 7.26826C28.8693 7.37496 28.6605 7.52786 28.481 7.72695C28.3061 7.92108 28.1653 8.15655 28.0586 8.43337C27.9518 8.70994 27.8984 9.01573 27.8984 9.35076C27.8984 9.68565 27.9518 9.99145 28.0586 10.2681C28.1653 10.5448 28.3061 10.7827 28.481 10.9818C28.6605 11.176 28.8692 11.3264 29.107 11.4333C29.345 11.5401 29.595 11.5935 29.857 11.5935C30.3231 11.5935 30.7018 11.5207 30.993 11.3751C31.2891 11.2245 31.5392 10.9963 31.7431 10.6905L31.7868 10.705L31.7722 11.171C31.6605 11.2875 31.5319 11.3919 31.3863 11.4842C31.2408 11.5716 31.083 11.6469 30.913 11.7101C30.748 11.7681 30.5757 11.8118 30.3961 11.841C30.2164 11.875 30.0368 11.8919 29.8572 11.8919C29.4833 11.8919 29.1264 11.8313 28.7867 11.7101C28.4469 11.5886 28.1484 11.4186 27.8911 11.2003C27.6338 10.9769 27.43 10.7099 27.2795 10.3993C27.1289 10.0838 27.0536 9.73428 27.0536 9.35076C27.0536 8.96724 27.1289 8.62009 27.2795 8.30932C27.4301 7.99382 27.634 7.72447 27.8911 7.50125C28.1484 7.2779 28.4469 7.10796 28.7867 6.99144C29.1266 6.87019 29.4834 6.80957 29.8572 6.80957C30.0368 6.80957 30.2164 6.82406 30.3959 6.85303C30.5756 6.88225 30.7479 6.92839 30.9128 6.99144C31.0828 7.04976 31.2406 7.12506 31.3863 7.21734C31.5319 7.30464 31.6605 7.40655 31.7722 7.52307L31.8013 8.29496ZM39.4838 11.7681C39.4596 11.7637 39.4184 11.759 39.3602 11.7537C39.3068 11.7537 39.2486 11.7515 39.1854 11.747C39.1222 11.747 39.0615 11.7449 39.0033 11.7405H38.5666C38.5083 11.7449 38.45 11.7496 38.3917 11.7549C38.3383 11.7593 38.2971 11.7642 38.268 11.7694L38.2613 11.7403C38.3098 11.7161 38.3583 11.6845 38.4068 11.6456C38.4554 11.6068 38.4821 11.5339 38.487 11.4271C38.4915 11.3106 38.4937 11.1892 38.4937 11.063C38.4982 10.9368 38.5004 10.7936 38.5004 10.6334V8.06313C38.5004 7.90283 38.4982 7.76199 38.4937 7.64062C38.4937 7.51439 38.4915 7.39308 38.487 7.27669C38.4825 7.16986 38.4559 7.09705 38.407 7.05825C38.3585 7.01448 38.31 6.98046 38.2615 6.95621L38.268 6.92712C38.2971 6.93681 38.3383 6.94409 38.3917 6.94894C38.45 6.94894 38.5082 6.95117 38.5664 6.95564C38.6296 6.96011 38.6903 6.96234 38.7485 6.96234H39.0033C39.0615 6.95787 39.1221 6.95564 39.1852 6.95564C39.2485 6.95117 39.3068 6.94632 39.3602 6.94109C39.4184 6.93662 39.4596 6.93177 39.4838 6.92654L39.4905 6.95583C39.4372 6.98008 39.3862 7.01403 39.3376 7.05768C39.2939 7.09648 39.2697 7.16922 39.2648 7.27592C39.2604 7.39257 39.2555 7.51401 39.2503 7.64023V11.0626C39.2547 11.1887 39.2596 11.31 39.2648 11.4265C39.2692 11.5334 39.2934 11.6062 39.3376 11.645C39.3861 11.6838 39.4371 11.7154 39.4905 11.7397L39.4838 11.7681Z" fill="black"/>
</svg>
