<svg width="56" height="38" viewBox="0 0 56 38" fill="none" xmlns="http://www.w3.org/2000/svg">
<path d="M35.4935 7.54911C36.8359 6.8898 37.5012 6.97632 37.5161 7.6446C37.5341 8.51273 37.4057 9.66718 37.3133 10.5026C36.815 15.0426 35.9826 18.7525 35.9201 23.414C38.1127 17.7376 39.9504 13.7923 42.319 8.93329C43.0708 7.38499 43.5511 7.67438 44.1686 7.3999C46.5731 6.32895 46.6626 6.98529 46.3493 8.29489C45.1829 13.1456 42.1966 28.4183 41.7403 30.77C41.609 31.4505 40.8692 31.162 40.6782 30.8959C39.8221 29.7116 38.8556 29.6931 38.9629 28.9055C39.4999 24.9847 41.433 15.1473 41.9372 12.8293C39.3686 18.0953 36.7046 24.6784 35.3353 28.4109C35.0459 29.2035 34.5179 29.1454 34.1898 28.5654C33.7274 27.7508 32.8294 27.3349 32.6802 26.3722C32.2119 23.3115 33.2173 17.4775 33.3574 13.7866C31.9583 17.8184 29.6105 25.6461 28.5813 29.1826C28.1577 30.6459 26.7437 30.4072 27.1195 28.981C28.6827 23.0459 32.0509 12.549 33.5066 8.77522C33.8498 7.88617 34.7477 7.916 35.4935 7.54911V7.54911ZM26.9676 6.82117C26.5141 6.71081 25.1986 7.42082 24.39 7.561C24.1335 7.60575 23.8889 7.8772 23.8023 8.07116C22.5076 11.0454 21.3472 13.8806 20.3418 16.4635C19.056 16.6831 17.5525 16.9721 15.87 17.3501C17.0752 14.2586 18.2924 11.2094 19.4797 8.27695C20.0644 6.83306 18.5251 6.6959 17.9284 8.15763C17.1527 10.058 15.6999 13.6184 14.092 17.7683C12.8373 18.0759 11.5891 18.409 10.348 18.7674C9.39637 19.0422 9.35767 19.2957 9.76931 19.8664C9.99602 20.1842 10.4644 20.1522 10.6792 20.3786C11.2341 20.9654 11.5712 21.6673 12.5645 21.7736C11.6786 24.1437 10.7925 26.5879 9.99002 28.9413C9.48586 30.4186 10.9208 30.7207 11.4727 29.1575C12.3617 26.6376 13.2984 24.0873 14.262 21.5444C15.0645 21.3579 17.0065 20.9397 18.7994 20.5507C17.3764 24.4509 16.4397 27.4129 16.0847 28.8547C16.0191 29.1322 16.1295 29.2861 16.1891 29.3992C16.6694 30.0981 17.1258 30.1267 17.7434 30.991C17.9105 31.2267 18.4713 31.3537 18.6622 30.7735C19.9808 26.7906 21.3381 23.0536 22.603 19.7034C23.128 19.5886 24.0737 19.3603 24.6524 18.4967C25.6816 16.9639 25.9769 17.2748 26.2246 16.8088C26.5349 16.2238 26.329 15.6746 25.2312 15.8103C25.2312 15.8103 24.8166 15.8398 24.0498 15.9272C25.267 12.7934 26.332 10.1353 27.0987 8.10975C27.3613 7.42379 27.3942 6.9226 26.9676 6.82117Z" fill="#CC071E"/>
<path d="M25.1715 27.1469C25.4549 27.8631 26.3409 27.6462 26.0039 26.7817C25.6607 25.901 24.8075 23.2499 24.5838 22.3958C24.2795 21.2449 25.5981 21.5596 24.9298 22.312C24.3571 22.959 23.9752 23.2183 22.9162 24.4485C21.893 25.6362 22.1705 27.1773 23.2652 27.5177C24.5003 27.9019 25.5891 26.541 26.2633 25.5425C26.9166 24.5757 26.2842 24.0086 25.625 24.5802C25.2013 24.9477 24.712 25.5121 24.2169 25.8164C23.8141 26.0613 23.4978 25.7982 24.0348 25.059C24.6583 24.2032 25.3564 23.486 25.8755 22.6772C26.9345 21.029 24.8403 20.0788 23.9394 21.1495C23.4561 21.7202 23.5785 22.2805 23.7097 22.7613C23.9215 23.5316 24.7091 25.9903 25.1715 27.1469" fill="#CC071E"/>
</svg>
