<svg width="56" height="38" viewBox="0 0 56 38" fill="none" xmlns="http://www.w3.org/2000/svg">
<path d="M49.4925 27.5691H7.30078V10.4312H49.4986V27.5691H49.4925Z" fill="#0058A3"/>
<path d="M8.12305 19C8.12305 23.1424 16.6195 26.5833 28.3996 26.5833C40.1796 26.5833 48.6699 23.1424 48.6699 19C48.6699 14.8576 40.1736 11.4167 28.3995 11.4167C16.6255 11.4167 8.12305 14.8576 8.12305 19V19Z" fill="#FFDB00"/>
<path d="M21.5664 15.7042C21.4756 15.8857 21.4756 16.0611 21.4756 16.2425V18.5102C21.4756 18.5102 22.6911 16.9318 22.9693 16.5569C23.1809 16.2788 23.441 15.8857 23.441 15.7042H27.408C27.1359 15.8857 26.8335 16.2122 26.5856 16.5146C26.3679 16.7807 25.1342 18.2864 25.1342 18.2864C25.1342 18.2864 26.9666 21.0742 27.2024 21.431C27.3354 21.6245 27.4806 21.8059 27.6499 21.9692H23.0842C23.0842 21.7878 22.9088 21.4189 22.7153 21.1286C22.5218 20.8384 21.4756 19.248 21.4756 19.248V21.431C21.4756 21.6125 21.4756 21.7878 21.5663 21.9692H17.7626C17.8533 21.7878 17.8533 21.6125 17.8533 21.431V16.2425C17.8533 16.0611 17.8533 15.8857 17.7626 15.7042H21.5664ZM35.6504 15.7042H28.3091C28.3997 15.8857 28.3997 16.0611 28.3997 16.2425V21.431C28.3997 21.6125 28.3997 21.7878 28.309 21.9692H35.6504V20.2337C35.469 20.3244 35.2936 20.3244 35.1122 20.3244H32.0221V19.5019H34.9913V18.1776H32.0221V17.3491H35.1122C35.2936 17.3491 35.469 17.3491 35.6504 17.4337V15.7042ZM45.8219 21.431C45.8824 21.6306 45.9852 21.812 46.1182 21.9692H42.1391C42.1573 21.7878 42.0907 21.6125 42.0182 21.431C42.0182 21.431 41.9577 21.2859 41.873 21.0742L41.8367 20.9835H39.5448L39.5085 21.0803C39.5085 21.0803 39.4421 21.2556 39.3815 21.4371C39.3211 21.6185 39.2546 21.7938 39.2788 21.9753H36.1402C36.2688 21.8159 36.3654 21.6331 36.4245 21.4371L38.3052 16.2485C38.3717 16.067 38.4382 15.8917 38.414 15.7102H43.7175C43.6691 15.8917 43.7658 16.067 43.8323 16.2485C43.9896 16.6415 45.6889 21.0802 45.8219 21.4309V21.431ZM41.3348 19.6591L40.7785 18.2078C40.7301 18.0747 40.6878 17.9356 40.6576 17.7966C40.6334 17.9366 40.597 18.0742 40.5487 18.2078C40.5305 18.2683 40.2947 18.9032 40.0226 19.6591H41.3348ZM15.8698 16.2424C15.8698 16.061 15.8698 15.8856 15.9605 15.7042H11.8242C11.9149 15.8856 11.9149 16.061 11.9149 16.2424V21.4309C11.9149 21.6124 11.9149 21.7878 11.8242 21.9692H15.9605C15.8698 21.7878 15.8698 21.6124 15.8698 21.4309V16.2424ZM44.552 16.2001C44.5399 16.6536 44.8967 17.0346 45.3563 17.0467C45.8098 17.0588 46.1908 16.702 46.2029 16.2424V16.2001C46.209 15.7526 45.8582 15.3837 45.4107 15.3777H45.3805C45.2758 15.3732 45.1713 15.3896 45.0731 15.4259C44.9748 15.4623 44.8848 15.5178 44.8083 15.5893C44.7317 15.6608 44.6701 15.7468 44.6272 15.8423C44.5842 15.9378 44.5607 16.041 44.558 16.1457C44.5459 16.1638 44.5459 16.182 44.552 16.2001V16.2001ZM46.0335 16.2001C46.0456 16.5629 45.7554 16.8713 45.3925 16.8774C45.0297 16.8895 44.7213 16.5992 44.7152 16.2364V16.194C44.7032 15.8433 44.9753 15.547 45.326 15.5349H45.3744C45.7312 15.5288 46.0275 15.8131 46.0335 16.1698V16.2001ZM45.7796 16.696H45.6163L45.4228 16.3452H45.2111V16.696H45.066V15.7042H45.4349C45.6102 15.7103 45.7433 15.8494 45.7433 16.0247C45.7433 16.1457 45.6768 16.2545 45.5679 16.315L45.7796 16.696ZM45.4107 16.2001C45.5075 16.2061 45.5921 16.1335 45.5921 16.0368C45.5921 15.9401 45.5256 15.8554 45.4288 15.8554H45.2111V16.2061H45.4107" fill="#0058A3"/>
</svg>
