<svg width="28" height="20" viewBox="0 0 28 20" fill="none" xmlns="http://www.w3.org/2000/svg">
<path fill-rule="evenodd" clip-rule="evenodd" d="M8.52191 4.38646C8.48231 4.40018 8.44794 4.42585 8.42355 4.45993C8.39916 4.49401 8.38595 4.53482 8.38574 4.57673C8.38555 4.61766 9.00285 12.4304 9.00847 12.458L9.01212 12.4759H11.032V4.37134L9.79812 4.37157C8.62032 4.37181 8.56226 4.37248 8.52195 4.38646H8.52191ZM16.9737 8.42359V12.4759H18.9918L18.9961 12.4422C19.0215 12.2425 19.6208 4.55253 19.6131 4.52506C19.5934 4.45482 19.5307 4.39491 19.4613 4.38002C19.4331 4.37397 19.052 4.37138 18.1974 4.37138H16.9737V8.42359Z" fill="#17181B"/>
<path fill-rule="evenodd" clip-rule="evenodd" d="M8.39559 3.91284C8.12413 3.95185 7.91064 4.19727 7.91064 4.47015C7.91064 4.58208 8.78948 15.6124 8.80244 15.6637C8.85945 15.8885 9.06189 16.0616 9.29941 16.0886C9.3497 16.0944 10.8265 16.0962 14.0544 16.0946L18.7365 16.0922L18.7957 16.0739C18.9983 16.0111 19.1507 15.8574 19.1993 15.6667C19.2255 15.5641 20.101 4.48406 20.0893 4.40352C20.0551 4.16914 19.8967 3.98992 19.6634 3.92164C19.6099 3.906 8.50359 3.89728 8.39559 3.91284ZM19.6356 4.07285C19.8077 4.1306 19.9251 4.27184 19.9413 4.44069C19.9477 4.50716 19.0697 15.5629 19.0531 15.6248C19.0144 15.769 18.903 15.881 18.7523 15.9272C18.6887 15.9467 9.34373 15.9503 9.26531 15.9309C9.12109 15.8951 8.99805 15.7816 8.95605 15.6457C8.94081 15.5964 8.06119 4.61288 8.06111 4.47133C8.06111 4.28178 8.20671 4.10872 8.4018 4.06665C8.4933 4.04688 19.5765 4.05301 19.6356 4.07285V4.07285ZM13.785 4.47145C13.5297 4.49844 13.1816 4.59387 12.9101 4.71125C12.7577 4.77714 12.7274 4.80051 12.7274 4.85206C12.7274 4.91884 12.6021 5.06636 12.5056 5.11331C12.4101 5.15967 12.3584 5.17232 12.1823 5.19235C12.1635 5.19447 12.1462 5.20115 12.1439 5.2072C12.1302 5.24311 12.2737 5.41188 12.3452 5.4439C12.4126 5.47404 12.3687 5.48896 12.1926 5.49576C12.0153 5.50252 11.9637 5.52715 11.9183 5.62686C11.8965 5.67471 11.8995 5.68771 11.9509 5.76593C12.0677 5.94378 12.0647 6.04592 11.9396 6.14544C11.7825 6.27045 11.7811 6.29182 11.899 6.77186C11.9445 6.95689 11.9869 7.12307 11.9934 7.14111C12.0056 7.17525 12.0001 7.19151 11.9763 7.19151C11.9531 7.19151 11.9048 7.22616 11.8893 7.25386C11.8238 7.3714 11.8427 7.55243 11.9619 7.94812C12.0463 8.22816 12.0564 8.26571 12.0821 8.39174C12.1464 8.70761 12.2236 8.81918 12.3761 8.81694C12.4372 8.816 12.4394 8.81875 12.4459 8.90671C12.4577 9.06566 12.4969 9.22009 12.5606 9.3583C12.5812 9.40293 12.5927 9.44269 12.5997 9.49294C12.6305 9.71667 12.7691 9.96602 12.9783 10.1742C13.0672 10.2626 13.1377 10.3199 13.3632 10.4868C13.4536 10.5537 13.5276 10.6109 13.5276 10.614C13.5276 10.6171 13.4465 10.6216 13.3473 10.6241C13.1717 10.6285 13.0958 10.6385 13.0742 10.6601C13.05 10.6843 13.0415 11.0773 13.0643 11.1213C13.091 11.1731 13.1758 11.1776 13.7118 11.1556C13.8496 11.15 13.8421 11.1391 13.7892 11.2672C13.748 11.3687 13.7074 11.4705 13.6675 11.5726C13.5646 11.8346 13.4676 12.0546 13.3675 12.2528C13.2698 12.4459 13.267 12.425 13.3946 12.4515C13.4196 12.4567 13.476 12.4785 13.52 12.5C13.6337 12.5557 13.6299 12.5568 13.6814 12.45C13.7727 12.2606 13.937 11.8453 13.9775 11.7013C13.9889 11.661 14.001 11.628 14.0045 11.628C14.0127 11.628 14.0118 12.3578 14.0033 12.5114C13.9943 12.6747 13.9985 12.6795 14.1233 12.6498C14.1722 12.6386 14.222 12.6324 14.2721 12.6312C14.3615 12.63 14.3614 12.6301 14.3748 12.5234C14.4112 12.2328 14.3457 11.5439 14.2522 11.2347C14.2266 11.1501 14.2268 11.1478 14.2624 11.1419C14.32 11.1324 14.5632 11.1367 14.7123 11.1498C14.8791 11.1645 14.9007 11.1625 14.9167 11.1308C14.9353 11.0939 14.941 10.7118 14.9235 10.6766C14.897 10.6235 14.779 10.5995 14.5911 10.6088C14.4778 10.6144 14.4767 10.6132 14.5519 10.5669C14.7999 10.4142 15.177 10.0778 15.2812 9.91636C15.4409 9.66878 15.5792 9.21687 15.5794 8.94211C15.5795 8.82279 15.5821 8.8189 15.6643 8.81395C15.8229 8.80452 15.8718 8.72312 16.0031 8.25039C16.1408 7.7544 16.176 7.59129 16.1769 7.44503C16.1778 7.29967 16.1637 7.2724 16.0527 7.20444C16.0263 7.18829 16.0239 7.20169 16.0917 6.98718C16.1632 6.7605 16.1813 6.68979 16.1869 6.61558L16.1917 6.5506L16.1524 6.51261C16.0826 6.44523 16.073 6.42421 16.0588 6.3082C15.9416 5.34671 15.2848 4.64364 14.3594 4.48874C14.2635 4.47271 13.882 4.46124 13.7851 4.47145H13.785ZM14.1387 4.65672C14.5147 4.69456 14.8709 4.83941 15.2143 5.0941C15.5542 5.34628 15.74 5.68245 15.8108 6.17349C15.8397 6.37389 15.8205 6.82792 15.7812 6.87314C15.7535 6.90496 15.7452 6.89066 15.6993 6.73163C15.612 6.42959 15.5425 6.25442 15.4478 6.09708C15.389 5.99937 15.3799 6.0189 15.3787 6.24687L15.3777 6.43663L15.4013 6.46951C15.5029 6.61078 15.5278 6.66398 15.5688 6.82662C15.6029 6.96161 15.6124 7.06968 15.591 7.0779C15.583 7.08092 15.5263 7.0757 15.465 7.06619C15.3304 7.04533 15.1485 7.04093 14.7833 7.04977C14.4423 7.05802 14.3803 7.07397 14.2168 7.19552C14.1261 7.26293 14.1171 7.26655 14.0668 7.25574C14.0088 7.2436 13.9488 7.24473 13.8913 7.25904C13.8334 7.27405 13.8163 7.26792 13.7375 7.20412C13.5637 7.06336 13.512 7.05326 12.9621 7.05307L12.5115 7.05287L12.5155 6.9895C12.5225 6.87895 12.5568 6.82764 12.6536 6.78293C12.7247 6.75013 12.719 6.76239 12.7623 6.54757C12.8477 6.12344 12.9751 5.89188 13.2081 5.73721C13.3802 5.62293 13.7017 5.63299 13.9534 5.76055C14.0108 5.78962 14.0146 5.78856 14.0921 5.72154C14.1847 5.64159 14.1847 5.64175 14.0802 5.53956C13.7163 5.18395 13.2998 5.1062 12.8015 5.30082C12.7411 5.32435 12.6907 5.34078 12.6893 5.33724C12.6665 5.27804 12.9833 5.05807 13.1969 4.98473C13.3403 4.9355 13.3283 4.88651 13.1728 4.88623C13.1128 4.88612 13.1023 4.87311 13.1348 4.83917C13.2408 4.72862 13.8154 4.62416 14.1387 4.65672V4.65672ZM13.2094 5.49281C13.2459 5.50806 13.2397 5.51631 13.1685 5.54726C12.9489 5.64277 12.8203 5.7653 12.6939 5.99961C12.6599 6.06254 12.6418 6.08604 12.5969 6.12524C12.4842 6.22373 12.4709 6.24342 12.4278 6.3755C12.3684 6.5579 12.3378 6.72699 12.3243 6.949C12.3165 7.0766 12.3095 7.09341 12.2525 7.12225C12.1978 7.14995 12.204 7.15977 12.1537 6.96534C12.013 6.4213 12.0129 6.42189 12.212 6.13507C12.2611 6.06431 12.2525 5.97018 12.1834 5.8225C12.1421 5.73439 12.1373 5.73871 12.2996 5.71808C12.4505 5.69891 12.6437 5.64077 12.7882 5.57095C12.9581 5.48892 13.1257 5.45781 13.2094 5.49277V5.49281ZM12.5703 7.1571C12.6138 7.19646 12.5656 7.24836 12.5053 7.22703C12.4869 7.22062 12.4618 7.21532 12.4494 7.21532C12.4172 7.21532 12.4042 7.18896 12.4281 7.17218C12.4378 7.16543 12.4565 7.15977 12.4697 7.15973C12.4829 7.15965 12.4991 7.15615 12.5056 7.15191C12.5238 7.14012 12.5543 7.14256 12.5703 7.1571V7.1571ZM15.5216 7.15918C15.5788 7.16939 15.5975 7.21532 15.5445 7.21532C15.5343 7.21532 15.5108 7.22062 15.4923 7.22718C15.4484 7.24266 15.44 7.24219 15.421 7.22325C15.3863 7.18849 15.4125 7.13859 15.4605 7.1479C15.4758 7.15089 15.5033 7.15596 15.5216 7.15918V7.15918ZM12.924 7.26081C12.926 7.27472 12.9186 7.2834 12.8901 7.30041C12.8701 7.31239 12.8142 7.34807 12.7658 7.37965C12.6726 7.4407 12.6503 7.44707 12.6236 7.42047C12.5952 7.39203 12.6248 7.31817 12.6815 7.27613C12.7321 7.23865 12.9192 7.22683 12.924 7.26081H12.924ZM15.187 7.24773C15.2819 7.27162 15.3007 7.4213 15.2087 7.4213C15.1509 7.4213 14.9669 7.28568 14.9797 7.25244C14.9858 7.2363 15.1287 7.23308 15.187 7.24773ZM13.3483 7.27818C13.3888 7.29782 13.4298 7.34873 13.4218 7.36952C13.4179 7.37961 13.4041 7.38079 13.3357 7.37698C13.2377 7.37148 13.177 7.38504 13.056 7.43933C12.9611 7.48188 12.9102 7.49433 12.8844 7.4814C12.842 7.46031 12.8599 7.43811 12.9691 7.37604C13.0018 7.35742 13.0345 7.33872 13.0672 7.31994C13.1751 7.25763 13.2751 7.24274 13.3483 7.27818ZM14.8648 7.30159C14.8828 7.31078 14.9254 7.34347 14.9593 7.37419C14.9932 7.40488 15.0449 7.44609 15.0742 7.46573C15.1362 7.50729 15.1396 7.5113 15.1239 7.52427C15.0953 7.54803 15.0059 7.51456 14.9188 7.44754C14.8366 7.38429 14.7804 7.37242 14.6606 7.39309C14.5435 7.41328 14.533 7.37533 14.6406 7.32017C14.729 7.27484 14.8007 7.26891 14.8648 7.30159V7.30159ZM15.6439 7.32029C15.6626 7.35498 15.6653 7.40338 15.6577 7.57117C15.6479 7.78854 15.6584 7.80218 15.7583 7.70235C15.8004 7.66024 15.8061 7.64008 15.7958 7.56827C15.7792 7.45225 15.8322 7.35392 15.9015 7.37227C16.0157 7.40244 16.0167 7.49472 15.9067 7.88868C15.8821 7.97712 15.8588 8.0659 15.8367 8.15501C15.7515 8.50898 15.6923 8.6031 15.5832 8.55753C15.5354 8.53754 15.5227 8.54586 15.4704 8.63139C15.4113 8.72804 15.4076 8.74084 15.4021 8.86711C15.3754 9.47793 15.0761 9.98386 14.6406 10.1541C14.5275 10.1984 14.498 10.1978 14.4474 10.1505C14.4128 10.1182 14.3847 10.1053 14.3822 10.1208C14.3817 10.1241 14.3807 10.1661 14.3799 10.2143C14.3782 10.3179 14.3711 10.3355 14.2883 10.4397C14.2118 10.5359 14.192 10.5799 14.1734 10.6951C14.1504 10.8379 13.8116 10.5012 13.717 10.2416C13.6898 10.1669 13.6915 10.0585 13.7215 9.96037C13.7775 9.77749 13.7887 9.68913 13.771 9.57092C13.7661 9.53792 13.7674 9.52759 13.7778 9.5171C13.8001 9.49486 13.819 9.51278 13.8786 9.61264C13.917 9.67699 13.9412 9.61736 13.9278 9.49156C13.9207 9.42592 13.8924 9.3935 13.8251 9.3739C13.6849 9.33316 13.7823 9.25219 13.9633 9.25903C14.2654 9.27038 14.3308 9.26453 14.5004 9.21086C14.621 9.17272 14.6308 9.17268 14.6895 9.21063C14.749 9.24913 14.7533 9.2604 14.7584 9.39394C14.767 9.62337 14.8496 9.61099 14.8982 9.37296C14.9219 9.25706 14.9362 9.22064 14.9735 9.18046C15.0664 9.08012 15.1067 8.93413 15.0928 8.74846C15.0843 8.63532 15.0652 8.60534 14.9744 8.56225C14.917 8.53498 14.8449 8.46273 14.7749 8.36228C14.6645 8.20376 14.6133 8.15548 14.5113 8.11352C14.4177 8.07502 14.3898 8.09242 14.4113 8.17559C14.4412 8.29094 14.4281 8.31671 14.3094 8.37458C14.1302 8.46195 13.98 8.45637 13.8365 8.35713C13.6947 8.25904 13.6762 8.13591 13.7727 7.93225C13.8162 7.84036 13.8231 7.8153 13.8405 7.68667C13.8718 7.4539 13.895 7.40539 13.975 7.40539C14.0431 7.40539 14.0729 7.43324 14.0941 7.51637C14.135 7.67721 14.2006 7.7416 14.2714 7.69041C14.3202 7.65501 14.3247 7.63945 14.3011 7.58842C14.2689 7.51896 14.286 7.50808 14.3642 7.54815C14.4667 7.60064 14.6494 7.6217 14.7785 7.59581C14.9189 7.56772 14.9765 7.57919 15.0084 7.64177C15.0297 7.68365 15.0378 7.6886 15.1005 7.69842C15.1996 7.71394 15.2082 7.72282 15.1867 7.78737C15.1604 7.86665 15.0784 7.92345 14.95 7.95158C14.8677 7.96954 14.8665 7.97036 14.8665 8.00623C14.8665 8.07419 14.9268 8.08928 15.0611 8.05494C15.2453 8.0078 15.3242 7.88959 15.3889 7.56387C15.4299 7.35714 15.4317 7.35408 15.524 7.32324C15.601 7.29754 15.6313 7.2968 15.6439 7.32029V7.32029ZM12.2179 7.39717C12.2686 7.42805 12.2886 7.49539 12.2656 7.55793C12.239 7.63046 12.2407 7.65065 12.2994 7.97185C12.347 8.23138 12.3357 8.29824 12.2564 8.22863C12.2214 8.19799 12.2081 8.17335 12.1934 8.11289C12.1872 8.08763 12.1549 7.96891 12.1215 7.84908C12.0534 7.60413 12.0438 7.53959 12.0649 7.46714C12.0878 7.38849 12.1541 7.35816 12.2179 7.39717ZM13.2671 7.57966C13.372 7.59801 13.4114 7.59907 13.5014 7.58606C13.587 7.57369 13.5975 7.58155 13.5565 7.62692C13.522 7.66515 13.5221 7.66452 13.5483 7.71461C13.608 7.82893 13.4724 7.93646 13.2434 7.95641C13.1723 7.96262 13.1631 7.9693 13.1631 8.01491C13.1631 8.06123 13.1847 8.07188 13.2765 8.07085C13.3806 8.06968 13.377 8.06936 13.377 8.08009C13.377 8.08519 13.3665 8.1057 13.3537 8.12574C13.3408 8.14577 13.3248 8.18341 13.318 8.20934C13.3024 8.26945 13.2986 8.27283 13.2079 8.3085C13.1664 8.32484 13.1099 8.35423 13.0824 8.37379C12.8513 8.53828 12.7398 8.4889 12.6363 8.1761C12.5643 7.95861 12.5804 7.9244 12.7227 7.99264C12.818 8.0384 12.8559 8.04182 12.8774 8.0065C12.9111 7.95135 12.9024 7.93225 12.8278 7.89678C12.6969 7.83463 12.6107 7.69701 12.6757 7.65434C12.6974 7.64024 12.7136 7.64546 12.754 7.67964C12.8288 7.74297 12.8591 7.74411 12.9125 7.68573C13.0162 7.57235 13.0934 7.54925 13.2671 7.57966V7.57966ZM13.5838 8.08582C13.6002 8.09906 13.6012 8.10311 13.5927 8.12177C13.5755 8.15948 13.5725 8.22238 13.5861 8.26104C13.6191 8.35482 13.576 8.39508 13.5087 8.33341C13.4056 8.2388 13.478 8.0001 13.5838 8.08582ZM14.4864 8.48485C14.5009 8.49467 14.5418 8.53832 14.5772 8.58189C14.6446 8.66467 14.7308 8.73778 14.7793 8.7531C15.0018 8.82362 14.5992 8.92557 14.299 8.87473C14.256 8.86742 14.1762 8.84727 14.1217 8.8299C14.0062 8.79305 13.9665 8.79262 13.8799 8.82727C13.6851 8.90522 13.3412 8.91351 13.2033 8.84362C13.1197 8.80119 13.1215 8.77832 13.2111 8.74053C13.2436 8.72686 13.3174 8.68447 13.3751 8.64632C13.55 8.53086 13.6302 8.51184 13.7098 8.56696C13.8899 8.6917 14.0983 8.70321 14.2047 8.5943C14.2314 8.56704 14.2583 8.54873 14.2879 8.53769C14.3153 8.52719 14.3418 8.51465 14.3673 8.50017C14.4304 8.46254 14.4498 8.4601 14.4864 8.48485V8.48485ZM12.917 8.74768C12.9327 8.76434 12.936 8.7795 12.942 8.86059C12.9669 9.19542 13.0774 9.55635 13.155 9.55635C13.1709 9.55635 13.1783 9.54625 13.2032 9.48995C13.2595 9.36321 13.2837 9.35394 13.3088 9.44941C13.3363 9.55407 13.3939 9.7417 13.4168 9.8011C13.4528 9.89448 13.4394 9.91695 13.3477 9.9166C13.0175 9.91542 12.5418 9.1546 12.6869 8.8598C12.74 8.75196 12.8642 8.69146 12.917 8.74768V8.74768ZM14.2951 9.00543C14.4118 9.01671 14.4068 9.03737 14.2798 9.06806C14.1585 9.0974 13.8763 9.11799 13.8166 9.10184C13.7545 9.08507 13.6843 9.02543 13.7117 9.01274C13.7538 8.99326 14.1216 8.98866 14.2951 9.00543ZM16.7757 13.0785C15.8916 13.1402 15.3538 13.6301 15.3545 14.3731C15.3551 15.1174 16.1061 15.4985 17.1572 15.288C17.3764 15.2441 17.3627 15.2572 17.4012 15.0539C17.4414 14.8422 17.4394 14.8398 17.2655 14.8838C16.4901 15.0798 15.9877 14.7026 16.1534 14.0491C16.2408 13.7046 16.4795 13.4757 16.7948 13.4339C17.0467 13.4005 17.2128 13.5068 17.2254 13.7093C17.2309 13.7981 17.232 13.7987 17.3665 13.7987C17.5012 13.7987 17.4846 13.8247 17.5562 13.5031C17.6362 13.1435 17.6402 13.165 17.4863 13.1298C17.2537 13.0766 17.0322 13.0606 16.7757 13.0785V13.0785ZM10.8627 13.1273C10.85 13.1476 10.8181 13.2816 10.8181 13.3151C10.8181 13.3408 10.8287 13.3511 10.8842 13.3788C10.9417 13.4075 10.971 13.4517 10.975 13.5157C10.978 13.5635 10.7529 14.6326 10.7066 14.7904C10.6649 14.9324 10.5958 15.0227 10.5101 15.0471C10.4283 15.0704 10.4279 15.0708 10.4081 15.1497C10.363 15.3288 10.3049 15.3119 10.9644 15.3119C11.6004 15.3119 11.5333 15.3236 11.5595 15.2084C11.5894 15.077 11.5859 15.059 11.5256 15.0351C11.4904 15.0212 11.4472 14.9773 11.4363 14.9443C11.4284 14.9203 11.5174 14.4634 11.552 14.3505C11.5583 14.33 11.5581 14.3297 11.6662 14.5237C11.9735 15.0751 12.119 15.2303 12.3872 15.2926C12.4681 15.3114 13.079 15.3195 13.1025 15.3021C13.1171 15.2912 13.1545 15.1566 13.155 15.1131C13.1554 15.0803 13.1296 15.0639 13.0671 15.0572C12.938 15.0435 12.9203 15.025 12.5387 14.5085C12.2471 14.1138 12.2356 14.0969 12.2495 14.0838C12.3314 14.0063 13.0314 13.437 13.0666 13.4192C13.1233 13.3906 13.2018 13.3662 13.2608 13.3589C13.325 13.3508 13.3348 13.3399 13.3532 13.256C13.3886 13.0943 13.4394 13.1095 12.8621 13.1095C12.3392 13.1095 12.3614 13.1077 12.351 13.1516C12.3117 13.3169 12.3131 13.3354 12.3668 13.3655C12.4505 13.4124 12.4508 13.412 12.0601 13.7369C11.6242 14.0994 11.6105 14.1106 11.6074 14.1069C11.6024 14.101 11.7369 13.5017 11.7498 13.4727C11.7678 13.432 11.8128 13.3909 11.8642 13.3682C11.921 13.3431 11.9223 13.3412 11.9421 13.2499C11.976 13.0938 12.0362 13.1095 11.4019 13.1095H10.8739L10.8627 13.1273ZM13.5405 13.1273C13.5277 13.1476 13.4959 13.2816 13.4959 13.3151C13.4959 13.341 13.5018 13.3467 13.5595 13.3769C13.5862 13.3908 13.6114 13.4119 13.626 13.4326C13.6711 13.4968 13.6758 13.4675 13.4689 14.4049C13.2641 15.3337 13.2755 15.2738 13.2978 15.2961C13.321 15.3192 14.1806 15.3211 14.2075 15.298C14.2261 15.282 14.2688 15.1009 14.2603 15.074C14.2575 15.0653 14.2417 15.0512 14.2252 15.0428C14.0923 14.9749 14.0902 14.9352 14.1971 14.482L14.2013 14.4642H14.568C14.849 14.4642 14.9378 14.4619 14.9481 14.4543C14.9611 14.4446 15.0328 14.1493 15.0328 14.1053C15.0328 14.0598 15.0361 14.0602 14.6499 14.0602C14.3181 14.0602 14.296 14.0593 14.2962 14.0463C14.2963 14.0387 14.3242 13.9059 14.3581 13.7512L14.4199 13.4699L14.6729 13.4678C15.054 13.4647 15.096 13.4847 15.0961 13.6694C15.0962 13.7548 15.1067 13.7611 15.2443 13.7577C15.3295 13.7557 15.3517 13.7527 15.3624 13.7419C15.375 13.7293 15.5002 13.1939 15.5002 13.1527C15.5002 13.1068 15.5603 13.1095 14.5115 13.1095H13.5517L13.5405 13.1273ZM19.4614 15.304C19.4614 15.3275 19.4618 15.3278 19.505 15.3278H19.5486V15.6208H19.604V15.3278H19.6476C19.6907 15.3278 19.6911 15.3275 19.6911 15.304V15.2802H19.4614V15.304ZM19.7704 15.4505V15.6208H19.8179L19.8181 15.5L19.8184 15.3792L19.851 15.4486C19.8924 15.5366 19.8998 15.537 19.9424 15.4525L19.9754 15.3872L19.9758 15.504L19.9763 15.6208H20.0238V15.2802H19.9996C19.9765 15.2802 19.9734 15.2844 19.9373 15.3614L19.8993 15.4426L19.8585 15.3614C19.8205 15.2856 19.8162 15.2802 19.7941 15.2802H19.7704V15.4505Z" fill="#050505"/>
<path fill-rule="evenodd" clip-rule="evenodd" d="M8.41767 4.06777C8.21357 4.10203 8.0699 4.27175 8.06927 4.4793C8.06908 4.55433 8.93522 15.5026 8.94795 15.5853C8.97372 15.7531 9.11562 15.8981 9.28463 15.9292C9.36603 15.9441 18.6573 15.9409 18.7286 15.9259C18.8775 15.8945 18.9985 15.7863 19.0418 15.6456C19.0572 15.5958 19.9367 4.61232 19.9367 4.46995C19.9367 4.30121 19.8252 4.14929 19.6531 4.08349L19.6079 4.06624L14.0227 4.0653C10.9508 4.06483 8.42859 4.06589 8.41767 4.06773V4.06777ZM11.032 8.42351V12.4758H10.018C9.4602 12.4758 9.00393 12.4731 9.00397 12.4699C9.00405 12.4666 8.86294 10.6859 8.69047 8.51265C8.38875 4.71038 8.37736 4.55987 8.38906 4.5196C8.4047 4.46574 8.44925 4.41388 8.50036 4.39008L8.54043 4.37145L9.7862 4.37138L11.032 4.3713L11.032 8.42351ZM19.5214 4.39919C19.5674 4.42752 19.6074 4.48326 19.6183 4.53398C19.6244 4.56262 19.5609 5.38987 19.3141 8.49718C19.1426 10.6571 19.0022 12.4359 19.002 12.45L19.0019 12.4758H16.9658V4.37102L18.2241 4.3731L19.4824 4.37523L19.5214 4.39919ZM14.3475 4.48153C14.5576 4.5156 14.785 4.58694 14.948 4.66979C15.5769 4.98962 15.9749 5.57636 16.0662 6.31844C16.0796 6.42715 16.0957 6.46113 16.1572 6.50976C16.2174 6.55754 16.2081 6.63579 16.1026 6.96812C16.0294 7.19841 16.0311 7.18812 16.0641 7.2058C16.2402 7.30016 16.2302 7.46132 15.9964 8.29277C15.8753 8.72378 15.8207 8.80962 15.6604 8.82144C15.5857 8.82694 15.5876 8.82412 15.5875 8.9283C15.5871 9.22377 15.4259 9.73092 15.2615 9.95411C15.153 10.1014 14.8398 10.3821 14.6248 10.5249C14.5682 10.5625 14.5189 10.5957 14.5154 10.5986C14.5119 10.6015 14.5671 10.6039 14.6382 10.6038C14.942 10.6036 14.9464 10.6083 14.9385 10.923C14.9318 11.1897 14.9432 11.1769 14.7302 11.1578C14.5152 11.1387 14.4232 11.1348 14.3254 11.1409L14.2347 11.1466L14.2411 11.1715C14.3522 11.6014 14.4059 12.063 14.3873 12.4258C14.377 12.6269 14.3717 12.636 14.2627 12.638C14.2088 12.639 14.1579 12.6454 14.1122 12.6571C14.0472 12.6737 14.0419 12.6739 14.0182 12.6617L13.9931 12.6487L13.9979 12.4969C14.0083 12.1728 14.0126 11.8083 14.007 11.7265L14.0012 11.6407L13.9748 11.7275C13.9139 11.928 13.6957 12.4601 13.6493 12.5213C13.6234 12.5554 13.6152 12.5544 13.5103 12.5035C13.4571 12.4775 13.4013 12.4566 13.3731 12.4517C13.2982 12.439 13.2919 12.437 13.2871 12.4244C13.2845 12.4177 13.3292 12.3172 13.3884 12.1966C13.5059 11.9569 13.5831 11.7789 13.7004 11.4776C13.7436 11.3664 13.7884 11.2534 13.7999 11.2263C13.8263 11.1638 13.8268 11.1495 13.8023 11.1556C13.7922 11.1582 13.6372 11.1641 13.4579 11.1688C13.0126 11.1806 13.0407 11.1998 13.0455 10.8874C13.0496 10.6188 13.0365 10.6311 13.3279 10.6218C13.4294 10.6186 13.5141 10.6143 13.5161 10.6123C13.5182 10.6103 13.4458 10.5538 13.3553 10.4869C12.8522 10.1148 12.6431 9.84135 12.5931 9.4901C12.5869 9.44684 12.5732 9.39997 12.5535 9.35523C12.4901 9.21113 12.4566 9.08329 12.4426 8.93141C12.432 8.81681 12.4361 8.82357 12.3758 8.82357C12.2191 8.82357 12.1431 8.71419 12.0771 8.39393C12.0498 8.26107 12.0278 8.17955 11.9585 7.9542C11.8484 7.59567 11.8226 7.40742 11.8672 7.28677C11.8876 7.23149 11.941 7.18364 11.9823 7.18364C12.0025 7.18364 12.0029 7.18993 11.9757 7.09823C11.9632 7.05592 11.9361 6.94997 11.9156 6.86279C11.8937 6.77013 11.8708 6.6777 11.8471 6.58551C11.7775 6.32052 11.7907 6.26309 11.9524 6.1281C11.9821 6.10323 12.0045 6.07577 12.0187 6.04686L12.0401 6.00317L12.0268 5.94974C12.0095 5.88009 11.9833 5.82336 11.9337 5.74773C11.8865 5.67564 11.8878 5.65054 11.942 5.57876C11.9952 5.50844 12.0402 5.49241 12.1881 5.49139C12.2749 5.49076 12.3206 5.4871 12.3424 5.47897L12.3733 5.46742L12.3345 5.44472C12.2801 5.41289 12.1812 5.31036 12.153 5.25657C12.1218 5.1969 12.1273 5.1921 12.2403 5.18036C12.4929 5.15415 12.6724 5.03284 12.7205 4.85585C12.7397 4.78494 12.7579 4.7708 12.9175 4.70252C13.4078 4.49289 13.9251 4.41294 14.3475 4.48153V4.48153ZM13.8643 4.66135C13.4659 4.70232 13.2196 4.76345 13.1364 4.84206C13.1051 4.87157 13.1167 4.87986 13.1929 4.88229C13.337 4.88685 13.3402 4.94209 13.1989 4.98915C13.0294 5.04561 12.7798 5.20369 12.7136 5.29649C12.6794 5.3443 12.6758 5.34454 12.8152 5.29075C13.2767 5.11279 13.6792 5.17553 14.0227 5.47893C14.1896 5.62637 14.1938 5.64044 14.0961 5.72408C14.0138 5.79452 14.0102 5.79503 13.917 5.75079C13.7209 5.65753 13.4269 5.63517 13.2828 5.70255C13.0151 5.8276 12.8589 6.08579 12.7659 6.55703C12.7249 6.76469 12.731 6.75161 12.6618 6.78351C12.5573 6.83183 12.5154 6.90243 12.5136 7.03314C12.5135 7.04359 12.5669 7.04504 12.9472 7.04504C13.5126 7.04504 13.5567 7.054 13.7511 7.2089C13.8187 7.2628 13.8412 7.26889 13.9041 7.25062C13.9499 7.23727 13.9806 7.2375 14.09 7.2518C14.1247 7.25636 14.1279 7.25487 14.2089 7.19523C14.4014 7.05341 14.465 7.04123 15.018 7.04111C15.3198 7.04107 15.3653 7.04276 15.4458 7.05683C15.4953 7.06547 15.5493 7.07262 15.5656 7.0727L15.5953 7.07274V7.02559C15.5953 6.87336 15.5135 6.62582 15.4251 6.51028C15.3692 6.43728 15.3711 6.44675 15.3727 6.24195C15.3744 6.04387 15.3745 6.04285 15.397 6.04285C15.4576 6.04285 15.5909 6.33993 15.7023 6.72321C15.7698 6.95515 15.798 6.93602 15.818 6.64495C15.8488 6.19826 15.7512 5.75394 15.5579 5.46055C15.235 4.97057 14.4518 4.60096 13.8643 4.66135V4.66135ZM13.0483 5.49202C12.9549 5.50683 12.9014 5.52435 12.7887 5.57672C12.6088 5.66028 12.3411 5.73386 12.2169 5.73386C12.1559 5.73386 12.1527 5.7438 12.1884 5.82104C12.2733 6.00498 12.2721 6.06383 12.1812 6.18931C12.0491 6.37179 12.0362 6.43426 12.0851 6.65681C12.1287 6.8556 12.2007 7.1361 12.2082 7.1361C12.2763 7.1361 12.3092 7.08252 12.317 6.959C12.3307 6.74034 12.37 6.52878 12.4296 6.35337C12.4659 6.24635 12.4759 6.23158 12.5713 6.14318C12.6433 6.07648 12.657 6.05927 12.6957 5.98643C12.8084 5.77492 12.9609 5.6292 13.1548 5.54788C13.2316 5.51567 13.2377 5.50706 13.1943 5.49143C13.1603 5.47909 13.1286 5.47925 13.0483 5.49202H13.0483ZM12.5067 7.15626C12.492 7.16262 12.4706 7.16789 12.4591 7.16793C12.4109 7.1682 12.4049 7.20207 12.4516 7.21094C12.466 7.21369 12.4926 7.21975 12.5106 7.22434C12.5535 7.23534 12.5769 7.22391 12.5769 7.19189C12.5769 7.14907 12.5521 7.1365 12.5067 7.15626V7.15626ZM15.4226 7.16148C15.3952 7.18887 15.4207 7.23632 15.4585 7.22851C15.4706 7.22603 15.4966 7.22092 15.5163 7.21723C15.5749 7.20623 15.5939 7.18038 15.5497 7.17182C15.5377 7.16946 15.5128 7.16408 15.4942 7.15979C15.4499 7.14958 15.4341 7.14997 15.4226 7.16148ZM12.8066 7.24791C12.6987 7.26013 12.6322 7.30437 12.6194 7.37245C12.6051 7.44894 12.654 7.44768 12.7742 7.36836C12.8257 7.3343 12.8792 7.3004 12.8928 7.29294C12.9314 7.27196 12.9224 7.2368 12.8793 7.24017C12.872 7.24072 12.8393 7.24422 12.8066 7.24791V7.24791ZM14.9888 7.24917C14.9765 7.28131 15.1208 7.39948 15.1934 7.41653C15.2728 7.43527 15.2884 7.29631 15.2108 7.26194C15.1617 7.24025 14.9959 7.23071 14.9888 7.24917ZM13.179 7.27812C13.0952 7.30578 12.8934 7.41775 12.8751 7.44666C12.8443 7.49549 12.923 7.49271 13.0382 7.44089C13.1797 7.37724 13.2815 7.35603 13.3652 7.37269C13.4166 7.38298 13.4254 7.37465 13.4047 7.33588C13.3706 7.27223 13.2727 7.24717 13.179 7.27812ZM14.6921 7.3028C14.5779 7.34361 14.533 7.40918 14.6317 7.39099C14.7635 7.36671 14.8421 7.38133 14.9228 7.44509C15.002 7.50767 15.0904 7.54119 15.1177 7.51895C15.1271 7.51137 15.1287 7.50618 15.1226 7.50363C15.0981 7.49322 15.0371 7.44717 14.9655 7.38483C14.8486 7.28323 14.7933 7.26665 14.6921 7.3028ZM15.5566 7.31957C15.4408 7.34982 15.4354 7.35776 15.397 7.55207C15.3205 7.93935 15.1989 8.0789 14.9377 8.0789C14.8234 8.0789 14.8267 7.97102 14.9417 7.94799C15.061 7.92415 15.1401 7.87543 15.1725 7.8059C15.2071 7.73153 15.199 7.71896 15.1074 7.70564C15.0363 7.6953 15.0297 7.69161 15.0081 7.6493C14.9774 7.58896 14.9042 7.57214 14.7912 7.59941C14.6754 7.62738 14.465 7.60373 14.3611 7.55109C14.2867 7.51337 14.2751 7.52044 14.3066 7.58456C14.3358 7.64419 14.3024 7.70061 14.2266 7.71966C14.185 7.73007 14.1234 7.64011 14.0901 7.52036C14.0659 7.43342 14.0433 7.41209 13.975 7.41209C13.895 7.41209 13.886 7.43342 13.8369 7.74221C13.8225 7.83249 13.8152 7.85638 13.7776 7.93629C13.6927 8.11634 13.6966 8.21726 13.7923 8.31296C13.916 8.43664 14.1047 8.4639 14.2793 8.38329C14.42 8.31819 14.4338 8.29937 14.4115 8.20288C14.3856 8.09123 14.4005 8.07206 14.4901 8.10145C14.5935 8.13543 14.6685 8.20108 14.7691 8.34565C14.8498 8.46174 14.914 8.52527 14.992 8.56616C15.0845 8.61456 15.0916 8.62988 15.0948 8.78734C15.0987 8.9833 15.0716 9.07924 14.9857 9.17243C14.943 9.21875 14.9237 9.26483 14.9062 9.3623C14.884 9.48605 14.8436 9.56038 14.7985 9.56038C14.7665 9.56038 14.7481 9.47552 14.7477 9.32643C14.7474 9.20323 14.6626 9.16536 14.5007 9.21623C14.3236 9.27186 14.2248 9.28298 14.0542 9.26648C13.9043 9.25202 13.886 9.25324 13.8251 9.28168C13.753 9.31547 13.7484 9.3522 13.8146 9.36544C13.895 9.38151 13.9279 9.42496 13.9362 9.52585C13.9468 9.65372 13.9093 9.6813 13.8561 9.5847C13.7972 9.47764 13.766 9.4868 13.7813 9.60662C13.7936 9.70311 13.7865 9.75646 13.7402 9.91502C13.6859 10.1011 13.689 10.1739 13.7571 10.3169C13.8339 10.478 13.9902 10.654 14.1159 10.7207C14.154 10.741 14.1599 10.7346 14.1744 10.6576C14.1902 10.5742 14.2132 10.5264 14.2754 10.4485C14.3649 10.3362 14.3695 10.3254 14.3747 10.2156C14.3804 10.0942 14.3884 10.0856 14.4444 10.1402C14.4947 10.1894 14.5199 10.1936 14.5972 10.1661C15.0401 10.0077 15.3346 9.55696 15.3895 8.95345C15.4127 8.69868 15.4055 8.73014 15.4608 8.63837C15.5216 8.53733 15.5326 8.5299 15.5863 8.553C15.6896 8.59747 15.7466 8.50574 15.8291 8.1621C15.8499 8.0776 15.8721 7.99345 15.8958 7.90969C16.0133 7.4955 16.0092 7.37383 15.8777 7.37383C15.8268 7.37383 15.7878 7.47448 15.8019 7.56951L15.8117 7.63488L15.7887 7.67197C15.7646 7.7107 15.6992 7.76201 15.6739 7.76201C15.647 7.76201 15.6446 7.73931 15.6526 7.55996C15.6639 7.30779 15.658 7.29309 15.5566 7.31957V7.31957ZM12.0996 7.40965C12.052 7.45719 12.0497 7.5613 12.0927 7.72237C12.218 8.19216 12.2214 8.20163 12.274 8.23773C12.3353 8.27969 12.3376 8.19907 12.2834 7.91252C12.2443 7.70599 12.2366 7.61288 12.2551 7.56892C12.3046 7.45079 12.183 7.32621 12.0996 7.40965V7.40965ZM13.0703 7.58334C13.0162 7.60027 12.9694 7.63186 12.9235 7.68265C12.8621 7.75054 12.8394 7.74983 12.7432 7.67684C12.7032 7.64655 12.6853 7.64463 12.6684 7.66871C12.6302 7.72324 12.7108 7.83497 12.8278 7.88954C12.9087 7.92733 12.9218 7.96182 12.8768 8.0191C12.8519 8.05077 12.8138 8.04381 12.6973 7.98634C12.5955 7.93605 12.5803 7.96406 12.6243 8.12054C12.7233 8.47341 12.838 8.53615 13.0807 8.3704C13.1159 8.34632 13.1748 8.31508 13.2114 8.30098C13.2956 8.26861 13.2946 8.26955 13.3136 8.20599C13.3223 8.17668 13.3399 8.13708 13.3527 8.1181C13.3832 8.07257 13.3825 8.0721 13.288 8.07622C13.1782 8.08106 13.1671 8.07512 13.1671 8.01152C13.1671 7.95605 13.1637 7.95801 13.2834 7.94489C13.4798 7.92336 13.6025 7.81682 13.5444 7.71833C13.5213 7.6792 13.5233 7.65657 13.5525 7.62321C13.587 7.58393 13.5765 7.57976 13.4781 7.59383C13.3966 7.60542 13.3884 7.60522 13.2879 7.58876C13.1698 7.56943 13.1189 7.56817 13.0703 7.58334H13.0703ZM13.4962 8.10113C13.4357 8.16163 13.4523 8.29037 13.5273 8.34255C13.5774 8.37731 13.6077 8.35107 13.5883 8.28971C13.5728 8.24072 13.5712 8.16902 13.5844 8.1247C13.5998 8.07363 13.5397 8.05756 13.4962 8.10113V8.10113ZM14.4149 8.48083C14.4083 8.48335 14.3905 8.49325 14.3752 8.50283C14.36 8.51242 14.3245 8.52864 14.2963 8.5389C14.2569 8.55328 14.2347 8.56817 14.1997 8.60364C14.0977 8.70724 13.9041 8.6995 13.7278 8.58474C13.6214 8.51552 13.5653 8.52629 13.3752 8.65232C13.3252 8.68547 13.2535 8.72684 13.2158 8.74425C13.1394 8.7796 13.1342 8.78903 13.1745 8.81979C13.2884 8.90662 13.6566 8.90795 13.8779 8.82231C13.967 8.78785 14.0118 8.78852 14.1271 8.82612C14.3715 8.90579 14.7236 8.90084 14.828 8.81634C14.8479 8.80015 14.833 8.76813 14.8054 8.76813C14.762 8.76813 14.6516 8.6821 14.5805 8.59288C14.4934 8.4837 14.4622 8.46257 14.4149 8.48083V8.48083ZM12.8159 8.74362C12.6833 8.78943 12.6339 8.9364 12.6876 9.12509C12.8127 9.56431 13.1056 9.91191 13.3489 9.90979C13.4465 9.90893 13.4478 9.9037 13.3899 9.73772C13.3746 9.69364 13.3454 9.59919 13.3251 9.52777C13.3048 9.45639 13.2852 9.39483 13.2817 9.39102C13.2701 9.3786 13.2369 9.42445 13.2098 9.4899C13.1709 9.58415 13.1463 9.58859 13.0965 9.51033C13.0219 9.39286 12.9334 9.02031 12.9334 8.82353C12.9334 8.73934 12.898 8.71525 12.8159 8.74362V8.74362ZM13.7985 9.00723C13.701 9.01709 13.6929 9.03112 13.7608 9.07284L13.8 9.09692L13.947 9.09566C14.1613 9.09378 14.4017 9.05343 14.3725 9.02416C14.3548 9.00648 13.9305 8.99391 13.7985 9.00727V9.00723ZM17.2115 13.0788C17.397 13.0968 17.5787 13.1385 17.6056 13.1693C17.63 13.1972 17.6308 13.1908 17.5633 13.4977C17.4896 13.8324 17.5063 13.8067 17.3624 13.8067C17.2286 13.8067 17.2257 13.8047 17.2186 13.7048C17.2052 13.5158 17.0699 13.4221 16.8315 13.4368C16.4746 13.4589 16.1974 13.7459 16.1374 14.1553C16.051 14.7459 16.5451 15.0637 17.263 14.8791C17.4436 14.8326 17.4476 14.8377 17.4056 15.0604C17.3704 15.2465 17.3755 15.2395 17.2511 15.2719C16.8817 15.3681 16.3762 15.3695 16.0627 15.2751C15.4684 15.096 15.2104 14.5832 15.4092 13.9763C15.6203 13.3319 16.305 12.9909 17.2115 13.0788V13.0788ZM11.9534 13.1271L11.9695 13.1485L11.9508 13.2373C11.9298 13.3376 11.9193 13.3537 11.8624 13.3744C11.8217 13.3891 11.7682 13.4373 11.7536 13.4724C11.7441 13.4953 11.6106 14.0941 11.6141 14.0981C11.6168 14.1011 12.3807 13.4659 12.3924 13.4508C12.417 13.4192 12.4014 13.3863 12.3492 13.3599C12.3335 13.3519 12.3215 13.3386 12.3181 13.3253C12.3096 13.2919 12.3433 13.1424 12.3643 13.12L12.3816 13.1016H13.3426L13.3609 13.1212C13.3814 13.143 13.381 13.1594 13.3566 13.2663C13.3385 13.3462 13.3313 13.3528 13.2474 13.3673C13.1706 13.3805 13.0819 13.412 13.0324 13.4438C13.0059 13.4608 12.2867 14.0552 12.253 14.0879C12.2438 14.0969 12.2887 14.1616 12.542 14.5047C12.9304 15.0307 12.935 15.0356 13.064 15.05C13.1615 15.061 13.1709 15.0765 13.1469 15.1877C13.1154 15.3339 13.1487 15.3227 12.7576 15.3178C12.1637 15.3102 12.0588 15.2354 11.6713 14.5435C11.6361 14.4803 11.6006 14.4173 11.5649 14.3543C11.5554 14.3385 11.4329 14.9018 11.4391 14.9329C11.4465 14.9699 11.4706 14.9977 11.5167 15.0224C11.596 15.0648 11.5967 15.067 11.5702 15.1866C11.5486 15.2838 11.5417 15.3003 11.5183 15.3109C11.5044 15.3173 11.3439 15.3199 10.9614 15.3199C10.3068 15.3199 10.3588 15.3344 10.3986 15.1637C10.4198 15.0731 10.4277 15.062 10.4783 15.0511C10.5873 15.0277 10.6572 14.9458 10.702 14.7891C10.7136 14.7486 10.9605 13.6238 10.9719 13.56C10.9849 13.4865 10.9455 13.413 10.8761 13.3812C10.8063 13.3493 10.8036 13.34 10.8286 13.2257C10.859 13.0863 10.7883 13.1012 11.4104 13.1036L11.9374 13.1056L11.9534 13.1271ZM15.4887 13.1211C15.5136 13.146 15.5175 13.1177 15.4449 13.4454C15.3686 13.7899 15.3888 13.7592 15.2381 13.7592C15.0923 13.7592 15.0883 13.7563 15.0883 13.6537C15.0883 13.5702 15.07 13.5301 15.0182 13.4996L14.9813 13.4779L14.7027 13.4756L14.4241 13.4732L14.4145 13.5191C14.4093 13.5444 14.3811 13.6738 14.3518 13.8067L14.2987 14.0484L14.655 14.0523L15.0113 14.0563L15.0276 14.0781L15.0439 14.1L15.0068 14.2676C14.9785 14.3953 14.9656 14.4396 14.9523 14.4538L14.935 14.4722H14.2047L14.1623 14.6665C14.1037 14.934 14.1076 14.9614 14.2145 15.0328C14.2389 15.0491 14.2613 15.0695 14.2644 15.0782C14.2741 15.106 14.2296 15.2888 14.209 15.3055C14.1874 15.323 13.3484 15.3282 13.3109 15.3111C13.266 15.2906 13.2599 15.327 13.4595 14.4222C13.6777 13.4332 13.6578 13.5324 13.6463 13.4891C13.6328 13.4386 13.6043 13.4057 13.5505 13.3785C13.4842 13.3451 13.4815 13.3359 13.5046 13.2267C13.5181 13.1629 13.5286 13.1322 13.541 13.1195L13.5585 13.1016H15.4692L15.4887 13.1211Z" fill="#FBFBFB"/>
<path fill-rule="evenodd" clip-rule="evenodd" d="M19.939 4.47828C19.939 4.50009 19.9405 4.50806 19.9424 4.49596C19.9442 4.48284 19.9442 4.46952 19.9423 4.4564C19.9404 4.44666 19.9389 4.45648 19.939 4.47828ZM13.9574 4.65409C13.9649 4.65605 13.9774 4.65605 13.9851 4.65409C13.9927 4.65209 13.9864 4.65048 13.9712 4.65048C13.9559 4.65048 13.9497 4.65205 13.9574 4.65409ZM14.0286 4.65409C14.0363 4.65605 14.0487 4.65605 14.0564 4.65409C14.064 4.65209 14.0577 4.65048 14.0425 4.65048C14.0273 4.65048 14.021 4.65205 14.0286 4.65409V4.65409ZM12.1193 5.49383C12.127 5.4958 12.1394 5.4958 12.1471 5.49383C12.1547 5.49187 12.1485 5.49022 12.1332 5.49022C12.118 5.49022 12.1117 5.49183 12.1194 5.49383H12.1193ZM12.246 6.04294C12.246 6.05822 12.2476 6.06447 12.2496 6.05681C12.2516 6.04766 12.2516 6.03821 12.2496 6.02907C12.2476 6.02145 12.246 6.02769 12.246 6.04294ZM15.3753 6.16967C15.3753 6.18496 15.3769 6.1912 15.3789 6.18354C15.3809 6.17592 15.3809 6.16351 15.3789 6.15585C15.3769 6.14822 15.3753 6.15447 15.3753 6.16967ZM11.8108 6.36776C11.8108 6.39172 11.8123 6.40154 11.8141 6.38952C11.8159 6.37505 11.8159 6.36042 11.8141 6.34595C11.8123 6.33401 11.8108 6.34379 11.8108 6.36776ZM12.3173 6.98569C12.3173 7.00093 12.3189 7.00718 12.3209 6.99956C12.3229 6.99042 12.3229 6.98096 12.3209 6.97182C12.3189 6.9642 12.3173 6.97045 12.3173 6.98569V6.98569ZM12.6383 7.04674C12.6481 7.04863 12.6641 7.04863 12.6739 7.04674C12.6837 7.04485 12.6757 7.04332 12.6561 7.04332C12.6365 7.04332 12.6285 7.04485 12.6383 7.04674H12.6383ZM13.2721 7.04674C13.282 7.04866 13.2963 7.04859 13.3038 7.04662C13.3114 7.04462 13.3033 7.04309 13.2859 7.04313C13.2685 7.04324 13.2623 7.04489 13.2722 7.04678L13.2721 7.04674ZM14.7259 7.04686C14.7379 7.04866 14.7558 7.04863 14.7655 7.04674C14.7753 7.04485 14.7654 7.04336 14.7436 7.0434C14.7218 7.04348 14.7139 7.04501 14.7259 7.04686V7.04686ZM13.9613 7.24478C13.9711 7.24667 13.9871 7.24667 13.997 7.24478C14.0068 7.2429 13.9987 7.24136 13.9791 7.24136C13.9595 7.24136 13.9515 7.24294 13.9613 7.24478V7.24478ZM16.1834 7.42935C16.1834 7.44459 16.185 7.45084 16.187 7.44322C16.1889 7.43408 16.1889 7.42462 16.187 7.41548C16.185 7.40786 16.1834 7.41411 16.1834 7.42935V7.42935ZM12.0563 7.54422C12.0563 7.56603 12.0578 7.574 12.0597 7.5619C12.0615 7.54877 12.0615 7.53546 12.0596 7.52234C12.0577 7.5126 12.0562 7.52246 12.0563 7.54422ZM13.1375 7.56964C13.1473 7.57153 13.1616 7.57145 13.1692 7.56948C13.1767 7.56752 13.1687 7.56595 13.1513 7.56603C13.1338 7.56614 13.1276 7.56775 13.1375 7.56964V7.56964ZM13.2444 8.07675C13.2565 8.07855 13.2743 8.07851 13.284 8.07663C13.2938 8.07474 13.2839 8.07325 13.2622 8.07333C13.2404 8.07337 13.2324 8.0749 13.2444 8.07675V8.07675ZM14.9279 8.07667C14.9378 8.07855 14.952 8.07847 14.9596 8.07651C14.9672 8.07455 14.9591 8.07297 14.9417 8.07305C14.9242 8.07317 14.9181 8.07478 14.9279 8.07667H14.9279ZM15.625 8.82134C15.6348 8.82322 15.6508 8.82322 15.6606 8.82134C15.6704 8.81945 15.6624 8.81792 15.6428 8.81792C15.6232 8.81792 15.6152 8.81949 15.625 8.82134ZM13.4345 8.89252C13.4421 8.89449 13.4545 8.89449 13.4622 8.89252C13.4698 8.89056 13.4636 8.88887 13.4483 8.88887C13.4331 8.88887 13.4268 8.89052 13.4345 8.89252V8.89252ZM13.9852 8.99581C13.9994 8.99754 14.0208 8.9975 14.0327 8.99569C14.0447 8.99392 14.033 8.99243 14.0069 8.99251C13.9807 8.99251 13.971 8.99404 13.9852 8.99581V8.99581ZM13.7829 9.67931C13.7829 9.69455 13.7845 9.70076 13.7865 9.69314C13.7885 9.68402 13.7885 9.67457 13.7865 9.66544C13.7845 9.65778 13.7829 9.66403 13.7829 9.67931ZM13.0474 10.8795C13.0474 10.9405 13.0487 10.9644 13.0502 10.9327C13.0517 10.9009 13.0517 10.8509 13.0502 10.8218C13.0486 10.7925 13.0474 10.8185 13.0474 10.8795ZM13.4622 11.1665C13.4763 11.1683 13.4995 11.1683 13.5137 11.1665C13.5278 11.1647 13.5163 11.1633 13.4879 11.1633C13.4596 11.1633 13.448 11.1647 13.4622 11.1665ZM14.0054 12.3095C14.0054 12.3378 14.0069 12.3494 14.0086 12.3353C14.0104 12.3181 14.0104 12.3009 14.0086 12.2838C14.0069 12.2696 14.0055 12.2812 14.0055 12.3095H14.0054ZM14.548 13.4721C14.6191 13.4734 14.7332 13.4734 14.8015 13.4721C14.8699 13.4707 14.8118 13.4697 14.6723 13.4697C14.5329 13.4697 14.477 13.4708 14.548 13.4721V13.4721ZM17.2216 13.7236C17.2217 13.7454 17.2232 13.7534 17.225 13.7413C17.2268 13.7282 17.2268 13.7149 17.2249 13.7017C17.223 13.692 17.2215 13.7018 17.2216 13.7236V13.7236ZM17.3164 13.8048C17.3414 13.8063 17.3824 13.8063 17.4075 13.8048C17.4325 13.8032 17.412 13.8019 17.3619 13.8019C17.3118 13.8019 17.2913 13.8032 17.3164 13.8048H17.3164ZM14.3852 14.4703C14.4843 14.4716 14.6465 14.4716 14.7456 14.4703C14.8448 14.469 14.7636 14.468 14.5654 14.468C14.3671 14.468 14.286 14.469 14.3852 14.4703V14.4703ZM10.7013 15.318C10.8483 15.3192 11.089 15.3192 11.236 15.318C11.3831 15.3168 11.2628 15.3158 10.9686 15.3158C10.6745 15.3158 10.5542 15.3168 10.7012 15.318H10.7013ZM12.714 15.318C12.7829 15.3193 12.8934 15.3193 12.9596 15.318C13.0258 15.3166 12.9694 15.3156 12.8343 15.3156C12.6993 15.3156 12.6451 15.3167 12.714 15.318V15.318ZM13.5369 15.318C13.6531 15.3192 13.8457 15.3192 13.9647 15.318C14.0837 15.3168 13.9886 15.3157 13.7534 15.3157C13.518 15.3157 13.4206 15.3168 13.5369 15.318Z" fill="#7C7C7C"/>
<path fill-rule="evenodd" clip-rule="evenodd" d="M11.2195 4.06035C12.7453 4.06145 15.2444 4.06145 16.7731 4.06035C18.3017 4.05921 17.0534 4.05835 13.999 4.05835C10.9445 4.05835 9.69378 4.05921 11.2195 4.06035V4.06035ZM13.9891 4.46429C14.0141 4.46587 14.0551 4.46587 14.0802 4.46429C14.1052 4.46272 14.0847 4.46143 14.0346 4.46143C13.9845 4.46143 13.964 4.46272 13.9891 4.46429ZM13.482 5.6604C13.494 5.66221 13.5136 5.66221 13.5256 5.6604C13.5376 5.65856 13.5278 5.65706 13.5038 5.65706C13.4798 5.65706 13.4701 5.65856 13.482 5.6604ZM15.3753 6.12213C15.3753 6.13738 15.3769 6.14358 15.3789 6.136C15.3809 6.12686 15.3809 6.11741 15.3789 6.10827C15.377 6.1006 15.3753 6.10685 15.3753 6.12213ZM12.0481 6.45882C12.0482 6.47622 12.0498 6.48247 12.0517 6.47257C12.0536 6.46274 12.0535 6.44848 12.0515 6.4409C12.0496 6.43332 12.048 6.44137 12.0481 6.45882ZM12.8284 7.04705C12.9079 7.04835 13.0381 7.04835 13.1176 7.04705C13.1971 7.04575 13.1321 7.04469 12.973 7.04469C12.814 7.04469 12.7489 7.04575 12.8284 7.04705V7.04705ZM14.8292 7.04701C14.8635 7.04854 14.8978 7.04852 14.9321 7.04697C14.9592 7.04544 14.935 7.04414 14.8783 7.04422C14.8217 7.04422 14.7995 7.04548 14.8292 7.04697V7.04701ZM15.1497 7.04697C15.1812 7.0485 15.2329 7.0485 15.2645 7.04697C15.2961 7.04552 15.2703 7.04422 15.2071 7.04422C15.1439 7.04422 15.1181 7.04552 15.1497 7.04697ZM15.6608 7.42137C15.6608 7.44101 15.6624 7.44903 15.6643 7.4392C15.6662 7.42739 15.6662 7.41535 15.6643 7.40353C15.6624 7.39375 15.6608 7.40176 15.6608 7.42141V7.42137ZM11.8499 7.46894C11.8499 7.48419 11.8515 7.49043 11.8535 7.48277C11.8555 7.47363 11.8555 7.46418 11.8535 7.45504C11.8515 7.44745 11.8499 7.45366 11.8499 7.4689V7.46894ZM12.3255 8.18195C12.3255 8.20155 12.3271 8.20957 12.329 8.19975C12.3309 8.18992 12.3309 8.1739 12.329 8.16411C12.3271 8.15429 12.3255 8.16231 12.3255 8.18191V8.18195ZM13.7652 8.29533C13.7652 8.29667 13.7768 8.30829 13.791 8.32106L13.8168 8.34436L13.7935 8.31859C13.7718 8.29462 13.7652 8.2892 13.7652 8.29533V8.29533ZM14.009 8.67091C14.0248 8.67266 14.0408 8.67265 14.0566 8.67087C14.0685 8.66902 14.0568 8.66761 14.0306 8.66765C14.0045 8.66768 13.9948 8.66914 14.009 8.67091ZM12.9352 8.81571C12.9352 8.83096 12.9369 8.8372 12.9389 8.82958C12.9408 8.82044 12.9408 8.81099 12.9389 8.80185C12.9369 8.79423 12.9352 8.80047 12.9352 8.81571V8.81571ZM15.5822 8.91079C15.5822 8.9478 15.5836 8.96296 15.5853 8.94446C15.587 8.92595 15.587 8.89562 15.5853 8.87712C15.5836 8.85858 15.5822 8.87374 15.5822 8.91079ZM13.4861 8.8926C13.4959 8.89448 13.5102 8.89444 13.5177 8.89248C13.5253 8.89052 13.5173 8.88894 13.4999 8.88902C13.4824 8.8891 13.4762 8.89071 13.4861 8.8926ZM13.9218 8.99561C13.9317 8.99749 13.9459 8.99741 13.9535 8.99545C13.9611 8.99348 13.953 8.99191 13.9356 8.99199C13.9182 8.99211 13.912 8.99372 13.9218 8.99561H13.9218ZM14.0643 8.99561C14.0741 8.99749 14.0901 8.99749 14.1 8.99561C14.1098 8.99372 14.1017 8.99215 14.0821 8.99215C14.0625 8.99215 14.0545 8.99372 14.0643 8.99561ZM14.9853 9.92088C14.966 9.94052 14.9521 9.95655 14.9542 9.95655C14.9564 9.95655 14.974 9.94048 14.9932 9.92088C15.0125 9.90127 15.0264 9.88524 15.0243 9.88524C15.0221 9.88524 15.0045 9.90127 14.9853 9.92088ZM15.1197 10.105L15.0685 10.1586L15.122 10.1073C15.1514 10.0791 15.1754 10.055 15.1754 10.0538C15.1754 10.048 15.1674 10.0554 15.1197 10.105V10.105ZM14.3776 10.218C14.3776 10.2419 14.3791 10.2517 14.3809 10.2397C14.3828 10.2253 14.3828 10.2106 14.3809 10.1962C14.3791 10.1842 14.3776 10.194 14.3776 10.218ZM14.9331 10.9468C14.9331 11.0187 14.9342 11.0481 14.9357 11.0122C14.9372 10.9762 14.9372 10.9174 14.9357 10.8815C14.9342 10.8455 14.9331 10.8749 14.9331 10.9468ZM13.0467 11.026C13.0467 11.05 13.0482 11.0598 13.05 11.0478C13.0518 11.0333 13.0518 11.0187 13.05 11.0042C13.0482 10.9923 13.0467 11.0021 13.0467 11.026ZM13.7197 11.1583C13.7273 11.1602 13.7398 11.1602 13.7474 11.1583C13.7551 11.1563 13.7488 11.1546 13.7335 11.1546C13.7183 11.1546 13.7121 11.1563 13.7197 11.1583V11.1583ZM13.3791 11.1664C13.391 11.1682 13.4106 11.1682 13.4226 11.1664C13.4346 11.1646 13.4248 11.1631 13.4008 11.1631C13.3769 11.1631 13.367 11.1646 13.379 11.1664H13.3791ZM13.1613 11.1744C13.1771 11.1762 13.193 11.1761 13.2088 11.1743C13.2208 11.1725 13.2091 11.171 13.1829 11.1711C13.1568 11.1712 13.1471 11.1726 13.1613 11.1744H13.1613ZM14.3771 12.1431C14.3771 12.1583 14.3787 12.1646 14.3807 12.1569C14.3827 12.1493 14.3827 12.1368 14.3807 12.1292C14.3788 12.1216 14.3771 12.1278 14.3771 12.1431ZM14.0052 12.3926C14.0052 12.4144 14.0068 12.4224 14.0086 12.4103C14.0104 12.3983 14.0104 12.3805 14.0085 12.3708C14.0066 12.361 14.0051 12.3708 14.0052 12.3926V12.3926ZM11.1449 13.1077C11.2877 13.1088 11.5211 13.1088 11.6639 13.1077C11.8066 13.1064 11.6898 13.1054 11.4044 13.1054C11.119 13.1054 11.0022 13.1064 11.1449 13.1076V13.1077ZM12.6264 13.1076C12.7561 13.1088 12.9682 13.1088 13.0978 13.1076C13.2274 13.1064 13.1213 13.1054 12.8621 13.1054C12.6028 13.1054 12.4968 13.1064 12.6264 13.1076H12.6264ZM14.0412 13.1076C14.304 13.1088 14.7318 13.1088 14.9919 13.1076C15.2519 13.1065 15.0368 13.1055 14.5139 13.1055C13.991 13.1055 13.7783 13.1065 14.0412 13.1076ZM16.8449 13.4322C16.8633 13.434 16.8819 13.434 16.9003 13.4323C16.9167 13.4305 16.9053 13.4291 16.8748 13.4291C16.8443 13.4291 16.8308 13.4305 16.8449 13.4322H16.8449ZM14.4683 14.0583C14.5653 14.0596 14.7239 14.0596 14.8209 14.0583C14.9178 14.057 14.8385 14.056 14.6446 14.056C14.4507 14.056 14.3714 14.057 14.4683 14.0583ZM16.1206 14.286C16.1207 14.3122 16.1221 14.322 16.1239 14.3077C16.1256 14.2919 16.1256 14.276 16.1238 14.2602C16.122 14.2483 16.1205 14.2599 16.1206 14.286V14.286ZM15.3441 14.3772C15.3441 14.4012 15.3456 14.411 15.3474 14.399C15.3493 14.3845 15.3493 14.3699 15.3474 14.3554C15.3456 14.3434 15.3441 14.3532 15.3441 14.3772ZM16.8291 14.9375C16.8433 14.9392 16.8665 14.9392 16.8806 14.9375C16.8948 14.9357 16.8832 14.9343 16.8549 14.9343C16.8266 14.9343 16.815 14.9357 16.8292 14.9375H16.8291ZM16.4766 15.3412C16.4842 15.3432 16.4967 15.3432 16.5044 15.3412C16.512 15.3392 16.5057 15.3376 16.4905 15.3376C16.4753 15.3376 16.469 15.3392 16.4766 15.3412V15.3412ZM16.7064 15.3412C16.714 15.3432 16.7265 15.3432 16.7341 15.3412C16.7417 15.3392 16.7355 15.3376 16.7202 15.3376C16.705 15.3376 16.6988 15.3392 16.7064 15.3412V15.3412ZM11.6718 15.9438C12.9539 15.9449 15.052 15.9449 16.3341 15.9438C17.6162 15.9427 16.5672 15.9418 14.0029 15.9418C11.4386 15.9418 10.3897 15.9427 11.6718 15.9438" fill="#6C6C6C"/>
<path fill-rule="evenodd" clip-rule="evenodd" d="M15.4685 5.04861C15.4833 5.06389 15.4972 5.07635 15.4993 5.07635C15.5015 5.07635 15.4912 5.06389 15.4764 5.04861C15.4616 5.03337 15.4478 5.02087 15.4456 5.02087C15.4434 5.02087 15.4537 5.03337 15.4685 5.04861ZM15.5953 15.007C15.6101 15.0222 15.6239 15.0347 15.6261 15.0347C15.6283 15.0347 15.618 15.0222 15.6032 15.007C15.5884 14.9917 15.5745 14.9792 15.5723 14.9792C15.5702 14.9792 15.5805 14.9917 15.5953 15.007Z" fill="#9C9C9C"/>
<path fill-rule="evenodd" clip-rule="evenodd" d="M8.06354 4.48225C8.06354 4.50622 8.06503 4.51604 8.06684 4.50402C8.06864 4.48953 8.06864 4.47489 8.06684 4.46041C8.06503 4.44846 8.06354 4.45829 8.06354 4.48225ZM13.1771 4.88399C13.1869 4.88588 13.2012 4.88576 13.2088 4.8838C13.2164 4.88183 13.2083 4.88026 13.1909 4.88034C13.1734 4.88046 13.1672 4.88207 13.1771 4.88399H13.1771ZM13.2484 5.19294C13.2582 5.19482 13.2725 5.19475 13.2801 5.19278C13.2877 5.19082 13.2796 5.18925 13.2622 5.18932C13.2448 5.1894 13.2385 5.19101 13.2484 5.19294V5.19294ZM15.376 6.24102C15.376 6.2693 15.3774 6.28089 15.3792 6.26675C15.381 6.25261 15.381 6.22943 15.3792 6.21528C15.3774 6.2011 15.376 6.21265 15.376 6.24102ZM16.1915 6.59353C16.1915 6.61097 16.1932 6.61718 16.195 6.60732C16.197 6.59746 16.1969 6.5832 16.1949 6.57562C16.1929 6.56807 16.1913 6.57609 16.1915 6.59353V6.59353ZM15.819 6.61337C15.819 6.62857 15.8206 6.63482 15.8226 6.6272C15.8246 6.61808 15.8246 6.60863 15.8226 6.5995C15.8206 6.59184 15.819 6.59809 15.819 6.61337ZM14.6624 7.04662C14.67 7.04858 14.6825 7.04858 14.6901 7.04662C14.6977 7.04466 14.6915 7.04297 14.6763 7.04297C14.661 7.04297 14.6547 7.04462 14.6624 7.04662V7.04662ZM15.6525 7.54819C15.6525 7.56343 15.6541 7.56968 15.6562 7.56206C15.6582 7.55291 15.6582 7.54346 15.6562 7.53432C15.6541 7.5267 15.6525 7.5329 15.6525 7.54819V7.54819ZM12.6582 8.99003C12.6582 9.00967 12.6598 9.01769 12.6616 9.00787C12.6635 8.99805 12.6635 8.98202 12.6616 8.97223C12.6598 8.96241 12.6582 8.97043 12.6582 8.99003ZM13.8543 9.1064C13.8619 9.1084 13.8744 9.1084 13.8821 9.1064C13.8896 9.10443 13.8834 9.10282 13.8682 9.10282C13.8529 9.10282 13.8467 9.10439 13.8543 9.1064V9.1064ZM14.1157 9.27277C14.1234 9.27478 14.1359 9.27478 14.1435 9.27277C14.1511 9.27081 14.1448 9.26916 14.1296 9.26916C14.1144 9.26916 14.1081 9.27081 14.1157 9.27277V9.27277ZM14.2029 9.27277C14.2105 9.27478 14.223 9.27478 14.2306 9.27277C14.2383 9.27081 14.232 9.26916 14.2167 9.26916C14.2015 9.26916 14.1953 9.27081 14.2029 9.27277ZM14.7501 9.36239C14.7501 9.39071 14.7515 9.4023 14.7532 9.38816C14.755 9.37105 14.755 9.3538 14.7532 9.33669C14.7515 9.32251 14.7501 9.33406 14.7501 9.36239ZM14.6308 10.604C14.6428 10.6058 14.6607 10.6058 14.6704 10.6038C14.6802 10.6019 14.6703 10.6005 14.6485 10.6005C14.6267 10.6006 14.6188 10.6021 14.6308 10.604V10.604ZM13.4702 10.6197C13.48 10.6216 13.4943 10.6215 13.5019 10.6196C13.5094 10.6176 13.5014 10.616 13.4839 10.6161C13.4665 10.6162 13.4603 10.6178 13.4702 10.6197V10.6197ZM14.9395 10.7409C14.9395 10.7561 14.9411 10.7624 14.9431 10.7547C14.9452 10.7456 14.9452 10.7361 14.9431 10.727C14.9412 10.7194 14.9395 10.7256 14.9395 10.7409V10.7409ZM14.5198 11.1425C14.5274 11.1444 14.5399 11.1444 14.5475 11.1425C14.5552 11.1404 14.5489 11.1388 14.5337 11.1388C14.5184 11.1388 14.5122 11.1404 14.5198 11.1425ZM13.5653 11.1665C13.5811 11.1683 13.597 11.1682 13.6128 11.1664C13.6247 11.1646 13.6131 11.1632 13.5869 11.1632C13.5608 11.1633 13.551 11.1647 13.5653 11.1665ZM14.0051 11.6797C14.0052 11.7014 14.0067 11.7095 14.0086 11.6974C14.0103 11.6853 14.0103 11.6675 14.0084 11.6578C14.0066 11.648 14.0051 11.6579 14.0051 11.6797V11.6797ZM14.0058 12.1788C14.0058 12.2267 14.0072 12.2453 14.0087 12.2201C14.0103 12.1949 14.0103 12.1556 14.0087 12.1329C14.0071 12.1102 14.0058 12.1308 14.0058 12.1788ZM14.3862 12.3293C14.3862 12.386 14.3875 12.4081 14.389 12.3785C14.3906 12.3442 14.3906 12.3098 14.389 12.2755C14.3874 12.2485 14.3862 12.2726 14.3862 12.3293V12.3293ZM12.5472 15.3175C12.5548 15.3194 12.5673 15.3194 12.5749 15.3175C12.5825 15.3155 12.5763 15.3139 12.561 15.3139C12.5458 15.3139 12.5395 15.3155 12.5472 15.3175Z" fill="#BCBCBC"/>
<path fill-rule="evenodd" clip-rule="evenodd" d="M8.43703 4.4366L8.41373 4.46237L8.43946 4.43911C8.45361 4.42626 8.46523 4.41471 8.46523 4.41334C8.46523 4.40721 8.45871 4.41259 8.43703 4.4366ZM8.37994 4.57724C8.37994 4.59248 8.38152 4.59873 8.38356 4.59111C8.38552 4.58345 8.38552 4.57099 8.38356 4.56333C8.38155 4.55575 8.37994 4.562 8.37994 4.57724Z" fill="#F4839A"/>
<path fill-rule="evenodd" clip-rule="evenodd" d="M16.9698 8.42351C16.9698 10.6544 16.9707 11.5659 16.9718 10.449C16.9729 9.33208 16.9729 7.50681 16.9718 6.39277C16.9707 5.27877 16.9698 6.1926 16.9698 8.42351H16.9698ZM14.0782 5.53582C14.0996 5.55758 14.119 5.57542 14.1212 5.57542C14.1233 5.57542 14.1075 5.55758 14.0861 5.53582C14.0646 5.51405 14.0453 5.49622 14.0431 5.49622C14.0409 5.49622 14.0567 5.51405 14.0782 5.53582ZM12.8736 5.73586L12.8423 5.76953L12.876 5.73822C12.9073 5.70907 12.9133 5.70219 12.9073 5.70219C12.906 5.70219 12.8908 5.71736 12.8736 5.73586ZM15.2264 7.96995L15.2032 7.99568L15.2289 7.97243C15.243 7.95962 15.2546 7.94807 15.2546 7.94669C15.2546 7.94057 15.2481 7.94595 15.2264 7.96995H15.2264ZM14.6129 8.63593C14.6129 8.63731 14.6245 8.6489 14.6386 8.66166L14.6644 8.68492L14.6412 8.65919C14.6195 8.63522 14.6129 8.6298 14.6129 8.63593ZM15.6979 13.4958L15.6705 13.5255L15.7003 13.4982C15.7279 13.4728 15.7336 13.4661 15.7276 13.4661C15.7262 13.4661 15.7129 13.4794 15.6979 13.4958ZM16.2766 14.7123C16.2766 14.7137 16.2882 14.7253 16.3024 14.7381L16.3281 14.7614L16.3049 14.7356C16.2831 14.7116 16.2766 14.7062 16.2766 14.7123Z" fill="#CCCCCC"/>
</svg>
