<svg width="56" height="38" viewBox="0 0 56 38" fill="none" xmlns="http://www.w3.org/2000/svg">
<path d="M33.2074 6.80963C34.9378 6.80963 36.6685 6.80938 38.399 6.80989C38.4 7.19959 38.397 7.58955 38.4008 7.97951C37.9611 7.99869 37.5116 8.04791 37.1067 8.23191C36.696 8.41641 36.3518 8.75211 36.1746 9.16781C34.0703 14.1144 31.9676 19.0614 29.8656 24.009C29.8292 24.0902 29.8 24.1743 29.7576 24.2528C29.0049 24.2439 28.252 24.2515 27.4993 24.2487C27.1672 23.5887 26.8403 22.9259 26.5054 22.2674C26.1215 23.2962 25.7353 24.324 25.3514 25.3525C27.8343 25.3527 30.3171 25.3525 32.8 25.3527C33.2546 25.3588 33.7228 25.3399 34.1481 25.1622C34.8548 24.8782 35.4174 24.3295 35.8752 23.7346C36.428 23.0137 36.8475 22.2023 37.2213 21.3777C37.6405 21.3741 38.0595 21.3789 38.4785 21.3782C37.6839 23.0753 36.8853 24.771 36.0837 26.4648C30.3623 26.4651 24.6411 26.4648 18.9197 26.4648C19.0591 26.1011 19.1916 25.7344 19.341 25.3744C19.3501 25.3373 19.3963 25.3467 19.4243 25.3431C20.1386 25.3378 20.8577 25.3101 21.5586 25.1614C21.9233 25.0759 22.3006 24.9618 22.5813 24.7013C22.7297 24.5597 22.7759 24.353 22.8251 24.1622C23.5008 22.354 24.1775 20.546 24.8537 18.7381C23.4246 15.6931 21.9907 12.6499 20.5608 9.60522C20.4457 9.33894 20.2938 9.07518 20.0548 8.90178C19.5601 8.53126 18.9172 8.48431 18.3215 8.46058C18.321 8.02418 18.3215 7.58804 18.3213 7.15164C20.3301 7.15088 22.3387 7.15113 24.3476 7.15138C24.3479 7.58778 24.3481 8.02418 24.3474 8.46058C24.0856 8.47724 23.8077 8.47295 23.5707 8.60243C23.4531 8.65796 23.3839 8.79779 23.4142 8.925C23.4513 9.13323 23.6159 9.2819 23.6992 9.46993C24.5475 11.2971 25.3958 13.1244 26.2467 14.9508C26.673 13.7587 27.0993 12.5669 27.5273 11.3756C27.5902 11.21 27.6124 11.0187 27.5407 10.8521C27.4844 10.7206 27.3567 10.6393 27.2308 10.5845C26.9859 10.4836 26.7169 10.4846 26.4574 10.4659C26.5899 10.0977 26.7232 9.7294 26.8605 9.36317C26.8923 9.34272 26.9365 9.35837 26.9731 9.35333C29.0112 9.35459 31.0496 9.35333 33.088 9.35408C32.9471 9.7241 32.8071 10.0941 32.6677 10.4646C32.1768 10.4874 31.6708 10.4997 31.2104 10.6916C30.9994 10.7799 30.7997 10.9149 30.675 11.1103C30.5885 11.2534 30.5347 11.4132 30.4766 11.5691C29.625 13.8917 28.7656 16.2113 27.9236 18.5374C28.39 19.5917 28.8762 20.6369 29.3519 21.6869C31.0796 17.6071 32.8068 13.5268 34.5365 9.44772C34.6531 9.20239 34.8429 8.97851 34.8578 8.69633C34.8722 8.47548 34.7084 8.28491 34.5186 8.1943C34.1094 8.00551 33.6496 7.99617 33.2074 7.98027C33.2069 7.59006 33.2069 7.19984 33.2074 6.80963V6.80963ZM36.349 28.777C36.8944 29.3419 37.4356 29.9106 37.9757 30.4802C37.975 29.9507 37.978 29.4209 37.9775 28.8914C38.0709 28.8916 38.1643 28.8906 38.2579 28.8893C38.2582 29.6453 38.2582 30.4015 38.2579 31.1574C37.712 30.5953 37.1741 30.0257 36.6309 29.4608C36.6317 29.9936 36.6297 30.5267 36.6294 31.0597C36.5358 31.0605 36.4424 31.0602 36.349 31.0602C36.3487 30.299 36.3485 29.538 36.349 28.777V28.777ZM20.4707 28.8548C21.0717 28.7624 21.7075 29.2329 21.761 29.8457C21.8115 30.1963 21.6754 30.5618 21.4187 30.8033C20.9967 31.2163 20.2378 31.2087 19.8281 30.7811C19.6068 30.5666 19.4806 30.2574 19.4939 29.9487C19.5 29.4116 19.944 28.9318 20.4707 28.8548V28.8548ZM20.471 29.1324C20.1212 29.1895 19.8364 29.4967 19.7875 29.8447C19.7208 30.2402 19.9649 30.6658 20.3468 30.795C20.681 30.9212 21.0876 30.8023 21.3021 30.5171C21.5795 30.169 21.5326 29.6075 21.1913 29.3185C20.9995 29.144 20.7221 29.0865 20.471 29.1324V29.1324ZM24.8105 28.9717C25.1184 28.7405 25.6215 28.8361 25.7992 29.1854C25.725 29.2273 25.6507 29.2695 25.5765 29.3114C25.443 29.1027 25.1177 29.0517 24.9382 29.2289C24.8622 29.2844 24.8706 29.3861 24.8787 29.4696C24.9004 29.5787 25.0165 29.6249 25.102 29.6761C25.3226 29.7922 25.5876 29.8591 25.7426 30.0696C25.9155 30.3046 25.887 30.6544 25.6985 30.872C25.5013 31.1105 25.1409 31.1686 24.8653 31.0436C24.6538 30.9391 24.523 30.7183 24.4806 30.4919C24.5753 30.4694 24.6704 30.4487 24.7653 30.4275C24.7749 30.634 24.9352 30.8427 25.1533 30.8465C25.4476 30.8785 25.6815 30.4959 25.5102 30.2518C25.3272 30.0027 24.9743 29.9992 24.7638 29.7839C24.516 29.5812 24.5409 29.1443 24.8105 28.9717V28.9717ZM34.8578 28.8533C35.2516 28.804 35.6584 28.9858 35.9002 29.2972C36.2488 29.7334 36.193 30.4292 35.7793 30.8043C35.5431 31.0378 35.1958 31.1339 34.8697 31.0994C34.5474 31.0782 34.2457 30.8974 34.0597 30.636C33.8593 30.3571 33.8073 29.9843 33.9022 29.6564C34.0262 29.2316 34.4214 28.9088 34.8578 28.8533ZM34.8096 29.1362C34.3755 29.2102 34.065 29.6725 34.1412 30.1026C34.1895 30.5163 34.5819 30.853 34.9971 30.8452C35.2803 30.85 35.5504 30.6895 35.7031 30.4547C35.9351 30.1185 35.874 29.6218 35.5751 29.3452C35.3795 29.147 35.0774 29.0802 34.8096 29.1362V29.1362ZM18.5469 28.8899C18.6365 28.8894 18.7261 28.8894 18.8157 28.8899C18.816 29.5307 18.8155 30.1718 18.816 30.8127C19.0386 30.8132 19.261 30.8127 19.4836 30.8129C19.4841 30.8952 19.4841 30.9775 19.4838 31.06C19.1714 31.0603 18.8592 31.0605 18.5469 31.06C18.5472 30.3366 18.5472 29.6133 18.5469 28.8899V28.8899ZM21.9783 28.8916C22.0732 28.8909 22.1681 28.8911 22.2633 28.8914C22.264 29.3185 22.262 29.7458 22.2643 30.1728C22.2686 30.3606 22.2918 30.5671 22.4246 30.7117C22.6358 30.9189 23.0508 30.8894 23.1982 30.6208C23.2726 30.4946 23.2943 30.3452 23.2923 30.2008C23.2905 29.7644 23.2905 29.328 23.2908 28.8914C23.3857 28.8909 23.4806 28.8911 23.5755 28.8914C23.5755 29.3369 23.5765 29.7824 23.5753 30.2279C23.5758 30.43 23.5407 30.6438 23.4114 30.8064C23.1336 31.1913 22.4894 31.2132 22.185 30.8495C22.0404 30.6981 21.9808 30.4845 21.9788 30.2791C21.9776 29.8167 21.9786 29.354 21.9783 28.8916V28.8916ZM23.9261 28.8901C24.0195 28.8891 24.1131 28.8893 24.2068 28.8899C24.2068 29.6132 24.207 30.3366 24.2065 31.0602C24.1131 31.0602 24.0195 31.0605 23.9258 31.0597C23.9263 30.3366 23.9263 29.6132 23.9261 28.8901ZM26.7366 28.8919C26.8393 28.8891 26.9425 28.8891 27.0455 28.8896C27.2611 29.4171 27.4733 29.9459 27.6851 30.475C27.8964 29.9477 28.1137 29.4229 28.3201 28.8939C28.4259 28.8851 28.5319 28.8911 28.6379 28.8896C28.3227 29.6572 28.0061 30.4242 27.6881 31.1905C27.3645 30.427 27.0526 29.6584 26.7366 28.8919ZM28.7664 28.8894C28.8598 28.8906 28.9532 28.8916 29.0468 28.8914C29.0501 29.3119 29.0463 29.7326 29.0498 30.1531C29.0564 30.3528 29.0718 30.5792 29.2242 30.7271C29.4002 30.8778 29.6803 30.8871 29.8681 30.7531C29.9774 30.6754 30.0375 30.5461 30.0612 30.4174C30.0985 30.1958 30.0852 29.9704 30.0877 29.7468C30.0892 29.4618 30.0895 29.1769 30.089 28.8919C30.1788 28.8909 30.2689 28.8911 30.359 28.8914C30.3631 29.2867 30.3598 29.6817 30.3608 30.0769C30.3671 30.322 30.3593 30.588 30.2101 30.795C29.9489 31.1718 29.3477 31.2125 29.017 30.9063C28.8517 30.7534 28.7686 30.5277 28.7674 30.3051C28.7649 29.8331 28.7669 29.3614 28.7664 28.8894ZM30.7114 28.8914C30.8088 28.8916 30.9062 28.8906 31.0039 28.8896C31.0039 29.613 31.0037 30.3364 31.0039 31.06C30.9057 31.0603 30.8078 31.0603 30.7099 31.06C30.7089 30.3371 30.7121 29.6143 30.7114 28.8914ZM31.1791 28.8914C32.0541 28.8922 32.929 28.8899 33.804 28.8901C33.8038 28.9767 33.8038 29.0633 33.804 29.1501C33.6362 29.1509 33.4686 29.1501 33.301 29.1504C33.3002 29.7869 33.3008 30.4235 33.3008 31.06C33.2031 31.0603 33.1056 31.0603 33.008 31.06C33.0075 30.4235 33.0097 29.7869 33.007 29.1504C32.6634 29.1509 32.3199 29.1501 31.9764 29.1506C31.9759 29.7872 31.9764 30.4235 31.9762 31.06C31.8866 31.0603 31.797 31.0603 31.7076 31.06C31.7073 30.4235 31.7079 29.7872 31.7073 29.1506C31.5312 29.1501 31.3553 29.1509 31.1791 29.1501C31.1788 29.0638 31.1788 28.9775 31.1791 28.8914V28.8914Z" fill="black"/>
</svg>
