<svg width="28" height="20" viewBox="0 0 28 20" fill="none" xmlns="http://www.w3.org/2000/svg">
<path d="M5.58784 9.90776L5.91101 10.4203L6.56107 9.38422V11.6793H7.12103V8.34084H6.5496L5.58784 9.90776ZM4.01705 8.34082H3.45068V11.6793H4.01206V9.3842L5.28657 11.4221L5.61168 10.9021L4.01705 8.34082ZM10.4885 10.6444L11.0066 11.6793H11.6819L9.98773 8.34085H9.37892L9.3784 8.34189L10.2267 10.1123H9.09946L9.39367 9.53516L9.0868 8.90796L7.65927 11.6793H8.29087L8.82447 10.6447L10.4885 10.6444ZM15.4209 8.34082H14.8594V9.96203L15.4209 10.5259V8.34082ZM12.7108 8.34082H12.1395V11.6793H12.7013V9.18471L15.0028 11.6793H15.4209V11.2736L12.7108 8.34082Z" fill="#17181B"/>
<path d="M19.3444 9.26741C19.077 8.98974 18.6647 8.81192 18.2022 8.81192C17.4639 8.81192 16.8538 9.2651 16.7564 9.85321H16.1382C16.219 8.94037 17.153 8.26752 18.2097 8.26752C18.8382 8.26752 19.4029 8.50156 19.783 8.87812L19.3444 9.26741ZM18.15 11.2132C17.5336 11.2132 17.009 10.8792 16.8133 10.412H16.1826C16.3911 11.2173 17.2112 11.7544 18.1849 11.7544C18.411 11.7544 18.6711 11.7321 18.8872 11.6784C19.3747 11.5578 19.9071 11.241 19.9071 10.7408V9.8532H18.1435L18.1422 10.412H19.3435V10.6657C19.3435 10.9459 18.9249 11.1079 18.6688 11.1648C18.5309 11.1954 18.354 11.2132 18.2112 11.2132H18.15ZM24.5492 10.0133C24.5492 9.01769 23.6455 8.24529 22.5354 8.24529C21.4605 8.24529 20.5161 8.98202 20.5161 9.95973C20.5161 10.8816 21.2578 11.6202 22.2569 11.7373V11.1796C21.6032 11.0719 21.1092 10.5836 21.1092 9.99629C21.1092 9.33007 21.7445 8.78961 22.5278 8.78961C23.3114 8.78961 23.9464 9.33007 23.9464 9.99629C23.9464 10.579 23.4602 11.0641 22.8142 11.1769V11.7358C23.7728 11.6193 24.5492 10.9082 24.5492 10.0133" fill="black"/>
</svg>
