<svg width="28" height="20" viewBox="0 0 28 20" fill="none" xmlns="http://www.w3.org/2000/svg">
<path d="M9.70092 10.3115L11.7623 4.75635H10.3997L9.45635 7.16707L9.66598 4.75635H8.23352L6.17217 10.3115H7.49982L8.51302 7.62127L8.33833 10.2416L9.70092 10.3115ZM11.3081 10.3115L13.3694 4.75635H12.0767L9.98042 10.3115H11.3081ZM15.0464 9.96211L14.9766 7.16707L16.9331 4.8961L15.0464 9.96211ZM24.5496 8.00558L17.9114 9.71755L18.086 9.19348H16.6885L17.1427 7.86583H18.3306L18.68 6.85263L17.4921 6.92251L17.9114 5.80449H19.0643L19.4486 4.79129H15.7103L14.3477 6.39844L15.0115 4.75635H13.6839L11.6225 10.3115H12.9851L13.8585 7.93571V10.3115H15.6054L9.35154 11.9536C8.69935 12.1399 8.11703 12.2215 7.60463 12.1981C7.0922 12.1748 6.69624 12.0351 6.41674 11.7789C5.78786 11.3131 5.56656 10.6026 5.75292 9.64767C5.86937 9.01879 6.12557 8.41321 6.52155 7.83089C5.58986 8.80916 4.90274 9.63604 4.46021 10.3115C3.97108 11.0336 3.65664 11.744 3.51688 12.4427C3.37713 13.1415 3.45864 13.7121 3.76145 14.1547C4.57666 15.5056 6.3585 15.5988 9.10697 14.4342L24.5496 8.00558Z" fill="#17181B"/>
</svg>
