<svg width="56" height="38" viewBox="0 0 56 38" fill="none" xmlns="http://www.w3.org/2000/svg">
<path d="M26.1579 21.214C25.8943 21.2656 25.6082 21.2318 25.379 21.0854C25.1115 20.9231 24.9331 20.6321 24.8992 20.3218C24.8949 20.2585 24.8947 20.1951 24.8985 20.1319C24.9376 19.775 25.2053 19.4483 25.5585 19.3662C25.9926 19.8434 26.4266 20.3201 26.8631 20.7948C26.6849 21.0101 26.4312 21.1593 26.1579 21.214ZM28.1176 20.6091C28.1325 20.4133 28.1465 20.2151 28.2096 20.0272C28.2838 19.7907 28.4148 19.5459 28.6484 19.4354C28.6962 19.4211 28.7456 19.4107 28.7954 19.4063C28.7959 19.3613 28.7931 19.3156 28.8045 19.2714C28.7909 19.2096 28.8099 19.1467 28.8033 19.084C28.7942 18.9901 28.7954 18.8956 28.798 18.8013C28.805 18.6838 28.7885 18.5637 28.8045 18.4471C28.7975 18.4176 28.7954 18.3878 28.7947 18.3579C28.5047 18.3551 28.2152 18.4359 27.9655 18.5824C27.5892 18.8033 27.3045 19.1799 27.2051 19.6066C26.6438 19.0011 26.0933 18.3859 25.5335 17.7795C25.4144 17.6455 25.3617 17.4599 25.3846 17.2832C25.4201 17.0921 25.5406 16.9159 25.7168 16.8288C25.8343 16.7641 25.9728 16.7542 26.1036 16.7707C26.3053 16.8038 26.4797 16.9472 26.5624 17.1329C26.8739 16.9711 27.1922 16.8217 27.5024 16.6563C27.4487 16.5556 27.3926 16.4554 27.3221 16.3654C27.0122 15.9559 26.504 15.7004 25.9889 15.7128C25.3932 15.7027 24.8135 16.053 24.5329 16.5764C24.3552 16.8986 24.2893 17.2811 24.3505 17.6439C24.4044 17.9821 24.5667 18.3019 24.808 18.5444C24.5286 18.7098 24.2893 18.9439 24.1219 19.2225C23.9293 19.5398 23.8335 19.9135 23.8446 20.284C23.8563 20.6494 23.9644 21.0126 24.1604 21.3217C24.4528 21.7923 24.9437 22.1338 25.4868 22.2447C25.7634 22.3024 26.0506 22.2991 26.329 22.2538C26.8032 22.1663 27.2435 21.9245 27.5793 21.5791C27.7192 21.7403 27.8668 21.8948 28.0096 22.0535C28.4847 22.0527 28.9599 22.0555 29.4352 22.0522C28.9941 21.573 28.5561 21.0909 28.1176 20.6091H28.1176ZM9.24709 19.1157C9.06907 19.3057 8.81788 19.4145 8.56105 19.4434C8.37645 19.4511 8.19165 19.4453 8.00689 19.447V16.897C8.22365 16.9024 8.44452 16.8782 8.65698 16.9321C8.91364 16.9885 9.15199 17.1291 9.31779 17.3336C9.72922 17.8375 9.69777 18.6464 9.24709 19.1157ZM10.6325 17.6167C10.5147 17.1027 10.2219 16.625 9.79682 16.309C9.39017 16.0024 8.87804 15.8534 8.37201 15.8511C7.88159 15.8513 7.39123 15.8511 6.901 15.8511C6.90084 17.9188 6.90084 19.986 6.901 22.0536H8.00689C8.00689 21.536 8.0067 21.0182 8.00689 20.5008C8.27144 20.4957 8.5383 20.516 8.80104 20.4764C9.23177 20.4159 9.64289 20.2201 9.95722 19.9193C10.3787 19.5225 10.6343 18.9632 10.6869 18.3894C10.7001 18.1308 10.696 17.8692 10.6325 17.6167V17.6167ZM15.0508 15.8513C15.4226 15.8511 15.7945 15.8516 16.1664 15.8511C16.1689 15.8855 16.171 15.92 16.172 15.9546C16.1712 16.0232 16.1715 16.0918 16.1712 16.1607C16.1713 16.2292 16.1718 16.298 16.1712 16.3667C16.1712 16.4666 16.1718 16.5665 16.1712 16.6664C16.1713 16.6977 16.1713 16.729 16.1715 16.7604C16.1671 16.9102 16.1736 17.0602 16.1712 17.2102C16.1728 17.4164 16.1671 17.6224 16.1712 17.8285C16.1721 18.1473 16.1713 18.4659 16.1712 18.7843C16.1713 18.8404 16.1712 18.8964 16.1718 18.953C16.1679 19.0217 16.1679 19.0906 16.1718 19.1593C16.1712 19.2093 16.1713 19.2591 16.1713 19.309C16.1639 19.5266 16.1818 19.7445 16.159 19.9616C16.1268 20.3371 16.0245 20.7096 15.8374 21.0376C15.646 21.3772 15.3617 21.6635 15.0221 21.8549C14.6432 22.0699 14.2042 22.1673 13.7705 22.1673C13.288 22.1725 12.7973 22.0571 12.3877 21.7964C11.9936 21.5486 11.6894 21.1674 11.5213 20.7344C11.3819 20.3836 11.3281 20.0033 11.3309 19.6275C11.3311 18.3688 11.3309 17.1101 11.3309 15.8513C11.7056 15.8511 12.0803 15.8511 12.4549 15.8511C12.4551 17.1357 12.4549 18.4199 12.4551 19.7041C12.4663 20.0643 12.5438 20.4447 12.7849 20.7245C12.9823 20.9585 13.2834 21.0833 13.5842 21.1069C13.8978 21.1377 14.2325 21.0953 14.5032 20.9244C14.7206 20.7876 14.8698 20.5629 14.9486 20.3218C15.0091 20.1475 15.0313 19.9632 15.0463 19.7804C15.0561 19.3296 15.0478 18.8788 15.0505 18.4276C15.0505 17.5692 15.0505 16.71 15.0508 15.8513H15.0508ZM20.4 15.8524C20.7722 15.85 21.1444 15.8518 21.5163 15.8511C21.5166 17.5626 21.5163 19.2736 21.5166 20.9846C22.1532 20.9854 22.7901 20.9828 23.4269 20.9857C23.4264 21.3414 23.4266 21.697 23.4269 22.0527C22.4178 22.0543 21.409 22.0543 20.4002 22.0527C20.4002 19.986 20.4002 17.9191 20.4 15.8524V15.8524ZM32.7223 20.3976C32.6943 20.5444 32.6146 20.6829 32.4956 20.7744C32.3542 20.8873 32.1775 20.9437 32.0024 20.975C31.6665 21.0306 31.325 21.0019 30.9861 21.0091C30.9866 20.4711 30.9858 19.9329 30.9866 19.3951C31.2393 19.3967 31.4918 19.3906 31.7443 19.3992C31.9893 19.4145 32.2451 19.4516 32.4525 19.5912C32.5995 19.686 32.6992 19.8467 32.7256 20.019C32.7448 20.1445 32.7437 20.2724 32.7223 20.3976V20.3976ZM30.9861 16.8624C31.2346 16.8658 31.4852 16.8488 31.7317 16.8917C31.9085 16.9244 32.0888 16.9941 32.2083 17.1345C32.3212 17.2693 32.3585 17.451 32.3542 17.6231C32.3585 17.8184 32.2937 18.0238 32.1453 18.1565C31.9888 18.2948 31.7766 18.3484 31.5731 18.3632C31.3772 18.3675 31.1819 18.3638 30.9861 18.365V16.8624V16.8624ZM33.705 19.4294C33.5531 19.1132 33.2819 18.8618 32.9682 18.7095C32.9695 18.7033 32.9706 18.6971 32.9715 18.6909C33.2003 18.4916 33.366 18.2195 33.4299 17.9221C33.478 17.706 33.467 17.4818 33.4327 17.2644C33.3885 17.0524 33.3091 16.8465 33.1888 16.6659C33.0152 16.4039 32.7668 16.1945 32.4849 16.057C32.2583 15.9513 32.0094 15.9072 31.763 15.8773C31.6129 15.8668 31.4632 15.8546 31.3132 15.8519C30.8341 15.8501 30.3544 15.8518 29.8748 15.8511V22.0535C30.5794 22.05 31.2841 22.0608 31.9883 22.0481C32.4882 22.0069 32.9865 21.8144 33.3478 21.4596C33.6286 21.1926 33.8181 20.8296 33.8649 20.4442C33.8996 20.1005 33.858 19.7421 33.705 19.4293V19.4294ZM34.4657 15.8511C35.7363 15.8511 37.0067 15.8511 38.2769 15.8513C38.2764 16.1999 38.2786 16.5485 38.2759 16.8971C37.3773 16.8978 36.4786 16.895 35.5797 16.8986C35.5802 17.387 35.5802 17.8753 35.5797 18.3637C36.4327 18.367 37.2858 18.3642 38.1387 18.365C38.1391 18.7084 38.1387 19.0519 38.1391 19.3947C37.2861 19.3959 36.4332 19.3939 35.5802 19.3959C35.5797 19.9329 35.5805 20.4703 35.5797 21.0075C36.4786 21.0113 37.3775 21.008 38.2769 21.0091C38.2772 21.3574 38.2769 21.7052 38.2769 22.0535H34.4657V15.8511V15.8511ZM40.8006 19.3909C41.0493 18.7675 41.2995 18.1448 41.5446 17.5201C41.7927 18.1431 42.0367 18.768 42.2868 19.3906C41.7914 19.3922 41.296 19.3923 40.8006 19.3909V19.3909ZM41.989 15.8653C41.9827 15.8326 41.9435 15.8402 41.9209 15.8385C41.6695 15.8392 41.4181 15.8392 41.1673 15.8385C41.1434 15.8413 41.108 15.8318 41.0962 15.8583C40.2539 17.9232 39.4105 19.9879 38.5687 22.053C38.9687 22.0543 39.3689 22.0535 39.769 22.0535C39.9783 21.516 40.1865 20.9778 40.3954 20.4401C41.1607 20.4406 41.9259 20.4401 42.691 20.4406C42.8997 20.9783 43.1064 21.5169 43.3167 22.0538C43.7432 22.0527 44.1696 22.0546 44.5962 22.0527C43.7275 19.9901 42.858 17.9277 41.989 15.8653V15.8653ZM47.5776 18.1664C47.5204 18.3683 47.3855 18.547 47.2042 18.6533C46.9415 18.8115 46.6254 18.8503 46.3236 18.8499C46.2066 18.8494 46.0899 18.8494 45.9734 18.8494V16.897C46.2912 16.8984 46.6141 16.879 46.9248 16.9628C47.0583 17.0021 47.1907 17.0534 47.3036 17.1368C47.4484 17.2382 47.5497 17.3949 47.5926 17.5656C47.6407 17.7625 47.632 17.9717 47.5776 18.1664H47.5776ZM48.5102 21.0406C48.2486 20.5468 47.9984 20.0462 47.7701 19.536C47.9489 19.4354 48.1149 19.3107 48.2569 19.1615C48.4377 18.978 48.5663 18.7494 48.6512 18.5071C48.8267 17.961 48.8077 17.3331 48.5212 16.8276C48.3907 16.5991 48.2031 16.4046 47.9831 16.2604C47.6519 16.039 47.2596 15.9292 46.8684 15.8768C46.7305 15.8659 46.5932 15.8496 46.4552 15.8511C45.9223 15.8518 45.3899 15.8503 44.8569 15.8519C44.8574 17.919 44.8574 19.986 44.8569 22.053C45.2297 22.0538 45.6012 22.0543 45.9734 22.053V19.97C46.0088 19.9695 46.0448 19.9692 46.0808 19.9675C46.1723 19.9542 46.2655 19.9605 46.3574 19.9481C46.4522 19.9402 46.5454 19.9214 46.6405 19.9165C46.6802 20.0203 46.7312 20.1192 46.7769 20.2201C47.0659 20.8422 47.3778 21.4533 47.7121 22.0522C48.1745 22.0552 48.6363 22.0539 49.0987 22.0527C48.8893 21.7231 48.6948 21.3842 48.5102 21.0406ZM16.923 15.8511H18.0369C18.0369 17.5623 18.0366 19.2736 18.0369 20.9846H19.9451C19.9451 21.3409 19.9452 21.6975 19.9451 22.0535H16.923C16.9228 19.9863 16.923 17.9188 16.923 15.8511" fill="#161413"/>
</svg>
