<svg width="56" height="38" viewBox="0 0 56 38" fill="none" xmlns="http://www.w3.org/2000/svg">
<path d="M42.1146 20.7534L43.6817 18.0513L43.8863 14.7837L43.5351 14.7832L39.1948 22.2653L39.3782 22.5812L42.1146 20.7534ZM42.4857 21.3867L39.5403 22.8589L39.7222 23.1758L48.3703 23.1918L48.5449 22.8894L45.5922 21.3896L42.4857 21.3867ZM44.5888 14.7851L44.2119 14.7837L44.3982 18.0518L45.9546 20.7631L48.7055 22.6127L48.8991 22.2827L44.5888 14.7851Z" fill="#D01931"/>
<path d="M32.3302 20.0293L32.3292 21.1445C32.3268 22.4488 31.4322 23.1799 30.184 23.2152H29.914C28.6649 23.1634 27.779 22.4334 27.7814 21.1372V20.0221C27.7858 18.7148 28.6803 17.9896 29.9344 17.9538C29.9977 17.9528 30.1206 17.9538 30.1826 17.9538C31.4409 17.9939 32.3336 18.7322 32.3302 20.0293V20.0293ZM29.9692 19.0361C29.4771 19.0632 29.0045 19.3171 29.0025 20.0269V21.1445C29.0006 21.8272 29.4723 22.102 29.9648 22.132C29.99 22.1349 30.1139 22.1349 30.141 22.1334C30.6238 22.1063 31.1023 21.8441 31.1032 21.1474L31.1047 20.0293C31.1071 19.3273 30.6281 19.0646 30.1376 19.0361C30.0771 19.0317 30.0258 19.0317 29.9692 19.0361V19.0361ZM34.2108 20.1654C34.2108 20.1654 36.0445 18.0787 36.1538 17.9626L37.6865 17.9665L35.4586 20.4837L37.7963 23.0764L36.2433 23.074L34.2089 20.8117L34.205 23.0706L32.9718 23.0682L32.9834 16.7124L34.2157 16.7144L34.2108 20.1654ZM16.7741 20.908L16.7766 20.0086C16.7799 18.7018 15.867 17.9703 14.6163 17.9277L14.3807 17.9263C13.1219 17.9655 12.2268 18.6931 12.2258 19.9989L12.2234 21.1083C12.221 22.3527 13.1475 23.1253 14.3449 23.1877C14.4722 23.1901 14.5384 23.1868 14.6241 23.1877C16.1234 23.1901 16.6841 22.4306 16.7528 21.5616L15.6246 21.5587C15.5946 21.7232 15.539 22.1451 14.5941 22.1441C14.4281 22.1422 14.1983 22.1016 14.0333 22.0474C13.3328 21.8127 13.4446 20.9482 13.4446 20.9008L16.7741 20.908ZM13.4436 19.9157C13.4436 19.2437 13.8901 18.982 14.4194 18.9612C14.476 18.9597 14.5336 18.9583 14.5834 18.9621C15.12 18.9844 15.569 19.2679 15.5675 19.9206V20.0072L13.4417 20.0052L13.4436 19.9157ZM21.9404 20.9156L21.9424 20.0181C21.9457 18.7114 21.0318 17.9799 19.7802 17.9353H19.5465C18.2857 17.974 17.3883 18.7022 17.3863 20.0075L17.3849 21.1178C17.3825 22.3598 18.308 23.1358 19.5073 23.1972C19.638 23.1997 19.7014 23.1972 19.788 23.1972C21.2897 23.1997 21.8466 22.4382 21.9158 21.5717L20.7938 21.5673C20.757 21.7323 20.7062 22.1537 19.7555 22.1522C19.591 22.1508 19.3637 22.1096 19.2011 22.055C18.4942 21.8218 18.6104 20.9567 18.6094 20.9103L21.9404 20.9156ZM18.606 19.9262C18.608 19.2523 19.0565 18.99 19.5819 18.9702C19.637 18.9683 19.697 18.9692 19.7488 18.9717C20.2834 18.9929 20.7328 19.2769 20.7314 19.9286V20.0157L18.6046 20.0128L18.606 19.9262ZM25.0089 17.9541C24.4375 17.9527 24.0461 18.1085 23.8309 18.2928L23.8323 16.6957L22.6083 16.6938L22.5981 23.0496H22.812C22.812 23.0496 23.3558 22.7453 23.3853 22.7351C23.4641 22.8188 24.0002 23.2121 24.7414 23.2121C24.8357 23.2131 24.9228 23.2204 25.0147 23.2146C26.2533 23.1889 27.1508 22.4202 27.1537 21.1439L27.1546 20.035C27.157 18.7867 26.2576 17.9551 25.0089 17.9541V17.9541ZM25.9286 21.1482C25.9282 21.8439 25.4449 22.1057 24.964 22.1371C24.9388 22.1371 24.8111 22.1362 24.7883 22.1347C24.2968 22.1018 23.8251 21.8309 23.8251 21.1463L23.828 20.0292C23.8289 19.317 24.3026 19.0674 24.7927 19.0349C24.8517 19.0306 24.9049 19.0287 24.9649 19.0354C25.4506 19.0688 25.9311 19.3252 25.9301 20.0326L25.9286 21.1482ZM12.0685 23.031L9.71579 20.4063C9.83288 20.4131 9.94897 20.4179 10.068 20.4179C10.8764 20.4189 11.8828 19.9089 11.8842 18.6143C11.8886 17.0617 10.5997 16.6732 9.45744 16.6723L6.71422 16.6655L6.70117 23.0208L7.94409 23.0237V20.1871L10.4937 23.0281L12.0685 23.031ZM7.95183 17.7545L9.44244 17.7589C10.1309 17.7589 10.74 17.9771 10.74 18.6317C10.7381 19.2882 10.3578 19.5233 9.43904 19.519L7.94796 19.518L7.95183 17.7545Z" fill="#2B2C2B"/>
</svg>
