<svg width="28" height="20" viewBox="0 0 28 20" fill="none" xmlns="http://www.w3.org/2000/svg">
<path d="M23.4674 14.1746L20.3414 5.5682L20.3393 5.5625H20.2776L19.6339 7.33109L18.462 10.5509L18.4593 10.5483C18.0531 10.1899 17.4801 9.9659 16.7584 9.88248L16.5383 9.85976L16.7567 9.83176C17.9468 9.6179 18.7468 8.86627 18.7468 7.96071C18.7468 6.71891 17.5788 5.85215 15.9057 5.85215H12.4247V5.91502H13.4362V12.3316L10.9797 5.56818L10.9775 5.5625H10.9158L10.272 7.33109L7.78925 14.1525L7.77398 14.1543C7.73155 14.1595 7.68958 14.1637 7.64806 14.1668C7.5856 14.1717 7.52351 14.1746 7.46123 14.1746H4.95257L9.72119 5.915L9.75664 5.85293H3.92442V8.408H3.9863C3.99727 7.16346 4.72206 5.915 6.32343 5.915H8.25535L3.45068 14.2365H9.92349V11.7886H9.86161C9.85317 12.8733 9.23826 13.9036 7.9011 14.1362L7.85858 14.1435L8.87694 11.3444H11.7297L12.7576 14.1746H11.7436V14.2365H15.7236V14.1746H14.7052V9.90539H15.8803C17.0761 9.90539 17.7619 10.4396 17.7619 11.3706V12.1279C17.7619 12.2114 17.7676 12.3334 17.7738 12.4354V12.4391L17.1422 14.1742H16.3172V14.2361H18.0251V14.1742H17.2089L17.784 12.5942C17.7852 12.6095 17.7858 12.6187 17.7858 12.6187L17.8016 12.7611L17.8169 12.8553C17.9129 13.4379 18.1357 13.8662 18.4791 14.1282L18.5284 14.1641C18.7892 14.3454 19.1134 14.4372 19.4923 14.4372C19.9942 14.4372 20.3289 14.3121 20.6053 14.0176L20.569 13.9835C20.3144 14.2185 20.1008 14.3137 19.8331 14.3137C19.377 14.3137 19.1382 13.7604 19.1382 13.2148V12.1538C19.1407 11.8905 19.0994 11.6286 19.0162 11.3789L19.0049 11.346V11.3448H21.0915L22.1194 14.175H21.1054V14.2369H24.5496V14.175L23.4674 14.1746ZM8.89964 11.2825L10.305 7.42159L11.7072 11.2825H8.89964ZM14.7058 9.8433V5.915H15.6028C16.8009 5.915 17.4335 6.62726 17.4335 7.97404C17.4335 9.40638 17.0704 9.8433 15.8803 9.8433H14.7058ZM18.9806 11.2825L18.9745 11.2672C18.8818 11.0414 18.7468 10.8353 18.5767 10.6601L18.518 10.6014L18.5117 10.5955L19.666 7.42159L21.0682 11.2825H18.9806Z" fill="#17181B"/>
</svg>
